<svg width="307" height="331" xmlns="http://www.w3.org/2000/svg" xmlns:xlink="http://www.w3.org/1999/xlink" overflow="hidden"><defs><clipPath id="clip0"><rect x="51" y="48" width="307" height="331"/></clipPath><clipPath id="clip1"><rect x="110" y="75" width="189" height="189"/></clipPath><clipPath id="clip2"><rect x="110" y="75" width="189" height="189"/></clipPath><clipPath id="clip3"><rect x="110" y="75" width="189" height="189"/></clipPath></defs><g clip-path="url(#clip0)" transform="translate(-51 -48)"><rect x="53.5001" y="50.5001" width="302" height="302" stroke="#000000" stroke-width="3" stroke-miterlimit="8" fill="#D11141"/><text font-family="Arial,Arial_MSFontService,sans-serif" font-weight="700" font-size="59" transform="translate(134.141 330)">Alice</text><g clip-path="url(#clip1)"><g clip-path="url(#clip2)"><g clip-path="url(#clip3)"><path d="M242.891 178.359C245.844 184.266 254.703 184.266 257.656 181.313 257.656 187.219 254.703 193.125 251.75 193.125 257.656 199.031 257.656 207.891 251.75 213.797L206.726 201.431 215.39 174.299Z" fill="#F57A08"/><path d="M216.313 193.125 242.891 178.359 236.984 166.547 208.93 180.574 216.313 193.125Z" fill="#B1CDB4"/><path d="M216.313 187.219C216.313 175.406 251.75 175.406 251.75 145.875 251.75 137.016 254.703 110.438 242.891 98.625 231.078 86.8125 216.313 83.8594 201.547 83.8594 186.781 83.8594 177.922 89.7656 174.969 98.625 160.203 104.531 160.203 125.203 172.016 139.969Z" fill="#F57A08"/><path d="M263.563 258.094 145.438 258.094C145.438 202.032 174.998 197.706 187.357 192.501 190.624 191.124 192.688 189.688 192.688 187.219 192.693 186.215 192.531 185.216 192.208 184.266 189.099 175.236 172.016 173.527 172.016 154.734L172.016 125.203C172.016 113.391 179.291 98.625 207.453 98.625 248.797 98.625 239.938 128.156 239.938 139.969L241.056 138.85C243.503 136.404 247.469 136.404 249.915 138.851 251.09 140.025 251.75 141.619 251.75 143.28L251.75 144.587C251.751 147.149 250.191 149.453 247.811 150.404L238.011 154.325C232.861 171.298 219.015 174.55 216.659 184.266 216.425 185.232 216.309 186.224 216.313 187.219 216.313 189.688 218.376 191.124 221.643 192.501 234.002 197.706 263.563 202.032 263.563 258.094Z" fill="#F5A971"/><path d="M195.641 163.594 210.406 160.641 213.359 163.594C213.359 163.594 201.547 175.406 195.641 163.594Z" fill="#E37066"/><path d="M263.563 258.094 145.438 258.094C145.438 202.032 174.998 197.706 187.357 192.501 189.051 191.785 190.425 191.054 191.351 190.172L189.734 190.172C183.828 190.172 183.828 184.266 189.734 184.266L219.266 184.266C225.172 184.266 225.172 190.172 219.266 190.172L217.649 190.172C218.575 191.054 219.949 191.785 221.643 192.501 234.002 197.706 263.563 202.032 263.563 258.094Z" fill="#F3B73F"/><path d="M195.999 258.094 145.438 258.094C145.438 219.33 159.572 205.299 172.377 198.614 178.095 195.631 183.544 194.107 187.357 192.501 194.936 223.557 195.888 242.771 195.999 258.094Z" fill="#03999C"/><path d="M263.563 258.094 213.001 258.094C213.112 242.771 214.064 223.557 221.643 192.501 225.456 194.107 230.905 195.631 236.623 198.614 249.428 205.299 263.563 219.33 263.563 258.094Z" fill="#03999C"/><path d="M187.357 192.501C194.936 223.557 195.888 242.771 195.999 258.094L186.781 258.094C186.781 249.234 177.922 234.469 177.922 234.469L183.828 216.75 174.969 216.75 172.377 198.614C178.095 195.631 183.544 194.107 187.357 192.501Z" fill="#0C6C71"/><path d="M234.031 216.75 225.172 216.75 231.078 234.469C231.078 234.469 222.219 249.234 222.219 258.094L213.001 258.094C213.112 242.771 214.064 223.557 221.643 192.501 225.456 194.107 230.905 195.631 236.623 198.614Z" fill="#0C6C71"/><path d="M172.016 139.969C172.016 131.109 172.016 113.391 183.828 113.391 183.828 104.531 197.486 99.917 210.406 104.531 223.326 109.146 231.078 119.297 231.078 139.969 231.078 145.875 239.938 145.875 239.938 139.969L245.844 114.252 226.649 91.1191 192.688 91.1191 169.063 113.286Z" fill="#F57A08"/><path d="M245.844 157.688C245.844 160.949 243.199 163.594 239.938 163.594 236.676 163.594 234.031 160.949 234.031 157.688 234.031 154.426 236.676 151.781 239.938 151.781 243.199 151.781 245.844 154.426 245.844 157.688Z" fill="#F3B73F"/><path d="M198.594 156.211C199.409 156.211 200.07 155.55 200.07 154.734 200.07 153.919 199.409 153.258 198.594 153.258L197.117 153.258C195.486 153.258 194.164 151.936 194.164 150.305 194.164 148.674 195.486 147.352 197.117 147.352L198.594 147.352C199.409 147.352 200.07 146.69 200.07 145.875 200.07 145.06 199.409 144.398 198.594 144.398L197.117 144.398C193.855 144.398 191.211 147.043 191.211 150.305 191.211 153.567 193.855 156.211 197.117 156.211Z"/><path d="M189.38 133.944 182.598 131.686C181.536 131.333 180.366 131.61 179.575 132.402L177.485 134.496C176.908 135.073 176.909 136.008 177.486 136.584 177.763 136.86 178.138 137.016 178.529 137.016L188.882 137.016C189.752 137.016 190.458 136.31 190.458 135.44 190.458 134.761 190.024 134.159 189.38 133.944Z"/><path d="M217.612 132.402C216.821 131.61 215.651 131.333 214.589 131.686L207.808 133.944C206.982 134.219 206.535 135.112 206.81 135.937 207.025 136.581 207.627 137.016 208.306 137.016L218.658 137.016C219.474 137.016 220.135 136.355 220.135 135.539 220.135 135.148 219.979 134.773 219.703 134.496Z"/><path d="M213.359 139.969C212.085 139.969 210.955 140.787 210.556 141.998 210.346 141.933 210.139 141.864 209.944 141.785 209.491 141.617 209.083 141.348 208.749 141 208.508 140.712 208.386 140.343 208.407 139.969L208.407 139.961 208.407 139.952C208.403 139.426 207.973 139.002 207.447 139.005 206.92 139.009 206.496 139.438 206.5 139.965 206.5 139.966 206.5 139.967 206.5 139.969 206.503 140.396 206.59 140.818 206.756 141.211 206.927 141.608 207.182 141.963 207.502 142.253 208.071 142.745 208.757 143.081 209.494 143.23 209.808 143.305 210.126 143.358 210.447 143.39 210.706 144.999 212.221 146.094 213.83 145.834 215.439 145.575 216.534 144.061 216.275 142.451 216.045 141.02 214.809 139.968 213.359 139.969Z"/><path d="M183.828 139.969C182.554 139.969 181.423 140.787 181.025 141.998 180.814 141.933 180.608 141.864 180.413 141.785 179.96 141.617 179.551 141.348 179.217 141 178.977 140.712 178.854 140.343 178.875 139.969L178.876 139.961 178.875 139.952C178.872 139.426 178.442 139.002 177.916 139.005 177.389 139.009 176.965 139.438 176.968 139.965 176.968 139.966 176.968 139.967 176.968 139.969 176.972 140.396 177.059 140.818 177.225 141.211 177.396 141.608 177.65 141.963 177.971 142.253 178.54 142.745 179.226 143.081 179.963 143.23 180.276 143.305 180.595 143.358 180.916 143.39 181.175 144.999 182.689 146.094 184.299 145.834 185.908 145.575 187.003 144.061 186.744 142.451 186.513 141.02 185.278 139.968 183.828 139.969Z"/><path d="M166.225 248.45C163.888 245.751 161.68 243.202 161.68 237.422 161.68 229.276 165.141 225.772 169.933 220.923L170.113 220.741C170.687 220.162 170.683 219.227 170.104 218.653 169.525 218.079 168.59 218.083 168.016 218.662 168.014 218.663 168.013 218.664 168.012 218.665L167.832 218.848C162.946 223.792 158.727 228.063 158.727 237.422 158.727 244.303 161.524 247.533 163.993 250.384 166.001 252.702 167.586 254.533 167.586 258.094L170.539 258.094C170.539 253.432 168.346 250.899 166.225 248.45Z"/><path d="M245.007 250.384C247.476 247.533 250.273 244.303 250.273 237.422 250.273 228.063 246.054 223.792 241.168 218.848L240.988 218.665C240.416 218.084 239.481 218.077 238.9 218.649 238.319 219.221 238.311 220.156 238.884 220.737 238.885 220.738 238.886 220.74 238.887 220.741L239.067 220.923C243.859 225.772 247.32 229.276 247.32 237.422 247.32 243.202 245.112 245.751 242.775 248.45 240.654 250.899 238.461 253.432 238.461 258.094L241.414 258.094C241.414 254.533 242.999 252.702 245.007 250.384Z"/><path d="M211.45 159.596C211.101 159.247 210.601 159.096 210.117 159.193L195.351 162.146C194.551 162.306 194.033 163.083 194.193 163.883 194.218 164.012 194.261 164.137 194.32 164.254 196.052 167.719 198.449 169.722 201.443 170.208 201.908 170.283 202.378 170.32 202.848 170.319 208.65 170.319 214.154 164.887 214.403 164.638 214.98 164.061 214.98 163.127 214.404 162.55 214.404 162.55 214.403 162.55 214.403 162.55ZM201.916 167.293C200.381 167.044 199.08 166.169 197.974 164.633L209.921 162.244 211.217 163.539C209.091 165.304 205.208 167.828 201.916 167.293Z"/><path d="M256.294 212.863C260.067 207.113 260.037 199.664 256.217 193.944 258.852 191.268 260.609 186.425 260.609 181.313 260.612 179.683 259.293 178.36 257.664 178.357 256.879 178.356 256.125 178.668 255.571 179.223 254.806 179.987 252.629 180.556 250.314 180.183 249.007 179.969 246.652 179.279 245.534 177.042L242.507 170.991C250.709 164.376 254.703 156.141 254.703 145.875 255.104 131.601 256.672 108.346 244.976 96.5394 234.312 85.8749 220.513 80.9063 201.547 80.9063 182.112 80.9063 175.127 90.2307 172.632 96.4212 166.969 99.0864 163.101 103.834 161.425 110.201 158.904 119.766 161.827 131.493 169.063 140.984L169.063 154.734C169.063 167.979 176.951 173.941 182.713 178.3 184.174 179.355 185.575 180.49 186.91 181.7 183.906 182.601 182.352 184.919 182.352 187.219 182.365 188.522 182.845 189.777 183.706 190.755 183.178 190.947 182.625 191.146 182.056 191.353 174.862 193.963 165.009 197.536 156.822 207.204 147.176 218.603 142.484 235.251 142.484 258.094L146.914 258.094C146.914 236.34 151.263 220.633 160.203 210.069 163.316 206.409 167.044 203.321 171.218 200.943L173.507 216.96C173.611 217.688 174.234 218.227 174.969 218.227L181.779 218.227 176.523 234C176.386 234.41 176.434 234.858 176.656 235.229 176.741 235.373 185.305 249.74 185.305 258.094L188.258 258.094C188.258 249.851 181.218 237.208 179.535 234.299L185.227 217.219C185.488 216.448 185.075 215.612 184.305 215.351 184.151 215.299 183.99 215.273 183.828 215.273L176.25 215.273 173.991 199.456C177.106 197.956 180.307 196.639 183.577 195.513 184.544 195.166 185.46 194.834 186.32 194.506 193.706 225.362 194.448 244.716 194.526 258.094L197.479 258.094C197.405 244.509 196.656 224.816 189.081 193.35 190.086 192.896 191.034 192.325 191.905 191.648L201.547 191.648C202.362 191.648 203.023 190.987 203.023 190.172 203.023 189.356 202.362 188.695 201.547 188.695L189.734 188.695C187.815 188.695 186.781 187.935 186.781 187.219 186.781 186.503 187.815 185.742 189.734 185.742L219.266 185.742C221.185 185.742 222.219 186.503 222.219 187.219 222.219 187.935 221.185 188.695 219.266 188.695L210.406 188.695C209.591 188.695 208.93 189.356 208.93 190.172 208.93 190.987 209.591 191.648 210.406 191.648L217.099 191.648C217.967 192.326 218.914 192.898 219.919 193.35 212.348 224.779 211.599 244.532 211.521 258.094L214.474 258.094C214.552 244.738 215.294 225.329 222.676 194.502 224.68 195.292 231.346 197.509 235.009 199.452L232.75 215.273 225.172 215.273C224.358 215.271 223.697 215.929 223.695 216.742 223.695 216.904 223.721 217.065 223.773 217.219L229.465 234.299C227.782 237.208 220.742 249.851 220.742 258.094L223.695 258.094C223.695 249.747 232.259 235.373 232.344 235.229 232.566 234.858 232.614 234.409 232.477 234L227.221 218.227 234.031 218.227C234.766 218.227 235.389 217.688 235.493 216.96L237.782 200.936C249.764 207.857 262.086 221.977 262.086 258.094L266.516 258.094C266.516 238.718 263.171 223.9 256.294 212.863ZM227.461 175.1C225.567 176.097 223.769 177.042 222.156 178.009 223.23 176.875 224.445 175.746 225.726 174.561 228.926 171.593 232.507 168.267 235.452 163.538 237.697 165.276 240.744 165.56 243.271 164.266 241.716 165.922 240.008 167.427 238.169 168.762 234.699 171.283 230.916 173.276 227.461 175.1ZM239.938 162.117C237.491 162.117 235.508 160.134 235.508 157.688 235.508 155.241 237.491 153.258 239.938 153.258 242.384 153.258 244.367 155.241 244.367 157.688 244.365 160.133 242.383 162.115 239.938 162.117ZM247.228 158.806C247.287 158.436 247.318 158.062 247.32 157.688 247.32 155.931 246.691 154.233 245.548 152.9L248.361 151.774C248.893 151.559 249.401 151.288 249.875 150.965 249.436 153.708 248.542 156.359 247.228 158.806ZM165.707 111.331C167.11 106.015 170.402 102.136 175.235 100.109 175.811 99.8682 176.259 99.3948 176.467 98.8059 180.602 87.0857 193.954 85.3359 201.547 85.3359 219.262 85.3359 232.064 89.8911 241.846 99.6697 250.543 108.367 250.846 125.871 250.524 137.414 247.459 134.771 242.872 134.941 240.011 137.806L238.893 138.924C238.616 139.201 238.461 139.577 238.461 139.969 238.461 142.147 236.87 142.922 235.508 142.922 234.146 142.922 232.555 142.147 232.555 139.969 232.555 120.12 225.674 108.415 210.905 103.14 202.414 100.109 192.879 100.777 187.173 104.801 184.504 106.68 182.865 109.193 182.455 111.984 172.352 113.062 170.816 126.115 170.58 135.417 165.633 127.606 163.769 118.677 165.707 111.331ZM215.556 182.789 193.175 182.789C191.765 179.621 188.665 177.237 185.382 174.76 179.808 170.548 173.492 165.772 173.492 154.734L173.492 139.969C173.492 131.198 173.492 114.867 183.828 114.867 184.642 114.868 185.304 114.209 185.305 113.395 185.305 113.393 185.305 113.392 185.305 113.391 185.305 110.364 187.246 108.359 188.874 107.211 193.832 103.719 202.285 103.199 209.908 105.923 223.345 110.722 229.602 121.538 229.602 139.969 229.602 143.845 232.573 145.875 235.508 145.875 238.276 145.875 241.078 144.07 241.385 140.607L242.101 139.895C243.97 138.025 247.001 138.025 248.871 139.894 249.769 140.792 250.274 142.01 250.273 143.28L250.273 144.587C250.279 146.546 249.086 148.309 247.265 149.031L242.717 150.851C238.943 149.313 234.638 151.126 233.1 154.9 232.27 156.937 232.392 159.238 233.433 161.176 230.609 166.001 226.959 169.393 223.717 172.394 220.096 175.753 216.933 178.692 215.556 182.789ZM220.318 182.855C222.355 181.128 225.43 179.507 228.837 177.71 232.058 176.08 235.19 174.283 238.221 172.324L240.938 177.754 225.109 186.551C224.744 184.402 222.636 183.147 220.318 182.855ZM251.447 194.967C255.309 199.437 255.752 205.417 252.71 210.242 252.174 209.53 251.621 208.836 251.049 208.16 243.112 198.784 233.466 195.288 226.427 192.737 225.061 192.243 223.773 191.774 222.625 191.305L242.366 180.342C244.478 183.291 247.715 184.247 249.605 184.554 251.742 184.913 253.935 184.726 255.98 184.011 255.379 188.009 253.544 190.851 252.152 191.53 251.054 192.064 250.596 193.387 251.129 194.485 251.214 194.659 251.321 194.821 251.447 194.967Z"/></g></g></g></g></svg>