<svg width="596" height="421" xmlns="http://www.w3.org/2000/svg" xmlns:xlink="http://www.w3.org/1999/xlink" overflow="hidden"><defs><clipPath id="clip0"><rect x="439" y="105" width="596" height="421"/></clipPath><clipPath id="clip1"><rect x="440" y="105" width="594" height="420"/></clipPath><clipPath id="clip2"><rect x="512" y="177" width="508" height="295"/></clipPath><clipPath id="clip3"><rect x="512" y="177" width="508" height="295"/></clipPath><clipPath id="clip4"><rect x="512" y="177" width="508" height="295"/></clipPath><clipPath id="clip5"><rect x="512" y="177" width="508" height="295"/></clipPath><clipPath id="clip6"><rect x="512" y="177" width="508" height="295"/></clipPath><clipPath id="clip7"><rect x="440" y="105" width="594" height="420"/></clipPath><clipPath id="clip8"><rect x="440" y="105" width="594" height="420"/></clipPath><clipPath id="clip9"><rect x="440" y="105" width="594" height="420"/></clipPath><clipPath id="clip10"><rect x="440" y="105" width="594" height="420"/></clipPath><clipPath id="clip11"><rect x="440" y="105" width="594" height="420"/></clipPath><clipPath id="clip12"><rect x="440" y="105" width="594" height="420"/></clipPath><clipPath id="clip13"><rect x="440" y="105" width="594" height="420"/></clipPath><clipPath id="clip14"><rect x="440" y="105" width="594" height="420"/></clipPath><clipPath id="clip15"><rect x="440" y="105" width="594" height="420"/></clipPath><clipPath id="clip16"><rect x="440" y="105" width="594" height="420"/></clipPath><clipPath id="clip17"><rect x="440" y="105" width="594" height="420"/></clipPath><clipPath id="clip18"><rect x="440" y="105" width="594" height="420"/></clipPath><clipPath id="clip19"><rect x="440" y="105" width="594" height="420"/></clipPath></defs><g clip-path="url(#clip0)" transform="translate(-439 -105)"><g clip-path="url(#clip1)"><path d="M512.5 413.5 1019.5 413.5M512.5 354.5 1019.5 354.5M512.5 295.5 1019.5 295.5M512.5 236.5 1019.5 236.5M512.5 177.5 1019.5 177.5" stroke="#D9D9D9" stroke-linejoin="round" stroke-miterlimit="10" fill="none"/></g><g clip-path="url(#clip2)"><rect x="538" y="239" width="51" height="233" fill="#D11141"/></g><g clip-path="url(#clip3)"><rect x="639" y="316" width="51" height="156" fill="#00AEDB"/></g><g clip-path="url(#clip4)"><rect x="741" y="281" width="51" height="191" fill="#00B159"/></g><g clip-path="url(#clip5)"><rect x="842" y="309" width="51" height="163" fill="#F37735"/></g><g clip-path="url(#clip6)"><rect x="944" y="272" width="51" height="200" fill="#FFC425"/></g><g clip-path="url(#clip7)"><path d="M512.5 471.5 1019.5 471.5" stroke="#D9D9D9" stroke-linejoin="round" stroke-miterlimit="10" fill="none" fill-rule="evenodd"/></g><g clip-path="url(#clip8)"><text fill="#595959" font-family="Calibri,Calibri_MSFontService,sans-serif" font-weight="400" font-size="24" transform="translate(460.997 479)">0%</text></g><g clip-path="url(#clip9)"><text fill="#595959" font-family="Calibri,Calibri_MSFontService,sans-serif" font-weight="400" font-size="24" transform="translate(460.997 420)">5%</text></g><g clip-path="url(#clip10)"><text fill="#595959" font-family="Calibri,Calibri_MSFontService,sans-serif" font-weight="400" font-size="24" transform="translate(448.83 361)">10%</text></g><g clip-path="url(#clip11)"><text fill="#595959" font-family="Calibri,Calibri_MSFontService,sans-serif" font-weight="400" font-size="24" transform="translate(448.83 302)">15%</text></g><g clip-path="url(#clip12)"><text fill="#595959" font-family="Calibri,Calibri_MSFontService,sans-serif" font-weight="400" font-size="24" transform="translate(448.83 244)">20%</text></g><g clip-path="url(#clip13)"><text fill="#595959" font-family="Calibri,Calibri_MSFontService,sans-serif" font-weight="400" font-size="24" transform="translate(448.83 185)">25%</text></g><g clip-path="url(#clip14)"><text fill="#595959" font-family="Calibri,Calibri_MSFontService,sans-serif" font-weight="400" font-size="24" transform="translate(539.822 510)">Alice</text></g><g clip-path="url(#clip15)"><text fill="#595959" font-family="Calibri,Calibri_MSFontService,sans-serif" font-weight="400" font-size="24" transform="translate(645.621 510)">Bob</text></g><g clip-path="url(#clip16)"><text fill="#595959" font-family="Calibri,Calibri_MSFontService,sans-serif" font-weight="400" font-size="24" transform="translate(740.831 510)">Carol</text></g><g clip-path="url(#clip17)"><text fill="#595959" font-family="Calibri,Calibri_MSFontService,sans-serif" font-weight="400" font-size="24" transform="translate(843.183 510)">Dave</text></g><g clip-path="url(#clip18)"><text fill="#595959" font-family="Calibri,Calibri_MSFontService,sans-serif" font-weight="400" font-size="24" transform="translate(951.915 510)">Eve</text></g><g clip-path="url(#clip19)"><text fill="#595959" font-family="Calibri,Calibri_MSFontService,sans-serif" font-weight="400" font-size="32" transform="translate(591.213 145)">Approbation moyenne</text></g></g></svg>