<svg width="306" height="331" xmlns="http://www.w3.org/2000/svg" xmlns:xlink="http://www.w3.org/1999/xlink" overflow="hidden"><defs><clipPath id="clip0"><rect x="684" y="48" width="306" height="331"/></clipPath><clipPath id="clip1"><rect x="742" y="75" width="189" height="189"/></clipPath><clipPath id="clip2"><rect x="742" y="75" width="189" height="189"/></clipPath><clipPath id="clip3"><rect x="742" y="75" width="189" height="189"/></clipPath></defs><g clip-path="url(#clip0)" transform="translate(-684 -48)"><rect x="686.5" y="50.5001" width="302" height="302" stroke="#000000" stroke-width="3" stroke-miterlimit="8" fill="#00B159"/><text font-family="Arial,Arial_MSFontService,sans-serif" font-weight="700" font-size="59" transform="translate(761.917 330)">Carol</text><g clip-path="url(#clip1)"><g clip-path="url(#clip2)"><g clip-path="url(#clip3)"><path d="M907.375 107.484C907.375 119.297 907.375 131.109 901.469 131.109L901.469 163.594C901.469 172.453 901.469 187.219 892.609 187.219 884.677 187.219 883.846 175.384 883.761 166.547L883.75 166.547C877.844 166.547 877.844 157.688 877.844 148.828L866.031 89.7656C866.031 89.7656 874.891 83.8594 883.75 83.8594 892.609 83.8594 907.375 89.7656 907.375 107.484Z" fill="#084C4F"/><path d="M870.424 97.9052 880.797 92.7188C889.656 98.625 889.656 110.438 889.656 110.438L881.351 114.59Z" fill="#F57A08"/><path d="M804.016 142.922C804.016 142.922 792.203 131.109 792.203 116.344 792.203 101.578 806.969 83.8594 818.781 83.8594 830.594 83.8594 833.547 89.7656 833.547 89.7656 836.5 83.8594 845.359 83.8594 854.219 83.8594 871.938 83.8594 883.75 107.484 883.75 122.25L883.75 145.875C883.75 169.5 848.313 175.406 848.313 187.219Z" fill="#084C4F"/><path d="M900.745 231.697C888.261 193.214 848.313 199.677 848.313 187.219 848.313 175.044 864.374 172.907 870.011 154.325L879.811 150.404C882.19 149.453 883.751 147.149 883.75 144.587L883.75 143.28C883.75 139.82 880.945 137.016 877.485 137.016 875.824 137.016 874.231 137.676 873.056 138.85L871.938 139.969C871.225 140.849 870.658 141.837 870.258 142.896 870.256 142.902 870.253 142.909 870.251 142.914 867.859 142.914 866.031 142.922 866.031 142.922L866.031 139.969C866.031 131.109 860.125 122.25 851.266 122.25 842.406 122.25 830.594 113.391 830.594 104.531 830.594 113.391 812.875 122.25 804.016 122.25L804.016 128.164C798.778 128.204 791.421 128.703 789.645 134.269 785.577 134.967 783.48 137.322 783.351 139.729 780.391 140.977 780.391 144.015 780.391 145.875 777.438 148.828 777.438 151.781 777.438 163.594 777.438 175.406 765.625 181.313 762.672 207.891 759.911 232.726 775.204 236.935 796.496 230.15 795.618 232.474 795.164 234.937 795.156 237.422 795.156 246.281 801.063 249.234 801.063 258.094L895.563 258.094C895.563 250.453 896.799 241.578 895.271 233.066ZM796.544 145.709C796.839 145.115 796.942 144.444 796.84 143.789L797.57 139.057C797.751 138.622 797.825 138.15 797.785 137.68L798.109 137.016C798.109 137.016 799.335 134.565 804.016 134.129L804.016 148.987C801.502 149.249 799.948 149.943 798.109 151.781L795.156 154.734ZM795.156 196.078 790.749 196.078C792.701 188.481 796.094 175.55 798.109 169.5 799.951 163.97 801.797 160.744 804.355 159.098 807.035 175.473 824.688 176.303 824.688 187.219 824.688 193.332 818.781 196.078 795.156 196.078Z" fill="#F5A971"/><path d="M900.745 231.697 895.271 233.066 877.844 237.422C877.844 246.281 871.938 249.234 871.938 258.094L801.063 258.094C801.063 249.234 795.156 246.281 795.156 237.422 795.164 234.937 795.618 232.474 796.496 230.15 796.941 228.964 797.481 227.816 798.109 226.717L798.109 210.844C798.109 204.938 792.203 196.078 792.203 196.078L795.156 196.078C805.599 196.078 812.58 195.543 817.116 194.413 822.849 192.992 824.688 190.63 824.688 187.219L836.5 196.078 848.313 187.219C848.313 190.607 851.269 192.597 855.825 194.472 868.014 199.485 891.657 203.682 900.745 231.697Z" fill="#B1CDB4"/><path d="M855.825 194.472 842.406 207.891 836.5 201.984 830.594 207.891 817.116 194.413C822.849 192.992 824.688 190.63 824.688 187.219L836.5 196.078 848.313 187.219C848.313 190.607 851.269 192.597 855.825 194.472Z" fill="#6EB4A4"/><path d="M849.612 126.495C848.822 125.703 847.651 125.426 846.589 125.78L839.808 128.038C838.982 128.313 838.535 129.206 838.81 130.031 839.025 130.675 839.627 131.109 840.305 131.109L850.658 131.109C851.474 131.109 852.135 130.448 852.135 129.633 852.135 129.242 851.979 128.866 851.703 128.59Z"/><path d="M841.278 165.734C842.324 164.3 842.606 162.447 842.036 160.767 841.116 158.042 838.262 156.475 835.468 157.162L827.282 159.208C826.491 159.406 826.01 160.208 826.208 160.999 826.406 161.79 827.208 162.271 827.999 162.073L836.185 160.027C837.482 159.708 838.807 160.435 839.234 161.701 839.681 163.042 838.956 164.492 837.615 164.939 837.354 165.026 837.081 165.07 836.806 165.07L833.547 165.07C832.731 165.07 832.07 165.731 832.07 166.547 832.07 167.362 832.731 168.023 833.547 168.023L836.806 168.023C838.58 168.033 840.249 167.179 841.278 165.734Z"/><path d="M824.688 100.102C817.749 100.102 811.585 103.809 808.601 109.777 808.237 110.506 808.532 111.393 809.261 111.758 809.991 112.123 810.878 111.827 811.243 111.098 813.723 106.137 818.875 103.055 824.688 103.055 825.503 103.055 826.164 102.394 826.164 101.578 826.164 100.763 825.503 100.102 824.688 100.102Z"/><path d="M828.301 94.3512C821.987 91.1941 818.529 91.1941 812.215 94.3512 811.485 94.716 811.19 95.6029 811.554 96.3323 811.919 97.0617 812.806 97.3573 813.535 96.9925 819.001 94.2597 821.514 94.2597 826.98 96.9925 827.71 97.3573 828.597 97.0617 828.961 96.3323 829.326 95.6029 829.03 94.716 828.301 94.3512Z"/><path d="M839.454 97.1488C839.683 97.1487 839.909 97.0952 840.114 96.9925 845.86 94.1189 853.856 94.4441 856.128 96.716 856.704 97.2932 857.639 97.294 858.216 96.7178 858.793 96.1416 858.794 95.2066 858.218 94.6295 858.217 94.6289 858.217 94.6283 858.216 94.6277 854.793 91.2053 845.354 91.0708 838.793 94.3512 838.063 94.7162 837.768 95.6033 838.133 96.3328 838.383 96.8332 838.895 97.1491 839.454 97.1488Z"/><path d="M855.057 100.975C849.448 98.6517 842.608 98.3499 838.793 100.257 838.063 100.622 837.768 101.509 838.132 102.239 838.497 102.968 839.384 103.264 840.114 102.899 843.179 101.366 849.118 101.712 853.927 103.704 857.93 105.362 860.682 107.919 861.677 110.905 861.935 111.678 862.771 112.097 863.545 111.839 864.319 111.582 864.737 110.745 864.479 109.972 864.479 109.971 864.479 109.971 864.479 109.97 863.209 106.16 859.863 102.966 855.057 100.975Z"/><path d="M839.502 142.253C840.071 142.745 840.757 143.081 841.494 143.23 841.808 143.305 842.126 143.358 842.447 143.39 842.708 144.997 844.222 146.089 845.83 145.828 847.437 145.567 848.529 144.053 848.268 142.445 848.007 140.838 846.493 139.746 844.885 140.007 843.798 140.183 842.899 140.951 842.556 141.998 842.346 141.933 842.139 141.864 841.944 141.785 841.491 141.617 841.083 141.348 840.749 141 840.508 140.712 840.386 140.343 840.407 139.969L840.407 139.961 840.407 139.952C840.401 139.426 839.97 139.003 839.443 139.009 838.918 139.014 838.496 139.444 838.5 139.969 838.503 140.396 838.59 140.818 838.756 141.211 838.927 141.608 839.182 141.963 839.502 142.253Z"/><path d="M815.828 139.969C814.554 139.969 813.423 140.787 813.025 141.998 812.814 141.933 812.608 141.864 812.413 141.785 811.96 141.617 811.551 141.348 811.217 141 810.977 140.712 810.854 140.343 810.875 139.969L810.876 139.961 810.875 139.952C810.872 139.426 810.442 139.002 809.916 139.005 809.389 139.009 808.965 139.438 808.968 139.965 808.968 139.966 808.968 139.968 808.968 139.969 808.972 140.396 809.059 140.818 809.225 141.211 809.396 141.608 809.65 141.963 809.971 142.253 810.54 142.745 811.226 143.081 811.963 143.23 812.276 143.305 812.595 143.358 812.916 143.39 813.175 144.999 814.689 146.094 816.299 145.834 817.908 145.575 819.003 144.061 818.744 142.451 818.513 141.02 817.278 139.968 815.828 139.969Z"/><path d="M900.685 86.6847C895.799 83.0048 889.866 80.9804 883.75 80.9063 877.562 80.9063 871.538 83.4129 867.891 85.2929 863.611 82.4185 858.911 80.9063 854.219 80.9063 846.296 80.9063 838.136 80.9059 833.384 85.1889 830.857 83.1261 826.373 80.9063 818.781 80.9063 812.333 80.9063 804.858 85.3105 798.785 92.687 792.814 99.9318 789.25 108.775 789.25 116.344 789.278 120.249 789.965 124.122 791.282 127.799 789.682 128.732 788.374 130.093 787.504 131.729 784.033 132.741 781.547 134.978 780.704 137.837 777.887 139.83 777.519 142.926 777.452 144.721 774.484 148.29 774.484 152.474 774.484 163.594 774.484 167.893 772.595 171.366 769.977 176.18 766.195 183.129 761.489 191.777 759.736 207.565 758.457 219.098 760.821 227.291 766.765 231.917 770.234 234.614 774.87 235.982 780.542 235.982 784.546 235.922 788.529 235.382 792.405 234.374 792.271 235.384 792.203 236.402 792.203 237.422 792.203 242.556 793.938 246.021 795.468 249.077 796.885 251.912 798.109 254.36 798.109 258.094L802.539 258.094C802.539 253.315 800.958 250.155 799.43 247.097 797.992 244.221 796.633 241.503 796.633 237.422 796.633 229.332 802.031 223.776 802.108 223.699 802.684 223.12 802.681 222.185 802.103 221.61 801.526 221.037 800.594 221.037 800.018 221.612 799.982 221.649 799.824 221.81 799.586 222.078L799.586 210.844C799.586 206.426 796.668 200.704 794.841 197.555L795.156 197.555C804.971 197.555 811.916 197.064 816.638 196.023L829.55 208.935C830.126 209.511 831.061 209.511 831.638 208.935L836.5 204.073 841.362 208.935C841.939 209.511 842.874 209.511 843.45 208.935L856.183 196.202C857.752 196.82 859.455 197.423 861.243 198.056 869.548 200.997 879.884 204.657 888.239 213.238 892.67 217.817 896.106 223.262 898.331 229.232L898.303 229.263 879.06 234.074C878.291 229.417 876.179 225.085 872.982 221.612 872.404 221.036 871.47 221.037 870.893 221.614 870.318 222.19 870.318 223.124 870.893 223.7 870.948 223.755 876.367 229.268 876.367 237.422 876.367 241.503 875.008 244.221 873.57 247.097 872.042 250.155 870.461 253.315 870.461 258.094L873.414 258.094C873.414 254.013 874.773 251.295 876.211 248.418 877.74 245.361 879.436 242.036 879.313 237.055L893.832 233.425C895.043 239.948 894.378 248.335 894.305 251.031 894.192 253.494 894.086 255.821 894.086 258.094L898.516 258.094C898.516 255.922 898.616 253.832 898.73 251.233 898.906 247.697 899.346 239.844 898.381 233.787L901.783 232.933C902.969 232.635 903.69 231.432 903.392 230.246 903.378 230.189 903.361 230.133 903.342 230.077 900.715 222.284 896.702 215.578 891.413 210.148 882.337 200.826 871.461 196.975 862.701 193.872 856.312 191.612 851.266 189.826 851.266 187.219 851.266 183.989 857.368 180.049 863.103 176.391 867.782 173.406 872.984 170.087 877.327 165.914 878.128 167.296 879.366 168.373 880.846 168.975 881.016 176.107 882.066 190.172 892.609 190.172 899.235 190.172 902.004 184.485 903.16 179.715 904.422 174.506 904.422 168.199 904.422 163.594L904.422 133.427C910.328 130.661 910.328 119.373 910.328 107.484 910.328 96.4267 905.085 90.0704 900.685 86.6847ZM826.136 186.46C825.781 181.111 821.697 178.022 817.373 174.755 812.814 171.307 807.647 167.398 806.021 159.928 806.018 159.912 806.012 159.898 806.008 159.882 807.246 159.366 808.581 159.121 809.922 159.164 813.243 159.259 816.012 156.645 816.107 153.324 816.11 153.237 816.11 153.15 816.109 153.063 816.114 152.1 815.877 151.152 815.42 150.305L820.996 150.305C821.751 150.305 822.502 150.199 823.227 149.991 823.047 153.241 825.536 156.022 828.787 156.202 828.897 156.208 829.007 156.211 829.117 156.211L830.594 156.211C831.409 156.211 832.07 155.55 832.07 154.734 832.07 153.919 831.409 153.258 830.594 153.258L829.117 153.258C827.486 153.258 826.164 151.936 826.164 150.305 826.164 148.674 827.486 147.352 829.117 147.352L830.594 147.352C831.409 147.352 832.07 146.69 832.07 145.875 832.07 145.06 831.409 144.398 830.594 144.398 830.594 144.398 828.968 144.388 828.803 144.414 828.943 143.927 829.036 143.427 829.082 142.922L832.105 142.922C832.492 147.101 835.995 150.299 840.191 150.305L850.527 150.305C854.724 150.299 858.227 147.101 858.613 142.922L866.031 142.922C866.847 142.922 867.508 142.261 867.508 141.445L871.938 141.445C872.329 141.445 872.705 141.29 872.982 141.013L874.1 139.895C875.97 138.025 879.001 138.025 880.871 139.894 881.769 140.792 882.273 142.01 882.273 143.28L882.273 144.587C882.28 146.547 881.086 148.311 879.264 149.032L869.462 152.954C869.045 153.121 868.727 153.467 868.597 153.896 865.829 163.021 860.457 168.001 855.717 172.395 851.136 176.641 847.159 180.332 846.856 186.465L836.5 194.232ZM858.613 139.969C858.227 135.79 854.724 132.591 850.527 132.586L840.191 132.586C835.995 132.591 832.492 135.79 832.105 139.969L829.082 139.969C828.696 135.79 825.193 132.591 820.996 132.586L811.109 132.586C811.303 132.118 811.402 131.616 811.398 131.109L820.882 131.109C821.752 131.109 822.458 130.404 822.458 129.533 822.458 128.855 822.024 128.253 821.38 128.038L814.598 125.78C813.536 125.426 812.366 125.703 811.575 126.495L809.959 128.114C808.82 127.166 807.151 126.68 805.492 126.68L805.492 123.66C810.1 123.264 816.148 121.122 821.387 117.979 826.172 115.108 828.862 112.326 830.345 109.943 831.592 112.737 833.754 115.468 836.672 117.856 841.165 121.532 846.621 123.727 851.266 123.727 859.474 123.727 864.555 132.158 864.555 139.969ZM835.023 140.707C835.027 137.854 837.339 135.542 840.191 135.539L850.527 135.539C853.38 135.542 855.692 137.854 855.695 140.707L855.695 142.184C855.692 145.036 853.38 147.348 850.527 147.352L840.191 147.352C837.339 147.348 835.027 145.036 835.023 142.184ZM792.203 135.539C794.458 135.539 795.978 136.579 796.264 137.558 796.46 138.23 796.088 138.987 795.248 139.707 794.43 139.239 793.567 138.857 792.67 138.568 792.634 138.556 792.598 138.545 792.561 138.536 789.894 137.869 787.64 137.596 785.769 137.715 786.883 136.486 788.994 135.539 792.203 135.539ZM802.539 138.946C801.994 138.251 801.394 137.446 800.77 136.542 801.327 136.239 801.922 136.011 802.539 135.864ZM810.66 147.352C807.807 147.348 805.495 145.036 805.492 142.184L805.492 140.707C805.495 137.854 807.807 135.542 810.66 135.539L820.996 135.539C823.849 135.542 826.161 137.854 826.164 140.707L826.164 142.184C826.161 145.036 823.849 147.348 820.996 147.352ZM805.492 129.633C807.41 129.633 808.445 130.394 808.445 131.109 808.445 131.825 807.41 132.586 805.492 132.586 801.52 132.586 799.254 133.801 798.032 134.858 796.79 133.478 794.73 132.623 792.342 132.59 795.244 129.635 801.491 129.633 805.492 129.633ZM783.165 141.527C784.615 140.394 787.597 140.346 791.789 141.387 793.941 142.113 795.254 143.093 795.392 144.079 795.42 144.736 795.175 145.375 794.715 145.845 794.164 145.326 793.54 144.891 792.864 144.554 788.641 142.443 785.324 141.443 782.263 142.769 782.447 142.282 782.758 141.853 783.165 141.527ZM796.396 148.357C797.616 147.192 798.579 145.532 798.316 143.667 798.208 142.939 797.924 142.248 797.489 141.655 798.206 140.994 798.746 140.165 799.061 139.243 800.135 140.734 801.296 142.16 802.539 143.513L802.539 147.717C800.447 148.119 798.648 149.067 796.692 151.11 796.82 150.182 796.719 149.236 796.396 148.357ZM877.445 159.268C872.953 164.886 866.597 168.907 860.722 172.656 859.669 173.328 858.637 173.987 857.64 174.639 857.668 174.613 857.696 174.588 857.724 174.561 862.38 170.245 868.148 164.898 871.209 155.436L880.36 151.774C880.79 151.601 881.204 151.389 881.597 151.143 880.788 154.108 879.374 156.874 877.445 159.268ZM876.675 96.4307 880.667 94.4345C886.788 99.014 887.923 106.908 888.132 109.549L883.691 111.769C882.194 106.312 879.825 101.132 876.675 96.4307ZM874.4 98.3366C879.183 105.511 882.273 114.897 882.273 122.25L882.273 137.204C879.195 134.772 874.784 135.031 872.012 137.806L871.326 138.492 867.456 138.492C866.837 129.706 860.765 120.773 851.266 120.773 841.743 120.773 832.07 111.324 832.07 104.531 832.07 103.716 831.409 103.055 830.594 103.055 829.778 103.055 829.117 103.716 829.117 104.531 829.117 107.891 825.659 111.972 819.867 115.447 814.557 118.633 808.187 120.773 804.016 120.773 803.2 120.773 802.539 121.435 802.539 122.25L802.539 126.71C800.307 126.736 798.085 127 795.91 127.499 794.48 123.952 793.723 120.169 793.68 116.344 793.68 109.774 796.866 101.983 802.202 95.5032 807.445 89.1367 813.643 85.3359 818.781 85.3359 829.393 85.3359 832.123 90.2339 832.226 90.426 832.591 91.1554 833.478 91.451 834.207 91.0863 834.493 90.9434 834.725 90.7117 834.868 90.426 837.413 85.3359 845.956 85.3359 854.219 85.3359 864.237 85.3359 871.163 93.4814 874.4 98.3366ZM796.633 226.32C796.142 227.208 795.706 228.125 795.327 229.067 795.113 229.066 794.901 229.097 794.696 229.157 789.375 230.747 784.613 231.553 780.542 231.553 775.878 231.553 772.157 230.499 769.484 228.42 764.839 224.805 763.041 217.953 764.139 208.054 765.796 193.131 770.271 184.906 773.872 178.289 776.578 173.315 778.914 169.02 778.914 163.594 778.914 151.682 778.991 149.363 781.435 146.919 783.593 144.761 785.656 144.252 791.543 147.196 793.179 148.014 793.781 149.321 793.799 150.272 793.849 150.981 793.489 151.657 792.872 152.011 791.645 152.682 789.493 152.138 787.116 150.553 786.437 150.1 785.521 150.284 785.068 150.962 784.616 151.641 784.799 152.557 785.478 153.01 789.476 155.675 792.188 155.454 793.693 154.876 793.766 155.684 794.479 156.281 795.287 156.208 795.633 156.177 795.956 156.025 796.2 155.779L799.154 152.825C801.674 150.305 803.421 150.305 809.922 150.305 811.007 150.305 811.875 150.605 812.432 151.174 812.912 151.684 813.172 152.363 813.156 153.063 813.186 154.773 811.824 156.184 810.113 156.214 810.049 156.215 809.986 156.214 809.922 156.211 803.322 156.211 799.864 159.566 796.708 169.033 793.771 177.845 788.059 200.659 787.824 201.6L785.886 208.799C785.674 209.586 786.141 210.396 786.928 210.608 787.716 210.82 788.526 210.354 788.738 209.567L790.682 202.343C790.698 202.281 791.105 200.655 791.749 198.132 793.298 200.69 796.633 206.679 796.633 210.844ZM794.563 193.125C796.991 183.84 799.277 175.339 800.912 170.432 801.485 168.621 802.199 166.858 803.045 165.157 805.728 171.5 810.629 175.208 814.711 178.296 819.065 181.585 821.734 183.776 821.734 187.219 821.734 188.595 821.44 189.928 817.887 191.105 813.298 192.594 804.944 193.2 794.563 193.125ZM853.264 194.944 842.406 205.802 837.544 200.94C836.967 200.364 836.033 200.364 835.456 200.94L830.594 205.802 819.885 195.094C823.023 193.933 824.966 192.209 825.755 189.865L835.614 197.259C836.139 197.653 836.861 197.653 837.386 197.259L847.339 189.795C848.258 191.984 850.389 193.563 853.264 194.944ZM892.609 185.742C887.849 185.742 885.508 180.049 885.258 167.851 887.812 167.257 889.527 165.075 890.359 161.33 891.133 157.85 891.133 153.263 891.133 148.828 891.133 148.013 890.472 147.352 889.656 147.352 888.841 147.352 888.18 148.013 888.18 148.828 888.18 158.338 887.862 165.07 883.75 165.07 882.459 165.07 880.892 164.556 880.031 160.718 883.162 156.616 885.227 151.777 885.227 145.875L885.227 122.25C885.205 119.717 884.928 117.192 884.4 114.715 884.404 114.713 884.407 114.713 884.41 114.711L890.317 111.758C890.817 111.508 891.133 110.997 891.133 110.438 891.133 109.923 891.025 97.7627 881.616 91.4902 881.175 91.1962 880.61 91.161 880.136 91.3981L874.917 94.0079C873.533 92.2177 871.99 90.5567 870.307 89.0452 873.453 87.4705 878.657 85.3359 883.75 85.3359 892.653 85.3359 905.898 91.2344 905.898 107.484 905.898 117.352 905.898 129.633 901.469 129.633 898.453 129.633 897.043 121.703 897.039 116.343 897.039 115.528 896.378 114.868 895.563 114.867L895.562 114.867C894.747 114.868 894.086 115.529 894.086 116.344 894.086 117.883 894.265 130.503 899.992 132.357L899.992 163.594C899.992 174.31 899.422 185.742 892.609 185.742Z"/></g></g></g></g></svg>