<svg width="307" height="331" xmlns="http://www.w3.org/2000/svg" xmlns:xlink="http://www.w3.org/1999/xlink" overflow="hidden"><defs><clipPath id="clip0"><rect x="51" y="366" width="307" height="331"/></clipPath><clipPath id="clip1"><rect x="110" y="394" width="189" height="189"/></clipPath><clipPath id="clip2"><rect x="110" y="394" width="189" height="189"/></clipPath><clipPath id="clip3"><rect x="110" y="394" width="189" height="189"/></clipPath></defs><g clip-path="url(#clip0)" transform="translate(-51 -366)"><rect x="53.5001" y="368.5" width="302" height="302" stroke="#000000" stroke-width="3" stroke-miterlimit="8" fill="#F37735"/><text font-family="Arial,Arial_MSFontService,sans-serif" font-weight="700" font-size="59" transform="translate(134.141 648)">Dave</text><g clip-path="url(#clip1)"><g clip-path="url(#clip2)"><g clip-path="url(#clip3)"><path d="M216.313 506.219C216.313 491.453 251.75 494.406 251.75 464.875L251.75 438.297C251.75 429.438 251.75 417.625 239.938 417.625L206.726 417.625 206.726 506.219Z" fill="#795033"/><path d="M272.422 577.094 136.578 577.094C136.578 536.304 156.811 524.27 172.979 517.969 176.419 516.625 179.672 515.543 182.507 514.499L182.51 514.499C184.02 513.941 185.408 513.398 186.648 512.834 190.358 511.132 192.688 509.227 192.688 506.219 192.688 494.406 172.016 494.406 172.016 473.734 172.016 444.203 166.109 417.625 207.453 417.625 248.797 417.625 239.938 447.156 239.938 458.969L241.056 457.85C243.502 455.404 247.469 455.404 249.915 457.85 251.09 459.025 251.75 460.618 251.75 462.28L251.75 463.587C251.751 466.149 250.191 468.453 247.811 469.404L238.011 473.325C232.374 491.907 216.313 494.044 216.313 506.219 216.313 509.227 218.642 511.132 222.352 512.834 223.592 513.398 224.98 513.941 226.49 514.499L226.493 514.499C229.328 515.543 232.581 516.625 236.021 517.969 252.189 524.27 272.422 536.304 272.422 577.094Z" fill="#F5A971"/><path d="M272.422 577.094 136.578 577.094C136.578 536.304 156.811 524.27 172.979 517.969 175.235 517.086 177.405 516.318 179.435 515.602 180.443 515.244 181.418 514.897 182.344 514.558 182.4 514.539 182.451 514.517 182.507 514.499L182.51 514.499C184.02 513.941 185.408 513.398 186.648 512.834 195.194 522.693 210.115 523.757 219.974 515.211 220.822 514.476 221.617 513.682 222.352 512.834 223.592 513.398 224.98 513.941 226.49 514.499L226.493 514.499C226.549 514.517 226.6 514.539 226.656 514.558 227.582 514.897 228.557 515.244 229.565 515.602 231.595 516.318 233.765 517.086 236.021 517.969 252.189 524.27 272.422 536.304 272.422 577.094Z" fill="#F3B73F"/><path d="M189.734 577.094 136.578 577.094C136.578 536.304 156.811 524.27 172.979 517.969 176.419 516.625 179.672 515.543 182.507 514.499 189.734 525.979 189.734 541.224 189.734 577.094Z" fill="#084C4F"/><path d="M272.422 577.094 219.266 577.094C219.266 541.224 219.266 525.979 226.493 514.499 229.328 515.543 232.581 516.625 236.021 517.969 252.189 524.27 272.422 536.304 272.422 577.094Z" fill="#084C4F"/><path d="M234.031 479.641C234.031 503.266 225.172 509.172 204.5 509.172 169.063 509.172 172.016 491.453 172.016 482.594L182.598 482.225 191.211 474.227 209.053 474.227 220.138 483.77Z" fill="#795033"/><path d="M198.594 470.781C198.594 470.781 197.794 467.828 192.688 467.828 183.828 467.828 183.828 479.641 174.969 479.641 163.156 479.641 163.156 470.781 163.156 470.781 163.156 470.781 160.203 488.5 174.969 488.5 189.734 488.5 183.828 476.688 198.594 476.688 213.359 476.688 207.453 488.5 222.219 488.5 236.984 488.5 236.984 470.781 236.984 470.781 236.984 470.781 234.031 479.641 222.219 479.641 213.359 479.641 213.359 467.828 204.5 467.828 199.394 467.828 198.594 470.781 198.594 470.781Z" fill="#795033"/><path d="M192.67 483.117C191.903 484.947 191.442 486.008 198.544 486.574 203.9 486.77 206.055 485.567 203.801 482.127 202.87 480.687 202.532 480.85 199.119 481.142 194.522 481.535 193.449 481.394 192.67 483.117Z" fill="#E37066"/><path d="M188.044 530.342C184.899 527.053 180.384 527.872 177.922 532.797L172.979 517.969C176.419 516.625 179.675 515.543 182.51 514.499 185.283 518.906 186.992 523.867 188.044 530.342Z" fill="#082F40"/><path d="M236.021 517.969 231.078 532.797C228.616 527.872 224.101 527.053 220.956 530.342 222.008 523.867 223.717 518.906 226.49 514.499 229.325 515.543 232.581 516.625 236.021 517.969Z" fill="#082F40"/><path d="M239.938 417.625C239.938 417.625 239.938 402.859 201.547 402.859 172.016 402.859 163.156 408.766 163.156 420.578 163.156 432.391 172.016 438.297 201.547 438.297 222.219 438.297 234.031 426.484 234.031 426.484 234.031 426.484 228.125 458.969 239.938 458.969L246.121 435.621 239.938 417.625Z" fill="#795033"/><path d="M198.594 470.781 197.117 470.781C194.671 470.781 192.688 468.798 192.688 466.352L192.688 466.352C192.688 463.905 194.671 461.922 197.117 461.922L198.594 461.922Z" fill="#F5A971"/><path d="M216.313 461.922C216.313 463.553 214.99 464.875 213.359 464.875 211.728 464.875 210.406 463.553 210.406 461.922 210.406 460.291 211.728 458.969 213.359 458.969 214.99 458.969 216.313 460.291 216.313 461.922Z"/><path d="M186.781 461.922C186.781 463.553 185.459 464.875 183.828 464.875 182.197 464.875 180.875 463.553 180.875 461.922 180.875 460.291 182.197 458.969 183.828 458.969 185.459 458.969 186.781 460.291 186.781 461.922Z"/><path d="M178.529 456.016 188.882 456.016C189.752 456.016 190.458 455.31 190.458 454.44 190.458 453.761 190.024 453.159 189.38 452.944L182.598 450.686C181.536 450.333 180.366 450.61 179.575 451.402L177.485 453.496C176.908 454.073 176.909 455.008 177.486 455.584 177.763 455.86 178.138 456.016 178.529 456.016Z"/><path d="M208.306 456.016 218.658 456.016C219.474 456.016 220.135 455.355 220.135 454.539 220.135 454.148 219.979 453.773 219.703 453.496L217.612 451.402C216.821 450.61 215.651 450.333 214.589 450.686L207.808 452.944C206.982 453.219 206.535 454.112 206.81 454.938 207.025 455.581 207.627 456.016 208.306 456.016Z"/><path d="M225.172 549.039C225.172 549.855 224.511 550.516 223.695 550.516 222.88 550.516 222.219 549.855 222.219 549.039 222.219 548.224 222.88 547.563 223.695 547.563 224.511 547.563 225.172 548.224 225.172 549.039Z"/><path d="M225.172 569.711C225.172 570.526 224.511 571.188 223.695 571.188 222.88 571.188 222.219 570.526 222.219 569.711 222.219 568.895 222.88 568.234 223.695 568.234 224.511 568.234 225.172 568.895 225.172 569.711Z"/><path d="M236.984 551.992 225.172 551.992C224.356 551.992 223.695 552.653 223.695 553.469 223.695 554.284 224.356 554.945 225.172 554.945L236.984 554.945C237.8 554.945 238.461 554.284 238.461 553.469 238.461 552.653 237.8 551.992 236.984 551.992Z"/><path d="M183.828 551.992 172.016 551.992C171.2 551.992 170.539 552.653 170.539 553.469 170.539 554.284 171.2 554.945 172.016 554.945L183.828 554.945C184.644 554.945 185.305 554.284 185.305 553.469 185.305 552.653 184.644 551.992 183.828 551.992Z"/><path d="M167.586 541.656C167.586 540.841 166.925 540.18 166.109 540.18 165.294 540.18 164.633 540.841 164.633 541.656L164.633 577.094 167.586 577.094Z"/><path d="M244.367 541.656C244.367 540.841 243.706 540.18 242.891 540.18 242.075 540.18 241.414 540.841 241.414 541.656L241.414 577.094 244.367 577.094Z"/><path d="M225.699 529.883C227.283 530.122 228.725 531.392 229.757 533.457 230.008 533.957 230.519 534.273 231.078 534.273 231.113 534.273 231.148 534.272 231.183 534.27 231.779 534.227 232.29 533.83 232.479 533.264L236.928 519.917C243.408 522.551 250.321 526.159 256.239 532.238 266.135 542.402 270.945 557.075 270.945 577.094L275.375 577.094C275.375 555.864 270.154 540.18 259.413 529.148 250.338 519.826 239.462 515.975 230.704 512.874 227.446 511.721 224.464 510.666 222.36 509.554 224.817 508.608 227.076 507.211 229.021 505.436 232.12 502.579 234.256 498.708 235.532 493.627 239.796 491.313 244.507 488.346 248.191 483.953 252.573 478.728 254.703 472.488 254.703 464.875L254.703 438.297C254.703 433.555 254.703 428.18 253.049 423.631 251.198 418.54 247.515 415.522 242.343 414.826 241.538 412.522 239.585 409.326 234.891 406.458 227.775 402.111 216.557 399.906 201.547 399.906 186.8 399.906 176.928 401.323 170.478 404.366 163.564 407.627 160.203 412.93 160.203 420.578 160.203 428.198 163.565 433.516 170.466 436.781 168.468 444.623 168.684 454.005 168.912 463.892L168.915 464.022C168.987 467.188 169.063 470.46 169.063 473.734 169.063 474.303 169.077 474.865 169.107 475.421 167.367 474.502 166.232 472.744 166.109 470.781 166.106 469.249 164.934 467.973 163.408 467.84 161.871 467.696 160.487 468.77 160.245 470.294 159.954 472.275 159.879 474.281 160.022 476.277 160.326 480.632 161.6 484.164 163.811 486.776 165.231 488.458 167.069 489.738 169.14 490.487 169.463 494.329 170.57 499.322 174.708 503.546 177.491 506.389 181.195 508.486 185.952 509.901 183.916 510.885 181.23 511.835 178.319 512.865L178.277 512.88C169.538 515.975 158.662 519.826 149.587 529.148 138.846 540.18 133.625 555.864 133.625 577.094L138.055 577.094C138.055 557.075 142.865 542.402 152.761 532.238 158.679 526.159 165.591 522.55 172.072 519.917L176.521 533.264C176.71 533.83 177.221 534.227 177.817 534.27 177.853 534.272 177.887 534.273 177.922 534.273 178.481 534.273 178.992 533.957 179.243 533.457 180.275 531.392 181.716 530.123 183.301 529.883 184.461 529.71 185.645 530.134 186.675 531.075 188.257 541.238 188.258 555.286 188.258 577.094L191.211 577.094C191.211 549.935 191.21 534.612 188.115 523.664 198.139 529.936 210.864 529.935 220.888 523.662 217.79 534.626 217.789 549.975 217.789 577.094L220.742 577.094C220.742 555.309 220.743 541.249 222.328 531.071 223.357 530.133 224.539 529.71 225.699 529.883ZM234.174 518.84 230.622 529.495C229.469 528.154 227.883 527.258 226.139 526.963 225.098 526.805 224.035 526.903 223.04 527.247 223.821 523.407 225.2 519.714 227.127 516.303 227.814 516.549 232.476 518.201 234.174 518.84ZM234.932 488.896C235.219 486.785 235.395 484.661 235.459 482.532 237.039 479.998 238.299 477.279 239.21 474.436L248.361 470.774C248.889 470.563 249.394 470.294 249.864 469.972 248.199 479.835 241.69 485.043 234.932 488.896ZM250.273 463.587C250.28 465.547 249.086 467.311 247.264 468.033L238.434 471.565C238.459 471.106 238.461 470.826 238.461 470.781 238.461 469.966 237.8 469.305 236.984 469.305 236.349 469.305 235.784 469.711 235.584 470.314 235.557 470.393 232.844 478.164 222.219 478.164 218.527 478.164 216.68 475.701 214.541 472.848 212.257 469.803 209.668 466.352 204.5 466.352 200.354 466.352 198.489 468.105 197.698 469.305L197.117 469.305C195.486 469.305 194.164 467.983 194.164 466.352 194.164 464.721 195.486 463.398 197.117 463.398L198.594 463.398C199.409 463.398 200.07 462.737 200.07 461.922 200.07 461.106 199.409 460.445 198.594 460.445L197.117 460.445C193.857 460.449 191.215 463.091 191.211 466.352 191.211 466.385 191.211 466.418 191.212 466.451 187.005 467.038 184.702 470.108 182.647 472.848 180.508 475.701 178.66 478.164 174.969 478.164 174.591 478.164 174.226 478.151 173.868 478.132 173.613 476.68 173.487 475.209 173.492 473.734 173.492 470.41 173.416 467.111 173.343 463.921L173.34 463.79C173.11 453.793 172.899 444.338 175.023 436.931 181.203 438.861 189.804 439.773 201.547 439.773 216.673 439.773 227.12 433.704 231.984 430.105 231.036 437.237 229.758 452.135 234.568 457.898 235.865 459.535 237.849 460.476 239.938 460.445 240.329 460.445 240.705 460.29 240.982 460.013L242.1 458.894C243.97 457.025 247.001 457.025 248.871 458.895 249.769 459.793 250.273 461.01 250.273 462.28ZM164.633 420.578C164.633 410.829 170.91 404.336 201.547 404.336 212.068 404.336 226.225 405.523 233.923 411.175 238.312 414.398 238.457 417.516 238.461 417.625 238.461 418.44 239.122 419.102 239.938 419.102 249.512 419.102 250.273 427.421 250.273 438.297L250.273 456.201C247.194 453.772 242.784 454.032 240.012 456.807L239.361 457.457C238.36 457.329 237.451 456.807 236.836 456.006 232.345 450.627 234.337 433.063 235.484 426.748 235.599 426.113 235.288 425.476 234.716 425.177 234.143 424.882 233.446 424.989 232.987 425.44 232.873 425.554 221.378 436.82 201.547 436.82 170.91 436.82 164.633 430.327 164.633 420.578ZM167.198 483.919C165.659 482.107 164.931 479.727 164.613 477.506 166.534 479.478 169.711 481.117 174.969 481.117 180.137 481.117 182.725 477.665 185.009 474.62 187.016 471.945 188.765 469.612 192.02 469.333 193.079 471.143 195.019 472.257 197.117 472.258L198.594 472.258C199.265 472.296 199.866 471.844 200.014 471.189 200.102 470.966 200.882 469.305 204.5 469.305 208.191 469.305 210.039 471.768 212.178 474.62 214.462 477.665 217.051 481.117 222.219 481.117 228.209 481.117 232.111 479.022 234.578 476.76 234.356 477.546 234.088 478.318 233.776 479.073 231.577 484.349 227.689 487.023 222.219 487.023 215.574 487.023 213.727 484.56 211.588 481.708 209.304 478.663 206.715 475.211 198.594 475.211 190.473 475.211 187.884 478.663 185.6 481.708 183.461 484.56 181.613 487.023 174.969 487.023 171.562 487.023 168.947 485.979 167.198 483.919ZM178.483 501.037C174.836 497.707 173.823 493.533 173.54 489.92 174.004 489.956 174.48 489.977 174.969 489.977 183.09 489.977 185.679 486.525 187.963 483.48 190.102 480.627 191.949 478.164 198.594 478.164 205.238 478.164 207.086 480.627 209.225 483.48 211.509 486.525 214.098 489.977 222.219 489.977 226.241 489.977 229.626 488.744 232.269 486.375 230.813 502.391 223.519 507.695 204.5 507.695 192.076 507.695 183.323 505.455 178.483 501.037ZM219.921 513.255C211.333 521.592 197.675 521.592 189.087 513.256 190.808 512.299 192.157 511.226 193.039 509.91 196.837 510.429 200.667 510.675 204.5 510.648 208.318 510.702 212.134 510.425 215.905 509.82 215.918 509.842 215.929 509.866 215.944 509.887 216.826 511.217 218.19 512.293 219.921 513.255ZM182.86 526.963C181.116 527.258 179.53 528.154 178.378 529.495L174.827 518.843C176.519 518.206 181.189 516.549 181.874 516.303 183.803 519.715 185.183 523.409 185.964 527.25 184.968 526.905 183.903 526.806 182.86 526.963ZM204.5 525.414C197.873 525.41 191.462 523.058 186.406 518.774 185.895 517.571 185.318 516.397 184.679 515.257 185.228 515.043 185.761 514.828 186.272 514.61 195.793 524.678 211.673 525.122 221.741 515.601 222.08 515.28 222.41 514.95 222.731 514.611 223.242 514.829 223.774 515.044 224.322 515.257 223.683 516.396 223.107 517.57 222.596 518.772 217.54 523.057 211.128 525.411 204.5 525.414Z"/><path d="M205.775 485.921C206.474 484.683 206.225 483.134 205.041 481.326 203.423 478.849 202.101 479.433 197.502 479.792 193.978 480.07 192.326 480.21 191.303 482.558 190.915 483.485 190.432 484.638 191.136 485.795 191.936 487.107 193.789 487.831 199.588 488.07 203.018 488.07 204.945 487.393 205.775 485.921ZM203.204 484.47C203.2 484.478 202.686 485.242 198.629 485.099 195.368 484.838 194.202 484.493 193.789 484.298 193.849 484.124 193.946 483.893 194.024 483.706 194.306 483.084 194.375 483 197.734 482.736 200.18 482.571 201.795 482.311 202.197 482.447 202.343 482.592 202.467 482.757 202.566 482.937 203.21 483.92 203.233 484.396 203.204 484.47Z"/></g></g></g></g></svg>