<svg width="307" height="331" xmlns="http://www.w3.org/2000/svg" xmlns:xlink="http://www.w3.org/1999/xlink" overflow="hidden"><defs><clipPath id="clip0"><rect x="367" y="366" width="307" height="331"/></clipPath><clipPath id="clip1"><rect x="426" y="394" width="189" height="189"/></clipPath><clipPath id="clip2"><rect x="426" y="394" width="189" height="189"/></clipPath><clipPath id="clip3"><rect x="426" y="394" width="189" height="189"/></clipPath></defs><g clip-path="url(#clip0)" transform="translate(-367 -366)"><rect x="369.5" y="368.5" width="303" height="302" stroke="#000000" stroke-width="3" stroke-miterlimit="8" fill="#FFC425"/><text font-family="Arial,Arial_MSFontService,sans-serif" font-weight="700" font-size="59" transform="translate(468.362 648)">Eve</text><g clip-path="url(#clip1)"><g clip-path="url(#clip2)"><g clip-path="url(#clip3)"><path d="M467.344 544.609C467.344 520.984 479.156 506.219 479.156 491.453 479.156 476.688 470.297 467.828 470.297 441.25 470.297 414.672 502.781 402.859 517.547 402.859 532.313 402.859 541.172 408.766 547.078 417.625 558.891 417.625 567.75 426.484 567.75 464.875 567.75 491.453 552.984 491.453 552.984 509.172 552.984 520.984 552.984 526.891 558.891 535.75 564.797 544.609 561.844 553.469 552.984 550.516Z" fill="#795033"/><path d="M579.563 577.094 461.438 577.094C461.438 533.963 478.935 521.453 492.634 515.61 496.118 514.122 499.356 513.066 501.999 512.047 502.471 511.867 502.925 511.682 503.357 511.501 506.624 510.124 508.688 508.688 508.688 506.219 508.688 494.406 488.016 494.406 488.016 473.734L488.016 444.203C488.016 432.391 495.291 417.625 523.453 417.625 564.797 417.625 555.938 447.156 555.938 458.969L557.056 457.85C559.503 455.404 563.469 455.404 565.915 457.851 567.09 459.025 567.75 460.619 567.75 462.28L567.75 463.587C567.751 466.149 566.19 468.453 563.811 469.404L554.011 473.325C548.374 491.907 532.313 494.044 532.313 506.219 532.313 508.688 534.376 510.124 537.643 511.501 538.075 511.682 538.529 511.867 539.001 512.047 541.644 513.066 544.882 514.122 548.366 515.61 562.065 521.453 579.563 533.963 579.563 577.094Z" fill="#F5A971"/><path d="M579.563 577.094 461.438 577.094C461.438 533.963 478.935 521.453 492.634 515.61 493.372 515.292 494.103 514.997 494.815 514.716 495.797 514.332 496.749 513.974 497.665 513.642 499.23 513.07 500.688 512.553 501.999 512.047 510.108 522.266 524.964 523.975 535.182 515.866 536.597 514.744 537.879 513.462 539.001 512.047 540.312 512.553 541.77 513.07 543.335 513.642 544.251 513.974 545.203 514.332 546.185 514.716 546.897 514.997 547.628 515.292 548.366 515.61 562.065 521.453 579.563 533.963 579.563 577.094Z" fill="#F57A08"/><path d="M511.641 482.594 526.406 479.641 529.359 482.594C529.359 482.594 517.547 494.406 511.641 482.594Z" fill="#E37066"/><path d="M488.016 441.25C501.974 430.083 523.849 432.112 538.673 434.862 537.168 446.096 541.955 458.969 555.938 458.969L563.439 430.439 547.078 417.625 522.726 412.334 488.016 417.625Z" fill="#795033"/><path d="M503.357 511.501C510.936 542.557 511.888 561.771 511.999 577.094L461.438 577.094C461.438 521.032 490.998 516.706 503.357 511.501Z" fill="#03999C"/><path d="M579.563 577.094 529.001 577.094C529.112 561.771 530.064 542.557 537.643 511.501 550.002 516.706 579.563 521.032 579.563 577.094Z" fill="#03999C"/><path d="M511.999 577.094 505.734 577.094C505.734 562.328 493.922 538.703 493.922 538.703L499.828 529.844 490.969 523.938 492.634 515.61C496.742 513.856 500.507 512.701 503.357 511.501 510.936 542.557 511.888 561.771 511.999 577.094Z" fill="#0C6C71"/><path d="M541.172 529.844 547.078 538.703C547.078 538.703 535.266 562.328 535.266 577.094L529.001 577.094C529.112 561.771 530.064 542.557 537.643 511.501 540.493 512.701 544.258 513.856 548.366 515.61L550.031 523.938Z" fill="#0C6C71"/><path d="M558.891 535.75C564.797 544.609 561.844 553.469 552.984 550.516 544.125 547.563 532.313 535.75 532.313 506.219 532.313 494.044 548.374 491.907 554.011 473.325L563.811 469.404C566.105 468.486 567.646 466.306 567.746 463.838 567.75 464.181 567.75 464.528 567.75 464.875 567.75 491.453 552.984 491.453 552.984 509.172 552.984 520.984 552.984 526.891 558.891 535.75Z" fill="#795033"/><path d="M514.594 475.211C515.409 475.211 516.07 474.55 516.07 473.734 516.07 472.919 515.409 472.258 514.594 472.258L513.117 472.258C511.486 472.258 510.164 470.936 510.164 469.305 510.164 467.674 511.486 466.352 513.117 466.352L514.594 466.352C515.409 466.352 516.07 465.69 516.07 464.875 516.07 464.06 515.409 463.398 514.594 463.398L513.117 463.398C509.855 463.398 507.211 466.043 507.211 469.305 507.211 472.567 509.855 475.211 513.117 475.211Z"/><path d="M505.38 452.944 498.598 450.686C497.536 450.333 496.366 450.61 495.575 451.402L493.484 453.496C492.908 454.073 492.909 455.008 493.486 455.584 493.763 455.86 494.138 456.016 494.529 456.016L504.882 456.016C505.752 456.016 506.458 455.31 506.458 454.44 506.458 453.761 506.024 453.159 505.38 452.944Z"/><path d="M533.612 451.402C532.821 450.61 531.651 450.333 530.589 450.686L523.808 452.944C522.982 453.219 522.535 454.112 522.81 454.938 523.025 455.581 523.627 456.016 524.305 456.016L534.658 456.016C535.474 456.016 536.135 455.355 536.135 454.539 536.135 454.148 535.979 453.773 535.703 453.496Z"/><path d="M499.828 458.969C498.554 458.969 497.423 459.787 497.025 460.998 496.814 460.933 496.608 460.864 496.413 460.785 495.96 460.617 495.551 460.348 495.217 460 494.977 459.712 494.854 459.343 494.875 458.969L494.875 458.961 494.875 458.952C494.872 458.426 494.442 458.002 493.915 458.005 493.389 458.009 492.965 458.438 492.968 458.965 492.968 458.966 492.968 458.968 492.968 458.969 492.972 459.396 493.059 459.818 493.225 460.211 493.396 460.608 493.65 460.963 493.971 461.253 494.54 461.745 495.226 462.081 495.963 462.23 496.276 462.305 496.595 462.358 496.916 462.39 497.175 463.999 498.689 465.094 500.299 464.834 501.908 464.575 503.003 463.061 502.744 461.451 502.513 460.02 501.278 458.968 499.828 458.969Z"/><path d="M529.359 458.969C528.085 458.969 526.955 459.787 526.556 460.998 526.346 460.933 526.139 460.864 525.944 460.785 525.491 460.617 525.083 460.348 524.749 460 524.508 459.712 524.386 459.343 524.407 458.969L524.407 458.961 524.407 458.952C524.403 458.426 523.973 458.002 523.447 458.005 522.92 458.009 522.496 458.438 522.499 458.965 522.5 458.966 522.5 458.968 522.5 458.969 522.503 459.396 522.59 459.818 522.756 460.211 522.927 460.608 523.182 460.963 523.502 461.253 524.071 461.745 524.757 462.081 525.494 462.23 525.808 462.305 526.126 462.358 526.447 462.39 526.706 463.999 528.221 465.094 529.83 464.834 531.439 464.575 532.534 463.061 532.275 461.451 532.045 460.02 530.809 458.968 529.359 458.969Z"/><path d="M527.45 478.596C527.101 478.247 526.601 478.096 526.117 478.193L511.351 481.146C510.551 481.306 510.033 482.084 510.193 482.884 510.219 483.012 510.261 483.137 510.32 483.254 512.052 486.719 514.449 488.722 517.443 489.208 517.908 489.283 518.378 489.32 518.848 489.319 524.65 489.319 530.154 483.887 530.404 483.638 530.98 483.061 530.98 482.126 530.404 481.55ZM517.916 486.293C516.381 486.044 515.08 485.169 513.974 483.633L525.921 481.244 527.217 482.539C525.09 484.305 521.205 486.828 517.916 486.293Z"/><path d="M482.225 567.451C479.888 564.751 477.68 562.202 477.68 556.422 477.68 548.276 481.141 544.772 485.933 539.923L486.113 539.741C486.685 539.16 486.678 538.225 486.097 537.653 485.517 537.082 484.585 537.088 484.012 537.665L483.832 537.848C478.946 542.792 474.727 547.063 474.727 556.422 474.727 563.303 477.524 566.533 479.993 569.384 482 571.702 483.586 573.533 483.586 577.094L486.539 577.094C486.539 572.432 484.346 569.899 482.225 567.451Z"/><path d="M568.178 526.206C564.741 522.15 560.618 518.729 555.998 516.099 555.938 514.023 555.938 511.744 555.938 509.172 555.938 502.12 558.475 498.387 561.692 493.656 565.707 487.762 570.703 480.427 570.703 464.875 570.703 446.352 568.66 433.465 564.457 425.478 560.885 418.696 555.709 415.168 548.658 414.721 541.481 404.754 531.292 399.906 517.547 399.906 509.905 399.906 497.437 402.9 486.81 409.59 470.721 419.718 467.344 432.397 467.344 441.25 467.344 456.924 470.279 466.42 472.872 474.807 474.659 480.597 476.203 485.596 476.203 491.453 476.203 497.456 474.029 503.617 471.511 510.752L471.479 510.843C468.554 519.13 465.243 528.512 464.535 540.068 460.464 549.975 458.484 562.092 458.484 577.094L462.914 577.094C462.914 537.535 477.696 524.368 490.622 518.141L489.521 523.648C489.403 524.235 489.652 524.834 490.15 525.166L497.781 530.253 492.693 537.884C492.399 538.325 492.364 538.889 492.601 539.363 492.718 539.597 504.258 562.85 504.258 577.094L507.211 577.094C507.211 570.79 505.191 562.292 501.208 551.836 498.877 545.717 496.518 540.681 495.62 538.817L501.057 530.663C501.509 529.984 501.326 529.068 500.647 528.615 500.647 528.615 500.647 528.615 500.647 528.615L492.611 523.257 493.929 516.666C495.919 515.841 497.825 515.15 499.58 514.514 500.531 514.169 501.449 513.836 502.321 513.502 509.707 544.328 510.45 563.739 510.524 577.094L513.478 577.094C513.414 565.571 512.862 549.582 508.055 525.755 515.977 529.233 524.993 529.238 532.919 525.769L532.928 525.808C528.416 548.113 527.637 563.568 527.529 577.094L530.483 577.094C530.513 561.941 531.943 546.823 534.753 531.933 537.081 538.488 540.464 543.056 542.497 545.168 539.072 553.143 533.789 567.068 533.789 577.094L536.742 577.094C536.742 567.998 541.443 555.251 544.769 547.371 547.03 549.377 549.663 550.922 552.518 551.917 556.477 553.237 560.229 552.615 562.186 549.43 562.988 551.672 563.372 554.041 563.32 556.422 563.32 562.202 561.112 564.751 558.775 567.451 556.654 569.899 554.461 572.432 554.461 577.094L557.414 577.094C557.414 573.533 559 571.702 561.007 569.384 563.476 566.533 566.273 563.303 566.273 556.422 566.273 552.035 565.361 548.466 563.415 545.233 563.568 542.108 562.442 538.415 560.119 534.931 556.638 529.709 555.3 525.649 554.785 520.537 558.562 522.82 561.943 525.701 564.797 529.067 573.739 539.632 578.086 555.342 578.086 577.094L582.516 577.094C582.516 554.25 577.826 537.604 568.178 526.206ZM498.574 511.737C491.532 514.289 481.887 517.784 473.95 527.16 472.432 528.961 471.052 530.875 469.822 532.885 471.125 525.172 473.497 518.435 475.656 512.317L475.688 512.226C478.341 504.708 480.633 498.215 480.633 491.453 480.633 484.928 478.998 479.632 477.101 473.49 474.604 465.411 471.773 456.255 471.773 441.25 471.773 427.232 481.234 418.334 489.17 413.338 499.049 407.12 510.541 404.336 517.547 404.336 530.132 404.336 539.322 408.85 545.642 418.136 546.047 418.732 546.717 419.093 547.437 419.105 553.476 419.203 557.516 421.805 560.537 427.542 563.724 433.598 565.557 442.982 566.1 456.08 563.026 453.776 558.724 454.086 556.012 456.806L555.334 457.484C550.779 457.353 547.107 455.729 544.414 452.652 540.434 448.264 537.55 437.674 542.493 427.145 542.857 426.415 542.562 425.528 541.832 425.164 541.103 424.799 540.216 425.095 539.851 425.824 538.711 428.139 537.903 430.602 537.449 433.142 528.24 431.521 520.24 430.935 513.042 431.357 502.383 431.981 493.712 434.875 487.269 439.957 486.959 440.202 486.76 440.561 486.716 440.954 486.598 442.033 486.539 443.118 486.539 444.203L486.539 473.734C486.539 486.242 493.782 491.717 499.602 496.117 503.853 499.33 507.211 501.868 507.211 506.219 507.211 508.497 504.09 509.739 498.574 511.737ZM520.5 525.414C515.894 525.413 511.36 524.276 507.298 522.105 507.021 520.808 506.733 519.489 506.431 518.147 513.958 523.241 523.651 523.869 531.773 519.789 531.924 520.817 532.094 521.827 532.281 522.816 528.593 524.538 524.57 525.425 520.5 525.414ZM530.836 506.219C530.829 509.705 531.009 513.19 531.375 516.657 522.948 521.404 512.417 520.133 505.361 513.519 505.268 513.128 505.174 512.736 505.079 512.342 508.144 510.888 510.164 509.152 510.164 506.219 510.164 500.399 505.899 497.174 501.383 493.761 495.809 489.548 489.492 484.772 489.492 473.734L489.492 444.203C489.492 443.431 489.525 442.658 489.591 441.895 499.701 434.257 515.66 432.299 537.053 436.069 536.408 443.29 538.288 450.135 542.192 454.596 545.54 458.423 550.293 460.445 555.938 460.445 556.329 460.445 556.705 460.29 556.982 460.013L558.1 458.895C559.968 457.026 562.997 457.025 564.866 458.892 565.674 459.699 566.166 460.768 566.255 461.906 566.262 462.495 566.267 463.09 566.269 463.692 566.235 465.613 565.049 467.324 563.264 468.032L553.462 471.954C553.045 472.121 552.727 472.467 552.597 472.896 549.829 482.021 544.457 487.001 539.717 491.395 534.951 495.813 530.836 499.628 530.836 506.219ZM557.662 536.569C561.081 541.698 561.002 546.178 559.481 548.169 558.32 549.688 556.179 550.024 553.451 549.115 546.294 546.64 536.881 538.103 534.408 517.223L534.406 517.211C533.985 513.562 533.779 509.892 533.789 506.219 533.789 500.917 537.291 497.671 541.724 493.561 546.38 489.245 552.148 483.898 555.209 474.436L564.36 470.774C564.972 470.529 565.549 470.206 566.08 469.816 565.193 480.647 561.414 486.196 558.025 491.171 554.673 496.101 551.508 500.757 551.508 509.172 551.508 520.885 551.508 527.338 557.662 536.569Z"/></g></g></g></g></svg>