<svg width="566" height="505" xmlns="http://www.w3.org/2000/svg" xmlns:xlink="http://www.w3.org/1999/xlink" overflow="hidden"><defs><clipPath id="clip0"><rect x="337" y="68" width="566" height="505"/></clipPath><clipPath id="clip1"><rect x="360" y="239" width="96" height="96"/></clipPath><clipPath id="clip2"><rect x="360" y="239" width="96" height="96"/></clipPath><clipPath id="clip3"><rect x="360" y="239" width="96" height="96"/></clipPath><clipPath id="clip4"><rect x="547" y="239" width="96" height="96"/></clipPath><clipPath id="clip5"><rect x="547" y="239" width="96" height="96"/></clipPath><clipPath id="clip6"><rect x="547" y="239" width="96" height="96"/></clipPath><clipPath id="clip7"><rect x="775" y="239" width="96" height="96"/></clipPath><clipPath id="clip8"><rect x="775" y="239" width="96" height="96"/></clipPath><clipPath id="clip9"><rect x="775" y="239" width="96" height="96"/></clipPath><clipPath id="clip10"><rect x="566" y="69" width="57" height="57"/></clipPath><clipPath id="clip11"><rect x="566" y="69" width="57" height="57"/></clipPath><clipPath id="clip12"><rect x="566" y="69" width="57" height="57"/></clipPath></defs><g clip-path="url(#clip0)" transform="translate(-337 -68)"><path d="M472 429.02 472.301 426.022 506.771 429.619 538.636 432.217 546.552 333 547.354 333 600.061 336.197 598.659 378.862 601.364 380.161 603.869 383.158 605.372 383.458 606.474 382.459 607.677 382.858 609.08 383.857 610.182 382.359 612.487 384.057 612.988 386.955 614.19 387.654 616.495 387.554 620.002 389.453 622.006 389.353 623.409 388.953 625.714 391.151 627.718 388.853 631.225 389.952 633.129 392.95 635.434 392.85 634.732 394.948 637.037 396.047 640.043 393.449 642.648 395.148 643.951 394.648 644.051 396.147 645.755 397.346 648.059 394.848 649.262 395.548 648.961 397.546 649.963 399.345 651.166 398.545 653.671 394.349 655.474 396.347 657.479 396.847 659.583 396.147 661.587 397.946 662.789 397.846 664.092 399.045 667.699 398.146 668.301 396.447 672.008 396.147 673.612 396.847 678.622 394.349 679.223 395.847 684.333 395.548 684.834 393.949 687.039 394.848 691.648 398.645 698.061 400.544 700.667 402.842 703.472 401.543 706.679 402.342 706.879 414.232 707.38 434.115 708.082 437.513 710.687 440.31 711.389 445.706 715.196 450.302 715.998 454.598 717 454.598 716.9 461.892 713.593 468.287 714.896 470.585 713.593 472.084 714.295 475.081 714.194 479.378 711.99 482.875 711.89 483.674 710.186 484.873 711.188 486.671 712.391 487.771 708.883 488.07 700.466 491.967 696.959 493.366 695.156 495.164 694.454 494.665 696.558 492.367 698.362 491.667 698.863 490.768 695.957 490.668 695.256 489.869 696.057 487.87 695.156 486.072 694.554 486.072 692.149 487.371 690.245 489.969 690.546 491.667 693.853 495.064 695.156 495.364 695.156 496.164 692.851 497.762 687.941 501.759 683.933 505.656 680.726 507.054 675.716 510.052 672.008 512.05 667.499 513.949 663.391 516.447 666.597 513.449 666.597 512.35 667.198 511.551 666.998 509.752 665.495 509.652 664.393 511.151 661.787 512.45 659.984 511.251 659.683 509.552 658.18 509.552 658.982 511.751 660.385 512.45 661.587 513.349 663.391 514.948 662.689 515.747 658.781 517.446 657.078 517.546 655.875 516.347 655.374 518.445 655.875 519.544 653.17 521.542 651.667 521.742 650.865 522.442 650.464 524.14 648.661 527.437 647.057 528.137 645.454 527.537 643.65 528.636 643.951 530.035 645.254 530.835 646.256 531.634 644.452 535.131 644.151 537.929 643.149 539.627 641.746 540.626 638.841 541.026 640.644 541.625 642.548 541.026 642.147 544.223 641.045 544.123 641.245 545.322 641.546 546.721 640.243 547.62 640.243 550.718 641.847 552.117 642.448 555.214 642.047 557.412 641.045 557.812 641.446 559.311 642.548 559.71 643.35 561.409 643.35 564.007 644.452 566.105 646.656 568.703 646.556 569.402 644.352 569.202 642.749 570.601 642.949 572 642.047 571.7 640.644 571.5 637.237 567.804 634.933 567.204 627.818 567.204 625.012 566.405 621.405 563.407 619.701 562.408 617.597 562.508 614.391 559.91 608.98 558.312 608.98 557.013 607.577 555.214 606.675 550.518 605.573 548.819 603.869 547.421 603.869 545.822 602.466 545.223 603.068 542.625 602.767 540.427 601.464 539.028 602.166 536.03 601.364 532.833 599.661 531.434 598.558 531.434 594.55 527.937 594.65 526.039 593.849 524.34 593.047 524.14 592.145 521.742 590.141 520.144 587.235 517.646 587.035 515.547 586.033 514.848 586.233 513.249 586.734 512.55 585.331 511.051 585.432 510.352 583.427 508.154 583.528 506.055 580.822 501.159 580.722 499.461 578.918 496.363 573.808 491.567 573.808 490.468 570.501 488.77 570.401 486.971 569.198 486.572 569.198 485.872 568.397 485.672 566.292 482.875 565.491 482.875 564.789 482.275 563.487 483.374 561.282 483.374 558.677 482.275 554.068 482.275 549.859 480.177 548.556 482.075 546.352 481.476 543.045 482.675 541.342 485.472 539.337 488.67 538.235 493.066 536.832 494.265 535.73 494.365 534.828 495.964 533.526 496.563 533.425 498.362 530.519 498.462 528.716 496.963 527.714 496.963 525.71 494.065 522.102 493.566 520.399 491.268 519.096 491.068 516.992 490.268 513.585 486.871 513.785 486.072 512.182 484.873 511.18 484.773 507.773 481.676 507.673 479.677 505.368 475.681 505.569 474.082 504.867 472.783 505.669 471.284 505.569 468.886 502.963 464.79 502.362 460.593 500.759 458.995 500.759 457.996 499.556 457.796 498.855 456.697 496.45 454.998 495.548 454.898 493.644 453.299 493.644 452.2 490.738 450.402 490.137 448.304 487.532 446.006 484.325 441.609 481.319 440.31 479.215 438.512 479.415 437.313 478.113 435.914 476.409 432.217 474.004 431.218ZM647.258 567.204 648.059 567.304 647.458 562.508 643.951 550.218 643.751 542.125 648.661 531.634 654.773 523.441 661.988 518.345 661.988 517.646 661.186 517.646 658.581 518.645 654.973 520.943 654.272 522.442 646.055 534.032 643.25 541.925 643.25 550.718 646.857 562.708Z" fill="#ED7D31" fill-rule="evenodd"/><path d="M392.518 550.064 395.925 555.249 394.522 555.349 392.719 553.454ZM394.422 540.293 396.226 544.381 398.832 545.378 399.533 544.78 398.23 542.287 395.625 539.894ZM374.48 521.348 374.48 523.741 376.484 524.938 380.893 524.739 381.896 523.741 378.789 523.542ZM368.567 521.448 371.874 521.947 373.277 524.14 369.469 524.14ZM416.569 566.815 415.567 563.824 415.768 560.833 415.367 552.956 413.563 548.17 412.36 546.774 411.759 545.278 404.744 536.703 401.136 536.803 399.132 534.909 400.235 533.114 399.533 529.425 397.328 528.228 393.42 527.63 390.614 526.334 389.111 524.439 384.601 517.859 381.896 515.665 378.188 515.167 375.081 512.873 370.371 511.378 367.565 511.078 365.06 508.586 365.26 505.794 366.062 501.008 367.866 495.923 366.463 494.328 362.454 484.955 359.748 481.266 359.348 478.275 357.744 475.981 357.945 473.489 355.94 468.503 353.034 465.811 353.635 458.732 356.041 457.934 357.844 454.843 357.444 451.652 356.441 450.755 353.936 450.755 351.431 447.465 349.928 443.975 349.928 436.497 351.13 432.309 351.331 430.215 353.836 430.415 353.736 432.01 352.934 432.708 352.934 435.201 356.642 438.391 356.642 433.705 355.239 430.315 355.74 429.218 354.738 427.523 357.544 426.028 355.64 423.036 354.237 423.535 352.734 427.324 353.235 428.62 352.433 429.617 351.531 429.517 346.119 423.435 346.821 417.852 345.719 413.963 339.205 401.2 340.006 390.532 342.311 386.942 342.512 380.561 337 369.493 337.301 364.308 344.215 356.83 345.919 354.437 345.819 353.041 349.827 343.868 349.928 335.493 350.829 333 417.07 351.546 400.635 414.461 401.738 417.951 472.288 522.645 471.386 524.739 472.689 528.129 474.092 529.923 475.294 535.706 477.599 538.199 478 540.094 476.697 541.39 471.887 543.085 469.482 546.674 467.879 553.654 465.473 556.844 463.87 557.144 462.768 564.023 463.87 565.619 465.674 565.818 466.676 567.414 465.874 569.807 462.868 572 460.663 571.9Z" fill="#ED7D31" fill-rule="evenodd"/><path d="M855.903 334.599 851.921 333.899 850.228 333 848.038 334.399 848.038 336.897 849.432 338.996 848.934 343.292 846.843 343.892 845.847 342.793 845.25 339.595 795.369 342.893 792.084 336.897 743.498 341.993 743 344.891 745.489 347.689 747.182 348.389 748.078 349.588 747.679 356.882 746.584 357.482 747.082 357.882 748.078 357.582 748.775 356.783 759.229 354.085 768.388 353.585 776.453 355.484 784.916 360.48 787.305 361.279 789.495 363.278 789.396 365.976 791.785 365.976 793.677 364.977 796.166 365.076 798.157 364.277 801.044 362.278 804.131 359.381 805.226 358.981 805.823 359.481 807.217 359.481 807.715 358.681 807.217 357.482 806.62 356.882 806.819 356.083 808.81 354.984 813.788 354.584 814.585 355.583 815.581 355.683 817.87 356.683 820.857 358.481 822.052 360.18 823.147 361.379 825.935 362.778 825.935 365.176 828.723 367.075 829.718 367.175 831.311 368.574 832.008 370.173 833.004 370.373 833.8 372.471 834.497 373.071 835.493 371.971 838.38 372.071 838.878 373.47 839.973 374.37 839.973 375.669 842.86 377.867 843.06 387.46 841.267 393.256 842.263 394.455 842.064 397.852 841.267 399.251 841.964 400.451 844.254 402.749 844.553 404.248 845.349 405.247 844.951 403.348 846.246 402.749 847.042 399.151 844.055 397.952 844.155 397.353 846.743 396.953 847.639 399.551 848.734 400.151 848.834 398.152 849.929 398.452 850.527 399.251 850.427 399.951 847.54 404.148 847.341 405.247 845.648 407.146 845.648 408.245 849.332 412.042 854.609 419.936 856.401 422.035 856.401 423.833 859.189 428.43 861.478 429.029 862.175 427.83 860.085 428.13 857.098 423.633 857.297 422.234 858.79 421.435 858.79 419.936 858.193 418.637 859.089 417.738 859.487 418.637 860.184 419.137 860.184 423.134 858.989 422.534 858.193 423.434 859.587 425.032 860.582 427.63 861.777 427.031 864.067 428.23 866.158 430.428 867.751 435.525 870.837 440.321 871.634 439.022 874.421 438.522 877.607 439.822 877.906 441.52 881.192 445.317 881.291 446.417 883.482 449.115 882.785 449.614 882.785 452.312 885.473 453.711 886.966 453.711 889.654 451.913 891.148 452.212 892.243 452.612 894.533 450.913 894.732 450.214 895.927 450.514 898.316 448.815 899.611 446.517 898.914 443.319 898.714 442.02 899.81 438.023 900.407 437.823 901.005 439.422 901.801 437.623 901.005 430.428 900.606 419.936 899.611 413.141 898.914 411.442 892.343 400.35 887.165 391.257 884.975 387.96 883.681 384.362 883.482 380.965 884.378 380.665 884.378 379.766 883.282 377.567 879.3 373.57 871.733 363.877 866.058 353.485 861.777 342.793 861.18 339.096 859.985 338.096 859.487 334.299ZM865.063 469 866.755 468.9 866.058 467.901ZM872.331 467.901 872.331 467.201 873.924 467.001 877.607 463.704 879.101 463.104 881.49 462.205 881.789 463.504 883.482 464.303 880.893 465.503 878.504 465.503 874.621 468.001ZM889.455 460.306 886.469 461.705 885.473 463.004 886.568 463.104ZM893.239 457.409 892.143 457.708 890.75 459.707 891.845 459.507 893.338 457.908ZM901.502 441.72 899.81 447.316 899.013 448.315 898.018 450.913 896.823 452.512 896.126 454.211 894.234 456.409 894.234 457.309 896.922 454.511 899.312 451.013 899.909 449.015 902 444.118Z" fill="#ED7D31" fill-rule="evenodd"/><g clip-path="url(#clip1)"><g clip-path="url(#clip2)"><g clip-path="url(#clip3)"><path d="M393 269.8C393 274.771 388.971 278.8 384 278.8 379.029 278.8 375 274.771 375 269.8 375 264.829 379.029 260.8 384 260.8 388.971 260.8 393 264.829 393 269.8Z" fill="#7030A0"/><path d="M441 269.8C441 274.771 436.971 278.8 432 278.8 427.029 278.8 423 274.771 423 269.8 423 264.829 427.029 260.8 432 260.8 436.971 260.8 441 264.829 441 269.8Z" fill="#7030A0"/><path d="M426 313.2 426 304.2C426 302.8 425.4 301.4 424.2 300.6 421.8 298.6 418.6 297.2 415.4 296.4 413.2 295.8 410.6 295.2 408 295.2 405.6 295.2 403 295.6 400.6 296.4 397.4 297.2 394.4 298.8 391.8 300.6 390.6 301.6 390 302.8 390 304.2L390 313.2 426 313.2Z" fill="#7030A0"/><path d="M417 283.8C417 288.771 412.971 292.8 408 292.8 403.029 292.8 399 288.771 399 283.8 399 278.829 403.029 274.8 408 274.8 412.971 274.8 417 278.829 417 283.8Z" fill="#7030A0"/><path d="M448.2 286.6C445.8 284.6 442.6 283.2 439.4 282.4 437.2 281.8 434.6 281.2 432 281.2 429.6 281.2 427 281.6 424.6 282.4 423.4 282.8 422.2 283.2 421 283.8L421 284C421 287.4 419.6 290.6 417.4 292.8 421.2 294 424.2 295.6 426.6 297.4 427.2 298 427.8 298.4 428.2 299.2L450 299.2 450 290.2C450 288.8 449.4 287.4 448.2 286.6Z" fill="#7030A0"/><path d="M389.4 297.4 389.4 297.4C392.2 295.4 395.4 293.8 398.6 292.8 396.4 290.4 395 287.4 395 284 395 283.8 395 283.8 395 283.6 393.8 283.2 392.6 282.6 391.4 282.4 389.2 281.8 386.6 281.2 384 281.2 381.6 281.2 379 281.6 376.6 282.4 373.4 283.4 370.4 284.8 367.8 286.6 366.6 287.4 366 288.8 366 290.2L366 299.2 387.6 299.2C388.2 298.4 388.6 298 389.4 297.4Z" fill="#7030A0"/></g></g></g><g clip-path="url(#clip4)"><g clip-path="url(#clip5)"><g clip-path="url(#clip6)"><path d="M580 269.8C580 274.771 575.971 278.8 571 278.8 566.029 278.8 562 274.771 562 269.8 562 264.829 566.029 260.8 571 260.8 575.971 260.8 580 264.829 580 269.8Z" fill="#7030A0"/><path d="M628 269.8C628 274.771 623.971 278.8 619 278.8 614.029 278.8 610 274.771 610 269.8 610 264.829 614.029 260.8 619 260.8 623.971 260.8 628 264.829 628 269.8Z" fill="#7030A0"/><path d="M613 313.2 613 304.2C613 302.8 612.4 301.4 611.2 300.6 608.8 298.6 605.6 297.2 602.4 296.4 600.2 295.8 597.6 295.2 595 295.2 592.6 295.2 590 295.6 587.6 296.4 584.4 297.2 581.4 298.8 578.8 300.6 577.6 301.6 577 302.8 577 304.2L577 313.2 613 313.2Z" fill="#7030A0"/><path d="M604 283.8C604 288.771 599.971 292.8 595 292.8 590.029 292.8 586 288.771 586 283.8 586 278.829 590.029 274.8 595 274.8 599.971 274.8 604 278.829 604 283.8Z" fill="#7030A0"/><path d="M635.2 286.6C632.8 284.6 629.6 283.2 626.4 282.4 624.2 281.8 621.6 281.2 619 281.2 616.6 281.2 614 281.6 611.6 282.4 610.4 282.8 609.2 283.2 608 283.8L608 284C608 287.4 606.6 290.6 604.4 292.8 608.2 294 611.2 295.6 613.6 297.4 614.2 298 614.8 298.4 615.2 299.2L637 299.2 637 290.2C637 288.8 636.4 287.4 635.2 286.6Z" fill="#7030A0"/><path d="M576.4 297.4 576.4 297.4C579.2 295.4 582.4 293.8 585.6 292.8 583.4 290.4 582 287.4 582 284 582 283.8 582 283.8 582 283.6 580.8 283.2 579.6 282.6 578.4 282.4 576.2 281.8 573.6 281.2 571 281.2 568.6 281.2 566 281.6 563.6 282.4 560.4 283.4 557.4 284.8 554.8 286.6 553.6 287.4 553 288.8 553 290.2L553 299.2 574.6 299.2C575.2 298.4 575.6 298 576.4 297.4Z" fill="#7030A0"/></g></g></g><g clip-path="url(#clip7)"><g clip-path="url(#clip8)"><g clip-path="url(#clip9)"><path d="M808 269.8C808 274.771 803.971 278.8 799 278.8 794.029 278.8 790 274.771 790 269.8 790 264.829 794.029 260.8 799 260.8 803.971 260.8 808 264.829 808 269.8Z" fill="#7030A0"/><path d="M856 269.8C856 274.771 851.971 278.8 847 278.8 842.029 278.8 838 274.771 838 269.8 838 264.829 842.029 260.8 847 260.8 851.971 260.8 856 264.829 856 269.8Z" fill="#7030A0"/><path d="M841 313.2 841 304.2C841 302.8 840.4 301.4 839.2 300.6 836.8 298.6 833.6 297.2 830.4 296.4 828.2 295.8 825.6 295.2 823 295.2 820.6 295.2 818 295.6 815.6 296.4 812.4 297.2 809.4 298.8 806.8 300.6 805.6 301.6 805 302.8 805 304.2L805 313.2 841 313.2Z" fill="#7030A0"/><path d="M832 283.8C832 288.771 827.971 292.8 823 292.8 818.029 292.8 814 288.771 814 283.8 814 278.829 818.029 274.8 823 274.8 827.971 274.8 832 278.829 832 283.8Z" fill="#7030A0"/><path d="M863.2 286.6C860.8 284.6 857.6 283.2 854.4 282.4 852.2 281.8 849.6 281.2 847 281.2 844.6 281.2 842 281.6 839.6 282.4 838.4 282.8 837.2 283.2 836 283.8L836 284C836 287.4 834.6 290.6 832.4 292.8 836.2 294 839.2 295.6 841.6 297.4 842.2 298 842.8 298.4 843.2 299.2L865 299.2 865 290.2C865 288.8 864.4 287.4 863.2 286.6Z" fill="#7030A0"/><path d="M804.4 297.4 804.4 297.4C807.2 295.4 810.4 293.8 813.6 292.8 811.4 290.4 810 287.4 810 284 810 283.8 810 283.8 810 283.6 808.8 283.2 807.6 282.6 806.4 282.4 804.2 281.8 801.6 281.2 799 281.2 796.6 281.2 794 281.6 791.6 282.4 788.4 283.4 785.4 284.8 782.8 286.6 781.6 287.4 781 288.8 781 290.2L781 299.2 802.6 299.2C803.2 298.4 803.6 298 804.4 297.4Z" fill="#7030A0"/></g></g></g><g clip-path="url(#clip10)"><g clip-path="url(#clip11)"><g clip-path="url(#clip12)"><path d="M604 86.8125C604 92.0592 599.747 96.3125 594.5 96.3125 589.253 96.3125 585 92.0592 585 86.8125 585 81.5658 589.253 77.3125 594.5 77.3125 599.747 77.3125 604 81.5658 604 86.8125Z" fill="#00B050"/><path d="M613.5 117.688 613.5 108.188C613.5 106.762 612.787 105.338 611.6 104.387 608.987 102.25 605.662 100.825 602.338 99.875 599.963 99.1625 597.35 98.6875 594.5 98.6875 591.888 98.6875 589.275 99.1625 586.662 99.875 583.338 100.825 580.013 102.488 577.4 104.387 576.213 105.338 575.5 106.762 575.5 108.188L575.5 117.688 613.5 117.688Z" fill="#00B050"/></g></g></g><path d="M2.06588-2.17534 120.316 110.124 116.184 114.475-2.06588 2.17534ZM122.272 103.708 129.126 122.629 109.877 116.76Z" transform="matrix(1 0 0 -1 408 239.629)"/><path d="M820.652 241.979 677.885 128.675 681.615 123.975 824.382 237.279ZM676.505 135.239 668 117 687.694 121.14Z"/><path d="M3-2.77778e-06 3.00009 98.3858-2.99991 98.3858-3 2.77778e-06ZM9.00009 95.3858 0.000104987 113.386-8.99991 95.3858Z" transform="matrix(1 0 0 -1 595 239.386)"/></g></svg>