<svg width="308" height="390" xmlns="http://www.w3.org/2000/svg" xmlns:xlink="http://www.w3.org/1999/xlink" overflow="hidden"><defs><clipPath id="clip0"><rect x="308" y="232" width="308" height="390"/></clipPath></defs><g clip-path="url(#clip0)" transform="translate(-308 -232)"><path d="M309.974 233.981 347.77 233.981 347.77 272.381 309.974 272.381Z" fill="#FFC425" fill-rule="evenodd"/><path d="M347.77 233.981 385.565 233.981 385.565 272.381 347.77 272.381Z" fill="#FFC425" fill-rule="evenodd"/><path d="M385.565 233.981 423.36 233.981 423.36 272.381 385.565 272.381Z" fill="#FFC425" fill-rule="evenodd"/><path d="M423.36 233.981 461.156 233.981 461.156 272.381 423.36 272.381Z" fill="#FFC425" fill-rule="evenodd"/><path d="M461.156 233.981 498.951 233.981 498.951 272.381 461.156 272.381Z" fill="#FFC425" fill-rule="evenodd"/><path d="M498.951 233.981 536.746 233.981 536.746 272.381 498.951 272.381Z" fill="#FFC425" fill-rule="evenodd"/><path d="M536.746 233.981 574.541 233.981 574.541 272.381 536.746 272.381Z" fill="#FFC425" fill-rule="evenodd"/><path d="M574.541 233.981 612.337 233.981 612.337 272.381 574.541 272.381Z" fill="#FFC425" fill-rule="evenodd"/><path d="M309.974 272.381 347.77 272.381 347.77 310.781 309.974 310.781Z" fill="#FFC425" fill-rule="evenodd"/><path d="M347.77 272.381 385.565 272.381 385.565 310.781 347.77 310.781Z" fill="#FFC425" fill-rule="evenodd"/><path d="M385.565 272.381 423.36 272.381 423.36 310.781 385.565 310.781Z" fill="#FFC425" fill-rule="evenodd"/><path d="M423.36 272.381 461.156 272.381 461.156 310.781 423.36 310.781Z" fill="#FFC425" fill-rule="evenodd"/><path d="M461.156 272.381 498.951 272.381 498.951 310.781 461.156 310.781Z" fill="#FFC425" fill-rule="evenodd"/><path d="M498.951 272.381 536.746 272.381 536.746 310.781 498.951 310.781Z" fill="#FFC425" fill-rule="evenodd"/><path d="M536.746 272.381 574.541 272.381 574.541 310.781 536.746 310.781Z" fill="#FFC425" fill-rule="evenodd"/><path d="M574.541 272.381 612.337 272.381 612.337 310.781 574.541 310.781Z" fill="#FFC425" fill-rule="evenodd"/><path d="M309.974 310.781 347.77 310.781 347.77 349.181 309.974 349.181Z" fill="#FFC425" fill-rule="evenodd"/><path d="M347.77 310.781 385.565 310.781 385.565 349.181 347.77 349.181Z" fill="#FFC425" fill-rule="evenodd"/><path d="M385.565 310.781 423.36 310.781 423.36 349.181 385.565 349.181Z" fill="#FFC425" fill-rule="evenodd"/><path d="M423.36 310.781 461.156 310.781 461.156 349.181 423.36 349.181Z" fill="#FFC425" fill-rule="evenodd"/><path d="M461.156 310.781 498.951 310.781 498.951 349.181 461.156 349.181Z" fill="#FFC425" fill-rule="evenodd"/><path d="M498.951 310.781 536.746 310.781 536.746 349.181 498.951 349.181Z" fill="#FFC425" fill-rule="evenodd"/><path d="M536.746 310.781 574.541 310.781 574.541 349.181 536.746 349.181Z" fill="#FFC425" fill-rule="evenodd"/><path d="M574.541 310.781 612.337 310.781 612.337 349.181 574.541 349.181Z" fill="#FFC425" fill-rule="evenodd"/><path d="M309.974 349.181 347.77 349.181 347.77 387.581 309.974 387.581Z" fill="#FFC425" fill-rule="evenodd"/><path d="M347.77 349.181 385.565 349.181 385.565 387.581 347.77 387.581Z" fill="#FFC425" fill-rule="evenodd"/><path d="M385.565 349.181 423.36 349.181 423.36 387.581 385.565 387.581Z" fill="#FFC425" fill-rule="evenodd"/><path d="M423.36 349.181 461.156 349.181 461.156 387.581 423.36 387.581Z" fill="#FFC425" fill-rule="evenodd"/><path d="M461.156 349.181 498.951 349.181 498.951 387.581 461.156 387.581Z" fill="#FFC425" fill-rule="evenodd"/><path d="M498.951 349.181 536.746 349.181 536.746 387.581 498.951 387.581Z" fill="#FFC425" fill-rule="evenodd"/><path d="M536.746 349.181 574.541 349.181 574.541 387.581 536.746 387.581Z" fill="#FFC425" fill-rule="evenodd"/><path d="M574.541 349.181 612.337 349.181 612.337 387.581 574.541 387.581Z" fill="#FFC425" fill-rule="evenodd"/><path d="M309.974 387.581 347.77 387.581 347.77 425.981 309.974 425.981Z" fill="#FFC425" fill-rule="evenodd"/><path d="M347.77 387.581 385.565 387.581 385.565 425.981 347.77 425.981Z" fill="#FFC425" fill-rule="evenodd"/><path d="M385.565 387.581 423.36 387.581 423.36 425.981 385.565 425.981Z" fill="#FFC425" fill-rule="evenodd"/><path d="M423.36 387.581 461.156 387.581 461.156 425.981 423.36 425.981Z" fill="#FFC425" fill-rule="evenodd"/><path d="M461.156 387.581 498.951 387.581 498.951 425.981 461.156 425.981Z" fill="#FFC425" fill-rule="evenodd"/><path d="M498.951 387.581 536.746 387.581 536.746 425.981 498.951 425.981Z" fill="#FFC425" fill-rule="evenodd"/><path d="M536.746 387.581 574.541 387.581 574.541 425.981 536.746 425.981Z" fill="#FFC425" fill-rule="evenodd"/><path d="M574.541 387.581 612.337 387.581 612.337 425.981 574.541 425.981Z" fill="#FFC425" fill-rule="evenodd"/><path d="M309.974 425.981 347.77 425.981 347.77 464.381 309.974 464.381Z" fill="#FFC425" fill-rule="evenodd"/><path d="M347.77 425.981 385.565 425.981 385.565 464.381 347.77 464.381Z" fill="#FFC425" fill-rule="evenodd"/><path d="M385.565 425.981 423.36 425.981 423.36 464.381 385.565 464.381Z" fill="#FFC425" fill-rule="evenodd"/><path d="M423.36 425.981 461.156 425.981 461.156 464.381 423.36 464.381Z" fill="#FFC425" fill-rule="evenodd"/><path d="M461.156 425.981 498.951 425.981 498.951 464.381 461.156 464.381Z" fill="#FFC425" fill-rule="evenodd"/><path d="M498.951 425.981 536.746 425.981 536.746 464.381 498.951 464.381Z" fill="#FFC425" fill-rule="evenodd"/><path d="M536.746 425.981 574.541 425.981 574.541 464.381 536.746 464.381Z" fill="#FFC425" fill-rule="evenodd"/><path d="M574.541 425.981 612.337 425.981 612.337 464.381 574.541 464.381Z" fill="#FFC425" fill-rule="evenodd"/><path d="M309.974 464.381 347.77 464.381 347.77 502.781 309.974 502.781Z" fill="#FFC425" fill-rule="evenodd"/><path d="M347.77 464.381 385.565 464.381 385.565 502.781 347.77 502.781Z" fill="#FFC425" fill-rule="evenodd"/><path d="M385.565 464.381 423.36 464.381 423.36 502.781 385.565 502.781Z" fill="#D11141" fill-rule="evenodd"/><path d="M423.36 464.381 461.156 464.381 461.156 502.781 423.36 502.781Z" fill="#D11141" fill-rule="evenodd"/><path d="M461.156 464.381 498.951 464.381 498.951 502.781 461.156 502.781Z" fill="#D11141" fill-rule="evenodd"/><path d="M498.951 464.381 536.746 464.381 536.746 502.781 498.951 502.781Z" fill="#D11141" fill-rule="evenodd"/><path d="M536.746 464.381 574.541 464.381 574.541 502.781 536.746 502.781Z" fill="#D11141" fill-rule="evenodd"/><path d="M574.541 464.381 612.337 464.381 612.337 502.781 574.541 502.781Z" fill="#D11141" fill-rule="evenodd"/><path d="M309.974 502.781 347.77 502.781 347.77 541.181 309.974 541.181Z" fill="#D11141" fill-rule="evenodd"/><path d="M347.77 502.781 385.565 502.781 385.565 541.181 347.77 541.181Z" fill="#D11141" fill-rule="evenodd"/><path d="M385.565 502.781 423.36 502.781 423.36 541.181 385.565 541.181Z" fill="#D11141" fill-rule="evenodd"/><path d="M423.36 502.781 461.156 502.781 461.156 541.181 423.36 541.181Z" fill="#D11141" fill-rule="evenodd"/><path d="M461.156 502.781 498.951 502.781 498.951 541.181 461.156 541.181Z" fill="#D11141" fill-rule="evenodd"/><path d="M498.951 502.781 536.746 502.781 536.746 541.181 498.951 541.181Z" fill="#D11141" fill-rule="evenodd"/><path d="M536.746 502.781 574.541 502.781 574.541 541.181 536.746 541.181Z" fill="#D11141" fill-rule="evenodd"/><path d="M574.541 502.781 612.337 502.781 612.337 541.181 574.541 541.181Z" fill="#D11141" fill-rule="evenodd"/><path d="M309.974 541.181 347.77 541.181 347.77 579.581 309.974 579.581Z" fill="#D11141" fill-rule="evenodd"/><path d="M347.77 541.181 385.565 541.181 385.565 579.581 347.77 579.581Z" fill="#D11141" fill-rule="evenodd"/><path d="M385.565 541.181 423.36 541.181 423.36 579.581 385.565 579.581Z" fill="#D11141" fill-rule="evenodd"/><path d="M423.36 541.181 461.156 541.181 461.156 579.581 423.36 579.581Z" fill="#D11141" fill-rule="evenodd"/><path d="M461.156 541.181 498.951 541.181 498.951 579.581 461.156 579.581Z" fill="#D11141" fill-rule="evenodd"/><path d="M498.951 541.181 536.746 541.181 536.746 579.581 498.951 579.581Z" fill="#D11141" fill-rule="evenodd"/><path d="M536.746 541.181 574.541 541.181 574.541 579.581 536.746 579.581Z" fill="#D11141" fill-rule="evenodd"/><path d="M574.541 541.181 612.337 541.181 612.337 579.581 574.541 579.581Z" fill="#D11141" fill-rule="evenodd"/><path d="M309.974 579.581 347.77 579.581 347.77 617.981 309.974 617.981Z" fill="#D11141" fill-rule="evenodd"/><path d="M347.77 579.581 385.565 579.581 385.565 617.981 347.77 617.981Z" fill="#D11141" fill-rule="evenodd"/><path d="M385.565 579.581 423.36 579.581 423.36 617.981 385.565 617.981Z" fill="#D11141" fill-rule="evenodd"/><path d="M423.36 579.581 461.156 579.581 461.156 617.981 423.36 617.981Z" fill="#D11141" fill-rule="evenodd"/><path d="M461.156 579.581 498.951 579.581 498.951 617.981 461.156 617.981Z" fill="#D11141" fill-rule="evenodd"/><path d="M498.951 579.581 536.746 579.581 536.746 617.981 498.951 617.981Z" fill="#D11141" fill-rule="evenodd"/><path d="M536.746 579.581 574.541 579.581 574.541 617.981 536.746 617.981Z" fill="#D11141" fill-rule="evenodd"/><path d="M574.541 579.581 612.337 579.581 612.337 617.981 574.541 617.981Z" fill="#D11141" fill-rule="evenodd"/><path d="M347.77 232.481 347.77 619.481" stroke="#000000" stroke-width="3" stroke-linejoin="round" stroke-miterlimit="10" fill="none" fill-rule="evenodd"/><path d="M385.565 232.481 385.565 619.481" stroke="#000000" stroke-width="3" stroke-linejoin="round" stroke-miterlimit="10" fill="none" fill-rule="evenodd"/><path d="M423.36 232.481 423.36 619.481" stroke="#000000" stroke-width="3" stroke-linejoin="round" stroke-miterlimit="10" fill="none" fill-rule="evenodd"/><path d="M461.156 232.481 461.156 619.481" stroke="#000000" stroke-width="3" stroke-linejoin="round" stroke-miterlimit="10" fill="none" fill-rule="evenodd"/><path d="M498.951 232.481 498.951 619.481" stroke="#000000" stroke-width="3" stroke-linejoin="round" stroke-miterlimit="10" fill="none" fill-rule="evenodd"/><path d="M536.746 232.481 536.746 619.481" stroke="#000000" stroke-width="3" stroke-linejoin="round" stroke-miterlimit="10" fill="none" fill-rule="evenodd"/><path d="M574.541 232.481 574.541 619.481" stroke="#000000" stroke-width="3" stroke-linejoin="round" stroke-miterlimit="10" fill="none" fill-rule="evenodd"/><path d="M308.475 272.381 613.837 272.381" stroke="#000000" stroke-width="3" stroke-linejoin="round" stroke-miterlimit="10" fill="none" fill-rule="evenodd"/><path d="M308.475 310.781 613.837 310.781" stroke="#000000" stroke-width="3" stroke-linejoin="round" stroke-miterlimit="10" fill="none" fill-rule="evenodd"/><path d="M308.475 349.181 613.837 349.181" stroke="#000000" stroke-width="3" stroke-linejoin="round" stroke-miterlimit="10" fill="none" fill-rule="evenodd"/><path d="M308.475 387.581 613.837 387.581" stroke="#000000" stroke-width="3" stroke-linejoin="round" stroke-miterlimit="10" fill="none" fill-rule="evenodd"/><path d="M308.475 425.981 613.837 425.981" stroke="#000000" stroke-width="3" stroke-linejoin="round" stroke-miterlimit="10" fill="none" fill-rule="evenodd"/><path d="M308.475 464.381 613.837 464.381" stroke="#000000" stroke-width="3" stroke-linejoin="round" stroke-miterlimit="10" fill="none" fill-rule="evenodd"/><path d="M308.475 502.781 613.837 502.781" stroke="#000000" stroke-width="3" stroke-linejoin="round" stroke-miterlimit="10" fill="none" fill-rule="evenodd"/><path d="M308.475 541.181 613.837 541.181" stroke="#000000" stroke-width="3" stroke-linejoin="round" stroke-miterlimit="10" fill="none" fill-rule="evenodd"/><path d="M308.475 579.581 613.837 579.581" stroke="#000000" stroke-width="3" stroke-linejoin="round" stroke-miterlimit="10" fill="none" fill-rule="evenodd"/><path d="M309.974 232.481 309.974 619.481" stroke="#000000" stroke-width="3" stroke-linejoin="round" stroke-miterlimit="10" fill="none" fill-rule="evenodd"/><path d="M612.337 232.481 612.337 619.481" stroke="#000000" stroke-width="3" stroke-linejoin="round" stroke-miterlimit="10" fill="none" fill-rule="evenodd"/><path d="M308.475 233.981 613.837 233.981" stroke="#000000" stroke-width="3" stroke-linejoin="round" stroke-miterlimit="10" fill="none" fill-rule="evenodd"/><path d="M308.475 617.981 613.837 617.981" stroke="#000000" stroke-width="3" stroke-linejoin="round" stroke-miterlimit="10" fill="none" fill-rule="evenodd"/></g></svg>