<svg width="308" height="390" xmlns="http://www.w3.org/2000/svg" xmlns:xlink="http://www.w3.org/1999/xlink" overflow="hidden"><defs><clipPath id="clip0"><rect x="308" y="232" width="308" height="390"/></clipPath><clipPath id="clip1"><rect x="412" y="493" width="96" height="96"/></clipPath><clipPath id="clip2"><rect x="412" y="493" width="96" height="96"/></clipPath><clipPath id="clip3"><rect x="412" y="493" width="96" height="96"/></clipPath></defs><g clip-path="url(#clip0)" transform="translate(-308 -232)"><path d="M309.974 233.981 347.77 233.981 347.77 272.381 309.974 272.381Z" fill="#D11141" fill-rule="evenodd"/><path d="M347.77 233.981 385.565 233.981 385.565 272.381 347.77 272.381Z" fill="#D11141" fill-rule="evenodd"/><path d="M385.565 233.981 423.36 233.981 423.36 272.381 385.565 272.381Z" fill="#D11141" fill-rule="evenodd"/><path d="M423.36 233.981 461.156 233.981 461.156 272.381 423.36 272.381Z" fill="#D11141" fill-rule="evenodd"/><path d="M461.156 233.981 498.951 233.981 498.951 272.381 461.156 272.381Z" fill="#D11141" fill-rule="evenodd"/><path d="M498.951 233.981 536.746 233.981 536.746 272.381 498.951 272.381Z" fill="#D11141" fill-rule="evenodd"/><path d="M536.746 233.981 574.541 233.981 574.541 272.381 536.746 272.381Z" fill="#D11141" fill-rule="evenodd"/><path d="M574.541 233.981 612.337 233.981 612.337 272.381 574.541 272.381Z" fill="#D11141" fill-rule="evenodd"/><path d="M309.974 272.381 347.77 272.381 347.77 310.781 309.974 310.781Z" fill="#D11141" fill-rule="evenodd"/><path d="M347.77 272.381 385.565 272.381 385.565 310.781 347.77 310.781Z" fill="#D11141" fill-rule="evenodd"/><path d="M385.565 272.381 423.36 272.381 423.36 310.781 385.565 310.781Z" fill="#D11141" fill-rule="evenodd"/><path d="M423.36 272.381 461.156 272.381 461.156 310.781 423.36 310.781Z" fill="#D11141" fill-rule="evenodd"/><path d="M461.156 272.381 498.951 272.381 498.951 310.781 461.156 310.781Z" fill="#D11141" fill-rule="evenodd"/><path d="M498.951 272.381 536.746 272.381 536.746 310.781 498.951 310.781Z" fill="#D11141" fill-rule="evenodd"/><path d="M536.746 272.381 574.541 272.381 574.541 310.781 536.746 310.781Z" fill="#D11141" fill-rule="evenodd"/><path d="M574.541 272.381 612.337 272.381 612.337 310.781 574.541 310.781Z" fill="#D11141" fill-rule="evenodd"/><path d="M309.974 310.781 347.77 310.781 347.77 349.181 309.974 349.181Z" fill="#D11141" fill-rule="evenodd"/><path d="M347.77 310.781 385.565 310.781 385.565 349.181 347.77 349.181Z" fill="#D11141" fill-rule="evenodd"/><path d="M385.565 310.781 423.36 310.781 423.36 349.181 385.565 349.181Z" fill="#D11141" fill-rule="evenodd"/><path d="M423.36 310.781 461.156 310.781 461.156 349.181 423.36 349.181Z" fill="#D11141" fill-rule="evenodd"/><path d="M461.156 310.781 498.951 310.781 498.951 349.181 461.156 349.181Z" fill="#D11141" fill-rule="evenodd"/><path d="M498.951 310.781 536.746 310.781 536.746 349.181 498.951 349.181Z" fill="#D11141" fill-rule="evenodd"/><path d="M536.746 310.781 574.541 310.781 574.541 349.181 536.746 349.181Z" fill="#D11141" fill-rule="evenodd"/><path d="M574.541 310.781 612.337 310.781 612.337 349.181 574.541 349.181Z" fill="#D11141" fill-rule="evenodd"/><path d="M309.974 349.181 347.77 349.181 347.77 387.581 309.974 387.581Z" fill="#D11141" fill-rule="evenodd"/><path d="M347.77 349.181 385.565 349.181 385.565 387.581 347.77 387.581Z" fill="#D11141" fill-rule="evenodd"/><path d="M385.565 349.181 423.36 349.181 423.36 387.581 385.565 387.581Z" fill="#FFC425" fill-rule="evenodd"/><path d="M423.36 349.181 461.156 349.181 461.156 387.581 423.36 387.581Z" fill="#FFC425" fill-rule="evenodd"/><path d="M461.156 349.181 498.951 349.181 498.951 387.581 461.156 387.581Z" fill="#FFC425" fill-rule="evenodd"/><path d="M498.951 349.181 536.746 349.181 536.746 387.581 498.951 387.581Z" fill="#FFC425" fill-rule="evenodd"/><path d="M536.746 349.181 574.541 349.181 574.541 387.581 536.746 387.581Z" fill="#FFC425" fill-rule="evenodd"/><path d="M574.541 349.181 612.337 349.181 612.337 387.581 574.541 387.581Z" fill="#FFC425" fill-rule="evenodd"/><path d="M309.974 387.581 347.77 387.581 347.77 425.981 309.974 425.981Z" fill="#FFC425" fill-rule="evenodd"/><path d="M347.77 387.581 385.565 387.581 385.565 425.981 347.77 425.981Z" fill="#FFC425" fill-rule="evenodd"/><path d="M385.565 387.581 423.36 387.581 423.36 425.981 385.565 425.981Z" fill="#FFC425" fill-rule="evenodd"/><path d="M423.36 387.581 461.156 387.581 461.156 425.981 423.36 425.981Z" fill="#FFC425" fill-rule="evenodd"/><path d="M461.156 387.581 498.951 387.581 498.951 425.981 461.156 425.981Z" fill="#FFC425" fill-rule="evenodd"/><path d="M498.951 387.581 536.746 387.581 536.746 425.981 498.951 425.981Z" fill="#FFC425" fill-rule="evenodd"/><path d="M536.746 387.581 574.541 387.581 574.541 425.981 536.746 425.981Z" fill="#FFC425" fill-rule="evenodd"/><path d="M574.541 387.581 612.337 387.581 612.337 425.981 574.541 425.981Z" fill="#FFC425" fill-rule="evenodd"/><path d="M309.974 425.981 347.77 425.981 347.77 464.381 309.974 464.381Z" fill="#FFC425" fill-rule="evenodd"/><path d="M347.77 425.981 385.565 425.981 385.565 464.381 347.77 464.381Z" fill="#FFC425" fill-rule="evenodd"/><path d="M385.565 425.981 423.36 425.981 423.36 464.381 385.565 464.381Z" fill="#FFC425" fill-rule="evenodd"/><path d="M423.36 425.981 461.156 425.981 461.156 464.381 423.36 464.381Z" fill="#FFC425" fill-rule="evenodd"/><path d="M461.156 425.981 498.951 425.981 498.951 464.381 461.156 464.381Z" fill="#E7E6E6" fill-rule="evenodd"/><path d="M498.951 425.981 536.746 425.981 536.746 464.381 498.951 464.381Z" fill="#E7E6E6" fill-rule="evenodd"/><path d="M536.746 425.981 574.541 425.981 574.541 464.381 536.746 464.381Z" fill="#E7E6E6" fill-rule="evenodd"/><path d="M574.541 425.981 612.337 425.981 612.337 464.381 574.541 464.381Z" fill="#E7E6E6" fill-rule="evenodd"/><path d="M309.974 464.381 347.77 464.381 347.77 502.781 309.974 502.781Z" fill="#E7E6E6" fill-rule="evenodd"/><path d="M347.77 464.381 385.565 464.381 385.565 502.781 347.77 502.781Z" fill="#E7E6E6" fill-rule="evenodd"/><path d="M385.565 464.381 423.36 464.381 423.36 502.781 385.565 502.781Z" fill="#E7E6E6" fill-rule="evenodd"/><path d="M423.36 464.381 461.156 464.381 461.156 502.781 423.36 502.781Z" fill="#E7E6E6" fill-rule="evenodd"/><path d="M461.156 464.381 498.951 464.381 498.951 502.781 461.156 502.781Z" fill="#E7E6E6" fill-rule="evenodd"/><path d="M498.951 464.381 536.746 464.381 536.746 502.781 498.951 502.781Z" fill="#E7E6E6" fill-rule="evenodd"/><path d="M536.746 464.381 574.541 464.381 574.541 502.781 536.746 502.781Z" fill="#E7E6E6" fill-rule="evenodd"/><path d="M574.541 464.381 612.337 464.381 612.337 502.781 574.541 502.781Z" fill="#E7E6E6" fill-rule="evenodd"/><path d="M309.974 502.781 347.77 502.781 347.77 541.181 309.974 541.181Z" fill="#E7E6E6" fill-rule="evenodd"/><path d="M347.77 502.781 385.565 502.781 385.565 541.181 347.77 541.181Z" fill="#E7E6E6" fill-rule="evenodd"/><path d="M385.565 502.781 423.36 502.781 423.36 541.181 385.565 541.181Z" fill="#E7E6E6" fill-rule="evenodd"/><path d="M423.36 502.781 461.156 502.781 461.156 541.181 423.36 541.181Z" fill="#E7E6E6" fill-rule="evenodd"/><path d="M461.156 502.781 498.951 502.781 498.951 541.181 461.156 541.181Z" fill="#E7E6E6" fill-rule="evenodd"/><path d="M498.951 502.781 536.746 502.781 536.746 541.181 498.951 541.181Z" fill="#E7E6E6" fill-rule="evenodd"/><path d="M536.746 502.781 574.541 502.781 574.541 541.181 536.746 541.181Z" fill="#E7E6E6" fill-rule="evenodd"/><path d="M574.541 502.781 612.337 502.781 612.337 541.181 574.541 541.181Z" fill="#E7E6E6" fill-rule="evenodd"/><path d="M309.974 541.181 347.77 541.181 347.77 579.581 309.974 579.581Z" fill="#E7E6E6" fill-rule="evenodd"/><path d="M347.77 541.181 385.565 541.181 385.565 579.581 347.77 579.581Z" fill="#E7E6E6" fill-rule="evenodd"/><path d="M385.565 541.181 423.36 541.181 423.36 579.581 385.565 579.581Z" fill="#E7E6E6" fill-rule="evenodd"/><path d="M423.36 541.181 461.156 541.181 461.156 579.581 423.36 579.581Z" fill="#E7E6E6" fill-rule="evenodd"/><path d="M461.156 541.181 498.951 541.181 498.951 579.581 461.156 579.581Z" fill="#E7E6E6" fill-rule="evenodd"/><path d="M498.951 541.181 536.746 541.181 536.746 579.581 498.951 579.581Z" fill="#E7E6E6" fill-rule="evenodd"/><path d="M536.746 541.181 574.541 541.181 574.541 579.581 536.746 579.581Z" fill="#E7E6E6" fill-rule="evenodd"/><path d="M574.541 541.181 612.337 541.181 612.337 579.581 574.541 579.581Z" fill="#E7E6E6" fill-rule="evenodd"/><path d="M309.974 579.581 347.77 579.581 347.77 617.981 309.974 617.981Z" fill="#E7E6E6" fill-rule="evenodd"/><path d="M347.77 579.581 385.565 579.581 385.565 617.981 347.77 617.981Z" fill="#E7E6E6" fill-rule="evenodd"/><path d="M385.565 579.581 423.36 579.581 423.36 617.981 385.565 617.981Z" fill="#E7E6E6" fill-rule="evenodd"/><path d="M423.36 579.581 461.156 579.581 461.156 617.981 423.36 617.981Z" fill="#E7E6E6" fill-rule="evenodd"/><path d="M461.156 579.581 498.951 579.581 498.951 617.981 461.156 617.981Z" fill="#E7E6E6" fill-rule="evenodd"/><path d="M498.951 579.581 536.746 579.581 536.746 617.981 498.951 617.981Z" fill="#E7E6E6" fill-rule="evenodd"/><path d="M536.746 579.581 574.541 579.581 574.541 617.981 536.746 617.981Z" fill="#E7E6E6" fill-rule="evenodd"/><path d="M574.541 579.581 612.337 579.581 612.337 617.981 574.541 617.981Z" fill="#E7E6E6" fill-rule="evenodd"/><path d="M347.77 232.481 347.77 619.481" stroke="#000000" stroke-width="3" stroke-linejoin="round" stroke-miterlimit="10" fill="none" fill-rule="evenodd"/><path d="M385.565 232.481 385.565 619.481" stroke="#000000" stroke-width="3" stroke-linejoin="round" stroke-miterlimit="10" fill="none" fill-rule="evenodd"/><path d="M423.36 232.481 423.36 619.481" stroke="#000000" stroke-width="3" stroke-linejoin="round" stroke-miterlimit="10" fill="none" fill-rule="evenodd"/><path d="M461.156 232.481 461.156 619.481" stroke="#000000" stroke-width="3" stroke-linejoin="round" stroke-miterlimit="10" fill="none" fill-rule="evenodd"/><path d="M498.951 232.481 498.951 619.481" stroke="#000000" stroke-width="3" stroke-linejoin="round" stroke-miterlimit="10" fill="none" fill-rule="evenodd"/><path d="M536.746 232.481 536.746 619.481" stroke="#000000" stroke-width="3" stroke-linejoin="round" stroke-miterlimit="10" fill="none" fill-rule="evenodd"/><path d="M574.541 232.481 574.541 619.481" stroke="#000000" stroke-width="3" stroke-linejoin="round" stroke-miterlimit="10" fill="none" fill-rule="evenodd"/><path d="M308.475 272.381 613.837 272.381" stroke="#000000" stroke-width="3" stroke-linejoin="round" stroke-miterlimit="10" fill="none" fill-rule="evenodd"/><path d="M308.475 310.781 613.837 310.781" stroke="#000000" stroke-width="3" stroke-linejoin="round" stroke-miterlimit="10" fill="none" fill-rule="evenodd"/><path d="M308.475 349.181 613.837 349.181" stroke="#000000" stroke-width="3" stroke-linejoin="round" stroke-miterlimit="10" fill="none" fill-rule="evenodd"/><path d="M308.475 387.581 613.837 387.581" stroke="#000000" stroke-width="3" stroke-linejoin="round" stroke-miterlimit="10" fill="none" fill-rule="evenodd"/><path d="M308.475 425.981 613.837 425.981" stroke="#000000" stroke-width="3" stroke-linejoin="round" stroke-miterlimit="10" fill="none" fill-rule="evenodd"/><path d="M308.475 464.381 613.837 464.381" stroke="#000000" stroke-width="3" stroke-linejoin="round" stroke-miterlimit="10" fill="none" fill-rule="evenodd"/><path d="M308.475 502.781 613.837 502.781" stroke="#000000" stroke-width="3" stroke-linejoin="round" stroke-miterlimit="10" fill="none" fill-rule="evenodd"/><path d="M308.475 541.181 613.837 541.181" stroke="#000000" stroke-width="3" stroke-linejoin="round" stroke-miterlimit="10" fill="none" fill-rule="evenodd"/><path d="M308.475 579.581 613.837 579.581" stroke="#000000" stroke-width="3" stroke-linejoin="round" stroke-miterlimit="10" fill="none" fill-rule="evenodd"/><path d="M309.974 232.481 309.974 619.481" stroke="#000000" stroke-width="3" stroke-linejoin="round" stroke-miterlimit="10" fill="none" fill-rule="evenodd"/><path d="M612.337 232.481 612.337 619.481" stroke="#000000" stroke-width="3" stroke-linejoin="round" stroke-miterlimit="10" fill="none" fill-rule="evenodd"/><path d="M308.475 233.981 613.837 233.981" stroke="#000000" stroke-width="3" stroke-linejoin="round" stroke-miterlimit="10" fill="none" fill-rule="evenodd"/><path d="M308.475 617.981 613.837 617.981" stroke="#000000" stroke-width="3" stroke-linejoin="round" stroke-miterlimit="10" fill="none" fill-rule="evenodd"/><g clip-path="url(#clip1)"><g clip-path="url(#clip2)"><g clip-path="url(#clip3)"><path d="M485.335 522.612C483.698 508.624 471.032 498.612 457.044 500.249 444.228 501.749 434.552 512.586 434.508 525.489L446.508 525.489C446.508 518.036 452.549 511.994 460.002 511.993 467.456 511.993 473.498 518.035 473.498 525.488 473.498 530.135 471.107 534.455 467.17 536.923 459.044 541.895 454.064 550.712 454 560.238L466 560.238C466.077 554.841 468.934 549.866 473.558 547.081 481.882 541.886 486.467 532.359 485.335 522.612Z" stroke="#E7E6E6"/><path d="M465.379 569.474 465.379 569.474C462.519 566.609 457.878 566.604 455.013 569.463 455.009 569.467 455.006 569.47 455.002 569.474 454.331 570.147 453.797 570.944 453.43 571.82 453.047 572.725 452.853 573.698 452.857 574.681 452.852 575.66 453.047 576.629 453.432 577.529 454.18 579.288 455.585 580.686 457.348 581.424 458.253 581.807 459.226 582.002 460.208 582 461.187 582.005 462.156 581.809 463.056 581.425 464.807 580.677 466.201 579.283 466.948 577.532 467.333 576.632 467.529 575.663 467.524 574.684 467.528 573.701 467.332 572.728 466.95 571.823 466.583 570.946 466.049 570.148 465.379 569.474Z" stroke="#E7E6E6"/></g></g></g></g></svg>