<svg width="618" height="416" xmlns="http://www.w3.org/2000/svg" xmlns:xlink="http://www.w3.org/1999/xlink" overflow="hidden"><defs><clipPath id="clip0"><rect x="610" y="173" width="618" height="416"/></clipPath></defs><g clip-path="url(#clip0)" transform="translate(-610 -173)"><rect x="768.5" y="224.5" width="151" height="151" stroke="#FFFFFF" stroke-width="1.33333" stroke-miterlimit="8" fill="#C00000"/><rect x="919.5" y="224.5" width="151" height="151" stroke="#FFFFFF" stroke-width="1.33333" stroke-miterlimit="8" fill="#4472C4"/><rect x="768.5" y="375.5" width="151" height="151" stroke="#FFFFFF" stroke-width="1.33333" stroke-miterlimit="8" fill="#70AD47"/><rect x="919.5" y="375.5" width="151" height="151" stroke="#FFFFFF" stroke-width="1.33333" stroke-miterlimit="8" fill="#FFC000"/><path d="M765.166 374.167 1073.09 374.167 1073.09 376.833 765.166 376.833ZM766.5 379.5 758.5 375.5 766.5 371.5ZM1071.76 371.5 1079.76 375.5 1071.76 379.5Z"/><path d="M920.833 222.166 920.833 530.093 918.167 530.093 918.167 222.166ZM915.5 223.5 919.5 215.5 923.5 223.5ZM923.5 528.76 919.5 536.76 915.5 528.76Z"/><text font-family="Roboto,Roboto_MSFontService,sans-serif" font-weight="400" font-size="21" transform="translate(868.388 200)">Autoritaire<tspan font-size="21" x="7.08331" y="370">Libertaire</tspan><tspan font-size="21" x="220.063" y="185">Individualiste</tspan><tspan font-size="21" x="-245.279" y="185">Collectiviste</tspan></text><path d="M817.5 459.5C817.5 456.186 819.963 453.5 823 453.5 826.038 453.5 828.5 456.186 828.5 459.5 828.5 462.814 826.038 465.5 823 465.5 819.963 465.5 817.5 462.814 817.5 459.5Z" stroke="#000000" stroke-width="1.33333" stroke-miterlimit="8" fill="#FF0000" fill-rule="evenodd"/></g></svg>