<svg version="1.1" viewBox="0.0 0.0 613.0 400.0" fill="none" stroke="none" stroke-linecap="square" stroke-miterlimit="10" width="613" height="400" xmlns:xlink="http://www.w3.org/1999/xlink" xmlns="http://www.w3.org/2000/svg"><path fill="#ffffff" d="M0 0L613.0 0L613.0 400.0L0 400.0L0 0Z" fill-rule="nonzero"/><path fill="#ea4335" d="M122.7757 321.32715C85.453766 274.52692 78.23796 210.48488 104.21013 156.55312C130.1823 102.621346 184.75136 68.333336 244.61111 68.333336L244.61111 224.16667Z" fill-rule="nonzero"/><path fill="#4285f4" d="M244.61111 68.333336C317.3157 68.333336 380.35907 118.60876 396.53738 189.4905C412.71567 260.37222 377.72922 333.0223 312.22467 364.56766C246.7201 396.11298 168.10628 378.1699 122.7757 321.32715L244.61111 224.16667Z" fill-rule="nonzero"/><path fill="#000000" d="M282.95374 266.98157L284.64124 266.82532Q284.86 268.01282 285.45374 268.5597Q286.0631 269.09094 287.01624 269.09094Q287.82874 269.09094 288.4381 268.73157Q289.0475 268.35657 289.4381 267.73157Q289.82874 267.10657 290.09436 266.0597Q290.36 264.9972 290.36 263.90344Q290.36 263.79407 290.34436 263.5597Q289.8131 264.38782 288.90686 264.91907Q288.0006 265.4347 286.9225 265.4347Q285.15686 265.4347 283.9225 264.15344Q282.6881 262.85657 282.6881 260.7472Q282.6881 258.57532 283.96936 257.2472Q285.26624 255.91907 287.1881 255.91907Q288.59436 255.91907 289.7506 256.66907Q290.90686 257.41907 291.5006 258.8097Q292.11 260.20032 292.11 262.84094Q292.11 265.59094 291.5006 267.21594Q290.90686 268.84094 289.735 269.70032Q288.5631 270.54407 286.985 270.54407Q285.2975 270.54407 284.235 269.60657Q283.1725 268.66907 282.95374 266.98157ZM290.15686 260.66907Q290.15686 259.15344 289.34436 258.26282Q288.5475 257.3722 287.40686 257.3722Q286.235 257.3722 285.36 258.34094Q284.5006 259.29407 284.5006 260.8097Q284.5006 262.1847 285.3131 263.04407Q286.14124 263.88782 287.36 263.88782Q288.57874 263.88782 289.36 263.04407Q290.15686 262.1847 290.15686 260.66907ZM303.53186 274.4972Q302.07874 272.66907 301.07874 270.21594Q300.07874 267.7472 300.07874 265.10657Q300.07874 262.77844 300.82874 260.65344Q301.70374 258.1847 303.53186 255.73157L304.7975 255.73157Q303.61 257.76282 303.235 258.63782Q302.64124 259.98157 302.2975 261.45032Q301.8756 263.27844 301.8756 265.1222Q301.8756 269.8097 304.7975 274.4972L303.53186 274.4972ZM315.8131 259.48157L314.0631 259.6222Q313.82874 258.59094 313.40686 258.1222Q312.6881 257.35657 311.64124 257.35657Q310.7975 257.35657 310.1725 257.82532Q309.34436 258.4347 308.86 259.60657Q308.3756 260.76282 308.36 262.90344Q309.0006 261.95032 309.90686 261.48157Q310.82874 261.01282 311.84436 261.01282Q313.59436 261.01282 314.82874 262.3097Q316.0631 263.59094 316.0631 265.63782Q316.0631 266.9972 315.485 268.15344Q314.90686 269.3097 313.89124 269.9347Q312.8756 270.54407 311.57874 270.54407Q309.39124 270.54407 308.0006 268.9347Q306.61 267.3097 306.61 263.59094Q306.61 259.45032 308.14124 257.5597Q309.485 255.91907 311.7506 255.91907Q313.4381 255.91907 314.51624 256.8722Q315.59436 257.8097 315.8131 259.48157ZM308.64124 265.65344Q308.64124 266.5597 309.01624 267.38782Q309.40686 268.21594 310.09436 268.65344Q310.7975 269.09094 311.5475 269.09094Q312.6725 269.09094 313.46936 268.20032Q314.26624 267.29407 314.26624 265.7472Q314.26624 264.26282 313.46936 263.41907Q312.6881 262.5597 311.485 262.5597Q310.2975 262.5597 309.46936 263.41907Q308.64124 264.26282 308.64124 265.65344ZM323.32874 270.29407L323.32874 266.8722L317.11 266.8722L317.11 265.2472L323.64124 255.98157L325.07874 255.98157L325.07874 265.2472L327.01624 265.2472L327.01624 266.8722L325.07874 266.8722L325.07874 270.29407L323.32874 270.29407ZM323.32874 265.2472L323.32874 258.79407L318.84436 265.2472L323.32874 265.2472ZM329.64124 270.29407L329.64124 268.29407L331.64124 268.29407L331.64124 270.29407Q331.64124 271.40344 331.2506 272.07532Q330.86 272.76282 330.01624 273.1222L329.51624 272.3722Q330.07874 272.13782 330.34436 271.65344Q330.61 271.1847 330.64124 270.29407L329.64124 270.29407ZM334.70374 266.51282L336.45374 266.27844Q336.76624 267.77844 337.485 268.4347Q338.21936 269.09094 339.26624 269.09094Q340.5006 269.09094 341.34436 268.23157Q342.20374 267.3722 342.20374 266.10657Q342.20374 264.88782 341.40686 264.10657Q340.6256 263.32532 339.40686 263.32532Q338.90686 263.32532 338.1725 263.51282L338.36 261.96594Q338.53186 261.9972 338.64124 261.9972Q339.76624 261.9972 340.65686 261.41907Q341.5631 260.82532 341.5631 259.60657Q341.5631 258.63782 340.90686 257.9972Q340.2506 257.35657 339.21936 257.35657Q338.20374 257.35657 337.51624 258.01282Q336.82874 258.65344 336.64124 259.9347L334.8756 259.6222Q335.20374 257.85657 336.34436 256.88782Q337.485 255.91907 339.1881 255.91907Q340.36 255.91907 341.34436 256.41907Q342.32874 256.91907 342.84436 257.79407Q343.3756 258.66907 343.3756 259.63782Q343.3756 260.5597 342.8756 261.32532Q342.3756 262.09094 341.40686 262.54407Q342.6725 262.82532 343.3756 263.76282Q344.07874 264.6847 344.07874 266.0597Q344.07874 267.9347 342.70374 269.2472Q341.34436 270.54407 339.2506 270.54407Q337.36 270.54407 336.11 269.41907Q334.8756 268.29407 334.70374 266.51282ZM346.01624 259.41907Q346.01624 257.88782 346.78186 256.8097Q347.5631 255.73157 349.03186 255.73157Q350.3756 255.73157 351.2506 256.70032Q352.14124 257.65344 352.14124 259.52844Q352.14124 261.34094 351.2506 262.32532Q350.36 263.29407 349.0475 263.29407Q347.7506 263.29407 346.8756 262.34094Q346.01624 261.3722 346.01624 259.41907ZM349.07874 256.95032Q348.4225 256.95032 347.985 257.51282Q347.5631 258.07532 347.5631 259.59094Q347.5631 260.96594 348.0006 261.52844Q348.4381 262.09094 349.07874 262.09094Q349.7506 262.09094 350.1725 261.52844Q350.61 260.95032 350.61 259.45032Q350.61 258.0597 350.1725 257.51282Q349.735 256.95032 349.07874 256.95032ZM349.09436 270.82532L356.9225 255.73157L358.34436 255.73157L350.5475 270.82532L349.09436 270.82532ZM355.28186 266.9347Q355.28186 265.38782 356.0475 264.32532Q356.82874 263.2472 358.2975 263.2472Q359.64124 263.2472 360.51624 264.21594Q361.40686 265.16907 361.40686 267.04407Q361.40686 268.85657 360.51624 269.84094Q359.6256 270.82532 358.3131 270.82532Q357.01624 270.82532 356.14124 269.85657Q355.28186 268.8722 355.28186 266.9347ZM358.34436 264.46594Q357.6881 264.46594 357.2506 265.02844Q356.8131 265.59094 356.8131 267.10657Q356.8131 268.48157 357.2506 269.04407Q357.6881 269.60657 358.34436 269.60657Q359.01624 269.60657 359.4381 269.04407Q359.8756 268.48157 359.8756 266.96594Q359.8756 265.59094 359.4381 265.02844Q359.0006 264.46594 358.34436 264.46594ZM365.32874 274.4972L364.07874 274.4972Q366.985 269.8097 366.985 265.1222Q366.985 263.27844 366.57874 261.48157Q366.235 260.01282 365.64124 258.66907Q365.26624 257.77844 364.07874 255.73157L365.32874 255.73157Q367.1725 258.1847 368.0475 260.65344Q368.7975 262.77844 368.7975 265.10657Q368.7975 267.7472 367.78186 270.21594Q366.78186 272.66907 365.32874 274.4972Z" fill-rule="nonzero"/><path fill="#000000" d="M120.19038 188.28928L122.03413 188.13303Q122.23725 189.47678 122.98725 190.16428Q123.73725 190.83615 124.79975 190.83615Q126.06538 190.83615 126.94038 189.88303Q127.81538 188.9299 127.81538 187.33615Q127.81538 185.83615 126.97163 184.97678Q126.12788 184.10178 124.7685 184.10178Q123.90913 184.10178 123.22163 184.4924Q122.54975 184.8674 122.15913 185.4924L120.50288 185.27365L121.8935 177.91428L129.0185 177.91428L129.0185 179.60178L123.29975 179.60178L122.53413 183.44553Q123.81538 182.53928 125.23725 182.53928Q127.11225 182.53928 128.3935 183.85178Q129.69037 185.14865 129.69037 187.1799Q129.69037 189.13303 128.54974 190.53928Q127.17475 192.28928 124.79975 192.28928Q122.84663 192.28928 121.59663 191.19553Q120.36225 190.10178 120.19038 188.28928ZM141.03412 196.2424Q139.581 194.41428 138.581 191.96115Q137.581 189.4924 137.581 186.85178Q137.581 184.52365 138.331 182.39865Q139.206 179.9299 141.03412 177.47678L142.29974 177.47678Q141.11224 179.50803 140.73724 180.38303Q140.1435 181.72678 139.79974 183.19553Q139.37787 185.02365 139.37787 186.8674Q139.37787 191.5549 142.29974 196.2424L141.03412 196.2424ZM144.206 188.25803L145.956 188.02365Q146.2685 189.52365 146.98724 190.1799Q147.72162 190.83615 148.7685 190.83615Q150.00287 190.83615 150.84662 189.97678Q151.706 189.1174 151.706 187.85178Q151.706 186.63303 150.90912 185.85178Q150.12787 185.07053 148.90912 185.07053Q148.40912 185.07053 147.67474 185.25803L147.86224 183.71115Q148.03412 183.7424 148.1435 183.7424Q149.2685 183.7424 150.15912 183.16428Q151.06537 182.57053 151.06537 181.35178Q151.06537 180.38303 150.40912 179.7424Q149.75287 179.10178 148.72162 179.10178Q147.706 179.10178 147.0185 179.75803Q146.331 180.39865 146.1435 181.6799L144.37787 181.3674Q144.706 179.60178 145.84662 178.63303Q146.98724 177.66428 148.69037 177.66428Q149.86224 177.66428 150.84662 178.16428Q151.831 178.66428 152.34662 179.53928Q152.87787 180.41428 152.87787 181.38303Q152.87787 182.3049 152.37787 183.07053Q151.87787 183.83615 150.90912 184.28928Q152.17474 184.57053 152.87787 185.50803Q153.581 186.4299 153.581 187.8049Q153.581 189.6799 152.206 190.9924Q150.84662 192.28928 148.75287 192.28928Q146.86224 192.28928 145.61224 191.16428Q144.37787 190.03928 144.206 188.25803ZM155.19037 188.28928L157.03412 188.13303Q157.23724 189.47678 157.98724 190.16428Q158.73724 190.83615 159.79974 190.83615Q161.06537 190.83615 161.94037 189.88303Q162.81537 188.9299 162.81537 187.33615Q162.81537 185.83615 161.97162 184.97678Q161.12787 184.10178 159.7685 184.10178Q158.90912 184.10178 158.22162 184.4924Q157.54974 184.8674 157.15912 185.4924L155.50287 185.27365L156.8935 177.91428L164.0185 177.91428L164.0185 179.60178L158.29974 179.60178L157.53412 183.44553Q158.81537 182.53928 160.23724 182.53928Q162.11224 182.53928 163.3935 183.85178Q164.69037 185.14865 164.69037 187.1799Q164.69037 189.13303 163.54974 190.53928Q162.17474 192.28928 159.79974 192.28928Q157.84662 192.28928 156.59662 191.19553Q155.36224 190.10178 155.19037 188.28928ZM167.1435 192.03928L167.1435 190.03928L169.1435 190.03928L169.1435 192.03928Q169.1435 193.14865 168.75287 193.82053Q168.36224 194.50803 167.5185 194.8674L167.0185 194.1174Q167.581 193.88303 167.84662 193.39865Q168.11224 192.9299 168.1435 192.03928L167.1435 192.03928ZM172.31537 179.60178L172.31537 177.91428L181.581 177.91428L181.581 179.27365Q180.206 180.72678 178.86224 183.14865Q177.5185 185.5549 176.79974 188.10178Q176.2685 189.89865 176.11224 192.03928L174.31537 192.03928Q174.34662 190.35178 174.97162 187.96115Q175.61224 185.57053 176.79974 183.35178Q177.98724 181.1174 179.31537 179.60178L172.31537 179.60178ZM183.5185 181.16428Q183.5185 179.63303 184.28412 178.5549Q185.06537 177.47678 186.53412 177.47678Q187.87787 177.47678 188.75287 178.44553Q189.6435 179.39865 189.6435 181.27365Q189.6435 183.08615 188.75287 184.07053Q187.86224 185.03928 186.54974 185.03928Q185.25287 185.03928 184.37787 184.08615Q183.5185 183.1174 183.5185 181.16428ZM186.581 178.69553Q185.92474 178.69553 185.48724 179.25803Q185.06537 179.82053 185.06537 181.33615Q185.06537 182.71115 185.50287 183.27365Q185.94037 183.83615 186.581 183.83615Q187.25287 183.83615 187.67474 183.27365Q188.11224 182.69553 188.11224 181.19553Q188.11224 179.8049 187.67474 179.25803Q187.23724 178.69553 186.581 178.69553ZM186.59662 192.57053L194.42474 177.47678L195.84662 177.47678L188.04974 192.57053L186.59662 192.57053ZM192.78412 188.6799Q192.78412 187.13303 193.54974 186.07053Q194.331 184.9924 195.79974 184.9924Q197.1435 184.9924 198.0185 185.96115Q198.90912 186.91428 198.90912 188.78928Q198.90912 190.60178 198.0185 191.58615Q197.12787 192.57053 195.81537 192.57053Q194.5185 192.57053 193.6435 191.60178Q192.78412 190.6174 192.78412 188.6799ZM195.84662 186.21115Q195.19037 186.21115 194.75287 186.77365Q194.31537 187.33615 194.31537 188.85178Q194.31537 190.22678 194.75287 190.78928Q195.19037 191.35178 195.84662 191.35178Q196.5185 191.35178 196.94037 190.78928Q197.37787 190.22678 197.37787 188.71115Q197.37787 187.33615 196.94037 186.77365Q196.50287 186.21115 195.84662 186.21115ZM202.831 196.2424L201.581 196.2424Q204.48724 191.5549 204.48724 186.8674Q204.48724 185.02365 204.081 183.22678Q203.73724 181.75803 203.1435 180.41428Q202.7685 179.52365 201.581 177.47678L202.831 177.47678Q204.67474 179.9299 205.54974 182.39865Q206.29974 184.52365 206.29974 186.85178Q206.29974 189.4924 205.28412 191.96115Q204.28412 194.41428 202.831 196.2424Z" fill-rule="nonzero"/><path fill="#4285f4" d="M502.0 82.333336C502.0 85.64704 499.31372 88.333336 496.0 88.333336C492.68628 88.333336 490.0 85.64704 490.0 82.333336C490.0 79.01962 492.68628 76.333336 496.0 76.333336C499.31372 76.333336 502.0 79.01962 502.0 82.333336Z" fill-rule="nonzero"/><path fill="#1a1a1a" d="M511.92188 90.333336L511.92188 73.145836L514.2031 73.145836L514.2031 80.208336L523.125 80.208336L523.125 73.145836L525.40625 73.145836L525.40625 90.333336L523.125 90.333336L523.125 82.239586L514.2031 82.239586L514.2031 90.333336L511.92188 90.333336ZM527.7969 84.114586Q527.7969 80.645836 529.71875 78.989586Q531.3281 77.59896 533.6406 77.59896Q536.2031 77.59896 537.8281 79.28646Q539.4531 80.97396 539.4531 83.927086Q539.4531 86.333336 538.7344 87.708336Q538.0156 89.083336 536.6406 89.84896Q535.2656 90.614586 533.6406 90.614586Q531.0156 90.614586 529.40625 88.94271Q527.7969 87.25521 527.7969 84.114586ZM529.96875 84.114586Q529.96875 86.50521 531.0 87.69271Q532.0469 88.88021 533.6406 88.88021Q535.2031 88.88021 536.25 87.69271Q537.2969 86.489586 537.2969 84.03646Q537.2969 81.72396 536.2344 80.53646Q535.1875 79.34896 533.6406 79.34896Q532.0469 79.34896 531.0 80.53646Q529.96875 81.72396 529.96875 84.114586ZM541.5781 90.333336L541.5781 77.88021L543.46875 77.88021L543.46875 79.63021Q544.0625 78.72396 545.03125 78.16146Q546.0 77.59896 547.25 77.59896Q548.625 77.59896 549.5 78.177086Q550.3906 78.75521 550.7656 79.78646Q552.2344 77.59896 554.6094 77.59896Q556.4531 77.59896 557.4531 78.63021Q558.4531 79.66146 558.4531 81.78646L558.4531 90.333336L556.34375 90.333336L556.34375 82.489586Q556.34375 81.22396 556.1406 80.677086Q555.9375 80.114586 555.3906 79.770836Q554.8594 79.427086 554.1406 79.427086Q552.8281 79.427086 551.9531 80.302086Q551.09375 81.177086 551.09375 83.09896L551.09375 90.333336L548.9844 90.333336L548.9844 82.239586Q548.9844 80.833336 548.46875 80.13021Q547.9531 79.427086 546.78125 79.427086Q545.8906 79.427086 545.125 79.895836Q544.375 80.364586 544.03125 81.270836Q543.6875 82.177086 543.6875 83.88021L543.6875 90.333336L541.5781 90.333336ZM561.5781 90.333336L561.5781 77.88021L563.46875 77.88021L563.46875 79.63021Q564.0625 78.72396 565.03125 78.16146Q566.0 77.59896 567.25 77.59896Q568.625 77.59896 569.5 78.177086Q570.3906 78.75521 570.7656 79.78646Q572.2344 77.59896 574.6094 77.59896Q576.4531 77.59896 577.4531 78.63021Q578.4531 79.66146 578.4531 81.78646L578.4531 90.333336L576.34375 90.333336L576.34375 82.489586Q576.34375 81.22396 576.1406 80.677086Q575.9375 80.114586 575.3906 79.770836Q574.8594 79.427086 574.1406 79.427086Q572.8281 79.427086 571.9531 80.302086Q571.09375 81.177086 571.09375 83.09896L571.09375 90.333336L568.9844 90.333336L568.9844 82.239586Q568.9844 80.833336 568.46875 80.13021Q567.9531 79.427086 566.78125 79.427086Q565.8906 79.427086 565.125 79.895836Q564.375 80.364586 564.03125 81.270836Q563.6875 82.177086 563.6875 83.88021L563.6875 90.333336L561.5781 90.333336ZM590.1094 86.31771L592.28125 86.59896Q591.7656 88.50521 590.375 89.56771Q588.9844 90.614586 586.8125 90.614586Q584.0781 90.614586 582.46875 88.94271Q580.875 87.25521 580.875 84.208336Q580.875 81.06771 582.4844 79.333336Q584.1094 77.59896 586.6875 77.59896Q589.1875 77.59896 590.7656 79.302086Q592.3594 81.00521 592.3594 84.083336Q592.3594 84.270836 592.34375 84.645836L583.0625 84.645836Q583.1719 86.69271 584.21875 87.78646Q585.2656 88.88021 586.8281 88.88021Q587.9844 88.88021 588.7969 88.270836Q589.625 87.66146 590.1094 86.31771ZM583.1719 82.91146L590.125 82.91146Q589.9844 81.34896 589.3281 80.552086Q588.3281 79.333336 586.71875 79.333336Q585.2656 79.333336 584.2656 80.31771Q583.28125 81.28646 583.1719 82.91146Z" fill-rule="nonzero"/><path fill="#ea4335" d="M502.0 120.333336C502.0 123.64704 499.31372 126.333336 496.0 126.333336C492.68628 126.333336 490.0 123.64704 490.0 120.333336C490.0 117.01962 492.68628 114.333336 496.0 114.333336C499.31372 114.333336 502.0 117.01962 502.0 120.333336Z" fill-rule="nonzero"/><path fill="#1a1a1a" d="M511.96875 128.33333L511.96875 111.14583L523.5625 111.14583L523.5625 113.17708L514.25 113.17708L514.25 118.5052L522.3125 118.5052L522.3125 120.52083L514.25 120.52083L514.25 128.33333L511.96875 128.33333ZM535.1094 124.3177L537.28125 124.59895Q536.7656 126.5052 535.375 127.5677Q533.9844 128.61458 531.8125 128.61458Q529.0781 128.61458 527.46875 126.9427Q525.875 125.2552 525.875 122.20833Q525.875 119.0677 527.4844 117.33333Q529.1094 115.59895 531.6875 115.59895Q534.1875 115.59895 535.7656 117.30208Q537.3594 119.0052 537.3594 122.08333Q537.3594 122.27083 537.34375 122.64583L528.0625 122.64583Q528.1719 124.6927 529.21875 125.78645Q530.2656 126.8802 531.8281 126.8802Q532.9844 126.8802 533.7969 126.27083Q534.625 125.66145 535.1094 124.3177ZM528.1719 120.91145L535.125 120.91145Q534.9844 119.34895 534.3281 118.55208Q533.3281 117.33333 531.71875 117.33333Q530.2656 117.33333 529.2656 118.3177Q528.28125 119.28645 528.1719 120.91145ZM539.5781 128.33333L539.5781 115.8802L541.46875 115.8802L541.46875 117.6302Q542.0625 116.72395 543.03125 116.16145Q544.0 115.59895 545.25 115.59895Q546.625 115.59895 547.5 116.17708Q548.3906 116.7552 548.7656 117.78645Q550.2344 115.59895 552.6094 115.59895Q554.4531 115.59895 555.4531 116.6302Q556.4531 117.66145 556.4531 119.78645L556.4531 128.33333L554.34375 128.33333L554.34375 120.48958Q554.34375 119.22395 554.1406 118.67708Q553.9375 118.11458 553.3906 117.77083Q552.8594 117.42708 552.1406 117.42708Q550.8281 117.42708 549.9531 118.30208Q549.09375 119.17708 549.09375 121.09895L549.09375 128.33333L546.9844 128.33333L546.9844 120.23958Q546.9844 118.83333 546.46875 118.1302Q545.9531 117.42708 544.78125 117.42708Q543.8906 117.42708 543.125 117.89583Q542.375 118.36458 542.03125 119.27083Q541.6875 120.17708 541.6875 121.8802L541.6875 128.33333L539.5781 128.33333ZM559.5781 128.33333L559.5781 115.8802L561.46875 115.8802L561.46875 117.6302Q562.0625 116.72395 563.03125 116.16145Q564.0 115.59895 565.25 115.59895Q566.625 115.59895 567.5 116.17708Q568.3906 116.7552 568.7656 117.78645Q570.2344 115.59895 572.6094 115.59895Q574.4531 115.59895 575.4531 116.6302Q576.4531 117.66145 576.4531 119.78645L576.4531 128.33333L574.34375 128.33333L574.34375 120.48958Q574.34375 119.22395 574.1406 118.67708Q573.9375 118.11458 573.3906 117.77083Q572.8594 117.42708 572.1406 117.42708Q570.8281 117.42708 569.9531 118.30208Q569.09375 119.17708 569.09375 121.09895L569.09375 128.33333L566.9844 128.33333L566.9844 120.23958Q566.9844 118.83333 566.46875 118.1302Q565.9531 117.42708 564.78125 117.42708Q563.8906 117.42708 563.125 117.89583Q562.375 118.36458 562.03125 119.27083Q561.6875 120.17708 561.6875 121.8802L561.6875 128.33333L559.5781 128.33333ZM588.1094 124.3177L590.28125 124.59895Q589.7656 126.5052 588.375 127.5677Q586.9844 128.61458 584.8125 128.61458Q582.0781 128.61458 580.46875 126.9427Q578.875 125.2552 578.875 122.20833Q578.875 119.0677 580.4844 117.33333Q582.1094 115.59895 584.6875 115.59895Q587.1875 115.59895 588.7656 117.30208Q590.3594 119.0052 590.3594 122.08333Q590.3594 122.27083 590.34375 122.64583L581.0625 122.64583Q581.1719 124.6927 582.21875 125.78645Q583.2656 126.8802 584.8281 126.8802Q585.9844 126.8802 586.7969 126.27083Q587.625 125.66145 588.1094 124.3177ZM581.1719 120.91145L588.125 120.91145Q587.9844 119.34895 587.3281 118.55208Q586.3281 117.33333 584.71875 117.33333Q583.2656 117.33333 582.2656 118.3177Q581.28125 119.28645 581.1719 120.91145Z" fill-rule="nonzero"/><path fill="#434343" d="M115.859375 48.0L115.859375 26.53125L125.375 26.53125Q128.25 26.53125 129.73438 27.109375Q131.23438 27.6875 132.125 29.15625Q133.03125 30.609375 133.03125 32.390625Q133.03125 34.671875 131.54688 36.234375Q130.0625 37.796875 126.984375 38.234375Q128.10938 38.765625 128.6875 39.296875Q129.9375 40.4375 131.04688 42.15625L134.78125 48.0L131.20312 48.0L128.375 43.53125Q127.125 41.59375 126.3125 40.578125Q125.515625 39.546875 124.875 39.140625Q124.234375 38.734375 123.578125 38.5625Q123.09375 38.46875 122.0 38.46875L118.703125 38.46875L118.703125 48.0L115.859375 48.0ZM118.703125 36.0L124.8125 36.0Q126.75 36.0 127.84375 35.609375Q128.95312 35.203125 129.51562 34.3125Q130.09375 33.421875 130.09375 32.390625Q130.09375 30.859375 128.98438 29.875Q127.890625 28.890625 125.5 28.890625L118.703125 28.890625L118.703125 36.0ZM148.125 42.984375L150.85938 43.328125Q150.20312 45.71875 148.45312 47.046875Q146.71875 48.359375 144.01562 48.359375Q140.59375 48.359375 138.59375 46.25Q136.59375 44.140625 136.59375 40.359375Q136.59375 36.421875 138.60938 34.265625Q140.64062 32.09375 143.85938 32.09375Q146.98438 32.09375 148.95312 34.21875Q150.9375 36.34375 150.9375 40.1875Q150.9375 40.421875 150.92188 40.890625L139.32812 40.890625Q139.46875 43.453125 140.76562 44.828125Q142.07812 46.1875 144.03125 46.1875Q145.46875 46.1875 146.5 45.421875Q147.53125 44.65625 148.125 42.984375ZM139.46875 38.734375L148.15625 38.734375Q147.98438 36.765625 147.15625 35.78125Q145.90625 34.265625 143.89062 34.265625Q142.07812 34.265625 140.84375 35.484375Q139.60938 36.6875 139.46875 38.734375ZM142.75 30.515625L144.70312 26.40625L148.15625 26.40625L144.9375 30.515625L142.75 30.515625ZM154.48438 53.96875L154.48438 32.4375L156.875 32.4375L156.875 34.46875Q157.73438 33.28125 158.79688 32.6875Q159.875 32.09375 161.39062 32.09375Q163.39062 32.09375 164.90625 33.125Q166.4375 34.140625 167.20312 36.015625Q167.98438 37.875 167.98438 40.109375Q167.98438 42.484375 167.125 44.40625Q166.26562 46.3125 164.625 47.34375Q163.0 48.359375 161.20312 48.359375Q159.89062 48.359375 158.82812 47.796875Q157.78125 47.234375 157.10938 46.390625L157.10938 53.96875L154.48438 53.96875ZM156.85938 40.3125Q156.85938 43.3125 158.07812 44.75Q159.29688 46.1875 161.03125 46.1875Q162.78125 46.1875 164.03125 44.703125Q165.28125 43.203125 165.28125 40.09375Q165.28125 37.109375 164.0625 35.640625Q162.84375 34.15625 161.14062 34.15625Q159.45312 34.15625 158.15625 35.734375Q156.85938 37.3125 156.85938 40.3125ZM181.625 46.078125Q180.17188 47.328125 178.8125 47.84375Q177.45312 48.359375 175.90625 48.359375Q173.34375 48.359375 171.95312 47.109375Q170.57812 45.84375 170.57812 43.890625Q170.57812 42.75 171.09375 41.8125Q171.625 40.859375 172.46875 40.296875Q173.3125 39.71875 174.35938 39.4375Q175.14062 39.21875 176.70312 39.03125Q179.90625 38.65625 181.40625 38.125Q181.42188 37.578125 181.42188 37.4375Q181.42188 35.828125 180.67188 35.171875Q179.67188 34.28125 177.67188 34.28125Q175.8125 34.28125 174.92188 34.9375Q174.04688 35.578125 173.60938 37.234375L171.03125 36.875Q171.39062 35.21875 172.1875 34.203125Q173.0 33.1875 174.51562 32.640625Q176.04688 32.09375 178.0625 32.09375Q180.04688 32.09375 181.28125 32.5625Q182.53125 33.03125 183.10938 33.75Q183.70312 34.453125 183.9375 35.53125Q184.07812 36.203125 184.07812 37.96875L184.07812 41.484375Q184.07812 45.15625 184.23438 46.140625Q184.40625 47.109375 184.90625 48.0L182.15625 48.0Q181.75 47.171875 181.625 46.078125ZM181.40625 40.1875Q179.96875 40.78125 177.10938 41.1875Q175.48438 41.421875 174.79688 41.71875Q174.125 42.015625 173.75 42.578125Q173.39062 43.140625 173.39062 43.828125Q173.39062 44.875 174.1875 45.578125Q175.0 46.28125 176.53125 46.28125Q178.0625 46.28125 179.23438 45.625Q180.42188 44.953125 180.98438 43.796875Q181.40625 42.90625 181.40625 41.15625L181.40625 40.1875ZM188.45312 48.0L188.45312 32.4375L190.82812 32.4375L190.82812 34.796875Q191.73438 33.140625 192.5 32.625Q193.26562 32.09375 194.1875 32.09375Q195.53125 32.09375 196.90625 32.9375L196.0 35.390625Q195.03125 34.8125 194.0625 34.8125Q193.1875 34.8125 192.5 35.34375Q191.8125 35.859375 191.53125 36.78125Q191.07812 38.1875 191.07812 39.859375L191.07812 48.0L188.45312 48.0ZM204.23438 45.640625L204.60938 47.96875Q203.5 48.203125 202.625 48.203125Q201.1875 48.203125 200.39062 47.75Q199.60938 47.296875 199.28125 46.5625Q198.96875 45.8125 198.96875 43.4375L198.96875 34.5L197.03125 34.5L197.03125 32.4375L198.96875 32.4375L198.96875 28.59375L201.57812 27.015625L201.57812 32.4375L204.23438 32.4375L204.23438 34.5L201.57812 34.5L201.57812 43.59375Q201.57812 44.71875 201.71875 45.046875Q201.85938 45.359375 202.17188 45.5625Q202.48438 45.75 203.07812 45.75Q203.51562 45.75 204.23438 45.640625ZM206.5 29.5625L206.5 26.53125L209.125 26.53125L209.125 29.5625L206.5 29.5625ZM206.5 48.0L206.5 32.4375L209.125 32.4375L209.125 48.0L206.5 48.0ZM219.23438 45.640625L219.60938 47.96875Q218.5 48.203125 217.625 48.203125Q216.1875 48.203125 215.39062 47.75Q214.60938 47.296875 214.28125 46.5625Q213.96875 45.8125 213.96875 43.4375L213.96875 34.5L212.03125 34.5L212.03125 32.4375L213.96875 32.4375L213.96875 28.59375L216.57812 27.015625L216.57812 32.4375L219.23438 32.4375L219.23438 34.5L216.57812 34.5L216.57812 43.59375Q216.57812 44.71875 216.71875 45.046875Q216.85938 45.359375 217.17188 45.5625Q217.48438 45.75 218.07812 45.75Q218.51562 45.75 219.23438 45.640625ZM221.5 29.5625L221.5 26.53125L224.125 26.53125L224.125 29.5625L221.5 29.5625ZM221.5 48.0L221.5 32.4375L224.125 32.4375L224.125 48.0L221.5 48.0ZM227.5 40.21875Q227.5 35.90625 229.90625 33.8125Q231.90625 32.09375 234.79688 32.09375Q238.0 32.09375 240.03125 34.203125Q242.07812 36.296875 242.07812 40.0Q242.07812 43.0 241.17188 44.734375Q240.26562 46.453125 238.54688 47.40625Q236.82812 48.359375 234.79688 48.359375Q231.53125 48.359375 229.51562 46.265625Q227.5 44.15625 227.5 40.21875ZM230.20312 40.21875Q230.20312 43.203125 231.5 44.703125Q232.8125 46.1875 234.79688 46.1875Q236.75 46.1875 238.04688 44.6875Q239.35938 43.1875 239.35938 40.140625Q239.35938 37.25 238.04688 35.765625Q236.73438 34.28125 234.79688 34.28125Q232.8125 34.28125 231.5 35.765625Q230.20312 37.234375 230.20312 40.21875ZM245.48438 48.0L245.48438 32.4375L247.84375 32.4375L247.84375 34.65625Q249.5625 32.09375 252.79688 32.09375Q254.20312 32.09375 255.375 32.609375Q256.5625 33.109375 257.14062 33.9375Q257.73438 34.75 257.96875 35.875Q258.125 36.609375 258.125 38.4375L258.125 48.0L255.48438 48.0L255.48438 38.53125Q255.48438 36.921875 255.17188 36.125Q254.875 35.328125 254.07812 34.859375Q253.29688 34.375 252.25 34.375Q250.5625 34.375 249.32812 35.453125Q248.10938 36.515625 248.10938 39.5L248.10938 48.0L245.48438 48.0ZM270.48438 48.0L270.48438 26.53125L273.10938 26.53125L273.10938 34.234375Q274.95312 32.09375 277.76562 32.09375Q279.5 32.09375 280.76562 32.78125Q282.04688 33.453125 282.59375 34.65625Q283.15625 35.859375 283.15625 38.140625L283.15625 48.0L280.51562 48.0L280.51562 38.140625Q280.51562 36.15625 279.65625 35.265625Q278.79688 34.359375 277.23438 34.359375Q276.0625 34.359375 275.03125 34.96875Q274.0 35.578125 273.54688 36.625Q273.10938 37.65625 273.10938 39.484375L273.10938 48.0L270.48438 48.0ZM286.5 40.21875Q286.5 35.90625 288.90625 33.8125Q290.90625 32.09375 293.79688 32.09375Q297.0 32.09375 299.03125 34.203125Q301.07812 36.296875 301.07812 40.0Q301.07812 43.0 300.17188 44.734375Q299.26562 46.453125 297.54688 47.40625Q295.82812 48.359375 293.79688 48.359375Q290.53125 48.359375 288.51562 46.265625Q286.5 44.15625 286.5 40.21875ZM289.20312 40.21875Q289.20312 43.203125 290.5 44.703125Q291.8125 46.1875 293.79688 46.1875Q295.75 46.1875 297.04688 44.6875Q298.35938 43.1875 298.35938 40.140625Q298.35938 37.25 297.04688 35.765625Q295.73438 34.28125 293.79688 34.28125Q291.8125 34.28125 290.5 35.765625Q289.20312 37.234375 289.20312 40.21875ZM304.48438 48.0L304.48438 32.4375L306.84375 32.4375L306.84375 34.625Q307.5625 33.484375 308.78125 32.796875Q310.0 32.09375 311.54688 32.09375Q313.28125 32.09375 314.39062 32.8125Q315.5 33.53125 315.95312 34.8125Q317.79688 32.09375 320.75 32.09375Q323.0625 32.09375 324.3125 33.375Q325.5625 34.65625 325.5625 37.328125L325.5625 48.0L322.9375 48.0L322.9375 38.203125Q322.9375 36.625 322.67188 35.921875Q322.42188 35.21875 321.75 34.796875Q321.07812 34.375 320.17188 34.375Q318.53125 34.375 317.4375 35.46875Q316.35938 36.5625 316.35938 38.96875L316.35938 48.0L313.71875 48.0L313.71875 37.890625Q313.71875 36.140625 313.07812 35.265625Q312.4375 34.375 310.96875 34.375Q309.85938 34.375 308.90625 34.96875Q307.96875 35.546875 307.53125 36.671875Q307.10938 37.796875 307.10938 39.921875L307.10938 48.0L304.48438 48.0ZM329.48438 48.0L329.48438 32.4375L331.84375 32.4375L331.84375 34.625Q332.5625 33.484375 333.78125 32.796875Q335.0 32.09375 336.54688 32.09375Q338.28125 32.09375 339.39062 32.8125Q340.5 33.53125 340.95312 34.8125Q342.79688 32.09375 345.75 32.09375Q348.0625 32.09375 349.3125 33.375Q350.5625 34.65625 350.5625 37.328125L350.5625 48.0L347.9375 48.0L347.9375 38.203125Q347.9375 36.625 347.67188 35.921875Q347.42188 35.21875 346.75 34.796875Q346.07812 34.375 345.17188 34.375Q343.53125 34.375 342.4375 35.46875Q341.35938 36.5625 341.35938 38.96875L341.35938 48.0L338.71875 48.0L338.71875 37.890625Q338.71875 36.140625 338.07812 35.265625Q337.4375 34.375 335.96875 34.375Q334.85938 34.375 333.90625 34.96875Q332.96875 35.546875 332.53125 36.671875Q332.10938 37.796875 332.10938 39.921875L332.10938 48.0L329.48438 48.0ZM365.125 42.984375L367.85938 43.328125Q367.20312 45.71875 365.45312 47.046875Q363.71875 48.359375 361.01562 48.359375Q357.59375 48.359375 355.59375 46.25Q353.59375 44.140625 353.59375 40.359375Q353.59375 36.421875 355.60938 34.265625Q357.64062 32.09375 360.85938 32.09375Q363.98438 32.09375 365.95312 34.21875Q367.9375 36.34375 367.9375 40.1875Q367.9375 40.421875 367.92188 40.890625L356.32812 40.890625Q356.46875 43.453125 357.76562 44.828125Q359.07812 46.1875 361.03125 46.1875Q362.46875 46.1875 363.5 45.421875Q364.53125 44.65625 365.125 42.984375ZM356.46875 38.734375L365.15625 38.734375Q364.98438 36.765625 364.15625 35.78125Q362.90625 34.265625 360.89062 34.265625Q359.07812 34.265625 357.84375 35.484375Q356.60938 36.6875 356.46875 38.734375ZM370.42188 43.359375L373.03125 42.953125Q373.25 44.515625 374.25 45.359375Q375.25 46.1875 377.0625 46.1875Q378.875 46.1875 379.75 45.453125Q380.64062 44.703125 380.64062 43.703125Q380.64062 42.8125 379.85938 42.296875Q379.3125 41.953125 377.15625 41.40625Q374.26562 40.671875 373.14062 40.140625Q372.01562 39.609375 371.4375 38.671875Q370.85938 37.71875 370.85938 36.578125Q370.85938 35.53125 371.32812 34.65625Q371.8125 33.765625 372.64062 33.171875Q373.25 32.71875 374.3125 32.40625Q375.375 32.09375 376.59375 32.09375Q378.42188 32.09375 379.79688 32.625Q381.1875 33.140625 381.84375 34.046875Q382.51562 34.953125 382.75 36.453125L380.17188 36.8125Q380.0 35.609375 379.15625 34.9375Q378.3125 34.265625 376.78125 34.265625Q374.96875 34.265625 374.1875 34.859375Q373.40625 35.453125 373.40625 36.265625Q373.40625 36.78125 373.73438 37.1875Q374.0625 37.609375 374.75 37.890625Q375.14062 38.03125 377.07812 38.5625Q379.875 39.3125 380.96875 39.796875Q382.07812 40.265625 382.70312 41.171875Q383.34375 42.078125 383.34375 43.421875Q383.34375 44.75 382.57812 45.921875Q381.8125 47.078125 380.35938 47.71875Q378.90625 48.359375 377.07812 48.359375Q374.04688 48.359375 372.45312 47.09375Q370.85938 45.828125 370.42188 43.359375ZM384.5 48.359375L390.71875 26.15625L392.82812 26.15625L386.625 48.359375L384.5 48.359375ZM395.10938 48.0L395.10938 34.5L392.78125 34.5L392.78125 32.4375L395.10938 32.4375L395.10938 30.78125Q395.10938 29.21875 395.39062 28.453125Q395.76562 27.4375 396.71875 26.796875Q397.6875 26.15625 399.42188 26.15625Q400.53125 26.15625 401.875 26.421875L401.48438 28.71875Q400.65625 28.578125 399.92188 28.578125Q398.71875 28.578125 398.21875 29.09375Q397.73438 29.59375 397.73438 31.0L397.73438 32.4375L400.76562 32.4375L400.76562 34.5L397.73438 34.5L397.73438 48.0L395.10938 48.0ZM413.125 42.984375L415.85938 43.328125Q415.20312 45.71875 413.45312 47.046875Q411.71875 48.359375 409.01562 48.359375Q405.59375 48.359375 403.59375 46.25Q401.59375 44.140625 401.59375 40.359375Q401.59375 36.421875 403.60938 34.265625Q405.64062 32.09375 408.85938 32.09375Q411.98438 32.09375 413.95312 34.21875Q415.9375 36.34375 415.9375 40.1875Q415.9375 40.421875 415.92188 40.890625L404.32812 40.890625Q404.46875 43.453125 405.76562 44.828125Q407.07812 46.1875 409.03125 46.1875Q410.46875 46.1875 411.5 45.421875Q412.53125 44.65625 413.125 42.984375ZM404.46875 38.734375L413.15625 38.734375Q412.98438 36.765625 412.15625 35.78125Q410.90625 34.265625 408.89062 34.265625Q407.07812 34.265625 405.84375 35.484375Q404.60938 36.6875 404.46875 38.734375ZM419.48438 48.0L419.48438 32.4375L421.84375 32.4375L421.84375 34.625Q422.5625 33.484375 423.78125 32.796875Q425.0 32.09375 426.54688 32.09375Q428.28125 32.09375 429.39062 32.8125Q430.5 33.53125 430.95312 34.8125Q432.79688 32.09375 435.75 32.09375Q438.0625 32.09375 439.3125 33.375Q440.5625 34.65625 440.5625 37.328125L440.5625 48.0L437.9375 48.0L437.9375 38.203125Q437.9375 36.625 437.67188 35.921875Q437.42188 35.21875 436.75 34.796875Q436.07812 34.375 435.17188 34.375Q433.53125 34.375 432.4375 35.46875Q431.35938 36.5625 431.35938 38.96875L431.35938 48.0L428.71875 48.0L428.71875 37.890625Q428.71875 36.140625 428.07812 35.265625Q427.4375 34.375 425.96875 34.375Q424.85938 34.375 423.90625 34.96875Q422.96875 35.546875 422.53125 36.671875Q422.10938 37.796875 422.10938 39.921875L422.10938 48.0L419.48438 48.0ZM444.48438 48.0L444.48438 32.4375L446.84375 32.4375L446.84375 34.625Q447.5625 33.484375 448.78125 32.796875Q450.0 32.09375 451.54688 32.09375Q453.28125 32.09375 454.39062 32.8125Q455.5 33.53125 455.95312 34.8125Q457.79688 32.09375 460.75 32.09375Q463.0625 32.09375 464.3125 33.375Q465.5625 34.65625 465.5625 37.328125L465.5625 48.0L462.9375 48.0L462.9375 38.203125Q462.9375 36.625 462.67188 35.921875Q462.42188 35.21875 461.75 34.796875Q461.07812 34.375 460.17188 34.375Q458.53125 34.375 457.4375 35.46875Q456.35938 36.5625 456.35938 38.96875L456.35938 48.0L453.71875 48.0L453.71875 37.890625Q453.71875 36.140625 453.07812 35.265625Q452.4375 34.375 450.96875 34.375Q449.85938 34.375 448.90625 34.96875Q447.96875 35.546875 447.53125 36.671875Q447.10938 37.796875 447.10938 39.921875L447.10938 48.0L444.48438 48.0ZM480.125 42.984375L482.85938 43.328125Q482.20312 45.71875 480.45312 47.046875Q478.71875 48.359375 476.01562 48.359375Q472.59375 48.359375 470.59375 46.25Q468.59375 44.140625 468.59375 40.359375Q468.59375 36.421875 470.60938 34.265625Q472.64062 32.09375 475.85938 32.09375Q478.98438 32.09375 480.95312 34.21875Q482.9375 36.34375 482.9375 40.1875Q482.9375 40.421875 482.92188 40.890625L471.32812 40.890625Q471.46875 43.453125 472.76562 44.828125Q474.07812 46.1875 476.03125 46.1875Q477.46875 46.1875 478.5 45.421875Q479.53125 44.65625 480.125 42.984375ZM471.46875 38.734375L480.15625 38.734375Q479.98438 36.765625 479.15625 35.78125Q477.90625 34.265625 475.89062 34.265625Q474.07812 34.265625 472.84375 35.484375Q471.60938 36.6875 471.46875 38.734375ZM485.42188 43.359375L488.03125 42.953125Q488.25 44.515625 489.25 45.359375Q490.25 46.1875 492.0625 46.1875Q493.875 46.1875 494.75 45.453125Q495.64062 44.703125 495.64062 43.703125Q495.64062 42.8125 494.85938 42.296875Q494.3125 41.953125 492.15625 41.40625Q489.26562 40.671875 488.14062 40.140625Q487.01562 39.609375 486.4375 38.671875Q485.85938 37.71875 485.85938 36.578125Q485.85938 35.53125 486.32812 34.65625Q486.8125 33.765625 487.64062 33.171875Q488.25 32.71875 489.3125 32.40625Q490.375 32.09375 491.59375 32.09375Q493.42188 32.09375 494.79688 32.625Q496.1875 33.140625 496.84375 34.046875Q497.51562 34.953125 497.75 36.453125L495.17188 36.8125Q495.0 35.609375 494.15625 34.9375Q493.3125 34.265625 491.78125 34.265625Q489.96875 34.265625 489.1875 34.859375Q488.40625 35.453125 488.40625 36.265625Q488.40625 36.78125 488.73438 37.1875Q489.0625 37.609375 489.75 37.890625Q490.14062 38.03125 492.07812 38.5625Q494.875 39.3125 495.96875 39.796875Q497.07812 40.265625 497.70312 41.171875Q498.34375 42.078125 498.34375 43.421875Q498.34375 44.75 497.57812 45.921875Q496.8125 47.078125 495.35938 47.71875Q493.90625 48.359375 492.07812 48.359375Q489.04688 48.359375 487.45312 47.09375Q485.85938 45.828125 485.42188 43.359375Z" fill-rule="nonzero"/></svg>