<svg version="1.1" viewBox="0.0 0.0 665.0 400.0" fill="none" stroke="none" stroke-linecap="square" stroke-miterlimit="10" width="665" height="400" xmlns:xlink="http://www.w3.org/1999/xlink" xmlns="http://www.w3.org/2000/svg"><path fill="#ffffff" d="M0 0L665.0 0L665.0 400.0L0 400.0L0 0Z" fill-rule="nonzero"/><path fill="#4285f4" d="M332.5 20.0C387.55817 20.0 437.75003 51.53764 461.6389 101.14333C485.5277 150.74902 478.89072 209.654 444.5625 252.70021L332.5 163.33333Z" fill-rule="nonzero"/><path fill="#ea4335" d="M444.5625 252.70021C402.86807 304.98337 330.56018 321.48718 270.31 292.4722C210.0598 263.45724 177.87976 196.6347 192.76033 131.43866C207.6409 66.24263 265.62732 20.0 332.5 20.0L332.5 163.33333Z" fill-rule="nonzero"/><path fill="#000000" d="M360.8132 132.15793L362.65695 132.00168Q362.86008 133.34543 363.61008 134.03293Q364.36008 134.7048 365.42258 134.7048Q366.6882 134.7048 367.5632 133.75168Q368.4382 132.79855 368.4382 131.2048Q368.4382 129.7048 367.59445 128.84543Q366.7507 127.97043 365.39133 127.97043Q364.53195 127.97043 363.84445 128.36105Q363.17258 128.73605 362.78195 129.36105L361.1257 129.1423L362.51633 121.78293L369.64133 121.78293L369.64133 123.47043L363.92258 123.47043L363.15695 127.31418Q364.4382 126.40793 365.86008 126.40793Q367.73508 126.40793 369.01633 127.72043Q370.3132 129.0173 370.3132 131.04855Q370.3132 133.00168 369.17258 134.40793Q367.79758 136.15793 365.42258 136.15793Q363.46945 136.15793 362.21945 135.06418Q360.98508 133.97043 360.8132 132.15793ZM381.65695 140.11105Q380.20383 138.28293 379.20383 135.8298Q378.20383 133.36105 378.20383 130.72043Q378.20383 128.3923 378.95383 126.2673Q379.82883 123.79855 381.65695 121.34543L382.92258 121.34543Q381.73508 123.37668 381.36008 124.25168Q380.76633 125.59543 380.42258 127.06418Q380.0007 128.8923 380.0007 130.73605Q380.0007 135.42355 382.92258 140.11105L381.65695 140.11105ZM384.82883 132.12668L386.57883 131.8923Q386.89133 133.3923 387.61008 134.04855Q388.34445 134.7048 389.39133 134.7048Q390.6257 134.7048 391.46945 133.84543Q392.32883 132.98605 392.32883 131.72043Q392.32883 130.50168 391.53195 129.72043Q390.7507 128.93918 389.53195 128.93918Q389.03195 128.93918 388.29758 129.12668L388.48508 127.5798Q388.65695 127.61105 388.76633 127.61105Q389.89133 127.61105 390.78195 127.03293Q391.6882 126.43918 391.6882 125.22043Q391.6882 124.25168 391.03195 123.61105Q390.3757 122.97043 389.34445 122.97043Q388.32883 122.97043 387.64133 123.62668Q386.95383 124.2673 386.76633 125.54855L385.0007 125.23605Q385.32883 123.47043 386.46945 122.50168Q387.61008 121.53293 389.3132 121.53293Q390.48508 121.53293 391.46945 122.03293Q392.45383 122.53293 392.96945 123.40793Q393.5007 124.28293 393.5007 125.25168Q393.5007 126.17355 393.0007 126.93918Q392.5007 127.7048 391.53195 128.15793Q392.79758 128.43918 393.5007 129.37668Q394.20383 130.29855 394.20383 131.67355Q394.20383 133.54855 392.82883 134.86105Q391.46945 136.15793 389.3757 136.15793Q387.48508 136.15793 386.23508 135.03293Q385.0007 133.90793 384.82883 132.12668ZM395.8132 132.15793L397.65695 132.00168Q397.86008 133.34543 398.61008 134.03293Q399.36008 134.7048 400.42258 134.7048Q401.6882 134.7048 402.5632 133.75168Q403.4382 132.79855 403.4382 131.2048Q403.4382 129.7048 402.59445 128.84543Q401.7507 127.97043 400.39133 127.97043Q399.53195 127.97043 398.84445 128.36105Q398.17258 128.73605 397.78195 129.36105L396.1257 129.1423L397.51633 121.78293L404.64133 121.78293L404.64133 123.47043L398.92258 123.47043L398.15695 127.31418Q399.4382 126.40793 400.86008 126.40793Q402.73508 126.40793 404.01633 127.72043Q405.3132 129.0173 405.3132 131.04855Q405.3132 133.00168 404.17258 134.40793Q402.79758 136.15793 400.42258 136.15793Q398.46945 136.15793 397.21945 135.06418Q395.98508 133.97043 395.8132 132.15793ZM407.76633 135.90793L407.76633 133.90793L409.76633 133.90793L409.76633 135.90793Q409.76633 137.0173 409.3757 137.68918Q408.98508 138.37668 408.14133 138.73605L407.64133 137.98605Q408.20383 137.75168 408.46945 137.2673Q408.73508 136.79855 408.76633 135.90793L407.76633 135.90793ZM412.9382 123.47043L412.9382 121.78293L422.20383 121.78293L422.20383 123.1423Q420.82883 124.59543 419.48508 127.0173Q418.14133 129.42355 417.42258 131.97043Q416.89133 133.7673 416.73508 135.90793L414.9382 135.90793Q414.96945 134.22043 415.59445 131.8298Q416.23508 129.43918 417.42258 127.22043Q418.61008 124.98605 419.9382 123.47043L412.9382 123.47043ZM424.14133 125.03293Q424.14133 123.50168 424.90695 122.42355Q425.6882 121.34543 427.15695 121.34543Q428.5007 121.34543 429.3757 122.31418Q430.26633 123.2673 430.26633 125.1423Q430.26633 126.9548 429.3757 127.93918Q428.48508 128.90793 427.17258 128.90793Q425.8757 128.90793 425.0007 127.9548Q424.14133 126.98605 424.14133 125.03293ZM427.20383 122.56418Q426.54758 122.56418 426.11008 123.12668Q425.6882 123.68918 425.6882 125.2048Q425.6882 126.5798 426.1257 127.1423Q426.5632 127.7048 427.20383 127.7048Q427.8757 127.7048 428.29758 127.1423Q428.73508 126.56418 428.73508 125.06418Q428.73508 123.67355 428.29758 123.12668Q427.86008 122.56418 427.20383 122.56418ZM427.21945 136.43918L435.04758 121.34543L436.46945 121.34543L428.67258 136.43918L427.21945 136.43918ZM433.40695 132.54855Q433.40695 131.00168 434.17258 129.93918Q434.95383 128.86105 436.42258 128.86105Q437.76633 128.86105 438.64133 129.8298Q439.53195 130.78293 439.53195 132.65793Q439.53195 134.47043 438.64133 135.4548Q437.7507 136.43918 436.4382 136.43918Q435.14133 136.43918 434.26633 135.47043Q433.40695 134.48605 433.40695 132.54855ZM436.46945 130.0798Q435.8132 130.0798 435.3757 130.6423Q434.9382 131.2048 434.9382 132.72043Q434.9382 134.09543 435.3757 134.65793Q435.8132 135.22043 436.46945 135.22043Q437.14133 135.22043 437.5632 134.65793Q438.0007 134.09543 438.0007 132.5798Q438.0007 131.2048 437.5632 130.6423Q437.1257 130.0798 436.46945 130.0798ZM443.45383 140.11105L442.20383 140.11105Q445.11008 135.42355 445.11008 130.73605Q445.11008 128.8923 444.70383 127.09543Q444.36008 125.62668 443.76633 124.28293Q443.39133 123.3923 442.20383 121.34543L443.45383 121.34543Q445.29758 123.79855 446.17258 126.2673Q446.92258 128.3923 446.92258 130.72043Q446.92258 133.36105 445.90695 135.8298Q444.90695 138.28293 443.45383 140.11105Z" fill-rule="nonzero"/><path fill="#000000" d="M218.10867 201.44623L219.79617 201.28998Q220.01492 202.47748 220.60867 203.02435Q221.21805 203.5556 222.17117 203.5556Q222.98367 203.5556 223.59305 203.19623Q224.20242 202.82123 224.59305 202.19623Q224.98367 201.57123 225.2493 200.52435Q225.51492 199.46185 225.51492 198.3681Q225.51492 198.25873 225.4993 198.02435Q224.96805 198.85248 224.0618 199.38373Q223.15555 199.89935 222.07742 199.89935Q220.3118 199.89935 219.07742 198.6181Q217.84305 197.32123 217.84305 195.21185Q217.84305 193.03998 219.1243 191.71185Q220.42117 190.38373 222.34305 190.38373Q223.7493 190.38373 224.90555 191.13373Q226.0618 191.88373 226.65555 193.27435Q227.26492 194.66498 227.26492 197.3056Q227.26492 200.0556 226.65555 201.6806Q226.0618 203.3056 224.88992 204.16498Q223.71805 205.00873 222.13992 205.00873Q220.45242 205.00873 219.38992 204.07123Q218.32742 203.13373 218.10867 201.44623ZM225.3118 195.13373Q225.3118 193.6181 224.4993 192.72748Q223.70242 191.83685 222.5618 191.83685Q221.38992 191.83685 220.51492 192.8056Q219.65555 193.75873 219.65555 195.27435Q219.65555 196.64935 220.46805 197.50873Q221.29617 198.35248 222.51492 198.35248Q223.73367 198.35248 224.51492 197.50873Q225.3118 196.64935 225.3118 195.13373ZM238.6868 208.96185Q237.23367 207.13373 236.23367 204.6806Q235.23367 202.21185 235.23367 199.57123Q235.23367 197.2431 235.98367 195.1181Q236.85867 192.64935 238.6868 190.19623L239.95242 190.19623Q238.76492 192.22748 238.38992 193.10248Q237.79617 194.44623 237.45242 195.91498Q237.03055 197.7431 237.03055 199.58685Q237.03055 204.27435 239.95242 208.96185L238.6868 208.96185ZM250.96805 193.94623L249.21805 194.08685Q248.98367 193.0556 248.5618 192.58685Q247.84305 191.82123 246.79617 191.82123Q245.95242 191.82123 245.32742 192.28998Q244.4993 192.89935 244.01492 194.07123Q243.53055 195.22748 243.51492 197.3681Q244.15555 196.41498 245.0618 195.94623Q245.98367 195.47748 246.9993 195.47748Q248.7493 195.47748 249.98367 196.77435Q251.21805 198.0556 251.21805 200.10248Q251.21805 201.46185 250.63992 202.6181Q250.0618 203.77435 249.04617 204.39935Q248.03055 205.00873 246.73367 205.00873Q244.54617 205.00873 243.15555 203.39935Q241.76492 201.77435 241.76492 198.0556Q241.76492 193.91498 243.29617 192.02435Q244.63992 190.38373 246.90555 190.38373Q248.59305 190.38373 249.67117 191.33685Q250.7493 192.27435 250.96805 193.94623ZM243.79617 200.1181Q243.79617 201.02435 244.17117 201.85248Q244.5618 202.6806 245.2493 203.1181Q245.95242 203.5556 246.70242 203.5556Q247.82742 203.5556 248.6243 202.66498Q249.42117 201.75873 249.42117 200.21185Q249.42117 198.72748 248.6243 197.88373Q247.84305 197.02435 246.63992 197.02435Q245.45242 197.02435 244.6243 197.88373Q243.79617 198.72748 243.79617 200.1181ZM258.48367 204.75873L258.48367 201.33685L252.26492 201.33685L252.26492 199.71185L258.79617 190.44623L260.23367 190.44623L260.23367 199.71185L262.17117 199.71185L262.17117 201.33685L260.23367 201.33685L260.23367 204.75873L258.48367 204.75873ZM258.48367 199.71185L258.48367 193.25873L253.9993 199.71185L258.48367 199.71185ZM264.79617 204.75873L264.79617 202.75873L266.79617 202.75873L266.79617 204.75873Q266.79617 205.8681 266.40555 206.53998Q266.01492 207.22748 265.17117 207.58685L264.67117 206.83685Q265.23367 206.60248 265.4993 206.1181Q265.76492 205.64935 265.79617 204.75873L264.79617 204.75873ZM269.85867 200.97748L271.60867 200.7431Q271.92117 202.2431 272.63992 202.89935Q273.3743 203.5556 274.42117 203.5556Q275.65555 203.5556 276.4993 202.69623Q277.35867 201.83685 277.35867 200.57123Q277.35867 199.35248 276.5618 198.57123Q275.78055 197.78998 274.5618 197.78998Q274.0618 197.78998 273.32742 197.97748L273.51492 196.4306Q273.6868 196.46185 273.79617 196.46185Q274.92117 196.46185 275.8118 195.88373Q276.71805 195.28998 276.71805 194.07123Q276.71805 193.10248 276.0618 192.46185Q275.40555 191.82123 274.3743 191.82123Q273.35867 191.82123 272.67117 192.47748Q271.98367 193.1181 271.79617 194.39935L270.03055 194.08685Q270.35867 192.32123 271.4993 191.35248Q272.63992 190.38373 274.34305 190.38373Q275.51492 190.38373 276.4993 190.88373Q277.48367 191.38373 277.9993 192.25873Q278.53055 193.13373 278.53055 194.10248Q278.53055 195.02435 278.03055 195.78998Q277.53055 196.5556 276.5618 197.00873Q277.82742 197.28998 278.53055 198.22748Q279.23367 199.14935 279.23367 200.52435Q279.23367 202.39935 277.85867 203.71185Q276.4993 205.00873 274.40555 205.00873Q272.51492 205.00873 271.26492 203.88373Q270.03055 202.75873 269.85867 200.97748ZM281.17117 193.88373Q281.17117 192.35248 281.9368 191.27435Q282.71805 190.19623 284.1868 190.19623Q285.53055 190.19623 286.40555 191.16498Q287.29617 192.1181 287.29617 193.9931Q287.29617 195.8056 286.40555 196.78998Q285.51492 197.75873 284.20242 197.75873Q282.90555 197.75873 282.03055 196.8056Q281.17117 195.83685 281.17117 193.88373ZM284.23367 191.41498Q283.57742 191.41498 283.13992 191.97748Q282.71805 192.53998 282.71805 194.0556Q282.71805 195.4306 283.15555 195.9931Q283.59305 196.5556 284.23367 196.5556Q284.90555 196.5556 285.32742 195.9931Q285.76492 195.41498 285.76492 193.91498Q285.76492 192.52435 285.32742 191.97748Q284.88992 191.41498 284.23367 191.41498ZM284.2493 205.28998L292.07742 190.19623L293.4993 190.19623L285.70242 205.28998L284.2493 205.28998ZM290.4368 201.39935Q290.4368 199.85248 291.20242 198.78998Q291.98367 197.71185 293.45242 197.71185Q294.79617 197.71185 295.67117 198.6806Q296.5618 199.63373 296.5618 201.50873Q296.5618 203.32123 295.67117 204.3056Q294.78055 205.28998 293.46805 205.28998Q292.17117 205.28998 291.29617 204.32123Q290.4368 203.33685 290.4368 201.39935ZM293.4993 198.9306Q292.84305 198.9306 292.40555 199.4931Q291.96805 200.0556 291.96805 201.57123Q291.96805 202.94623 292.40555 203.50873Q292.84305 204.07123 293.4993 204.07123Q294.17117 204.07123 294.59305 203.50873Q295.03055 202.94623 295.03055 201.4306Q295.03055 200.0556 294.59305 199.4931Q294.15555 198.9306 293.4993 198.9306ZM300.48367 208.96185L299.23367 208.96185Q302.13992 204.27435 302.13992 199.58685Q302.13992 197.7431 301.73367 195.94623Q301.38992 194.47748 300.79617 193.13373Q300.42117 192.2431 299.23367 190.19623L300.48367 190.19623Q302.32742 192.64935 303.20242 195.1181Q303.95242 197.2431 303.95242 199.57123Q303.95242 202.21185 302.9368 204.6806Q301.9368 207.13373 300.48367 208.96185Z" fill-rule="nonzero"/><path fill="#4285f4" d="M32.0 334.0C32.0 337.31372 29.31371 340.0 26.0 340.0C22.68629 340.0 20.0 337.31372 20.0 334.0C20.0 330.68628 22.68629 328.0 26.0 328.0C29.31371 328.0 32.0 330.68628 32.0 334.0Z" fill-rule="nonzero"/><path fill="#1a1a1a" d="M54.109375 335.96875L56.390625 336.54688Q55.671875 339.34375 53.8125 340.82812Q51.953125 342.29688 49.265625 342.29688Q46.5 342.29688 44.75 341.17188Q43.015625 340.03125 42.109375 337.89062Q41.203125 335.73438 41.203125 333.28125Q41.203125 330.59375 42.21875 328.59375Q43.25 326.59375 45.140625 325.5625Q47.03125 324.53125 49.3125 324.53125Q51.890625 324.53125 53.640625 325.84375Q55.40625 327.15625 56.09375 329.53125L53.859375 330.0625Q53.25 328.1875 52.109375 327.32812Q50.984375 326.46875 49.265625 326.46875Q47.28125 326.46875 45.953125 327.42188Q44.625 328.375 44.078125 329.96875Q43.546875 331.5625 43.546875 333.26562Q43.546875 335.45312 44.171875 337.09375Q44.8125 338.73438 46.15625 339.54688Q47.515625 340.34375 49.078125 340.34375Q51.0 340.34375 52.3125 339.25Q53.640625 338.14062 54.109375 335.96875ZM57.796875 335.78125Q57.796875 332.3125 59.71875 330.65625Q61.328125 329.26562 63.640625 329.26562Q66.203125 329.26562 67.828125 330.95312Q69.453125 332.64062 69.453125 335.59375Q69.453125 338.0 68.734375 339.375Q68.015625 340.75 66.640625 341.51562Q65.265625 342.28125 63.640625 342.28125Q61.015625 342.28125 59.40625 340.60938Q57.796875 338.92188 57.796875 335.78125ZM59.96875 335.78125Q59.96875 338.17188 61.0 339.35938Q62.046875 340.54688 63.640625 340.54688Q65.203125 340.54688 66.25 339.35938Q67.296875 338.15625 67.296875 335.70312Q67.296875 333.39062 66.234375 332.20312Q65.1875 331.01562 63.640625 331.01562Q62.046875 331.01562 61.0 332.20312Q59.96875 333.39062 59.96875 335.78125ZM71.578125 342.0L71.578125 329.54688L73.484375 329.54688L73.484375 331.32812Q74.859375 329.26562 77.4375 329.26562Q78.5625 329.26562 79.5 329.67188Q80.453125 330.07812 80.921875 330.73438Q81.390625 331.39062 81.578125 332.29688Q81.703125 332.875 81.703125 334.34375L81.703125 342.0L79.59375 342.0L79.59375 334.42188Q79.59375 333.14062 79.34375 332.5Q79.09375 331.85938 78.46875 331.48438Q77.84375 331.09375 77.0 331.09375Q75.65625 331.09375 74.671875 331.95312Q73.6875 332.8125 73.6875 335.20312L73.6875 342.0L71.578125 342.0ZM89.1875 340.10938L89.5 341.96875Q88.609375 342.17188 87.90625 342.17188Q86.75 342.17188 86.109375 341.8125Q85.484375 341.4375 85.21875 340.84375Q84.96875 340.25 84.96875 338.35938L84.96875 331.1875L83.421875 331.1875L83.421875 329.54688L84.96875 329.54688L84.96875 326.46875L87.0625 325.20312L87.0625 329.54688L89.1875 329.54688L89.1875 331.1875L87.0625 331.1875L87.0625 338.46875Q87.0625 339.375 87.171875 339.64062Q87.296875 339.89062 87.546875 340.04688Q87.796875 340.1875 88.265625 340.1875Q88.609375 340.1875 89.1875 340.10938ZM91.59375 327.25L91.59375 324.8125L93.703125 324.8125L93.703125 327.25L91.59375 327.25ZM91.59375 342.0L91.59375 329.54688L93.703125 329.54688L93.703125 342.0L91.59375 342.0ZM96.578125 342.0L96.578125 329.54688L98.484375 329.54688L98.484375 331.32812Q99.859375 329.26562 102.4375 329.26562Q103.5625 329.26562 104.5 329.67188Q105.453125 330.07812 105.921875 330.73438Q106.390625 331.39062 106.578125 332.29688Q106.703125 332.875 106.703125 334.34375L106.703125 342.0L104.59375 342.0L104.59375 334.42188Q104.59375 333.14062 104.34375 332.5Q104.09375 331.85938 103.46875 331.48438Q102.84375 331.09375 102.0 331.09375Q100.65625 331.09375 99.671875 331.95312Q98.6875 332.8125 98.6875 335.20312L98.6875 342.0L96.578125 342.0ZM117.734375 342.0L117.734375 340.17188Q116.28125 342.28125 113.796875 342.28125Q112.6875 342.28125 111.734375 341.85938Q110.78125 341.4375 110.3125 340.79688Q109.859375 340.15625 109.671875 339.23438Q109.53125 338.60938 109.53125 337.26562L109.53125 329.54688L111.640625 329.54688L111.640625 336.45312Q111.640625 338.10938 111.78125 338.6875Q111.96875 339.51562 112.609375 340.0Q113.265625 340.46875 114.21875 340.46875Q115.15625 340.46875 115.984375 339.98438Q116.828125 339.48438 117.171875 338.65625Q117.515625 337.8125 117.515625 336.21875L117.515625 329.54688L119.625 329.54688L119.625 342.0L117.734375 342.0ZM131.10938 337.98438L133.28125 338.26562Q132.76562 340.17188 131.375 341.23438Q129.98438 342.28125 127.8125 342.28125Q125.078125 342.28125 123.46875 340.60938Q121.875 338.92188 121.875 335.875Q121.875 332.73438 123.484375 331.0Q125.109375 329.26562 127.6875 329.26562Q130.1875 329.26562 131.76562 330.96875Q133.35938 332.67188 133.35938 335.75Q133.35938 335.9375 133.34375 336.3125L124.0625 336.3125Q124.171875 338.35938 125.21875 339.45312Q126.265625 340.54688 127.828125 340.54688Q128.98438 340.54688 129.79688 339.9375Q130.625 339.32812 131.10938 337.98438ZM124.171875 334.57812L131.125 334.57812Q130.98438 333.01562 130.32812 332.21875Q129.32812 331.0 127.71875 331.0Q126.265625 331.0 125.265625 331.98438Q124.28125 332.95312 124.171875 334.57812ZM135.5625 342.0L135.5625 329.54688L137.45312 329.54688L137.45312 331.4375Q138.1875 330.10938 138.79688 329.6875Q139.42188 329.26562 140.15625 329.26562Q141.21875 329.26562 142.32812 329.95312L141.59375 331.90625Q140.82812 331.45312 140.04688 331.45312Q139.35938 331.45312 138.79688 331.875Q138.25 332.28125 138.01562 333.01562Q137.67188 334.14062 137.67188 335.48438L137.67188 342.0L135.5625 342.0ZM149.73438 338.28125L151.82812 337.95312Q152.0 339.20312 152.79688 339.875Q153.60938 340.54688 155.04688 340.54688Q156.5 340.54688 157.20312 339.95312Q157.90625 339.35938 157.90625 338.5625Q157.90625 337.84375 157.28125 337.4375Q156.85938 337.15625 155.125 336.71875Q152.8125 336.14062 151.90625 335.71875Q151.01562 335.28125 150.54688 334.53125Q150.09375 333.76562 150.09375 332.85938Q150.09375 332.03125 150.46875 331.32812Q150.85938 330.60938 151.51562 330.14062Q152.0 329.78125 152.84375 329.53125Q153.70312 329.26562 154.67188 329.26562Q156.14062 329.26562 157.25 329.6875Q158.35938 330.10938 158.875 330.84375Q159.40625 331.5625 159.60938 332.76562L157.54688 333.04688Q157.40625 332.07812 156.73438 331.54688Q156.0625 331.0 154.82812 331.0Q153.375 331.0 152.75 331.48438Q152.125 331.96875 152.125 332.60938Q152.125 333.01562 152.39062 333.34375Q152.64062 333.6875 153.20312 333.90625Q153.51562 334.03125 155.0625 334.45312Q157.29688 335.04688 158.17188 335.4375Q159.0625 335.8125 159.5625 336.54688Q160.07812 337.26562 160.07812 338.34375Q160.07812 339.39062 159.45312 340.32812Q158.84375 341.26562 157.6875 341.78125Q156.53125 342.28125 155.0625 342.28125Q152.64062 342.28125 151.35938 341.28125Q150.09375 340.26562 149.73438 338.28125ZM170.73438 342.0L170.73438 340.17188Q169.28125 342.28125 166.79688 342.28125Q165.6875 342.28125 164.73438 341.85938Q163.78125 341.4375 163.3125 340.79688Q162.85938 340.15625 162.67188 339.23438Q162.53125 338.60938 162.53125 337.26562L162.53125 329.54688L164.64062 329.54688L164.64062 336.45312Q164.64062 338.10938 164.78125 338.6875Q164.96875 339.51562 165.60938 340.0Q166.26562 340.46875 167.21875 340.46875Q168.15625 340.46875 168.98438 339.98438Q169.82812 339.48438 170.17188 338.65625Q170.51562 337.8125 170.51562 336.21875L170.51562 329.54688L172.625 329.54688L172.625 342.0L170.73438 342.0ZM175.5625 342.0L175.5625 329.54688L177.45312 329.54688L177.45312 331.4375Q178.1875 330.10938 178.79688 329.6875Q179.42188 329.26562 180.15625 329.26562Q181.21875 329.26562 182.32812 329.95312L181.59375 331.90625Q180.82812 331.45312 180.04688 331.45312Q179.35938 331.45312 178.79688 331.875Q178.25 332.28125 178.01562 333.01562Q177.67188 334.14062 177.67188 335.48438L177.67188 342.0L175.5625 342.0ZM190.53125 342.0L190.53125 324.8125L192.64062 324.8125L192.64062 342.0L190.53125 342.0ZM203.70312 340.46875Q202.53125 341.45312 201.4375 341.875Q200.35938 342.28125 199.125 342.28125Q197.07812 342.28125 195.96875 341.28125Q194.875 340.28125 194.875 338.71875Q194.875 337.79688 195.28125 337.04688Q195.70312 336.29688 196.375 335.84375Q197.04688 335.375 197.89062 335.14062Q198.51562 334.98438 199.76562 334.82812Q202.32812 334.51562 203.53125 334.09375Q203.54688 333.67188 203.54688 333.54688Q203.54688 332.26562 202.9375 331.73438Q202.14062 331.01562 200.54688 331.01562Q199.04688 331.01562 198.34375 331.54688Q197.64062 332.0625 197.29688 333.39062L195.23438 333.10938Q195.51562 331.78125 196.15625 330.96875Q196.79688 330.15625 198.01562 329.71875Q199.23438 329.26562 200.84375 329.26562Q202.4375 329.26562 203.4375 329.64062Q204.4375 330.01562 204.90625 330.59375Q205.375 331.15625 205.5625 332.03125Q205.65625 332.5625 205.65625 333.96875L205.65625 336.78125Q205.65625 339.71875 205.79688 340.5Q205.9375 341.28125 206.32812 342.0L204.125 342.0Q203.79688 341.34375 203.70312 340.46875ZM203.53125 335.75Q202.375 336.21875 200.07812 336.54688Q198.78125 336.73438 198.23438 336.96875Q197.70312 337.20312 197.40625 337.65625Q197.125 338.10938 197.125 338.65625Q197.125 339.5 197.75 340.0625Q198.39062 340.625 199.625 340.625Q200.84375 340.625 201.79688 340.09375Q202.75 339.5625 203.1875 338.64062Q203.53125 337.92188 203.53125 336.53125L203.53125 335.75ZM220.1875 340.10938L220.5 341.96875Q219.60938 342.17188 218.90625 342.17188Q217.75 342.17188 217.10938 341.8125Q216.48438 341.4375 216.21875 340.84375Q215.96875 340.25 215.96875 338.35938L215.96875 331.1875L214.42188 331.1875L214.42188 329.54688L215.96875 329.54688L215.96875 326.46875L218.0625 325.20312L218.0625 329.54688L220.1875 329.54688L220.1875 331.1875L218.0625 331.1875L218.0625 338.46875Q218.0625 339.375 218.17188 339.64062Q218.29688 339.89062 218.54688 340.04688Q218.79688 340.1875 219.26562 340.1875Q219.60938 340.1875 220.1875 340.10938ZM222.5625 342.0L222.5625 329.54688L224.45312 329.54688L224.45312 331.4375Q225.1875 330.10938 225.79688 329.6875Q226.42188 329.26562 227.15625 329.26562Q228.21875 329.26562 229.32812 329.95312L228.59375 331.90625Q227.82812 331.45312 227.04688 331.45312Q226.35938 331.45312 225.79688 331.875Q225.25 332.28125 225.01562 333.01562Q224.67188 334.14062 224.67188 335.48438L224.67188 342.0L222.5625 342.0ZM238.70312 340.46875Q237.53125 341.45312 236.4375 341.875Q235.35938 342.28125 234.125 342.28125Q232.07812 342.28125 230.96875 341.28125Q229.875 340.28125 229.875 338.71875Q229.875 337.79688 230.28125 337.04688Q230.70312 336.29688 231.375 335.84375Q232.04688 335.375 232.89062 335.14062Q233.51562 334.98438 234.76562 334.82812Q237.32812 334.51562 238.53125 334.09375Q238.54688 333.67188 238.54688 333.54688Q238.54688 332.26562 237.9375 331.73438Q237.14062 331.01562 235.54688 331.01562Q234.04688 331.01562 233.34375 331.54688Q232.64062 332.0625 232.29688 333.39062L230.23438 333.10938Q230.51562 331.78125 231.15625 330.96875Q231.79688 330.15625 233.01562 329.71875Q234.23438 329.26562 235.84375 329.26562Q237.4375 329.26562 238.4375 329.64062Q239.4375 330.01562 239.90625 330.59375Q240.375 331.15625 240.5625 332.03125Q240.65625 332.5625 240.65625 333.96875L240.65625 336.78125Q240.65625 339.71875 240.79688 340.5Q240.9375 341.28125 241.32812 342.0L239.125 342.0Q238.79688 341.34375 238.70312 340.46875ZM238.53125 335.75Q237.375 336.21875 235.07812 336.54688Q233.78125 336.73438 233.23438 336.96875Q232.70312 337.20312 232.40625 337.65625Q232.125 338.10938 232.125 338.65625Q232.125 339.5 232.75 340.0625Q233.39062 340.625 234.625 340.625Q235.84375 340.625 236.79688 340.09375Q237.75 339.5625 238.1875 338.64062Q238.53125 337.92188 238.53125 336.53125L238.53125 335.75ZM243.57812 327.26562L243.57812 324.8125L245.6875 324.8125L245.6875 327.26562L243.57812 327.26562ZM240.89062 346.82812L241.29688 345.03125Q241.92188 345.20312 242.29688 345.20312Q242.9375 345.20312 243.25 344.76562Q243.57812 344.34375 243.57812 342.64062L243.57812 329.54688L245.6875 329.54688L245.6875 342.6875Q245.6875 344.98438 245.07812 345.875Q244.32812 347.04688 242.54688 347.04688Q241.6875 347.04688 240.89062 346.82812ZM257.10938 337.98438L259.28125 338.26562Q258.76562 340.17188 257.375 341.23438Q255.98438 342.28125 253.8125 342.28125Q251.07812 342.28125 249.46875 340.60938Q247.875 338.92188 247.875 335.875Q247.875 332.73438 249.48438 331.0Q251.10938 329.26562 253.6875 329.26562Q256.1875 329.26562 257.76562 330.96875Q259.35938 332.67188 259.35938 335.75Q259.35938 335.9375 259.34375 336.3125L250.0625 336.3125Q250.17188 338.35938 251.21875 339.45312Q252.26562 340.54688 253.82812 340.54688Q254.98438 340.54688 255.79688 339.9375Q256.625 339.32812 257.10938 337.98438ZM250.17188 334.57812L257.125 334.57812Q256.98438 333.01562 256.32812 332.21875Q255.32812 331.0 253.71875 331.0Q252.26562 331.0 251.26562 331.98438Q250.28125 332.95312 250.17188 334.57812ZM269.70312 337.4375L271.78125 337.70312Q271.4375 339.85938 270.03125 341.07812Q268.64062 342.28125 266.59375 342.28125Q264.04688 342.28125 262.48438 340.60938Q260.9375 338.9375 260.9375 335.82812Q260.9375 333.8125 261.60938 332.29688Q262.28125 330.78125 263.64062 330.03125Q265.0 329.26562 266.60938 329.26562Q268.64062 329.26562 269.92188 330.29688Q271.21875 331.32812 271.57812 333.20312L269.53125 333.53125Q269.23438 332.26562 268.48438 331.64062Q267.75 331.0 266.6875 331.0Q265.09375 331.0 264.09375 332.15625Q263.10938 333.29688 263.10938 335.76562Q263.10938 338.26562 264.0625 339.40625Q265.03125 340.54688 266.57812 340.54688Q267.8125 340.54688 268.64062 339.78125Q269.48438 339.01562 269.70312 337.4375ZM278.1875 340.10938L278.5 341.96875Q277.60938 342.17188 276.90625 342.17188Q275.75 342.17188 275.10938 341.8125Q274.48438 341.4375 274.21875 340.84375Q273.96875 340.25 273.96875 338.35938L273.96875 331.1875L272.42188 331.1875L272.42188 329.54688L273.96875 329.54688L273.96875 326.46875L276.0625 325.20312L276.0625 329.54688L278.1875 329.54688L278.1875 331.1875L276.0625 331.1875L276.0625 338.46875Q276.0625 339.375 276.17188 339.64062Q276.29688 339.89062 276.54688 340.04688Q276.79688 340.1875 277.26562 340.1875Q277.60938 340.1875 278.1875 340.10938ZM279.79688 335.78125Q279.79688 332.3125 281.71875 330.65625Q283.32812 329.26562 285.64062 329.26562Q288.20312 329.26562 289.82812 330.95312Q291.45312 332.64062 291.45312 335.59375Q291.45312 338.0 290.73438 339.375Q290.01562 340.75 288.64062 341.51562Q287.26562 342.28125 285.64062 342.28125Q283.01562 342.28125 281.40625 340.60938Q279.79688 338.92188 279.79688 335.78125ZM281.96875 335.78125Q281.96875 338.17188 283.0 339.35938Q284.04688 340.54688 285.64062 340.54688Q287.20312 340.54688 288.25 339.35938Q289.29688 338.15625 289.29688 335.70312Q289.29688 333.39062 288.23438 332.20312Q287.1875 331.01562 285.64062 331.01562Q284.04688 331.01562 283.0 332.20312Q281.96875 333.39062 281.96875 335.78125ZM293.59375 327.25L293.59375 324.8125L295.70312 324.8125L295.70312 327.25L293.59375 327.25ZM293.59375 342.0L293.59375 329.54688L295.70312 329.54688L295.70312 342.0L293.59375 342.0ZM298.5625 342.0L298.5625 329.54688L300.45312 329.54688L300.45312 331.4375Q301.1875 330.10938 301.79688 329.6875Q302.42188 329.26562 303.15625 329.26562Q304.21875 329.26562 305.32812 329.95312L304.59375 331.90625Q303.82812 331.45312 303.04688 331.45312Q302.35938 331.45312 301.79688 331.875Q301.25 332.28125 301.01562 333.01562Q300.67188 334.14062 300.67188 335.48438L300.67188 342.0L298.5625 342.0ZM315.10938 337.98438L317.28125 338.26562Q316.76562 340.17188 315.375 341.23438Q313.98438 342.28125 311.8125 342.28125Q309.07812 342.28125 307.46875 340.60938Q305.875 338.92188 305.875 335.875Q305.875 332.73438 307.48438 331.0Q309.10938 329.26562 311.6875 329.26562Q314.1875 329.26562 315.76562 330.96875Q317.35938 332.67188 317.35938 335.75Q317.35938 335.9375 317.34375 336.3125L308.0625 336.3125Q308.17188 338.35938 309.21875 339.45312Q310.26562 340.54688 311.82812 340.54688Q312.98438 340.54688 313.79688 339.9375Q314.625 339.32812 315.10938 337.98438ZM308.17188 334.57812L315.125 334.57812Q314.98438 333.01562 314.32812 332.21875Q313.32812 331.0 311.71875 331.0Q310.26562 331.0 309.26562 331.98438Q308.28125 332.95312 308.17188 334.57812ZM326.59375 327.25L326.59375 324.8125L328.70312 324.8125L328.70312 327.25L326.59375 327.25ZM326.59375 342.0L326.59375 329.54688L328.70312 329.54688L328.70312 342.0L326.59375 342.0ZM331.57812 342.0L331.57812 329.54688L333.48438 329.54688L333.48438 331.32812Q334.85938 329.26562 337.4375 329.26562Q338.5625 329.26562 339.5 329.67188Q340.45312 330.07812 340.92188 330.73438Q341.39062 331.39062 341.57812 332.29688Q341.70312 332.875 341.70312 334.34375L341.70312 342.0L339.59375 342.0L339.59375 334.42188Q339.59375 333.14062 339.34375 332.5Q339.09375 331.85938 338.46875 331.48438Q337.84375 331.09375 337.0 331.09375Q335.65625 331.09375 334.67188 331.95312Q333.6875 332.8125 333.6875 335.20312L333.6875 342.0L331.57812 342.0ZM344.59375 327.25L344.59375 324.8125L346.70312 324.8125L346.70312 327.25L344.59375 327.25ZM344.59375 342.0L344.59375 329.54688L346.70312 329.54688L346.70312 342.0L344.59375 342.0ZM354.1875 340.10938L354.5 341.96875Q353.60938 342.17188 352.90625 342.17188Q351.75 342.17188 351.10938 341.8125Q350.48438 341.4375 350.21875 340.84375Q349.96875 340.25 349.96875 338.35938L349.96875 331.1875L348.42188 331.1875L348.42188 329.54688L349.96875 329.54688L349.96875 326.46875L352.0625 325.20312L352.0625 329.54688L354.1875 329.54688L354.1875 331.1875L352.0625 331.1875L352.0625 338.46875Q352.0625 339.375 352.17188 339.64062Q352.29688 339.89062 352.54688 340.04688Q352.79688 340.1875 353.26562 340.1875Q353.60938 340.1875 354.1875 340.10938ZM356.59375 327.25L356.59375 324.8125L358.70312 324.8125L358.70312 327.25L356.59375 327.25ZM356.59375 342.0L356.59375 329.54688L358.70312 329.54688L358.70312 342.0L356.59375 342.0ZM369.70312 340.46875Q368.53125 341.45312 367.4375 341.875Q366.35938 342.28125 365.125 342.28125Q363.07812 342.28125 361.96875 341.28125Q360.875 340.28125 360.875 338.71875Q360.875 337.79688 361.28125 337.04688Q361.70312 336.29688 362.375 335.84375Q363.04688 335.375 363.89062 335.14062Q364.51562 334.98438 365.76562 334.82812Q368.32812 334.51562 369.53125 334.09375Q369.54688 333.67188 369.54688 333.54688Q369.54688 332.26562 368.9375 331.73438Q368.14062 331.01562 366.54688 331.01562Q365.04688 331.01562 364.34375 331.54688Q363.64062 332.0625 363.29688 333.39062L361.23438 333.10938Q361.51562 331.78125 362.15625 330.96875Q362.79688 330.15625 364.01562 329.71875Q365.23438 329.26562 366.84375 329.26562Q368.4375 329.26562 369.4375 329.64062Q370.4375 330.01562 370.90625 330.59375Q371.375 331.15625 371.5625 332.03125Q371.65625 332.5625 371.65625 333.96875L371.65625 336.78125Q371.65625 339.71875 371.79688 340.5Q371.9375 341.28125 372.32812 342.0L370.125 342.0Q369.79688 341.34375 369.70312 340.46875ZM369.53125 335.75Q368.375 336.21875 366.07812 336.54688Q364.78125 336.73438 364.23438 336.96875Q363.70312 337.20312 363.40625 337.65625Q363.125 338.10938 363.125 338.65625Q363.125 339.5 363.75 340.0625Q364.39062 340.625 365.625 340.625Q366.84375 340.625 367.79688 340.09375Q368.75 339.5625 369.1875 338.64062Q369.53125 337.92188 369.53125 336.53125L369.53125 335.75ZM374.53125 342.0L374.53125 324.8125L376.64062 324.8125L376.64062 342.0L374.53125 342.0ZM388.10938 337.98438L390.28125 338.26562Q389.76562 340.17188 388.375 341.23438Q386.98438 342.28125 384.8125 342.28125Q382.07812 342.28125 380.46875 340.60938Q378.875 338.92188 378.875 335.875Q378.875 332.73438 380.48438 331.0Q382.10938 329.26562 384.6875 329.26562Q387.1875 329.26562 388.76562 330.96875Q390.35938 332.67188 390.35938 335.75Q390.35938 335.9375 390.34375 336.3125L381.0625 336.3125Q381.17188 338.35938 382.21875 339.45312Q383.26562 340.54688 384.82812 340.54688Q385.98438 340.54688 386.79688 339.9375Q387.625 339.32812 388.10938 337.98438ZM381.17188 334.57812L388.125 334.57812Q387.98438 333.01562 387.32812 332.21875Q386.32812 331.0 384.71875 331.0Q383.26562 331.0 382.26562 331.98438Q381.28125 332.95312 381.17188 334.57812ZM403.60938 347.04688Q401.875 344.84375 400.65625 341.89062Q399.45312 338.9375 399.45312 335.78125Q399.45312 332.98438 400.35938 330.4375Q401.40625 327.46875 403.60938 324.53125L405.125 324.53125Q403.70312 326.96875 403.25 328.0Q402.53125 329.625 402.125 331.375Q401.625 333.57812 401.625 335.78125Q401.625 341.42188 405.125 347.04688L403.60938 347.04688ZM407.01562 337.46875L409.125 337.1875Q409.48438 338.96875 410.35938 339.76562Q411.23438 340.5625 412.48438 340.5625Q413.96875 340.5625 414.98438 339.53125Q416.01562 338.5 416.01562 336.96875Q416.01562 335.51562 415.0625 334.57812Q414.125 333.625 412.65625 333.625Q412.0625 333.625 411.17188 333.85938L411.40625 332.01562Q411.60938 332.03125 411.75 332.03125Q413.09375 332.03125 414.17188 331.32812Q415.25 330.625 415.25 329.17188Q415.25 328.0 414.45312 327.25Q413.67188 326.48438 412.4375 326.48438Q411.20312 326.48438 410.375 327.26562Q409.5625 328.03125 409.32812 329.57812L407.21875 329.20312Q407.60938 327.07812 408.96875 325.92188Q410.34375 324.75 412.39062 324.75Q413.79688 324.75 414.96875 325.35938Q416.15625 325.95312 416.78125 327.0Q417.42188 328.04688 417.42188 329.21875Q417.42188 330.32812 416.8125 331.25Q416.21875 332.15625 415.04688 332.6875Q416.57812 333.04688 417.42188 334.15625Q418.26562 335.26562 418.26562 336.92188Q418.26562 339.17188 416.625 340.75Q414.98438 342.3125 412.46875 342.3125Q410.20312 342.3125 408.70312 340.96875Q407.21875 339.60938 407.01562 337.46875ZM427.57812 342.0L427.57812 329.54688L429.46875 329.54688L429.46875 331.29688Q430.0625 330.39062 431.03125 329.82812Q432.0 329.26562 433.25 329.26562Q434.625 329.26562 435.5 329.84375Q436.39062 330.42188 436.76562 331.45312Q438.23438 329.26562 440.60938 329.26562Q442.45312 329.26562 443.45312 330.29688Q444.45312 331.32812 444.45312 333.45312L444.45312 342.0L442.34375 342.0L442.34375 334.15625Q442.34375 332.89062 442.14062 332.34375Q441.9375 331.78125 441.39062 331.4375Q440.85938 331.09375 440.14062 331.09375Q438.82812 331.09375 437.95312 331.96875Q437.09375 332.84375 437.09375 334.76562L437.09375 342.0L434.98438 342.0L434.98438 333.90625Q434.98438 332.5 434.46875 331.79688Q433.95312 331.09375 432.78125 331.09375Q431.89062 331.09375 431.125 331.5625Q430.375 332.03125 430.03125 332.9375Q429.6875 333.84375 429.6875 335.54688L429.6875 342.0L427.57812 342.0ZM446.79688 335.78125Q446.79688 332.3125 448.71875 330.65625Q450.32812 329.26562 452.64062 329.26562Q455.20312 329.26562 456.82812 330.95312Q458.45312 332.64062 458.45312 335.59375Q458.45312 338.0 457.73438 339.375Q457.01562 340.75 455.64062 341.51562Q454.26562 342.28125 452.64062 342.28125Q450.01562 342.28125 448.40625 340.60938Q446.79688 338.92188 446.79688 335.78125ZM448.96875 335.78125Q448.96875 338.17188 450.0 339.35938Q451.04688 340.54688 452.64062 340.54688Q454.20312 340.54688 455.25 339.35938Q456.29688 338.15625 456.29688 335.70312Q456.29688 333.39062 455.23438 332.20312Q454.1875 331.01562 452.64062 331.01562Q451.04688 331.01562 450.0 332.20312Q448.96875 333.39062 448.96875 335.78125ZM460.5625 342.0L460.5625 329.54688L462.45312 329.54688L462.45312 331.4375Q463.1875 330.10938 463.79688 329.6875Q464.42188 329.26562 465.15625 329.26562Q466.21875 329.26562 467.32812 329.95312L466.59375 331.90625Q465.82812 331.45312 465.04688 331.45312Q464.35938 331.45312 463.79688 331.875Q463.25 332.28125 463.01562 333.01562Q462.67188 334.14062 462.67188 335.48438L462.67188 342.0L460.5625 342.0ZM473.1875 340.10938L473.5 341.96875Q472.60938 342.17188 471.90625 342.17188Q470.75 342.17188 470.10938 341.8125Q469.48438 341.4375 469.21875 340.84375Q468.96875 340.25 468.96875 338.35938L468.96875 331.1875L467.42188 331.1875L467.42188 329.54688L468.96875 329.54688L468.96875 326.46875L471.0625 325.20312L471.0625 329.54688L473.1875 329.54688L473.1875 331.1875L471.0625 331.1875L471.0625 338.46875Q471.0625 339.375 471.17188 339.64062Q471.29688 339.89062 471.54688 340.04688Q471.79688 340.1875 472.26562 340.1875Q472.60938 340.1875 473.1875 340.10938ZM474.73438 338.28125L476.82812 337.95312Q477.0 339.20312 477.79688 339.875Q478.60938 340.54688 480.04688 340.54688Q481.5 340.54688 482.20312 339.95312Q482.90625 339.35938 482.90625 338.5625Q482.90625 337.84375 482.28125 337.4375Q481.85938 337.15625 480.125 336.71875Q477.8125 336.14062 476.90625 335.71875Q476.01562 335.28125 475.54688 334.53125Q475.09375 333.76562 475.09375 332.85938Q475.09375 332.03125 475.46875 331.32812Q475.85938 330.60938 476.51562 330.14062Q477.0 329.78125 477.84375 329.53125Q478.70312 329.26562 479.67188 329.26562Q481.14062 329.26562 482.25 329.6875Q483.35938 330.10938 483.875 330.84375Q484.40625 331.5625 484.60938 332.76562L482.54688 333.04688Q482.40625 332.07812 481.73438 331.54688Q481.0625 331.0 479.82812 331.0Q478.375 331.0 477.75 331.48438Q477.125 331.96875 477.125 332.60938Q477.125 333.01562 477.39062 333.34375Q477.64062 333.6875 478.20312 333.90625Q478.51562 334.03125 480.0625 334.45312Q482.29688 335.04688 483.17188 335.4375Q484.0625 335.8125 484.5625 336.54688Q485.07812 337.26562 485.07812 338.34375Q485.07812 339.39062 484.45312 340.32812Q483.84375 341.26562 482.6875 341.78125Q481.53125 342.28125 480.0625 342.28125Q477.64062 342.28125 476.35938 341.28125Q475.09375 340.26562 474.73438 338.28125ZM502.65625 342.0L502.65625 340.42188Q501.46875 342.28125 499.17188 342.28125Q497.6875 342.28125 496.4375 341.46875Q495.1875 340.64062 494.5 339.17188Q493.82812 337.70312 493.82812 335.78125Q493.82812 333.92188 494.4375 332.40625Q495.0625 330.89062 496.29688 330.07812Q497.54688 329.26562 499.07812 329.26562Q500.20312 329.26562 501.07812 329.75Q501.96875 330.21875 502.51562 330.98438L502.51562 324.8125L504.60938 324.8125L504.60938 342.0L502.65625 342.0ZM495.98438 335.78125Q495.98438 338.17188 496.98438 339.35938Q498.0 340.54688 499.375 340.54688Q500.76562 340.54688 501.71875 339.42188Q502.6875 338.28125 502.6875 335.96875Q502.6875 333.40625 501.70312 332.21875Q500.71875 331.01562 499.28125 331.01562Q497.875 331.01562 496.92188 332.17188Q495.98438 333.3125 495.98438 335.78125ZM507.59375 330.90625L507.0625 327.6875L507.0625 324.8125L509.45312 324.8125L509.45312 327.6875L508.89062 330.90625L507.59375 330.90625ZM520.7031 340.46875Q519.53125 341.45312 518.4375 341.875Q517.3594 342.28125 516.125 342.28125Q514.0781 342.28125 512.96875 341.28125Q511.875 340.28125 511.875 338.71875Q511.875 337.79688 512.28125 337.04688Q512.7031 336.29688 513.375 335.84375Q514.0469 335.375 514.8906 335.14062Q515.5156 334.98438 516.7656 334.82812Q519.3281 334.51562 520.53125 334.09375Q520.5469 333.67188 520.5469 333.54688Q520.5469 332.26562 519.9375 331.73438Q519.1406 331.01562 517.5469 331.01562Q516.0469 331.01562 515.34375 331.54688Q514.6406 332.0625 514.2969 333.39062L512.2344 333.10938Q512.5156 331.78125 513.15625 330.96875Q513.7969 330.15625 515.0156 329.71875Q516.2344 329.26562 517.84375 329.26562Q519.4375 329.26562 520.4375 329.64062Q521.4375 330.01562 521.90625 330.59375Q522.375 331.15625 522.5625 332.03125Q522.65625 332.5625 522.65625 333.96875L522.65625 336.78125Q522.65625 339.71875 522.7969 340.5Q522.9375 341.28125 523.3281 342.0L521.125 342.0Q520.7969 341.34375 520.7031 340.46875ZM520.53125 335.75Q519.375 336.21875 517.0781 336.54688Q515.78125 336.73438 515.2344 336.96875Q514.7031 337.20312 514.40625 337.65625Q514.125 338.10938 514.125 338.65625Q514.125 339.5 514.75 340.0625Q515.3906 340.625 516.625 340.625Q517.84375 340.625 518.7969 340.09375Q519.75 339.5625 520.1875 338.64062Q520.53125 337.92188 520.53125 336.53125L520.53125 335.75ZM518.03125 326.01562L516.7031 328.0L514.2969 328.0L516.8281 324.71875L519.0781 324.71875L521.71875 328.0L519.3281 328.0L518.03125 326.01562ZM525.2031 343.03125L527.25 343.34375Q527.375 344.28125 527.96875 344.71875Q528.75 345.3125 530.1094 345.3125Q531.5781 345.3125 532.375 344.71875Q533.1719 344.14062 533.4531 343.07812Q533.6094 342.4375 533.59375 340.375Q532.21875 342.0 530.15625 342.0Q527.59375 342.0 526.1875 340.15625Q524.78125 338.29688 524.78125 335.70312Q524.78125 333.92188 525.4219 332.42188Q526.0625 330.90625 527.28125 330.09375Q528.5156 329.26562 530.1719 329.26562Q532.375 329.26562 533.7969 331.04688L533.7969 329.54688L535.75 329.54688L535.75 340.3125Q535.75 343.21875 535.15625 344.42188Q534.5625 345.64062 533.28125 346.34375Q532.0 347.04688 530.125 347.04688Q527.8906 347.04688 526.5156 346.04688Q525.15625 345.04688 525.2031 343.03125ZM526.9375 335.54688Q526.9375 338.0 527.90625 339.125Q528.8906 340.25 530.3594 340.25Q531.8125 340.25 532.7969 339.14062Q533.78125 338.01562 533.78125 335.625Q533.78125 333.34375 532.7656 332.1875Q531.75 331.01562 530.3125 331.01562Q528.90625 331.01562 527.9219 332.15625Q526.9375 333.29688 526.9375 335.54688ZM547.1094 337.98438L549.28125 338.26562Q548.7656 340.17188 547.375 341.23438Q545.9844 342.28125 543.8125 342.28125Q541.0781 342.28125 539.46875 340.60938Q537.875 338.92188 537.875 335.875Q537.875 332.73438 539.4844 331.0Q541.1094 329.26562 543.6875 329.26562Q546.1875 329.26562 547.7656 330.96875Q549.3594 332.67188 549.3594 335.75Q549.3594 335.9375 549.34375 336.3125L540.0625 336.3125Q540.1719 338.35938 541.21875 339.45312Q542.2656 340.54688 543.8281 340.54688Q544.9844 340.54688 545.7969 339.9375Q546.625 339.32812 547.1094 337.98438ZM540.1719 334.57812L547.125 334.57812Q546.9844 333.01562 546.3281 332.21875Q545.3281 331.0 543.71875 331.0Q542.2656 331.0 541.2656 331.98438Q540.28125 332.95312 540.1719 334.57812ZM558.5781 342.0L558.5781 329.54688L560.46875 329.54688L560.46875 331.29688Q561.0625 330.39062 562.03125 329.82812Q563.0 329.26562 564.25 329.26562Q565.625 329.26562 566.5 329.84375Q567.3906 330.42188 567.7656 331.45312Q569.2344 329.26562 571.6094 329.26562Q573.4531 329.26562 574.4531 330.29688Q575.4531 331.32812 575.4531 333.45312L575.4531 342.0L573.34375 342.0L573.34375 334.15625Q573.34375 332.89062 573.1406 332.34375Q572.9375 331.78125 572.3906 331.4375Q571.8594 331.09375 571.1406 331.09375Q569.8281 331.09375 568.9531 331.96875Q568.09375 332.84375 568.09375 334.76562L568.09375 342.0L565.9844 342.0L565.9844 333.90625Q565.9844 332.5 565.46875 331.79688Q564.9531 331.09375 563.78125 331.09375Q562.8906 331.09375 562.125 331.5625Q561.375 332.03125 561.03125 332.9375Q560.6875 333.84375 560.6875 335.54688L560.6875 342.0L558.5781 342.0ZM577.7969 335.78125Q577.7969 332.3125 579.71875 330.65625Q581.3281 329.26562 583.6406 329.26562Q586.2031 329.26562 587.8281 330.95312Q589.4531 332.64062 589.4531 335.59375Q589.4531 338.0 588.7344 339.375Q588.0156 340.75 586.6406 341.51562Q585.2656 342.28125 583.6406 342.28125Q581.0156 342.28125 579.40625 340.60938Q577.7969 338.92188 577.7969 335.78125ZM579.96875 335.78125Q579.96875 338.17188 581.0 339.35938Q582.0469 340.54688 583.6406 340.54688Q585.2031 340.54688 586.25 339.35938Q587.2969 338.15625 587.2969 335.70312Q587.2969 333.39062 586.2344 332.20312Q585.1875 331.01562 583.6406 331.01562Q582.0469 331.01562 581.0 332.20312Q579.96875 333.39062 579.96875 335.78125ZM591.4844 346.79688L591.25 344.8125Q591.9531 345.0 592.46875 345.0Q593.1719 345.0 593.59375 344.76562Q594.0156 344.53125 594.28125 344.10938Q594.4844 343.79688 594.9219 342.54688Q594.9844 342.35938 595.1094 342.03125L590.3906 329.54688L592.65625 329.54688L595.25 336.76562Q595.75 338.125 596.15625 339.64062Q596.5156 338.1875 597.0156 336.8125L599.6875 329.54688L601.7969 329.54688L597.0625 342.21875Q596.2969 344.26562 595.875 345.03125Q595.3125 346.07812 594.5781 346.5625Q593.8594 347.04688 592.84375 347.04688Q592.2344 347.04688 591.4844 346.79688ZM612.1094 337.98438L614.28125 338.26562Q613.7656 340.17188 612.375 341.23438Q610.9844 342.28125 608.8125 342.28125Q606.0781 342.28125 604.46875 340.60938Q602.875 338.92188 602.875 335.875Q602.875 332.73438 604.4844 331.0Q606.1094 329.26562 608.6875 329.26562Q611.1875 329.26562 612.7656 330.96875Q614.3594 332.67188 614.3594 335.75Q614.3594 335.9375 614.34375 336.3125L605.0625 336.3125Q605.1719 338.35938 606.21875 339.45312Q607.2656 340.54688 608.8281 340.54688Q609.9844 340.54688 610.7969 339.9375Q611.625 339.32812 612.1094 337.98438ZM605.1719 334.57812L612.125 334.57812Q611.9844 333.01562 611.3281 332.21875Q610.3281 331.0 608.71875 331.0Q607.2656 331.0 606.2656 331.98438Q605.28125 332.95312 605.1719 334.57812ZM616.5781 342.0L616.5781 329.54688L618.4844 329.54688L618.4844 331.32812Q619.8594 329.26562 622.4375 329.26562Q623.5625 329.26562 624.5 329.67188Q625.4531 330.07812 625.9219 330.73438Q626.3906 331.39062 626.5781 332.29688Q626.7031 332.875 626.7031 334.34375L626.7031 342.0L624.59375 342.0L624.59375 334.42188Q624.59375 333.14062 624.34375 332.5Q624.09375 331.85938 623.46875 331.48438Q622.84375 331.09375 622.0 331.09375Q620.65625 331.09375 619.6719 331.95312Q618.6875 332.8125 618.6875 335.20312L618.6875 342.0L616.5781 342.0ZM630.96875 347.04688L629.4531 347.04688Q632.9531 341.42188 632.9531 335.78125Q632.9531 333.57812 632.4531 331.42188Q632.0625 329.65625 631.34375 328.04688Q630.8906 326.98438 629.4531 324.53125L630.96875 324.53125Q633.1719 327.46875 634.21875 330.4375Q635.125 332.98438 635.125 335.78125Q635.125 338.9375 633.90625 341.89062Q632.7031 344.84375 630.96875 347.04688Z" fill-rule="nonzero"/><path fill="#ea4335" d="M147.5 366.0C147.5 369.31372 144.8137 372.0 141.5 372.0C138.1863 372.0 135.5 369.31372 135.5 366.0C135.5 362.68628 138.1863 360.0 141.5 360.0C144.8137 360.0 147.5 362.68628 147.5 366.0Z" fill-rule="nonzero"/><path fill="#1a1a1a" d="M156.57812 368.48438L158.71875 368.29688Q158.875 369.57812 159.42188 370.40625Q159.98438 371.23438 161.15625 371.75Q162.32812 372.25 163.79688 372.25Q165.09375 372.25 166.09375 371.875Q167.09375 371.48438 167.57812 370.8125Q168.0625 370.125 168.0625 369.32812Q168.0625 368.53125 167.59375 367.92188Q167.125 367.3125 166.04688 366.90625Q165.35938 366.64062 162.98438 366.07812Q160.625 365.5 159.67188 365.0Q158.4375 364.35938 157.82812 363.40625Q157.23438 362.4375 157.23438 361.26562Q157.23438 359.95312 157.96875 358.82812Q158.71875 357.70312 160.125 357.125Q161.54688 356.53125 163.28125 356.53125Q165.1875 356.53125 166.64062 357.14062Q168.10938 357.75 168.89062 358.95312Q169.6875 360.14062 169.73438 361.65625L167.5625 361.82812Q167.39062 360.1875 166.375 359.35938Q165.35938 358.53125 163.375 358.53125Q161.3125 358.53125 160.35938 359.29688Q159.42188 360.04688 159.42188 361.10938Q159.42188 362.03125 160.09375 362.625Q160.75 363.23438 163.51562 363.85938Q166.29688 364.48438 167.32812 364.95312Q168.82812 365.64062 169.53125 366.70312Q170.25 367.76562 170.25 369.14062Q170.25 370.51562 169.46875 371.73438Q168.6875 372.9375 167.21875 373.625Q165.75 374.29688 163.90625 374.29688Q161.57812 374.29688 160.0 373.625Q158.42188 372.9375 157.51562 371.57812Q156.625 370.20312 156.57812 368.48438ZM181.60938 369.98438L183.78125 370.26562Q183.26562 372.17188 181.875 373.23438Q180.48438 374.28125 178.3125 374.28125Q175.57812 374.28125 173.96875 372.60938Q172.375 370.92188 172.375 367.875Q172.375 364.73438 173.98438 363.0Q175.60938 361.26562 178.1875 361.26562Q180.6875 361.26562 182.26562 362.96875Q183.85938 364.67188 183.85938 367.75Q183.85938 367.9375 183.84375 368.3125L174.5625 368.3125Q174.67188 370.35938 175.71875 371.45312Q176.76562 372.54688 178.32812 372.54688Q179.48438 372.54688 180.29688 371.9375Q181.125 371.32812 181.60938 369.98438ZM174.67188 366.57812L181.625 366.57812Q181.48438 365.01562 180.82812 364.21875Q179.82812 363.0 178.21875 363.0Q176.76562 363.0 175.76562 363.98438Q174.78125 364.95312 174.67188 366.57812ZM201.15625 374.0L201.15625 372.42188Q199.96875 374.28125 197.67188 374.28125Q196.1875 374.28125 194.9375 373.46875Q193.6875 372.64062 193.0 371.17188Q192.32812 369.70312 192.32812 367.78125Q192.32812 365.92188 192.9375 364.40625Q193.5625 362.89062 194.79688 362.07812Q196.04688 361.26562 197.57812 361.26562Q198.70312 361.26562 199.57812 361.75Q200.46875 362.21875 201.01562 362.98438L201.01562 356.8125L203.10938 356.8125L203.10938 374.0L201.15625 374.0ZM194.48438 367.78125Q194.48438 370.17188 195.48438 371.35938Q196.5 372.54688 197.875 372.54688Q199.26562 372.54688 200.21875 371.42188Q201.1875 370.28125 201.1875 367.96875Q201.1875 365.40625 200.20312 364.21875Q199.21875 363.01562 197.78125 363.01562Q196.375 363.01562 195.42188 364.17188Q194.48438 365.3125 194.48438 367.78125ZM214.60938 369.98438L216.78125 370.26562Q216.26562 372.17188 214.875 373.23438Q213.48438 374.28125 211.3125 374.28125Q208.57812 374.28125 206.96875 372.60938Q205.375 370.92188 205.375 367.875Q205.375 364.73438 206.98438 363.0Q208.60938 361.26562 211.1875 361.26562Q213.6875 361.26562 215.26562 362.96875Q216.85938 364.67188 216.85938 367.75Q216.85938 367.9375 216.84375 368.3125L207.5625 368.3125Q207.67188 370.35938 208.71875 371.45312Q209.76562 372.54688 211.32812 372.54688Q212.48438 372.54688 213.29688 371.9375Q214.125 371.32812 214.60938 369.98438ZM207.67188 366.57812L214.625 366.57812Q214.48438 365.01562 213.82812 364.21875Q212.82812 363.0 211.21875 363.0Q209.76562 363.0 208.76562 363.98438Q207.78125 364.95312 207.67188 366.57812ZM210.10938 360.0L211.65625 356.71875L214.42188 356.71875L211.84375 360.0L210.10938 360.0ZM219.07812 378.76562L219.07812 361.54688L221.0 361.54688L221.0 363.17188Q221.6875 362.21875 222.53125 361.75Q223.39062 361.26562 224.60938 361.26562Q226.20312 361.26562 227.42188 362.09375Q228.64062 362.90625 229.26562 364.40625Q229.89062 365.90625 229.89062 367.6875Q229.89062 369.59375 229.20312 371.125Q228.51562 372.65625 227.20312 373.46875Q225.90625 374.28125 224.46875 374.28125Q223.40625 374.28125 222.5625 373.84375Q221.73438 373.39062 221.1875 372.70312L221.1875 378.76562L219.07812 378.76562ZM221.0 367.84375Q221.0 370.25 221.96875 371.40625Q222.9375 372.54688 224.32812 372.54688Q225.73438 372.54688 226.73438 371.35938Q227.73438 370.17188 227.73438 367.67188Q227.73438 365.29688 226.75 364.10938Q225.78125 362.92188 224.42188 362.92188Q223.0625 362.92188 222.03125 364.1875Q221.0 365.4375 221.0 367.84375ZM231.29688 367.78125Q231.29688 364.3125 233.21875 362.65625Q234.82812 361.26562 237.14062 361.26562Q239.70312 361.26562 241.32812 362.95312Q242.95312 364.64062 242.95312 367.59375Q242.95312 370.0 242.23438 371.375Q241.51562 372.75 240.14062 373.51562Q238.76562 374.28125 237.14062 374.28125Q234.51562 374.28125 232.90625 372.60938Q231.29688 370.92188 231.29688 367.78125ZM233.46875 367.78125Q233.46875 370.17188 234.5 371.35938Q235.54688 372.54688 237.14062 372.54688Q238.70312 372.54688 239.75 371.35938Q240.79688 370.15625 240.79688 367.70312Q240.79688 365.39062 239.73438 364.20312Q238.6875 363.01562 237.14062 363.01562Q235.54688 363.01562 234.5 364.20312Q233.46875 365.39062 233.46875 367.78125ZM245.0625 374.0L245.0625 361.54688L246.95312 361.54688L246.95312 363.4375Q247.6875 362.10938 248.29688 361.6875Q248.92188 361.26562 249.65625 361.26562Q250.71875 361.26562 251.82812 361.95312L251.09375 363.90625Q250.32812 363.45312 249.54688 363.45312Q248.85938 363.45312 248.29688 363.875Q247.75 364.28125 247.51562 365.01562Q247.17188 366.14062 247.17188 367.48438L247.17188 374.0L245.0625 374.0ZM257.6875 372.10938L258.0 373.96875Q257.10938 374.17188 256.40625 374.17188Q255.25 374.17188 254.60938 373.8125Q253.98438 373.4375 253.71875 372.84375Q253.46875 372.25 253.46875 370.35938L253.46875 363.1875L251.92188 363.1875L251.92188 361.54688L253.46875 361.54688L253.46875 358.46875L255.5625 357.20312L255.5625 361.54688L257.6875 361.54688L257.6875 363.1875L255.5625 363.1875L255.5625 370.46875Q255.5625 371.375 255.67188 371.64062Q255.79688 371.89062 256.04688 372.04688Q256.29688 372.1875 256.76562 372.1875Q257.10938 372.1875 257.6875 372.10938ZM268.60938 369.98438L270.78125 370.26562Q270.26562 372.17188 268.875 373.23438Q267.48438 374.28125 265.3125 374.28125Q262.57812 374.28125 260.96875 372.60938Q259.375 370.92188 259.375 367.875Q259.375 364.73438 260.98438 363.0Q262.60938 361.26562 265.1875 361.26562Q267.6875 361.26562 269.26562 362.96875Q270.85938 364.67188 270.85938 367.75Q270.85938 367.9375 270.84375 368.3125L261.5625 368.3125Q261.67188 370.35938 262.71875 371.45312Q263.76562 372.54688 265.32812 372.54688Q266.48438 372.54688 267.29688 371.9375Q268.125 371.32812 268.60938 369.98438ZM261.67188 366.57812L268.625 366.57812Q268.48438 365.01562 267.82812 364.21875Q266.82812 363.0 265.21875 363.0Q263.76562 363.0 262.76562 363.98438Q261.78125 364.95312 261.67188 366.57812ZM273.0625 374.0L273.0625 361.54688L274.95312 361.54688L274.95312 363.4375Q275.6875 362.10938 276.29688 361.6875Q276.92188 361.26562 277.65625 361.26562Q278.71875 361.26562 279.82812 361.95312L279.09375 363.90625Q278.32812 363.45312 277.54688 363.45312Q276.85938 363.45312 276.29688 363.875Q275.75 364.28125 275.51562 365.01562Q275.17188 366.14062 275.17188 367.48438L275.17188 374.0L273.0625 374.0ZM292.10938 379.04688Q290.375 376.84375 289.15625 373.89062Q287.95312 370.9375 287.95312 367.78125Q287.95312 364.98438 288.85938 362.4375Q289.90625 359.46875 292.10938 356.53125L293.625 356.53125Q292.20312 358.96875 291.75 360.0Q291.03125 361.625 290.625 363.375Q290.125 365.57812 290.125 367.78125Q290.125 373.42188 293.625 379.04688L292.10938 379.04688ZM295.51562 369.46875L297.625 369.1875Q297.98438 370.96875 298.85938 371.76562Q299.73438 372.5625 300.98438 372.5625Q302.46875 372.5625 303.48438 371.53125Q304.51562 370.5 304.51562 368.96875Q304.51562 367.51562 303.5625 366.57812Q302.625 365.625 301.15625 365.625Q300.5625 365.625 299.67188 365.85938L299.90625 364.01562Q300.10938 364.03125 300.25 364.03125Q301.59375 364.03125 302.67188 363.32812Q303.75 362.625 303.75 361.17188Q303.75 360.0 302.95312 359.25Q302.17188 358.48438 300.9375 358.48438Q299.70312 358.48438 298.875 359.26562Q298.0625 360.03125 297.82812 361.57812L295.71875 361.20312Q296.10938 359.07812 297.46875 357.92188Q298.84375 356.75 300.89062 356.75Q302.29688 356.75 303.46875 357.35938Q304.65625 357.95312 305.28125 359.0Q305.92188 360.04688 305.92188 361.21875Q305.92188 362.32812 305.3125 363.25Q304.71875 364.15625 303.54688 364.6875Q305.07812 365.04688 305.92188 366.15625Q306.76562 367.26562 306.76562 368.92188Q306.76562 371.17188 305.125 372.75Q303.48438 374.3125 300.96875 374.3125Q298.70312 374.3125 297.20312 372.96875Q295.71875 371.60938 295.51562 369.46875ZM316.07812 374.0L316.07812 361.54688L317.96875 361.54688L317.96875 363.29688Q318.5625 362.39062 319.53125 361.82812Q320.5 361.26562 321.75 361.26562Q323.125 361.26562 324.0 361.84375Q324.89062 362.42188 325.26562 363.45312Q326.73438 361.26562 329.10938 361.26562Q330.95312 361.26562 331.95312 362.29688Q332.95312 363.32812 332.95312 365.45312L332.95312 374.0L330.84375 374.0L330.84375 366.15625Q330.84375 364.89062 330.64062 364.34375Q330.4375 363.78125 329.89062 363.4375Q329.35938 363.09375 328.64062 363.09375Q327.32812 363.09375 326.45312 363.96875Q325.59375 364.84375 325.59375 366.76562L325.59375 374.0L323.48438 374.0L323.48438 365.90625Q323.48438 364.5 322.96875 363.79688Q322.45312 363.09375 321.28125 363.09375Q320.39062 363.09375 319.625 363.5625Q318.875 364.03125 318.53125 364.9375Q318.1875 365.84375 318.1875 367.54688L318.1875 374.0L316.07812 374.0ZM335.29688 367.78125Q335.29688 364.3125 337.21875 362.65625Q338.82812 361.26562 341.14062 361.26562Q343.70312 361.26562 345.32812 362.95312Q346.95312 364.64062 346.95312 367.59375Q346.95312 370.0 346.23438 371.375Q345.51562 372.75 344.14062 373.51562Q342.76562 374.28125 341.14062 374.28125Q338.51562 374.28125 336.90625 372.60938Q335.29688 370.92188 335.29688 367.78125ZM337.46875 367.78125Q337.46875 370.17188 338.5 371.35938Q339.54688 372.54688 341.14062 372.54688Q342.70312 372.54688 343.75 371.35938Q344.79688 370.15625 344.79688 367.70312Q344.79688 365.39062 343.73438 364.20312Q342.6875 363.01562 341.14062 363.01562Q339.54688 363.01562 338.5 364.20312Q337.46875 365.39062 337.46875 367.78125ZM349.0625 374.0L349.0625 361.54688L350.95312 361.54688L350.95312 363.4375Q351.6875 362.10938 352.29688 361.6875Q352.92188 361.26562 353.65625 361.26562Q354.71875 361.26562 355.82812 361.95312L355.09375 363.90625Q354.32812 363.45312 353.54688 363.45312Q352.85938 363.45312 352.29688 363.875Q351.75 364.28125 351.51562 365.01562Q351.17188 366.14062 351.17188 367.48438L351.17188 374.0L349.0625 374.0ZM361.6875 372.10938L362.0 373.96875Q361.10938 374.17188 360.40625 374.17188Q359.25 374.17188 358.60938 373.8125Q357.98438 373.4375 357.71875 372.84375Q357.46875 372.25 357.46875 370.35938L357.46875 363.1875L355.92188 363.1875L355.92188 361.54688L357.46875 361.54688L357.46875 358.46875L359.5625 357.20312L359.5625 361.54688L361.6875 361.54688L361.6875 363.1875L359.5625 363.1875L359.5625 370.46875Q359.5625 371.375 359.67188 371.64062Q359.79688 371.89062 360.04688 372.04688Q360.29688 372.1875 360.76562 372.1875Q361.10938 372.1875 361.6875 372.10938ZM363.23438 370.28125L365.32812 369.95312Q365.5 371.20312 366.29688 371.875Q367.10938 372.54688 368.54688 372.54688Q370.0 372.54688 370.70312 371.95312Q371.40625 371.35938 371.40625 370.5625Q371.40625 369.84375 370.78125 369.4375Q370.35938 369.15625 368.625 368.71875Q366.3125 368.14062 365.40625 367.71875Q364.51562 367.28125 364.04688 366.53125Q363.59375 365.76562 363.59375 364.85938Q363.59375 364.03125 363.96875 363.32812Q364.35938 362.60938 365.01562 362.14062Q365.5 361.78125 366.34375 361.53125Q367.20312 361.26562 368.17188 361.26562Q369.64062 361.26562 370.75 361.6875Q371.85938 362.10938 372.375 362.84375Q372.90625 363.5625 373.10938 364.76562L371.04688 365.04688Q370.90625 364.07812 370.23438 363.54688Q369.5625 363.0 368.32812 363.0Q366.875 363.0 366.25 363.48438Q365.625 363.96875 365.625 364.60938Q365.625 365.01562 365.89062 365.34375Q366.14062 365.6875 366.70312 365.90625Q367.01562 366.03125 368.5625 366.45312Q370.79688 367.04688 371.67188 367.4375Q372.5625 367.8125 373.0625 368.54688Q373.57812 369.26562 373.57812 370.34375Q373.57812 371.39062 372.95312 372.32812Q372.34375 373.26562 371.1875 373.78125Q370.03125 374.28125 368.5625 374.28125Q366.14062 374.28125 364.85938 373.28125Q363.59375 372.26562 363.23438 370.28125ZM391.15625 374.0L391.15625 372.42188Q389.96875 374.28125 387.67188 374.28125Q386.1875 374.28125 384.9375 373.46875Q383.6875 372.64062 383.0 371.17188Q382.32812 369.70312 382.32812 367.78125Q382.32812 365.92188 382.9375 364.40625Q383.5625 362.89062 384.79688 362.07812Q386.04688 361.26562 387.57812 361.26562Q388.70312 361.26562 389.57812 361.75Q390.46875 362.21875 391.01562 362.98438L391.01562 356.8125L393.10938 356.8125L393.10938 374.0L391.15625 374.0ZM384.48438 367.78125Q384.48438 370.17188 385.48438 371.35938Q386.5 372.54688 387.875 372.54688Q389.26562 372.54688 390.21875 371.42188Q391.1875 370.28125 391.1875 367.96875Q391.1875 365.40625 390.20312 364.21875Q389.21875 363.01562 387.78125 363.01562Q386.375 363.01562 385.42188 364.17188Q384.48438 365.3125 384.48438 367.78125ZM396.09375 362.90625L395.5625 359.6875L395.5625 356.8125L397.95312 356.8125L397.95312 359.6875L397.39062 362.90625L396.09375 362.90625ZM409.20312 372.46875Q408.03125 373.45312 406.9375 373.875Q405.85938 374.28125 404.625 374.28125Q402.57812 374.28125 401.46875 373.28125Q400.375 372.28125 400.375 370.71875Q400.375 369.79688 400.78125 369.04688Q401.20312 368.29688 401.875 367.84375Q402.54688 367.375 403.39062 367.14062Q404.01562 366.98438 405.26562 366.82812Q407.82812 366.51562 409.03125 366.09375Q409.04688 365.67188 409.04688 365.54688Q409.04688 364.26562 408.4375 363.73438Q407.64062 363.01562 406.04688 363.01562Q404.54688 363.01562 403.84375 363.54688Q403.14062 364.0625 402.79688 365.39062L400.73438 365.10938Q401.01562 363.78125 401.65625 362.96875Q402.29688 362.15625 403.51562 361.71875Q404.73438 361.26562 406.34375 361.26562Q407.9375 361.26562 408.9375 361.64062Q409.9375 362.01562 410.40625 362.59375Q410.875 363.15625 411.0625 364.03125Q411.15625 364.5625 411.15625 365.96875L411.15625 368.78125Q411.15625 371.71875 411.29688 372.5Q411.4375 373.28125 411.82812 374.0L409.625 374.0Q409.29688 373.34375 409.20312 372.46875ZM409.03125 367.75Q407.875 368.21875 405.57812 368.54688Q404.28125 368.73438 403.73438 368.96875Q403.20312 369.20312 402.90625 369.65625Q402.625 370.10938 402.625 370.65625Q402.625 371.5 403.25 372.0625Q403.89062 372.625 405.125 372.625Q406.34375 372.625 407.29688 372.09375Q408.25 371.5625 408.6875 370.64062Q409.03125 369.92188 409.03125 368.53125L409.03125 367.75ZM406.53125 358.01562L405.20312 360.0L402.79688 360.0L405.32812 356.71875L407.57812 356.71875L410.21875 360.0L407.82812 360.0L406.53125 358.01562ZM413.70312 375.03125L415.75 375.34375Q415.875 376.28125 416.46875 376.71875Q417.25 377.3125 418.60938 377.3125Q420.07812 377.3125 420.875 376.71875Q421.67188 376.14062 421.95312 375.07812Q422.10938 374.4375 422.09375 372.375Q420.71875 374.0 418.65625 374.0Q416.09375 374.0 414.6875 372.15625Q413.28125 370.29688 413.28125 367.70312Q413.28125 365.92188 413.92188 364.42188Q414.5625 362.90625 415.78125 362.09375Q417.01562 361.26562 418.67188 361.26562Q420.875 361.26562 422.29688 363.04688L422.29688 361.54688L424.25 361.54688L424.25 372.3125Q424.25 375.21875 423.65625 376.42188Q423.0625 377.64062 421.78125 378.34375Q420.5 379.04688 418.625 379.04688Q416.39062 379.04688 415.01562 378.04688Q413.65625 377.04688 413.70312 375.03125ZM415.4375 367.54688Q415.4375 370.0 416.40625 371.125Q417.39062 372.25 418.85938 372.25Q420.3125 372.25 421.29688 371.14062Q422.28125 370.01562 422.28125 367.625Q422.28125 365.34375 421.26562 364.1875Q420.25 363.01562 418.8125 363.01562Q417.40625 363.01562 416.42188 364.15625Q415.4375 365.29688 415.4375 367.54688ZM435.60938 369.98438L437.78125 370.26562Q437.26562 372.17188 435.875 373.23438Q434.48438 374.28125 432.3125 374.28125Q429.57812 374.28125 427.96875 372.60938Q426.375 370.92188 426.375 367.875Q426.375 364.73438 427.98438 363.0Q429.60938 361.26562 432.1875 361.26562Q434.6875 361.26562 436.26562 362.96875Q437.85938 364.67188 437.85938 367.75Q437.85938 367.9375 437.84375 368.3125L428.5625 368.3125Q428.67188 370.35938 429.71875 371.45312Q430.76562 372.54688 432.32812 372.54688Q433.48438 372.54688 434.29688 371.9375Q435.125 371.32812 435.60938 369.98438ZM428.67188 366.57812L435.625 366.57812Q435.48438 365.01562 434.82812 364.21875Q433.82812 363.0 432.21875 363.0Q430.76562 363.0 429.76562 363.98438Q428.78125 364.95312 428.67188 366.57812ZM455.20312 372.46875Q454.03125 373.45312 452.9375 373.875Q451.85938 374.28125 450.625 374.28125Q448.57812 374.28125 447.46875 373.28125Q446.375 372.28125 446.375 370.71875Q446.375 369.79688 446.78125 369.04688Q447.20312 368.29688 447.875 367.84375Q448.54688 367.375 449.39062 367.14062Q450.01562 366.98438 451.26562 366.82812Q453.82812 366.51562 455.03125 366.09375Q455.04688 365.67188 455.04688 365.54688Q455.04688 364.26562 454.4375 363.73438Q453.64062 363.01562 452.04688 363.01562Q450.54688 363.01562 449.84375 363.54688Q449.14062 364.0625 448.79688 365.39062L446.73438 365.10938Q447.01562 363.78125 447.65625 362.96875Q448.29688 362.15625 449.51562 361.71875Q450.73438 361.26562 452.34375 361.26562Q453.9375 361.26562 454.9375 361.64062Q455.9375 362.01562 456.40625 362.59375Q456.875 363.15625 457.0625 364.03125Q457.15625 364.5625 457.15625 365.96875L457.15625 368.78125Q457.15625 371.71875 457.29688 372.5Q457.4375 373.28125 457.82812 374.0L455.625 374.0Q455.29688 373.34375 455.20312 372.46875ZM455.03125 367.75Q453.875 368.21875 451.57812 368.54688Q450.28125 368.73438 449.73438 368.96875Q449.20312 369.20312 448.90625 369.65625Q448.625 370.10938 448.625 370.65625Q448.625 371.5 449.25 372.0625Q449.89062 372.625 451.125 372.625Q452.34375 372.625 453.29688 372.09375Q454.25 371.5625 454.6875 370.64062Q455.03125 369.92188 455.03125 368.53125L455.03125 367.75ZM463.54688 374.0L458.8125 361.54688L461.03125 361.54688L463.70312 369.0Q464.14062 370.21875 464.5 371.51562Q464.78125 370.53125 465.28125 369.14062L468.04688 361.54688L470.21875 361.54688L465.51562 374.0L463.54688 374.0ZM480.20312 372.46875Q479.03125 373.45312 477.9375 373.875Q476.85938 374.28125 475.625 374.28125Q473.57812 374.28125 472.46875 373.28125Q471.375 372.28125 471.375 370.71875Q471.375 369.79688 471.78125 369.04688Q472.20312 368.29688 472.875 367.84375Q473.54688 367.375 474.39062 367.14062Q475.01562 366.98438 476.26562 366.82812Q478.82812 366.51562 480.03125 366.09375Q480.04688 365.67188 480.04688 365.54688Q480.04688 364.26562 479.4375 363.73438Q478.64062 363.01562 477.04688 363.01562Q475.54688 363.01562 474.84375 363.54688Q474.14062 364.0625 473.79688 365.39062L471.73438 365.10938Q472.01562 363.78125 472.65625 362.96875Q473.29688 362.15625 474.51562 361.71875Q475.73438 361.26562 477.34375 361.26562Q478.9375 361.26562 479.9375 361.64062Q480.9375 362.01562 481.40625 362.59375Q481.875 363.15625 482.0625 364.03125Q482.15625 364.5625 482.15625 365.96875L482.15625 368.78125Q482.15625 371.71875 482.29688 372.5Q482.4375 373.28125 482.82812 374.0L480.625 374.0Q480.29688 373.34375 480.20312 372.46875ZM480.03125 367.75Q478.875 368.21875 476.57812 368.54688Q475.28125 368.73438 474.73438 368.96875Q474.20312 369.20312 473.90625 369.65625Q473.625 370.10938 473.625 370.65625Q473.625 371.5 474.25 372.0625Q474.89062 372.625 476.125 372.625Q477.34375 372.625 478.29688 372.09375Q479.25 371.5625 479.6875 370.64062Q480.03125 369.92188 480.03125 368.53125L480.03125 367.75ZM485.07812 374.0L485.07812 361.54688L486.98438 361.54688L486.98438 363.32812Q488.35938 361.26562 490.9375 361.26562Q492.0625 361.26562 493.0 361.67188Q493.95312 362.07812 494.42188 362.73438Q494.89062 363.39062 495.07812 364.29688Q495.20312 364.875 495.20312 366.34375L495.20312 374.0L493.09375 374.0L493.09375 366.42188Q493.09375 365.14062 492.84375 364.5Q492.59375 363.85938 491.96875 363.48438Q491.34375 363.09375 490.5 363.09375Q489.15625 363.09375 488.17188 363.95312Q487.1875 364.8125 487.1875 367.20312L487.1875 374.0L485.07812 374.0ZM506.20312 369.4375L508.28125 369.70312Q507.9375 371.85938 506.53125 373.07812Q505.14062 374.28125 503.09375 374.28125Q500.54688 374.28125 498.98438 372.60938Q497.4375 370.9375 497.4375 367.82812Q497.4375 365.8125 498.10938 364.29688Q498.78125 362.78125 500.14062 362.03125Q501.5 361.26562 503.10938 361.26562Q505.14062 361.26562 506.42188 362.29688Q507.71875 363.32812 508.07812 365.20312L506.03125 365.53125Q505.73438 364.26562 504.98438 363.64062Q504.25 363.0 503.1875 363.0Q501.59375 363.0 500.59375 364.15625Q499.60938 365.29688 499.60938 367.76562Q499.60938 370.26562 500.5625 371.40625Q501.53125 372.54688 503.07812 372.54688Q504.3125 372.54688 505.14062 371.78125Q505.98438 371.01562 506.20312 369.4375ZM518.6094 369.98438L520.78125 370.26562Q520.2656 372.17188 518.875 373.23438Q517.4844 374.28125 515.3125 374.28125Q512.5781 374.28125 510.96875 372.60938Q509.375 370.92188 509.375 367.875Q509.375 364.73438 510.98438 363.0Q512.6094 361.26562 515.1875 361.26562Q517.6875 361.26562 519.2656 362.96875Q520.8594 364.67188 520.8594 367.75Q520.8594 367.9375 520.84375 368.3125L511.5625 368.3125Q511.67188 370.35938 512.71875 371.45312Q513.7656 372.54688 515.3281 372.54688Q516.4844 372.54688 517.2969 371.9375Q518.125 371.32812 518.6094 369.98438ZM511.67188 366.57812L518.625 366.57812Q518.4844 365.01562 517.8281 364.21875Q516.8281 363.0 515.21875 363.0Q513.7656 363.0 512.7656 363.98438Q511.78125 364.95312 511.67188 366.57812ZM514.1094 360.0L515.65625 356.71875L518.4219 356.71875L515.84375 360.0L514.1094 360.0ZM524.46875 379.04688L522.9531 379.04688Q526.4531 373.42188 526.4531 367.78125Q526.4531 365.57812 525.9531 363.42188Q525.5625 361.65625 524.84375 360.04688Q524.3906 358.98438 522.9531 356.53125L524.46875 356.53125Q526.6719 359.46875 527.71875 362.4375Q528.625 364.98438 528.625 367.78125Q528.625 370.9375 527.40625 373.89062Q526.2031 376.84375 524.46875 379.04688Z" fill-rule="nonzero"/></svg>