<svg version="1.1" viewBox="0.0 0.0 625.0 400.0" fill="none" stroke="none" stroke-linecap="square" stroke-miterlimit="10" width="625" height="400" xmlns:xlink="http://www.w3.org/1999/xlink" xmlns="http://www.w3.org/2000/svg"><path fill="#ffffff" d="M0 0L625.0 0L625.0 400.0L0 400.0L0 0Z" fill-rule="nonzero"/><path fill="#4285f4" d="M312.5 20.0C336.43674 20.0 360.0659 25.393198 381.63214 35.77896L312.5 179.33333Z" fill-rule="nonzero"/><path fill="#ea4335" d="M381.63214 35.77896C454.6956 70.964455 489.6758 155.41425 462.8921 231.9578C436.10834 308.50134 356.10608 352.71704 277.04498 334.67184C197.9839 316.62668 145.08884 242.07805 154.16852 161.49367C163.2482 80.90926 231.4057 20.0 312.5 20.0L312.5 179.33333Z" fill-rule="nonzero"/><path fill="#000000" d="M246.69385 290.4295L244.92822 290.4295L244.92822 279.22638Q244.30322 279.83575 243.27197 280.44513Q242.24072 281.03888 241.4126 281.35138L241.4126 279.64825Q242.89697 278.96075 243.99072 277.97638Q245.1001 276.97638 245.55322 276.0545L246.69385 276.0545L246.69385 290.4295ZM251.08447 286.64825L252.83447 286.41388Q253.14697 287.91388 253.86572 288.57013Q254.6001 289.22638 255.64697 289.22638Q256.88135 289.22638 257.7251 288.367Q258.58447 287.50763 258.58447 286.242Q258.58447 285.02325 257.7876 284.242Q257.00635 283.46075 255.7876 283.46075Q255.2876 283.46075 254.55322 283.64825L254.74072 282.10138Q254.9126 282.13263 255.02197 282.13263Q256.14697 282.13263 257.0376 281.5545Q257.94385 280.96075 257.94385 279.742Q257.94385 278.77325 257.2876 278.13263Q256.63135 277.492 255.6001 277.492Q254.58447 277.492 253.89697 278.14825Q253.20947 278.78888 253.02197 280.07013L251.25635 279.75763Q251.58447 277.992 252.7251 277.02325Q253.86572 276.0545 255.56885 276.0545Q256.74072 276.0545 257.7251 276.5545Q258.70947 277.0545 259.2251 277.9295Q259.75635 278.8045 259.75635 279.77325Q259.75635 280.69513 259.25635 281.46075Q258.75635 282.22638 257.7876 282.6795Q259.05322 282.96075 259.75635 283.89825Q260.45947 284.82013 260.45947 286.19513Q260.45947 288.07013 259.08447 289.38263Q257.7251 290.6795 255.63135 290.6795Q253.74072 290.6795 252.49072 289.5545Q251.25635 288.4295 251.08447 286.64825ZM271.9126 294.63263Q270.45947 292.8045 269.45947 290.35138Q268.45947 287.88263 268.45947 285.242Q268.45947 282.91388 269.20947 280.78888Q270.08447 278.32013 271.9126 275.867L273.17822 275.867Q271.99072 277.89825 271.61572 278.77325Q271.02197 280.117 270.67822 281.58575Q270.25635 283.41388 270.25635 285.25763Q270.25635 289.94513 273.17822 294.63263L271.9126 294.63263ZM275.33447 287.117L277.02197 286.96075Q277.24072 288.14825 277.83447 288.69513Q278.44385 289.22638 279.39697 289.22638Q280.20947 289.22638 280.81885 288.867Q281.42822 288.492 281.81885 287.867Q282.20947 287.242 282.4751 286.19513Q282.74072 285.13263 282.74072 284.03888Q282.74072 283.9295 282.7251 283.69513Q282.19385 284.52325 281.2876 285.0545Q280.38135 285.57013 279.30322 285.57013Q277.5376 285.57013 276.30322 284.28888Q275.06885 282.992 275.06885 280.88263Q275.06885 278.71075 276.3501 277.38263Q277.64697 276.0545 279.56885 276.0545Q280.9751 276.0545 282.13135 276.8045Q283.2876 277.5545 283.88135 278.94513Q284.49072 280.33575 284.49072 282.97638Q284.49072 285.72638 283.88135 287.35138Q283.2876 288.97638 282.11572 289.83575Q280.94385 290.6795 279.36572 290.6795Q277.67822 290.6795 276.61572 289.742Q275.55322 288.8045 275.33447 287.117ZM282.5376 280.8045Q282.5376 279.28888 281.7251 278.39825Q280.92822 277.50763 279.7876 277.50763Q278.61572 277.50763 277.74072 278.47638Q276.88135 279.4295 276.88135 280.94513Q276.88135 282.32013 277.69385 283.1795Q278.52197 284.02325 279.74072 284.02325Q280.95947 284.02325 281.74072 283.1795Q282.5376 282.32013 282.5376 280.8045ZM295.30322 288.742L295.30322 290.4295L285.8501 290.4295Q285.83447 289.78888 286.05322 289.21075Q286.4126 288.242 287.20947 287.3045Q288.00635 286.367 289.50635 285.13263Q291.8501 283.22638 292.6626 282.117Q293.49072 280.992 293.49072 279.992Q293.49072 278.94513 292.74072 278.22638Q291.99072 277.50763 290.7876 277.50763Q289.52197 277.50763 288.75635 278.27325Q287.99072 279.03888 287.99072 280.38263L286.17822 280.19513Q286.36572 278.1795 287.56885 277.117Q288.7876 276.0545 290.83447 276.0545Q292.88135 276.0545 294.08447 277.19513Q295.2876 278.33575 295.2876 280.02325Q295.2876 280.88263 294.92822 281.72638Q294.58447 282.5545 293.77197 283.47638Q292.95947 284.38263 291.06885 285.992Q289.4751 287.32013 289.02197 287.78888Q288.58447 288.25763 288.2876 288.742L295.30322 288.742ZM298.02197 290.4295L298.02197 288.4295L300.02197 288.4295L300.02197 290.4295Q300.02197 291.53888 299.63135 292.21075Q299.24072 292.89825 298.39697 293.25763L297.89697 292.50763Q298.45947 292.27325 298.7251 291.78888Q298.99072 291.32013 299.02197 290.4295L298.02197 290.4295ZM303.33447 287.117L305.02197 286.96075Q305.24072 288.14825 305.83447 288.69513Q306.44385 289.22638 307.39697 289.22638Q308.20947 289.22638 308.81885 288.867Q309.42822 288.492 309.81885 287.867Q310.20947 287.242 310.4751 286.19513Q310.74072 285.13263 310.74072 284.03888Q310.74072 283.9295 310.7251 283.69513Q310.19385 284.52325 309.2876 285.0545Q308.38135 285.57013 307.30322 285.57013Q305.5376 285.57013 304.30322 284.28888Q303.06885 282.992 303.06885 280.88263Q303.06885 278.71075 304.3501 277.38263Q305.64697 276.0545 307.56885 276.0545Q308.9751 276.0545 310.13135 276.8045Q311.2876 277.5545 311.88135 278.94513Q312.49072 280.33575 312.49072 282.97638Q312.49072 285.72638 311.88135 287.35138Q311.2876 288.97638 310.11572 289.83575Q308.94385 290.6795 307.36572 290.6795Q305.67822 290.6795 304.61572 289.742Q303.55322 288.8045 303.33447 287.117ZM310.5376 280.8045Q310.5376 279.28888 309.7251 278.39825Q308.92822 277.50763 307.7876 277.50763Q306.61572 277.50763 305.74072 278.47638Q304.88135 279.4295 304.88135 280.94513Q304.88135 282.32013 305.69385 283.1795Q306.52197 284.02325 307.74072 284.02325Q308.95947 284.02325 309.74072 283.1795Q310.5376 282.32013 310.5376 280.8045ZM314.39697 279.5545Q314.39697 278.02325 315.1626 276.94513Q315.94385 275.867 317.4126 275.867Q318.75635 275.867 319.63135 276.83575Q320.52197 277.78888 320.52197 279.66388Q320.52197 281.47638 319.63135 282.46075Q318.74072 283.4295 317.42822 283.4295Q316.13135 283.4295 315.25635 282.47638Q314.39697 281.50763 314.39697 279.5545ZM317.45947 277.08575Q316.80322 277.08575 316.36572 277.64825Q315.94385 278.21075 315.94385 279.72638Q315.94385 281.10138 316.38135 281.66388Q316.81885 282.22638 317.45947 282.22638Q318.13135 282.22638 318.55322 281.66388Q318.99072 281.08575 318.99072 279.58575Q318.99072 278.19513 318.55322 277.64825Q318.11572 277.08575 317.45947 277.08575ZM317.4751 290.96075L325.30322 275.867L326.7251 275.867L318.92822 290.96075L317.4751 290.96075ZM323.6626 287.07013Q323.6626 285.52325 324.42822 284.46075Q325.20947 283.38263 326.67822 283.38263Q328.02197 283.38263 328.89697 284.35138Q329.7876 285.3045 329.7876 287.1795Q329.7876 288.992 328.89697 289.97638Q328.00635 290.96075 326.69385 290.96075Q325.39697 290.96075 324.52197 289.992Q323.6626 289.00763 323.6626 287.07013ZM326.7251 284.60138Q326.06885 284.60138 325.63135 285.16388Q325.19385 285.72638 325.19385 287.242Q325.19385 288.617 325.63135 289.1795Q326.06885 289.742 326.7251 289.742Q327.39697 289.742 327.81885 289.1795Q328.25635 288.617 328.25635 287.10138Q328.25635 285.72638 327.81885 285.16388Q327.38135 284.60138 326.7251 284.60138ZM333.70947 294.63263L332.45947 294.63263Q335.36572 289.94513 335.36572 285.25763Q335.36572 283.41388 334.95947 281.617Q334.61572 280.14825 334.02197 278.8045Q333.64697 277.91388 332.45947 275.867L333.70947 275.867Q335.55322 278.32013 336.42822 280.78888Q337.17822 282.91388 337.17822 285.242Q337.17822 287.88263 336.1626 290.35138Q335.1626 292.8045 333.70947 294.63263Z" fill-rule="nonzero"/><path fill="#4285f4" d="M256.5 366.0C256.5 369.31372 253.8137 372.0 250.5 372.0C247.1863 372.0 244.5 369.31372 244.5 366.0C244.5 362.68628 247.1863 360.0 250.5 360.0C253.8137 360.0 256.5 362.68628 256.5 366.0Z" fill-rule="nonzero"/><path fill="#1a1a1a" d="M265.65625 365.625Q265.65625 361.35938 267.95312 358.9375Q270.25 356.51562 273.89062 356.51562Q276.26562 356.51562 278.17188 357.65625Q280.09375 358.78125 281.09375 360.82812Q282.09375 362.85938 282.09375 365.4375Q282.09375 368.04688 281.03125 370.10938Q279.98438 372.17188 278.04688 373.23438Q276.10938 374.29688 273.875 374.29688Q271.45312 374.29688 269.53125 373.125Q267.625 371.95312 266.64062 369.92188Q265.65625 367.89062 265.65625 365.625ZM268.0 365.67188Q268.0 368.76562 269.67188 370.5625Q271.34375 372.34375 273.85938 372.34375Q276.4375 372.34375 278.09375 370.54688Q279.75 368.73438 279.75 365.42188Q279.75 363.32812 279.03125 361.76562Q278.32812 360.1875 276.95312 359.32812Q275.59375 358.46875 273.90625 358.46875Q271.48438 358.46875 269.73438 360.125Q268.0 361.78125 268.0 365.67188ZM293.23438 374.0L293.23438 372.17188Q291.78125 374.28125 289.29688 374.28125Q288.1875 374.28125 287.23438 373.85938Q286.28125 373.4375 285.8125 372.79688Q285.35938 372.15625 285.17188 371.23438Q285.03125 370.60938 285.03125 369.26562L285.03125 361.54688L287.14062 361.54688L287.14062 368.45312Q287.14062 370.10938 287.28125 370.6875Q287.46875 371.51562 288.10938 372.0Q288.76562 372.46875 289.71875 372.46875Q290.65625 372.46875 291.48438 371.98438Q292.32812 371.48438 292.67188 370.65625Q293.01562 369.8125 293.01562 368.21875L293.01562 361.54688L295.125 361.54688L295.125 374.0L293.23438 374.0ZM298.09375 359.25L298.09375 356.8125L300.20312 356.8125L300.20312 359.25L298.09375 359.25ZM298.09375 374.0L298.09375 361.54688L300.20312 361.54688L300.20312 374.0L298.09375 374.0Z" fill-rule="nonzero"/><path fill="#ea4335" d="M329.5 366.0C329.5 369.31372 326.81372 372.0 323.5 372.0C320.18628 372.0 317.5 369.31372 317.5 366.0C317.5 362.68628 320.18628 360.0 323.5 360.0C326.81372 360.0 329.5 362.68628 329.5 366.0Z" fill-rule="nonzero"/><path fill="#1a1a1a" d="M339.32812 374.0L339.32812 356.8125L341.65625 356.8125L350.6875 370.3125L350.6875 356.8125L352.85938 356.8125L352.85938 374.0L350.53125 374.0L341.51562 360.5L341.51562 374.0L339.32812 374.0ZM355.29688 367.78125Q355.29688 364.3125 357.21875 362.65625Q358.82812 361.26562 361.14062 361.26562Q363.70312 361.26562 365.32812 362.95312Q366.95312 364.64062 366.95312 367.59375Q366.95312 370.0 366.23438 371.375Q365.51562 372.75 364.14062 373.51562Q362.76562 374.28125 361.14062 374.28125Q358.51562 374.28125 356.90625 372.60938Q355.29688 370.92188 355.29688 367.78125ZM357.46875 367.78125Q357.46875 370.17188 358.5 371.35938Q359.54688 372.54688 361.14062 372.54688Q362.70312 372.54688 363.75 371.35938Q364.79688 370.15625 364.79688 367.70312Q364.79688 365.39062 363.73438 364.20312Q362.6875 363.01562 361.14062 363.01562Q359.54688 363.01562 358.5 364.20312Q357.46875 365.39062 357.46875 367.78125ZM369.07812 374.0L369.07812 361.54688L370.98438 361.54688L370.98438 363.32812Q372.35938 361.26562 374.9375 361.26562Q376.0625 361.26562 377.0 361.67188Q377.95312 362.07812 378.42188 362.73438Q378.89062 363.39062 379.07812 364.29688Q379.20312 364.875 379.20312 366.34375L379.20312 374.0L377.09375 374.0L377.09375 366.42188Q377.09375 365.14062 376.84375 364.5Q376.59375 363.85938 375.96875 363.48438Q375.34375 363.09375 374.5 363.09375Q373.15625 363.09375 372.17188 363.95312Q371.1875 364.8125 371.1875 367.20312L371.1875 374.0L369.07812 374.0Z" fill-rule="nonzero"/></svg>