<svg version="1.1" viewBox="0.0 0.0 625.0 400.0" fill="none" stroke="none" stroke-linecap="square" stroke-miterlimit="10" width="625" height="400" xmlns:xlink="http://www.w3.org/1999/xlink" xmlns="http://www.w3.org/2000/svg"><path fill="#ffffff" d="M0 0L625.0 0L625.0 400.0L0 400.0L0 0Z" fill-rule="nonzero"/><path fill="#4285f4" d="M312.5 20.0C400.49738 20.0 471.83334 91.33596 471.83334 179.33333C471.83334 267.3307 400.49738 338.66666 312.5 338.66666C224.50262 338.66666 153.16667 267.3307 153.16667 179.33333C153.16667 91.33596 224.50262 20.0 312.5 20.0L312.5 179.33333Z" fill-rule="nonzero"/><path fill="#000000" d="M264.95312 186.33333L263.1875 186.33333L263.1875 175.1302Q262.5625 175.73958 261.53125 176.34895Q260.5 176.9427 259.67188 177.2552L259.67188 175.55208Q261.15625 174.86458 262.25 173.8802Q263.35938 172.8802 263.8125 171.95833L264.95312 171.95833L264.95312 186.33333ZM274.96875 186.33333L274.96875 182.91145L268.75 182.91145L268.75 181.28645L275.28125 172.02083L276.71875 172.02083L276.71875 181.28645L278.65625 181.28645L278.65625 182.91145L276.71875 182.91145L276.71875 186.33333L274.96875 186.33333ZM274.96875 181.28645L274.96875 174.83333L270.48438 181.28645L274.96875 181.28645ZM290.17188 190.53645Q288.71875 188.70833 287.71875 186.2552Q286.71875 183.78645 286.71875 181.14583Q286.71875 178.8177 287.46875 176.6927Q288.34375 174.22395 290.17188 171.77083L291.4375 171.77083Q290.25 173.80208 289.875 174.67708Q289.28125 176.02083 288.9375 177.48958Q288.51562 179.3177 288.51562 181.16145Q288.51562 185.84895 291.4375 190.53645L290.17188 190.53645ZM299.95312 186.33333L298.1875 186.33333L298.1875 175.1302Q297.5625 175.73958 296.53125 176.34895Q295.5 176.9427 294.67188 177.2552L294.67188 175.55208Q296.15625 174.86458 297.25 173.8802Q298.35938 172.8802 298.8125 171.95833L299.95312 171.95833L299.95312 186.33333ZM304.32812 179.27083Q304.32812 176.73958 304.84375 175.1927Q305.375 173.6302 306.40625 172.80208Q307.4375 171.95833 309.0 171.95833Q310.15625 171.95833 311.01562 172.42708Q311.89062 172.8802 312.45312 173.7552Q313.01562 174.6302 313.34375 175.89583Q313.67188 177.14583 313.67188 179.27083Q313.67188 181.78645 313.14062 183.33333Q312.625 184.8802 311.59375 185.73958Q310.57812 186.58333 309.0 186.58333Q306.92188 186.58333 305.75 185.09895Q304.32812 183.30208 304.32812 179.27083ZM306.14062 179.27083Q306.14062 182.80208 306.95312 183.97395Q307.78125 185.1302 309.0 185.1302Q310.20312 185.1302 311.03125 183.95833Q311.85938 182.78645 311.85938 179.27083Q311.85938 175.73958 311.03125 174.58333Q310.20312 173.41145 308.98438 173.41145Q307.76562 173.41145 307.04688 174.4427Q306.14062 175.73958 306.14062 179.27083ZM315.32812 179.27083Q315.32812 176.73958 315.84375 175.1927Q316.375 173.6302 317.40625 172.80208Q318.4375 171.95833 320.0 171.95833Q321.15625 171.95833 322.01562 172.42708Q322.89062 172.8802 323.45312 173.7552Q324.01562 174.6302 324.34375 175.89583Q324.67188 177.14583 324.67188 179.27083Q324.67188 181.78645 324.14062 183.33333Q323.625 184.8802 322.59375 185.73958Q321.57812 186.58333 320.0 186.58333Q317.92188 186.58333 316.75 185.09895Q315.32812 183.30208 315.32812 179.27083ZM317.14062 179.27083Q317.14062 182.80208 317.95312 183.97395Q318.78125 185.1302 320.0 185.1302Q321.20312 185.1302 322.03125 183.95833Q322.85938 182.78645 322.85938 179.27083Q322.85938 175.73958 322.03125 174.58333Q321.20312 173.41145 319.98438 173.41145Q318.76562 173.41145 318.04688 174.4427Q317.14062 175.73958 317.14062 179.27083ZM327.28125 186.33333L327.28125 184.33333L329.28125 184.33333L329.28125 186.33333Q329.28125 187.4427 328.89062 188.11458Q328.5 188.80208 327.65625 189.16145L327.15625 188.41145Q327.71875 188.17708 327.98438 187.6927Q328.25 187.22395 328.28125 186.33333L327.28125 186.33333ZM332.32812 179.27083Q332.32812 176.73958 332.84375 175.1927Q333.375 173.6302 334.40625 172.80208Q335.4375 171.95833 337.0 171.95833Q338.15625 171.95833 339.01562 172.42708Q339.89062 172.8802 340.45312 173.7552Q341.01562 174.6302 341.34375 175.89583Q341.67188 177.14583 341.67188 179.27083Q341.67188 181.78645 341.14062 183.33333Q340.625 184.8802 339.59375 185.73958Q338.57812 186.58333 337.0 186.58333Q334.92188 186.58333 333.75 185.09895Q332.32812 183.30208 332.32812 179.27083ZM334.14062 179.27083Q334.14062 182.80208 334.95312 183.97395Q335.78125 185.1302 337.0 185.1302Q338.20312 185.1302 339.03125 183.95833Q339.85938 182.78645 339.85938 179.27083Q339.85938 175.73958 339.03125 174.58333Q338.20312 173.41145 336.98438 173.41145Q335.76562 173.41145 335.04688 174.4427Q334.14062 175.73958 334.14062 179.27083ZM343.65625 175.45833Q343.65625 173.92708 344.42188 172.84895Q345.20312 171.77083 346.67188 171.77083Q348.01562 171.77083 348.89062 172.73958Q349.78125 173.6927 349.78125 175.5677Q349.78125 177.3802 348.89062 178.36458Q348.0 179.33333 346.6875 179.33333Q345.39062 179.33333 344.51562 178.3802Q343.65625 177.41145 343.65625 175.45833ZM346.71875 172.98958Q346.0625 172.98958 345.625 173.55208Q345.20312 174.11458 345.20312 175.6302Q345.20312 177.0052 345.64062 177.5677Q346.07812 178.1302 346.71875 178.1302Q347.39062 178.1302 347.8125 177.5677Q348.25 176.98958 348.25 175.48958Q348.25 174.09895 347.8125 173.55208Q347.375 172.98958 346.71875 172.98958ZM346.73438 186.86458L354.5625 171.77083L355.98438 171.77083L348.1875 186.86458L346.73438 186.86458ZM352.92188 182.97395Q352.92188 181.42708 353.6875 180.36458Q354.46875 179.28645 355.9375 179.28645Q357.28125 179.28645 358.15625 180.2552Q359.04688 181.20833 359.04688 183.08333Q359.04688 184.89583 358.15625 185.8802Q357.26562 186.86458 355.95312 186.86458Q354.65625 186.86458 353.78125 185.89583Q352.92188 184.91145 352.92188 182.97395ZM355.98438 180.5052Q355.32812 180.5052 354.89062 181.0677Q354.45312 181.6302 354.45312 183.14583Q354.45312 184.52083 354.89062 185.08333Q355.32812 185.64583 355.98438 185.64583Q356.65625 185.64583 357.07812 185.08333Q357.51562 184.52083 357.51562 183.0052Q357.51562 181.6302 357.07812 181.0677Q356.64062 180.5052 355.98438 180.5052ZM362.96875 190.53645L361.71875 190.53645Q364.625 185.84895 364.625 181.16145Q364.625 179.3177 364.21875 177.52083Q363.875 176.05208 363.28125 174.70833Q362.90625 173.8177 361.71875 171.77083L362.96875 171.77083Q364.8125 174.22395 365.6875 176.6927Q366.4375 178.8177 366.4375 181.14583Q366.4375 183.78645 365.42188 186.2552Q364.42188 188.70833 362.96875 190.53645Z" fill-rule="nonzero"/><path fill="#4285f4" d="M296.0 366.0C296.0 369.31372 293.31372 372.0 290.0 372.0C286.68628 372.0 284.0 369.31372 284.0 366.0C284.0 362.68628 286.68628 360.0 290.0 360.0C293.31372 360.0 296.0 362.68628 296.0 366.0Z" fill-rule="nonzero"/><path fill="#1a1a1a" d="M305.15625 365.625Q305.15625 361.35938 307.45312 358.9375Q309.75 356.51562 313.39062 356.51562Q315.76562 356.51562 317.67188 357.65625Q319.59375 358.78125 320.59375 360.82812Q321.59375 362.85938 321.59375 365.4375Q321.59375 368.04688 320.53125 370.10938Q319.48438 372.17188 317.54688 373.23438Q315.60938 374.29688 313.375 374.29688Q310.95312 374.29688 309.03125 373.125Q307.125 371.95312 306.14062 369.92188Q305.15625 367.89062 305.15625 365.625ZM307.5 365.67188Q307.5 368.76562 309.17188 370.5625Q310.84375 372.34375 313.35938 372.34375Q315.9375 372.34375 317.59375 370.54688Q319.25 368.73438 319.25 365.42188Q319.25 363.32812 318.53125 361.76562Q317.82812 360.1875 316.45312 359.32812Q315.09375 358.46875 313.40625 358.46875Q310.98438 358.46875 309.23438 360.125Q307.5 361.78125 307.5 365.67188ZM332.73438 374.0L332.73438 372.17188Q331.28125 374.28125 328.79688 374.28125Q327.6875 374.28125 326.73438 373.85938Q325.78125 373.4375 325.3125 372.79688Q324.85938 372.15625 324.67188 371.23438Q324.53125 370.60938 324.53125 369.26562L324.53125 361.54688L326.64062 361.54688L326.64062 368.45312Q326.64062 370.10938 326.78125 370.6875Q326.96875 371.51562 327.60938 372.0Q328.26562 372.46875 329.21875 372.46875Q330.15625 372.46875 330.98438 371.98438Q331.82812 371.48438 332.17188 370.65625Q332.51562 369.8125 332.51562 368.21875L332.51562 361.54688L334.625 361.54688L334.625 374.0L332.73438 374.0ZM337.59375 359.25L337.59375 356.8125L339.70312 356.8125L339.70312 359.25L337.59375 359.25ZM337.59375 374.0L337.59375 361.54688L339.70312 361.54688L339.70312 374.0L337.59375 374.0Z" fill-rule="nonzero"/></svg>