<svg version="1.1" viewBox="0.0 0.0 625.0 400.0" fill="none" stroke="none" stroke-linecap="square" stroke-miterlimit="10" width="625" height="400" xmlns:xlink="http://www.w3.org/1999/xlink" xmlns="http://www.w3.org/2000/svg"><path fill="#ffffff" d="M0 0L625.0 0L625.0 400.0L0 400.0L0 0Z" fill-rule="nonzero"/><path fill="#4285f4" d="M312.5 20.0C386.83752 20.0 451.29684 71.4046 467.8385 143.87833L312.5 179.33333Z" fill-rule="nonzero"/><path fill="#ea4335" d="M467.8385 143.87833C482.90588 209.89278 454.60394 278.2197 397.27045 314.24472C339.93695 350.26974 266.09677 346.123 213.15729 303.90515C160.21782 261.68732 139.74402 190.62123 162.10793 126.70887C184.47182 62.796513 244.78787 20.0 312.5 20.0L312.5 179.33333Z" fill-rule="nonzero"/><path fill="#000000" d="M330.06082 106.41529L331.81082 106.180916Q332.12332 107.680916 332.84207 108.337166Q333.57645 108.993416 334.62332 108.993416Q335.8577 108.993416 336.70145 108.13404Q337.56082 107.274666 337.56082 106.00904Q337.56082 104.79029 336.76395 104.00904Q335.9827 103.22779 334.76395 103.22779Q334.26395 103.22779 333.52957 103.41529L333.71707 101.868416Q333.88895 101.899666 333.99832 101.899666Q335.12332 101.899666 336.01395 101.32154Q336.9202 100.72779 336.9202 99.50904Q336.9202 98.54029 336.26395 97.899666Q335.6077 97.25904 334.57645 97.25904Q333.56082 97.25904 332.87332 97.91529Q332.18582 98.555916 331.99832 99.837166L330.2327 99.524666Q330.56082 97.75904 331.70145 96.79029Q332.84207 95.82154 334.5452 95.82154Q335.71707 95.82154 336.70145 96.32154Q337.68582 96.82154 338.20145 97.69654Q338.7327 98.57154 338.7327 99.54029Q338.7327 100.462166 338.2327 101.22779Q337.7327 101.993416 336.76395 102.44654Q338.02957 102.72779 338.7327 103.66529Q339.43582 104.587166 339.43582 105.962166Q339.43582 107.837166 338.06082 109.149666Q336.70145 110.44654 334.6077 110.44654Q332.71707 110.44654 331.46707 109.32154Q330.2327 108.19654 330.06082 106.41529ZM350.88895 114.399666Q349.43582 112.57154 348.43582 110.118416Q347.43582 107.649666 347.43582 105.00904Q347.43582 102.680916 348.18582 100.555916Q349.06082 98.087166 350.88895 95.63404L352.15457 95.63404Q350.96707 97.66529 350.59207 98.54029Q349.99832 99.88404 349.65457 101.35279Q349.2327 103.180916 349.2327 105.024666Q349.2327 109.712166 352.15457 114.399666L350.88895 114.399666ZM363.27957 108.50904L363.27957 110.19654L353.82645 110.19654Q353.81082 109.555916 354.02957 108.97779Q354.38895 108.00904 355.18582 107.07154Q355.9827 106.13404 357.4827 104.899666Q359.82645 102.993416 360.63895 101.88404Q361.46707 100.75904 361.46707 99.75904Q361.46707 98.712166 360.71707 97.993416Q359.96707 97.274666 358.76395 97.274666Q357.49832 97.274666 356.7327 98.04029Q355.96707 98.805916 355.96707 100.149666L354.15457 99.962166Q354.34207 97.94654 355.5452 96.88404Q356.76395 95.82154 358.81082 95.82154Q360.8577 95.82154 362.06082 96.962166Q363.26395 98.10279 363.26395 99.79029Q363.26395 100.649666 362.90457 101.493416Q362.56082 102.32154 361.74832 103.243416Q360.93582 104.149666 359.0452 105.75904Q357.45145 107.087166 356.99832 107.555916Q356.56082 108.024666 356.26395 108.50904L363.27957 108.50904ZM371.6702 110.19654L369.90457 110.19654L369.90457 98.993416Q369.27957 99.60279 368.24832 100.212166Q367.21707 100.805916 366.38895 101.118416L366.38895 99.41529Q367.87332 98.72779 368.96707 97.743416Q370.07645 96.743416 370.52957 95.82154L371.6702 95.82154L371.6702 110.19654ZM376.99832 110.19654L376.99832 108.19654L378.99832 108.19654L378.99832 110.19654Q378.99832 111.305916 378.6077 111.97779Q378.21707 112.66529 377.37332 113.024666L376.87332 112.274666Q377.43582 112.04029 377.70145 111.555916Q377.96707 111.087166 377.99832 110.19654L376.99832 110.19654ZM387.68582 110.19654L387.68582 106.774666L381.46707 106.774666L381.46707 105.149666L387.99832 95.88404L389.43582 95.88404L389.43582 105.149666L391.37332 105.149666L391.37332 106.774666L389.43582 106.774666L389.43582 110.19654L387.68582 110.19654ZM387.68582 105.149666L387.68582 98.69654L383.20145 105.149666L387.68582 105.149666ZM393.37332 99.32154Q393.37332 97.79029 394.13895 96.712166Q394.9202 95.63404 396.38895 95.63404Q397.7327 95.63404 398.6077 96.60279Q399.49832 97.555916 399.49832 99.430916Q399.49832 101.243416 398.6077 102.22779Q397.71707 103.19654 396.40457 103.19654Q395.1077 103.19654 394.2327 102.243416Q393.37332 101.274666 393.37332 99.32154ZM396.43582 96.85279Q395.77957 96.85279 395.34207 97.41529Q394.9202 97.97779 394.9202 99.493416Q394.9202 100.868416 395.3577 101.430916Q395.7952 101.993416 396.43582 101.993416Q397.1077 101.993416 397.52957 101.430916Q397.96707 100.85279 397.96707 99.35279Q397.96707 97.962166 397.52957 97.41529Q397.09207 96.85279 396.43582 96.85279ZM396.45145 110.72779L404.27957 95.63404L405.70145 95.63404L397.90457 110.72779L396.45145 110.72779ZM402.63895 106.837166Q402.63895 105.29029 403.40457 104.22779Q404.18582 103.149666 405.65457 103.149666Q406.99832 103.149666 407.87332 104.118416Q408.76395 105.07154 408.76395 106.94654Q408.76395 108.75904 407.87332 109.743416Q406.9827 110.72779 405.6702 110.72779Q404.37332 110.72779 403.49832 109.75904Q402.63895 108.774666 402.63895 106.837166ZM405.70145 104.368416Q405.0452 104.368416 404.6077 104.930916Q404.1702 105.493416 404.1702 107.00904Q404.1702 108.38404 404.6077 108.94654Q405.0452 109.50904 405.70145 109.50904Q406.37332 109.50904 406.7952 108.94654Q407.2327 108.38404 407.2327 106.868416Q407.2327 105.493416 406.7952 104.930916Q406.3577 104.368416 405.70145 104.368416ZM412.68582 114.399666L411.43582 114.399666Q414.34207 109.712166 414.34207 105.024666Q414.34207 103.180916 413.93582 101.38404Q413.59207 99.91529 412.99832 98.57154Q412.62332 97.680916 411.43582 95.63404L412.68582 95.63404Q414.52957 98.087166 415.40457 100.555916Q416.15457 102.680916 416.15457 105.00904Q416.15457 107.649666 415.13895 110.118416Q414.13895 112.57154 412.68582 114.399666Z" fill-rule="nonzero"/><path fill="#000000" d="M212.41653 259.10892L210.65091 259.10892L210.65091 247.90579Q210.02591 248.51517 208.99466 249.12454Q207.96341 249.71829 207.13528 250.03079L207.13528 248.32767Q208.61966 247.64017 209.71341 246.65579Q210.82278 245.65579 211.27591 244.73392L212.41653 244.73392L212.41653 259.10892ZM223.41653 259.10892L221.65091 259.10892L221.65091 247.90579Q221.02591 248.51517 219.99466 249.12454Q218.96341 249.71829 218.13528 250.03079L218.13528 248.32767Q219.61966 247.64017 220.71341 246.65579Q221.82278 245.65579 222.27591 244.73392L223.41653 244.73392L223.41653 259.10892ZM237.63528 263.31204Q236.18216 261.48392 235.18216 259.0308Q234.18216 256.56204 234.18216 253.92142Q234.18216 251.59329 234.93216 249.46829Q235.80716 246.99954 237.63528 244.54642L238.90091 244.54642Q237.71341 246.57767 237.33841 247.45267Q236.74466 248.79642 236.40091 250.26517Q235.97903 252.09329 235.97903 253.93704Q235.97903 258.62454 238.90091 263.31204L237.63528 263.31204ZM240.91653 246.67142L240.91653 244.98392L250.18216 244.98392L250.18216 246.34329Q248.80716 247.79642 247.46341 250.21829Q246.11966 252.62454 245.40091 255.17142Q244.86966 256.9683 244.71341 259.10892L242.91653 259.10892Q242.94778 257.42142 243.57278 255.03079Q244.21341 252.64017 245.40091 250.42142Q246.58841 248.18704 247.91653 246.67142L240.91653 246.67142ZM254.49466 251.34329Q253.40091 250.93704 252.86966 250.20267Q252.35403 249.45267 252.35403 248.42142Q252.35403 246.85892 253.47903 245.79642Q254.60403 244.73392 256.4634 244.73392Q258.3384 244.73392 259.47903 245.82767Q260.61966 246.90579 260.61966 248.46829Q260.61966 249.46829 260.0884 250.20267Q259.57278 250.93704 258.51028 251.34329Q259.8384 251.78079 260.5259 252.73392Q261.2134 253.68704 261.2134 255.01517Q261.2134 256.85892 259.9009 258.10892Q258.60403 259.35892 256.49466 259.35892Q254.36966 259.35892 253.07278 258.10892Q251.77591 256.8433 251.77591 254.96829Q251.77591 253.57767 252.47903 252.64017Q253.19778 251.68704 254.49466 251.34329ZM254.15091 248.35892Q254.15091 249.37454 254.80716 250.03079Q255.46341 250.67142 256.49466 250.67142Q257.51028 250.67142 258.16653 250.03079Q258.82278 249.39017 258.82278 248.46829Q258.82278 247.49954 258.1509 246.84329Q257.47903 246.17142 256.47903 246.17142Q255.47903 246.17142 254.80716 246.82767Q254.15091 247.46829 254.15091 248.35892ZM253.58841 254.98392Q253.58841 255.73392 253.93216 256.43704Q254.29153 257.14017 254.99466 257.5308Q255.69778 257.9058 256.51028 257.9058Q257.7759 257.9058 258.5884 257.0933Q259.41653 256.2808 259.41653 255.03079Q259.41653 253.76517 258.57278 252.93704Q257.72903 252.10892 256.44778 252.10892Q255.21341 252.10892 254.40091 252.93704Q253.58841 253.74954 253.58841 254.98392ZM263.74466 259.10892L263.74466 257.10892L265.74466 257.10892L265.74466 259.10892Q265.74466 260.2183 265.35403 260.89017Q264.9634 261.57767 264.11966 261.93704L263.61966 261.18704Q264.18216 260.95267 264.44778 260.4683Q264.7134 259.99954 264.74466 259.10892L263.74466 259.10892ZM277.91653 248.29642L276.16653 248.43704Q275.93216 247.40579 275.51028 246.93704Q274.79153 246.17142 273.74466 246.17142Q272.9009 246.17142 272.2759 246.64017Q271.44778 247.24954 270.9634 248.42142Q270.47903 249.57767 270.4634 251.71829Q271.10403 250.76517 272.01028 250.29642Q272.93216 249.82767 273.94778 249.82767Q275.69778 249.82767 276.93216 251.12454Q278.16653 252.40579 278.16653 254.45267Q278.16653 255.81204 277.5884 256.9683Q277.01028 258.12454 275.99466 258.74954Q274.97903 259.35892 273.68216 259.35892Q271.49466 259.35892 270.10403 257.74954Q268.7134 256.12454 268.7134 252.40579Q268.7134 248.26517 270.24466 246.37454Q271.5884 244.73392 273.85403 244.73392Q275.54153 244.73392 276.61966 245.68704Q277.69778 246.62454 277.91653 248.29642ZM270.74466 254.46829Q270.74466 255.37454 271.11966 256.20267Q271.51028 257.0308 272.19778 257.4683Q272.9009 257.9058 273.6509 257.9058Q274.7759 257.9058 275.57278 257.01517Q276.36966 256.10892 276.36966 254.56204Q276.36966 253.07767 275.57278 252.23392Q274.79153 251.37454 273.5884 251.37454Q272.4009 251.37454 271.57278 252.23392Q270.74466 253.07767 270.74466 254.46829ZM280.11966 248.23392Q280.11966 246.70267 280.88528 245.62454Q281.66653 244.54642 283.13528 244.54642Q284.47903 244.54642 285.35403 245.51517Q286.24466 246.46829 286.24466 248.34329Q286.24466 250.15579 285.35403 251.14017Q284.4634 252.10892 283.1509 252.10892Q281.85403 252.10892 280.97903 251.15579Q280.11966 250.18704 280.11966 248.23392ZM283.18216 245.76517Q282.5259 245.76517 282.0884 246.32767Q281.66653 246.89017 281.66653 248.40579Q281.66653 249.78079 282.10403 250.34329Q282.54153 250.90579 283.18216 250.90579Q283.85403 250.90579 284.2759 250.34329Q284.7134 249.76517 284.7134 248.26517Q284.7134 246.87454 284.2759 246.32767Q283.8384 245.76517 283.18216 245.76517ZM283.19778 259.64017L291.0259 244.54642L292.44778 244.54642L284.6509 259.64017L283.19778 259.64017ZM289.38528 255.74954Q289.38528 254.20267 290.1509 253.14017Q290.93216 252.06204 292.4009 252.06204Q293.74466 252.06204 294.61966 253.03079Q295.51028 253.98392 295.51028 255.85892Q295.51028 257.67142 294.61966 258.6558Q293.72903 259.64017 292.41653 259.64017Q291.11966 259.64017 290.24466 258.67142Q289.38528 257.68704 289.38528 255.74954ZM292.44778 253.28079Q291.79153 253.28079 291.35403 253.84329Q290.91653 254.40579 290.91653 255.92142Q290.91653 257.29642 291.35403 257.85892Q291.79153 258.42142 292.44778 258.42142Q293.11966 258.42142 293.54153 257.85892Q293.97903 257.29642 293.97903 255.78079Q293.97903 254.40579 293.54153 253.84329Q293.10403 253.28079 292.44778 253.28079ZM299.43216 263.31204L298.18216 263.31204Q301.0884 258.62454 301.0884 253.93704Q301.0884 252.09329 300.68216 250.29642Q300.3384 248.82767 299.74466 247.48392Q299.36966 246.59329 298.18216 244.54642L299.43216 244.54642Q301.2759 246.99954 302.1509 249.46829Q302.9009 251.59329 302.9009 253.92142Q302.9009 256.56204 301.88528 259.0308Q300.88528 261.48392 299.43216 263.31204Z" fill-rule="nonzero"/><path fill="#4285f4" d="M256.5 366.0C256.5 369.31372 253.8137 372.0 250.5 372.0C247.1863 372.0 244.5 369.31372 244.5 366.0C244.5 362.68628 247.1863 360.0 250.5 360.0C253.8137 360.0 256.5 362.68628 256.5 366.0Z" fill-rule="nonzero"/><path fill="#1a1a1a" d="M265.65625 365.625Q265.65625 361.35938 267.95312 358.9375Q270.25 356.51562 273.89062 356.51562Q276.26562 356.51562 278.17188 357.65625Q280.09375 358.78125 281.09375 360.82812Q282.09375 362.85938 282.09375 365.4375Q282.09375 368.04688 281.03125 370.10938Q279.98438 372.17188 278.04688 373.23438Q276.10938 374.29688 273.875 374.29688Q271.45312 374.29688 269.53125 373.125Q267.625 371.95312 266.64062 369.92188Q265.65625 367.89062 265.65625 365.625ZM268.0 365.67188Q268.0 368.76562 269.67188 370.5625Q271.34375 372.34375 273.85938 372.34375Q276.4375 372.34375 278.09375 370.54688Q279.75 368.73438 279.75 365.42188Q279.75 363.32812 279.03125 361.76562Q278.32812 360.1875 276.95312 359.32812Q275.59375 358.46875 273.90625 358.46875Q271.48438 358.46875 269.73438 360.125Q268.0 361.78125 268.0 365.67188ZM293.23438 374.0L293.23438 372.17188Q291.78125 374.28125 289.29688 374.28125Q288.1875 374.28125 287.23438 373.85938Q286.28125 373.4375 285.8125 372.79688Q285.35938 372.15625 285.17188 371.23438Q285.03125 370.60938 285.03125 369.26562L285.03125 361.54688L287.14062 361.54688L287.14062 368.45312Q287.14062 370.10938 287.28125 370.6875Q287.46875 371.51562 288.10938 372.0Q288.76562 372.46875 289.71875 372.46875Q290.65625 372.46875 291.48438 371.98438Q292.32812 371.48438 292.67188 370.65625Q293.01562 369.8125 293.01562 368.21875L293.01562 361.54688L295.125 361.54688L295.125 374.0L293.23438 374.0ZM298.09375 359.25L298.09375 356.8125L300.20312 356.8125L300.20312 359.25L298.09375 359.25ZM298.09375 374.0L298.09375 361.54688L300.20312 361.54688L300.20312 374.0L298.09375 374.0Z" fill-rule="nonzero"/><path fill="#ea4335" d="M329.5 366.0C329.5 369.31372 326.81372 372.0 323.5 372.0C320.18628 372.0 317.5 369.31372 317.5 366.0C317.5 362.68628 320.18628 360.0 323.5 360.0C326.81372 360.0 329.5 362.68628 329.5 366.0Z" fill-rule="nonzero"/><path fill="#1a1a1a" d="M339.32812 374.0L339.32812 356.8125L341.65625 356.8125L350.6875 370.3125L350.6875 356.8125L352.85938 356.8125L352.85938 374.0L350.53125 374.0L341.51562 360.5L341.51562 374.0L339.32812 374.0ZM355.29688 367.78125Q355.29688 364.3125 357.21875 362.65625Q358.82812 361.26562 361.14062 361.26562Q363.70312 361.26562 365.32812 362.95312Q366.95312 364.64062 366.95312 367.59375Q366.95312 370.0 366.23438 371.375Q365.51562 372.75 364.14062 373.51562Q362.76562 374.28125 361.14062 374.28125Q358.51562 374.28125 356.90625 372.60938Q355.29688 370.92188 355.29688 367.78125ZM357.46875 367.78125Q357.46875 370.17188 358.5 371.35938Q359.54688 372.54688 361.14062 372.54688Q362.70312 372.54688 363.75 371.35938Q364.79688 370.15625 364.79688 367.70312Q364.79688 365.39062 363.73438 364.20312Q362.6875 363.01562 361.14062 363.01562Q359.54688 363.01562 358.5 364.20312Q357.46875 365.39062 357.46875 367.78125ZM369.07812 374.0L369.07812 361.54688L370.98438 361.54688L370.98438 363.32812Q372.35938 361.26562 374.9375 361.26562Q376.0625 361.26562 377.0 361.67188Q377.95312 362.07812 378.42188 362.73438Q378.89062 363.39062 379.07812 364.29688Q379.20312 364.875 379.20312 366.34375L379.20312 374.0L377.09375 374.0L377.09375 366.42188Q377.09375 365.14062 376.84375 364.5Q376.59375 363.85938 375.96875 363.48438Q375.34375 363.09375 374.5 363.09375Q373.15625 363.09375 372.17188 363.95312Q371.1875 364.8125 371.1875 367.20312L371.1875 374.0L369.07812 374.0Z" fill-rule="nonzero"/></svg>