<svg version="1.1" viewBox="0.0 0.0 665.0 400.0" fill="none" stroke="none" stroke-linecap="square" stroke-miterlimit="10" width="665" height="400" xmlns:xlink="http://www.w3.org/1999/xlink" xmlns="http://www.w3.org/2000/svg"><path fill="#ffffff" d="M0 0L665.0 0L665.0 400.0L0 400.0L0 0Z" fill-rule="nonzero"/><path fill="#ea4335" d="M263.36786 35.77896C284.9341 25.393198 308.56326 20.0 332.5 20.0L332.5 179.33333Z" fill-rule="nonzero"/><path fill="#4285f4" d="M332.5 20.0C413.5943 20.0 481.7518 80.90926 490.83148 161.49367C499.91116 242.07805 447.0161 316.62668 367.95502 334.67184C288.89392 352.71704 208.89168 308.50134 182.10793 231.9578C155.32417 155.41425 190.30441 70.964455 263.36786 35.77896L332.5 179.33333Z" fill-rule="nonzero"/><path fill="#000000" d="M314.2124 290.4295L312.44678 290.4295L312.44678 279.22638Q311.82178 279.83575 310.79053 280.44513Q309.75928 281.03888 308.93115 281.35138L308.93115 279.64825Q310.41553 278.96075 311.50928 277.97638Q312.61865 276.97638 313.07178 276.0545L314.2124 276.0545L314.2124 290.4295ZM318.60303 286.64825L320.35303 286.41388Q320.66553 287.91388 321.38428 288.57013Q322.11865 289.22638 323.16553 289.22638Q324.3999 289.22638 325.24365 288.367Q326.10303 287.50763 326.10303 286.242Q326.10303 285.02325 325.30615 284.242Q324.5249 283.46075 323.30615 283.46075Q322.80615 283.46075 322.07178 283.64825L322.25928 282.10138Q322.43115 282.13263 322.54053 282.13263Q323.66553 282.13263 324.55615 281.5545Q325.4624 280.96075 325.4624 279.742Q325.4624 278.77325 324.80615 278.13263Q324.1499 277.492 323.11865 277.492Q322.10303 277.492 321.41553 278.14825Q320.72803 278.78888 320.54053 280.07013L318.7749 279.75763Q319.10303 277.992 320.24365 277.02325Q321.38428 276.0545 323.0874 276.0545Q324.25928 276.0545 325.24365 276.5545Q326.22803 277.0545 326.74365 277.9295Q327.2749 278.8045 327.2749 279.77325Q327.2749 280.69513 326.7749 281.46075Q326.2749 282.22638 325.30615 282.6795Q326.57178 282.96075 327.2749 283.89825Q327.97803 284.82013 327.97803 286.19513Q327.97803 288.07013 326.60303 289.38263Q325.24365 290.6795 323.1499 290.6795Q321.25928 290.6795 320.00928 289.5545Q318.7749 288.4295 318.60303 286.64825ZM339.43115 294.63263Q337.97803 292.8045 336.97803 290.35138Q335.97803 287.88263 335.97803 285.242Q335.97803 282.91388 336.72803 280.78888Q337.60303 278.32013 339.43115 275.867L340.69678 275.867Q339.50928 277.89825 339.13428 278.77325Q338.54053 280.117 338.19678 281.58575Q337.7749 283.41388 337.7749 285.25763Q337.7749 289.94513 340.69678 294.63263L339.43115 294.63263ZM342.85303 287.117L344.54053 286.96075Q344.75928 288.14825 345.35303 288.69513Q345.9624 289.22638 346.91553 289.22638Q347.72803 289.22638 348.3374 288.867Q348.94678 288.492 349.3374 287.867Q349.72803 287.242 349.99365 286.19513Q350.25928 285.13263 350.25928 284.03888Q350.25928 283.9295 350.24365 283.69513Q349.7124 284.52325 348.80615 285.0545Q347.8999 285.57013 346.82178 285.57013Q345.05615 285.57013 343.82178 284.28888Q342.5874 282.992 342.5874 280.88263Q342.5874 278.71075 343.86865 277.38263Q345.16553 276.0545 347.0874 276.0545Q348.49365 276.0545 349.6499 276.8045Q350.80615 277.5545 351.3999 278.94513Q352.00928 280.33575 352.00928 282.97638Q352.00928 285.72638 351.3999 287.35138Q350.80615 288.97638 349.63428 289.83575Q348.4624 290.6795 346.88428 290.6795Q345.19678 290.6795 344.13428 289.742Q343.07178 288.8045 342.85303 287.117ZM350.05615 280.8045Q350.05615 279.28888 349.24365 278.39825Q348.44678 277.50763 347.30615 277.50763Q346.13428 277.50763 345.25928 278.47638Q344.3999 279.4295 344.3999 280.94513Q344.3999 282.32013 345.2124 283.1795Q346.04053 284.02325 347.25928 284.02325Q348.47803 284.02325 349.25928 283.1795Q350.05615 282.32013 350.05615 280.8045ZM362.82178 288.742L362.82178 290.4295L353.36865 290.4295Q353.35303 289.78888 353.57178 289.21075Q353.93115 288.242 354.72803 287.3045Q355.5249 286.367 357.0249 285.13263Q359.36865 283.22638 360.18115 282.117Q361.00928 280.992 361.00928 279.992Q361.00928 278.94513 360.25928 278.22638Q359.50928 277.50763 358.30615 277.50763Q357.04053 277.50763 356.2749 278.27325Q355.50928 279.03888 355.50928 280.38263L353.69678 280.19513Q353.88428 278.1795 355.0874 277.117Q356.30615 276.0545 358.35303 276.0545Q360.3999 276.0545 361.60303 277.19513Q362.80615 278.33575 362.80615 280.02325Q362.80615 280.88263 362.44678 281.72638Q362.10303 282.5545 361.29053 283.47638Q360.47803 284.38263 358.5874 285.992Q356.99365 287.32013 356.54053 287.78888Q356.10303 288.25763 355.80615 288.742L362.82178 288.742ZM365.54053 290.4295L365.54053 288.4295L367.54053 288.4295L367.54053 290.4295Q367.54053 291.53888 367.1499 292.21075Q366.75928 292.89825 365.91553 293.25763L365.41553 292.50763Q365.97803 292.27325 366.24365 291.78888Q366.50928 291.32013 366.54053 290.4295L365.54053 290.4295ZM370.85303 287.117L372.54053 286.96075Q372.75928 288.14825 373.35303 288.69513Q373.9624 289.22638 374.91553 289.22638Q375.72803 289.22638 376.3374 288.867Q376.94678 288.492 377.3374 287.867Q377.72803 287.242 377.99365 286.19513Q378.25928 285.13263 378.25928 284.03888Q378.25928 283.9295 378.24365 283.69513Q377.7124 284.52325 376.80615 285.0545Q375.8999 285.57013 374.82178 285.57013Q373.05615 285.57013 371.82178 284.28888Q370.5874 282.992 370.5874 280.88263Q370.5874 278.71075 371.86865 277.38263Q373.16553 276.0545 375.0874 276.0545Q376.49365 276.0545 377.6499 276.8045Q378.80615 277.5545 379.3999 278.94513Q380.00928 280.33575 380.00928 282.97638Q380.00928 285.72638 379.3999 287.35138Q378.80615 288.97638 377.63428 289.83575Q376.4624 290.6795 374.88428 290.6795Q373.19678 290.6795 372.13428 289.742Q371.07178 288.8045 370.85303 287.117ZM378.05615 280.8045Q378.05615 279.28888 377.24365 278.39825Q376.44678 277.50763 375.30615 277.50763Q374.13428 277.50763 373.25928 278.47638Q372.3999 279.4295 372.3999 280.94513Q372.3999 282.32013 373.2124 283.1795Q374.04053 284.02325 375.25928 284.02325Q376.47803 284.02325 377.25928 283.1795Q378.05615 282.32013 378.05615 280.8045ZM381.91553 279.5545Q381.91553 278.02325 382.68115 276.94513Q383.4624 275.867 384.93115 275.867Q386.2749 275.867 387.1499 276.83575Q388.04053 277.78888 388.04053 279.66388Q388.04053 281.47638 387.1499 282.46075Q386.25928 283.4295 384.94678 283.4295Q383.6499 283.4295 382.7749 282.47638Q381.91553 281.50763 381.91553 279.5545ZM384.97803 277.08575Q384.32178 277.08575 383.88428 277.64825Q383.4624 278.21075 383.4624 279.72638Q383.4624 281.10138 383.8999 281.66388Q384.3374 282.22638 384.97803 282.22638Q385.6499 282.22638 386.07178 281.66388Q386.50928 281.08575 386.50928 279.58575Q386.50928 278.19513 386.07178 277.64825Q385.63428 277.08575 384.97803 277.08575ZM384.99365 290.96075L392.82178 275.867L394.24365 275.867L386.44678 290.96075L384.99365 290.96075ZM391.18115 287.07013Q391.18115 285.52325 391.94678 284.46075Q392.72803 283.38263 394.19678 283.38263Q395.54053 283.38263 396.41553 284.35138Q397.30615 285.3045 397.30615 287.1795Q397.30615 288.992 396.41553 289.97638Q395.5249 290.96075 394.2124 290.96075Q392.91553 290.96075 392.04053 289.992Q391.18115 289.00763 391.18115 287.07013ZM394.24365 284.60138Q393.5874 284.60138 393.1499 285.16388Q392.7124 285.72638 392.7124 287.242Q392.7124 288.617 393.1499 289.1795Q393.5874 289.742 394.24365 289.742Q394.91553 289.742 395.3374 289.1795Q395.7749 288.617 395.7749 287.10138Q395.7749 285.72638 395.3374 285.16388Q394.8999 284.60138 394.24365 284.60138ZM401.22803 294.63263L399.97803 294.63263Q402.88428 289.94513 402.88428 285.25763Q402.88428 283.41388 402.47803 281.617Q402.13428 280.14825 401.54053 278.8045Q401.16553 277.91388 399.97803 275.867L401.22803 275.867Q403.07178 278.32013 403.94678 280.78888Q404.69678 282.91388 404.69678 285.242Q404.69678 287.88263 403.68115 290.35138Q402.68115 292.8045 401.22803 294.63263Z" fill-rule="nonzero"/><path fill="#4285f4" d="M276.5 366.0C276.5 369.31372 273.81372 372.0 270.5 372.0C267.18628 372.0 264.5 369.31372 264.5 366.0C264.5 362.68628 267.18628 360.0 270.5 360.0C273.81372 360.0 276.5 362.68628 276.5 366.0Z" fill-rule="nonzero"/><path fill="#1a1a1a" d="M285.65625 365.625Q285.65625 361.35938 287.95312 358.9375Q290.25 356.51562 293.89062 356.51562Q296.26562 356.51562 298.17188 357.65625Q300.09375 358.78125 301.09375 360.82812Q302.09375 362.85938 302.09375 365.4375Q302.09375 368.04688 301.03125 370.10938Q299.98438 372.17188 298.04688 373.23438Q296.10938 374.29688 293.875 374.29688Q291.45312 374.29688 289.53125 373.125Q287.625 371.95312 286.64062 369.92188Q285.65625 367.89062 285.65625 365.625ZM288.0 365.67188Q288.0 368.76562 289.67188 370.5625Q291.34375 372.34375 293.85938 372.34375Q296.4375 372.34375 298.09375 370.54688Q299.75 368.73438 299.75 365.42188Q299.75 363.32812 299.03125 361.76562Q298.32812 360.1875 296.95312 359.32812Q295.59375 358.46875 293.90625 358.46875Q291.48438 358.46875 289.73438 360.125Q288.0 361.78125 288.0 365.67188ZM313.23438 374.0L313.23438 372.17188Q311.78125 374.28125 309.29688 374.28125Q308.1875 374.28125 307.23438 373.85938Q306.28125 373.4375 305.8125 372.79688Q305.35938 372.15625 305.17188 371.23438Q305.03125 370.60938 305.03125 369.26562L305.03125 361.54688L307.14062 361.54688L307.14062 368.45312Q307.14062 370.10938 307.28125 370.6875Q307.46875 371.51562 308.10938 372.0Q308.76562 372.46875 309.71875 372.46875Q310.65625 372.46875 311.48438 371.98438Q312.32812 371.48438 312.67188 370.65625Q313.01562 369.8125 313.01562 368.21875L313.01562 361.54688L315.125 361.54688L315.125 374.0L313.23438 374.0ZM318.09375 359.25L318.09375 356.8125L320.20312 356.8125L320.20312 359.25L318.09375 359.25ZM318.09375 374.0L318.09375 361.54688L320.20312 361.54688L320.20312 374.0L318.09375 374.0Z" fill-rule="nonzero"/><path fill="#ea4335" d="M349.5 366.0C349.5 369.31372 346.81372 372.0 343.5 372.0C340.18628 372.0 337.5 369.31372 337.5 366.0C337.5 362.68628 340.18628 360.0 343.5 360.0C346.81372 360.0 349.5 362.68628 349.5 366.0Z" fill-rule="nonzero"/><path fill="#1a1a1a" d="M359.32812 374.0L359.32812 356.8125L361.65625 356.8125L370.6875 370.3125L370.6875 356.8125L372.85938 356.8125L372.85938 374.0L370.53125 374.0L361.51562 360.5L361.51562 374.0L359.32812 374.0ZM375.29688 367.78125Q375.29688 364.3125 377.21875 362.65625Q378.82812 361.26562 381.14062 361.26562Q383.70312 361.26562 385.32812 362.95312Q386.95312 364.64062 386.95312 367.59375Q386.95312 370.0 386.23438 371.375Q385.51562 372.75 384.14062 373.51562Q382.76562 374.28125 381.14062 374.28125Q378.51562 374.28125 376.90625 372.60938Q375.29688 370.92188 375.29688 367.78125ZM377.46875 367.78125Q377.46875 370.17188 378.5 371.35938Q379.54688 372.54688 381.14062 372.54688Q382.70312 372.54688 383.75 371.35938Q384.79688 370.15625 384.79688 367.70312Q384.79688 365.39062 383.73438 364.20312Q382.6875 363.01562 381.14062 363.01562Q379.54688 363.01562 378.5 364.20312Q377.46875 365.39062 377.46875 367.78125ZM389.07812 374.0L389.07812 361.54688L390.98438 361.54688L390.98438 363.32812Q392.35938 361.26562 394.9375 361.26562Q396.0625 361.26562 397.0 361.67188Q397.95312 362.07812 398.42188 362.73438Q398.89062 363.39062 399.07812 364.29688Q399.20312 364.875 399.20312 366.34375L399.20312 374.0L397.09375 374.0L397.09375 366.42188Q397.09375 365.14062 396.84375 364.5Q396.59375 363.85938 395.96875 363.48438Q395.34375 363.09375 394.5 363.09375Q393.15625 363.09375 392.17188 363.95312Q391.1875 364.8125 391.1875 367.20312L391.1875 374.0L389.07812 374.0Z" fill-rule="nonzero"/></svg>