<svg version="1.1" viewBox="0.0 0.0 665.0 400.0" fill="none" stroke="none" stroke-linecap="square" stroke-miterlimit="10" width="665" height="400" xmlns:xlink="http://www.w3.org/1999/xlink" xmlns="http://www.w3.org/2000/svg"><path fill="#ffffff" d="M0 0L665.0 0L665.0 400.0L0 400.0L0 0Z" fill-rule="nonzero"/><path fill="#4285f4" d="M332.5 20.0C393.7042 20.0 449.49887 55.05812 476.05438 110.20119C502.60986 165.34425 495.232 230.82468 457.0718 278.67606L332.5 179.33333Z" fill-rule="nonzero"/><path fill="#fbbc04" d="M177.16148 214.78833C166.37166 167.515 177.69576 117.900894 207.92818 79.99062C238.16061 42.080353 284.01096 20.0 332.5 20.0L332.5 179.33333Z" fill-rule="nonzero"/><path fill="#ea4335" d="M457.0718 278.67606C418.91162 326.5274 356.71466 348.29105 297.04498 334.67184C237.37532 321.05264 190.7807 274.458 177.16148 214.78833L332.5 179.33333Z" fill-rule="nonzero"/><path fill="#000000" d="M373.31036 142.13962L375.1541 141.98337Q375.35724 143.32712 376.10724 144.01462Q376.85724 144.6865 377.91974 144.6865Q379.18536 144.6865 380.06036 143.73337Q380.93536 142.78024 380.93536 141.1865Q380.93536 139.6865 380.0916 138.82712Q379.24786 137.95212 377.8885 137.95212Q377.0291 137.95212 376.3416 138.34274Q375.66974 138.71774 375.2791 139.34274L373.62286 139.124L375.0135 131.76462L382.1385 131.76462L382.1385 133.45212L376.41974 133.45212L375.6541 137.29587Q376.93536 136.38962 378.35724 136.38962Q380.23224 136.38962 381.5135 137.70212Q382.81036 138.999 382.81036 141.03024Q382.81036 142.98337 381.66974 144.38962Q380.29474 146.13962 377.91974 146.13962Q375.9666 146.13962 374.7166 145.04587Q373.48224 143.95212 373.31036 142.13962ZM394.1541 150.09274Q392.701 148.26462 391.701 145.8115Q390.701 143.34274 390.701 140.70212Q390.701 138.374 391.451 136.249Q392.326 133.78024 394.1541 131.32712L395.41974 131.32712Q394.23224 133.35837 393.85724 134.23337Q393.2635 135.57712 392.91974 137.04587Q392.49786 138.874 392.49786 140.71774Q392.49786 145.40524 395.41974 150.09274L394.1541 150.09274ZM397.326 142.10837L399.076 141.874Q399.3885 143.374 400.10724 144.03024Q400.8416 144.6865 401.8885 144.6865Q403.12286 144.6865 403.9666 143.82712Q404.826 142.96774 404.826 141.70212Q404.826 140.48337 404.0291 139.70212Q403.24786 138.92087 402.0291 138.92087Q401.5291 138.92087 400.79474 139.10837L400.98224 137.5615Q401.1541 137.59274 401.2635 137.59274Q402.3885 137.59274 403.2791 137.01462Q404.18536 136.42087 404.18536 135.20212Q404.18536 134.23337 403.5291 133.59274Q402.87286 132.95212 401.8416 132.95212Q400.826 132.95212 400.1385 133.60837Q399.451 134.249 399.2635 135.53024L397.49786 135.21774Q397.826 133.45212 398.9666 132.48337Q400.10724 131.51462 401.81036 131.51462Q402.98224 131.51462 403.9666 132.01462Q404.951 132.51462 405.4666 133.38962Q405.99786 134.26462 405.99786 135.23337Q405.99786 136.15524 405.49786 136.92087Q404.99786 137.6865 404.0291 138.13962Q405.29474 138.42087 405.99786 139.35837Q406.701 140.28024 406.701 141.65524Q406.701 143.53024 405.326 144.84274Q403.9666 146.13962 401.87286 146.13962Q399.98224 146.13962 398.73224 145.01462Q397.49786 143.88962 397.326 142.10837ZM408.31036 142.13962L410.1541 141.98337Q410.35724 143.32712 411.10724 144.01462Q411.85724 144.6865 412.91974 144.6865Q414.18536 144.6865 415.06036 143.73337Q415.93536 142.78024 415.93536 141.1865Q415.93536 139.6865 415.0916 138.82712Q414.24786 137.95212 412.8885 137.95212Q412.0291 137.95212 411.3416 138.34274Q410.66974 138.71774 410.2791 139.34274L408.62286 139.124L410.0135 131.76462L417.1385 131.76462L417.1385 133.45212L411.41974 133.45212L410.6541 137.29587Q411.93536 136.38962 413.35724 136.38962Q415.23224 136.38962 416.5135 137.70212Q417.81036 138.999 417.81036 141.03024Q417.81036 142.98337 416.66974 144.38962Q415.29474 146.13962 412.91974 146.13962Q410.9666 146.13962 409.7166 145.04587Q408.48224 143.95212 408.31036 142.13962ZM420.2635 145.88962L420.2635 143.88962L422.2635 143.88962L422.2635 145.88962Q422.2635 146.999 421.87286 147.67087Q421.48224 148.35837 420.6385 148.71774L420.1385 147.96774Q420.701 147.73337 420.9666 147.249Q421.23224 146.78024 421.2635 145.88962L420.2635 145.88962ZM425.43536 133.45212L425.43536 131.76462L434.701 131.76462L434.701 133.124Q433.326 134.57712 431.98224 136.999Q430.6385 139.40524 429.91974 141.95212Q429.3885 143.749 429.23224 145.88962L427.43536 145.88962Q427.4666 144.20212 428.0916 141.8115Q428.73224 139.42087 429.91974 137.20212Q431.10724 134.96774 432.43536 133.45212L425.43536 133.45212ZM436.6385 135.01462Q436.6385 133.48337 437.4041 132.40524Q438.18536 131.32712 439.6541 131.32712Q440.99786 131.32712 441.87286 132.29587Q442.7635 133.249 442.7635 135.124Q442.7635 136.9365 441.87286 137.92087Q440.98224 138.88962 439.66974 138.88962Q438.37286 138.88962 437.49786 137.9365Q436.6385 136.96774 436.6385 135.01462ZM439.701 132.54587Q439.04474 132.54587 438.60724 133.10837Q438.18536 133.67087 438.18536 135.1865Q438.18536 136.5615 438.62286 137.124Q439.06036 137.6865 439.701 137.6865Q440.37286 137.6865 440.79474 137.124Q441.23224 136.54587 441.23224 135.04587Q441.23224 133.65524 440.79474 133.10837Q440.35724 132.54587 439.701 132.54587ZM439.7166 146.42087L447.54474 131.32712L448.9666 131.32712L441.16974 146.42087L439.7166 146.42087ZM445.9041 142.53024Q445.9041 140.98337 446.66974 139.92087Q447.451 138.84274 448.91974 138.84274Q450.2635 138.84274 451.1385 139.8115Q452.0291 140.76462 452.0291 142.63962Q452.0291 144.45212 451.1385 145.4365Q450.24786 146.42087 448.93536 146.42087Q447.6385 146.42087 446.7635 145.45212Q445.9041 144.46774 445.9041 142.53024ZM448.9666 140.0615Q448.31036 140.0615 447.87286 140.624Q447.43536 141.1865 447.43536 142.70212Q447.43536 144.07712 447.87286 144.63962Q448.31036 145.20212 448.9666 145.20212Q449.6385 145.20212 450.06036 144.63962Q450.49786 144.07712 450.49786 142.5615Q450.49786 141.1865 450.06036 140.624Q449.62286 140.0615 448.9666 140.0615ZM455.951 150.09274L454.701 150.09274Q457.60724 145.40524 457.60724 140.71774Q457.60724 138.874 457.201 137.07712Q456.85724 135.60837 456.2635 134.26462Q455.8885 133.374 454.701 131.32712L455.951 131.32712Q457.79474 133.78024 458.66974 136.249Q459.41974 138.374 459.41974 140.70212Q459.41974 143.34274 458.4041 145.8115Q457.4041 148.26462 455.951 150.09274Z" fill-rule="nonzero"/><path fill="#000000" d="M264.85852 289.79163L266.70227 289.63538Q266.9054 290.97913 267.6554 291.66663Q268.4054 292.3385 269.4679 292.3385Q270.73352 292.3385 271.60852 291.38538Q272.48352 290.43225 272.48352 288.8385Q272.48352 287.3385 271.63977 286.47913Q270.79602 285.60413 269.43665 285.60413Q268.57727 285.60413 267.88977 285.99475Q267.2179 286.36975 266.82727 286.99475L265.17102 286.776L266.56165 279.41663L273.68665 279.41663L273.68665 281.10413L267.9679 281.10413L267.20227 284.94788Q268.48352 284.04163 269.9054 284.04163Q271.7804 284.04163 273.06165 285.35413Q274.35852 286.651 274.35852 288.68225Q274.35852 290.63538 273.2179 292.04163Q271.8429 293.79163 269.4679 293.79163Q267.51477 293.79163 266.26477 292.69788Q265.0304 291.60413 264.85852 289.79163ZM285.70227 297.74475Q284.24915 295.91663 283.24915 293.4635Q282.24915 290.99475 282.24915 288.35413Q282.24915 286.026 282.99915 283.901Q283.87415 281.43225 285.70227 278.97913L286.9679 278.97913Q285.7804 281.01038 285.4054 281.88538Q284.81165 283.22913 284.4679 284.69788Q284.04602 286.526 284.04602 288.36975Q284.04602 293.05725 286.9679 297.74475L285.70227 297.74475ZM288.87415 289.76038L290.62415 289.526Q290.93665 291.026 291.6554 291.68225Q292.38977 292.3385 293.43665 292.3385Q294.67102 292.3385 295.51477 291.47913Q296.37415 290.61975 296.37415 289.35413Q296.37415 288.13538 295.57727 287.35413Q294.79602 286.57288 293.57727 286.57288Q293.07727 286.57288 292.3429 286.76038L292.5304 285.2135Q292.70227 285.24475 292.81165 285.24475Q293.93665 285.24475 294.82727 284.66663Q295.73352 284.07288 295.73352 282.85413Q295.73352 281.88538 295.07727 281.24475Q294.42102 280.60413 293.38977 280.60413Q292.37415 280.60413 291.68665 281.26038Q290.99915 281.901 290.81165 283.18225L289.04602 282.86975Q289.37415 281.10413 290.51477 280.13538Q291.6554 279.16663 293.35852 279.16663Q294.5304 279.16663 295.51477 279.66663Q296.49915 280.16663 297.01477 281.04163Q297.54602 281.91663 297.54602 282.88538Q297.54602 283.80725 297.04602 284.57288Q296.54602 285.3385 295.57727 285.79163Q296.8429 286.07288 297.54602 287.01038Q298.24915 287.93225 298.24915 289.30725Q298.24915 291.18225 296.87415 292.49475Q295.51477 293.79163 293.42102 293.79163Q291.5304 293.79163 290.2804 292.66663Q289.04602 291.54163 288.87415 289.76038ZM299.85852 289.79163L301.70227 289.63538Q301.9054 290.97913 302.6554 291.66663Q303.4054 292.3385 304.4679 292.3385Q305.73352 292.3385 306.60852 291.38538Q307.48352 290.43225 307.48352 288.8385Q307.48352 287.3385 306.63977 286.47913Q305.79602 285.60413 304.43665 285.60413Q303.57727 285.60413 302.88977 285.99475Q302.2179 286.36975 301.82727 286.99475L300.17102 286.776L301.56165 279.41663L308.68665 279.41663L308.68665 281.10413L302.9679 281.10413L302.20227 284.94788Q303.48352 284.04163 304.9054 284.04163Q306.7804 284.04163 308.06165 285.35413Q309.35852 286.651 309.35852 288.68225Q309.35852 290.63538 308.2179 292.04163Q306.8429 293.79163 304.4679 293.79163Q302.51477 293.79163 301.26477 292.69788Q300.0304 291.60413 299.85852 289.79163ZM311.81165 293.54163L311.81165 291.54163L313.81165 291.54163L313.81165 293.54163Q313.81165 294.651 313.42102 295.32288Q313.0304 296.01038 312.18665 296.36975L311.68665 295.61975Q312.24915 295.38538 312.51477 294.901Q312.7804 294.43225 312.81165 293.54163L311.81165 293.54163ZM316.98352 281.10413L316.98352 279.41663L326.24915 279.41663L326.24915 280.776Q324.87415 282.22913 323.5304 284.651Q322.18665 287.05725 321.4679 289.60413Q320.93665 291.401 320.7804 293.54163L318.98352 293.54163Q319.01477 291.85413 319.63977 289.4635Q320.2804 287.07288 321.4679 284.85413Q322.6554 282.61975 323.98352 281.10413L316.98352 281.10413ZM328.18665 282.66663Q328.18665 281.13538 328.95227 280.05725Q329.73352 278.97913 331.20227 278.97913Q332.54602 278.97913 333.42102 279.94788Q334.31165 280.901 334.31165 282.776Q334.31165 284.5885 333.42102 285.57288Q332.5304 286.54163 331.2179 286.54163Q329.92102 286.54163 329.04602 285.5885Q328.18665 284.61975 328.18665 282.66663ZM331.24915 280.19788Q330.5929 280.19788 330.1554 280.76038Q329.73352 281.32288 329.73352 282.8385Q329.73352 284.2135 330.17102 284.776Q330.60852 285.3385 331.24915 285.3385Q331.92102 285.3385 332.3429 284.776Q332.7804 284.19788 332.7804 282.69788Q332.7804 281.30725 332.3429 280.76038Q331.9054 280.19788 331.24915 280.19788ZM331.26477 294.07288L339.0929 278.97913L340.51477 278.97913L332.7179 294.07288L331.26477 294.07288ZM337.45227 290.18225Q337.45227 288.63538 338.2179 287.57288Q338.99915 286.49475 340.4679 286.49475Q341.81165 286.49475 342.68665 287.4635Q343.57727 288.41663 343.57727 290.29163Q343.57727 292.10413 342.68665 293.0885Q341.79602 294.07288 340.48352 294.07288Q339.18665 294.07288 338.31165 293.10413Q337.45227 292.11975 337.45227 290.18225ZM340.51477 287.7135Q339.85852 287.7135 339.42102 288.276Q338.98352 288.8385 338.98352 290.35413Q338.98352 291.72913 339.42102 292.29163Q339.85852 292.85413 340.51477 292.85413Q341.18665 292.85413 341.60852 292.29163Q342.04602 291.72913 342.04602 290.2135Q342.04602 288.8385 341.60852 288.276Q341.17102 287.7135 340.51477 287.7135ZM347.49915 297.74475L346.24915 297.74475Q349.1554 293.05725 349.1554 288.36975Q349.1554 286.526 348.74915 284.72913Q348.4054 283.26038 347.81165 281.91663Q347.43665 281.026 346.24915 278.97913L347.49915 278.97913Q349.3429 281.43225 350.2179 283.901Q350.9679 286.026 350.9679 288.35413Q350.9679 290.99475 349.95227 293.4635Q348.95227 295.91663 347.49915 297.74475Z" fill-rule="nonzero"/><path fill="#000000" d="M221.24133 127.53768L221.24133 124.11581L215.02258 124.11581L215.02258 122.49081L221.55383 113.22518L222.99133 113.22518L222.99133 122.49081L224.92883 122.49081L224.92883 124.11581L222.99133 124.11581L222.99133 127.53768L221.24133 127.53768ZM221.24133 122.49081L221.24133 116.03768L216.75696 122.49081L221.24133 122.49081ZM236.44446 131.74081Q234.99133 129.91269 233.99133 127.45956Q232.99133 124.99081 232.99133 122.35018Q232.99133 120.02206 233.74133 117.89706Q234.61633 115.42831 236.44446 112.97518L237.71008 112.97518Q236.52258 115.00643 236.14758 115.88143Q235.55383 117.22518 235.21008 118.69393Q234.78821 120.52206 234.78821 122.36581Q234.78821 127.05331 237.71008 131.74081L236.44446 131.74081ZM248.83508 125.85018L248.83508 127.53768L239.38196 127.53768Q239.36633 126.89706 239.58508 126.31893Q239.94446 125.35018 240.74133 124.41268Q241.53821 123.47518 243.03821 122.24081Q245.38196 120.33456 246.19446 119.22518Q247.02258 118.10018 247.02258 117.10018Q247.02258 116.05331 246.27258 115.33456Q245.52258 114.61581 244.31946 114.61581Q243.05383 114.61581 242.28821 115.38143Q241.52258 116.14706 241.52258 117.49081L239.71008 117.30331Q239.89758 115.28768 241.10071 114.22518Q242.31946 113.16268 244.36633 113.16268Q246.41321 113.16268 247.61633 114.30331Q248.81946 115.44393 248.81946 117.13143Q248.81946 117.99081 248.46008 118.83456Q248.11633 119.66268 247.30383 120.58456Q246.49133 121.49081 244.60071 123.10018Q243.00696 124.42831 242.55383 124.89706Q242.11633 125.36581 241.81946 125.85018L248.83508 125.85018ZM253.30383 119.77206Q252.21008 119.36581 251.67883 118.63143Q251.16321 117.88143 251.16321 116.85018Q251.16321 115.28768 252.28821 114.22518Q253.41321 113.16268 255.27258 113.16268Q257.14758 113.16268 258.2882 114.25643Q259.42883 115.33456 259.42883 116.89706Q259.42883 117.89706 258.89758 118.63143Q258.38196 119.36581 257.31946 119.77206Q258.64758 120.20956 259.33508 121.16268Q260.02258 122.11581 260.02258 123.44393Q260.02258 125.28768 258.71008 126.53768Q257.4132 127.78768 255.30383 127.78768Q253.17883 127.78768 251.88196 126.53768Q250.58508 125.27206 250.58508 123.39706Q250.58508 122.00643 251.28821 121.06893Q252.00696 120.11581 253.30383 119.77206ZM252.96008 116.78768Q252.96008 117.80331 253.61633 118.45956Q254.27258 119.10018 255.30383 119.10018Q256.31946 119.10018 256.9757 118.45956Q257.63196 117.81893 257.63196 116.89706Q257.63196 115.92831 256.96008 115.27206Q256.2882 114.60018 255.28821 114.60018Q254.28821 114.60018 253.61633 115.25643Q252.96008 115.89706 252.96008 116.78768ZM252.39758 123.41268Q252.39758 124.16268 252.74133 124.86581Q253.10071 125.56893 253.80383 125.95956Q254.50696 126.33456 255.31946 126.33456Q256.58508 126.33456 257.39758 125.52206Q258.2257 124.70956 258.2257 123.45956Q258.2257 122.19393 257.38196 121.36581Q256.5382 120.53768 255.25696 120.53768Q254.02258 120.53768 253.21008 121.36581Q252.39758 122.17831 252.39758 123.41268ZM262.55383 127.53768L262.55383 125.53768L264.55383 125.53768L264.55383 127.53768Q264.55383 128.64706 264.1632 129.31894Q263.77258 130.00644 262.92883 130.36581L262.42883 129.61581Q262.99133 129.38144 263.25696 128.89706Q263.52258 128.42831 263.55383 127.53768L262.55383 127.53768ZM276.7257 116.72518L274.9757 116.86581Q274.74133 115.83456 274.31946 115.36581Q273.6007 114.60018 272.55383 114.60018Q271.71008 114.60018 271.08508 115.06893Q270.25696 115.67831 269.77258 116.85018Q269.2882 118.00643 269.27258 120.14706Q269.9132 119.19393 270.81946 118.72518Q271.74133 118.25643 272.75696 118.25643Q274.50696 118.25643 275.74133 119.55331Q276.9757 120.83456 276.9757 122.88143Q276.9757 124.24081 276.39758 125.39706Q275.81946 126.55331 274.80383 127.17831Q273.7882 127.78768 272.49133 127.78768Q270.30383 127.78768 268.9132 126.17831Q267.52258 124.55331 267.52258 120.83456Q267.52258 116.69393 269.05383 114.80331Q270.39758 113.16268 272.6632 113.16268Q274.3507 113.16268 275.42883 114.11581Q276.50696 115.05331 276.7257 116.72518ZM269.55383 122.89706Q269.55383 123.80331 269.92883 124.63143Q270.31946 125.45956 271.00696 125.89706Q271.71008 126.33456 272.46008 126.33456Q273.58508 126.33456 274.38196 125.44393Q275.17883 124.53768 275.17883 122.99081Q275.17883 121.50643 274.38196 120.66268Q273.6007 119.80331 272.39758 119.80331Q271.21008 119.80331 270.38196 120.66268Q269.55383 121.50643 269.55383 122.89706ZM278.92883 116.66268Q278.92883 115.13143 279.69446 114.05331Q280.4757 112.97518 281.94446 112.97518Q283.2882 112.97518 284.1632 113.94393Q285.05383 114.89706 285.05383 116.77206Q285.05383 118.58456 284.1632 119.56893Q283.27258 120.53768 281.96008 120.53768Q280.6632 120.53768 279.7882 119.58456Q278.92883 118.61581 278.92883 116.66268ZM281.99133 114.19393Q281.33508 114.19393 280.89758 114.75643Q280.4757 115.31893 280.4757 116.83456Q280.4757 118.20956 280.9132 118.77206Q281.3507 119.33456 281.99133 119.33456Q282.6632 119.33456 283.08508 118.77206Q283.52258 118.19393 283.52258 116.69393Q283.52258 115.30331 283.08508 114.75643Q282.64758 114.19393 281.99133 114.19393ZM282.00696 128.06894L289.83508 112.97518L291.25696 112.97518L283.46008 128.06894L282.00696 128.06894ZM288.19446 124.17831Q288.19446 122.63143 288.96008 121.56893Q289.74133 120.49081 291.21008 120.49081Q292.55383 120.49081 293.42883 121.45956Q294.31946 122.41268 294.31946 124.28768Q294.31946 126.10018 293.42883 127.08456Q292.5382 128.06894 291.2257 128.06894Q289.92883 128.06894 289.05383 127.10018Q288.19446 126.11581 288.19446 124.17831ZM291.25696 121.70956Q290.6007 121.70956 290.1632 122.27206Q289.7257 122.83456 289.7257 124.35018Q289.7257 125.72518 290.1632 126.28768Q290.6007 126.85018 291.25696 126.85018Q291.92883 126.85018 292.3507 126.28768Q292.7882 125.72518 292.7882 124.20956Q292.7882 122.83456 292.3507 122.27206Q291.9132 121.70956 291.25696 121.70956ZM298.24133 131.74081L296.99133 131.74081Q299.89758 127.05331 299.89758 122.36581Q299.89758 120.52206 299.49133 118.72518Q299.14758 117.25643 298.55383 115.91268Q298.17883 115.02206 296.99133 112.97518L298.24133 112.97518Q300.08508 115.42831 300.96008 117.89706Q301.71008 120.02206 301.71008 122.35018Q301.71008 124.99081 300.69446 127.45956Q299.69446 129.91269 298.24133 131.74081Z" fill-rule="nonzero"/><path fill="#4285f4" d="M201.0 366.0C201.0 369.31372 198.3137 372.0 195.0 372.0C191.6863 372.0 189.0 369.31372 189.0 366.0C189.0 362.68628 191.6863 360.0 195.0 360.0C198.3137 360.0 201.0 362.68628 201.0 366.0Z" fill-rule="nonzero"/><path fill="#1a1a1a" d="M210.15625 365.625Q210.15625 361.35938 212.45312 358.9375Q214.75 356.51562 218.39062 356.51562Q220.76562 356.51562 222.67188 357.65625Q224.59375 358.78125 225.59375 360.82812Q226.59375 362.85938 226.59375 365.4375Q226.59375 368.04688 225.53125 370.10938Q224.48438 372.17188 222.54688 373.23438Q220.60938 374.29688 218.375 374.29688Q215.95312 374.29688 214.03125 373.125Q212.125 371.95312 211.14062 369.92188Q210.15625 367.89062 210.15625 365.625ZM212.5 365.67188Q212.5 368.76562 214.17188 370.5625Q215.84375 372.34375 218.35938 372.34375Q220.9375 372.34375 222.59375 370.54688Q224.25 368.73438 224.25 365.42188Q224.25 363.32812 223.53125 361.76562Q222.82812 360.1875 221.45312 359.32812Q220.09375 358.46875 218.40625 358.46875Q215.98438 358.46875 214.23438 360.125Q212.5 361.78125 212.5 365.67188ZM237.73438 374.0L237.73438 372.17188Q236.28125 374.28125 233.79688 374.28125Q232.6875 374.28125 231.73438 373.85938Q230.78125 373.4375 230.3125 372.79688Q229.85938 372.15625 229.67188 371.23438Q229.53125 370.60938 229.53125 369.26562L229.53125 361.54688L231.64062 361.54688L231.64062 368.45312Q231.64062 370.10938 231.78125 370.6875Q231.96875 371.51562 232.60938 372.0Q233.26562 372.46875 234.21875 372.46875Q235.15625 372.46875 235.98438 371.98438Q236.82812 371.48438 237.17188 370.65625Q237.51562 369.8125 237.51562 368.21875L237.51562 361.54688L239.625 361.54688L239.625 374.0L237.73438 374.0ZM242.59375 359.25L242.59375 356.8125L244.70312 356.8125L244.70312 359.25L242.59375 359.25ZM242.59375 374.0L242.59375 361.54688L244.70312 361.54688L244.70312 374.0L242.59375 374.0Z" fill-rule="nonzero"/><path fill="#ea4335" d="M274.0 366.0C274.0 369.31372 271.31372 372.0 268.0 372.0C264.68628 372.0 262.0 369.31372 262.0 366.0C262.0 362.68628 264.68628 360.0 268.0 360.0C271.31372 360.0 274.0 362.68628 274.0 366.0Z" fill-rule="nonzero"/><path fill="#1a1a1a" d="M283.82812 374.0L283.82812 356.8125L286.15625 356.8125L295.1875 370.3125L295.1875 356.8125L297.35938 356.8125L297.35938 374.0L295.03125 374.0L286.01562 360.5L286.01562 374.0L283.82812 374.0ZM299.79688 367.78125Q299.79688 364.3125 301.71875 362.65625Q303.32812 361.26562 305.64062 361.26562Q308.20312 361.26562 309.82812 362.95312Q311.45312 364.64062 311.45312 367.59375Q311.45312 370.0 310.73438 371.375Q310.01562 372.75 308.64062 373.51562Q307.26562 374.28125 305.64062 374.28125Q303.01562 374.28125 301.40625 372.60938Q299.79688 370.92188 299.79688 367.78125ZM301.96875 367.78125Q301.96875 370.17188 303.0 371.35938Q304.04688 372.54688 305.64062 372.54688Q307.20312 372.54688 308.25 371.35938Q309.29688 370.15625 309.29688 367.70312Q309.29688 365.39062 308.23438 364.20312Q307.1875 363.01562 305.64062 363.01562Q304.04688 363.01562 303.0 364.20312Q301.96875 365.39062 301.96875 367.78125ZM313.57812 374.0L313.57812 361.54688L315.48438 361.54688L315.48438 363.32812Q316.85938 361.26562 319.4375 361.26562Q320.5625 361.26562 321.5 361.67188Q322.45312 362.07812 322.92188 362.73438Q323.39062 363.39062 323.57812 364.29688Q323.70312 364.875 323.70312 366.34375L323.70312 374.0L321.59375 374.0L321.59375 366.42188Q321.59375 365.14062 321.34375 364.5Q321.09375 363.85938 320.46875 363.48438Q319.84375 363.09375 319.0 363.09375Q317.65625 363.09375 316.67188 363.95312Q315.6875 364.8125 315.6875 367.20312L315.6875 374.0L313.57812 374.0Z" fill-rule="nonzero"/><path fill="#fbbc04" d="M353.0 366.0C353.0 369.31372 350.31372 372.0 347.0 372.0C343.68628 372.0 341.0 369.31372 341.0 366.0C341.0 362.68628 343.68628 360.0 347.0 360.0C350.31372 360.0 353.0 362.68628 353.0 366.0Z" fill-rule="nonzero"/><path fill="#1a1a1a" d="M375.10938 367.96875L377.39062 368.54688Q376.67188 371.34375 374.8125 372.82812Q372.95312 374.29688 370.26562 374.29688Q367.5 374.29688 365.75 373.17188Q364.01562 372.03125 363.10938 369.89062Q362.20312 367.73438 362.20312 365.28125Q362.20312 362.59375 363.21875 360.59375Q364.25 358.59375 366.14062 357.5625Q368.03125 356.53125 370.3125 356.53125Q372.89062 356.53125 374.64062 357.84375Q376.40625 359.15625 377.09375 361.53125L374.85938 362.0625Q374.25 360.1875 373.10938 359.32812Q371.98438 358.46875 370.26562 358.46875Q368.28125 358.46875 366.95312 359.42188Q365.625 360.375 365.07812 361.96875Q364.54688 363.5625 364.54688 365.26562Q364.54688 367.45312 365.17188 369.09375Q365.8125 370.73438 367.15625 371.54688Q368.51562 372.34375 370.07812 372.34375Q372.0 372.34375 373.3125 371.25Q374.64062 370.14062 375.10938 367.96875ZM368.53125 375.8125L369.14062 373.73438L370.71875 373.73438L370.32812 374.98438Q371.32812 375.10938 371.82812 375.59375Q372.32812 376.09375 372.32812 376.70312Q372.32812 377.59375 371.48438 378.26562Q370.64062 378.9375 368.9375 378.9375Q367.98438 378.9375 367.25 378.79688L367.39062 377.42188Q368.14062 377.46875 368.48438 377.46875Q369.59375 377.46875 370.03125 377.17188Q370.375 376.9375 370.375 376.59375Q370.375 376.375 370.23438 376.20312Q370.10938 376.04688 369.73438 375.92188Q369.375 375.8125 368.53125 375.8125ZM387.70312 372.46875Q386.53125 373.45312 385.4375 373.875Q384.35938 374.28125 383.125 374.28125Q381.07812 374.28125 379.96875 373.28125Q378.875 372.28125 378.875 370.71875Q378.875 369.79688 379.28125 369.04688Q379.70312 368.29688 380.375 367.84375Q381.04688 367.375 381.89062 367.14062Q382.51562 366.98438 383.76562 366.82812Q386.32812 366.51562 387.53125 366.09375Q387.54688 365.67188 387.54688 365.54688Q387.54688 364.26562 386.9375 363.73438Q386.14062 363.01562 384.54688 363.01562Q383.04688 363.01562 382.34375 363.54688Q381.64062 364.0625 381.29688 365.39062L379.23438 365.10938Q379.51562 363.78125 380.15625 362.96875Q380.79688 362.15625 382.01562 361.71875Q383.23438 361.26562 384.84375 361.26562Q386.4375 361.26562 387.4375 361.64062Q388.4375 362.01562 388.90625 362.59375Q389.375 363.15625 389.5625 364.03125Q389.65625 364.5625 389.65625 365.96875L389.65625 368.78125Q389.65625 371.71875 389.79688 372.5Q389.9375 373.28125 390.32812 374.0L388.125 374.0Q387.79688 373.34375 387.70312 372.46875ZM387.53125 367.75Q386.375 368.21875 384.07812 368.54688Q382.78125 368.73438 382.23438 368.96875Q381.70312 369.20312 381.40625 369.65625Q381.125 370.10938 381.125 370.65625Q381.125 371.5 381.75 372.0625Q382.39062 372.625 383.625 372.625Q384.84375 372.625 385.79688 372.09375Q386.75 371.5625 387.1875 370.64062Q387.53125 369.92188 387.53125 368.53125L387.53125 367.75ZM407.65625 374.0L407.65625 372.42188Q406.46875 374.28125 404.17188 374.28125Q402.6875 374.28125 401.4375 373.46875Q400.1875 372.64062 399.5 371.17188Q398.82812 369.70312 398.82812 367.78125Q398.82812 365.92188 399.4375 364.40625Q400.0625 362.89062 401.29688 362.07812Q402.54688 361.26562 404.07812 361.26562Q405.20312 361.26562 406.07812 361.75Q406.96875 362.21875 407.51562 362.98438L407.51562 356.8125L409.60938 356.8125L409.60938 374.0L407.65625 374.0ZM400.98438 367.78125Q400.98438 370.17188 401.98438 371.35938Q403.0 372.54688 404.375 372.54688Q405.76562 372.54688 406.71875 371.42188Q407.6875 370.28125 407.6875 367.96875Q407.6875 365.40625 406.70312 364.21875Q405.71875 363.01562 404.28125 363.01562Q402.875 363.01562 401.92188 364.17188Q400.98438 365.3125 400.98438 367.78125ZM421.10938 369.98438L423.28125 370.26562Q422.76562 372.17188 421.375 373.23438Q419.98438 374.28125 417.8125 374.28125Q415.07812 374.28125 413.46875 372.60938Q411.875 370.92188 411.875 367.875Q411.875 364.73438 413.48438 363.0Q415.10938 361.26562 417.6875 361.26562Q420.1875 361.26562 421.76562 362.96875Q423.35938 364.67188 423.35938 367.75Q423.35938 367.9375 423.34375 368.3125L414.0625 368.3125Q414.17188 370.35938 415.21875 371.45312Q416.26562 372.54688 417.82812 372.54688Q418.98438 372.54688 419.79688 371.9375Q420.625 371.32812 421.10938 369.98438ZM414.17188 366.57812L421.125 366.57812Q420.98438 365.01562 420.32812 364.21875Q419.32812 363.0 417.71875 363.0Q416.26562 363.0 415.26562 363.98438Q414.28125 364.95312 414.17188 366.57812ZM416.60938 360.0L418.15625 356.71875L420.92188 356.71875L418.34375 360.0L416.60938 360.0ZM425.57812 378.76562L425.57812 361.54688L427.5 361.54688L427.5 363.17188Q428.1875 362.21875 429.03125 361.75Q429.89062 361.26562 431.10938 361.26562Q432.70312 361.26562 433.92188 362.09375Q435.14062 362.90625 435.76562 364.40625Q436.39062 365.90625 436.39062 367.6875Q436.39062 369.59375 435.70312 371.125Q435.01562 372.65625 433.70312 373.46875Q432.40625 374.28125 430.96875 374.28125Q429.90625 374.28125 429.0625 373.84375Q428.23438 373.39062 427.6875 372.70312L427.6875 378.76562L425.57812 378.76562ZM427.5 367.84375Q427.5 370.25 428.46875 371.40625Q429.4375 372.54688 430.82812 372.54688Q432.23438 372.54688 433.23438 371.35938Q434.23438 370.17188 434.23438 367.67188Q434.23438 365.29688 433.25 364.10938Q432.28125 362.92188 430.92188 362.92188Q429.5625 362.92188 428.53125 364.1875Q427.5 365.4375 427.5 367.84375ZM447.10938 369.98438L449.28125 370.26562Q448.76562 372.17188 447.375 373.23438Q445.98438 374.28125 443.8125 374.28125Q441.07812 374.28125 439.46875 372.60938Q437.875 370.92188 437.875 367.875Q437.875 364.73438 439.48438 363.0Q441.10938 361.26562 443.6875 361.26562Q446.1875 361.26562 447.76562 362.96875Q449.35938 364.67188 449.35938 367.75Q449.35938 367.9375 449.34375 368.3125L440.0625 368.3125Q440.17188 370.35938 441.21875 371.45312Q442.26562 372.54688 443.82812 372.54688Q444.98438 372.54688 445.79688 371.9375Q446.625 371.32812 447.10938 369.98438ZM440.17188 366.57812L447.125 366.57812Q446.98438 365.01562 446.32812 364.21875Q445.32812 363.0 443.71875 363.0Q442.26562 363.0 441.26562 363.98438Q440.28125 364.95312 440.17188 366.57812ZM451.57812 374.0L451.57812 361.54688L453.48438 361.54688L453.48438 363.32812Q454.85938 361.26562 457.4375 361.26562Q458.5625 361.26562 459.5 361.67188Q460.45312 362.07812 460.92188 362.73438Q461.39062 363.39062 461.57812 364.29688Q461.70312 364.875 461.70312 366.34375L461.70312 374.0L459.59375 374.0L459.59375 366.42188Q459.59375 365.14062 459.34375 364.5Q459.09375 363.85938 458.46875 363.48438Q457.84375 363.09375 457.0 363.09375Q455.65625 363.09375 454.67188 363.95312Q453.6875 364.8125 453.6875 367.20312L453.6875 374.0L451.57812 374.0ZM472.65625 374.0L472.65625 372.42188Q471.46875 374.28125 469.17188 374.28125Q467.6875 374.28125 466.4375 373.46875Q465.1875 372.64062 464.5 371.17188Q463.82812 369.70312 463.82812 367.78125Q463.82812 365.92188 464.4375 364.40625Q465.0625 362.89062 466.29688 362.07812Q467.54688 361.26562 469.07812 361.26562Q470.20312 361.26562 471.07812 361.75Q471.96875 362.21875 472.51562 362.98438L472.51562 356.8125L474.60938 356.8125L474.60938 374.0L472.65625 374.0ZM465.98438 367.78125Q465.98438 370.17188 466.98438 371.35938Q468.0 372.54688 469.375 372.54688Q470.76562 372.54688 471.71875 371.42188Q472.6875 370.28125 472.6875 367.96875Q472.6875 365.40625 471.70312 364.21875Q470.71875 363.01562 469.28125 363.01562Q467.875 363.01562 466.92188 364.17188Q465.98438 365.3125 465.98438 367.78125Z" fill-rule="nonzero"/></svg>