<svg width="585" height="331" xmlns="http://www.w3.org/2000/svg" xmlns:xlink="http://www.w3.org/1999/xlink" overflow="hidden"><defs><clipPath id="clip0"><rect x="254" y="37" width="585" height="331"/></clipPath></defs><g clip-path="url(#clip0)" transform="translate(-254 -37)"><path d="M255.5 122C255.5 111.783 264.007 103.5 274.5 103.5 284.993 103.5 293.5 111.783 293.5 122 293.5 132.217 284.993 140.5 274.5 140.5 264.007 140.5 255.5 132.217 255.5 122Z" stroke="#000000" stroke-width="1.33333" stroke-miterlimit="8" fill-rule="evenodd"/><path d="M293.5 122C293.5 111.783 301.783 103.5 312 103.5L502 103.5C512.218 103.5 520.5 111.783 520.5 122L520.5 122C520.5 132.218 512.217 140.5 502 140.5L312 140.5C301.783 140.5 293.5 132.217 293.5 122Z" stroke="#000000" stroke-width="1.33333" stroke-miterlimit="8" fill-rule="evenodd"/><path d="M304.5 129.5C304.5 124.529 308.529 120.5 313.5 120.5L408.5 120.5C413.471 120.5 417.5 124.529 417.5 129.5L417.5 129.5C417.5 134.471 413.471 138.5 408.5 138.5L313.5 138.5C308.529 138.5 304.5 134.471 304.5 129.5Z" stroke="#000000" stroke-width="1.33333" stroke-miterlimit="8" fill="#FFFFFF" fill-rule="evenodd"/><path d="M431.483 119.643 434.643 116.483 438 119.84 441.357 116.483 444.517 119.643 441.16 123 444.517 126.357 441.357 129.517 438 126.16 434.643 129.517 431.483 126.357 434.84 123Z" stroke="#C00000" stroke-width="1.33333" stroke-miterlimit="8" fill="#C00000" fill-rule="evenodd"/><path d="M448.287 119.519 451.36 116.608 454.5 119.922 457.64 116.608 460.714 119.519 457.416 123 460.714 126.481 457.64 129.393 454.5 126.078 451.36 129.393 448.287 126.481 451.584 123Z" stroke="#C00000" stroke-width="1.33333" stroke-miterlimit="8" fill="#C00000" fill-rule="evenodd"/><path d="M464.483 119.643 467.643 116.483 471 119.84 474.357 116.483 477.517 119.643 474.16 123 477.517 126.357 474.357 129.517 471 126.16 467.643 129.517 464.483 126.357 467.84 123Z" stroke="#C00000" stroke-width="1.33333" stroke-miterlimit="8" fill="#C00000" fill-rule="evenodd"/><path d="M481.483 119.643 484.643 116.483 488 119.84 491.357 116.483 494.517 119.643 491.16 123 494.517 126.357 491.357 129.517 488 126.16 484.643 129.517 481.483 126.357 484.84 123Z" stroke="#C00000" stroke-width="1.33333" stroke-miterlimit="8" fill="#C00000" fill-rule="evenodd"/><path d="M498.483 119.643 501.643 116.483 505 119.84 508.357 116.483 511.517 119.643 508.16 123 511.517 126.357 508.357 129.517 505 126.16 501.643 129.517 498.483 126.357 501.84 123Z" stroke="#C00000" stroke-width="1.33333" stroke-miterlimit="8" fill="#C00000" fill-rule="evenodd"/><path d="M572.5 122C572.5 111.783 581.007 103.5 591.5 103.5 601.993 103.5 610.5 111.783 610.5 122 610.5 132.217 601.993 140.5 591.5 140.5 581.007 140.5 572.5 132.217 572.5 122Z" stroke="#000000" stroke-width="1.33333" stroke-miterlimit="8" fill-rule="evenodd"/><path d="M610.5 122C610.5 111.783 618.783 103.5 629 103.5L819 103.5C829.218 103.5 837.5 111.783 837.5 122L837.5 122C837.5 132.218 829.217 140.5 819 140.5L629 140.5C618.783 140.5 610.5 132.217 610.5 122Z" stroke="#000000" stroke-width="1.33333" stroke-miterlimit="8" fill-rule="evenodd"/><path d="M621.5 129.5C621.5 124.529 625.529 120.5 630.5 120.5L725.5 120.5C730.471 120.5 734.5 124.529 734.5 129.5L734.5 129.5C734.5 134.471 730.471 138.5 725.5 138.5L630.5 138.5C625.529 138.5 621.5 134.471 621.5 129.5Z" stroke="#000000" stroke-width="1.33333" stroke-miterlimit="8" fill="#FFFFFF" fill-rule="evenodd"/><path d="M765.483 119.643 768.643 116.483 772 119.84 775.357 116.483 778.517 119.643 775.16 123 778.517 126.357 775.357 129.517 772 126.16 768.643 129.517 765.483 126.357 768.84 123Z" stroke="#C00000" stroke-width="1.33333" stroke-miterlimit="8" fill="#C00000" fill-rule="evenodd"/><path d="M572.5 179.5C572.5 169.007 581.007 160.5 591.5 160.5 601.993 160.5 610.5 169.007 610.5 179.5 610.5 189.993 601.993 198.5 591.5 198.5 581.007 198.5 572.5 189.993 572.5 179.5Z" stroke="#000000" stroke-width="1.33333" stroke-miterlimit="8" fill-rule="evenodd"/><path d="M610.5 179.5C610.5 169.007 619.007 160.5 629.5 160.5L818.5 160.5C828.994 160.5 837.5 169.007 837.5 179.5L837.5 179.5C837.5 189.994 828.993 198.5 818.5 198.5L629.5 198.5C619.007 198.5 610.5 189.993 610.5 179.5Z" stroke="#000000" stroke-width="1.33333" stroke-miterlimit="8" fill-rule="evenodd"/><path d="M621.5 187C621.5 181.753 625.753 177.5 631 177.5L725 177.5C730.247 177.5 734.5 181.753 734.5 187L734.5 187C734.5 192.247 730.247 196.5 725 196.5L631 196.5C625.753 196.5 621.5 192.247 621.5 187Z" stroke="#000000" stroke-width="1.33333" stroke-miterlimit="8" fill="#FFFFFF" fill-rule="evenodd"/><path d="M765.483 176.643 768.643 173.483 772 176.84 775.357 173.483 778.517 176.643 775.16 180 778.517 183.357 775.357 186.517 772 183.16 768.643 186.517 765.483 183.357 768.84 180Z" stroke="#C00000" stroke-width="1.33333" stroke-miterlimit="8" fill="#C00000" fill-rule="evenodd"/><path d="M572.5 236C572.5 225.783 581.007 217.5 591.5 217.5 601.993 217.5 610.5 225.783 610.5 236 610.5 246.217 601.993 254.5 591.5 254.5 581.007 254.5 572.5 246.217 572.5 236Z" stroke="#000000" stroke-width="1.33333" stroke-miterlimit="8" fill-rule="evenodd"/><path d="M610.5 236C610.5 225.783 618.783 217.5 629 217.5L819 217.5C829.218 217.5 837.5 225.783 837.5 236L837.5 236C837.5 246.217 829.217 254.5 819 254.5L629 254.5C618.783 254.5 610.5 246.217 610.5 236Z" stroke="#000000" stroke-width="1.33333" stroke-miterlimit="8" fill-rule="evenodd"/><path d="M621.5 244C621.5 238.753 625.753 234.5 631 234.5L725 234.5C730.247 234.5 734.5 238.753 734.5 244L734.5 244C734.5 249.247 730.247 253.5 725 253.5L631 253.5C625.753 253.5 621.5 249.247 621.5 244Z" stroke="#000000" stroke-width="1.33333" stroke-miterlimit="8" fill="#FFFFFF" fill-rule="evenodd"/><path d="M765.483 233.643 768.643 230.483 772 233.84 775.357 230.483 778.517 233.643 775.16 237 778.517 240.357 775.357 243.517 772 240.16 768.643 243.517 765.483 240.357 768.84 237Z" stroke="#C00000" stroke-width="1.33333" stroke-miterlimit="8" fill="#C00000" fill-rule="evenodd"/><path d="M572.5 290.5C572.5 280.007 581.007 271.5 591.5 271.5 601.993 271.5 610.5 280.007 610.5 290.5 610.5 300.993 601.993 309.5 591.5 309.5 581.007 309.5 572.5 300.993 572.5 290.5Z" stroke="#000000" stroke-width="1.33333" stroke-miterlimit="8" fill-rule="evenodd"/><path d="M610.5 290.5C610.5 280.007 619.007 271.5 629.5 271.5L818.5 271.5C828.994 271.5 837.5 280.007 837.5 290.5L837.5 290.5C837.5 300.994 828.993 309.5 818.5 309.5L629.5 309.5C619.007 309.5 610.5 300.993 610.5 290.5Z" stroke="#000000" stroke-width="1.33333" stroke-miterlimit="8" fill-rule="evenodd"/><path d="M621.5 298C621.5 292.753 625.753 288.5 631 288.5L725 288.5C730.247 288.5 734.5 292.753 734.5 298L734.5 298C734.5 303.247 730.247 307.5 725 307.5L631 307.5C625.753 307.5 621.5 303.247 621.5 298Z" stroke="#000000" stroke-width="1.33333" stroke-miterlimit="8" fill="#FFFFFF" fill-rule="evenodd"/><path d="M765.483 288.643 768.643 285.483 772 288.84 775.357 285.483 778.517 288.643 775.16 292 778.517 295.357 775.357 298.517 772 295.16 768.643 298.517 765.483 295.357 768.84 292Z" stroke="#C00000" stroke-width="1.33333" stroke-miterlimit="8" fill="#C00000" fill-rule="evenodd"/><path d="M572.5 347.5C572.5 337.007 581.007 328.5 591.5 328.5 601.993 328.5 610.5 337.007 610.5 347.5 610.5 357.993 601.993 366.5 591.5 366.5 581.007 366.5 572.5 357.993 572.5 347.5Z" stroke="#000000" stroke-width="1.33333" stroke-miterlimit="8" fill-rule="evenodd"/><path d="M610.5 347.5C610.5 337.007 619.007 328.5 629.5 328.5L818.5 328.5C828.994 328.5 837.5 337.007 837.5 347.5L837.5 347.5C837.5 357.994 828.993 366.5 818.5 366.5L629.5 366.5C619.007 366.5 610.5 357.993 610.5 347.5Z" stroke="#000000" stroke-width="1.33333" stroke-miterlimit="8" fill-rule="evenodd"/><path d="M621.5 355C621.5 349.753 625.753 345.5 631 345.5L725 345.5C730.247 345.5 734.5 349.753 734.5 355L734.5 355C734.5 360.247 730.247 364.5 725 364.5L631 364.5C625.753 364.5 621.5 360.247 621.5 355Z" stroke="#000000" stroke-width="1.33333" stroke-miterlimit="8" fill="#FFFFFF" fill-rule="evenodd"/><path d="M765.608 345.36 768.519 342.287 772 345.584 775.481 342.287 778.393 345.36 775.078 348.5 778.393 351.64 775.481 354.714 772 351.416 768.519 354.714 765.608 351.64 768.922 348.5Z" stroke="#C00000" stroke-width="1.33333" stroke-miterlimit="8" fill="#C00000" fill-rule="evenodd"/><text font-family="Calibri,Calibri_MSFontService,sans-serif" font-weight="400" font-size="24" transform="translate(362.785 67)">Patient 0<tspan x="258.017" y="0">Patient 1, 2, 3, 4, 5</tspan></text></g></svg>