<svg width="572" height="390" xmlns="http://www.w3.org/2000/svg" xmlns:xlink="http://www.w3.org/1999/xlink" overflow="hidden"><defs><clipPath id="clip0"><rect x="91" y="300" width="572" height="390"/></clipPath></defs><g clip-path="url(#clip0)" transform="translate(-91 -300)"><path d="M92.9226 302.02 130.718 302.02 130.718 340.42 92.9226 340.42Z" fill="#D6DCE5" fill-rule="evenodd"/><path d="M130.718 302.02 168.513 302.02 168.513 340.42 130.718 340.42Z" fill="#D6DCE5" fill-rule="evenodd"/><path d="M168.513 302.02 206.308 302.02 206.308 340.42 168.513 340.42Z" fill="#D6DCE5" fill-rule="evenodd"/><path d="M206.308 302.02 244.104 302.02 244.104 570.82 206.308 570.82Z" fill="#FFFFFF" fill-rule="evenodd"/><path d="M92.9226 340.42 130.718 340.42 130.718 378.82 92.9226 378.82Z" fill="#D6DCE5" fill-rule="evenodd"/><path d="M130.718 340.42 168.513 340.42 168.513 378.82 130.718 378.82Z" fill="#D6DCE5" fill-rule="evenodd"/><path d="M168.513 340.42 206.308 340.42 206.308 378.82 168.513 378.82Z" fill="#D6DCE5" fill-rule="evenodd"/><path d="M92.9226 378.82 130.718 378.82 130.718 417.22 92.9226 417.22Z" fill="#D6DCE5" fill-rule="evenodd"/><path d="M130.718 378.82 168.513 378.82 168.513 417.22 130.718 417.22Z" fill="#D6DCE5" fill-rule="evenodd"/><path d="M168.513 378.82 206.308 378.82 206.308 417.22 168.513 417.22Z" fill="#D6DCE5" fill-rule="evenodd"/><path d="M92.9226 417.22 130.718 417.22 130.718 455.62 92.9226 455.62Z" fill="#D6DCE5" fill-rule="evenodd"/><path d="M130.718 417.22 168.513 417.22 168.513 455.62 130.718 455.62Z" fill="#D6DCE5" fill-rule="evenodd"/><path d="M168.513 417.22 206.308 417.22 206.308 455.62 168.513 455.62Z" fill="#D6DCE5" fill-rule="evenodd"/><path d="M92.9226 455.62 130.718 455.62 130.718 494.02 92.9226 494.02Z" fill="#D6DCE5" fill-rule="evenodd"/><path d="M130.718 455.62 168.513 455.62 168.513 494.02 130.718 494.02Z" fill="#D6DCE5" fill-rule="evenodd"/><path d="M168.513 455.62 206.308 455.62 206.308 494.02 168.513 494.02Z" fill="#D6DCE5" fill-rule="evenodd"/><path d="M92.9226 494.02 130.718 494.02 130.718 532.42 92.9226 532.42Z" fill="#D6DCE5" fill-rule="evenodd"/><path d="M130.718 494.02 168.513 494.02 168.513 532.42 130.718 532.42Z" fill="#D6DCE5" fill-rule="evenodd"/><path d="M168.513 494.02 206.308 494.02 206.308 532.42 168.513 532.42Z" fill="#D6DCE5" fill-rule="evenodd"/><path d="M92.9226 532.42 130.718 532.42 130.718 570.82 92.9226 570.82Z" fill="#D6DCE5" fill-rule="evenodd"/><path d="M130.718 532.42 168.513 532.42 168.513 570.82 130.718 570.82Z" fill="#D6DCE5" fill-rule="evenodd"/><path d="M168.513 532.42 206.308 532.42 206.308 570.82 168.513 570.82Z" fill="#D6DCE5" fill-rule="evenodd"/><path d="M92.9226 570.82 130.718 570.82 130.718 609.22 92.9226 609.22Z" fill="#D6DCE5" fill-rule="evenodd"/><path d="M130.718 570.82 168.513 570.82 168.513 609.22 130.718 609.22Z" fill="#D6DCE5" fill-rule="evenodd"/><path d="M168.513 570.82 206.308 570.82 206.308 609.22 168.513 609.22Z" fill="#D6DCE5" fill-rule="evenodd"/><path d="M206.308 570.82 244.104 570.82 244.104 609.22 206.308 609.22Z" fill="#D6DCE5" fill-rule="evenodd"/><path d="M92.9226 609.22 130.718 609.22 130.718 647.62 92.9226 647.62Z" fill="#D6DCE5" fill-rule="evenodd"/><path d="M130.718 609.22 168.513 609.22 168.513 647.62 130.718 647.62Z" fill="#D6DCE5" fill-rule="evenodd"/><path d="M168.513 609.22 206.308 609.22 206.308 647.62 168.513 647.62Z" fill="#D6DCE5" fill-rule="evenodd"/><path d="M206.308 609.22 244.104 609.22 244.104 647.62 206.308 647.62Z" fill="#D6DCE5" fill-rule="evenodd"/><path d="M92.9226 647.62 130.718 647.62 130.718 686.02 92.9226 686.02Z" fill="#D6DCE5" fill-rule="evenodd"/><path d="M130.718 647.62 168.513 647.62 168.513 686.02 130.718 686.02Z" fill="#D6DCE5" fill-rule="evenodd"/><path d="M168.513 647.62 206.308 647.62 206.308 686.02 168.513 686.02Z" fill="#D6DCE5" fill-rule="evenodd"/><path d="M206.308 647.62 244.104 647.62 244.104 686.02 206.308 686.02Z" fill="#D6DCE5" fill-rule="evenodd"/><path d="M130.718 300.52 130.718 687.52" stroke="#000000" stroke-width="3" stroke-linejoin="round" stroke-miterlimit="10" fill="none" fill-rule="evenodd"/><path d="M168.513 300.52 168.513 687.52" stroke="#000000" stroke-width="3" stroke-linejoin="round" stroke-miterlimit="10" fill="none" fill-rule="evenodd"/><path d="M206.308 300.52 206.308 687.52" stroke="#000000" stroke-width="3" stroke-linejoin="round" stroke-miterlimit="10" fill="none" fill-rule="evenodd"/><path d="M91.4227 340.42 207.808 340.42" stroke="#000000" stroke-width="3" stroke-linejoin="round" stroke-miterlimit="10" fill="none" fill-rule="evenodd"/><path d="M91.4227 378.82 207.808 378.82" stroke="#000000" stroke-width="3" stroke-linejoin="round" stroke-miterlimit="10" fill="none" fill-rule="evenodd"/><path d="M91.4227 417.22 207.808 417.22" stroke="#000000" stroke-width="3" stroke-linejoin="round" stroke-miterlimit="10" fill="none" fill-rule="evenodd"/><path d="M91.4227 455.62 207.808 455.62" stroke="#000000" stroke-width="3" stroke-linejoin="round" stroke-miterlimit="10" fill="none" fill-rule="evenodd"/><path d="M91.4227 494.02 207.808 494.02" stroke="#000000" stroke-width="3" stroke-linejoin="round" stroke-miterlimit="10" fill="none" fill-rule="evenodd"/><path d="M91.4227 532.42 207.808 532.42" stroke="#000000" stroke-width="3" stroke-linejoin="round" stroke-miterlimit="10" fill="none" fill-rule="evenodd"/><path d="M91.4227 570.82 245.604 570.82" stroke="#000000" stroke-width="3" stroke-linejoin="round" stroke-miterlimit="10" fill="none" fill-rule="evenodd"/><path d="M91.4227 609.22 245.604 609.22" stroke="#000000" stroke-width="3" stroke-linejoin="round" stroke-miterlimit="10" fill="none" fill-rule="evenodd"/><path d="M91.4227 647.62 245.604 647.62" stroke="#000000" stroke-width="3" stroke-linejoin="round" stroke-miterlimit="10" fill="none" fill-rule="evenodd"/><path d="M92.9226 300.52 92.9226 687.52" stroke="#000000" stroke-width="3" stroke-linejoin="round" stroke-miterlimit="10" fill="none" fill-rule="evenodd"/><path d="M244.104 569.32 244.104 687.52" stroke="#000000" stroke-width="3" stroke-linejoin="round" stroke-miterlimit="10" fill="none" fill-rule="evenodd"/><path d="M91.4227 302.02 207.808 302.02" stroke="#000000" stroke-width="3" stroke-linejoin="round" stroke-miterlimit="10" fill="none" fill-rule="evenodd"/><path d="M91.4227 686.02 245.604 686.02" stroke="#000000" stroke-width="3" stroke-linejoin="round" stroke-miterlimit="10" fill="none" fill-rule="evenodd"/><path d="M259.031 302.02 296.826 302.02 296.826 340.42 259.031 340.42Z" fill="#44546A" fill-rule="evenodd"/><path d="M296.826 302.02 334.622 302.02 334.622 340.42 296.826 340.42Z" fill="#44546A" fill-rule="evenodd"/><path d="M334.622 302.02 372.417 302.02 372.417 609.22 334.622 609.22Z" fill="#FFFFFF" fill-rule="evenodd"/><path d="M259.031 340.42 296.826 340.42 296.826 378.82 259.031 378.82Z" fill="#44546A" fill-rule="evenodd"/><path d="M296.826 340.42 334.622 340.42 334.622 378.82 296.826 378.82Z" fill="#44546A" fill-rule="evenodd"/><path d="M259.031 378.82 296.826 378.82 296.826 417.22 259.031 417.22Z" fill="#44546A" fill-rule="evenodd"/><path d="M296.826 378.82 334.622 378.82 334.622 417.22 296.826 417.22Z" fill="#44546A" fill-rule="evenodd"/><path d="M259.031 417.22 296.826 417.22 296.826 455.62 259.031 455.62Z" fill="#44546A" fill-rule="evenodd"/><path d="M296.826 417.22 334.622 417.22 334.622 455.62 296.826 455.62Z" fill="#44546A" fill-rule="evenodd"/><path d="M259.031 455.62 296.826 455.62 296.826 494.02 259.031 494.02Z" fill="#44546A" fill-rule="evenodd"/><path d="M296.826 455.62 334.622 455.62 334.622 494.02 296.826 494.02Z" fill="#44546A" fill-rule="evenodd"/><path d="M259.031 494.02 296.826 494.02 296.826 532.42 259.031 532.42Z" fill="#44546A" fill-rule="evenodd"/><path d="M296.826 494.02 334.622 494.02 334.622 532.42 296.826 532.42Z" fill="#44546A" fill-rule="evenodd"/><path d="M259.031 532.42 296.826 532.42 296.826 570.82 259.031 570.82Z" fill="#44546A" fill-rule="evenodd"/><path d="M296.826 532.42 334.622 532.42 334.622 570.82 296.826 570.82Z" fill="#44546A" fill-rule="evenodd"/><path d="M259.031 570.82 296.826 570.82 296.826 609.22 259.031 609.22Z" fill="#44546A" fill-rule="evenodd"/><path d="M296.826 570.82 334.622 570.82 334.622 609.22 296.826 609.22Z" fill="#44546A" fill-rule="evenodd"/><path d="M259.031 609.22 296.826 609.22 296.826 647.62 259.031 647.62Z" fill="#44546A" fill-rule="evenodd"/><path d="M296.826 609.22 334.622 609.22 334.622 647.62 296.826 647.62Z" fill="#44546A" fill-rule="evenodd"/><path d="M334.622 609.22 372.417 609.22 372.417 647.62 334.622 647.62Z" fill="#44546A" fill-rule="evenodd"/><path d="M259.031 647.62 296.826 647.62 296.826 686.02 259.031 686.02Z" fill="#44546A" fill-rule="evenodd"/><path d="M296.826 647.62 334.622 647.62 334.622 686.02 296.826 686.02Z" fill="#44546A" fill-rule="evenodd"/><path d="M334.622 647.62 372.417 647.62 372.417 686.02 334.622 686.02Z" fill="#44546A" fill-rule="evenodd"/><path d="M296.826 300.52 296.826 687.52" stroke="#000000" stroke-width="3" stroke-linejoin="round" stroke-miterlimit="10" fill="none" fill-rule="evenodd"/><path d="M334.622 300.52 334.622 687.52" stroke="#000000" stroke-width="3" stroke-linejoin="round" stroke-miterlimit="10" fill="none" fill-rule="evenodd"/><path d="M257.531 340.42 336.121 340.42" stroke="#000000" stroke-width="3" stroke-linejoin="round" stroke-miterlimit="10" fill="none" fill-rule="evenodd"/><path d="M257.531 378.82 336.121 378.82" stroke="#000000" stroke-width="3" stroke-linejoin="round" stroke-miterlimit="10" fill="none" fill-rule="evenodd"/><path d="M257.531 417.22 336.121 417.22" stroke="#000000" stroke-width="3" stroke-linejoin="round" stroke-miterlimit="10" fill="none" fill-rule="evenodd"/><path d="M257.531 455.62 336.121 455.62" stroke="#000000" stroke-width="3" stroke-linejoin="round" stroke-miterlimit="10" fill="none" fill-rule="evenodd"/><path d="M257.531 494.02 336.121 494.02" stroke="#000000" stroke-width="3" stroke-linejoin="round" stroke-miterlimit="10" fill="none" fill-rule="evenodd"/><path d="M257.531 532.42 336.121 532.42" stroke="#000000" stroke-width="3" stroke-linejoin="round" stroke-miterlimit="10" fill="none" fill-rule="evenodd"/><path d="M257.531 570.82 336.121 570.82" stroke="#000000" stroke-width="3" stroke-linejoin="round" stroke-miterlimit="10" fill="none" fill-rule="evenodd"/><path d="M257.531 609.22 373.917 609.22" stroke="#000000" stroke-width="3" stroke-linejoin="round" stroke-miterlimit="10" fill="none" fill-rule="evenodd"/><path d="M257.531 647.62 373.917 647.62" stroke="#000000" stroke-width="3" stroke-linejoin="round" stroke-miterlimit="10" fill="none" fill-rule="evenodd"/><path d="M259.031 300.52 259.031 687.52" stroke="#000000" stroke-width="3" stroke-linejoin="round" stroke-miterlimit="10" fill="none" fill-rule="evenodd"/><path d="M372.417 607.72 372.417 687.52" stroke="#000000" stroke-width="3" stroke-linejoin="round" stroke-miterlimit="10" fill="none" fill-rule="evenodd"/><path d="M257.531 302.02 336.121 302.02" stroke="#000000" stroke-width="3" stroke-linejoin="round" stroke-miterlimit="10" fill="none" fill-rule="evenodd"/><path d="M257.531 686.02 373.917 686.02" stroke="#000000" stroke-width="3" stroke-linejoin="round" stroke-miterlimit="10" fill="none" fill-rule="evenodd"/><path d="M477.862 302.02 515.657 302.02 515.657 340.42 477.862 340.42Z" fill="#A5A5A5" fill-rule="evenodd"/><path d="M515.657 302.02 553.452 302.02 553.452 455.62 515.657 455.62Z" fill="#FFFFFF" fill-rule="evenodd"/><path d="M477.862 340.42 515.657 340.42 515.657 378.82 477.862 378.82Z" fill="#A5A5A5" fill-rule="evenodd"/><path d="M477.862 378.82 515.657 378.82 515.657 417.22 477.862 417.22Z" fill="#A5A5A5" fill-rule="evenodd"/><path d="M477.862 417.22 515.657 417.22 515.657 455.62 477.862 455.62Z" fill="#A5A5A5" fill-rule="evenodd"/><path d="M477.862 455.62 515.657 455.62 515.657 494.02 477.862 494.02Z" fill="#A5A5A5" fill-rule="evenodd"/><path d="M515.657 455.62 553.452 455.62 553.452 494.02 515.657 494.02Z" fill="#A5A5A5" fill-rule="evenodd"/><path d="M477.862 494.02 515.657 494.02 515.657 532.42 477.862 532.42Z" fill="#A5A5A5" fill-rule="evenodd"/><path d="M515.657 494.02 553.452 494.02 553.452 532.42 515.657 532.42Z" fill="#A5A5A5" fill-rule="evenodd"/><path d="M477.862 532.42 515.657 532.42 515.657 570.82 477.862 570.82Z" fill="#A5A5A5" fill-rule="evenodd"/><path d="M515.657 532.42 553.452 532.42 553.452 570.82 515.657 570.82Z" fill="#A5A5A5" fill-rule="evenodd"/><path d="M477.862 570.82 515.657 570.82 515.657 609.22 477.862 609.22Z" fill="#A5A5A5" fill-rule="evenodd"/><path d="M515.657 570.82 553.452 570.82 553.452 609.22 515.657 609.22Z" fill="#A5A5A5" fill-rule="evenodd"/><path d="M477.862 609.22 515.657 609.22 515.657 647.62 477.862 647.62Z" fill="#44546A" fill-rule="evenodd"/><path d="M515.657 609.22 553.452 609.22 553.452 647.62 515.657 647.62Z" fill="#44546A" fill-rule="evenodd"/><path d="M477.862 647.62 515.657 647.62 515.657 686.02 477.862 686.02Z" fill="#44546A" fill-rule="evenodd"/><path d="M515.657 647.62 553.452 647.62 553.452 686.02 515.657 686.02Z" fill="#44546A" fill-rule="evenodd"/><path d="M515.657 300.52 515.657 687.52" stroke="#000000" stroke-width="3" stroke-linejoin="round" stroke-miterlimit="10" fill="none" fill-rule="evenodd"/><path d="M476.362 340.42 517.157 340.42" stroke="#000000" stroke-width="3" stroke-linejoin="round" stroke-miterlimit="10" fill="none" fill-rule="evenodd"/><path d="M476.362 378.82 517.157 378.82" stroke="#000000" stroke-width="3" stroke-linejoin="round" stroke-miterlimit="10" fill="none" fill-rule="evenodd"/><path d="M476.362 417.22 517.157 417.22" stroke="#000000" stroke-width="3" stroke-linejoin="round" stroke-miterlimit="10" fill="none" fill-rule="evenodd"/><path d="M476.362 455.62 554.952 455.62" stroke="#000000" stroke-width="3" stroke-linejoin="round" stroke-miterlimit="10" fill="none" fill-rule="evenodd"/><path d="M476.362 494.02 554.952 494.02" stroke="#000000" stroke-width="3" stroke-linejoin="round" stroke-miterlimit="10" fill="none" fill-rule="evenodd"/><path d="M476.362 532.42 554.952 532.42" stroke="#000000" stroke-width="3" stroke-linejoin="round" stroke-miterlimit="10" fill="none" fill-rule="evenodd"/><path d="M476.362 570.82 554.952 570.82" stroke="#000000" stroke-width="3" stroke-linejoin="round" stroke-miterlimit="10" fill="none" fill-rule="evenodd"/><path d="M476.362 609.22 554.952 609.22" stroke="#000000" stroke-width="3" stroke-linejoin="round" stroke-miterlimit="10" fill="none" fill-rule="evenodd"/><path d="M476.362 647.62 554.952 647.62" stroke="#000000" stroke-width="3" stroke-linejoin="round" stroke-miterlimit="10" fill="none" fill-rule="evenodd"/><path d="M477.862 300.52 477.862 687.52" stroke="#000000" stroke-width="3" stroke-linejoin="round" stroke-miterlimit="10" fill="none" fill-rule="evenodd"/><path d="M553.452 454.12 553.452 687.52" stroke="#000000" stroke-width="3" stroke-linejoin="round" stroke-miterlimit="10" fill="none" fill-rule="evenodd"/><path d="M476.362 302.02 517.157 302.02" stroke="#000000" stroke-width="3" stroke-linejoin="round" stroke-miterlimit="10" fill="none" fill-rule="evenodd"/><path d="M476.362 686.02 554.952 686.02" stroke="#000000" stroke-width="3" stroke-linejoin="round" stroke-miterlimit="10" fill="none" fill-rule="evenodd"/><path d="M387.344 302.02 425.139 302.02 425.139 340.42 387.344 340.42Z" fill="#A5A5A5" fill-rule="evenodd"/><path d="M425.139 302.02 462.935 302.02 462.935 378.82 425.139 378.82Z" fill="#FFFFFF" fill-rule="evenodd"/><path d="M387.344 340.42 425.139 340.42 425.139 378.82 387.344 378.82Z" fill="#A5A5A5" fill-rule="evenodd"/><path d="M387.344 378.82 425.139 378.82 425.139 417.22 387.344 417.22Z" fill="#A5A5A5" fill-rule="evenodd"/><path d="M425.139 378.82 462.935 378.82 462.935 417.22 425.139 417.22Z" fill="#A5A5A5" fill-rule="evenodd"/><path d="M387.344 417.22 425.139 417.22 425.139 455.62 387.344 455.62Z" fill="#44546A" fill-rule="evenodd"/><path d="M425.139 417.22 462.935 417.22 462.935 455.62 425.139 455.62Z" fill="#A5A5A5" fill-rule="evenodd"/><path d="M387.344 455.62 425.139 455.62 425.139 494.02 387.344 494.02Z" fill="#44546A" fill-rule="evenodd"/><path d="M425.139 455.62 462.935 455.62 462.935 494.02 425.139 494.02Z" fill="#44546A" fill-rule="evenodd"/><path d="M387.344 494.02 425.139 494.02 425.139 532.42 387.344 532.42Z" fill="#44546A" fill-rule="evenodd"/><path d="M425.139 494.02 462.935 494.02 462.935 532.42 425.139 532.42Z" fill="#44546A" fill-rule="evenodd"/><path d="M387.344 532.42 425.139 532.42 425.139 570.82 387.344 570.82Z" fill="#44546A" fill-rule="evenodd"/><path d="M425.139 532.42 462.935 532.42 462.935 570.82 425.139 570.82Z" fill="#44546A" fill-rule="evenodd"/><path d="M387.344 570.82 425.139 570.82 425.139 609.22 387.344 609.22Z" fill="#44546A" fill-rule="evenodd"/><path d="M425.139 570.82 462.935 570.82 462.935 609.22 425.139 609.22Z" fill="#44546A" fill-rule="evenodd"/><path d="M387.344 609.22 425.139 609.22 425.139 647.62 387.344 647.62Z" fill="#44546A" fill-rule="evenodd"/><path d="M425.139 609.22 462.935 609.22 462.935 647.62 425.139 647.62Z" fill="#44546A" fill-rule="evenodd"/><path d="M387.344 647.62 425.139 647.62 425.139 686.02 387.344 686.02Z" fill="#44546A" fill-rule="evenodd"/><path d="M425.139 647.62 462.935 647.62 462.935 686.02 425.139 686.02Z" fill="#44546A" fill-rule="evenodd"/><path d="M425.139 300.52 425.139 687.52" stroke="#000000" stroke-width="3" stroke-linejoin="round" stroke-miterlimit="10" fill="none" fill-rule="evenodd"/><path d="M385.844 340.42 426.639 340.42" stroke="#000000" stroke-width="3" stroke-linejoin="round" stroke-miterlimit="10" fill="none" fill-rule="evenodd"/><path d="M385.844 378.82 464.435 378.82" stroke="#000000" stroke-width="3" stroke-linejoin="round" stroke-miterlimit="10" fill="none" fill-rule="evenodd"/><path d="M385.844 417.22 464.435 417.22" stroke="#000000" stroke-width="3" stroke-linejoin="round" stroke-miterlimit="10" fill="none" fill-rule="evenodd"/><path d="M385.844 455.62 464.435 455.62" stroke="#000000" stroke-width="3" stroke-linejoin="round" stroke-miterlimit="10" fill="none" fill-rule="evenodd"/><path d="M385.844 494.02 464.435 494.02" stroke="#000000" stroke-width="3" stroke-linejoin="round" stroke-miterlimit="10" fill="none" fill-rule="evenodd"/><path d="M385.844 532.42 464.435 532.42" stroke="#000000" stroke-width="3" stroke-linejoin="round" stroke-miterlimit="10" fill="none" fill-rule="evenodd"/><path d="M385.844 570.82 464.435 570.82" stroke="#000000" stroke-width="3" stroke-linejoin="round" stroke-miterlimit="10" fill="none" fill-rule="evenodd"/><path d="M385.844 609.22 464.435 609.22" stroke="#000000" stroke-width="3" stroke-linejoin="round" stroke-miterlimit="10" fill="none" fill-rule="evenodd"/><path d="M385.844 647.62 464.435 647.62" stroke="#000000" stroke-width="3" stroke-linejoin="round" stroke-miterlimit="10" fill="none" fill-rule="evenodd"/><path d="M387.344 300.52 387.344 687.52" stroke="#000000" stroke-width="3" stroke-linejoin="round" stroke-miterlimit="10" fill="none" fill-rule="evenodd"/><path d="M462.935 377.32 462.935 687.52" stroke="#000000" stroke-width="3" stroke-linejoin="round" stroke-miterlimit="10" fill="none" fill-rule="evenodd"/><path d="M385.844 302.02 426.639 302.02" stroke="#000000" stroke-width="3" stroke-linejoin="round" stroke-miterlimit="10" fill="none" fill-rule="evenodd"/><path d="M385.844 686.02 464.435 686.02" stroke="#000000" stroke-width="3" stroke-linejoin="round" stroke-miterlimit="10" fill="none" fill-rule="evenodd"/><path d="M568.38 417.22 606.175 417.22 606.175 455.62 568.38 455.62Z" fill="#A5A5A5" fill-rule="evenodd"/><path d="M568.38 455.62 606.175 455.62 606.175 494.02 568.38 494.02Z" fill="#A5A5A5" fill-rule="evenodd"/><path d="M568.38 494.02 606.175 494.02 606.175 532.42 568.38 532.42Z" fill="#44546A" fill-rule="evenodd"/><path d="M568.38 532.42 606.175 532.42 606.175 570.82 568.38 570.82Z" fill="#44546A" fill-rule="evenodd"/><path d="M568.38 570.82 606.175 570.82 606.175 609.22 568.38 609.22Z" fill="#44546A" fill-rule="evenodd"/><path d="M568.38 609.22 606.175 609.22 606.175 647.62 568.38 647.62Z" fill="#44546A" fill-rule="evenodd"/><path d="M568.38 647.62 606.175 647.62 606.175 686.02 568.38 686.02Z" fill="#44546A" fill-rule="evenodd"/><path d="M566.88 455.62 607.675 455.62" stroke="#000000" stroke-width="3" stroke-linejoin="round" stroke-miterlimit="10" fill="none" fill-rule="evenodd"/><path d="M566.88 494.02 607.675 494.02" stroke="#000000" stroke-width="3" stroke-linejoin="round" stroke-miterlimit="10" fill="none" fill-rule="evenodd"/><path d="M566.88 532.42 607.675 532.42" stroke="#000000" stroke-width="3" stroke-linejoin="round" stroke-miterlimit="10" fill="none" fill-rule="evenodd"/><path d="M566.88 570.82 607.675 570.82" stroke="#000000" stroke-width="3" stroke-linejoin="round" stroke-miterlimit="10" fill="none" fill-rule="evenodd"/><path d="M566.88 609.22 607.675 609.22" stroke="#000000" stroke-width="3" stroke-linejoin="round" stroke-miterlimit="10" fill="none" fill-rule="evenodd"/><path d="M566.88 647.62 607.675 647.62" stroke="#000000" stroke-width="3" stroke-linejoin="round" stroke-miterlimit="10" fill="none" fill-rule="evenodd"/><path d="M568.38 415.72 568.38 687.52" stroke="#000000" stroke-width="3" stroke-linejoin="round" stroke-miterlimit="10" fill="none" fill-rule="evenodd"/><path d="M606.175 415.72 606.175 687.52" stroke="#000000" stroke-width="3" stroke-linejoin="round" stroke-miterlimit="10" fill="none" fill-rule="evenodd"/><path d="M566.88 417.22 607.675 417.22" stroke="#000000" stroke-width="3" stroke-linejoin="round" stroke-miterlimit="10" fill="none" fill-rule="evenodd"/><path d="M566.88 686.02 607.675 686.02" stroke="#000000" stroke-width="3" stroke-linejoin="round" stroke-miterlimit="10" fill="none" fill-rule="evenodd"/><path d="M621.102 532.42 658.898 532.42 658.898 570.82 621.102 570.82Z" fill="#A5A5A5" fill-rule="evenodd"/><path d="M621.102 570.82 658.898 570.82 658.898 609.22 621.102 609.22Z" fill="#A5A5A5" fill-rule="evenodd"/><path d="M621.102 609.22 658.898 609.22 658.898 647.62 621.102 647.62Z" fill="#A5A5A5" fill-rule="evenodd"/><path d="M621.102 647.62 658.898 647.62 658.898 686.02 621.102 686.02Z" fill="#A5A5A5" fill-rule="evenodd"/><path d="M619.602 570.82 660.398 570.82" stroke="#000000" stroke-width="3" stroke-linejoin="round" stroke-miterlimit="10" fill="none" fill-rule="evenodd"/><path d="M619.602 609.22 660.398 609.22" stroke="#000000" stroke-width="3" stroke-linejoin="round" stroke-miterlimit="10" fill="none" fill-rule="evenodd"/><path d="M619.602 647.62 660.398 647.62" stroke="#000000" stroke-width="3" stroke-linejoin="round" stroke-miterlimit="10" fill="none" fill-rule="evenodd"/><path d="M621.102 530.92 621.102 687.52" stroke="#000000" stroke-width="3" stroke-linejoin="round" stroke-miterlimit="10" fill="none" fill-rule="evenodd"/><path d="M658.898 530.92 658.898 687.52" stroke="#000000" stroke-width="3" stroke-linejoin="round" stroke-miterlimit="10" fill="none" fill-rule="evenodd"/><path d="M619.602 532.42 660.398 532.42" stroke="#000000" stroke-width="3" stroke-linejoin="round" stroke-miterlimit="10" fill="none" fill-rule="evenodd"/><path d="M619.602 686.02 660.398 686.02" stroke="#000000" stroke-width="3" stroke-linejoin="round" stroke-miterlimit="10" fill="none" fill-rule="evenodd"/></g></svg>