<svg width="307" height="331" xmlns="http://www.w3.org/2000/svg" xmlns:xlink="http://www.w3.org/1999/xlink" overflow="hidden"><defs><clipPath id="clip0"><rect x="367" y="48" width="307" height="331"/></clipPath><clipPath id="clip1"><rect x="426" y="75" width="189" height="189"/></clipPath><clipPath id="clip2"><rect x="426" y="75" width="189" height="189"/></clipPath><clipPath id="clip3"><rect x="426" y="75" width="189" height="189"/></clipPath></defs><g clip-path="url(#clip0)" transform="translate(-367 -48)"><rect x="369.5" y="50.5001" width="303" height="302" stroke="#000000" stroke-width="3" stroke-miterlimit="8" fill="#00AEDB"/><text font-family="Arial,Arial_MSFontService,sans-serif" font-weight="700" font-size="59" transform="translate(463.612 330)">Bob</text><g clip-path="url(#clip1)"><g clip-path="url(#clip2)"><g clip-path="url(#clip3)"><path d="M532.313 187.219C532.313 172.453 567.75 178.359 567.75 143.28 567.75 114.107 567.75 104.531 552.984 98.625L523.453 98.625 523.453 187.219Z" fill="#F57A08"/><path d="M588.422 258.094 452.578 258.094C452.578 197.023 497.938 200.412 507.089 190.984 508.112 189.999 508.689 188.639 508.688 187.219 508.688 175.406 488.016 175.406 488.016 154.734L488.016 128.156C488.016 110.438 495.291 98.625 523.453 98.625 564.797 98.625 555.938 128.156 555.938 139.969L557.056 138.85C559.502 136.404 563.469 136.404 565.915 138.85 567.09 140.025 567.75 141.618 567.75 143.28L567.75 144.587C567.751 147.149 566.19 149.453 563.811 150.404L554.011 154.325C548.374 172.907 532.313 175.406 532.313 187.219 532.311 188.639 532.888 189.999 533.911 190.984 543.062 200.412 588.422 197.023 588.422 258.094Z" fill="#F5A971"/><path d="M588.422 258.094 452.578 258.094C452.578 208.072 483.01 201.294 499.049 195.299 502.593 193.978 505.435 192.689 507.089 190.984L520.5 199.031 533.911 190.984C535.565 192.689 538.407 193.978 541.951 195.299 557.99 201.294 588.422 208.072 588.422 258.094Z" fill="#B1CDB4"/><path d="M488.016 104.531C479.156 110.438 482.109 128.156 488.016 134.063 488.016 125.203 490.969 110.438 499.828 110.438Z" fill="#F57A08"/><path d="M559.279 102.013C557.337 100.615 555.221 99.4761 552.984 98.625 550.031 89.7656 538.219 83.8594 514.594 83.8594 490.969 83.8594 485.063 95.6719 485.063 101.578 485.063 107.484 488.016 116.344 511.641 116.344 535.266 116.344 547.078 110.438 547.078 110.438L547.078 139.969C547.078 145.875 555.938 145.875 555.938 139.969L561.105 107.484Z" fill="#F57A08"/><path d="M526.406 204.938 523.453 210.844 517.547 210.844 514.594 204.938 520.5 201.984 526.406 204.938Z" fill="#EA5003"/><path d="M529.359 249.234 526.406 258.094 514.594 258.094 511.641 249.234 517.093 213.797 517.547 210.844 523.453 210.844 523.907 213.797 529.359 249.234Z" fill="#EA5003"/><path d="M541.951 195.299 529.359 207.891 520.5 201.984 511.641 207.891 499.049 195.299C502.593 193.978 505.435 192.689 507.089 190.984L520.5 199.031 533.911 190.984C535.565 192.689 538.407 193.978 541.951 195.299Z" fill="#E7F2DA"/><path d="M585.498 234.218C581.187 218.755 572.645 210.069 563.645 204.579 561.844 206.85 561.844 210.323 561.844 213.797L558.891 213.797C555.938 213.797 555.875 211.951 552.984 211.951 550.094 211.951 550.031 213.797 547.078 213.797 544.125 213.797 544.125 210.844 544.125 210.844L541.172 210.844C536.288 205.96 533.424 199.053 537.591 193.472 538.587 192.175 539.798 191.058 541.172 190.172 550.031 184.266 552.984 184.266 558.891 184.266 563.929 184.266 566.82 188.566 567.558 189.829 570.578 189.404 573.594 190.109 576.609 193.125 582.493 199.009 588.381 210.759 585.498 234.218Z" fill="#0C6C71"/><path d="M561.844 213.797 573.656 237.422 550.031 258.094 538.219 228.563 561.844 213.797Z" fill="#B1CDB4"/><path d="M563.32 216.75 544.125 216.75C538.219 219.703 535.266 222.656 538.219 228.563 541.172 234.469 561.844 237.422 564.797 219.703Z" fill="#6EB4A4"/><path d="M564.797 219.703C562.877 231.217 553.479 234 546.321 232.918 545 230.179 542.231 224.273 540.301 219.009 539.097 215.731 538.219 212.704 538.219 210.844 538.219 204.938 538.219 199.031 547.078 201.984 555.938 204.938 550.031 210.844 547.078 207.891L544.125 210.844C544.125 210.844 544.125 213.797 547.078 213.797 550.031 213.797 550.094 211.951 552.984 211.951 555.875 211.951 555.938 213.797 558.891 213.797L561.844 213.797Z" fill="#F5A971"/><path d="M532.313 142.922C532.313 144.553 530.99 145.875 529.359 145.875 527.728 145.875 526.406 144.553 526.406 142.922 526.406 141.291 527.728 139.969 529.359 139.969 530.99 139.969 532.313 141.291 532.313 142.922Z"/><path d="M502.781 142.922C502.781 144.553 501.459 145.875 499.828 145.875 498.197 145.875 496.875 144.553 496.875 142.922 496.875 141.291 498.197 139.969 499.828 139.969 501.459 139.969 502.781 141.291 502.781 142.922Z"/><path d="M514.594 156.211C515.409 156.211 516.07 155.55 516.07 154.734 516.07 153.919 515.409 153.258 514.594 153.258L513.117 153.258C511.486 153.258 510.164 151.936 510.164 150.305 510.164 148.674 511.486 147.352 513.117 147.352L514.594 147.352C515.409 147.352 516.07 146.69 516.07 145.875 516.07 145.06 515.409 144.398 514.594 144.398L513.117 144.398C509.855 144.398 507.211 147.043 507.211 150.305 507.211 153.567 509.855 156.211 513.117 156.211Z"/><path d="M483.586 222.656 483.586 258.094 480.633 258.094 480.633 222.656C480.633 221.841 481.294 221.18 482.109 221.18 482.925 221.18 483.586 221.841 483.586 222.656Z"/><path d="M522.916 100.202C522.157 100.5 521.783 101.357 522.08 102.116 522.378 102.874 523.232 103.248 523.99 102.954 531.53 100.01 535.909 104.396 536.086 104.578 536.647 105.17 537.582 105.195 538.173 104.634 538.765 104.073 538.79 103.138 538.229 102.546 537.994 102.298 532.362 96.5161 522.916 100.202Z"/><path d="M537.876 92.1513C534.861 90.7245 530.917 90.426 526.15 91.2645 525.347 91.4059 524.811 92.1716 524.952 92.9747 525.093 93.7778 525.859 94.3143 526.662 94.173 531.658 93.2937 534.704 93.9819 536.378 94.7137 538.119 95.4751 538.736 96.4076 538.747 96.4228 539.162 97.125 540.067 97.358 540.769 96.9433 541.471 96.5286 541.704 95.6232 541.29 94.921 541.193 94.7573 540.275 93.2872 537.876 92.1513Z"/><path d="M552.984 108.961C557.34 108.961 557.414 116.272 557.414 116.344 557.414 117.159 558.075 117.82 558.891 117.82 559.706 117.82 560.367 117.159 560.367 116.344 560.367 112.769 558.824 106.008 552.984 106.008 552.169 106.008 551.508 106.669 551.508 107.484 551.508 108.3 552.169 108.961 552.984 108.961Z"/><path d="M530.02 156.367C529.29 156.002 528.404 156.298 528.039 157.027 525.494 162.117 520.443 162.117 514.594 162.117 513.778 162.117 513.117 162.778 513.117 163.594 513.117 164.409 513.778 165.07 514.594 165.07 520.558 165.07 527.319 165.07 530.68 158.348 531.045 157.618 530.749 156.732 530.02 156.367Z"/><path d="M564.797 194.602C561.087 194.602 554.461 198.055 554.461 204.938 554.461 205.753 555.122 206.414 555.938 206.414 556.753 206.414 557.414 205.753 557.414 204.938 557.414 199.825 562.764 197.555 564.797 197.555 565.612 197.555 566.273 196.894 566.273 196.078 566.273 195.263 565.612 194.602 564.797 194.602Z"/><path d="M552.324 188.851C551.201 189.412 545.602 192.399 545.602 196.078 545.602 196.894 546.263 197.555 547.078 197.555 547.894 197.555 548.555 196.894 548.555 196.078 548.555 194.753 551.511 192.563 553.645 191.493 554.374 191.128 554.67 190.241 554.305 189.511 553.94 188.782 553.053 188.487 552.324 188.851Z"/><path d="M509.272 190.573C509.871 189.557 510.179 188.397 510.164 187.219 510.164 181.399 505.899 178.174 501.383 174.761 495.809 170.548 489.492 165.772 489.492 154.734L489.492 134.063C489.492 127.817 490.925 119.831 494.105 115.345 498.554 116.99 504.399 117.815 511.641 117.82 523.995 117.82 533.108 116.191 538.577 114.823 540.959 114.241 543.305 113.519 545.602 112.66L545.602 139.969C545.545 141.649 546.233 143.269 547.482 144.394 548.597 145.365 550.03 145.892 551.508 145.875 554.277 145.875 557.078 144.069 557.386 140.608L558.1 139.894C559.97 138.025 563.001 138.025 564.871 139.895 565.769 140.793 566.273 142.01 566.273 143.28 566.273 143.919 566.261 144.544 566.237 145.155 566.035 146.897 564.893 148.386 563.264 149.033L553.462 152.954C553.045 153.121 552.727 153.468 552.597 153.897 549.81 163.085 544.396 168.154 539.619 172.625 534.906 177.037 530.836 180.848 530.836 187.219 530.814 188.398 531.126 189.559 531.737 190.567L520.5 197.309ZM547.854 109.182C547.419 108.912 546.875 108.888 546.418 109.117 546.303 109.174 534.651 114.867 511.641 114.867 501.574 114.867 494.433 113.237 490.414 110.023 487.807 107.936 486.539 105.174 486.539 101.578 486.539 95.9603 492.403 85.3359 514.594 85.3359 535.793 85.3359 548.584 90.0926 551.583 99.0918 551.721 99.504 552.033 99.8347 552.436 99.9959 565.255 105.124 566.198 113.015 566.268 137.205 563.192 134.772 558.781 135.031 556.012 137.807L554.893 138.925C554.617 139.202 554.461 139.577 554.461 139.969 554.461 142.149 552.87 142.922 551.508 142.922 550.146 142.922 548.555 142.149 548.555 139.969L548.555 110.438C548.555 109.926 548.29 109.451 547.854 109.182ZM486.741 129.714C485.337 126.894 484.439 123.85 484.089 120.719 483.558 116.214 484.153 112.175 485.726 109.257 487.155 111.339 489.095 113.019 491.36 114.137 488.616 118.32 487.224 124.378 486.741 129.714ZM540.354 175.989C546.197 170.624 552.131 164.958 555.209 155.436L564.36 151.774C564.773 151.608 565.171 151.407 565.55 151.173 562.756 165.294 552.391 170.225 543.821 174.301 542.642 174.861 541.478 175.417 540.354 175.989ZM511.829 205.99 501.689 195.851C503.909 194.935 505.821 193.969 507.264 192.811L519.74 200.297C519.969 200.435 520.232 200.508 520.499 200.508 520.208 200.508 519.923 200.594 519.681 200.756ZM522.541 209.367 518.459 209.367 516.867 206.181 520.5 203.759 524.133 206.181ZM529.171 205.99 521.319 200.756C521.077 200.594 520.792 200.508 520.501 200.508 520.768 200.508 521.031 200.435 521.26 200.297L533.748 192.805C534.298 193.248 534.88 193.651 535.489 194.01 534.939 195.008 534.545 196.084 534.322 197.201 534.08 198.44 534.039 199.71 534.201 200.961ZM539.676 221.55C540.916 224.715 542.37 227.987 543.671 230.778 541.63 230.076 540.102 229.028 539.539 227.902 538.17 225.164 538.169 223.285 539.676 221.55ZM551.732 231.471C550.267 231.688 548.781 231.719 547.308 231.564 543.565 223.728 539.695 214.379 539.695 210.844 539.695 207.601 539.695 204.247 541.219 203.149 542.443 202.267 544.827 202.79 546.611 203.385 549.267 204.271 550.247 205.386 550.28 206.072 550.253 206.535 549.955 206.938 549.52 207.098 549.049 207.33 548.483 207.228 548.122 206.847 547.546 206.27 546.611 206.27 546.034 206.846 546.034 206.846 546.034 206.847 546.034 206.847L543.081 209.8C542.804 210.077 542.648 210.452 542.648 210.844 542.648 212.624 543.828 215.273 547.078 215.273 548.423 215.295 549.74 214.892 550.843 214.122 552.12 213.196 553.848 213.196 555.126 214.122 556.229 214.892 557.546 215.295 558.891 215.273L560.931 215.273 563.254 219.92C561.592 228.694 555.349 230.927 551.732 231.471ZM566.102 204.393C567.173 203.781 568.652 203.461 570.703 203.461 571.519 203.461 572.18 202.8 572.18 201.984 572.18 201.169 571.519 200.508 570.703 200.508 561.212 200.508 560.437 206.72 560.373 212.32L558.891 212.32C558.095 212.34 557.315 212.09 556.679 211.611 554.449 210.096 551.52 210.096 549.289 211.611 548.653 212.09 547.874 212.34 547.078 212.32 546.2 212.32 545.823 211.877 545.679 211.378L547.26 209.797C548.356 210.301 549.618 210.302 550.715 209.799 552.275 209.159 553.277 207.619 553.229 205.932 553.167 204.622 552.346 202.184 547.545 200.584 543.948 199.385 541.314 199.44 539.492 200.754 538.708 201.332 538.094 202.11 537.713 203.006 537.076 201.341 536.905 199.534 537.218 197.779 537.705 195.333 539.311 193.187 541.991 191.4 550.478 185.742 553.115 185.742 558.891 185.742 561.753 185.742 563.819 187.431 565.064 188.877 562.71 189.567 560.417 190.711 558.23 191.804 557.501 192.169 557.205 193.056 557.57 193.786 557.935 194.515 558.822 194.81 559.551 194.446 565.378 191.532 570.411 189.015 575.565 194.169 583.723 202.327 585.25 215.595 584.641 227.162 580.708 217.531 574.553 209.984 566.102 204.393ZM588.51 233.919C590.098 220.301 589.633 201.973 578.699 191.039 575.786 188.123 572.608 186.706 569.038 186.743 567.366 184.55 564.025 181.313 558.891 181.313 552.6 181.313 549.134 181.313 539.537 187.713 538.631 188.309 537.779 188.983 536.99 189.725 535.491 188.673 535.266 187.85 535.266 187.219 535.266 183.435 539.142 181.431 545.727 178.297 551.098 175.746 557.182 172.852 562.098 167.632 567.477 161.925 570.275 154.679 570.659 145.484L570.659 145.462C570.688 144.749 570.703 144.015 570.703 143.28 570.703 114.28 570.703 103.095 555.292 96.388 550.961 86.2551 536.927 80.9063 514.594 80.9063 488.898 80.9063 482.109 94.4278 482.109 101.578 482.102 103.007 482.275 104.431 482.626 105.816 480.972 108.249 479.957 111.279 479.603 114.845 478.883 122.158 481.157 130.522 485.062 135.2L485.062 154.734C485.062 167.979 492.951 173.941 498.71 178.297 503.065 181.586 505.734 183.775 505.734 187.219 505.734 189.825 500.688 191.611 494.276 193.882 485.539 196.975 474.664 200.825 465.587 210.146 454.845 221.18 449.625 236.865 449.625 258.094L454.055 258.094C454.055 212.815 479.156 203.93 495.768 198.053 496.764 197.699 497.739 197.355 498.676 197.012L510.596 208.935C511.094 209.434 511.874 209.511 512.46 209.12L514.391 207.832 516.015 211.084 510.183 249.009C510.145 249.241 510.165 249.478 510.242 249.699L513.04 258.094 516.152 258.094 513.154 249.105 518.813 212.32 522.187 212.32 527.846 249.105 524.848 258.094 527.96 258.094 530.758 249.699C530.835 249.478 530.855 249.241 530.817 249.009L524.985 211.084 526.609 207.832 528.54 209.12C529.126 209.509 529.906 209.432 530.404 208.935L535.04 204.299C535.505 205.507 536.092 206.664 536.79 207.754 536.742 208.766 536.742 209.81 536.742 210.844 536.742 212.682 537.473 215.447 538.551 218.522 535.247 221.386 534.712 224.79 536.86 229.138L548.44 258.094 551.622 258.094 541.63 233.118C544.967 234.475 548.607 234.914 552.172 234.391 558.466 233.446 563.062 229.677 565.221 223.856L572.335 238.083C572.7 238.813 573.587 239.108 574.317 238.743 575.047 238.378 575.343 237.491 574.978 236.761L563.32 213.45C563.328 210.6 563.424 208.304 564.14 206.636 570.616 210.756 575.925 216.472 579.555 223.236 584.457 232.309 586.945 244.037 586.945 258.094L591.375 258.094C591.375 249.098 590.412 240.966 588.51 233.919Z"/><path d="M505.38 133.944 498.598 131.686C497.536 131.333 496.366 131.61 495.575 132.402L493.485 134.496C492.908 135.073 492.909 136.008 493.486 136.584 493.763 136.86 494.138 137.016 494.529 137.016L504.882 137.016C505.752 137.016 506.458 136.31 506.458 135.44 506.458 134.761 506.024 134.159 505.38 133.944Z"/><path d="M524.305 137.016 534.658 137.016C535.474 137.016 536.135 136.355 536.135 135.539 536.135 135.148 535.979 134.773 535.703 134.496L533.612 132.402C532.821 131.61 531.651 131.333 530.589 131.686L523.808 133.944C522.982 134.219 522.535 135.112 522.81 135.937 523.025 136.581 523.627 137.016 524.305 137.016Z"/></g></g></g></g></svg>