<svg width="491" height="482" xmlns="http://www.w3.org/2000/svg" xmlns:xlink="http://www.w3.org/1999/xlink" overflow="hidden"><defs><clipPath id="clip0"><rect x="18" y="178" width="491" height="482"/></clipPath></defs><g clip-path="url(#clip0)" transform="translate(-18 -178)"><path d="M64.1328 180.176 101.928 180.176 101.928 218.576 64.1328 218.576Z" fill="#D11141" fill-rule="evenodd"/><path d="M101.928 180.176 139.723 180.176 139.723 218.576 101.928 218.576Z" fill="#D11141" fill-rule="evenodd"/><path d="M139.723 180.176 177.519 180.176 177.519 218.576 139.723 218.576Z" fill="#D11141" fill-rule="evenodd"/><path d="M177.519 180.176 215.314 180.176 215.314 218.576 177.519 218.576Z" fill="#D11141" fill-rule="evenodd"/><path d="M215.314 180.176 253.109 180.176 253.109 218.576 215.314 218.576Z" fill="#D11141" fill-rule="evenodd"/><path d="M253.109 180.176 290.904 180.176 290.904 218.576 253.109 218.576Z" fill="#D11141" fill-rule="evenodd"/><path d="M290.904 180.176 328.7 180.176 328.7 218.576 290.904 218.576Z" fill="#D11141" fill-rule="evenodd"/><path d="M328.7 180.176 366.495 180.176 366.495 218.576 328.7 218.576Z" fill="#D11141" fill-rule="evenodd"/><path d="M64.1328 218.576 101.928 218.576 101.928 256.976 64.1328 256.976Z" fill="#D11141" fill-rule="evenodd"/><path d="M101.928 218.576 139.723 218.576 139.723 256.976 101.928 256.976Z" fill="#D11141" fill-rule="evenodd"/><path d="M139.723 218.576 177.519 218.576 177.519 256.976 139.723 256.976Z" fill="#D11141" fill-rule="evenodd"/><path d="M177.519 218.576 215.314 218.576 215.314 256.976 177.519 256.976Z" fill="#D11141" fill-rule="evenodd"/><path d="M215.314 218.576 253.109 218.576 253.109 256.976 215.314 256.976Z" fill="#D11141" fill-rule="evenodd"/><path d="M253.109 218.576 290.904 218.576 290.904 256.976 253.109 256.976Z" fill="#00AEDB" fill-rule="evenodd"/><path d="M290.904 218.576 328.7 218.576 328.7 256.976 290.904 256.976Z" fill="#00AEDB" fill-rule="evenodd"/><path d="M328.7 218.576 366.495 218.576 366.495 256.976 328.7 256.976Z" fill="#00AEDB" fill-rule="evenodd"/><path d="M101.928 178.677 101.928 258.476" stroke="#000000" stroke-width="3" stroke-linejoin="round" stroke-miterlimit="10" fill="none" fill-rule="evenodd"/><path d="M139.723 178.677 139.723 258.476" stroke="#000000" stroke-width="3" stroke-linejoin="round" stroke-miterlimit="10" fill="none" fill-rule="evenodd"/><path d="M177.519 178.677 177.519 258.476" stroke="#000000" stroke-width="3" stroke-linejoin="round" stroke-miterlimit="10" fill="none" fill-rule="evenodd"/><path d="M215.314 178.677 215.314 258.476" stroke="#000000" stroke-width="3" stroke-linejoin="round" stroke-miterlimit="10" fill="none" fill-rule="evenodd"/><path d="M253.109 178.677 253.109 258.476" stroke="#000000" stroke-width="3" stroke-linejoin="round" stroke-miterlimit="10" fill="none" fill-rule="evenodd"/><path d="M290.904 178.677 290.904 258.476" stroke="#000000" stroke-width="3" stroke-linejoin="round" stroke-miterlimit="10" fill="none" fill-rule="evenodd"/><path d="M328.7 178.677 328.7 258.476" stroke="#000000" stroke-width="3" stroke-linejoin="round" stroke-miterlimit="10" fill="none" fill-rule="evenodd"/><path d="M62.6329 218.576 367.995 218.576" stroke="#000000" stroke-width="3" stroke-linejoin="round" stroke-miterlimit="10" fill="none" fill-rule="evenodd"/><path d="M64.1328 178.677 64.1328 258.476" stroke="#000000" stroke-width="3" stroke-linejoin="round" stroke-miterlimit="10" fill="none" fill-rule="evenodd"/><path d="M366.495 178.677 366.495 258.476" stroke="#000000" stroke-width="3" stroke-linejoin="round" stroke-miterlimit="10" fill="none" fill-rule="evenodd"/><path d="M62.6329 180.176 367.995 180.176" stroke="#000000" stroke-width="3" stroke-linejoin="round" stroke-miterlimit="10" fill="none" fill-rule="evenodd"/><path d="M62.6329 256.976 367.995 256.976" stroke="#000000" stroke-width="3" stroke-linejoin="round" stroke-miterlimit="10" fill="none" fill-rule="evenodd"/><path d="M64.1328 302.4 101.928 302.4 101.928 340.8 64.1328 340.8Z" fill="#D11141" fill-rule="evenodd"/><path d="M101.928 302.4 139.723 302.4 139.723 340.8 101.928 340.8Z" fill="#D11141" fill-rule="evenodd"/><path d="M139.723 302.4 177.519 302.4 177.519 340.8 139.723 340.8Z" fill="#D11141" fill-rule="evenodd"/><path d="M177.519 302.4 215.314 302.4 215.314 340.8 177.519 340.8Z" fill="#D11141" fill-rule="evenodd"/><path d="M215.314 302.4 253.109 302.4 253.109 340.8 215.314 340.8Z" fill="#D11141" fill-rule="evenodd"/><path d="M253.109 302.4 290.904 302.4 290.904 340.8 253.109 340.8Z" fill="#D11141" fill-rule="evenodd"/><path d="M290.904 302.4 328.7 302.4 328.7 340.8 290.904 340.8Z" fill="#D11141" fill-rule="evenodd"/><path d="M328.7 302.4 366.495 302.4 366.495 340.8 328.7 340.8Z" fill="#D11141" fill-rule="evenodd"/><path d="M64.1328 340.8 101.928 340.8 101.928 379.2 64.1328 379.2Z" fill="#D11141" fill-rule="evenodd"/><path d="M101.928 340.8 139.723 340.8 139.723 379.2 101.928 379.2Z" fill="#D11141" fill-rule="evenodd"/><path d="M139.723 340.8 177.519 340.8 177.519 379.2 139.723 379.2Z" fill="#D11141" fill-rule="evenodd"/><path d="M177.519 340.8 215.314 340.8 215.314 379.2 177.519 379.2Z" fill="#D11141" fill-rule="evenodd"/><path d="M215.314 340.8 253.109 340.8 253.109 379.2 215.314 379.2Z" fill="#D11141" fill-rule="evenodd"/><path d="M253.109 340.8 290.904 340.8 290.904 379.2 253.109 379.2Z" fill="#00AEDB" fill-rule="evenodd"/><path d="M290.904 340.8 328.7 340.8 328.7 379.2 290.904 379.2Z" fill="#00AEDB" fill-rule="evenodd"/><path d="M328.7 340.8 366.495 340.8 366.495 379.2 328.7 379.2Z" fill="#00AEDB" fill-rule="evenodd"/><path d="M64.1328 379.2 101.928 379.2 101.928 417.6 64.1328 417.6Z" fill="#00AEDB" fill-rule="evenodd"/><path d="M101.928 379.2 139.723 379.2 139.723 417.6 101.928 417.6Z" fill="#00AEDB" fill-rule="evenodd"/><path d="M139.723 379.2 177.519 379.2 177.519 417.6 139.723 417.6Z" fill="#00AEDB" fill-rule="evenodd"/><path d="M177.519 379.2 215.314 379.2 215.314 417.6 177.519 417.6Z" fill="#00AEDB" fill-rule="evenodd"/><path d="M215.314 379.2 253.109 379.2 253.109 417.6 215.314 417.6Z" fill="#00AEDB" fill-rule="evenodd"/><path d="M253.109 379.2 290.904 379.2 290.904 417.6 253.109 417.6Z" fill="#00AEDB" fill-rule="evenodd"/><path d="M290.904 379.2 328.7 379.2 328.7 417.6 290.904 417.6Z" fill="#00AEDB" fill-rule="evenodd"/><path d="M328.7 379.2 366.495 379.2 366.495 417.6 328.7 417.6Z" fill="#00AEDB" fill-rule="evenodd"/><path d="M101.928 300.9 101.928 419.1" stroke="#000000" stroke-width="3" stroke-linejoin="round" stroke-miterlimit="10" fill="none" fill-rule="evenodd"/><path d="M139.723 300.9 139.723 419.1" stroke="#000000" stroke-width="3" stroke-linejoin="round" stroke-miterlimit="10" fill="none" fill-rule="evenodd"/><path d="M177.519 300.9 177.519 419.1" stroke="#000000" stroke-width="3" stroke-linejoin="round" stroke-miterlimit="10" fill="none" fill-rule="evenodd"/><path d="M215.314 300.9 215.314 419.1" stroke="#000000" stroke-width="3" stroke-linejoin="round" stroke-miterlimit="10" fill="none" fill-rule="evenodd"/><path d="M253.109 300.9 253.109 419.1" stroke="#000000" stroke-width="3" stroke-linejoin="round" stroke-miterlimit="10" fill="none" fill-rule="evenodd"/><path d="M290.904 300.9 290.904 419.1" stroke="#000000" stroke-width="3" stroke-linejoin="round" stroke-miterlimit="10" fill="none" fill-rule="evenodd"/><path d="M328.7 300.9 328.7 419.1" stroke="#000000" stroke-width="3" stroke-linejoin="round" stroke-miterlimit="10" fill="none" fill-rule="evenodd"/><path d="M62.6329 340.8 367.995 340.8" stroke="#000000" stroke-width="3" stroke-linejoin="round" stroke-miterlimit="10" fill="none" fill-rule="evenodd"/><path d="M62.6329 379.2 367.995 379.2" stroke="#000000" stroke-width="3" stroke-linejoin="round" stroke-miterlimit="10" fill="none" fill-rule="evenodd"/><path d="M64.1328 300.9 64.1328 419.1" stroke="#000000" stroke-width="3" stroke-linejoin="round" stroke-miterlimit="10" fill="none" fill-rule="evenodd"/><path d="M366.495 300.9 366.495 419.1" stroke="#000000" stroke-width="3" stroke-linejoin="round" stroke-miterlimit="10" fill="none" fill-rule="evenodd"/><path d="M62.6329 302.4 367.995 302.4" stroke="#000000" stroke-width="3" stroke-linejoin="round" stroke-miterlimit="10" fill="none" fill-rule="evenodd"/><path d="M62.6329 417.6 367.995 417.6" stroke="#000000" stroke-width="3" stroke-linejoin="round" stroke-miterlimit="10" fill="none" fill-rule="evenodd"/><path d="M64.1328 463.636 101.928 463.636 101.928 502.036 64.1328 502.036Z" fill="#D11141" fill-rule="evenodd"/><path d="M101.928 463.636 139.723 463.636 139.723 502.036 101.928 502.036Z" fill="#D11141" fill-rule="evenodd"/><path d="M139.723 463.636 177.519 463.636 177.519 502.036 139.723 502.036Z" fill="#D11141" fill-rule="evenodd"/><path d="M177.519 463.636 215.314 463.636 215.314 502.036 177.519 502.036Z" fill="#00AEDB" fill-rule="evenodd"/><path d="M215.314 463.636 253.109 463.636 253.109 502.036 215.314 502.036Z" fill="#00AEDB" fill-rule="evenodd"/><path d="M253.109 463.636 290.904 463.636 290.904 502.036 253.109 502.036Z" fill="#00AEDB" fill-rule="evenodd"/><path d="M290.904 463.636 328.7 463.636 328.7 502.036 290.904 502.036Z" fill="#00AEDB" fill-rule="evenodd"/><path d="M328.7 463.636 366.495 463.636 366.495 502.036 328.7 502.036Z" fill="#00AEDB" fill-rule="evenodd"/><path d="M64.1328 502.036 101.928 502.036 101.928 540.436 64.1328 540.436Z" fill="#00AEDB" fill-rule="evenodd"/><path d="M101.928 502.036 139.723 502.036 139.723 540.436 101.928 540.436Z" fill="#00AEDB" fill-rule="evenodd"/><path d="M139.723 502.036 177.519 502.036 177.519 540.436 139.723 540.436Z" fill="#00AEDB" fill-rule="evenodd"/><path d="M177.519 502.036 215.314 502.036 215.314 540.436 177.519 540.436Z" fill="#00AEDB" fill-rule="evenodd"/><path d="M215.314 502.036 253.109 502.036 253.109 540.436 215.314 540.436Z" fill="#00AEDB" fill-rule="evenodd"/><path d="M253.109 502.036 290.904 502.036 290.904 540.436 253.109 540.436Z" fill="#00AEDB" fill-rule="evenodd"/><path d="M290.904 502.036 328.7 502.036 328.7 540.436 290.904 540.436Z" fill="#00AEDB" fill-rule="evenodd"/><path d="M328.7 502.036 366.495 502.036 366.495 540.436 328.7 540.436Z" fill="#00AEDB" fill-rule="evenodd"/><path d="M64.1328 540.436 101.928 540.436 101.928 578.836 64.1328 578.836Z" fill="#00AEDB" fill-rule="evenodd"/><path d="M101.928 540.436 139.723 540.436 139.723 578.836 101.928 578.836Z" fill="#00AEDB" fill-rule="evenodd"/><path d="M139.723 540.436 177.519 540.436 177.519 578.836 139.723 578.836Z" fill="#00AEDB" fill-rule="evenodd"/><path d="M177.519 540.436 215.314 540.436 215.314 578.836 177.519 578.836Z" fill="#00AEDB" fill-rule="evenodd"/><path d="M215.314 540.436 253.109 540.436 253.109 578.836 215.314 578.836Z" fill="#00AEDB" fill-rule="evenodd"/><path d="M253.109 540.436 290.904 540.436 290.904 578.836 253.109 578.836Z" fill="#00AEDB" fill-rule="evenodd"/><path d="M290.904 540.436 328.7 540.436 328.7 578.836 290.904 578.836Z" fill="#00AEDB" fill-rule="evenodd"/><path d="M328.7 540.436 366.495 540.436 366.495 578.836 328.7 578.836Z" fill="#00AEDB" fill-rule="evenodd"/><path d="M64.1328 578.836 101.928 578.836 101.928 617.236 64.1328 617.236Z" fill="#00AEDB" fill-rule="evenodd"/><path d="M101.928 578.836 139.723 578.836 139.723 617.236 101.928 617.236Z" fill="#00AEDB" fill-rule="evenodd"/><path d="M139.723 578.836 177.519 578.836 177.519 617.236 139.723 617.236Z" fill="#00AEDB" fill-rule="evenodd"/><path d="M177.519 578.836 215.314 578.836 215.314 617.236 177.519 617.236Z" fill="#00AEDB" fill-rule="evenodd"/><path d="M215.314 578.836 253.109 578.836 253.109 617.236 215.314 617.236Z" fill="#00AEDB" fill-rule="evenodd"/><path d="M253.109 578.836 290.904 578.836 290.904 617.236 253.109 617.236Z" fill="#00AEDB" fill-rule="evenodd"/><path d="M290.904 578.836 328.7 578.836 328.7 617.236 290.904 617.236Z" fill="#00AEDB" fill-rule="evenodd"/><path d="M328.7 578.836 366.495 578.836 366.495 617.236 328.7 617.236Z" fill="#00AEDB" fill-rule="evenodd"/><path d="M64.1328 617.236 101.928 617.236 101.928 655.636 64.1328 655.636Z" fill="#00AEDB" fill-rule="evenodd"/><path d="M101.928 617.236 139.723 617.236 139.723 655.636 101.928 655.636Z" fill="#00AEDB" fill-rule="evenodd"/><path d="M139.723 617.236 177.519 617.236 177.519 655.636 139.723 655.636Z" fill="#00AEDB" fill-rule="evenodd"/><path d="M177.519 617.236 215.314 617.236 215.314 655.636 177.519 655.636Z" fill="#00AEDB" fill-rule="evenodd"/><path d="M215.314 617.236 253.109 617.236 253.109 655.636 215.314 655.636Z" fill="#00AEDB" fill-rule="evenodd"/><path d="M253.109 617.236 290.904 617.236 290.904 655.636 253.109 655.636Z" fill="#00AEDB" fill-rule="evenodd"/><path d="M290.904 617.236 328.7 617.236 328.7 655.636 290.904 655.636Z" fill="#00AEDB" fill-rule="evenodd"/><path d="M328.7 617.236 366.495 617.236 366.495 655.636 328.7 655.636Z" fill="#00AEDB" fill-rule="evenodd"/><path d="M101.928 462.136 101.928 657.135" stroke="#000000" stroke-width="3" stroke-linejoin="round" stroke-miterlimit="10" fill="none" fill-rule="evenodd"/><path d="M139.723 462.136 139.723 657.135" stroke="#000000" stroke-width="3" stroke-linejoin="round" stroke-miterlimit="10" fill="none" fill-rule="evenodd"/><path d="M177.519 462.136 177.519 657.135" stroke="#000000" stroke-width="3" stroke-linejoin="round" stroke-miterlimit="10" fill="none" fill-rule="evenodd"/><path d="M215.314 462.136 215.314 657.135" stroke="#000000" stroke-width="3" stroke-linejoin="round" stroke-miterlimit="10" fill="none" fill-rule="evenodd"/><path d="M253.109 462.136 253.109 657.135" stroke="#000000" stroke-width="3" stroke-linejoin="round" stroke-miterlimit="10" fill="none" fill-rule="evenodd"/><path d="M290.904 462.136 290.904 657.135" stroke="#000000" stroke-width="3" stroke-linejoin="round" stroke-miterlimit="10" fill="none" fill-rule="evenodd"/><path d="M328.7 462.136 328.7 657.135" stroke="#000000" stroke-width="3" stroke-linejoin="round" stroke-miterlimit="10" fill="none" fill-rule="evenodd"/><path d="M62.6329 502.036 367.995 502.036" stroke="#000000" stroke-width="3" stroke-linejoin="round" stroke-miterlimit="10" fill="none" fill-rule="evenodd"/><path d="M62.6329 540.436 367.995 540.436" stroke="#000000" stroke-width="3" stroke-linejoin="round" stroke-miterlimit="10" fill="none" fill-rule="evenodd"/><path d="M62.6329 578.836 367.995 578.836" stroke="#000000" stroke-width="3" stroke-linejoin="round" stroke-miterlimit="10" fill="none" fill-rule="evenodd"/><path d="M62.6329 617.236 367.995 617.236" stroke="#000000" stroke-width="3" stroke-linejoin="round" stroke-miterlimit="10" fill="none" fill-rule="evenodd"/><path d="M64.1328 462.136 64.1328 657.135" stroke="#000000" stroke-width="3" stroke-linejoin="round" stroke-miterlimit="10" fill="none" fill-rule="evenodd"/><path d="M366.495 462.136 366.495 657.135" stroke="#000000" stroke-width="3" stroke-linejoin="round" stroke-miterlimit="10" fill="none" fill-rule="evenodd"/><path d="M62.6329 463.636 367.995 463.636" stroke="#000000" stroke-width="3" stroke-linejoin="round" stroke-miterlimit="10" fill="none" fill-rule="evenodd"/><path d="M62.6329 655.636 367.995 655.636" stroke="#000000" stroke-width="3" stroke-linejoin="round" stroke-miterlimit="10" fill="none" fill-rule="evenodd"/><path d="M419.133 180.176 456.928 180.176 456.928 218.576 419.133 218.576Z" fill="#D11141" fill-rule="evenodd"/><path d="M419.133 218.576 456.928 218.576 456.928 256.976 419.133 256.976Z" fill="#D11141" fill-rule="evenodd"/><path d="M417.633 218.576 458.428 218.576" stroke="#000000" stroke-width="3" stroke-linejoin="round" stroke-miterlimit="10" fill="none" fill-rule="evenodd"/><path d="M419.133 178.677 419.133 258.476" stroke="#000000" stroke-width="3" stroke-linejoin="round" stroke-miterlimit="10" fill="none" fill-rule="evenodd"/><path d="M456.928 178.677 456.928 258.476" stroke="#000000" stroke-width="3" stroke-linejoin="round" stroke-miterlimit="10" fill="none" fill-rule="evenodd"/><path d="M417.633 180.176 458.428 180.176" stroke="#000000" stroke-width="3" stroke-linejoin="round" stroke-miterlimit="10" fill="none" fill-rule="evenodd"/><path d="M417.633 256.976 458.428 256.976" stroke="#000000" stroke-width="3" stroke-linejoin="round" stroke-miterlimit="10" fill="none" fill-rule="evenodd"/><path d="M419.133 302.4 456.928 302.4 456.928 340.8 419.133 340.8Z" fill="#D11141" fill-rule="evenodd"/><path d="M419.133 340.8 456.928 340.8 456.928 379.2 419.133 379.2Z" fill="#D11141" fill-rule="evenodd"/><path d="M419.133 379.2 456.928 379.2 456.928 417.6 419.133 417.6Z" fill="#D11141" fill-rule="evenodd"/><path d="M417.633 340.8 458.428 340.8" stroke="#000000" stroke-width="3" stroke-linejoin="round" stroke-miterlimit="10" fill="none" fill-rule="evenodd"/><path d="M417.633 379.2 458.428 379.2" stroke="#000000" stroke-width="3" stroke-linejoin="round" stroke-miterlimit="10" fill="none" fill-rule="evenodd"/><path d="M419.133 300.9 419.133 419.1" stroke="#000000" stroke-width="3" stroke-linejoin="round" stroke-miterlimit="10" fill="none" fill-rule="evenodd"/><path d="M456.928 300.9 456.928 419.1" stroke="#000000" stroke-width="3" stroke-linejoin="round" stroke-miterlimit="10" fill="none" fill-rule="evenodd"/><path d="M417.633 302.4 458.428 302.4" stroke="#000000" stroke-width="3" stroke-linejoin="round" stroke-miterlimit="10" fill="none" fill-rule="evenodd"/><path d="M417.633 417.6 458.428 417.6" stroke="#000000" stroke-width="3" stroke-linejoin="round" stroke-miterlimit="10" fill="none" fill-rule="evenodd"/><path d="M419.133 463.769 456.928 463.769 456.928 502.169 419.133 502.169Z" fill="#00AEDB" fill-rule="evenodd"/><path d="M419.133 502.169 456.928 502.169 456.928 540.569 419.133 540.569Z" fill="#00AEDB" fill-rule="evenodd"/><path d="M419.133 540.569 456.928 540.569 456.928 578.969 419.133 578.969Z" fill="#00AEDB" fill-rule="evenodd"/><path d="M419.133 578.969 456.928 578.969 456.928 617.369 419.133 617.369Z" fill="#00AEDB" fill-rule="evenodd"/><path d="M419.133 617.369 456.928 617.369 456.928 655.769 419.133 655.769Z" fill="#00AEDB" fill-rule="evenodd"/><path d="M417.633 502.169 458.428 502.169" stroke="#000000" stroke-width="3" stroke-linejoin="round" stroke-miterlimit="10" fill="none" fill-rule="evenodd"/><path d="M417.633 540.569 458.428 540.569" stroke="#000000" stroke-width="3" stroke-linejoin="round" stroke-miterlimit="10" fill="none" fill-rule="evenodd"/><path d="M417.633 578.969 458.428 578.969" stroke="#000000" stroke-width="3" stroke-linejoin="round" stroke-miterlimit="10" fill="none" fill-rule="evenodd"/><path d="M417.633 617.369 458.428 617.369" stroke="#000000" stroke-width="3" stroke-linejoin="round" stroke-miterlimit="10" fill="none" fill-rule="evenodd"/><path d="M419.133 462.269 419.133 657.269" stroke="#000000" stroke-width="3" stroke-linejoin="round" stroke-miterlimit="10" fill="none" fill-rule="evenodd"/><path d="M456.928 462.269 456.928 657.269" stroke="#000000" stroke-width="3" stroke-linejoin="round" stroke-miterlimit="10" fill="none" fill-rule="evenodd"/><path d="M417.633 463.769 458.428 463.769" stroke="#000000" stroke-width="3" stroke-linejoin="round" stroke-miterlimit="10" fill="none" fill-rule="evenodd"/><path d="M417.633 655.769 458.428 655.769" stroke="#000000" stroke-width="3" stroke-linejoin="round" stroke-miterlimit="10" fill="none" fill-rule="evenodd"/><path d="M466.503 180.176 504.298 180.176 504.298 218.576 466.503 218.576Z" fill="#D11141" fill-rule="evenodd"/><path d="M466.503 218.576 504.298 218.576 504.298 256.976 466.503 256.976Z" fill="#D11141" fill-rule="evenodd"/><path d="M465.003 218.576 505.798 218.576" stroke="#000000" stroke-width="3" stroke-linejoin="round" stroke-miterlimit="10" fill="none" fill-rule="evenodd"/><path d="M466.503 178.677 466.503 258.476" stroke="#000000" stroke-width="3" stroke-linejoin="round" stroke-miterlimit="10" fill="none" fill-rule="evenodd"/><path d="M504.298 178.677 504.298 258.476" stroke="#000000" stroke-width="3" stroke-linejoin="round" stroke-miterlimit="10" fill="none" fill-rule="evenodd"/><path d="M465.003 180.176 505.798 180.176" stroke="#000000" stroke-width="3" stroke-linejoin="round" stroke-miterlimit="10" fill="none" fill-rule="evenodd"/><path d="M465.003 256.976 505.798 256.976" stroke="#000000" stroke-width="3" stroke-linejoin="round" stroke-miterlimit="10" fill="none" fill-rule="evenodd"/><path d="M466.936 340.8 504.732 340.8 504.732 379.2 466.936 379.2Z" fill="#D11141" fill-rule="evenodd"/><path d="M466.936 379.2 504.732 379.2 504.732 417.6 466.936 417.6Z" fill="#D11141" fill-rule="evenodd"/><path d="M465.436 379.2 506.232 379.2" stroke="#000000" stroke-width="3" stroke-linejoin="round" stroke-miterlimit="10" fill="none" fill-rule="evenodd"/><path d="M466.936 339.3 466.936 419.1" stroke="#000000" stroke-width="3" stroke-linejoin="round" stroke-miterlimit="10" fill="none" fill-rule="evenodd"/><path d="M504.732 339.3 504.732 419.1" stroke="#000000" stroke-width="3" stroke-linejoin="round" stroke-miterlimit="10" fill="none" fill-rule="evenodd"/><path d="M465.436 340.8 506.232 340.8" stroke="#000000" stroke-width="3" stroke-linejoin="round" stroke-miterlimit="10" fill="none" fill-rule="evenodd"/><path d="M465.436 417.6 506.232 417.6" stroke="#000000" stroke-width="3" stroke-linejoin="round" stroke-miterlimit="10" fill="none" fill-rule="evenodd"/><path d="M466.936 578.836 504.732 578.836 504.732 617.236 466.936 617.236Z" fill="#00AEDB" fill-rule="evenodd"/><path d="M466.936 617.236 504.732 617.236 504.732 655.636 466.936 655.636Z" fill="#00AEDB" fill-rule="evenodd"/><path d="M465.436 617.236 506.232 617.236" stroke="#000000" stroke-width="3" stroke-linejoin="round" stroke-miterlimit="10" fill="none" fill-rule="evenodd"/><path d="M466.936 577.336 466.936 657.135" stroke="#000000" stroke-width="3" stroke-linejoin="round" stroke-miterlimit="10" fill="none" fill-rule="evenodd"/><path d="M504.732 577.336 504.732 657.135" stroke="#000000" stroke-width="3" stroke-linejoin="round" stroke-miterlimit="10" fill="none" fill-rule="evenodd"/><path d="M465.436 578.836 506.232 578.836" stroke="#000000" stroke-width="3" stroke-linejoin="round" stroke-miterlimit="10" fill="none" fill-rule="evenodd"/><path d="M465.436 655.636 506.232 655.636" stroke="#000000" stroke-width="3" stroke-linejoin="round" stroke-miterlimit="10" fill="none" fill-rule="evenodd"/><text font-family="Calibri,Calibri_MSFontService,sans-serif" font-weight="700" font-size="24" transform="translate(32.6692 226)">A<tspan x="0.5" y="141">B</tspan><tspan x="0.916691" y="342">C</tspan></text></g></svg>