<svg width="456" height="94" xmlns="http://www.w3.org/2000/svg" xmlns:xlink="http://www.w3.org/1999/xlink" overflow="hidden"><defs><clipPath id="clip0"><rect x="553" y="469" width="456" height="94"/></clipPath></defs><g clip-path="url(#clip0)" transform="translate(-553 -469)"><text font-family="Calibri,Calibri_MSFontService,sans-serif" font-weight="700" font-size="21" transform="translate(628.317 518)">Églises Catholiques Indépendantes<tspan font-size="21" x="124.587" y="25">(1,3%)</tspan></text><path d="M554.132 470.708 712.872 470.708 712.872 493.385 554.132 493.385Z" fill="#FFFFFF" fill-rule="evenodd"/><path d="M712.872 470.708 735.55 470.708 735.55 493.385 712.872 493.385Z" fill="#264653" fill-rule="evenodd"/><path d="M735.55 470.708 758.227 470.708 758.227 493.385 735.55 493.385Z" fill="#264653" fill-rule="evenodd"/><path d="M758.227 470.708 780.904 470.708 780.904 493.385 758.227 493.385Z" fill="#264653" fill-rule="evenodd"/><path d="M780.904 470.708 803.581 470.708 803.581 493.385 780.904 493.385Z" fill="#264653" fill-rule="evenodd"/><path d="M803.581 470.708 826.258 470.708 826.258 493.385 803.581 493.385Z" fill="#264653" fill-rule="evenodd"/><path d="M826.258 470.708 848.935 470.708 848.935 493.385 826.258 493.385Z" fill="#264653" fill-rule="evenodd"/><path d="M848.935 470.708 871.613 470.708 871.613 493.385 848.935 493.385Z" fill="#264653" fill-rule="evenodd"/><path d="M871.613 470.708 1007.68 470.708 1007.68 493.385 871.613 493.385Z" fill="#FFFFFF" fill-rule="evenodd"/><path d="M712.872 470.042 712.872 494.052" stroke="#000000" stroke-width="1.33333" stroke-linejoin="round" stroke-miterlimit="10" fill="none" fill-rule="evenodd"/><path d="M735.55 470.042 735.55 494.052" stroke="#000000" stroke-width="1.33333" stroke-linejoin="round" stroke-miterlimit="10" fill="none" fill-rule="evenodd"/><path d="M758.227 470.042 758.227 494.052" stroke="#000000" stroke-width="1.33333" stroke-linejoin="round" stroke-miterlimit="10" fill="none" fill-rule="evenodd"/><path d="M780.904 470.042 780.904 494.052" stroke="#000000" stroke-width="1.33333" stroke-linejoin="round" stroke-miterlimit="10" fill="none" fill-rule="evenodd"/><path d="M803.581 470.042 803.581 494.052" stroke="#000000" stroke-width="1.33333" stroke-linejoin="round" stroke-miterlimit="10" fill="none" fill-rule="evenodd"/><path d="M826.258 470.042 826.258 494.052" stroke="#000000" stroke-width="1.33333" stroke-linejoin="round" stroke-miterlimit="10" fill="none" fill-rule="evenodd"/><path d="M848.935 470.042 848.935 494.052" stroke="#000000" stroke-width="1.33333" stroke-linejoin="round" stroke-miterlimit="10" fill="none" fill-rule="evenodd"/><path d="M871.613 470.042 871.613 494.052" stroke="#000000" stroke-width="1.33333" stroke-linejoin="round" stroke-miterlimit="10" fill="none" fill-rule="evenodd"/><path d="M712.206 470.708 872.279 470.708" stroke="#000000" stroke-width="1.33333" stroke-linejoin="round" stroke-miterlimit="10" fill="none" fill-rule="evenodd"/><path d="M712.206 493.385 872.279 493.385" stroke="#000000" stroke-width="1.33333" stroke-linejoin="round" stroke-miterlimit="10" fill="none" fill-rule="evenodd"/></g></svg>