<svg width="457" height="124" xmlns="http://www.w3.org/2000/svg" xmlns:xlink="http://www.w3.org/1999/xlink" overflow="hidden"><defs><clipPath id="clip0"><rect x="548" y="594" width="457" height="124"/></clipPath></defs><g clip-path="url(#clip0)" transform="translate(-548 -594)"><path d="M549.011 595.17 571.688 595.17 571.688 617.847 549.011 617.847Z" fill="#F4A261" fill-rule="evenodd"/><path d="M571.688 595.17 594.365 595.17 594.365 617.847 571.688 617.847Z" fill="#F4A261" fill-rule="evenodd"/><path d="M594.365 595.17 617.042 595.17 617.042 617.847 594.365 617.847Z" fill="#F4A261" fill-rule="evenodd"/><path d="M617.042 595.17 639.719 595.17 639.719 617.847 617.042 617.847Z" fill="#F4A261" fill-rule="evenodd"/><path d="M639.719 595.17 662.397 595.17 662.397 617.847 639.719 617.847Z" fill="#F4A261" fill-rule="evenodd"/><path d="M662.397 595.17 685.074 595.17 685.074 617.847 662.397 617.847Z" fill="#F4A261" fill-rule="evenodd"/><path d="M685.074 595.17 707.751 595.17 707.751 617.847 685.074 617.847Z" fill="#F4A261" fill-rule="evenodd"/><path d="M707.751 595.17 730.428 595.17 730.428 617.847 707.751 617.847Z" fill="#F4A261" fill-rule="evenodd"/><path d="M730.428 595.17 753.105 595.17 753.105 617.847 730.428 617.847Z" fill="#F4A261" fill-rule="evenodd"/><path d="M753.105 595.17 775.782 595.17 775.782 617.847 753.105 617.847Z" fill="#F4A261" fill-rule="evenodd"/><path d="M775.782 595.17 1002.55 595.17 1002.55 617.847 775.782 617.847Z" fill="#FFFFFF" fill-rule="evenodd"/><path d="M549.011 617.847 571.688 617.847 571.688 640.524 549.011 640.524Z" fill="#F4A261" fill-rule="evenodd"/><path d="M571.688 617.847 594.365 617.847 594.365 640.524 571.688 640.524Z" fill="#F4A261" fill-rule="evenodd"/><path d="M594.365 617.847 617.042 617.847 617.042 640.524 594.365 640.524Z" fill="#F4A261" fill-rule="evenodd"/><path d="M617.042 617.847 639.719 617.847 639.719 640.524 617.042 640.524Z" fill="#F4A261" fill-rule="evenodd"/><path d="M639.719 617.847 662.397 617.847 662.397 640.524 639.719 640.524Z" fill="#F4A261" fill-rule="evenodd"/><path d="M662.397 617.847 685.074 617.847 685.074 640.524 662.397 640.524Z" fill="#F4A261" fill-rule="evenodd"/><path d="M685.074 617.847 707.751 617.847 707.751 640.524 685.074 640.524Z" fill="#F4A261" fill-rule="evenodd"/><path d="M707.751 617.847 730.428 617.847 730.428 640.524 707.751 640.524Z" fill="#F4A261" fill-rule="evenodd"/><path d="M730.428 617.847 753.105 617.847 753.105 640.524 730.428 640.524Z" fill="#F4A261" fill-rule="evenodd"/><path d="M753.105 617.847 775.782 617.847 775.782 640.524 753.105 640.524Z" fill="#F4A261" fill-rule="evenodd"/><path d="M775.782 617.847 798.46 617.847 798.46 640.524 775.782 640.524Z" fill="#F4A261" fill-rule="evenodd"/><path d="M798.46 617.847 821.137 617.847 821.137 640.524 798.46 640.524Z" fill="#F4A261" fill-rule="evenodd"/><path d="M821.137 617.847 843.814 617.847 843.814 640.524 821.137 640.524Z" fill="#F4A261" fill-rule="evenodd"/><path d="M843.814 617.847 866.491 617.847 866.491 640.524 843.814 640.524Z" fill="#F4A261" fill-rule="evenodd"/><path d="M866.491 617.847 889.168 617.847 889.168 640.524 866.491 640.524Z" fill="#F4A261" fill-rule="evenodd"/><path d="M889.168 617.847 911.845 617.847 911.845 640.524 889.168 640.524Z" fill="#F4A261" fill-rule="evenodd"/><path d="M911.845 617.847 934.523 617.847 934.523 640.524 911.845 640.524Z" fill="#F4A261" fill-rule="evenodd"/><path d="M934.523 617.847 957.2 617.847 957.2 640.524 934.523 640.524Z" fill="#F4A261" fill-rule="evenodd"/><path d="M957.2 617.847 979.877 617.847 979.877 640.524 957.2 640.524Z" fill="#F4A261" fill-rule="evenodd"/><path d="M979.877 617.847 1002.55 617.847 1002.55 640.524 979.877 640.524Z" fill="#F4A261" fill-rule="evenodd"/><path d="M571.688 594.503 571.688 641.191" stroke="#000000" stroke-width="1.33333" stroke-linejoin="round" stroke-miterlimit="10" fill="none" fill-rule="evenodd"/><path d="M594.365 594.503 594.365 641.191" stroke="#000000" stroke-width="1.33333" stroke-linejoin="round" stroke-miterlimit="10" fill="none" fill-rule="evenodd"/><path d="M617.042 594.503 617.042 641.191" stroke="#000000" stroke-width="1.33333" stroke-linejoin="round" stroke-miterlimit="10" fill="none" fill-rule="evenodd"/><path d="M639.719 594.503 639.719 641.191" stroke="#000000" stroke-width="1.33333" stroke-linejoin="round" stroke-miterlimit="10" fill="none" fill-rule="evenodd"/><path d="M662.397 594.503 662.397 641.191" stroke="#000000" stroke-width="1.33333" stroke-linejoin="round" stroke-miterlimit="10" fill="none" fill-rule="evenodd"/><path d="M685.074 594.503 685.074 641.191" stroke="#000000" stroke-width="1.33333" stroke-linejoin="round" stroke-miterlimit="10" fill="none" fill-rule="evenodd"/><path d="M707.751 594.503 707.751 641.191" stroke="#000000" stroke-width="1.33333" stroke-linejoin="round" stroke-miterlimit="10" fill="none" fill-rule="evenodd"/><path d="M730.428 594.503 730.428 641.191" stroke="#000000" stroke-width="1.33333" stroke-linejoin="round" stroke-miterlimit="10" fill="none" fill-rule="evenodd"/><path d="M753.105 594.503 753.105 641.191" stroke="#000000" stroke-width="1.33333" stroke-linejoin="round" stroke-miterlimit="10" fill="none" fill-rule="evenodd"/><path d="M775.782 594.503 775.782 641.191" stroke="#000000" stroke-width="1.33333" stroke-linejoin="round" stroke-miterlimit="10" fill="none" fill-rule="evenodd"/><path d="M798.46 617.18 798.46 641.191" stroke="#000000" stroke-width="1.33333" stroke-linejoin="round" stroke-miterlimit="10" fill="none" fill-rule="evenodd"/><path d="M821.137 617.18 821.137 641.191" stroke="#000000" stroke-width="1.33333" stroke-linejoin="round" stroke-miterlimit="10" fill="none" fill-rule="evenodd"/><path d="M843.814 617.18 843.814 641.191" stroke="#000000" stroke-width="1.33333" stroke-linejoin="round" stroke-miterlimit="10" fill="none" fill-rule="evenodd"/><path d="M866.491 617.18 866.491 641.191" stroke="#000000" stroke-width="1.33333" stroke-linejoin="round" stroke-miterlimit="10" fill="none" fill-rule="evenodd"/><path d="M889.168 617.18 889.168 641.191" stroke="#000000" stroke-width="1.33333" stroke-linejoin="round" stroke-miterlimit="10" fill="none" fill-rule="evenodd"/><path d="M911.845 617.18 911.845 641.191" stroke="#000000" stroke-width="1.33333" stroke-linejoin="round" stroke-miterlimit="10" fill="none" fill-rule="evenodd"/><path d="M934.523 617.18 934.523 641.191" stroke="#000000" stroke-width="1.33333" stroke-linejoin="round" stroke-miterlimit="10" fill="none" fill-rule="evenodd"/><path d="M957.2 617.18 957.2 641.191" stroke="#000000" stroke-width="1.33333" stroke-linejoin="round" stroke-miterlimit="10" fill="none" fill-rule="evenodd"/><path d="M979.877 617.18 979.877 641.191" stroke="#000000" stroke-width="1.33333" stroke-linejoin="round" stroke-miterlimit="10" fill="none" fill-rule="evenodd"/><path d="M548.344 617.847 1003.22 617.847" stroke="#000000" stroke-width="1.33333" stroke-linejoin="round" stroke-miterlimit="10" fill="none" fill-rule="evenodd"/><path d="M549.011 594.503 549.011 641.191" stroke="#000000" stroke-width="1.33333" stroke-linejoin="round" stroke-miterlimit="10" fill="none" fill-rule="evenodd"/><path d="M1002.55 617.18 1002.55 641.191" stroke="#000000" stroke-width="1.33333" stroke-linejoin="round" stroke-miterlimit="10" fill="none" fill-rule="evenodd"/><path d="M548.344 595.17 776.449 595.17" stroke="#000000" stroke-width="1.33333" stroke-linejoin="round" stroke-miterlimit="10" fill="none" fill-rule="evenodd"/><path d="M548.344 640.524 1003.22 640.524" stroke="#000000" stroke-width="1.33333" stroke-linejoin="round" stroke-miterlimit="10" fill="none" fill-rule="evenodd"/><text font-family="Calibri,Calibri_MSFontService,sans-serif" font-weight="700" font-size="24" transform="translate(642.441 667)">Église Orthodoxe Orientale<tspan x="101.66" y="29">(2,5%)</tspan></text></g></svg>