<svg width="455" height="102" xmlns="http://www.w3.org/2000/svg" xmlns:xlink="http://www.w3.org/1999/xlink" overflow="hidden"><defs><clipPath id="clip0"><rect x="451" y="191" width="455" height="102"/></clipPath></defs><g clip-path="url(#clip0)" transform="translate(-451 -191)"><path d="M451.902 192.386 655.996 192.386 655.996 215.064 451.902 215.064Z" fill="#FFFFFF" fill-rule="evenodd"/><path d="M655.996 192.386 678.674 192.386 678.674 215.064 655.996 215.064Z" fill="#F4A261" fill-rule="evenodd"/><path d="M678.674 192.386 701.351 192.386 701.351 215.064 678.674 215.064Z" fill="#F4A261" fill-rule="evenodd"/><path d="M701.351 192.386 724.028 192.386 724.028 215.064 701.351 215.064Z" fill="#F4A261" fill-rule="evenodd"/><path d="M724.028 192.386 905.445 192.386 905.445 215.064 724.028 215.064Z" fill="#FFFFFF" fill-rule="evenodd"/><path d="M655.996 191.72 655.996 215.73" stroke="#000000" stroke-width="1.33333" stroke-linejoin="round" stroke-miterlimit="10" fill="none" fill-rule="evenodd"/><path d="M678.674 191.72 678.674 215.73" stroke="#000000" stroke-width="1.33333" stroke-linejoin="round" stroke-miterlimit="10" fill="none" fill-rule="evenodd"/><path d="M701.351 191.72 701.351 215.73" stroke="#000000" stroke-width="1.33333" stroke-linejoin="round" stroke-miterlimit="10" fill="none" fill-rule="evenodd"/><path d="M724.028 191.72 724.028 215.73" stroke="#000000" stroke-width="1.33333" stroke-linejoin="round" stroke-miterlimit="10" fill="none" fill-rule="evenodd"/><path d="M655.33 192.386 724.695 192.386" stroke="#000000" stroke-width="1.33333" stroke-linejoin="round" stroke-miterlimit="10" fill="none" fill-rule="evenodd"/><path d="M655.33 215.064 724.695 215.064" stroke="#000000" stroke-width="1.33333" stroke-linejoin="round" stroke-miterlimit="10" fill="none" fill-rule="evenodd"/><text font-family="Calibri,Calibri_MSFontService,sans-serif" font-weight="700" font-size="24" transform="translate(568.417 242)">Autres dénominations<tspan x="78.7533" y="29">(0,3%)</tspan></text></g></svg>