<svg width="457" height="192" xmlns="http://www.w3.org/2000/svg" xmlns:xlink="http://www.w3.org/1999/xlink" overflow="hidden"><defs><clipPath id="clip0"><rect x="75" y="526" width="457" height="192"/></clipPath></defs><g clip-path="url(#clip0)" transform="translate(-75 -526)"><path d="M76.7731 527.138 99.4503 527.138 99.4503 549.815 76.7731 549.815Z" fill="#E9C46A" fill-rule="evenodd"/><path d="M99.4503 527.138 122.127 527.138 122.127 549.815 99.4503 549.815Z" fill="#E9C46A" fill-rule="evenodd"/><path d="M122.127 527.138 144.805 527.138 144.805 549.815 122.127 549.815Z" fill="#E9C46A" fill-rule="evenodd"/><path d="M144.805 527.138 167.482 527.138 167.482 549.815 144.805 549.815Z" fill="#E9C46A" fill-rule="evenodd"/><path d="M167.482 527.138 190.159 527.138 190.159 549.815 167.482 549.815Z" fill="#E9C46A" fill-rule="evenodd"/><path d="M190.159 527.138 212.836 527.138 212.836 549.815 190.159 549.815Z" fill="#E9C46A" fill-rule="evenodd"/><path d="M212.836 527.138 235.513 527.138 235.513 549.815 212.836 549.815Z" fill="#E9C46A" fill-rule="evenodd"/><path d="M235.513 527.138 258.19 527.138 258.19 549.815 235.513 549.815Z" fill="#E9C46A" fill-rule="evenodd"/><path d="M258.19 527.138 280.868 527.138 280.868 549.815 258.19 549.815Z" fill="#E9C46A" fill-rule="evenodd"/><path d="M280.868 527.138 303.545 527.138 303.545 549.815 280.868 549.815Z" fill="#E9C46A" fill-rule="evenodd"/><path d="M303.545 527.138 326.222 527.138 326.222 549.815 303.545 549.815Z" fill="#E9C46A" fill-rule="evenodd"/><path d="M326.222 527.138 348.899 527.138 348.899 549.815 326.222 549.815Z" fill="#E9C46A" fill-rule="evenodd"/><path d="M348.899 527.138 371.576 527.138 371.576 549.815 348.899 549.815Z" fill="#E9C46A" fill-rule="evenodd"/><path d="M371.576 527.138 394.253 527.138 394.253 549.815 371.576 549.815Z" fill="#E9C46A" fill-rule="evenodd"/><path d="M394.253 527.138 416.931 527.138 416.931 549.815 394.253 549.815Z" fill="#E9C46A" fill-rule="evenodd"/><path d="M416.931 527.138 439.608 527.138 439.608 549.815 416.931 549.815Z" fill="#E9C46A" fill-rule="evenodd"/><path d="M439.608 527.138 462.285 527.138 462.285 549.815 439.608 549.815Z" fill="#E9C46A" fill-rule="evenodd"/><path d="M462.285 527.138 530.316 527.138 530.316 549.815 462.285 549.815Z" fill="#FFFFFF" fill-rule="evenodd"/><path d="M76.7731 549.815 99.4503 549.815 99.4503 572.493 76.7731 572.493Z" fill="#E9C46A" fill-rule="evenodd"/><path d="M99.4503 549.815 122.127 549.815 122.127 572.493 99.4503 572.493Z" fill="#E9C46A" fill-rule="evenodd"/><path d="M122.127 549.815 144.805 549.815 144.805 572.493 122.127 572.493Z" fill="#E9C46A" fill-rule="evenodd"/><path d="M144.805 549.815 167.482 549.815 167.482 572.493 144.805 572.493Z" fill="#E9C46A" fill-rule="evenodd"/><path d="M167.482 549.815 190.159 549.815 190.159 572.493 167.482 572.493Z" fill="#E9C46A" fill-rule="evenodd"/><path d="M190.159 549.815 212.836 549.815 212.836 572.493 190.159 572.493Z" fill="#E9C46A" fill-rule="evenodd"/><path d="M212.836 549.815 235.513 549.815 235.513 572.493 212.836 572.493Z" fill="#E9C46A" fill-rule="evenodd"/><path d="M235.513 549.815 258.19 549.815 258.19 572.493 235.513 572.493Z" fill="#E9C46A" fill-rule="evenodd"/><path d="M258.19 549.815 280.868 549.815 280.868 572.493 258.19 572.493Z" fill="#E9C46A" fill-rule="evenodd"/><path d="M280.868 549.815 303.545 549.815 303.545 572.493 280.868 572.493Z" fill="#E9C46A" fill-rule="evenodd"/><path d="M303.545 549.815 326.222 549.815 326.222 572.493 303.545 572.493Z" fill="#E9C46A" fill-rule="evenodd"/><path d="M326.222 549.815 348.899 549.815 348.899 572.493 326.222 572.493Z" fill="#E9C46A" fill-rule="evenodd"/><path d="M348.899 549.815 371.576 549.815 371.576 572.493 348.899 572.493Z" fill="#E9C46A" fill-rule="evenodd"/><path d="M371.576 549.815 394.253 549.815 394.253 572.493 371.576 572.493Z" fill="#E9C46A" fill-rule="evenodd"/><path d="M394.253 549.815 416.931 549.815 416.931 572.493 394.253 572.493Z" fill="#E9C46A" fill-rule="evenodd"/><path d="M416.931 549.815 439.608 549.815 439.608 572.493 416.931 572.493Z" fill="#E9C46A" fill-rule="evenodd"/><path d="M439.608 549.815 462.285 549.815 462.285 572.493 439.608 572.493Z" fill="#E9C46A" fill-rule="evenodd"/><path d="M462.285 549.815 484.962 549.815 484.962 572.493 462.285 572.493Z" fill="#E9C46A" fill-rule="evenodd"/><path d="M484.962 549.815 507.639 549.815 507.639 572.493 484.962 572.493Z" fill="#E9C46A" fill-rule="evenodd"/><path d="M507.639 549.815 530.316 549.815 530.316 572.493 507.639 572.493Z" fill="#E9C46A" fill-rule="evenodd"/><path d="M76.7731 572.493 99.4503 572.493 99.4503 595.17 76.7731 595.17Z" fill="#E9C46A" fill-rule="evenodd"/><path d="M99.4503 572.493 122.127 572.493 122.127 595.17 99.4503 595.17Z" fill="#E9C46A" fill-rule="evenodd"/><path d="M122.127 572.493 144.805 572.493 144.805 595.17 122.127 595.17Z" fill="#E9C46A" fill-rule="evenodd"/><path d="M144.805 572.493 167.482 572.493 167.482 595.17 144.805 595.17Z" fill="#E9C46A" fill-rule="evenodd"/><path d="M167.482 572.493 190.159 572.493 190.159 595.17 167.482 595.17Z" fill="#E9C46A" fill-rule="evenodd"/><path d="M190.159 572.493 212.836 572.493 212.836 595.17 190.159 595.17Z" fill="#E9C46A" fill-rule="evenodd"/><path d="M212.836 572.493 235.513 572.493 235.513 595.17 212.836 595.17Z" fill="#E9C46A" fill-rule="evenodd"/><path d="M235.513 572.493 258.19 572.493 258.19 595.17 235.513 595.17Z" fill="#E9C46A" fill-rule="evenodd"/><path d="M258.19 572.493 280.868 572.493 280.868 595.17 258.19 595.17Z" fill="#E9C46A" fill-rule="evenodd"/><path d="M280.868 572.493 303.545 572.493 303.545 595.17 280.868 595.17Z" fill="#E9C46A" fill-rule="evenodd"/><path d="M303.545 572.493 326.222 572.493 326.222 595.17 303.545 595.17Z" fill="#E9C46A" fill-rule="evenodd"/><path d="M326.222 572.493 348.899 572.493 348.899 595.17 326.222 595.17Z" fill="#E9C46A" fill-rule="evenodd"/><path d="M348.899 572.493 371.576 572.493 371.576 595.17 348.899 595.17Z" fill="#E9C46A" fill-rule="evenodd"/><path d="M371.576 572.493 394.253 572.493 394.253 595.17 371.576 595.17Z" fill="#E9C46A" fill-rule="evenodd"/><path d="M394.253 572.493 416.931 572.493 416.931 595.17 394.253 595.17Z" fill="#E9C46A" fill-rule="evenodd"/><path d="M416.931 572.493 439.608 572.493 439.608 595.17 416.931 595.17Z" fill="#E9C46A" fill-rule="evenodd"/><path d="M439.608 572.493 462.285 572.493 462.285 595.17 439.608 595.17Z" fill="#E9C46A" fill-rule="evenodd"/><path d="M462.285 572.493 484.962 572.493 484.962 595.17 462.285 595.17Z" fill="#E9C46A" fill-rule="evenodd"/><path d="M484.962 572.493 507.639 572.493 507.639 595.17 484.962 595.17Z" fill="#E9C46A" fill-rule="evenodd"/><path d="M507.639 572.493 530.316 572.493 530.316 595.17 507.639 595.17Z" fill="#E9C46A" fill-rule="evenodd"/><path d="M76.7731 595.17 99.4503 595.17 99.4503 617.847 76.7731 617.847Z" fill="#E9C46A" fill-rule="evenodd"/><path d="M99.4503 595.17 122.127 595.17 122.127 617.847 99.4503 617.847Z" fill="#E9C46A" fill-rule="evenodd"/><path d="M122.127 595.17 144.805 595.17 144.805 617.847 122.127 617.847Z" fill="#E9C46A" fill-rule="evenodd"/><path d="M144.805 595.17 167.482 595.17 167.482 617.847 144.805 617.847Z" fill="#E9C46A" fill-rule="evenodd"/><path d="M167.482 595.17 190.159 595.17 190.159 617.847 167.482 617.847Z" fill="#E9C46A" fill-rule="evenodd"/><path d="M190.159 595.17 212.836 595.17 212.836 617.847 190.159 617.847Z" fill="#E9C46A" fill-rule="evenodd"/><path d="M212.836 595.17 235.513 595.17 235.513 617.847 212.836 617.847Z" fill="#E9C46A" fill-rule="evenodd"/><path d="M235.513 595.17 258.19 595.17 258.19 617.847 235.513 617.847Z" fill="#E9C46A" fill-rule="evenodd"/><path d="M258.19 595.17 280.868 595.17 280.868 617.847 258.19 617.847Z" fill="#E9C46A" fill-rule="evenodd"/><path d="M280.868 595.17 303.545 595.17 303.545 617.847 280.868 617.847Z" fill="#E9C46A" fill-rule="evenodd"/><path d="M303.545 595.17 326.222 595.17 326.222 617.847 303.545 617.847Z" fill="#E9C46A" fill-rule="evenodd"/><path d="M326.222 595.17 348.899 595.17 348.899 617.847 326.222 617.847Z" fill="#E9C46A" fill-rule="evenodd"/><path d="M348.899 595.17 371.576 595.17 371.576 617.847 348.899 617.847Z" fill="#E9C46A" fill-rule="evenodd"/><path d="M371.576 595.17 394.253 595.17 394.253 617.847 371.576 617.847Z" fill="#E9C46A" fill-rule="evenodd"/><path d="M394.253 595.17 416.931 595.17 416.931 617.847 394.253 617.847Z" fill="#E9C46A" fill-rule="evenodd"/><path d="M416.931 595.17 439.608 595.17 439.608 617.847 416.931 617.847Z" fill="#E9C46A" fill-rule="evenodd"/><path d="M439.608 595.17 462.285 595.17 462.285 617.847 439.608 617.847Z" fill="#E9C46A" fill-rule="evenodd"/><path d="M462.285 595.17 484.962 595.17 484.962 617.847 462.285 617.847Z" fill="#E9C46A" fill-rule="evenodd"/><path d="M484.962 595.17 507.639 595.17 507.639 617.847 484.962 617.847Z" fill="#E9C46A" fill-rule="evenodd"/><path d="M507.639 595.17 530.316 595.17 530.316 617.847 507.639 617.847Z" fill="#E9C46A" fill-rule="evenodd"/><path d="M76.7731 617.847 99.4503 617.847 99.4503 640.524 76.7731 640.524Z" fill="#E9C46A" fill-rule="evenodd"/><path d="M99.4503 617.847 122.127 617.847 122.127 640.524 99.4503 640.524Z" fill="#E9C46A" fill-rule="evenodd"/><path d="M122.127 617.847 144.805 617.847 144.805 640.524 122.127 640.524Z" fill="#E9C46A" fill-rule="evenodd"/><path d="M144.805 617.847 167.482 617.847 167.482 640.524 144.805 640.524Z" fill="#E9C46A" fill-rule="evenodd"/><path d="M167.482 617.847 190.159 617.847 190.159 640.524 167.482 640.524Z" fill="#E9C46A" fill-rule="evenodd"/><path d="M190.159 617.847 212.836 617.847 212.836 640.524 190.159 640.524Z" fill="#E9C46A" fill-rule="evenodd"/><path d="M212.836 617.847 235.513 617.847 235.513 640.524 212.836 640.524Z" fill="#E9C46A" fill-rule="evenodd"/><path d="M235.513 617.847 258.19 617.847 258.19 640.524 235.513 640.524Z" fill="#E9C46A" fill-rule="evenodd"/><path d="M258.19 617.847 280.868 617.847 280.868 640.524 258.19 640.524Z" fill="#E9C46A" fill-rule="evenodd"/><path d="M280.868 617.847 303.545 617.847 303.545 640.524 280.868 640.524Z" fill="#E9C46A" fill-rule="evenodd"/><path d="M303.545 617.847 326.222 617.847 326.222 640.524 303.545 640.524Z" fill="#E9C46A" fill-rule="evenodd"/><path d="M326.222 617.847 348.899 617.847 348.899 640.524 326.222 640.524Z" fill="#E9C46A" fill-rule="evenodd"/><path d="M348.899 617.847 371.576 617.847 371.576 640.524 348.899 640.524Z" fill="#E9C46A" fill-rule="evenodd"/><path d="M371.576 617.847 394.253 617.847 394.253 640.524 371.576 640.524Z" fill="#E9C46A" fill-rule="evenodd"/><path d="M394.253 617.847 416.931 617.847 416.931 640.524 394.253 640.524Z" fill="#E9C46A" fill-rule="evenodd"/><path d="M416.931 617.847 439.608 617.847 439.608 640.524 416.931 640.524Z" fill="#E9C46A" fill-rule="evenodd"/><path d="M439.608 617.847 462.285 617.847 462.285 640.524 439.608 640.524Z" fill="#E9C46A" fill-rule="evenodd"/><path d="M462.285 617.847 484.962 617.847 484.962 640.524 462.285 640.524Z" fill="#E9C46A" fill-rule="evenodd"/><path d="M484.962 617.847 507.639 617.847 507.639 640.524 484.962 640.524Z" fill="#E9C46A" fill-rule="evenodd"/><path d="M507.639 617.847 530.316 617.847 530.316 640.524 507.639 640.524Z" fill="#E9C46A" fill-rule="evenodd"/><path d="M99.4503 526.472 99.4503 641.191" stroke="#000000" stroke-width="1.33333" stroke-linejoin="round" stroke-miterlimit="10" fill="none" fill-rule="evenodd"/><path d="M122.127 526.472 122.127 641.191" stroke="#000000" stroke-width="1.33333" stroke-linejoin="round" stroke-miterlimit="10" fill="none" fill-rule="evenodd"/><path d="M144.805 526.472 144.805 641.191" stroke="#000000" stroke-width="1.33333" stroke-linejoin="round" stroke-miterlimit="10" fill="none" fill-rule="evenodd"/><path d="M167.482 526.472 167.482 641.191" stroke="#000000" stroke-width="1.33333" stroke-linejoin="round" stroke-miterlimit="10" fill="none" fill-rule="evenodd"/><path d="M190.159 526.472 190.159 641.191" stroke="#000000" stroke-width="1.33333" stroke-linejoin="round" stroke-miterlimit="10" fill="none" fill-rule="evenodd"/><path d="M212.836 526.472 212.836 641.191" stroke="#000000" stroke-width="1.33333" stroke-linejoin="round" stroke-miterlimit="10" fill="none" fill-rule="evenodd"/><path d="M235.513 526.472 235.513 641.191" stroke="#000000" stroke-width="1.33333" stroke-linejoin="round" stroke-miterlimit="10" fill="none" fill-rule="evenodd"/><path d="M258.19 526.472 258.19 641.191" stroke="#000000" stroke-width="1.33333" stroke-linejoin="round" stroke-miterlimit="10" fill="none" fill-rule="evenodd"/><path d="M280.868 526.472 280.868 641.191" stroke="#000000" stroke-width="1.33333" stroke-linejoin="round" stroke-miterlimit="10" fill="none" fill-rule="evenodd"/><path d="M303.545 526.472 303.545 641.191" stroke="#000000" stroke-width="1.33333" stroke-linejoin="round" stroke-miterlimit="10" fill="none" fill-rule="evenodd"/><path d="M326.222 526.472 326.222 641.191" stroke="#000000" stroke-width="1.33333" stroke-linejoin="round" stroke-miterlimit="10" fill="none" fill-rule="evenodd"/><path d="M348.899 526.472 348.899 641.191" stroke="#000000" stroke-width="1.33333" stroke-linejoin="round" stroke-miterlimit="10" fill="none" fill-rule="evenodd"/><path d="M371.576 526.472 371.576 641.191" stroke="#000000" stroke-width="1.33333" stroke-linejoin="round" stroke-miterlimit="10" fill="none" fill-rule="evenodd"/><path d="M394.253 526.472 394.253 641.191" stroke="#000000" stroke-width="1.33333" stroke-linejoin="round" stroke-miterlimit="10" fill="none" fill-rule="evenodd"/><path d="M416.931 526.472 416.931 641.191" stroke="#000000" stroke-width="1.33333" stroke-linejoin="round" stroke-miterlimit="10" fill="none" fill-rule="evenodd"/><path d="M439.608 526.472 439.608 641.191" stroke="#000000" stroke-width="1.33333" stroke-linejoin="round" stroke-miterlimit="10" fill="none" fill-rule="evenodd"/><path d="M462.285 526.472 462.285 641.191" stroke="#000000" stroke-width="1.33333" stroke-linejoin="round" stroke-miterlimit="10" fill="none" fill-rule="evenodd"/><path d="M484.962 549.149 484.962 641.191" stroke="#000000" stroke-width="1.33333" stroke-linejoin="round" stroke-miterlimit="10" fill="none" fill-rule="evenodd"/><path d="M507.639 549.149 507.639 641.191" stroke="#000000" stroke-width="1.33333" stroke-linejoin="round" stroke-miterlimit="10" fill="none" fill-rule="evenodd"/><path d="M76.1065 549.815 530.983 549.815" stroke="#000000" stroke-width="1.33333" stroke-linejoin="round" stroke-miterlimit="10" fill="none" fill-rule="evenodd"/><path d="M76.1065 572.493 530.983 572.493" stroke="#000000" stroke-width="1.33333" stroke-linejoin="round" stroke-miterlimit="10" fill="none" fill-rule="evenodd"/><path d="M76.1065 595.17 530.983 595.17" stroke="#000000" stroke-width="1.33333" stroke-linejoin="round" stroke-miterlimit="10" fill="none" fill-rule="evenodd"/><path d="M76.1065 617.847 530.983 617.847" stroke="#000000" stroke-width="1.33333" stroke-linejoin="round" stroke-miterlimit="10" fill="none" fill-rule="evenodd"/><path d="M76.7731 526.472 76.7731 641.191" stroke="#000000" stroke-width="1.33333" stroke-linejoin="round" stroke-miterlimit="10" fill="none" fill-rule="evenodd"/><path d="M530.316 549.149 530.316 641.191" stroke="#000000" stroke-width="1.33333" stroke-linejoin="round" stroke-miterlimit="10" fill="none" fill-rule="evenodd"/><path d="M76.1065 527.138 462.952 527.138" stroke="#000000" stroke-width="1.33333" stroke-linejoin="round" stroke-miterlimit="10" fill="none" fill-rule="evenodd"/><path d="M76.1065 640.524 530.983 640.524" stroke="#000000" stroke-width="1.33333" stroke-linejoin="round" stroke-miterlimit="10" fill="none" fill-rule="evenodd"/><text font-family="Calibri,Calibri_MSFontService,sans-serif" font-weight="700" font-size="24" transform="translate(219.571 667)">Église Orthodoxe <tspan x="52.4733" y="29">(8,7%)</tspan></text></g></svg>