<svg width="455" height="102" xmlns="http://www.w3.org/2000/svg" xmlns:xlink="http://www.w3.org/1999/xlink" overflow="hidden"><defs><clipPath id="clip0"><rect x="578" y="272" width="455" height="102"/></clipPath></defs><g clip-path="url(#clip0)" transform="translate(-578 -272)"><text font-family="Calibri,Calibri_MSFontService,sans-serif" font-weight="700" font-size="24" transform="translate(772.437 323)">Autres<tspan font-size="24" x="1.20001" y="29">(0,9%)</tspan></text><path d="M578.365 273.768 759.783 273.768 759.783 296.445 578.365 296.445Z" fill="#FFFFFF" fill-rule="evenodd"/><path d="M759.783 273.768 782.46 273.768 782.46 296.445 759.783 296.445Z" fill="#E9C46A" fill-rule="evenodd"/><path d="M782.46 273.768 805.137 273.768 805.137 296.445 782.46 296.445Z" fill="#E9C46A" fill-rule="evenodd"/><path d="M805.137 273.768 827.814 273.768 827.814 296.445 805.137 296.445Z" fill="#E9C46A" fill-rule="evenodd"/><path d="M827.814 273.768 850.491 273.768 850.491 296.445 827.814 296.445Z" fill="#E9C46A" fill-rule="evenodd"/><path d="M850.491 273.768 873.168 273.768 873.168 296.445 850.491 296.445Z" fill="#E9C46A" fill-rule="evenodd"/><path d="M873.168 273.768 1031.91 273.768 1031.91 296.445 873.168 296.445Z" fill="#FFFFFF" fill-rule="evenodd"/><path d="M759.783 273.101 759.783 297.112" stroke="#000000" stroke-width="1.33333" stroke-linejoin="round" stroke-miterlimit="10" fill="none" fill-rule="evenodd"/><path d="M782.46 273.101 782.46 297.112" stroke="#000000" stroke-width="1.33333" stroke-linejoin="round" stroke-miterlimit="10" fill="none" fill-rule="evenodd"/><path d="M805.137 273.101 805.137 297.112" stroke="#000000" stroke-width="1.33333" stroke-linejoin="round" stroke-miterlimit="10" fill="none" fill-rule="evenodd"/><path d="M827.814 273.101 827.814 297.112" stroke="#000000" stroke-width="1.33333" stroke-linejoin="round" stroke-miterlimit="10" fill="none" fill-rule="evenodd"/><path d="M850.491 273.101 850.491 297.112" stroke="#000000" stroke-width="1.33333" stroke-linejoin="round" stroke-miterlimit="10" fill="none" fill-rule="evenodd"/><path d="M873.168 273.101 873.168 297.112" stroke="#000000" stroke-width="1.33333" stroke-linejoin="round" stroke-miterlimit="10" fill="none" fill-rule="evenodd"/><path d="M759.116 273.768 873.835 273.768" stroke="#000000" stroke-width="1.33333" stroke-linejoin="round" stroke-miterlimit="10" fill="none" fill-rule="evenodd"/><path d="M759.116 296.445 873.835 296.445" stroke="#000000" stroke-width="1.33333" stroke-linejoin="round" stroke-miterlimit="10" fill="none" fill-rule="evenodd"/></g></svg>