<svg width="457" height="116" xmlns="http://www.w3.org/2000/svg" xmlns:xlink="http://www.w3.org/1999/xlink" overflow="hidden"><defs><clipPath id="clip0"><rect x="577" y="525" width="457" height="116"/></clipPath></defs><g clip-path="url(#clip0)" transform="translate(-577 -525)"><text font-family="Calibri,Calibri_MSFontService,sans-serif" font-weight="700" font-size="21" transform="translate(722.157 596)">Églises <tspan font-size="21" x="63.3334" y="0">Autonomes</tspan><tspan font-size="21" x="54.98" y="25">(6,2%)</tspan></text><path d="M578.365 526.155 601.043 526.155 601.043 548.832 578.365 548.832Z" fill="#E9C46A" fill-rule="evenodd"/><path d="M601.043 526.155 623.72 526.155 623.72 548.832 601.043 548.832Z" fill="#E9C46A" fill-rule="evenodd"/><path d="M623.72 526.155 646.397 526.155 646.397 548.832 623.72 548.832Z" fill="#E9C46A" fill-rule="evenodd"/><path d="M646.397 526.155 669.074 526.155 669.074 548.832 646.397 548.832Z" fill="#E9C46A" fill-rule="evenodd"/><path d="M669.074 526.155 691.751 526.155 691.751 548.832 669.074 548.832Z" fill="#E9C46A" fill-rule="evenodd"/><path d="M691.751 526.155 714.428 526.155 714.428 548.832 691.751 548.832Z" fill="#E9C46A" fill-rule="evenodd"/><path d="M714.428 526.155 737.106 526.155 737.106 548.832 714.428 548.832Z" fill="#E9C46A" fill-rule="evenodd"/><path d="M737.106 526.155 759.783 526.155 759.783 548.832 737.106 548.832Z" fill="#E9C46A" fill-rule="evenodd"/><path d="M759.783 526.155 782.46 526.155 782.46 548.832 759.783 548.832Z" fill="#E9C46A" fill-rule="evenodd"/><path d="M782.46 526.155 805.137 526.155 805.137 548.832 782.46 548.832Z" fill="#E9C46A" fill-rule="evenodd"/><path d="M805.137 526.155 827.814 526.155 827.814 548.832 805.137 548.832Z" fill="#E9C46A" fill-rule="evenodd"/><path d="M827.814 526.155 1031.91 526.155 1031.91 548.832 827.814 548.832Z" fill="#FFFFFF" fill-rule="evenodd"/><path d="M578.365 548.832 601.043 548.832 601.043 571.509 578.365 571.509Z" fill="#E9C46A" fill-rule="evenodd"/><path d="M601.043 548.832 623.72 548.832 623.72 571.509 601.043 571.509Z" fill="#E9C46A" fill-rule="evenodd"/><path d="M623.72 548.832 646.397 548.832 646.397 571.509 623.72 571.509Z" fill="#E9C46A" fill-rule="evenodd"/><path d="M646.397 548.832 669.074 548.832 669.074 571.509 646.397 571.509Z" fill="#E9C46A" fill-rule="evenodd"/><path d="M669.074 548.832 691.751 548.832 691.751 571.509 669.074 571.509Z" fill="#E9C46A" fill-rule="evenodd"/><path d="M691.751 548.832 714.428 548.832 714.428 571.509 691.751 571.509Z" fill="#E9C46A" fill-rule="evenodd"/><path d="M714.428 548.832 737.106 548.832 737.106 571.509 714.428 571.509Z" fill="#E9C46A" fill-rule="evenodd"/><path d="M737.106 548.832 759.783 548.832 759.783 571.509 737.106 571.509Z" fill="#E9C46A" fill-rule="evenodd"/><path d="M759.783 548.832 782.46 548.832 782.46 571.509 759.783 571.509Z" fill="#E9C46A" fill-rule="evenodd"/><path d="M782.46 548.832 805.137 548.832 805.137 571.509 782.46 571.509Z" fill="#E9C46A" fill-rule="evenodd"/><path d="M805.137 548.832 827.814 548.832 827.814 571.509 805.137 571.509Z" fill="#E9C46A" fill-rule="evenodd"/><path d="M827.814 548.832 850.491 548.832 850.491 571.509 827.814 571.509Z" fill="#E9C46A" fill-rule="evenodd"/><path d="M850.491 548.832 873.168 548.832 873.168 571.509 850.491 571.509Z" fill="#E9C46A" fill-rule="evenodd"/><path d="M873.168 548.832 895.846 548.832 895.846 571.509 873.168 571.509Z" fill="#E9C46A" fill-rule="evenodd"/><path d="M895.846 548.832 918.523 548.832 918.523 571.509 895.846 571.509Z" fill="#E9C46A" fill-rule="evenodd"/><path d="M918.523 548.832 941.2 548.832 941.2 571.509 918.523 571.509Z" fill="#E9C46A" fill-rule="evenodd"/><path d="M941.2 548.832 963.877 548.832 963.877 571.509 941.2 571.509Z" fill="#E9C46A" fill-rule="evenodd"/><path d="M963.877 548.832 986.554 548.832 986.554 571.509 963.877 571.509Z" fill="#E9C46A" fill-rule="evenodd"/><path d="M986.554 548.832 1009.23 548.832 1009.23 571.509 986.554 571.509Z" fill="#E9C46A" fill-rule="evenodd"/><path d="M1009.23 548.832 1031.91 548.832 1031.91 571.509 1009.23 571.509Z" fill="#E9C46A" fill-rule="evenodd"/><path d="M601.043 525.488 601.043 572.176" stroke="#000000" stroke-width="1.33333" stroke-linejoin="round" stroke-miterlimit="10" fill="none" fill-rule="evenodd"/><path d="M623.72 525.488 623.72 572.176" stroke="#000000" stroke-width="1.33333" stroke-linejoin="round" stroke-miterlimit="10" fill="none" fill-rule="evenodd"/><path d="M646.397 525.488 646.397 572.176" stroke="#000000" stroke-width="1.33333" stroke-linejoin="round" stroke-miterlimit="10" fill="none" fill-rule="evenodd"/><path d="M669.074 525.488 669.074 572.176" stroke="#000000" stroke-width="1.33333" stroke-linejoin="round" stroke-miterlimit="10" fill="none" fill-rule="evenodd"/><path d="M691.751 525.488 691.751 572.176" stroke="#000000" stroke-width="1.33333" stroke-linejoin="round" stroke-miterlimit="10" fill="none" fill-rule="evenodd"/><path d="M714.428 525.488 714.428 572.176" stroke="#000000" stroke-width="1.33333" stroke-linejoin="round" stroke-miterlimit="10" fill="none" fill-rule="evenodd"/><path d="M737.106 525.488 737.106 572.176" stroke="#000000" stroke-width="1.33333" stroke-linejoin="round" stroke-miterlimit="10" fill="none" fill-rule="evenodd"/><path d="M759.783 525.488 759.783 572.176" stroke="#000000" stroke-width="1.33333" stroke-linejoin="round" stroke-miterlimit="10" fill="none" fill-rule="evenodd"/><path d="M782.46 525.488 782.46 572.176" stroke="#000000" stroke-width="1.33333" stroke-linejoin="round" stroke-miterlimit="10" fill="none" fill-rule="evenodd"/><path d="M805.137 525.488 805.137 572.176" stroke="#000000" stroke-width="1.33333" stroke-linejoin="round" stroke-miterlimit="10" fill="none" fill-rule="evenodd"/><path d="M827.814 525.488 827.814 572.176" stroke="#000000" stroke-width="1.33333" stroke-linejoin="round" stroke-miterlimit="10" fill="none" fill-rule="evenodd"/><path d="M850.491 548.165 850.491 572.176" stroke="#000000" stroke-width="1.33333" stroke-linejoin="round" stroke-miterlimit="10" fill="none" fill-rule="evenodd"/><path d="M873.168 548.165 873.168 572.176" stroke="#000000" stroke-width="1.33333" stroke-linejoin="round" stroke-miterlimit="10" fill="none" fill-rule="evenodd"/><path d="M895.846 548.165 895.846 572.176" stroke="#000000" stroke-width="1.33333" stroke-linejoin="round" stroke-miterlimit="10" fill="none" fill-rule="evenodd"/><path d="M918.523 548.165 918.523 572.176" stroke="#000000" stroke-width="1.33333" stroke-linejoin="round" stroke-miterlimit="10" fill="none" fill-rule="evenodd"/><path d="M941.2 548.165 941.2 572.176" stroke="#000000" stroke-width="1.33333" stroke-linejoin="round" stroke-miterlimit="10" fill="none" fill-rule="evenodd"/><path d="M963.877 548.165 963.877 572.176" stroke="#000000" stroke-width="1.33333" stroke-linejoin="round" stroke-miterlimit="10" fill="none" fill-rule="evenodd"/><path d="M986.554 548.165 986.554 572.176" stroke="#000000" stroke-width="1.33333" stroke-linejoin="round" stroke-miterlimit="10" fill="none" fill-rule="evenodd"/><path d="M1009.23 548.165 1009.23 572.176" stroke="#000000" stroke-width="1.33333" stroke-linejoin="round" stroke-miterlimit="10" fill="none" fill-rule="evenodd"/><path d="M577.699 548.832 1032.58 548.832" stroke="#000000" stroke-width="1.33333" stroke-linejoin="round" stroke-miterlimit="10" fill="none" fill-rule="evenodd"/><path d="M578.365 525.488 578.365 572.176" stroke="#000000" stroke-width="1.33333" stroke-linejoin="round" stroke-miterlimit="10" fill="none" fill-rule="evenodd"/><path d="M1031.91 548.165 1031.91 572.176" stroke="#000000" stroke-width="1.33333" stroke-linejoin="round" stroke-miterlimit="10" fill="none" fill-rule="evenodd"/><path d="M577.699 526.155 828.481 526.155" stroke="#000000" stroke-width="1.33333" stroke-linejoin="round" stroke-miterlimit="10" fill="none" fill-rule="evenodd"/><path d="M577.699 571.509 1032.58 571.509" stroke="#000000" stroke-width="1.33333" stroke-linejoin="round" stroke-miterlimit="10" fill="none" fill-rule="evenodd"/></g></svg>