<svg width="455" height="94" xmlns="http://www.w3.org/2000/svg" xmlns:xlink="http://www.w3.org/1999/xlink" overflow="hidden"><defs><clipPath id="clip0"><rect x="578" y="400" width="455" height="94"/></clipPath></defs><g clip-path="url(#clip0)" transform="translate(-578 -400)"><text font-family="Calibri,Calibri_MSFontService,sans-serif" font-weight="700" font-size="21" transform="translate(738.174 449)">Vieux<tspan font-size="21" x="49.8334" y="0">-</tspan>Croyants<tspan font-size="21" x="38.9667" y="25">(2,6%)</tspan></text><path d="M578.365 401.693 646.397 401.693 646.397 424.37 578.365 424.37Z" fill="#FFFFFF" fill-rule="evenodd"/><path d="M646.397 401.693 669.074 401.693 669.074 424.37 646.397 424.37Z" fill="#E9C46A" fill-rule="evenodd"/><path d="M669.074 401.693 691.751 401.693 691.751 424.37 669.074 424.37Z" fill="#E9C46A" fill-rule="evenodd"/><path d="M691.751 401.693 714.428 401.693 714.428 424.37 691.751 424.37Z" fill="#E9C46A" fill-rule="evenodd"/><path d="M714.428 401.693 737.106 401.693 737.106 424.37 714.428 424.37Z" fill="#E9C46A" fill-rule="evenodd"/><path d="M737.106 401.693 759.783 401.693 759.783 424.37 737.106 424.37Z" fill="#E9C46A" fill-rule="evenodd"/><path d="M759.783 401.693 782.46 401.693 782.46 424.37 759.783 424.37Z" fill="#E9C46A" fill-rule="evenodd"/><path d="M782.46 401.693 805.137 401.693 805.137 424.37 782.46 424.37Z" fill="#E9C46A" fill-rule="evenodd"/><path d="M805.137 401.693 827.814 401.693 827.814 424.37 805.137 424.37Z" fill="#E9C46A" fill-rule="evenodd"/><path d="M827.814 401.693 850.491 401.693 850.491 424.37 827.814 424.37Z" fill="#E9C46A" fill-rule="evenodd"/><path d="M850.491 401.693 873.168 401.693 873.168 424.37 850.491 424.37Z" fill="#E9C46A" fill-rule="evenodd"/><path d="M873.168 401.693 895.846 401.693 895.846 424.37 873.168 424.37Z" fill="#E9C46A" fill-rule="evenodd"/><path d="M895.846 401.693 918.523 401.693 918.523 424.37 895.846 424.37Z" fill="#E9C46A" fill-rule="evenodd"/><path d="M918.523 401.693 941.2 401.693 941.2 424.37 918.523 424.37Z" fill="#E9C46A" fill-rule="evenodd"/><path d="M941.2 401.693 1031.91 401.693 1031.91 424.37 941.2 424.37Z" fill="#FFFFFF" fill-rule="evenodd"/><path d="M646.397 401.027 646.397 425.037" stroke="#000000" stroke-width="1.33333" stroke-linejoin="round" stroke-miterlimit="10" fill="none" fill-rule="evenodd"/><path d="M669.074 401.027 669.074 425.037" stroke="#000000" stroke-width="1.33333" stroke-linejoin="round" stroke-miterlimit="10" fill="none" fill-rule="evenodd"/><path d="M691.751 401.027 691.751 425.037" stroke="#000000" stroke-width="1.33333" stroke-linejoin="round" stroke-miterlimit="10" fill="none" fill-rule="evenodd"/><path d="M714.428 401.027 714.428 425.037" stroke="#000000" stroke-width="1.33333" stroke-linejoin="round" stroke-miterlimit="10" fill="none" fill-rule="evenodd"/><path d="M737.106 401.027 737.106 425.037" stroke="#000000" stroke-width="1.33333" stroke-linejoin="round" stroke-miterlimit="10" fill="none" fill-rule="evenodd"/><path d="M759.783 401.027 759.783 425.037" stroke="#000000" stroke-width="1.33333" stroke-linejoin="round" stroke-miterlimit="10" fill="none" fill-rule="evenodd"/><path d="M782.46 401.027 782.46 425.037" stroke="#000000" stroke-width="1.33333" stroke-linejoin="round" stroke-miterlimit="10" fill="none" fill-rule="evenodd"/><path d="M805.137 401.027 805.137 425.037" stroke="#000000" stroke-width="1.33333" stroke-linejoin="round" stroke-miterlimit="10" fill="none" fill-rule="evenodd"/><path d="M827.814 401.027 827.814 425.037" stroke="#000000" stroke-width="1.33333" stroke-linejoin="round" stroke-miterlimit="10" fill="none" fill-rule="evenodd"/><path d="M850.491 401.027 850.491 425.037" stroke="#000000" stroke-width="1.33333" stroke-linejoin="round" stroke-miterlimit="10" fill="none" fill-rule="evenodd"/><path d="M873.168 401.027 873.168 425.037" stroke="#000000" stroke-width="1.33333" stroke-linejoin="round" stroke-miterlimit="10" fill="none" fill-rule="evenodd"/><path d="M895.846 401.027 895.846 425.037" stroke="#000000" stroke-width="1.33333" stroke-linejoin="round" stroke-miterlimit="10" fill="none" fill-rule="evenodd"/><path d="M918.523 401.027 918.523 425.037" stroke="#000000" stroke-width="1.33333" stroke-linejoin="round" stroke-miterlimit="10" fill="none" fill-rule="evenodd"/><path d="M941.2 401.027 941.2 425.037" stroke="#000000" stroke-width="1.33333" stroke-linejoin="round" stroke-miterlimit="10" fill="none" fill-rule="evenodd"/><path d="M645.73 401.693 941.867 401.693" stroke="#000000" stroke-width="1.33333" stroke-linejoin="round" stroke-miterlimit="10" fill="none" fill-rule="evenodd"/><path d="M645.73 424.37 941.867 424.37" stroke="#000000" stroke-width="1.33333" stroke-linejoin="round" stroke-miterlimit="10" fill="none" fill-rule="evenodd"/></g></svg>