<svg width="457" height="592" xmlns="http://www.w3.org/2000/svg" xmlns:xlink="http://www.w3.org/1999/xlink" overflow="hidden"><defs><clipPath id="clip0"><rect x="93" y="49" width="457" height="592"/></clipPath></defs><g clip-path="url(#clip0)" transform="translate(-93 -49)"><text font-family="Calibri,Calibri_MSFontService,sans-serif" font-weight="700" font-size="21" transform="translate(229.274 596)">Églises Autocéphales<tspan font-size="21" x="58.56" y="25">(90,3%)</tspan></text><path d="M94.4819 49.9344 117.159 49.9344 117.159 72.6115 94.4819 72.6115Z" fill="#E9C46A" fill-rule="evenodd"/><path d="M117.159 49.9344 139.836 49.9344 139.836 72.6115 117.159 72.6115Z" fill="#E9C46A" fill-rule="evenodd"/><path d="M139.836 49.9344 162.513 49.9344 162.513 72.6115 139.836 72.6115Z" fill="#E9C46A" fill-rule="evenodd"/><path d="M162.513 49.9344 185.191 49.9344 185.191 72.6115 162.513 72.6115Z" fill="#E9C46A" fill-rule="evenodd"/><path d="M185.191 49.9344 207.868 49.9344 207.868 72.6115 185.191 72.6115Z" fill="#E9C46A" fill-rule="evenodd"/><path d="M207.868 49.9344 230.545 49.9344 230.545 72.6115 207.868 72.6115Z" fill="#E9C46A" fill-rule="evenodd"/><path d="M230.545 49.9344 253.222 49.9344 253.222 72.6115 230.545 72.6115Z" fill="#E9C46A" fill-rule="evenodd"/><path d="M253.222 49.9344 275.899 49.9344 275.899 72.6115 253.222 72.6115Z" fill="#E9C46A" fill-rule="evenodd"/><path d="M275.899 49.9344 298.576 49.9344 298.576 72.6115 275.899 72.6115Z" fill="#E9C46A" fill-rule="evenodd"/><path d="M298.576 49.9344 321.254 49.9344 321.254 72.6115 298.576 72.6115Z" fill="#E9C46A" fill-rule="evenodd"/><path d="M321.254 49.9344 343.931 49.9344 343.931 72.6115 321.254 72.6115Z" fill="#E9C46A" fill-rule="evenodd"/><path d="M343.931 49.9344 548.025 49.9344 548.025 72.6115 343.931 72.6115Z" fill="#FFFFFF" fill-rule="evenodd"/><path d="M94.4819 72.6115 117.159 72.6115 117.159 95.2887 94.4819 95.2887Z" fill="#E9C46A" fill-rule="evenodd"/><path d="M117.159 72.6115 139.836 72.6115 139.836 95.2887 117.159 95.2887Z" fill="#E9C46A" fill-rule="evenodd"/><path d="M139.836 72.6115 162.513 72.6115 162.513 95.2887 139.836 95.2887Z" fill="#E9C46A" fill-rule="evenodd"/><path d="M162.513 72.6115 185.191 72.6115 185.191 95.2887 162.513 95.2887Z" fill="#E9C46A" fill-rule="evenodd"/><path d="M185.191 72.6115 207.868 72.6115 207.868 95.2887 185.191 95.2887Z" fill="#E9C46A" fill-rule="evenodd"/><path d="M207.868 72.6115 230.545 72.6115 230.545 95.2887 207.868 95.2887Z" fill="#E9C46A" fill-rule="evenodd"/><path d="M230.545 72.6115 253.222 72.6115 253.222 95.2887 230.545 95.2887Z" fill="#E9C46A" fill-rule="evenodd"/><path d="M253.222 72.6115 275.899 72.6115 275.899 95.2887 253.222 95.2887Z" fill="#E9C46A" fill-rule="evenodd"/><path d="M275.899 72.6115 298.576 72.6115 298.576 95.2887 275.899 95.2887Z" fill="#E9C46A" fill-rule="evenodd"/><path d="M298.576 72.6115 321.254 72.6115 321.254 95.2887 298.576 95.2887Z" fill="#E9C46A" fill-rule="evenodd"/><path d="M321.254 72.6115 343.931 72.6115 343.931 95.2887 321.254 95.2887Z" fill="#E9C46A" fill-rule="evenodd"/><path d="M343.931 72.6115 366.608 72.6115 366.608 95.2887 343.931 95.2887Z" fill="#E9C46A" fill-rule="evenodd"/><path d="M366.608 72.6115 389.285 72.6115 389.285 95.2887 366.608 95.2887Z" fill="#E9C46A" fill-rule="evenodd"/><path d="M389.285 72.6115 411.962 72.6115 411.962 95.2887 389.285 95.2887Z" fill="#E9C46A" fill-rule="evenodd"/><path d="M411.962 72.6115 434.639 72.6115 434.639 95.2887 411.962 95.2887Z" fill="#E9C46A" fill-rule="evenodd"/><path d="M434.639 72.6115 457.317 72.6115 457.317 95.2887 434.639 95.2887Z" fill="#E9C46A" fill-rule="evenodd"/><path d="M457.317 72.6115 479.994 72.6115 479.994 95.2887 457.317 95.2887Z" fill="#E9C46A" fill-rule="evenodd"/><path d="M479.994 72.6115 502.671 72.6115 502.671 95.2887 479.994 95.2887Z" fill="#E9C46A" fill-rule="evenodd"/><path d="M502.671 72.6115 525.348 72.6115 525.348 95.2887 502.671 95.2887Z" fill="#E9C46A" fill-rule="evenodd"/><path d="M525.348 72.6115 548.025 72.6115 548.025 95.2887 525.348 95.2887Z" fill="#E9C46A" fill-rule="evenodd"/><path d="M94.4819 95.2887 117.159 95.2887 117.159 117.966 94.4819 117.966Z" fill="#E9C46A" fill-rule="evenodd"/><path d="M117.159 95.2887 139.836 95.2887 139.836 117.966 117.159 117.966Z" fill="#E9C46A" fill-rule="evenodd"/><path d="M139.836 95.2887 162.513 95.2887 162.513 117.966 139.836 117.966Z" fill="#E9C46A" fill-rule="evenodd"/><path d="M162.513 95.2887 185.191 95.2887 185.191 117.966 162.513 117.966Z" fill="#E9C46A" fill-rule="evenodd"/><path d="M185.191 95.2887 207.868 95.2887 207.868 117.966 185.191 117.966Z" fill="#E9C46A" fill-rule="evenodd"/><path d="M207.868 95.2887 230.545 95.2887 230.545 117.966 207.868 117.966Z" fill="#E9C46A" fill-rule="evenodd"/><path d="M230.545 95.2887 253.222 95.2887 253.222 117.966 230.545 117.966Z" fill="#E9C46A" fill-rule="evenodd"/><path d="M253.222 95.2887 275.899 95.2887 275.899 117.966 253.222 117.966Z" fill="#E9C46A" fill-rule="evenodd"/><path d="M275.899 95.2887 298.576 95.2887 298.576 117.966 275.899 117.966Z" fill="#E9C46A" fill-rule="evenodd"/><path d="M298.576 95.2887 321.254 95.2887 321.254 117.966 298.576 117.966Z" fill="#E9C46A" fill-rule="evenodd"/><path d="M321.254 95.2887 343.931 95.2887 343.931 117.966 321.254 117.966Z" fill="#E9C46A" fill-rule="evenodd"/><path d="M343.931 95.2887 366.608 95.2887 366.608 117.966 343.931 117.966Z" fill="#E9C46A" fill-rule="evenodd"/><path d="M366.608 95.2887 389.285 95.2887 389.285 117.966 366.608 117.966Z" fill="#E9C46A" fill-rule="evenodd"/><path d="M389.285 95.2887 411.962 95.2887 411.962 117.966 389.285 117.966Z" fill="#E9C46A" fill-rule="evenodd"/><path d="M411.962 95.2887 434.639 95.2887 434.639 117.966 411.962 117.966Z" fill="#E9C46A" fill-rule="evenodd"/><path d="M434.639 95.2887 457.317 95.2887 457.317 117.966 434.639 117.966Z" fill="#E9C46A" fill-rule="evenodd"/><path d="M457.317 95.2887 479.994 95.2887 479.994 117.966 457.317 117.966Z" fill="#E9C46A" fill-rule="evenodd"/><path d="M479.994 95.2887 502.671 95.2887 502.671 117.966 479.994 117.966Z" fill="#E9C46A" fill-rule="evenodd"/><path d="M502.671 95.2887 525.348 95.2887 525.348 117.966 502.671 117.966Z" fill="#E9C46A" fill-rule="evenodd"/><path d="M525.348 95.2887 548.025 95.2887 548.025 117.966 525.348 117.966Z" fill="#E9C46A" fill-rule="evenodd"/><path d="M94.4819 117.966 117.159 117.966 117.159 140.643 94.4819 140.643Z" fill="#E9C46A" fill-rule="evenodd"/><path d="M117.159 117.966 139.836 117.966 139.836 140.643 117.159 140.643Z" fill="#E9C46A" fill-rule="evenodd"/><path d="M139.836 117.966 162.513 117.966 162.513 140.643 139.836 140.643Z" fill="#E9C46A" fill-rule="evenodd"/><path d="M162.513 117.966 185.191 117.966 185.191 140.643 162.513 140.643Z" fill="#E9C46A" fill-rule="evenodd"/><path d="M185.191 117.966 207.868 117.966 207.868 140.643 185.191 140.643Z" fill="#E9C46A" fill-rule="evenodd"/><path d="M207.868 117.966 230.545 117.966 230.545 140.643 207.868 140.643Z" fill="#E9C46A" fill-rule="evenodd"/><path d="M230.545 117.966 253.222 117.966 253.222 140.643 230.545 140.643Z" fill="#E9C46A" fill-rule="evenodd"/><path d="M253.222 117.966 275.899 117.966 275.899 140.643 253.222 140.643Z" fill="#E9C46A" fill-rule="evenodd"/><path d="M275.899 117.966 298.576 117.966 298.576 140.643 275.899 140.643Z" fill="#E9C46A" fill-rule="evenodd"/><path d="M298.576 117.966 321.254 117.966 321.254 140.643 298.576 140.643Z" fill="#E9C46A" fill-rule="evenodd"/><path d="M321.254 117.966 343.931 117.966 343.931 140.643 321.254 140.643Z" fill="#E9C46A" fill-rule="evenodd"/><path d="M343.931 117.966 366.608 117.966 366.608 140.643 343.931 140.643Z" fill="#E9C46A" fill-rule="evenodd"/><path d="M366.608 117.966 389.285 117.966 389.285 140.643 366.608 140.643Z" fill="#E9C46A" fill-rule="evenodd"/><path d="M389.285 117.966 411.962 117.966 411.962 140.643 389.285 140.643Z" fill="#E9C46A" fill-rule="evenodd"/><path d="M411.962 117.966 434.639 117.966 434.639 140.643 411.962 140.643Z" fill="#E9C46A" fill-rule="evenodd"/><path d="M434.639 117.966 457.317 117.966 457.317 140.643 434.639 140.643Z" fill="#E9C46A" fill-rule="evenodd"/><path d="M457.317 117.966 479.994 117.966 479.994 140.643 457.317 140.643Z" fill="#E9C46A" fill-rule="evenodd"/><path d="M479.994 117.966 502.671 117.966 502.671 140.643 479.994 140.643Z" fill="#E9C46A" fill-rule="evenodd"/><path d="M502.671 117.966 525.348 117.966 525.348 140.643 502.671 140.643Z" fill="#E9C46A" fill-rule="evenodd"/><path d="M525.348 117.966 548.025 117.966 548.025 140.643 525.348 140.643Z" fill="#E9C46A" fill-rule="evenodd"/><path d="M94.4819 140.643 117.159 140.643 117.159 163.32 94.4819 163.32Z" fill="#E9C46A" fill-rule="evenodd"/><path d="M117.159 140.643 139.836 140.643 139.836 163.32 117.159 163.32Z" fill="#E9C46A" fill-rule="evenodd"/><path d="M139.836 140.643 162.513 140.643 162.513 163.32 139.836 163.32Z" fill="#E9C46A" fill-rule="evenodd"/><path d="M162.513 140.643 185.191 140.643 185.191 163.32 162.513 163.32Z" fill="#E9C46A" fill-rule="evenodd"/><path d="M185.191 140.643 207.868 140.643 207.868 163.32 185.191 163.32Z" fill="#E9C46A" fill-rule="evenodd"/><path d="M207.868 140.643 230.545 140.643 230.545 163.32 207.868 163.32Z" fill="#E9C46A" fill-rule="evenodd"/><path d="M230.545 140.643 253.222 140.643 253.222 163.32 230.545 163.32Z" fill="#E9C46A" fill-rule="evenodd"/><path d="M253.222 140.643 275.899 140.643 275.899 163.32 253.222 163.32Z" fill="#E9C46A" fill-rule="evenodd"/><path d="M275.899 140.643 298.576 140.643 298.576 163.32 275.899 163.32Z" fill="#E9C46A" fill-rule="evenodd"/><path d="M298.576 140.643 321.254 140.643 321.254 163.32 298.576 163.32Z" fill="#E9C46A" fill-rule="evenodd"/><path d="M321.254 140.643 343.931 140.643 343.931 163.32 321.254 163.32Z" fill="#E9C46A" fill-rule="evenodd"/><path d="M343.931 140.643 366.608 140.643 366.608 163.32 343.931 163.32Z" fill="#E9C46A" fill-rule="evenodd"/><path d="M366.608 140.643 389.285 140.643 389.285 163.32 366.608 163.32Z" fill="#E9C46A" fill-rule="evenodd"/><path d="M389.285 140.643 411.962 140.643 411.962 163.32 389.285 163.32Z" fill="#E9C46A" fill-rule="evenodd"/><path d="M411.962 140.643 434.639 140.643 434.639 163.32 411.962 163.32Z" fill="#E9C46A" fill-rule="evenodd"/><path d="M434.639 140.643 457.317 140.643 457.317 163.32 434.639 163.32Z" fill="#E9C46A" fill-rule="evenodd"/><path d="M457.317 140.643 479.994 140.643 479.994 163.32 457.317 163.32Z" fill="#E9C46A" fill-rule="evenodd"/><path d="M479.994 140.643 502.671 140.643 502.671 163.32 479.994 163.32Z" fill="#E9C46A" fill-rule="evenodd"/><path d="M502.671 140.643 525.348 140.643 525.348 163.32 502.671 163.32Z" fill="#E9C46A" fill-rule="evenodd"/><path d="M525.348 140.643 548.025 140.643 548.025 163.32 525.348 163.32Z" fill="#E9C46A" fill-rule="evenodd"/><path d="M94.4819 163.32 117.159 163.32 117.159 185.997 94.4819 185.997Z" fill="#E9C46A" fill-rule="evenodd"/><path d="M117.159 163.32 139.836 163.32 139.836 185.997 117.159 185.997Z" fill="#E9C46A" fill-rule="evenodd"/><path d="M139.836 163.32 162.513 163.32 162.513 185.997 139.836 185.997Z" fill="#E9C46A" fill-rule="evenodd"/><path d="M162.513 163.32 185.191 163.32 185.191 185.997 162.513 185.997Z" fill="#E9C46A" fill-rule="evenodd"/><path d="M185.191 163.32 207.868 163.32 207.868 185.997 185.191 185.997Z" fill="#E9C46A" fill-rule="evenodd"/><path d="M207.868 163.32 230.545 163.32 230.545 185.997 207.868 185.997Z" fill="#E9C46A" fill-rule="evenodd"/><path d="M230.545 163.32 253.222 163.32 253.222 185.997 230.545 185.997Z" fill="#E9C46A" fill-rule="evenodd"/><path d="M253.222 163.32 275.899 163.32 275.899 185.997 253.222 185.997Z" fill="#E9C46A" fill-rule="evenodd"/><path d="M275.899 163.32 298.576 163.32 298.576 185.997 275.899 185.997Z" fill="#E9C46A" fill-rule="evenodd"/><path d="M298.576 163.32 321.254 163.32 321.254 185.997 298.576 185.997Z" fill="#E9C46A" fill-rule="evenodd"/><path d="M321.254 163.32 343.931 163.32 343.931 185.997 321.254 185.997Z" fill="#E9C46A" fill-rule="evenodd"/><path d="M343.931 163.32 366.608 163.32 366.608 185.997 343.931 185.997Z" fill="#E9C46A" fill-rule="evenodd"/><path d="M366.608 163.32 389.285 163.32 389.285 185.997 366.608 185.997Z" fill="#E9C46A" fill-rule="evenodd"/><path d="M389.285 163.32 411.962 163.32 411.962 185.997 389.285 185.997Z" fill="#E9C46A" fill-rule="evenodd"/><path d="M411.962 163.32 434.639 163.32 434.639 185.997 411.962 185.997Z" fill="#E9C46A" fill-rule="evenodd"/><path d="M434.639 163.32 457.317 163.32 457.317 185.997 434.639 185.997Z" fill="#E9C46A" fill-rule="evenodd"/><path d="M457.317 163.32 479.994 163.32 479.994 185.997 457.317 185.997Z" fill="#E9C46A" fill-rule="evenodd"/><path d="M479.994 163.32 502.671 163.32 502.671 185.997 479.994 185.997Z" fill="#E9C46A" fill-rule="evenodd"/><path d="M502.671 163.32 525.348 163.32 525.348 185.997 502.671 185.997Z" fill="#E9C46A" fill-rule="evenodd"/><path d="M525.348 163.32 548.025 163.32 548.025 185.997 525.348 185.997Z" fill="#E9C46A" fill-rule="evenodd"/><path d="M94.4819 185.997 117.159 185.997 117.159 208.675 94.4819 208.675Z" fill="#E9C46A" fill-rule="evenodd"/><path d="M117.159 185.997 139.836 185.997 139.836 208.675 117.159 208.675Z" fill="#E9C46A" fill-rule="evenodd"/><path d="M139.836 185.997 162.513 185.997 162.513 208.675 139.836 208.675Z" fill="#E9C46A" fill-rule="evenodd"/><path d="M162.513 185.997 185.191 185.997 185.191 208.675 162.513 208.675Z" fill="#E9C46A" fill-rule="evenodd"/><path d="M185.191 185.997 207.868 185.997 207.868 208.675 185.191 208.675Z" fill="#E9C46A" fill-rule="evenodd"/><path d="M207.868 185.997 230.545 185.997 230.545 208.675 207.868 208.675Z" fill="#E9C46A" fill-rule="evenodd"/><path d="M230.545 185.997 253.222 185.997 253.222 208.675 230.545 208.675Z" fill="#E9C46A" fill-rule="evenodd"/><path d="M253.222 185.997 275.899 185.997 275.899 208.675 253.222 208.675Z" fill="#E9C46A" fill-rule="evenodd"/><path d="M275.899 185.997 298.576 185.997 298.576 208.675 275.899 208.675Z" fill="#E9C46A" fill-rule="evenodd"/><path d="M298.576 185.997 321.254 185.997 321.254 208.675 298.576 208.675Z" fill="#E9C46A" fill-rule="evenodd"/><path d="M321.254 185.997 343.931 185.997 343.931 208.675 321.254 208.675Z" fill="#E9C46A" fill-rule="evenodd"/><path d="M343.931 185.997 366.608 185.997 366.608 208.675 343.931 208.675Z" fill="#E9C46A" fill-rule="evenodd"/><path d="M366.608 185.997 389.285 185.997 389.285 208.675 366.608 208.675Z" fill="#E9C46A" fill-rule="evenodd"/><path d="M389.285 185.997 411.962 185.997 411.962 208.675 389.285 208.675Z" fill="#E9C46A" fill-rule="evenodd"/><path d="M411.962 185.997 434.639 185.997 434.639 208.675 411.962 208.675Z" fill="#E9C46A" fill-rule="evenodd"/><path d="M434.639 185.997 457.317 185.997 457.317 208.675 434.639 208.675Z" fill="#E9C46A" fill-rule="evenodd"/><path d="M457.317 185.997 479.994 185.997 479.994 208.675 457.317 208.675Z" fill="#E9C46A" fill-rule="evenodd"/><path d="M479.994 185.997 502.671 185.997 502.671 208.675 479.994 208.675Z" fill="#E9C46A" fill-rule="evenodd"/><path d="M502.671 185.997 525.348 185.997 525.348 208.675 502.671 208.675Z" fill="#E9C46A" fill-rule="evenodd"/><path d="M525.348 185.997 548.025 185.997 548.025 208.675 525.348 208.675Z" fill="#E9C46A" fill-rule="evenodd"/><path d="M94.4819 208.675 117.159 208.675 117.159 231.352 94.4819 231.352Z" fill="#E9C46A" fill-rule="evenodd"/><path d="M117.159 208.675 139.836 208.675 139.836 231.352 117.159 231.352Z" fill="#E9C46A" fill-rule="evenodd"/><path d="M139.836 208.675 162.513 208.675 162.513 231.352 139.836 231.352Z" fill="#E9C46A" fill-rule="evenodd"/><path d="M162.513 208.675 185.191 208.675 185.191 231.352 162.513 231.352Z" fill="#E9C46A" fill-rule="evenodd"/><path d="M185.191 208.675 207.868 208.675 207.868 231.352 185.191 231.352Z" fill="#E9C46A" fill-rule="evenodd"/><path d="M207.868 208.675 230.545 208.675 230.545 231.352 207.868 231.352Z" fill="#E9C46A" fill-rule="evenodd"/><path d="M230.545 208.675 253.222 208.675 253.222 231.352 230.545 231.352Z" fill="#E9C46A" fill-rule="evenodd"/><path d="M253.222 208.675 275.899 208.675 275.899 231.352 253.222 231.352Z" fill="#E9C46A" fill-rule="evenodd"/><path d="M275.899 208.675 298.576 208.675 298.576 231.352 275.899 231.352Z" fill="#E9C46A" fill-rule="evenodd"/><path d="M298.576 208.675 321.254 208.675 321.254 231.352 298.576 231.352Z" fill="#E9C46A" fill-rule="evenodd"/><path d="M321.254 208.675 343.931 208.675 343.931 231.352 321.254 231.352Z" fill="#E9C46A" fill-rule="evenodd"/><path d="M343.931 208.675 366.608 208.675 366.608 231.352 343.931 231.352Z" fill="#E9C46A" fill-rule="evenodd"/><path d="M366.608 208.675 389.285 208.675 389.285 231.352 366.608 231.352Z" fill="#E9C46A" fill-rule="evenodd"/><path d="M389.285 208.675 411.962 208.675 411.962 231.352 389.285 231.352Z" fill="#E9C46A" fill-rule="evenodd"/><path d="M411.962 208.675 434.639 208.675 434.639 231.352 411.962 231.352Z" fill="#E9C46A" fill-rule="evenodd"/><path d="M434.639 208.675 457.317 208.675 457.317 231.352 434.639 231.352Z" fill="#E9C46A" fill-rule="evenodd"/><path d="M457.317 208.675 479.994 208.675 479.994 231.352 457.317 231.352Z" fill="#E9C46A" fill-rule="evenodd"/><path d="M479.994 208.675 502.671 208.675 502.671 231.352 479.994 231.352Z" fill="#E9C46A" fill-rule="evenodd"/><path d="M502.671 208.675 525.348 208.675 525.348 231.352 502.671 231.352Z" fill="#E9C46A" fill-rule="evenodd"/><path d="M525.348 208.675 548.025 208.675 548.025 231.352 525.348 231.352Z" fill="#E9C46A" fill-rule="evenodd"/><path d="M94.4819 231.352 117.159 231.352 117.159 254.029 94.4819 254.029Z" fill="#E9C46A" fill-rule="evenodd"/><path d="M117.159 231.352 139.836 231.352 139.836 254.029 117.159 254.029Z" fill="#E9C46A" fill-rule="evenodd"/><path d="M139.836 231.352 162.513 231.352 162.513 254.029 139.836 254.029Z" fill="#E9C46A" fill-rule="evenodd"/><path d="M162.513 231.352 185.191 231.352 185.191 254.029 162.513 254.029Z" fill="#E9C46A" fill-rule="evenodd"/><path d="M185.191 231.352 207.868 231.352 207.868 254.029 185.191 254.029Z" fill="#E9C46A" fill-rule="evenodd"/><path d="M207.868 231.352 230.545 231.352 230.545 254.029 207.868 254.029Z" fill="#E9C46A" fill-rule="evenodd"/><path d="M230.545 231.352 253.222 231.352 253.222 254.029 230.545 254.029Z" fill="#E9C46A" fill-rule="evenodd"/><path d="M253.222 231.352 275.899 231.352 275.899 254.029 253.222 254.029Z" fill="#E9C46A" fill-rule="evenodd"/><path d="M275.899 231.352 298.576 231.352 298.576 254.029 275.899 254.029Z" fill="#E9C46A" fill-rule="evenodd"/><path d="M298.576 231.352 321.254 231.352 321.254 254.029 298.576 254.029Z" fill="#E9C46A" fill-rule="evenodd"/><path d="M321.254 231.352 343.931 231.352 343.931 254.029 321.254 254.029Z" fill="#E9C46A" fill-rule="evenodd"/><path d="M343.931 231.352 366.608 231.352 366.608 254.029 343.931 254.029Z" fill="#E9C46A" fill-rule="evenodd"/><path d="M366.608 231.352 389.285 231.352 389.285 254.029 366.608 254.029Z" fill="#E9C46A" fill-rule="evenodd"/><path d="M389.285 231.352 411.962 231.352 411.962 254.029 389.285 254.029Z" fill="#E9C46A" fill-rule="evenodd"/><path d="M411.962 231.352 434.639 231.352 434.639 254.029 411.962 254.029Z" fill="#E9C46A" fill-rule="evenodd"/><path d="M434.639 231.352 457.317 231.352 457.317 254.029 434.639 254.029Z" fill="#E9C46A" fill-rule="evenodd"/><path d="M457.317 231.352 479.994 231.352 479.994 254.029 457.317 254.029Z" fill="#E9C46A" fill-rule="evenodd"/><path d="M479.994 231.352 502.671 231.352 502.671 254.029 479.994 254.029Z" fill="#E9C46A" fill-rule="evenodd"/><path d="M502.671 231.352 525.348 231.352 525.348 254.029 502.671 254.029Z" fill="#E9C46A" fill-rule="evenodd"/><path d="M525.348 231.352 548.025 231.352 548.025 254.029 525.348 254.029Z" fill="#E9C46A" fill-rule="evenodd"/><path d="M94.4819 254.029 117.159 254.029 117.159 276.706 94.4819 276.706Z" fill="#E9C46A" fill-rule="evenodd"/><path d="M117.159 254.029 139.836 254.029 139.836 276.706 117.159 276.706Z" fill="#E9C46A" fill-rule="evenodd"/><path d="M139.836 254.029 162.513 254.029 162.513 276.706 139.836 276.706Z" fill="#E9C46A" fill-rule="evenodd"/><path d="M162.513 254.029 185.191 254.029 185.191 276.706 162.513 276.706Z" fill="#E9C46A" fill-rule="evenodd"/><path d="M185.191 254.029 207.868 254.029 207.868 276.706 185.191 276.706Z" fill="#E9C46A" fill-rule="evenodd"/><path d="M207.868 254.029 230.545 254.029 230.545 276.706 207.868 276.706Z" fill="#E9C46A" fill-rule="evenodd"/><path d="M230.545 254.029 253.222 254.029 253.222 276.706 230.545 276.706Z" fill="#E9C46A" fill-rule="evenodd"/><path d="M253.222 254.029 275.899 254.029 275.899 276.706 253.222 276.706Z" fill="#E9C46A" fill-rule="evenodd"/><path d="M275.899 254.029 298.576 254.029 298.576 276.706 275.899 276.706Z" fill="#E9C46A" fill-rule="evenodd"/><path d="M298.576 254.029 321.254 254.029 321.254 276.706 298.576 276.706Z" fill="#E9C46A" fill-rule="evenodd"/><path d="M321.254 254.029 343.931 254.029 343.931 276.706 321.254 276.706Z" fill="#E9C46A" fill-rule="evenodd"/><path d="M343.931 254.029 366.608 254.029 366.608 276.706 343.931 276.706Z" fill="#E9C46A" fill-rule="evenodd"/><path d="M366.608 254.029 389.285 254.029 389.285 276.706 366.608 276.706Z" fill="#E9C46A" fill-rule="evenodd"/><path d="M389.285 254.029 411.962 254.029 411.962 276.706 389.285 276.706Z" fill="#E9C46A" fill-rule="evenodd"/><path d="M411.962 254.029 434.639 254.029 434.639 276.706 411.962 276.706Z" fill="#E9C46A" fill-rule="evenodd"/><path d="M434.639 254.029 457.317 254.029 457.317 276.706 434.639 276.706Z" fill="#E9C46A" fill-rule="evenodd"/><path d="M457.317 254.029 479.994 254.029 479.994 276.706 457.317 276.706Z" fill="#E9C46A" fill-rule="evenodd"/><path d="M479.994 254.029 502.671 254.029 502.671 276.706 479.994 276.706Z" fill="#E9C46A" fill-rule="evenodd"/><path d="M502.671 254.029 525.348 254.029 525.348 276.706 502.671 276.706Z" fill="#E9C46A" fill-rule="evenodd"/><path d="M525.348 254.029 548.025 254.029 548.025 276.706 525.348 276.706Z" fill="#E9C46A" fill-rule="evenodd"/><path d="M94.4819 276.706 117.159 276.706 117.159 299.383 94.4819 299.383Z" fill="#E9C46A" fill-rule="evenodd"/><path d="M117.159 276.706 139.836 276.706 139.836 299.383 117.159 299.383Z" fill="#E9C46A" fill-rule="evenodd"/><path d="M139.836 276.706 162.513 276.706 162.513 299.383 139.836 299.383Z" fill="#E9C46A" fill-rule="evenodd"/><path d="M162.513 276.706 185.191 276.706 185.191 299.383 162.513 299.383Z" fill="#E9C46A" fill-rule="evenodd"/><path d="M185.191 276.706 207.868 276.706 207.868 299.383 185.191 299.383Z" fill="#E9C46A" fill-rule="evenodd"/><path d="M207.868 276.706 230.545 276.706 230.545 299.383 207.868 299.383Z" fill="#E9C46A" fill-rule="evenodd"/><path d="M230.545 276.706 253.222 276.706 253.222 299.383 230.545 299.383Z" fill="#E9C46A" fill-rule="evenodd"/><path d="M253.222 276.706 275.899 276.706 275.899 299.383 253.222 299.383Z" fill="#E9C46A" fill-rule="evenodd"/><path d="M275.899 276.706 298.576 276.706 298.576 299.383 275.899 299.383Z" fill="#E9C46A" fill-rule="evenodd"/><path d="M298.576 276.706 321.254 276.706 321.254 299.383 298.576 299.383Z" fill="#E9C46A" fill-rule="evenodd"/><path d="M321.254 276.706 343.931 276.706 343.931 299.383 321.254 299.383Z" fill="#E9C46A" fill-rule="evenodd"/><path d="M343.931 276.706 366.608 276.706 366.608 299.383 343.931 299.383Z" fill="#E9C46A" fill-rule="evenodd"/><path d="M366.608 276.706 389.285 276.706 389.285 299.383 366.608 299.383Z" fill="#E9C46A" fill-rule="evenodd"/><path d="M389.285 276.706 411.962 276.706 411.962 299.383 389.285 299.383Z" fill="#E9C46A" fill-rule="evenodd"/><path d="M411.962 276.706 434.639 276.706 434.639 299.383 411.962 299.383Z" fill="#E9C46A" fill-rule="evenodd"/><path d="M434.639 276.706 457.317 276.706 457.317 299.383 434.639 299.383Z" fill="#E9C46A" fill-rule="evenodd"/><path d="M457.317 276.706 479.994 276.706 479.994 299.383 457.317 299.383Z" fill="#E9C46A" fill-rule="evenodd"/><path d="M479.994 276.706 502.671 276.706 502.671 299.383 479.994 299.383Z" fill="#E9C46A" fill-rule="evenodd"/><path d="M502.671 276.706 525.348 276.706 525.348 299.383 502.671 299.383Z" fill="#E9C46A" fill-rule="evenodd"/><path d="M525.348 276.706 548.025 276.706 548.025 299.383 525.348 299.383Z" fill="#E9C46A" fill-rule="evenodd"/><path d="M94.4819 299.383 117.159 299.383 117.159 322.06 94.4819 322.06Z" fill="#E9C46A" fill-rule="evenodd"/><path d="M117.159 299.383 139.836 299.383 139.836 322.06 117.159 322.06Z" fill="#E9C46A" fill-rule="evenodd"/><path d="M139.836 299.383 162.513 299.383 162.513 322.06 139.836 322.06Z" fill="#E9C46A" fill-rule="evenodd"/><path d="M162.513 299.383 185.191 299.383 185.191 322.06 162.513 322.06Z" fill="#E9C46A" fill-rule="evenodd"/><path d="M185.191 299.383 207.868 299.383 207.868 322.06 185.191 322.06Z" fill="#E9C46A" fill-rule="evenodd"/><path d="M207.868 299.383 230.545 299.383 230.545 322.06 207.868 322.06Z" fill="#E9C46A" fill-rule="evenodd"/><path d="M230.545 299.383 253.222 299.383 253.222 322.06 230.545 322.06Z" fill="#E9C46A" fill-rule="evenodd"/><path d="M253.222 299.383 275.899 299.383 275.899 322.06 253.222 322.06Z" fill="#E9C46A" fill-rule="evenodd"/><path d="M275.899 299.383 298.576 299.383 298.576 322.06 275.899 322.06Z" fill="#E9C46A" fill-rule="evenodd"/><path d="M298.576 299.383 321.254 299.383 321.254 322.06 298.576 322.06Z" fill="#E9C46A" fill-rule="evenodd"/><path d="M321.254 299.383 343.931 299.383 343.931 322.06 321.254 322.06Z" fill="#E9C46A" fill-rule="evenodd"/><path d="M343.931 299.383 366.608 299.383 366.608 322.06 343.931 322.06Z" fill="#E9C46A" fill-rule="evenodd"/><path d="M366.608 299.383 389.285 299.383 389.285 322.06 366.608 322.06Z" fill="#E9C46A" fill-rule="evenodd"/><path d="M389.285 299.383 411.962 299.383 411.962 322.06 389.285 322.06Z" fill="#E9C46A" fill-rule="evenodd"/><path d="M411.962 299.383 434.639 299.383 434.639 322.06 411.962 322.06Z" fill="#E9C46A" fill-rule="evenodd"/><path d="M434.639 299.383 457.317 299.383 457.317 322.06 434.639 322.06Z" fill="#E9C46A" fill-rule="evenodd"/><path d="M457.317 299.383 479.994 299.383 479.994 322.06 457.317 322.06Z" fill="#E9C46A" fill-rule="evenodd"/><path d="M479.994 299.383 502.671 299.383 502.671 322.06 479.994 322.06Z" fill="#E9C46A" fill-rule="evenodd"/><path d="M502.671 299.383 525.348 299.383 525.348 322.06 502.671 322.06Z" fill="#E9C46A" fill-rule="evenodd"/><path d="M525.348 299.383 548.025 299.383 548.025 322.06 525.348 322.06Z" fill="#E9C46A" fill-rule="evenodd"/><path d="M94.4819 322.06 117.159 322.06 117.159 344.738 94.4819 344.738Z" fill="#E9C46A" fill-rule="evenodd"/><path d="M117.159 322.06 139.836 322.06 139.836 344.738 117.159 344.738Z" fill="#E9C46A" fill-rule="evenodd"/><path d="M139.836 322.06 162.513 322.06 162.513 344.738 139.836 344.738Z" fill="#E9C46A" fill-rule="evenodd"/><path d="M162.513 322.06 185.191 322.06 185.191 344.738 162.513 344.738Z" fill="#E9C46A" fill-rule="evenodd"/><path d="M185.191 322.06 207.868 322.06 207.868 344.738 185.191 344.738Z" fill="#E9C46A" fill-rule="evenodd"/><path d="M207.868 322.06 230.545 322.06 230.545 344.738 207.868 344.738Z" fill="#E9C46A" fill-rule="evenodd"/><path d="M230.545 322.06 253.222 322.06 253.222 344.738 230.545 344.738Z" fill="#E9C46A" fill-rule="evenodd"/><path d="M253.222 322.06 275.899 322.06 275.899 344.738 253.222 344.738Z" fill="#E9C46A" fill-rule="evenodd"/><path d="M275.899 322.06 298.576 322.06 298.576 344.738 275.899 344.738Z" fill="#E9C46A" fill-rule="evenodd"/><path d="M298.576 322.06 321.254 322.06 321.254 344.738 298.576 344.738Z" fill="#E9C46A" fill-rule="evenodd"/><path d="M321.254 322.06 343.931 322.06 343.931 344.738 321.254 344.738Z" fill="#E9C46A" fill-rule="evenodd"/><path d="M343.931 322.06 366.608 322.06 366.608 344.738 343.931 344.738Z" fill="#E9C46A" fill-rule="evenodd"/><path d="M366.608 322.06 389.285 322.06 389.285 344.738 366.608 344.738Z" fill="#E9C46A" fill-rule="evenodd"/><path d="M389.285 322.06 411.962 322.06 411.962 344.738 389.285 344.738Z" fill="#E9C46A" fill-rule="evenodd"/><path d="M411.962 322.06 434.639 322.06 434.639 344.738 411.962 344.738Z" fill="#E9C46A" fill-rule="evenodd"/><path d="M434.639 322.06 457.317 322.06 457.317 344.738 434.639 344.738Z" fill="#E9C46A" fill-rule="evenodd"/><path d="M457.317 322.06 479.994 322.06 479.994 344.738 457.317 344.738Z" fill="#E9C46A" fill-rule="evenodd"/><path d="M479.994 322.06 502.671 322.06 502.671 344.738 479.994 344.738Z" fill="#E9C46A" fill-rule="evenodd"/><path d="M502.671 322.06 525.348 322.06 525.348 344.738 502.671 344.738Z" fill="#E9C46A" fill-rule="evenodd"/><path d="M525.348 322.06 548.025 322.06 548.025 344.738 525.348 344.738Z" fill="#E9C46A" fill-rule="evenodd"/><path d="M94.4819 344.738 117.159 344.738 117.159 367.415 94.4819 367.415Z" fill="#E9C46A" fill-rule="evenodd"/><path d="M117.159 344.738 139.836 344.738 139.836 367.415 117.159 367.415Z" fill="#E9C46A" fill-rule="evenodd"/><path d="M139.836 344.738 162.513 344.738 162.513 367.415 139.836 367.415Z" fill="#E9C46A" fill-rule="evenodd"/><path d="M162.513 344.738 185.191 344.738 185.191 367.415 162.513 367.415Z" fill="#E9C46A" fill-rule="evenodd"/><path d="M185.191 344.738 207.868 344.738 207.868 367.415 185.191 367.415Z" fill="#E9C46A" fill-rule="evenodd"/><path d="M207.868 344.738 230.545 344.738 230.545 367.415 207.868 367.415Z" fill="#E9C46A" fill-rule="evenodd"/><path d="M230.545 344.738 253.222 344.738 253.222 367.415 230.545 367.415Z" fill="#E9C46A" fill-rule="evenodd"/><path d="M253.222 344.738 275.899 344.738 275.899 367.415 253.222 367.415Z" fill="#E9C46A" fill-rule="evenodd"/><path d="M275.899 344.738 298.576 344.738 298.576 367.415 275.899 367.415Z" fill="#E9C46A" fill-rule="evenodd"/><path d="M298.576 344.738 321.254 344.738 321.254 367.415 298.576 367.415Z" fill="#E9C46A" fill-rule="evenodd"/><path d="M321.254 344.738 343.931 344.738 343.931 367.415 321.254 367.415Z" fill="#E9C46A" fill-rule="evenodd"/><path d="M343.931 344.738 366.608 344.738 366.608 367.415 343.931 367.415Z" fill="#E9C46A" fill-rule="evenodd"/><path d="M366.608 344.738 389.285 344.738 389.285 367.415 366.608 367.415Z" fill="#E9C46A" fill-rule="evenodd"/><path d="M389.285 344.738 411.962 344.738 411.962 367.415 389.285 367.415Z" fill="#E9C46A" fill-rule="evenodd"/><path d="M411.962 344.738 434.639 344.738 434.639 367.415 411.962 367.415Z" fill="#E9C46A" fill-rule="evenodd"/><path d="M434.639 344.738 457.317 344.738 457.317 367.415 434.639 367.415Z" fill="#E9C46A" fill-rule="evenodd"/><path d="M457.317 344.738 479.994 344.738 479.994 367.415 457.317 367.415Z" fill="#E9C46A" fill-rule="evenodd"/><path d="M479.994 344.738 502.671 344.738 502.671 367.415 479.994 367.415Z" fill="#E9C46A" fill-rule="evenodd"/><path d="M502.671 344.738 525.348 344.738 525.348 367.415 502.671 367.415Z" fill="#E9C46A" fill-rule="evenodd"/><path d="M525.348 344.738 548.025 344.738 548.025 367.415 525.348 367.415Z" fill="#E9C46A" fill-rule="evenodd"/><path d="M94.4819 367.415 117.159 367.415 117.159 390.092 94.4819 390.092Z" fill="#E9C46A" fill-rule="evenodd"/><path d="M117.159 367.415 139.836 367.415 139.836 390.092 117.159 390.092Z" fill="#E9C46A" fill-rule="evenodd"/><path d="M139.836 367.415 162.513 367.415 162.513 390.092 139.836 390.092Z" fill="#E9C46A" fill-rule="evenodd"/><path d="M162.513 367.415 185.191 367.415 185.191 390.092 162.513 390.092Z" fill="#E9C46A" fill-rule="evenodd"/><path d="M185.191 367.415 207.868 367.415 207.868 390.092 185.191 390.092Z" fill="#E9C46A" fill-rule="evenodd"/><path d="M207.868 367.415 230.545 367.415 230.545 390.092 207.868 390.092Z" fill="#E9C46A" fill-rule="evenodd"/><path d="M230.545 367.415 253.222 367.415 253.222 390.092 230.545 390.092Z" fill="#E9C46A" fill-rule="evenodd"/><path d="M253.222 367.415 275.899 367.415 275.899 390.092 253.222 390.092Z" fill="#E9C46A" fill-rule="evenodd"/><path d="M275.899 367.415 298.576 367.415 298.576 390.092 275.899 390.092Z" fill="#E9C46A" fill-rule="evenodd"/><path d="M298.576 367.415 321.254 367.415 321.254 390.092 298.576 390.092Z" fill="#E9C46A" fill-rule="evenodd"/><path d="M321.254 367.415 343.931 367.415 343.931 390.092 321.254 390.092Z" fill="#E9C46A" fill-rule="evenodd"/><path d="M343.931 367.415 366.608 367.415 366.608 390.092 343.931 390.092Z" fill="#E9C46A" fill-rule="evenodd"/><path d="M366.608 367.415 389.285 367.415 389.285 390.092 366.608 390.092Z" fill="#E9C46A" fill-rule="evenodd"/><path d="M389.285 367.415 411.962 367.415 411.962 390.092 389.285 390.092Z" fill="#E9C46A" fill-rule="evenodd"/><path d="M411.962 367.415 434.639 367.415 434.639 390.092 411.962 390.092Z" fill="#E9C46A" fill-rule="evenodd"/><path d="M434.639 367.415 457.317 367.415 457.317 390.092 434.639 390.092Z" fill="#E9C46A" fill-rule="evenodd"/><path d="M457.317 367.415 479.994 367.415 479.994 390.092 457.317 390.092Z" fill="#E9C46A" fill-rule="evenodd"/><path d="M479.994 367.415 502.671 367.415 502.671 390.092 479.994 390.092Z" fill="#E9C46A" fill-rule="evenodd"/><path d="M502.671 367.415 525.348 367.415 525.348 390.092 502.671 390.092Z" fill="#E9C46A" fill-rule="evenodd"/><path d="M525.348 367.415 548.025 367.415 548.025 390.092 525.348 390.092Z" fill="#E9C46A" fill-rule="evenodd"/><path d="M94.4819 390.092 117.159 390.092 117.159 412.769 94.4819 412.769Z" fill="#E9C46A" fill-rule="evenodd"/><path d="M117.159 390.092 139.836 390.092 139.836 412.769 117.159 412.769Z" fill="#E9C46A" fill-rule="evenodd"/><path d="M139.836 390.092 162.513 390.092 162.513 412.769 139.836 412.769Z" fill="#E9C46A" fill-rule="evenodd"/><path d="M162.513 390.092 185.191 390.092 185.191 412.769 162.513 412.769Z" fill="#E9C46A" fill-rule="evenodd"/><path d="M185.191 390.092 207.868 390.092 207.868 412.769 185.191 412.769Z" fill="#E9C46A" fill-rule="evenodd"/><path d="M207.868 390.092 230.545 390.092 230.545 412.769 207.868 412.769Z" fill="#E9C46A" fill-rule="evenodd"/><path d="M230.545 390.092 253.222 390.092 253.222 412.769 230.545 412.769Z" fill="#E9C46A" fill-rule="evenodd"/><path d="M253.222 390.092 275.899 390.092 275.899 412.769 253.222 412.769Z" fill="#E9C46A" fill-rule="evenodd"/><path d="M275.899 390.092 298.576 390.092 298.576 412.769 275.899 412.769Z" fill="#E9C46A" fill-rule="evenodd"/><path d="M298.576 390.092 321.254 390.092 321.254 412.769 298.576 412.769Z" fill="#E9C46A" fill-rule="evenodd"/><path d="M321.254 390.092 343.931 390.092 343.931 412.769 321.254 412.769Z" fill="#E9C46A" fill-rule="evenodd"/><path d="M343.931 390.092 366.608 390.092 366.608 412.769 343.931 412.769Z" fill="#E9C46A" fill-rule="evenodd"/><path d="M366.608 390.092 389.285 390.092 389.285 412.769 366.608 412.769Z" fill="#E9C46A" fill-rule="evenodd"/><path d="M389.285 390.092 411.962 390.092 411.962 412.769 389.285 412.769Z" fill="#E9C46A" fill-rule="evenodd"/><path d="M411.962 390.092 434.639 390.092 434.639 412.769 411.962 412.769Z" fill="#E9C46A" fill-rule="evenodd"/><path d="M434.639 390.092 457.317 390.092 457.317 412.769 434.639 412.769Z" fill="#E9C46A" fill-rule="evenodd"/><path d="M457.317 390.092 479.994 390.092 479.994 412.769 457.317 412.769Z" fill="#E9C46A" fill-rule="evenodd"/><path d="M479.994 390.092 502.671 390.092 502.671 412.769 479.994 412.769Z" fill="#E9C46A" fill-rule="evenodd"/><path d="M502.671 390.092 525.348 390.092 525.348 412.769 502.671 412.769Z" fill="#E9C46A" fill-rule="evenodd"/><path d="M525.348 390.092 548.025 390.092 548.025 412.769 525.348 412.769Z" fill="#E9C46A" fill-rule="evenodd"/><path d="M94.4819 412.769 117.159 412.769 117.159 435.446 94.4819 435.446Z" fill="#E9C46A" fill-rule="evenodd"/><path d="M117.159 412.769 139.836 412.769 139.836 435.446 117.159 435.446Z" fill="#E9C46A" fill-rule="evenodd"/><path d="M139.836 412.769 162.513 412.769 162.513 435.446 139.836 435.446Z" fill="#E9C46A" fill-rule="evenodd"/><path d="M162.513 412.769 185.191 412.769 185.191 435.446 162.513 435.446Z" fill="#E9C46A" fill-rule="evenodd"/><path d="M185.191 412.769 207.868 412.769 207.868 435.446 185.191 435.446Z" fill="#E9C46A" fill-rule="evenodd"/><path d="M207.868 412.769 230.545 412.769 230.545 435.446 207.868 435.446Z" fill="#E9C46A" fill-rule="evenodd"/><path d="M230.545 412.769 253.222 412.769 253.222 435.446 230.545 435.446Z" fill="#E9C46A" fill-rule="evenodd"/><path d="M253.222 412.769 275.899 412.769 275.899 435.446 253.222 435.446Z" fill="#E9C46A" fill-rule="evenodd"/><path d="M275.899 412.769 298.576 412.769 298.576 435.446 275.899 435.446Z" fill="#E9C46A" fill-rule="evenodd"/><path d="M298.576 412.769 321.254 412.769 321.254 435.446 298.576 435.446Z" fill="#E9C46A" fill-rule="evenodd"/><path d="M321.254 412.769 343.931 412.769 343.931 435.446 321.254 435.446Z" fill="#E9C46A" fill-rule="evenodd"/><path d="M343.931 412.769 366.608 412.769 366.608 435.446 343.931 435.446Z" fill="#E9C46A" fill-rule="evenodd"/><path d="M366.608 412.769 389.285 412.769 389.285 435.446 366.608 435.446Z" fill="#E9C46A" fill-rule="evenodd"/><path d="M389.285 412.769 411.962 412.769 411.962 435.446 389.285 435.446Z" fill="#E9C46A" fill-rule="evenodd"/><path d="M411.962 412.769 434.639 412.769 434.639 435.446 411.962 435.446Z" fill="#E9C46A" fill-rule="evenodd"/><path d="M434.639 412.769 457.317 412.769 457.317 435.446 434.639 435.446Z" fill="#E9C46A" fill-rule="evenodd"/><path d="M457.317 412.769 479.994 412.769 479.994 435.446 457.317 435.446Z" fill="#E9C46A" fill-rule="evenodd"/><path d="M479.994 412.769 502.671 412.769 502.671 435.446 479.994 435.446Z" fill="#E9C46A" fill-rule="evenodd"/><path d="M502.671 412.769 525.348 412.769 525.348 435.446 502.671 435.446Z" fill="#E9C46A" fill-rule="evenodd"/><path d="M525.348 412.769 548.025 412.769 548.025 435.446 525.348 435.446Z" fill="#E9C46A" fill-rule="evenodd"/><path d="M94.4819 435.446 117.159 435.446 117.159 458.123 94.4819 458.123Z" fill="#E9C46A" fill-rule="evenodd"/><path d="M117.159 435.446 139.836 435.446 139.836 458.123 117.159 458.123Z" fill="#E9C46A" fill-rule="evenodd"/><path d="M139.836 435.446 162.513 435.446 162.513 458.123 139.836 458.123Z" fill="#E9C46A" fill-rule="evenodd"/><path d="M162.513 435.446 185.191 435.446 185.191 458.123 162.513 458.123Z" fill="#E9C46A" fill-rule="evenodd"/><path d="M185.191 435.446 207.868 435.446 207.868 458.123 185.191 458.123Z" fill="#E9C46A" fill-rule="evenodd"/><path d="M207.868 435.446 230.545 435.446 230.545 458.123 207.868 458.123Z" fill="#E9C46A" fill-rule="evenodd"/><path d="M230.545 435.446 253.222 435.446 253.222 458.123 230.545 458.123Z" fill="#E9C46A" fill-rule="evenodd"/><path d="M253.222 435.446 275.899 435.446 275.899 458.123 253.222 458.123Z" fill="#E9C46A" fill-rule="evenodd"/><path d="M275.899 435.446 298.576 435.446 298.576 458.123 275.899 458.123Z" fill="#E9C46A" fill-rule="evenodd"/><path d="M298.576 435.446 321.254 435.446 321.254 458.123 298.576 458.123Z" fill="#E9C46A" fill-rule="evenodd"/><path d="M321.254 435.446 343.931 435.446 343.931 458.123 321.254 458.123Z" fill="#E9C46A" fill-rule="evenodd"/><path d="M343.931 435.446 366.608 435.446 366.608 458.123 343.931 458.123Z" fill="#E9C46A" fill-rule="evenodd"/><path d="M366.608 435.446 389.285 435.446 389.285 458.123 366.608 458.123Z" fill="#E9C46A" fill-rule="evenodd"/><path d="M389.285 435.446 411.962 435.446 411.962 458.123 389.285 458.123Z" fill="#E9C46A" fill-rule="evenodd"/><path d="M411.962 435.446 434.639 435.446 434.639 458.123 411.962 458.123Z" fill="#E9C46A" fill-rule="evenodd"/><path d="M434.639 435.446 457.317 435.446 457.317 458.123 434.639 458.123Z" fill="#E9C46A" fill-rule="evenodd"/><path d="M457.317 435.446 479.994 435.446 479.994 458.123 457.317 458.123Z" fill="#E9C46A" fill-rule="evenodd"/><path d="M479.994 435.446 502.671 435.446 502.671 458.123 479.994 458.123Z" fill="#E9C46A" fill-rule="evenodd"/><path d="M502.671 435.446 525.348 435.446 525.348 458.123 502.671 458.123Z" fill="#E9C46A" fill-rule="evenodd"/><path d="M525.348 435.446 548.025 435.446 548.025 458.123 525.348 458.123Z" fill="#E9C46A" fill-rule="evenodd"/><path d="M94.4819 458.123 117.159 458.123 117.159 480.801 94.4819 480.801Z" fill="#E9C46A" fill-rule="evenodd"/><path d="M117.159 458.123 139.836 458.123 139.836 480.801 117.159 480.801Z" fill="#E9C46A" fill-rule="evenodd"/><path d="M139.836 458.123 162.513 458.123 162.513 480.801 139.836 480.801Z" fill="#E9C46A" fill-rule="evenodd"/><path d="M162.513 458.123 185.191 458.123 185.191 480.801 162.513 480.801Z" fill="#E9C46A" fill-rule="evenodd"/><path d="M185.191 458.123 207.868 458.123 207.868 480.801 185.191 480.801Z" fill="#E9C46A" fill-rule="evenodd"/><path d="M207.868 458.123 230.545 458.123 230.545 480.801 207.868 480.801Z" fill="#E9C46A" fill-rule="evenodd"/><path d="M230.545 458.123 253.222 458.123 253.222 480.801 230.545 480.801Z" fill="#E9C46A" fill-rule="evenodd"/><path d="M253.222 458.123 275.899 458.123 275.899 480.801 253.222 480.801Z" fill="#E9C46A" fill-rule="evenodd"/><path d="M275.899 458.123 298.576 458.123 298.576 480.801 275.899 480.801Z" fill="#E9C46A" fill-rule="evenodd"/><path d="M298.576 458.123 321.254 458.123 321.254 480.801 298.576 480.801Z" fill="#E9C46A" fill-rule="evenodd"/><path d="M321.254 458.123 343.931 458.123 343.931 480.801 321.254 480.801Z" fill="#E9C46A" fill-rule="evenodd"/><path d="M343.931 458.123 366.608 458.123 366.608 480.801 343.931 480.801Z" fill="#E9C46A" fill-rule="evenodd"/><path d="M366.608 458.123 389.285 458.123 389.285 480.801 366.608 480.801Z" fill="#E9C46A" fill-rule="evenodd"/><path d="M389.285 458.123 411.962 458.123 411.962 480.801 389.285 480.801Z" fill="#E9C46A" fill-rule="evenodd"/><path d="M411.962 458.123 434.639 458.123 434.639 480.801 411.962 480.801Z" fill="#E9C46A" fill-rule="evenodd"/><path d="M434.639 458.123 457.317 458.123 457.317 480.801 434.639 480.801Z" fill="#E9C46A" fill-rule="evenodd"/><path d="M457.317 458.123 479.994 458.123 479.994 480.801 457.317 480.801Z" fill="#E9C46A" fill-rule="evenodd"/><path d="M479.994 458.123 502.671 458.123 502.671 480.801 479.994 480.801Z" fill="#E9C46A" fill-rule="evenodd"/><path d="M502.671 458.123 525.348 458.123 525.348 480.801 502.671 480.801Z" fill="#E9C46A" fill-rule="evenodd"/><path d="M525.348 458.123 548.025 458.123 548.025 480.801 525.348 480.801Z" fill="#E9C46A" fill-rule="evenodd"/><path d="M94.4819 480.801 117.159 480.801 117.159 503.478 94.4819 503.478Z" fill="#E9C46A" fill-rule="evenodd"/><path d="M117.159 480.801 139.836 480.801 139.836 503.478 117.159 503.478Z" fill="#E9C46A" fill-rule="evenodd"/><path d="M139.836 480.801 162.513 480.801 162.513 503.478 139.836 503.478Z" fill="#E9C46A" fill-rule="evenodd"/><path d="M162.513 480.801 185.191 480.801 185.191 503.478 162.513 503.478Z" fill="#E9C46A" fill-rule="evenodd"/><path d="M185.191 480.801 207.868 480.801 207.868 503.478 185.191 503.478Z" fill="#E9C46A" fill-rule="evenodd"/><path d="M207.868 480.801 230.545 480.801 230.545 503.478 207.868 503.478Z" fill="#E9C46A" fill-rule="evenodd"/><path d="M230.545 480.801 253.222 480.801 253.222 503.478 230.545 503.478Z" fill="#E9C46A" fill-rule="evenodd"/><path d="M253.222 480.801 275.899 480.801 275.899 503.478 253.222 503.478Z" fill="#E9C46A" fill-rule="evenodd"/><path d="M275.899 480.801 298.576 480.801 298.576 503.478 275.899 503.478Z" fill="#E9C46A" fill-rule="evenodd"/><path d="M298.576 480.801 321.254 480.801 321.254 503.478 298.576 503.478Z" fill="#E9C46A" fill-rule="evenodd"/><path d="M321.254 480.801 343.931 480.801 343.931 503.478 321.254 503.478Z" fill="#E9C46A" fill-rule="evenodd"/><path d="M343.931 480.801 366.608 480.801 366.608 503.478 343.931 503.478Z" fill="#E9C46A" fill-rule="evenodd"/><path d="M366.608 480.801 389.285 480.801 389.285 503.478 366.608 503.478Z" fill="#E9C46A" fill-rule="evenodd"/><path d="M389.285 480.801 411.962 480.801 411.962 503.478 389.285 503.478Z" fill="#E9C46A" fill-rule="evenodd"/><path d="M411.962 480.801 434.639 480.801 434.639 503.478 411.962 503.478Z" fill="#E9C46A" fill-rule="evenodd"/><path d="M434.639 480.801 457.317 480.801 457.317 503.478 434.639 503.478Z" fill="#E9C46A" fill-rule="evenodd"/><path d="M457.317 480.801 479.994 480.801 479.994 503.478 457.317 503.478Z" fill="#E9C46A" fill-rule="evenodd"/><path d="M479.994 480.801 502.671 480.801 502.671 503.478 479.994 503.478Z" fill="#E9C46A" fill-rule="evenodd"/><path d="M502.671 480.801 525.348 480.801 525.348 503.478 502.671 503.478Z" fill="#E9C46A" fill-rule="evenodd"/><path d="M525.348 480.801 548.025 480.801 548.025 503.478 525.348 503.478Z" fill="#E9C46A" fill-rule="evenodd"/><path d="M94.4819 503.478 117.159 503.478 117.159 526.155 94.4819 526.155Z" fill="#E9C46A" fill-rule="evenodd"/><path d="M117.159 503.478 139.836 503.478 139.836 526.155 117.159 526.155Z" fill="#E9C46A" fill-rule="evenodd"/><path d="M139.836 503.478 162.513 503.478 162.513 526.155 139.836 526.155Z" fill="#E9C46A" fill-rule="evenodd"/><path d="M162.513 503.478 185.191 503.478 185.191 526.155 162.513 526.155Z" fill="#E9C46A" fill-rule="evenodd"/><path d="M185.191 503.478 207.868 503.478 207.868 526.155 185.191 526.155Z" fill="#E9C46A" fill-rule="evenodd"/><path d="M207.868 503.478 230.545 503.478 230.545 526.155 207.868 526.155Z" fill="#E9C46A" fill-rule="evenodd"/><path d="M230.545 503.478 253.222 503.478 253.222 526.155 230.545 526.155Z" fill="#E9C46A" fill-rule="evenodd"/><path d="M253.222 503.478 275.899 503.478 275.899 526.155 253.222 526.155Z" fill="#E9C46A" fill-rule="evenodd"/><path d="M275.899 503.478 298.576 503.478 298.576 526.155 275.899 526.155Z" fill="#E9C46A" fill-rule="evenodd"/><path d="M298.576 503.478 321.254 503.478 321.254 526.155 298.576 526.155Z" fill="#E9C46A" fill-rule="evenodd"/><path d="M321.254 503.478 343.931 503.478 343.931 526.155 321.254 526.155Z" fill="#E9C46A" fill-rule="evenodd"/><path d="M343.931 503.478 366.608 503.478 366.608 526.155 343.931 526.155Z" fill="#E9C46A" fill-rule="evenodd"/><path d="M366.608 503.478 389.285 503.478 389.285 526.155 366.608 526.155Z" fill="#E9C46A" fill-rule="evenodd"/><path d="M389.285 503.478 411.962 503.478 411.962 526.155 389.285 526.155Z" fill="#E9C46A" fill-rule="evenodd"/><path d="M411.962 503.478 434.639 503.478 434.639 526.155 411.962 526.155Z" fill="#E9C46A" fill-rule="evenodd"/><path d="M434.639 503.478 457.317 503.478 457.317 526.155 434.639 526.155Z" fill="#E9C46A" fill-rule="evenodd"/><path d="M457.317 503.478 479.994 503.478 479.994 526.155 457.317 526.155Z" fill="#E9C46A" fill-rule="evenodd"/><path d="M479.994 503.478 502.671 503.478 502.671 526.155 479.994 526.155Z" fill="#E9C46A" fill-rule="evenodd"/><path d="M502.671 503.478 525.348 503.478 525.348 526.155 502.671 526.155Z" fill="#E9C46A" fill-rule="evenodd"/><path d="M525.348 503.478 548.025 503.478 548.025 526.155 525.348 526.155Z" fill="#E9C46A" fill-rule="evenodd"/><path d="M94.4819 526.155 117.159 526.155 117.159 548.832 94.4819 548.832Z" fill="#E9C46A" fill-rule="evenodd"/><path d="M117.159 526.155 139.836 526.155 139.836 548.832 117.159 548.832Z" fill="#E9C46A" fill-rule="evenodd"/><path d="M139.836 526.155 162.513 526.155 162.513 548.832 139.836 548.832Z" fill="#E9C46A" fill-rule="evenodd"/><path d="M162.513 526.155 185.191 526.155 185.191 548.832 162.513 548.832Z" fill="#E9C46A" fill-rule="evenodd"/><path d="M185.191 526.155 207.868 526.155 207.868 548.832 185.191 548.832Z" fill="#E9C46A" fill-rule="evenodd"/><path d="M207.868 526.155 230.545 526.155 230.545 548.832 207.868 548.832Z" fill="#E9C46A" fill-rule="evenodd"/><path d="M230.545 526.155 253.222 526.155 253.222 548.832 230.545 548.832Z" fill="#E9C46A" fill-rule="evenodd"/><path d="M253.222 526.155 275.899 526.155 275.899 548.832 253.222 548.832Z" fill="#E9C46A" fill-rule="evenodd"/><path d="M275.899 526.155 298.576 526.155 298.576 548.832 275.899 548.832Z" fill="#E9C46A" fill-rule="evenodd"/><path d="M298.576 526.155 321.254 526.155 321.254 548.832 298.576 548.832Z" fill="#E9C46A" fill-rule="evenodd"/><path d="M321.254 526.155 343.931 526.155 343.931 548.832 321.254 548.832Z" fill="#E9C46A" fill-rule="evenodd"/><path d="M343.931 526.155 366.608 526.155 366.608 548.832 343.931 548.832Z" fill="#E9C46A" fill-rule="evenodd"/><path d="M366.608 526.155 389.285 526.155 389.285 548.832 366.608 548.832Z" fill="#E9C46A" fill-rule="evenodd"/><path d="M389.285 526.155 411.962 526.155 411.962 548.832 389.285 548.832Z" fill="#E9C46A" fill-rule="evenodd"/><path d="M411.962 526.155 434.639 526.155 434.639 548.832 411.962 548.832Z" fill="#E9C46A" fill-rule="evenodd"/><path d="M434.639 526.155 457.317 526.155 457.317 548.832 434.639 548.832Z" fill="#E9C46A" fill-rule="evenodd"/><path d="M457.317 526.155 479.994 526.155 479.994 548.832 457.317 548.832Z" fill="#E9C46A" fill-rule="evenodd"/><path d="M479.994 526.155 502.671 526.155 502.671 548.832 479.994 548.832Z" fill="#E9C46A" fill-rule="evenodd"/><path d="M502.671 526.155 525.348 526.155 525.348 548.832 502.671 548.832Z" fill="#E9C46A" fill-rule="evenodd"/><path d="M525.348 526.155 548.025 526.155 548.025 548.832 525.348 548.832Z" fill="#E9C46A" fill-rule="evenodd"/><path d="M94.4819 548.832 117.159 548.832 117.159 571.509 94.4819 571.509Z" fill="#E9C46A" fill-rule="evenodd"/><path d="M117.159 548.832 139.836 548.832 139.836 571.509 117.159 571.509Z" fill="#E9C46A" fill-rule="evenodd"/><path d="M139.836 548.832 162.513 548.832 162.513 571.509 139.836 571.509Z" fill="#E9C46A" fill-rule="evenodd"/><path d="M162.513 548.832 185.191 548.832 185.191 571.509 162.513 571.509Z" fill="#E9C46A" fill-rule="evenodd"/><path d="M185.191 548.832 207.868 548.832 207.868 571.509 185.191 571.509Z" fill="#E9C46A" fill-rule="evenodd"/><path d="M207.868 548.832 230.545 548.832 230.545 571.509 207.868 571.509Z" fill="#E9C46A" fill-rule="evenodd"/><path d="M230.545 548.832 253.222 548.832 253.222 571.509 230.545 571.509Z" fill="#E9C46A" fill-rule="evenodd"/><path d="M253.222 548.832 275.899 548.832 275.899 571.509 253.222 571.509Z" fill="#E9C46A" fill-rule="evenodd"/><path d="M275.899 548.832 298.576 548.832 298.576 571.509 275.899 571.509Z" fill="#E9C46A" fill-rule="evenodd"/><path d="M298.576 548.832 321.254 548.832 321.254 571.509 298.576 571.509Z" fill="#E9C46A" fill-rule="evenodd"/><path d="M321.254 548.832 343.931 548.832 343.931 571.509 321.254 571.509Z" fill="#E9C46A" fill-rule="evenodd"/><path d="M343.931 548.832 366.608 548.832 366.608 571.509 343.931 571.509Z" fill="#E9C46A" fill-rule="evenodd"/><path d="M366.608 548.832 389.285 548.832 389.285 571.509 366.608 571.509Z" fill="#E9C46A" fill-rule="evenodd"/><path d="M389.285 548.832 411.962 548.832 411.962 571.509 389.285 571.509Z" fill="#E9C46A" fill-rule="evenodd"/><path d="M411.962 548.832 434.639 548.832 434.639 571.509 411.962 571.509Z" fill="#E9C46A" fill-rule="evenodd"/><path d="M434.639 548.832 457.317 548.832 457.317 571.509 434.639 571.509Z" fill="#E9C46A" fill-rule="evenodd"/><path d="M457.317 548.832 479.994 548.832 479.994 571.509 457.317 571.509Z" fill="#E9C46A" fill-rule="evenodd"/><path d="M479.994 548.832 502.671 548.832 502.671 571.509 479.994 571.509Z" fill="#E9C46A" fill-rule="evenodd"/><path d="M502.671 548.832 525.348 548.832 525.348 571.509 502.671 571.509Z" fill="#E9C46A" fill-rule="evenodd"/><path d="M525.348 548.832 548.025 548.832 548.025 571.509 525.348 571.509Z" fill="#E9C46A" fill-rule="evenodd"/><path d="M117.159 49.2677 117.159 572.176" stroke="#000000" stroke-width="1.33333" stroke-linejoin="round" stroke-miterlimit="10" fill="none" fill-rule="evenodd"/><path d="M139.836 49.2677 139.836 572.176" stroke="#000000" stroke-width="1.33333" stroke-linejoin="round" stroke-miterlimit="10" fill="none" fill-rule="evenodd"/><path d="M162.513 49.2677 162.513 572.176" stroke="#000000" stroke-width="1.33333" stroke-linejoin="round" stroke-miterlimit="10" fill="none" fill-rule="evenodd"/><path d="M185.191 49.2677 185.191 572.176" stroke="#000000" stroke-width="1.33333" stroke-linejoin="round" stroke-miterlimit="10" fill="none" fill-rule="evenodd"/><path d="M207.868 49.2677 207.868 572.176" stroke="#000000" stroke-width="1.33333" stroke-linejoin="round" stroke-miterlimit="10" fill="none" fill-rule="evenodd"/><path d="M230.545 49.2677 230.545 572.176" stroke="#000000" stroke-width="1.33333" stroke-linejoin="round" stroke-miterlimit="10" fill="none" fill-rule="evenodd"/><path d="M253.222 49.2677 253.222 572.176" stroke="#000000" stroke-width="1.33333" stroke-linejoin="round" stroke-miterlimit="10" fill="none" fill-rule="evenodd"/><path d="M275.899 49.2677 275.899 572.176" stroke="#000000" stroke-width="1.33333" stroke-linejoin="round" stroke-miterlimit="10" fill="none" fill-rule="evenodd"/><path d="M298.576 49.2677 298.576 572.176" stroke="#000000" stroke-width="1.33333" stroke-linejoin="round" stroke-miterlimit="10" fill="none" fill-rule="evenodd"/><path d="M321.254 49.2677 321.254 572.176" stroke="#000000" stroke-width="1.33333" stroke-linejoin="round" stroke-miterlimit="10" fill="none" fill-rule="evenodd"/><path d="M343.931 49.2677 343.931 572.176" stroke="#000000" stroke-width="1.33333" stroke-linejoin="round" stroke-miterlimit="10" fill="none" fill-rule="evenodd"/><path d="M366.608 71.9449 366.608 572.176" stroke="#000000" stroke-width="1.33333" stroke-linejoin="round" stroke-miterlimit="10" fill="none" fill-rule="evenodd"/><path d="M389.285 71.9449 389.285 572.176" stroke="#000000" stroke-width="1.33333" stroke-linejoin="round" stroke-miterlimit="10" fill="none" fill-rule="evenodd"/><path d="M411.962 71.9449 411.962 572.176" stroke="#000000" stroke-width="1.33333" stroke-linejoin="round" stroke-miterlimit="10" fill="none" fill-rule="evenodd"/><path d="M434.639 71.9449 434.639 572.176" stroke="#000000" stroke-width="1.33333" stroke-linejoin="round" stroke-miterlimit="10" fill="none" fill-rule="evenodd"/><path d="M457.317 71.9449 457.317 572.176" stroke="#000000" stroke-width="1.33333" stroke-linejoin="round" stroke-miterlimit="10" fill="none" fill-rule="evenodd"/><path d="M479.994 71.9449 479.994 572.176" stroke="#000000" stroke-width="1.33333" stroke-linejoin="round" stroke-miterlimit="10" fill="none" fill-rule="evenodd"/><path d="M502.671 71.9449 502.671 572.176" stroke="#000000" stroke-width="1.33333" stroke-linejoin="round" stroke-miterlimit="10" fill="none" fill-rule="evenodd"/><path d="M525.348 71.9449 525.348 572.176" stroke="#000000" stroke-width="1.33333" stroke-linejoin="round" stroke-miterlimit="10" fill="none" fill-rule="evenodd"/><path d="M93.8152 72.6115 548.692 72.6115" stroke="#000000" stroke-width="1.33333" stroke-linejoin="round" stroke-miterlimit="10" fill="none" fill-rule="evenodd"/><path d="M93.8152 95.2887 548.692 95.2887" stroke="#000000" stroke-width="1.33333" stroke-linejoin="round" stroke-miterlimit="10" fill="none" fill-rule="evenodd"/><path d="M93.8152 117.966 548.692 117.966" stroke="#000000" stroke-width="1.33333" stroke-linejoin="round" stroke-miterlimit="10" fill="none" fill-rule="evenodd"/><path d="M93.8152 140.643 548.692 140.643" stroke="#000000" stroke-width="1.33333" stroke-linejoin="round" stroke-miterlimit="10" fill="none" fill-rule="evenodd"/><path d="M93.8152 163.32 548.692 163.32" stroke="#000000" stroke-width="1.33333" stroke-linejoin="round" stroke-miterlimit="10" fill="none" fill-rule="evenodd"/><path d="M93.8152 185.997 548.692 185.997" stroke="#000000" stroke-width="1.33333" stroke-linejoin="round" stroke-miterlimit="10" fill="none" fill-rule="evenodd"/><path d="M93.8152 208.675 548.692 208.675" stroke="#000000" stroke-width="1.33333" stroke-linejoin="round" stroke-miterlimit="10" fill="none" fill-rule="evenodd"/><path d="M93.8152 231.352 548.692 231.352" stroke="#000000" stroke-width="1.33333" stroke-linejoin="round" stroke-miterlimit="10" fill="none" fill-rule="evenodd"/><path d="M93.8152 254.029 548.692 254.029" stroke="#000000" stroke-width="1.33333" stroke-linejoin="round" stroke-miterlimit="10" fill="none" fill-rule="evenodd"/><path d="M93.8152 276.706 548.692 276.706" stroke="#000000" stroke-width="1.33333" stroke-linejoin="round" stroke-miterlimit="10" fill="none" fill-rule="evenodd"/><path d="M93.8152 299.383 548.692 299.383" stroke="#000000" stroke-width="1.33333" stroke-linejoin="round" stroke-miterlimit="10" fill="none" fill-rule="evenodd"/><path d="M93.8152 322.06 548.692 322.06" stroke="#000000" stroke-width="1.33333" stroke-linejoin="round" stroke-miterlimit="10" fill="none" fill-rule="evenodd"/><path d="M93.8152 344.738 548.692 344.738" stroke="#000000" stroke-width="1.33333" stroke-linejoin="round" stroke-miterlimit="10" fill="none" fill-rule="evenodd"/><path d="M93.8152 367.415 548.692 367.415" stroke="#000000" stroke-width="1.33333" stroke-linejoin="round" stroke-miterlimit="10" fill="none" fill-rule="evenodd"/><path d="M93.8152 390.092 548.692 390.092" stroke="#000000" stroke-width="1.33333" stroke-linejoin="round" stroke-miterlimit="10" fill="none" fill-rule="evenodd"/><path d="M93.8152 412.769 548.692 412.769" stroke="#000000" stroke-width="1.33333" stroke-linejoin="round" stroke-miterlimit="10" fill="none" fill-rule="evenodd"/><path d="M93.8152 435.446 548.692 435.446" stroke="#000000" stroke-width="1.33333" stroke-linejoin="round" stroke-miterlimit="10" fill="none" fill-rule="evenodd"/><path d="M93.8152 458.123 548.692 458.123" stroke="#000000" stroke-width="1.33333" stroke-linejoin="round" stroke-miterlimit="10" fill="none" fill-rule="evenodd"/><path d="M93.8152 480.801 548.692 480.801" stroke="#000000" stroke-width="1.33333" stroke-linejoin="round" stroke-miterlimit="10" fill="none" fill-rule="evenodd"/><path d="M93.8152 503.478 548.692 503.478" stroke="#000000" stroke-width="1.33333" stroke-linejoin="round" stroke-miterlimit="10" fill="none" fill-rule="evenodd"/><path d="M93.8152 526.155 548.692 526.155" stroke="#000000" stroke-width="1.33333" stroke-linejoin="round" stroke-miterlimit="10" fill="none" fill-rule="evenodd"/><path d="M93.8152 548.832 548.692 548.832" stroke="#000000" stroke-width="1.33333" stroke-linejoin="round" stroke-miterlimit="10" fill="none" fill-rule="evenodd"/><path d="M94.4819 49.2677 94.4819 572.176" stroke="#000000" stroke-width="1.33333" stroke-linejoin="round" stroke-miterlimit="10" fill="none" fill-rule="evenodd"/><path d="M548.025 71.9449 548.025 572.176" stroke="#000000" stroke-width="1.33333" stroke-linejoin="round" stroke-miterlimit="10" fill="none" fill-rule="evenodd"/><path d="M93.8152 49.9344 344.597 49.9344" stroke="#000000" stroke-width="1.33333" stroke-linejoin="round" stroke-miterlimit="10" fill="none" fill-rule="evenodd"/><path d="M93.8152 571.509 548.692 571.509" stroke="#000000" stroke-width="1.33333" stroke-linejoin="round" stroke-miterlimit="10" fill="none" fill-rule="evenodd"/></g></svg>