<svg width="457" height="170" xmlns="http://www.w3.org/2000/svg" xmlns:xlink="http://www.w3.org/1999/xlink" overflow="hidden"><defs><clipPath id="clip0"><rect x="533" y="28" width="457" height="170"/></clipPath></defs><g clip-path="url(#clip0)" transform="translate(-533 -28)"><path d="M534.56 29.7377 557.237 29.7377 557.237 52.4149 534.56 52.4149Z" fill="#2A9D8F" fill-rule="evenodd"/><path d="M557.237 29.7377 579.914 29.7377 579.914 52.4149 557.237 52.4149Z" fill="#2A9D8F" fill-rule="evenodd"/><path d="M579.914 29.7377 602.591 29.7377 602.591 52.4149 579.914 52.4149Z" fill="#2A9D8F" fill-rule="evenodd"/><path d="M602.591 29.7377 625.268 29.7377 625.268 52.4149 602.591 52.4149Z" fill="#2A9D8F" fill-rule="evenodd"/><path d="M625.268 29.7377 988.103 29.7377 988.103 52.4149 625.268 52.4149Z" fill="#FFFFFF" fill-rule="evenodd"/><path d="M534.56 52.4149 557.237 52.4149 557.237 75.0921 534.56 75.0921Z" fill="#2A9D8F" fill-rule="evenodd"/><path d="M557.237 52.4149 579.914 52.4149 579.914 75.0921 557.237 75.0921Z" fill="#2A9D8F" fill-rule="evenodd"/><path d="M579.914 52.4149 602.591 52.4149 602.591 75.0921 579.914 75.0921Z" fill="#2A9D8F" fill-rule="evenodd"/><path d="M602.591 52.4149 625.268 52.4149 625.268 75.0921 602.591 75.0921Z" fill="#2A9D8F" fill-rule="evenodd"/><path d="M625.268 52.4149 647.946 52.4149 647.946 75.0921 625.268 75.0921Z" fill="#2A9D8F" fill-rule="evenodd"/><path d="M647.946 52.4149 670.623 52.4149 670.623 75.0921 647.946 75.0921Z" fill="#2A9D8F" fill-rule="evenodd"/><path d="M670.623 52.4149 693.3 52.4149 693.3 75.0921 670.623 75.0921Z" fill="#2A9D8F" fill-rule="evenodd"/><path d="M693.3 52.4149 715.977 52.4149 715.977 75.0921 693.3 75.0921Z" fill="#2A9D8F" fill-rule="evenodd"/><path d="M715.977 52.4149 738.654 52.4149 738.654 75.0921 715.977 75.0921Z" fill="#2A9D8F" fill-rule="evenodd"/><path d="M738.654 52.4149 761.331 52.4149 761.331 75.0921 738.654 75.0921Z" fill="#2A9D8F" fill-rule="evenodd"/><path d="M761.331 52.4149 784.009 52.4149 784.009 75.0921 761.331 75.0921Z" fill="#2A9D8F" fill-rule="evenodd"/><path d="M784.009 52.4149 806.686 52.4149 806.686 75.0921 784.009 75.0921Z" fill="#2A9D8F" fill-rule="evenodd"/><path d="M806.686 52.4149 829.363 52.4149 829.363 75.0921 806.686 75.0921Z" fill="#2A9D8F" fill-rule="evenodd"/><path d="M829.363 52.4149 852.04 52.4149 852.04 75.0921 829.363 75.0921Z" fill="#2A9D8F" fill-rule="evenodd"/><path d="M852.04 52.4149 874.717 52.4149 874.717 75.0921 852.04 75.0921Z" fill="#2A9D8F" fill-rule="evenodd"/><path d="M874.717 52.4149 897.394 52.4149 897.394 75.0921 874.717 75.0921Z" fill="#2A9D8F" fill-rule="evenodd"/><path d="M897.394 52.4149 920.072 52.4149 920.072 75.0921 897.394 75.0921Z" fill="#2A9D8F" fill-rule="evenodd"/><path d="M920.072 52.4149 942.749 52.4149 942.749 75.0921 920.072 75.0921Z" fill="#2A9D8F" fill-rule="evenodd"/><path d="M942.749 52.4149 965.426 52.4149 965.426 75.0921 942.749 75.0921Z" fill="#2A9D8F" fill-rule="evenodd"/><path d="M965.426 52.4149 988.103 52.4149 988.103 75.0921 965.426 75.0921Z" fill="#2A9D8F" fill-rule="evenodd"/><path d="M534.56 75.0921 557.237 75.0921 557.237 97.7692 534.56 97.7692Z" fill="#2A9D8F" fill-rule="evenodd"/><path d="M557.237 75.0921 579.914 75.0921 579.914 97.7692 557.237 97.7692Z" fill="#2A9D8F" fill-rule="evenodd"/><path d="M579.914 75.0921 602.591 75.0921 602.591 97.7692 579.914 97.7692Z" fill="#2A9D8F" fill-rule="evenodd"/><path d="M602.591 75.0921 625.268 75.0921 625.268 97.7692 602.591 97.7692Z" fill="#2A9D8F" fill-rule="evenodd"/><path d="M625.268 75.0921 647.946 75.0921 647.946 97.7692 625.268 97.7692Z" fill="#2A9D8F" fill-rule="evenodd"/><path d="M647.946 75.0921 670.623 75.0921 670.623 97.7692 647.946 97.7692Z" fill="#2A9D8F" fill-rule="evenodd"/><path d="M670.623 75.0921 693.3 75.0921 693.3 97.7692 670.623 97.7692Z" fill="#2A9D8F" fill-rule="evenodd"/><path d="M693.3 75.0921 715.977 75.0921 715.977 97.7692 693.3 97.7692Z" fill="#2A9D8F" fill-rule="evenodd"/><path d="M715.977 75.0921 738.654 75.0921 738.654 97.7692 715.977 97.7692Z" fill="#2A9D8F" fill-rule="evenodd"/><path d="M738.654 75.0921 761.331 75.0921 761.331 97.7692 738.654 97.7692Z" fill="#2A9D8F" fill-rule="evenodd"/><path d="M761.331 75.0921 784.009 75.0921 784.009 97.7692 761.331 97.7692Z" fill="#2A9D8F" fill-rule="evenodd"/><path d="M784.009 75.0921 806.686 75.0921 806.686 97.7692 784.009 97.7692Z" fill="#2A9D8F" fill-rule="evenodd"/><path d="M806.686 75.0921 829.363 75.0921 829.363 97.7692 806.686 97.7692Z" fill="#2A9D8F" fill-rule="evenodd"/><path d="M829.363 75.0921 852.04 75.0921 852.04 97.7692 829.363 97.7692Z" fill="#2A9D8F" fill-rule="evenodd"/><path d="M852.04 75.0921 874.717 75.0921 874.717 97.7692 852.04 97.7692Z" fill="#2A9D8F" fill-rule="evenodd"/><path d="M874.717 75.0921 897.394 75.0921 897.394 97.7692 874.717 97.7692Z" fill="#2A9D8F" fill-rule="evenodd"/><path d="M897.394 75.0921 920.072 75.0921 920.072 97.7692 897.394 97.7692Z" fill="#2A9D8F" fill-rule="evenodd"/><path d="M920.072 75.0921 942.749 75.0921 942.749 97.7692 920.072 97.7692Z" fill="#2A9D8F" fill-rule="evenodd"/><path d="M942.749 75.0921 965.426 75.0921 965.426 97.7692 942.749 97.7692Z" fill="#2A9D8F" fill-rule="evenodd"/><path d="M965.426 75.0921 988.103 75.0921 988.103 97.7692 965.426 97.7692Z" fill="#2A9D8F" fill-rule="evenodd"/><path d="M534.56 97.7692 557.237 97.7692 557.237 120.446 534.56 120.446Z" fill="#2A9D8F" fill-rule="evenodd"/><path d="M557.237 97.7692 579.914 97.7692 579.914 120.446 557.237 120.446Z" fill="#2A9D8F" fill-rule="evenodd"/><path d="M579.914 97.7692 602.591 97.7692 602.591 120.446 579.914 120.446Z" fill="#2A9D8F" fill-rule="evenodd"/><path d="M602.591 97.7692 625.268 97.7692 625.268 120.446 602.591 120.446Z" fill="#2A9D8F" fill-rule="evenodd"/><path d="M625.268 97.7692 647.946 97.7692 647.946 120.446 625.268 120.446Z" fill="#2A9D8F" fill-rule="evenodd"/><path d="M647.946 97.7692 670.623 97.7692 670.623 120.446 647.946 120.446Z" fill="#2A9D8F" fill-rule="evenodd"/><path d="M670.623 97.7692 693.3 97.7692 693.3 120.446 670.623 120.446Z" fill="#2A9D8F" fill-rule="evenodd"/><path d="M693.3 97.7692 715.977 97.7692 715.977 120.446 693.3 120.446Z" fill="#2A9D8F" fill-rule="evenodd"/><path d="M715.977 97.7692 738.654 97.7692 738.654 120.446 715.977 120.446Z" fill="#2A9D8F" fill-rule="evenodd"/><path d="M738.654 97.7692 761.331 97.7692 761.331 120.446 738.654 120.446Z" fill="#2A9D8F" fill-rule="evenodd"/><path d="M761.331 97.7692 784.009 97.7692 784.009 120.446 761.331 120.446Z" fill="#2A9D8F" fill-rule="evenodd"/><path d="M784.009 97.7692 806.686 97.7692 806.686 120.446 784.009 120.446Z" fill="#2A9D8F" fill-rule="evenodd"/><path d="M806.686 97.7692 829.363 97.7692 829.363 120.446 806.686 120.446Z" fill="#2A9D8F" fill-rule="evenodd"/><path d="M829.363 97.7692 852.04 97.7692 852.04 120.446 829.363 120.446Z" fill="#2A9D8F" fill-rule="evenodd"/><path d="M852.04 97.7692 874.717 97.7692 874.717 120.446 852.04 120.446Z" fill="#2A9D8F" fill-rule="evenodd"/><path d="M874.717 97.7692 897.394 97.7692 897.394 120.446 874.717 120.446Z" fill="#2A9D8F" fill-rule="evenodd"/><path d="M897.394 97.7692 920.072 97.7692 920.072 120.446 897.394 120.446Z" fill="#2A9D8F" fill-rule="evenodd"/><path d="M920.072 97.7692 942.749 97.7692 942.749 120.446 920.072 120.446Z" fill="#2A9D8F" fill-rule="evenodd"/><path d="M942.749 97.7692 965.426 97.7692 965.426 120.446 942.749 120.446Z" fill="#2A9D8F" fill-rule="evenodd"/><path d="M965.426 97.7692 988.103 97.7692 988.103 120.446 965.426 120.446Z" fill="#2A9D8F" fill-rule="evenodd"/><path d="M557.237 29.0711 557.237 121.113" stroke="#000000" stroke-width="1.33333" stroke-linejoin="round" stroke-miterlimit="10" fill="none" fill-rule="evenodd"/><path d="M579.914 29.0711 579.914 121.113" stroke="#000000" stroke-width="1.33333" stroke-linejoin="round" stroke-miterlimit="10" fill="none" fill-rule="evenodd"/><path d="M602.591 29.0711 602.591 121.113" stroke="#000000" stroke-width="1.33333" stroke-linejoin="round" stroke-miterlimit="10" fill="none" fill-rule="evenodd"/><path d="M625.268 29.0711 625.268 121.113" stroke="#000000" stroke-width="1.33333" stroke-linejoin="round" stroke-miterlimit="10" fill="none" fill-rule="evenodd"/><path d="M647.946 51.7482 647.946 121.113" stroke="#000000" stroke-width="1.33333" stroke-linejoin="round" stroke-miterlimit="10" fill="none" fill-rule="evenodd"/><path d="M670.623 51.7482 670.623 121.113" stroke="#000000" stroke-width="1.33333" stroke-linejoin="round" stroke-miterlimit="10" fill="none" fill-rule="evenodd"/><path d="M693.3 51.7482 693.3 121.113" stroke="#000000" stroke-width="1.33333" stroke-linejoin="round" stroke-miterlimit="10" fill="none" fill-rule="evenodd"/><path d="M715.977 51.7482 715.977 121.113" stroke="#000000" stroke-width="1.33333" stroke-linejoin="round" stroke-miterlimit="10" fill="none" fill-rule="evenodd"/><path d="M738.654 51.7482 738.654 121.113" stroke="#000000" stroke-width="1.33333" stroke-linejoin="round" stroke-miterlimit="10" fill="none" fill-rule="evenodd"/><path d="M761.331 51.7482 761.331 121.113" stroke="#000000" stroke-width="1.33333" stroke-linejoin="round" stroke-miterlimit="10" fill="none" fill-rule="evenodd"/><path d="M784.009 51.7482 784.009 121.113" stroke="#000000" stroke-width="1.33333" stroke-linejoin="round" stroke-miterlimit="10" fill="none" fill-rule="evenodd"/><path d="M806.686 51.7482 806.686 121.113" stroke="#000000" stroke-width="1.33333" stroke-linejoin="round" stroke-miterlimit="10" fill="none" fill-rule="evenodd"/><path d="M829.363 51.7482 829.363 121.113" stroke="#000000" stroke-width="1.33333" stroke-linejoin="round" stroke-miterlimit="10" fill="none" fill-rule="evenodd"/><path d="M852.04 51.7482 852.04 121.113" stroke="#000000" stroke-width="1.33333" stroke-linejoin="round" stroke-miterlimit="10" fill="none" fill-rule="evenodd"/><path d="M874.717 51.7482 874.717 121.113" stroke="#000000" stroke-width="1.33333" stroke-linejoin="round" stroke-miterlimit="10" fill="none" fill-rule="evenodd"/><path d="M897.394 51.7482 897.394 121.113" stroke="#000000" stroke-width="1.33333" stroke-linejoin="round" stroke-miterlimit="10" fill="none" fill-rule="evenodd"/><path d="M920.072 51.7482 920.072 121.113" stroke="#000000" stroke-width="1.33333" stroke-linejoin="round" stroke-miterlimit="10" fill="none" fill-rule="evenodd"/><path d="M942.749 51.7482 942.749 121.113" stroke="#000000" stroke-width="1.33333" stroke-linejoin="round" stroke-miterlimit="10" fill="none" fill-rule="evenodd"/><path d="M965.426 51.7482 965.426 121.113" stroke="#000000" stroke-width="1.33333" stroke-linejoin="round" stroke-miterlimit="10" fill="none" fill-rule="evenodd"/><path d="M533.893 52.4149 988.77 52.4149" stroke="#000000" stroke-width="1.33333" stroke-linejoin="round" stroke-miterlimit="10" fill="none" fill-rule="evenodd"/><path d="M533.893 75.0921 988.77 75.0921" stroke="#000000" stroke-width="1.33333" stroke-linejoin="round" stroke-miterlimit="10" fill="none" fill-rule="evenodd"/><path d="M533.893 97.7692 988.77 97.7692" stroke="#000000" stroke-width="1.33333" stroke-linejoin="round" stroke-miterlimit="10" fill="none" fill-rule="evenodd"/><path d="M534.56 29.0711 534.56 121.113" stroke="#000000" stroke-width="1.33333" stroke-linejoin="round" stroke-miterlimit="10" fill="none" fill-rule="evenodd"/><path d="M988.103 51.7482 988.103 121.113" stroke="#000000" stroke-width="1.33333" stroke-linejoin="round" stroke-miterlimit="10" fill="none" fill-rule="evenodd"/><path d="M533.893 29.7377 625.935 29.7377" stroke="#000000" stroke-width="1.33333" stroke-linejoin="round" stroke-miterlimit="10" fill="none" fill-rule="evenodd"/><path d="M533.893 120.446 988.77 120.446" stroke="#000000" stroke-width="1.33333" stroke-linejoin="round" stroke-miterlimit="10" fill="none" fill-rule="evenodd"/><text font-family="Calibri,Calibri_MSFontService,sans-serif" font-weight="700" font-size="24" transform="translate(672.441 147)">Églises Réformées<tspan font-size="24" x="57.3933" y="29">(6,4%)</tspan></text></g></svg>