<svg width="455" height="102" xmlns="http://www.w3.org/2000/svg" xmlns:xlink="http://www.w3.org/1999/xlink" overflow="hidden"><defs><clipPath id="clip0"><rect x="22" y="598" width="455" height="102"/></clipPath></defs><g clip-path="url(#clip0)" transform="translate(-22 -598)"><path d="M22.2512 599.729 135.637 599.729 135.637 622.406 22.2512 622.406Z" fill="#FFFFFF" fill-rule="evenodd"/><path d="M135.637 599.729 158.314 599.729 158.314 622.406 135.637 622.406Z" fill="#2A9D8F" fill-rule="evenodd"/><path d="M158.314 599.729 180.991 599.729 180.991 622.406 158.314 622.406Z" fill="#2A9D8F" fill-rule="evenodd"/><path d="M180.991 599.729 203.669 599.729 203.669 622.406 180.991 622.406Z" fill="#2A9D8F" fill-rule="evenodd"/><path d="M203.669 599.729 226.346 599.729 226.346 622.406 203.669 622.406Z" fill="#2A9D8F" fill-rule="evenodd"/><path d="M226.346 599.729 249.023 599.729 249.023 622.406 226.346 622.406Z" fill="#2A9D8F" fill-rule="evenodd"/><path d="M249.023 599.729 271.7 599.729 271.7 622.406 249.023 622.406Z" fill="#2A9D8F" fill-rule="evenodd"/><path d="M271.7 599.729 294.377 599.729 294.377 622.406 271.7 622.406Z" fill="#2A9D8F" fill-rule="evenodd"/><path d="M294.377 599.729 317.054 599.729 317.054 622.406 294.377 622.406Z" fill="#2A9D8F" fill-rule="evenodd"/><path d="M317.054 599.729 339.732 599.729 339.732 622.406 317.054 622.406Z" fill="#2A9D8F" fill-rule="evenodd"/><path d="M339.732 599.729 475.795 599.729 475.795 622.406 339.732 622.406Z" fill="#FFFFFF" fill-rule="evenodd"/><path d="M135.637 599.062 135.637 623.073" stroke="#000000" stroke-width="1.33333" stroke-linejoin="round" stroke-miterlimit="10" fill="none" fill-rule="evenodd"/><path d="M158.314 599.062 158.314 623.073" stroke="#000000" stroke-width="1.33333" stroke-linejoin="round" stroke-miterlimit="10" fill="none" fill-rule="evenodd"/><path d="M180.991 599.062 180.991 623.073" stroke="#000000" stroke-width="1.33333" stroke-linejoin="round" stroke-miterlimit="10" fill="none" fill-rule="evenodd"/><path d="M203.669 599.062 203.669 623.073" stroke="#000000" stroke-width="1.33333" stroke-linejoin="round" stroke-miterlimit="10" fill="none" fill-rule="evenodd"/><path d="M226.346 599.062 226.346 623.073" stroke="#000000" stroke-width="1.33333" stroke-linejoin="round" stroke-miterlimit="10" fill="none" fill-rule="evenodd"/><path d="M249.023 599.062 249.023 623.073" stroke="#000000" stroke-width="1.33333" stroke-linejoin="round" stroke-miterlimit="10" fill="none" fill-rule="evenodd"/><path d="M271.7 599.062 271.7 623.073" stroke="#000000" stroke-width="1.33333" stroke-linejoin="round" stroke-miterlimit="10" fill="none" fill-rule="evenodd"/><path d="M294.377 599.062 294.377 623.073" stroke="#000000" stroke-width="1.33333" stroke-linejoin="round" stroke-miterlimit="10" fill="none" fill-rule="evenodd"/><path d="M317.054 599.062 317.054 623.073" stroke="#000000" stroke-width="1.33333" stroke-linejoin="round" stroke-miterlimit="10" fill="none" fill-rule="evenodd"/><path d="M339.732 599.062 339.732 623.073" stroke="#000000" stroke-width="1.33333" stroke-linejoin="round" stroke-miterlimit="10" fill="none" fill-rule="evenodd"/><path d="M134.97 599.729 340.398 599.729" stroke="#000000" stroke-width="1.33333" stroke-linejoin="round" stroke-miterlimit="10" fill="none" fill-rule="evenodd"/><path d="M134.97 622.406 340.398 622.406" stroke="#000000" stroke-width="1.33333" stroke-linejoin="round" stroke-miterlimit="10" fill="none" fill-rule="evenodd"/><text font-family="Calibri,Calibri_MSFontService,sans-serif" font-weight="700" font-size="24" transform="translate(149.55 649)">Nouvel Apostolisme<tspan font-size="24" x="67.9733" y="29">(0,9%)</tspan></text></g></svg>