<svg width="455" height="102" xmlns="http://www.w3.org/2000/svg" xmlns:xlink="http://www.w3.org/1999/xlink" overflow="hidden"><defs><clipPath id="clip0"><rect x="109" y="448" width="455" height="102"/></clipPath></defs><g clip-path="url(#clip0)" transform="translate(-109 -448)"><path d="M109.863 449.495 313.957 449.495 313.957 472.172 109.863 472.172Z" fill="#FFFFFF" fill-rule="evenodd"/><path d="M313.957 449.495 336.635 449.495 336.635 472.172 313.957 472.172Z" fill="#2A9D8F" fill-rule="evenodd"/><path d="M336.635 449.495 359.312 449.495 359.312 472.172 336.635 472.172Z" fill="#2A9D8F" fill-rule="evenodd"/><path d="M359.312 449.495 563.406 449.495 563.406 472.172 359.312 472.172Z" fill="#FFFFFF" fill-rule="evenodd"/><path d="M313.957 448.829 313.957 472.839" stroke="#000000" stroke-width="1.33333" stroke-linejoin="round" stroke-miterlimit="10" fill="none" fill-rule="evenodd"/><path d="M336.635 448.829 336.635 472.839" stroke="#000000" stroke-width="1.33333" stroke-linejoin="round" stroke-miterlimit="10" fill="none" fill-rule="evenodd"/><path d="M359.312 448.829 359.312 472.839" stroke="#000000" stroke-width="1.33333" stroke-linejoin="round" stroke-miterlimit="10" fill="none" fill-rule="evenodd"/><path d="M313.291 449.495 359.978 449.495" stroke="#000000" stroke-width="1.33333" stroke-linejoin="round" stroke-miterlimit="10" fill="none" fill-rule="evenodd"/><path d="M313.291 472.172 359.978 472.172" stroke="#000000" stroke-width="1.33333" stroke-linejoin="round" stroke-miterlimit="10" fill="none" fill-rule="evenodd"/><text font-family="Calibri,Calibri_MSFontService,sans-serif" font-weight="700" font-size="24" transform="translate(303.935 499)">Autres<tspan font-size="24" x="1.19998" y="29">(0,2%)</tspan></text></g></svg>