<svg width="455" height="94" xmlns="http://www.w3.org/2000/svg" xmlns:xlink="http://www.w3.org/1999/xlink" overflow="hidden"><defs><clipPath id="clip0"><rect x="513" y="598" width="455" height="94"/></clipPath></defs><g clip-path="url(#clip0)" transform="translate(-513 -598)"><path d="M513.591 599.554 672.331 599.554 672.331 622.231 513.591 622.231Z" fill="#FFFFFF" fill-rule="evenodd"/><path d="M672.331 599.554 695.008 599.554 695.008 622.231 672.331 622.231Z" fill="#2A9D8F" fill-rule="evenodd"/><path d="M695.008 599.554 717.686 599.554 717.686 622.231 695.008 622.231Z" fill="#2A9D8F" fill-rule="evenodd"/><path d="M717.686 599.554 740.363 599.554 740.363 622.231 717.686 622.231Z" fill="#2A9D8F" fill-rule="evenodd"/><path d="M740.363 599.554 763.04 599.554 763.04 622.231 740.363 622.231Z" fill="#2A9D8F" fill-rule="evenodd"/><path d="M763.04 599.554 785.717 599.554 785.717 622.231 763.04 622.231Z" fill="#2A9D8F" fill-rule="evenodd"/><path d="M785.717 599.554 808.394 599.554 808.394 622.231 785.717 622.231Z" fill="#2A9D8F" fill-rule="evenodd"/><path d="M808.394 599.554 967.134 599.554 967.134 622.231 808.394 622.231Z" fill="#FFFFFF" fill-rule="evenodd"/><path d="M672.331 598.887 672.331 622.897" stroke="#000000" stroke-width="1.33333" stroke-linejoin="round" stroke-miterlimit="10" fill="none" fill-rule="evenodd"/><path d="M695.008 598.887 695.008 622.897" stroke="#000000" stroke-width="1.33333" stroke-linejoin="round" stroke-miterlimit="10" fill="none" fill-rule="evenodd"/><path d="M717.686 598.887 717.686 622.897" stroke="#000000" stroke-width="1.33333" stroke-linejoin="round" stroke-miterlimit="10" fill="none" fill-rule="evenodd"/><path d="M740.363 598.887 740.363 622.897" stroke="#000000" stroke-width="1.33333" stroke-linejoin="round" stroke-miterlimit="10" fill="none" fill-rule="evenodd"/><path d="M763.04 598.887 763.04 622.897" stroke="#000000" stroke-width="1.33333" stroke-linejoin="round" stroke-miterlimit="10" fill="none" fill-rule="evenodd"/><path d="M785.717 598.887 785.717 622.897" stroke="#000000" stroke-width="1.33333" stroke-linejoin="round" stroke-miterlimit="10" fill="none" fill-rule="evenodd"/><path d="M808.394 598.887 808.394 622.897" stroke="#000000" stroke-width="1.33333" stroke-linejoin="round" stroke-miterlimit="10" fill="none" fill-rule="evenodd"/><path d="M671.665 599.554 809.061 599.554" stroke="#000000" stroke-width="1.33333" stroke-linejoin="round" stroke-miterlimit="10" fill="none" fill-rule="evenodd"/><path d="M671.665 622.231 809.061 622.231" stroke="#000000" stroke-width="1.33333" stroke-linejoin="round" stroke-miterlimit="10" fill="none" fill-rule="evenodd"/><text font-family="Calibri,Calibri_MSFontService,sans-serif" font-weight="700" font-size="21" transform="translate(657.409 647)">Restaurationnisme<tspan font-size="21" x="54.9534" y="25">(0,6%)</tspan></text></g></svg>