<svg width="457" height="396" xmlns="http://www.w3.org/2000/svg" xmlns:xlink="http://www.w3.org/1999/xlink" overflow="hidden"><defs><clipPath id="clip0"><rect x="42" y="19" width="457" height="396"/></clipPath></defs><g clip-path="url(#clip0)" transform="translate(-42 -19)"><path d="M43.6885 20.1311 66.3657 20.1311 66.3657 42.8083 43.6885 42.8083Z" fill="#2A9D8F" fill-rule="evenodd"/><path d="M66.3657 20.1311 89.0428 20.1311 89.0428 42.8083 66.3657 42.8083Z" fill="#2A9D8F" fill-rule="evenodd"/><path d="M89.0428 20.1311 111.72 20.1311 111.72 42.8083 89.0428 42.8083Z" fill="#2A9D8F" fill-rule="evenodd"/><path d="M111.72 20.1311 134.397 20.1311 134.397 42.8083 111.72 42.8083Z" fill="#2A9D8F" fill-rule="evenodd"/><path d="M134.397 20.1311 157.074 20.1311 157.074 42.8083 134.397 42.8083Z" fill="#2A9D8F" fill-rule="evenodd"/><path d="M157.074 20.1311 179.751 20.1311 179.751 42.8083 157.074 42.8083Z" fill="#2A9D8F" fill-rule="evenodd"/><path d="M179.751 20.1311 202.429 20.1311 202.429 42.8083 179.751 42.8083Z" fill="#2A9D8F" fill-rule="evenodd"/><path d="M202.429 20.1311 225.106 20.1311 225.106 42.8083 202.429 42.8083Z" fill="#2A9D8F" fill-rule="evenodd"/><path d="M225.106 20.1311 247.783 20.1311 247.783 42.8083 225.106 42.8083Z" fill="#2A9D8F" fill-rule="evenodd"/><path d="M247.783 20.1311 270.46 20.1311 270.46 42.8083 247.783 42.8083Z" fill="#2A9D8F" fill-rule="evenodd"/><path d="M270.46 20.1311 293.137 20.1311 293.137 42.8083 270.46 42.8083Z" fill="#2A9D8F" fill-rule="evenodd"/><path d="M293.137 20.1311 315.814 20.1311 315.814 42.8083 293.137 42.8083Z" fill="#2A9D8F" fill-rule="evenodd"/><path d="M315.814 20.1311 338.492 20.1311 338.492 42.8083 315.814 42.8083Z" fill="#2A9D8F" fill-rule="evenodd"/><path d="M338.492 20.1311 361.169 20.1311 361.169 42.8083 338.492 42.8083Z" fill="#2A9D8F" fill-rule="evenodd"/><path d="M361.169 20.1311 383.846 20.1311 383.846 42.8083 361.169 42.8083Z" fill="#2A9D8F" fill-rule="evenodd"/><path d="M383.846 20.1311 406.523 20.1311 406.523 42.8083 383.846 42.8083Z" fill="#2A9D8F" fill-rule="evenodd"/><path d="M406.523 20.1311 429.2 20.1311 429.2 42.8083 406.523 42.8083Z" fill="#2A9D8F" fill-rule="evenodd"/><path d="M429.2 20.1311 497.232 20.1311 497.232 42.8083 429.2 42.8083Z" fill="#FFFFFF" fill-rule="evenodd"/><path d="M43.6885 42.8083 66.3657 42.8083 66.3657 65.4855 43.6885 65.4855Z" fill="#2A9D8F" fill-rule="evenodd"/><path d="M66.3657 42.8083 89.0428 42.8083 89.0428 65.4855 66.3657 65.4855Z" fill="#2A9D8F" fill-rule="evenodd"/><path d="M89.0428 42.8083 111.72 42.8083 111.72 65.4855 89.0428 65.4855Z" fill="#2A9D8F" fill-rule="evenodd"/><path d="M111.72 42.8083 134.397 42.8083 134.397 65.4855 111.72 65.4855Z" fill="#2A9D8F" fill-rule="evenodd"/><path d="M134.397 42.8083 157.074 42.8083 157.074 65.4855 134.397 65.4855Z" fill="#2A9D8F" fill-rule="evenodd"/><path d="M157.074 42.8083 179.751 42.8083 179.751 65.4855 157.074 65.4855Z" fill="#2A9D8F" fill-rule="evenodd"/><path d="M179.751 42.8083 202.429 42.8083 202.429 65.4855 179.751 65.4855Z" fill="#2A9D8F" fill-rule="evenodd"/><path d="M202.429 42.8083 225.106 42.8083 225.106 65.4855 202.429 65.4855Z" fill="#2A9D8F" fill-rule="evenodd"/><path d="M225.106 42.8083 247.783 42.8083 247.783 65.4855 225.106 65.4855Z" fill="#2A9D8F" fill-rule="evenodd"/><path d="M247.783 42.8083 270.46 42.8083 270.46 65.4855 247.783 65.4855Z" fill="#2A9D8F" fill-rule="evenodd"/><path d="M270.46 42.8083 293.137 42.8083 293.137 65.4855 270.46 65.4855Z" fill="#2A9D8F" fill-rule="evenodd"/><path d="M293.137 42.8083 315.814 42.8083 315.814 65.4855 293.137 65.4855Z" fill="#2A9D8F" fill-rule="evenodd"/><path d="M315.814 42.8083 338.492 42.8083 338.492 65.4855 315.814 65.4855Z" fill="#2A9D8F" fill-rule="evenodd"/><path d="M338.492 42.8083 361.169 42.8083 361.169 65.4855 338.492 65.4855Z" fill="#2A9D8F" fill-rule="evenodd"/><path d="M361.169 42.8083 383.846 42.8083 383.846 65.4855 361.169 65.4855Z" fill="#2A9D8F" fill-rule="evenodd"/><path d="M383.846 42.8083 406.523 42.8083 406.523 65.4855 383.846 65.4855Z" fill="#2A9D8F" fill-rule="evenodd"/><path d="M406.523 42.8083 429.2 42.8083 429.2 65.4855 406.523 65.4855Z" fill="#2A9D8F" fill-rule="evenodd"/><path d="M429.2 42.8083 451.877 42.8083 451.877 65.4855 429.2 65.4855Z" fill="#2A9D8F" fill-rule="evenodd"/><path d="M451.877 42.8083 474.555 42.8083 474.555 65.4855 451.877 65.4855Z" fill="#2A9D8F" fill-rule="evenodd"/><path d="M474.555 42.8083 497.232 42.8083 497.232 65.4855 474.555 65.4855Z" fill="#2A9D8F" fill-rule="evenodd"/><path d="M43.6885 65.4855 66.3657 65.4855 66.3657 88.1626 43.6885 88.1626Z" fill="#2A9D8F" fill-rule="evenodd"/><path d="M66.3657 65.4855 89.0428 65.4855 89.0428 88.1626 66.3657 88.1626Z" fill="#2A9D8F" fill-rule="evenodd"/><path d="M89.0428 65.4855 111.72 65.4855 111.72 88.1626 89.0428 88.1626Z" fill="#2A9D8F" fill-rule="evenodd"/><path d="M111.72 65.4855 134.397 65.4855 134.397 88.1626 111.72 88.1626Z" fill="#2A9D8F" fill-rule="evenodd"/><path d="M134.397 65.4855 157.074 65.4855 157.074 88.1626 134.397 88.1626Z" fill="#2A9D8F" fill-rule="evenodd"/><path d="M157.074 65.4855 179.751 65.4855 179.751 88.1626 157.074 88.1626Z" fill="#2A9D8F" fill-rule="evenodd"/><path d="M179.751 65.4855 202.429 65.4855 202.429 88.1626 179.751 88.1626Z" fill="#2A9D8F" fill-rule="evenodd"/><path d="M202.429 65.4855 225.106 65.4855 225.106 88.1626 202.429 88.1626Z" fill="#2A9D8F" fill-rule="evenodd"/><path d="M225.106 65.4855 247.783 65.4855 247.783 88.1626 225.106 88.1626Z" fill="#2A9D8F" fill-rule="evenodd"/><path d="M247.783 65.4855 270.46 65.4855 270.46 88.1626 247.783 88.1626Z" fill="#2A9D8F" fill-rule="evenodd"/><path d="M270.46 65.4855 293.137 65.4855 293.137 88.1626 270.46 88.1626Z" fill="#2A9D8F" fill-rule="evenodd"/><path d="M293.137 65.4855 315.814 65.4855 315.814 88.1626 293.137 88.1626Z" fill="#2A9D8F" fill-rule="evenodd"/><path d="M315.814 65.4855 338.492 65.4855 338.492 88.1626 315.814 88.1626Z" fill="#2A9D8F" fill-rule="evenodd"/><path d="M338.492 65.4855 361.169 65.4855 361.169 88.1626 338.492 88.1626Z" fill="#2A9D8F" fill-rule="evenodd"/><path d="M361.169 65.4855 383.846 65.4855 383.846 88.1626 361.169 88.1626Z" fill="#2A9D8F" fill-rule="evenodd"/><path d="M383.846 65.4855 406.523 65.4855 406.523 88.1626 383.846 88.1626Z" fill="#2A9D8F" fill-rule="evenodd"/><path d="M406.523 65.4855 429.2 65.4855 429.2 88.1626 406.523 88.1626Z" fill="#2A9D8F" fill-rule="evenodd"/><path d="M429.2 65.4855 451.877 65.4855 451.877 88.1626 429.2 88.1626Z" fill="#2A9D8F" fill-rule="evenodd"/><path d="M451.877 65.4855 474.555 65.4855 474.555 88.1626 451.877 88.1626Z" fill="#2A9D8F" fill-rule="evenodd"/><path d="M474.555 65.4855 497.232 65.4855 497.232 88.1626 474.555 88.1626Z" fill="#2A9D8F" fill-rule="evenodd"/><path d="M43.6885 88.1626 66.3657 88.1626 66.3657 110.84 43.6885 110.84Z" fill="#2A9D8F" fill-rule="evenodd"/><path d="M66.3657 88.1626 89.0428 88.1626 89.0428 110.84 66.3657 110.84Z" fill="#2A9D8F" fill-rule="evenodd"/><path d="M89.0428 88.1626 111.72 88.1626 111.72 110.84 89.0428 110.84Z" fill="#2A9D8F" fill-rule="evenodd"/><path d="M111.72 88.1626 134.397 88.1626 134.397 110.84 111.72 110.84Z" fill="#2A9D8F" fill-rule="evenodd"/><path d="M134.397 88.1626 157.074 88.1626 157.074 110.84 134.397 110.84Z" fill="#2A9D8F" fill-rule="evenodd"/><path d="M157.074 88.1626 179.751 88.1626 179.751 110.84 157.074 110.84Z" fill="#2A9D8F" fill-rule="evenodd"/><path d="M179.751 88.1626 202.429 88.1626 202.429 110.84 179.751 110.84Z" fill="#2A9D8F" fill-rule="evenodd"/><path d="M202.429 88.1626 225.106 88.1626 225.106 110.84 202.429 110.84Z" fill="#2A9D8F" fill-rule="evenodd"/><path d="M225.106 88.1626 247.783 88.1626 247.783 110.84 225.106 110.84Z" fill="#2A9D8F" fill-rule="evenodd"/><path d="M247.783 88.1626 270.46 88.1626 270.46 110.84 247.783 110.84Z" fill="#2A9D8F" fill-rule="evenodd"/><path d="M270.46 88.1626 293.137 88.1626 293.137 110.84 270.46 110.84Z" fill="#2A9D8F" fill-rule="evenodd"/><path d="M293.137 88.1626 315.814 88.1626 315.814 110.84 293.137 110.84Z" fill="#2A9D8F" fill-rule="evenodd"/><path d="M315.814 88.1626 338.492 88.1626 338.492 110.84 315.814 110.84Z" fill="#2A9D8F" fill-rule="evenodd"/><path d="M338.492 88.1626 361.169 88.1626 361.169 110.84 338.492 110.84Z" fill="#2A9D8F" fill-rule="evenodd"/><path d="M361.169 88.1626 383.846 88.1626 383.846 110.84 361.169 110.84Z" fill="#2A9D8F" fill-rule="evenodd"/><path d="M383.846 88.1626 406.523 88.1626 406.523 110.84 383.846 110.84Z" fill="#2A9D8F" fill-rule="evenodd"/><path d="M406.523 88.1626 429.2 88.1626 429.2 110.84 406.523 110.84Z" fill="#2A9D8F" fill-rule="evenodd"/><path d="M429.2 88.1626 451.877 88.1626 451.877 110.84 429.2 110.84Z" fill="#2A9D8F" fill-rule="evenodd"/><path d="M451.877 88.1626 474.555 88.1626 474.555 110.84 451.877 110.84Z" fill="#2A9D8F" fill-rule="evenodd"/><path d="M474.555 88.1626 497.232 88.1626 497.232 110.84 474.555 110.84Z" fill="#2A9D8F" fill-rule="evenodd"/><path d="M43.6885 110.84 66.3657 110.84 66.3657 133.517 43.6885 133.517Z" fill="#2A9D8F" fill-rule="evenodd"/><path d="M66.3657 110.84 89.0428 110.84 89.0428 133.517 66.3657 133.517Z" fill="#2A9D8F" fill-rule="evenodd"/><path d="M89.0428 110.84 111.72 110.84 111.72 133.517 89.0428 133.517Z" fill="#2A9D8F" fill-rule="evenodd"/><path d="M111.72 110.84 134.397 110.84 134.397 133.517 111.72 133.517Z" fill="#2A9D8F" fill-rule="evenodd"/><path d="M134.397 110.84 157.074 110.84 157.074 133.517 134.397 133.517Z" fill="#2A9D8F" fill-rule="evenodd"/><path d="M157.074 110.84 179.751 110.84 179.751 133.517 157.074 133.517Z" fill="#2A9D8F" fill-rule="evenodd"/><path d="M179.751 110.84 202.429 110.84 202.429 133.517 179.751 133.517Z" fill="#2A9D8F" fill-rule="evenodd"/><path d="M202.429 110.84 225.106 110.84 225.106 133.517 202.429 133.517Z" fill="#2A9D8F" fill-rule="evenodd"/><path d="M225.106 110.84 247.783 110.84 247.783 133.517 225.106 133.517Z" fill="#2A9D8F" fill-rule="evenodd"/><path d="M247.783 110.84 270.46 110.84 270.46 133.517 247.783 133.517Z" fill="#2A9D8F" fill-rule="evenodd"/><path d="M270.46 110.84 293.137 110.84 293.137 133.517 270.46 133.517Z" fill="#2A9D8F" fill-rule="evenodd"/><path d="M293.137 110.84 315.814 110.84 315.814 133.517 293.137 133.517Z" fill="#2A9D8F" fill-rule="evenodd"/><path d="M315.814 110.84 338.492 110.84 338.492 133.517 315.814 133.517Z" fill="#2A9D8F" fill-rule="evenodd"/><path d="M338.492 110.84 361.169 110.84 361.169 133.517 338.492 133.517Z" fill="#2A9D8F" fill-rule="evenodd"/><path d="M361.169 110.84 383.846 110.84 383.846 133.517 361.169 133.517Z" fill="#2A9D8F" fill-rule="evenodd"/><path d="M383.846 110.84 406.523 110.84 406.523 133.517 383.846 133.517Z" fill="#2A9D8F" fill-rule="evenodd"/><path d="M406.523 110.84 429.2 110.84 429.2 133.517 406.523 133.517Z" fill="#2A9D8F" fill-rule="evenodd"/><path d="M429.2 110.84 451.877 110.84 451.877 133.517 429.2 133.517Z" fill="#2A9D8F" fill-rule="evenodd"/><path d="M451.877 110.84 474.555 110.84 474.555 133.517 451.877 133.517Z" fill="#2A9D8F" fill-rule="evenodd"/><path d="M474.555 110.84 497.232 110.84 497.232 133.517 474.555 133.517Z" fill="#2A9D8F" fill-rule="evenodd"/><path d="M43.6885 133.517 66.3657 133.517 66.3657 156.194 43.6885 156.194Z" fill="#2A9D8F" fill-rule="evenodd"/><path d="M66.3657 133.517 89.0428 133.517 89.0428 156.194 66.3657 156.194Z" fill="#2A9D8F" fill-rule="evenodd"/><path d="M89.0428 133.517 111.72 133.517 111.72 156.194 89.0428 156.194Z" fill="#2A9D8F" fill-rule="evenodd"/><path d="M111.72 133.517 134.397 133.517 134.397 156.194 111.72 156.194Z" fill="#2A9D8F" fill-rule="evenodd"/><path d="M134.397 133.517 157.074 133.517 157.074 156.194 134.397 156.194Z" fill="#2A9D8F" fill-rule="evenodd"/><path d="M157.074 133.517 179.751 133.517 179.751 156.194 157.074 156.194Z" fill="#2A9D8F" fill-rule="evenodd"/><path d="M179.751 133.517 202.429 133.517 202.429 156.194 179.751 156.194Z" fill="#2A9D8F" fill-rule="evenodd"/><path d="M202.429 133.517 225.106 133.517 225.106 156.194 202.429 156.194Z" fill="#2A9D8F" fill-rule="evenodd"/><path d="M225.106 133.517 247.783 133.517 247.783 156.194 225.106 156.194Z" fill="#2A9D8F" fill-rule="evenodd"/><path d="M247.783 133.517 270.46 133.517 270.46 156.194 247.783 156.194Z" fill="#2A9D8F" fill-rule="evenodd"/><path d="M270.46 133.517 293.137 133.517 293.137 156.194 270.46 156.194Z" fill="#2A9D8F" fill-rule="evenodd"/><path d="M293.137 133.517 315.814 133.517 315.814 156.194 293.137 156.194Z" fill="#2A9D8F" fill-rule="evenodd"/><path d="M315.814 133.517 338.492 133.517 338.492 156.194 315.814 156.194Z" fill="#2A9D8F" fill-rule="evenodd"/><path d="M338.492 133.517 361.169 133.517 361.169 156.194 338.492 156.194Z" fill="#2A9D8F" fill-rule="evenodd"/><path d="M361.169 133.517 383.846 133.517 383.846 156.194 361.169 156.194Z" fill="#2A9D8F" fill-rule="evenodd"/><path d="M383.846 133.517 406.523 133.517 406.523 156.194 383.846 156.194Z" fill="#2A9D8F" fill-rule="evenodd"/><path d="M406.523 133.517 429.2 133.517 429.2 156.194 406.523 156.194Z" fill="#2A9D8F" fill-rule="evenodd"/><path d="M429.2 133.517 451.877 133.517 451.877 156.194 429.2 156.194Z" fill="#2A9D8F" fill-rule="evenodd"/><path d="M451.877 133.517 474.555 133.517 474.555 156.194 451.877 156.194Z" fill="#2A9D8F" fill-rule="evenodd"/><path d="M474.555 133.517 497.232 133.517 497.232 156.194 474.555 156.194Z" fill="#2A9D8F" fill-rule="evenodd"/><path d="M43.6885 156.194 66.3657 156.194 66.3657 178.871 43.6885 178.871Z" fill="#2A9D8F" fill-rule="evenodd"/><path d="M66.3657 156.194 89.0428 156.194 89.0428 178.871 66.3657 178.871Z" fill="#2A9D8F" fill-rule="evenodd"/><path d="M89.0428 156.194 111.72 156.194 111.72 178.871 89.0428 178.871Z" fill="#2A9D8F" fill-rule="evenodd"/><path d="M111.72 156.194 134.397 156.194 134.397 178.871 111.72 178.871Z" fill="#2A9D8F" fill-rule="evenodd"/><path d="M134.397 156.194 157.074 156.194 157.074 178.871 134.397 178.871Z" fill="#2A9D8F" fill-rule="evenodd"/><path d="M157.074 156.194 179.751 156.194 179.751 178.871 157.074 178.871Z" fill="#2A9D8F" fill-rule="evenodd"/><path d="M179.751 156.194 202.429 156.194 202.429 178.871 179.751 178.871Z" fill="#2A9D8F" fill-rule="evenodd"/><path d="M202.429 156.194 225.106 156.194 225.106 178.871 202.429 178.871Z" fill="#2A9D8F" fill-rule="evenodd"/><path d="M225.106 156.194 247.783 156.194 247.783 178.871 225.106 178.871Z" fill="#2A9D8F" fill-rule="evenodd"/><path d="M247.783 156.194 270.46 156.194 270.46 178.871 247.783 178.871Z" fill="#2A9D8F" fill-rule="evenodd"/><path d="M270.46 156.194 293.137 156.194 293.137 178.871 270.46 178.871Z" fill="#2A9D8F" fill-rule="evenodd"/><path d="M293.137 156.194 315.814 156.194 315.814 178.871 293.137 178.871Z" fill="#2A9D8F" fill-rule="evenodd"/><path d="M315.814 156.194 338.492 156.194 338.492 178.871 315.814 178.871Z" fill="#2A9D8F" fill-rule="evenodd"/><path d="M338.492 156.194 361.169 156.194 361.169 178.871 338.492 178.871Z" fill="#2A9D8F" fill-rule="evenodd"/><path d="M361.169 156.194 383.846 156.194 383.846 178.871 361.169 178.871Z" fill="#2A9D8F" fill-rule="evenodd"/><path d="M383.846 156.194 406.523 156.194 406.523 178.871 383.846 178.871Z" fill="#2A9D8F" fill-rule="evenodd"/><path d="M406.523 156.194 429.2 156.194 429.2 178.871 406.523 178.871Z" fill="#2A9D8F" fill-rule="evenodd"/><path d="M429.2 156.194 451.877 156.194 451.877 178.871 429.2 178.871Z" fill="#2A9D8F" fill-rule="evenodd"/><path d="M451.877 156.194 474.555 156.194 474.555 178.871 451.877 178.871Z" fill="#2A9D8F" fill-rule="evenodd"/><path d="M474.555 156.194 497.232 156.194 497.232 178.871 474.555 178.871Z" fill="#2A9D8F" fill-rule="evenodd"/><path d="M43.6885 178.871 66.3657 178.871 66.3657 201.548 43.6885 201.548Z" fill="#2A9D8F" fill-rule="evenodd"/><path d="M66.3657 178.871 89.0428 178.871 89.0428 201.548 66.3657 201.548Z" fill="#2A9D8F" fill-rule="evenodd"/><path d="M89.0428 178.871 111.72 178.871 111.72 201.548 89.0428 201.548Z" fill="#2A9D8F" fill-rule="evenodd"/><path d="M111.72 178.871 134.397 178.871 134.397 201.548 111.72 201.548Z" fill="#2A9D8F" fill-rule="evenodd"/><path d="M134.397 178.871 157.074 178.871 157.074 201.548 134.397 201.548Z" fill="#2A9D8F" fill-rule="evenodd"/><path d="M157.074 178.871 179.751 178.871 179.751 201.548 157.074 201.548Z" fill="#2A9D8F" fill-rule="evenodd"/><path d="M179.751 178.871 202.429 178.871 202.429 201.548 179.751 201.548Z" fill="#2A9D8F" fill-rule="evenodd"/><path d="M202.429 178.871 225.106 178.871 225.106 201.548 202.429 201.548Z" fill="#2A9D8F" fill-rule="evenodd"/><path d="M225.106 178.871 247.783 178.871 247.783 201.548 225.106 201.548Z" fill="#2A9D8F" fill-rule="evenodd"/><path d="M247.783 178.871 270.46 178.871 270.46 201.548 247.783 201.548Z" fill="#2A9D8F" fill-rule="evenodd"/><path d="M270.46 178.871 293.137 178.871 293.137 201.548 270.46 201.548Z" fill="#2A9D8F" fill-rule="evenodd"/><path d="M293.137 178.871 315.814 178.871 315.814 201.548 293.137 201.548Z" fill="#2A9D8F" fill-rule="evenodd"/><path d="M315.814 178.871 338.492 178.871 338.492 201.548 315.814 201.548Z" fill="#2A9D8F" fill-rule="evenodd"/><path d="M338.492 178.871 361.169 178.871 361.169 201.548 338.492 201.548Z" fill="#2A9D8F" fill-rule="evenodd"/><path d="M361.169 178.871 383.846 178.871 383.846 201.548 361.169 201.548Z" fill="#2A9D8F" fill-rule="evenodd"/><path d="M383.846 178.871 406.523 178.871 406.523 201.548 383.846 201.548Z" fill="#2A9D8F" fill-rule="evenodd"/><path d="M406.523 178.871 429.2 178.871 429.2 201.548 406.523 201.548Z" fill="#2A9D8F" fill-rule="evenodd"/><path d="M429.2 178.871 451.877 178.871 451.877 201.548 429.2 201.548Z" fill="#2A9D8F" fill-rule="evenodd"/><path d="M451.877 178.871 474.555 178.871 474.555 201.548 451.877 201.548Z" fill="#2A9D8F" fill-rule="evenodd"/><path d="M474.555 178.871 497.232 178.871 497.232 201.548 474.555 201.548Z" fill="#2A9D8F" fill-rule="evenodd"/><path d="M43.6885 201.548 66.3657 201.548 66.3657 224.226 43.6885 224.226Z" fill="#2A9D8F" fill-rule="evenodd"/><path d="M66.3657 201.548 89.0428 201.548 89.0428 224.226 66.3657 224.226Z" fill="#2A9D8F" fill-rule="evenodd"/><path d="M89.0428 201.548 111.72 201.548 111.72 224.226 89.0428 224.226Z" fill="#2A9D8F" fill-rule="evenodd"/><path d="M111.72 201.548 134.397 201.548 134.397 224.226 111.72 224.226Z" fill="#2A9D8F" fill-rule="evenodd"/><path d="M134.397 201.548 157.074 201.548 157.074 224.226 134.397 224.226Z" fill="#2A9D8F" fill-rule="evenodd"/><path d="M157.074 201.548 179.751 201.548 179.751 224.226 157.074 224.226Z" fill="#2A9D8F" fill-rule="evenodd"/><path d="M179.751 201.548 202.429 201.548 202.429 224.226 179.751 224.226Z" fill="#2A9D8F" fill-rule="evenodd"/><path d="M202.429 201.548 225.106 201.548 225.106 224.226 202.429 224.226Z" fill="#2A9D8F" fill-rule="evenodd"/><path d="M225.106 201.548 247.783 201.548 247.783 224.226 225.106 224.226Z" fill="#2A9D8F" fill-rule="evenodd"/><path d="M247.783 201.548 270.46 201.548 270.46 224.226 247.783 224.226Z" fill="#2A9D8F" fill-rule="evenodd"/><path d="M270.46 201.548 293.137 201.548 293.137 224.226 270.46 224.226Z" fill="#2A9D8F" fill-rule="evenodd"/><path d="M293.137 201.548 315.814 201.548 315.814 224.226 293.137 224.226Z" fill="#2A9D8F" fill-rule="evenodd"/><path d="M315.814 201.548 338.492 201.548 338.492 224.226 315.814 224.226Z" fill="#2A9D8F" fill-rule="evenodd"/><path d="M338.492 201.548 361.169 201.548 361.169 224.226 338.492 224.226Z" fill="#2A9D8F" fill-rule="evenodd"/><path d="M361.169 201.548 383.846 201.548 383.846 224.226 361.169 224.226Z" fill="#2A9D8F" fill-rule="evenodd"/><path d="M383.846 201.548 406.523 201.548 406.523 224.226 383.846 224.226Z" fill="#2A9D8F" fill-rule="evenodd"/><path d="M406.523 201.548 429.2 201.548 429.2 224.226 406.523 224.226Z" fill="#2A9D8F" fill-rule="evenodd"/><path d="M429.2 201.548 451.877 201.548 451.877 224.226 429.2 224.226Z" fill="#2A9D8F" fill-rule="evenodd"/><path d="M451.877 201.548 474.555 201.548 474.555 224.226 451.877 224.226Z" fill="#2A9D8F" fill-rule="evenodd"/><path d="M474.555 201.548 497.232 201.548 497.232 224.226 474.555 224.226Z" fill="#2A9D8F" fill-rule="evenodd"/><path d="M43.6885 224.226 66.3657 224.226 66.3657 246.903 43.6885 246.903Z" fill="#2A9D8F" fill-rule="evenodd"/><path d="M66.3657 224.226 89.0428 224.226 89.0428 246.903 66.3657 246.903Z" fill="#2A9D8F" fill-rule="evenodd"/><path d="M89.0428 224.226 111.72 224.226 111.72 246.903 89.0428 246.903Z" fill="#2A9D8F" fill-rule="evenodd"/><path d="M111.72 224.226 134.397 224.226 134.397 246.903 111.72 246.903Z" fill="#2A9D8F" fill-rule="evenodd"/><path d="M134.397 224.226 157.074 224.226 157.074 246.903 134.397 246.903Z" fill="#2A9D8F" fill-rule="evenodd"/><path d="M157.074 224.226 179.751 224.226 179.751 246.903 157.074 246.903Z" fill="#2A9D8F" fill-rule="evenodd"/><path d="M179.751 224.226 202.429 224.226 202.429 246.903 179.751 246.903Z" fill="#2A9D8F" fill-rule="evenodd"/><path d="M202.429 224.226 225.106 224.226 225.106 246.903 202.429 246.903Z" fill="#2A9D8F" fill-rule="evenodd"/><path d="M225.106 224.226 247.783 224.226 247.783 246.903 225.106 246.903Z" fill="#2A9D8F" fill-rule="evenodd"/><path d="M247.783 224.226 270.46 224.226 270.46 246.903 247.783 246.903Z" fill="#2A9D8F" fill-rule="evenodd"/><path d="M270.46 224.226 293.137 224.226 293.137 246.903 270.46 246.903Z" fill="#2A9D8F" fill-rule="evenodd"/><path d="M293.137 224.226 315.814 224.226 315.814 246.903 293.137 246.903Z" fill="#2A9D8F" fill-rule="evenodd"/><path d="M315.814 224.226 338.492 224.226 338.492 246.903 315.814 246.903Z" fill="#2A9D8F" fill-rule="evenodd"/><path d="M338.492 224.226 361.169 224.226 361.169 246.903 338.492 246.903Z" fill="#2A9D8F" fill-rule="evenodd"/><path d="M361.169 224.226 383.846 224.226 383.846 246.903 361.169 246.903Z" fill="#2A9D8F" fill-rule="evenodd"/><path d="M383.846 224.226 406.523 224.226 406.523 246.903 383.846 246.903Z" fill="#2A9D8F" fill-rule="evenodd"/><path d="M406.523 224.226 429.2 224.226 429.2 246.903 406.523 246.903Z" fill="#2A9D8F" fill-rule="evenodd"/><path d="M429.2 224.226 451.877 224.226 451.877 246.903 429.2 246.903Z" fill="#2A9D8F" fill-rule="evenodd"/><path d="M451.877 224.226 474.555 224.226 474.555 246.903 451.877 246.903Z" fill="#2A9D8F" fill-rule="evenodd"/><path d="M474.555 224.226 497.232 224.226 497.232 246.903 474.555 246.903Z" fill="#2A9D8F" fill-rule="evenodd"/><path d="M43.6885 246.903 66.3657 246.903 66.3657 269.58 43.6885 269.58Z" fill="#2A9D8F" fill-rule="evenodd"/><path d="M66.3657 246.903 89.0428 246.903 89.0428 269.58 66.3657 269.58Z" fill="#2A9D8F" fill-rule="evenodd"/><path d="M89.0428 246.903 111.72 246.903 111.72 269.58 89.0428 269.58Z" fill="#2A9D8F" fill-rule="evenodd"/><path d="M111.72 246.903 134.397 246.903 134.397 269.58 111.72 269.58Z" fill="#2A9D8F" fill-rule="evenodd"/><path d="M134.397 246.903 157.074 246.903 157.074 269.58 134.397 269.58Z" fill="#2A9D8F" fill-rule="evenodd"/><path d="M157.074 246.903 179.751 246.903 179.751 269.58 157.074 269.58Z" fill="#2A9D8F" fill-rule="evenodd"/><path d="M179.751 246.903 202.429 246.903 202.429 269.58 179.751 269.58Z" fill="#2A9D8F" fill-rule="evenodd"/><path d="M202.429 246.903 225.106 246.903 225.106 269.58 202.429 269.58Z" fill="#2A9D8F" fill-rule="evenodd"/><path d="M225.106 246.903 247.783 246.903 247.783 269.58 225.106 269.58Z" fill="#2A9D8F" fill-rule="evenodd"/><path d="M247.783 246.903 270.46 246.903 270.46 269.58 247.783 269.58Z" fill="#2A9D8F" fill-rule="evenodd"/><path d="M270.46 246.903 293.137 246.903 293.137 269.58 270.46 269.58Z" fill="#2A9D8F" fill-rule="evenodd"/><path d="M293.137 246.903 315.814 246.903 315.814 269.58 293.137 269.58Z" fill="#2A9D8F" fill-rule="evenodd"/><path d="M315.814 246.903 338.492 246.903 338.492 269.58 315.814 269.58Z" fill="#2A9D8F" fill-rule="evenodd"/><path d="M338.492 246.903 361.169 246.903 361.169 269.58 338.492 269.58Z" fill="#2A9D8F" fill-rule="evenodd"/><path d="M361.169 246.903 383.846 246.903 383.846 269.58 361.169 269.58Z" fill="#2A9D8F" fill-rule="evenodd"/><path d="M383.846 246.903 406.523 246.903 406.523 269.58 383.846 269.58Z" fill="#2A9D8F" fill-rule="evenodd"/><path d="M406.523 246.903 429.2 246.903 429.2 269.58 406.523 269.58Z" fill="#2A9D8F" fill-rule="evenodd"/><path d="M429.2 246.903 451.877 246.903 451.877 269.58 429.2 269.58Z" fill="#2A9D8F" fill-rule="evenodd"/><path d="M451.877 246.903 474.555 246.903 474.555 269.58 451.877 269.58Z" fill="#2A9D8F" fill-rule="evenodd"/><path d="M474.555 246.903 497.232 246.903 497.232 269.58 474.555 269.58Z" fill="#2A9D8F" fill-rule="evenodd"/><path d="M43.6885 269.58 66.3657 269.58 66.3657 292.257 43.6885 292.257Z" fill="#2A9D8F" fill-rule="evenodd"/><path d="M66.3657 269.58 89.0428 269.58 89.0428 292.257 66.3657 292.257Z" fill="#2A9D8F" fill-rule="evenodd"/><path d="M89.0428 269.58 111.72 269.58 111.72 292.257 89.0428 292.257Z" fill="#2A9D8F" fill-rule="evenodd"/><path d="M111.72 269.58 134.397 269.58 134.397 292.257 111.72 292.257Z" fill="#2A9D8F" fill-rule="evenodd"/><path d="M134.397 269.58 157.074 269.58 157.074 292.257 134.397 292.257Z" fill="#2A9D8F" fill-rule="evenodd"/><path d="M157.074 269.58 179.751 269.58 179.751 292.257 157.074 292.257Z" fill="#2A9D8F" fill-rule="evenodd"/><path d="M179.751 269.58 202.429 269.58 202.429 292.257 179.751 292.257Z" fill="#2A9D8F" fill-rule="evenodd"/><path d="M202.429 269.58 225.106 269.58 225.106 292.257 202.429 292.257Z" fill="#2A9D8F" fill-rule="evenodd"/><path d="M225.106 269.58 247.783 269.58 247.783 292.257 225.106 292.257Z" fill="#2A9D8F" fill-rule="evenodd"/><path d="M247.783 269.58 270.46 269.58 270.46 292.257 247.783 292.257Z" fill="#2A9D8F" fill-rule="evenodd"/><path d="M270.46 269.58 293.137 269.58 293.137 292.257 270.46 292.257Z" fill="#2A9D8F" fill-rule="evenodd"/><path d="M293.137 269.58 315.814 269.58 315.814 292.257 293.137 292.257Z" fill="#2A9D8F" fill-rule="evenodd"/><path d="M315.814 269.58 338.492 269.58 338.492 292.257 315.814 292.257Z" fill="#2A9D8F" fill-rule="evenodd"/><path d="M338.492 269.58 361.169 269.58 361.169 292.257 338.492 292.257Z" fill="#2A9D8F" fill-rule="evenodd"/><path d="M361.169 269.58 383.846 269.58 383.846 292.257 361.169 292.257Z" fill="#2A9D8F" fill-rule="evenodd"/><path d="M383.846 269.58 406.523 269.58 406.523 292.257 383.846 292.257Z" fill="#2A9D8F" fill-rule="evenodd"/><path d="M406.523 269.58 429.2 269.58 429.2 292.257 406.523 292.257Z" fill="#2A9D8F" fill-rule="evenodd"/><path d="M429.2 269.58 451.877 269.58 451.877 292.257 429.2 292.257Z" fill="#2A9D8F" fill-rule="evenodd"/><path d="M451.877 269.58 474.555 269.58 474.555 292.257 451.877 292.257Z" fill="#2A9D8F" fill-rule="evenodd"/><path d="M474.555 269.58 497.232 269.58 497.232 292.257 474.555 292.257Z" fill="#2A9D8F" fill-rule="evenodd"/><path d="M43.6885 292.257 66.3657 292.257 66.3657 314.934 43.6885 314.934Z" fill="#2A9D8F" fill-rule="evenodd"/><path d="M66.3657 292.257 89.0428 292.257 89.0428 314.934 66.3657 314.934Z" fill="#2A9D8F" fill-rule="evenodd"/><path d="M89.0428 292.257 111.72 292.257 111.72 314.934 89.0428 314.934Z" fill="#2A9D8F" fill-rule="evenodd"/><path d="M111.72 292.257 134.397 292.257 134.397 314.934 111.72 314.934Z" fill="#2A9D8F" fill-rule="evenodd"/><path d="M134.397 292.257 157.074 292.257 157.074 314.934 134.397 314.934Z" fill="#2A9D8F" fill-rule="evenodd"/><path d="M157.074 292.257 179.751 292.257 179.751 314.934 157.074 314.934Z" fill="#2A9D8F" fill-rule="evenodd"/><path d="M179.751 292.257 202.429 292.257 202.429 314.934 179.751 314.934Z" fill="#2A9D8F" fill-rule="evenodd"/><path d="M202.429 292.257 225.106 292.257 225.106 314.934 202.429 314.934Z" fill="#2A9D8F" fill-rule="evenodd"/><path d="M225.106 292.257 247.783 292.257 247.783 314.934 225.106 314.934Z" fill="#2A9D8F" fill-rule="evenodd"/><path d="M247.783 292.257 270.46 292.257 270.46 314.934 247.783 314.934Z" fill="#2A9D8F" fill-rule="evenodd"/><path d="M270.46 292.257 293.137 292.257 293.137 314.934 270.46 314.934Z" fill="#2A9D8F" fill-rule="evenodd"/><path d="M293.137 292.257 315.814 292.257 315.814 314.934 293.137 314.934Z" fill="#2A9D8F" fill-rule="evenodd"/><path d="M315.814 292.257 338.492 292.257 338.492 314.934 315.814 314.934Z" fill="#2A9D8F" fill-rule="evenodd"/><path d="M338.492 292.257 361.169 292.257 361.169 314.934 338.492 314.934Z" fill="#2A9D8F" fill-rule="evenodd"/><path d="M361.169 292.257 383.846 292.257 383.846 314.934 361.169 314.934Z" fill="#2A9D8F" fill-rule="evenodd"/><path d="M383.846 292.257 406.523 292.257 406.523 314.934 383.846 314.934Z" fill="#2A9D8F" fill-rule="evenodd"/><path d="M406.523 292.257 429.2 292.257 429.2 314.934 406.523 314.934Z" fill="#2A9D8F" fill-rule="evenodd"/><path d="M429.2 292.257 451.877 292.257 451.877 314.934 429.2 314.934Z" fill="#2A9D8F" fill-rule="evenodd"/><path d="M451.877 292.257 474.555 292.257 474.555 314.934 451.877 314.934Z" fill="#2A9D8F" fill-rule="evenodd"/><path d="M474.555 292.257 497.232 292.257 497.232 314.934 474.555 314.934Z" fill="#2A9D8F" fill-rule="evenodd"/><path d="M43.6885 314.934 66.3657 314.934 66.3657 337.611 43.6885 337.611Z" fill="#2A9D8F" fill-rule="evenodd"/><path d="M66.3657 314.934 89.0428 314.934 89.0428 337.611 66.3657 337.611Z" fill="#2A9D8F" fill-rule="evenodd"/><path d="M89.0428 314.934 111.72 314.934 111.72 337.611 89.0428 337.611Z" fill="#2A9D8F" fill-rule="evenodd"/><path d="M111.72 314.934 134.397 314.934 134.397 337.611 111.72 337.611Z" fill="#2A9D8F" fill-rule="evenodd"/><path d="M134.397 314.934 157.074 314.934 157.074 337.611 134.397 337.611Z" fill="#2A9D8F" fill-rule="evenodd"/><path d="M157.074 314.934 179.751 314.934 179.751 337.611 157.074 337.611Z" fill="#2A9D8F" fill-rule="evenodd"/><path d="M179.751 314.934 202.429 314.934 202.429 337.611 179.751 337.611Z" fill="#2A9D8F" fill-rule="evenodd"/><path d="M202.429 314.934 225.106 314.934 225.106 337.611 202.429 337.611Z" fill="#2A9D8F" fill-rule="evenodd"/><path d="M225.106 314.934 247.783 314.934 247.783 337.611 225.106 337.611Z" fill="#2A9D8F" fill-rule="evenodd"/><path d="M247.783 314.934 270.46 314.934 270.46 337.611 247.783 337.611Z" fill="#2A9D8F" fill-rule="evenodd"/><path d="M270.46 314.934 293.137 314.934 293.137 337.611 270.46 337.611Z" fill="#2A9D8F" fill-rule="evenodd"/><path d="M293.137 314.934 315.814 314.934 315.814 337.611 293.137 337.611Z" fill="#2A9D8F" fill-rule="evenodd"/><path d="M315.814 314.934 338.492 314.934 338.492 337.611 315.814 337.611Z" fill="#2A9D8F" fill-rule="evenodd"/><path d="M338.492 314.934 361.169 314.934 361.169 337.611 338.492 337.611Z" fill="#2A9D8F" fill-rule="evenodd"/><path d="M361.169 314.934 383.846 314.934 383.846 337.611 361.169 337.611Z" fill="#2A9D8F" fill-rule="evenodd"/><path d="M383.846 314.934 406.523 314.934 406.523 337.611 383.846 337.611Z" fill="#2A9D8F" fill-rule="evenodd"/><path d="M406.523 314.934 429.2 314.934 429.2 337.611 406.523 337.611Z" fill="#2A9D8F" fill-rule="evenodd"/><path d="M429.2 314.934 451.877 314.934 451.877 337.611 429.2 337.611Z" fill="#2A9D8F" fill-rule="evenodd"/><path d="M451.877 314.934 474.555 314.934 474.555 337.611 451.877 337.611Z" fill="#2A9D8F" fill-rule="evenodd"/><path d="M474.555 314.934 497.232 314.934 497.232 337.611 474.555 337.611Z" fill="#2A9D8F" fill-rule="evenodd"/><path d="M66.3657 19.4645 66.3657 338.278" stroke="#000000" stroke-width="1.33333" stroke-linejoin="round" stroke-miterlimit="10" fill="none" fill-rule="evenodd"/><path d="M89.0428 19.4645 89.0428 338.278" stroke="#000000" stroke-width="1.33333" stroke-linejoin="round" stroke-miterlimit="10" fill="none" fill-rule="evenodd"/><path d="M111.72 19.4645 111.72 338.278" stroke="#000000" stroke-width="1.33333" stroke-linejoin="round" stroke-miterlimit="10" fill="none" fill-rule="evenodd"/><path d="M134.397 19.4645 134.397 338.278" stroke="#000000" stroke-width="1.33333" stroke-linejoin="round" stroke-miterlimit="10" fill="none" fill-rule="evenodd"/><path d="M157.074 19.4645 157.074 338.278" stroke="#000000" stroke-width="1.33333" stroke-linejoin="round" stroke-miterlimit="10" fill="none" fill-rule="evenodd"/><path d="M179.751 19.4645 179.751 338.278" stroke="#000000" stroke-width="1.33333" stroke-linejoin="round" stroke-miterlimit="10" fill="none" fill-rule="evenodd"/><path d="M202.429 19.4645 202.429 338.278" stroke="#000000" stroke-width="1.33333" stroke-linejoin="round" stroke-miterlimit="10" fill="none" fill-rule="evenodd"/><path d="M225.106 19.4645 225.106 338.278" stroke="#000000" stroke-width="1.33333" stroke-linejoin="round" stroke-miterlimit="10" fill="none" fill-rule="evenodd"/><path d="M247.783 19.4645 247.783 338.278" stroke="#000000" stroke-width="1.33333" stroke-linejoin="round" stroke-miterlimit="10" fill="none" fill-rule="evenodd"/><path d="M270.46 19.4645 270.46 338.278" stroke="#000000" stroke-width="1.33333" stroke-linejoin="round" stroke-miterlimit="10" fill="none" fill-rule="evenodd"/><path d="M293.137 19.4645 293.137 338.278" stroke="#000000" stroke-width="1.33333" stroke-linejoin="round" stroke-miterlimit="10" fill="none" fill-rule="evenodd"/><path d="M315.814 19.4645 315.814 338.278" stroke="#000000" stroke-width="1.33333" stroke-linejoin="round" stroke-miterlimit="10" fill="none" fill-rule="evenodd"/><path d="M338.492 19.4645 338.492 338.278" stroke="#000000" stroke-width="1.33333" stroke-linejoin="round" stroke-miterlimit="10" fill="none" fill-rule="evenodd"/><path d="M361.169 19.4645 361.169 338.278" stroke="#000000" stroke-width="1.33333" stroke-linejoin="round" stroke-miterlimit="10" fill="none" fill-rule="evenodd"/><path d="M383.846 19.4645 383.846 338.278" stroke="#000000" stroke-width="1.33333" stroke-linejoin="round" stroke-miterlimit="10" fill="none" fill-rule="evenodd"/><path d="M406.523 19.4645 406.523 338.278" stroke="#000000" stroke-width="1.33333" stroke-linejoin="round" stroke-miterlimit="10" fill="none" fill-rule="evenodd"/><path d="M429.2 19.4645 429.2 338.278" stroke="#000000" stroke-width="1.33333" stroke-linejoin="round" stroke-miterlimit="10" fill="none" fill-rule="evenodd"/><path d="M451.877 42.1416 451.877 338.278" stroke="#000000" stroke-width="1.33333" stroke-linejoin="round" stroke-miterlimit="10" fill="none" fill-rule="evenodd"/><path d="M474.555 42.1416 474.555 338.278" stroke="#000000" stroke-width="1.33333" stroke-linejoin="round" stroke-miterlimit="10" fill="none" fill-rule="evenodd"/><path d="M43.0218 42.8083 497.898 42.8083" stroke="#000000" stroke-width="1.33333" stroke-linejoin="round" stroke-miterlimit="10" fill="none" fill-rule="evenodd"/><path d="M43.0218 65.4855 497.898 65.4855" stroke="#000000" stroke-width="1.33333" stroke-linejoin="round" stroke-miterlimit="10" fill="none" fill-rule="evenodd"/><path d="M43.0218 88.1626 497.898 88.1626" stroke="#000000" stroke-width="1.33333" stroke-linejoin="round" stroke-miterlimit="10" fill="none" fill-rule="evenodd"/><path d="M43.0218 110.84 497.898 110.84" stroke="#000000" stroke-width="1.33333" stroke-linejoin="round" stroke-miterlimit="10" fill="none" fill-rule="evenodd"/><path d="M43.0218 133.517 497.898 133.517" stroke="#000000" stroke-width="1.33333" stroke-linejoin="round" stroke-miterlimit="10" fill="none" fill-rule="evenodd"/><path d="M43.0218 156.194 497.898 156.194" stroke="#000000" stroke-width="1.33333" stroke-linejoin="round" stroke-miterlimit="10" fill="none" fill-rule="evenodd"/><path d="M43.0218 178.871 497.898 178.871" stroke="#000000" stroke-width="1.33333" stroke-linejoin="round" stroke-miterlimit="10" fill="none" fill-rule="evenodd"/><path d="M43.0218 201.548 497.898 201.548" stroke="#000000" stroke-width="1.33333" stroke-linejoin="round" stroke-miterlimit="10" fill="none" fill-rule="evenodd"/><path d="M43.0218 224.226 497.898 224.226" stroke="#000000" stroke-width="1.33333" stroke-linejoin="round" stroke-miterlimit="10" fill="none" fill-rule="evenodd"/><path d="M43.0218 246.903 497.898 246.903" stroke="#000000" stroke-width="1.33333" stroke-linejoin="round" stroke-miterlimit="10" fill="none" fill-rule="evenodd"/><path d="M43.0218 269.58 497.898 269.58" stroke="#000000" stroke-width="1.33333" stroke-linejoin="round" stroke-miterlimit="10" fill="none" fill-rule="evenodd"/><path d="M43.0218 292.257 497.898 292.257" stroke="#000000" stroke-width="1.33333" stroke-linejoin="round" stroke-miterlimit="10" fill="none" fill-rule="evenodd"/><path d="M43.0218 314.934 497.898 314.934" stroke="#000000" stroke-width="1.33333" stroke-linejoin="round" stroke-miterlimit="10" fill="none" fill-rule="evenodd"/><path d="M43.6885 19.4645 43.6885 338.278" stroke="#000000" stroke-width="1.33333" stroke-linejoin="round" stroke-miterlimit="10" fill="none" fill-rule="evenodd"/><path d="M497.232 42.1416 497.232 338.278" stroke="#000000" stroke-width="1.33333" stroke-linejoin="round" stroke-miterlimit="10" fill="none" fill-rule="evenodd"/><path d="M43.0218 20.1311 429.867 20.1311" stroke="#000000" stroke-width="1.33333" stroke-linejoin="round" stroke-miterlimit="10" fill="none" fill-rule="evenodd"/><path d="M43.0218 337.611 497.898 337.611" stroke="#000000" stroke-width="1.33333" stroke-linejoin="round" stroke-miterlimit="10" fill="none" fill-rule="evenodd"/><text font-family="Calibri,Calibri_MSFontService,sans-serif" font-weight="700" font-size="24" transform="translate(196.737 364)">Charismatisme<tspan font-size="24" x="36.14" y="29">(27,7</tspan><tspan font-size="24" x="86.3067" y="29">%)</tspan></text></g></svg>