<svg width="457" height="162" xmlns="http://www.w3.org/2000/svg" xmlns:xlink="http://www.w3.org/1999/xlink" overflow="hidden"><defs><clipPath id="clip0"><rect x="21" y="227" width="457" height="162"/></clipPath></defs><g clip-path="url(#clip0)" transform="translate(-21 -227)"><text font-family="Calibri,Calibri_MSFontService,sans-serif" font-weight="700" font-size="21" transform="translate(192.68 344)">Méthodisme<tspan font-size="21" x="28.3467" y="25">(6,4%)</tspan></text><path d="M22.2514 228.262 44.9286 228.262 44.9286 250.939 22.2514 250.939Z" fill="#2A9D8F" fill-rule="evenodd"/><path d="M44.9286 228.262 67.6058 228.262 67.6058 250.939 44.9286 250.939Z" fill="#2A9D8F" fill-rule="evenodd"/><path d="M67.6058 228.262 90.2829 228.262 90.2829 250.939 67.6058 250.939Z" fill="#2A9D8F" fill-rule="evenodd"/><path d="M90.2829 228.262 112.96 228.262 112.96 250.939 90.2829 250.939Z" fill="#2A9D8F" fill-rule="evenodd"/><path d="M112.96 228.262 475.795 228.262 475.795 250.939 112.96 250.939Z" fill="#FFFFFF" fill-rule="evenodd"/><path d="M22.2514 250.939 44.9286 250.939 44.9286 273.616 22.2514 273.616Z" fill="#2A9D8F" fill-rule="evenodd"/><path d="M44.9286 250.939 67.6058 250.939 67.6058 273.616 44.9286 273.616Z" fill="#2A9D8F" fill-rule="evenodd"/><path d="M67.6058 250.939 90.2829 250.939 90.2829 273.616 67.6058 273.616Z" fill="#2A9D8F" fill-rule="evenodd"/><path d="M90.2829 250.939 112.96 250.939 112.96 273.616 90.2829 273.616Z" fill="#2A9D8F" fill-rule="evenodd"/><path d="M112.96 250.939 135.637 250.939 135.637 273.616 112.96 273.616Z" fill="#2A9D8F" fill-rule="evenodd"/><path d="M135.637 250.939 158.314 250.939 158.314 273.616 135.637 273.616Z" fill="#2A9D8F" fill-rule="evenodd"/><path d="M158.314 250.939 180.992 250.939 180.992 273.616 158.314 273.616Z" fill="#2A9D8F" fill-rule="evenodd"/><path d="M180.992 250.939 203.669 250.939 203.669 273.616 180.992 273.616Z" fill="#2A9D8F" fill-rule="evenodd"/><path d="M203.669 250.939 226.346 250.939 226.346 273.616 203.669 273.616Z" fill="#2A9D8F" fill-rule="evenodd"/><path d="M226.346 250.939 249.023 250.939 249.023 273.616 226.346 273.616Z" fill="#2A9D8F" fill-rule="evenodd"/><path d="M249.023 250.939 271.7 250.939 271.7 273.616 249.023 273.616Z" fill="#2A9D8F" fill-rule="evenodd"/><path d="M271.7 250.939 294.377 250.939 294.377 273.616 271.7 273.616Z" fill="#2A9D8F" fill-rule="evenodd"/><path d="M294.377 250.939 317.055 250.939 317.055 273.616 294.377 273.616Z" fill="#2A9D8F" fill-rule="evenodd"/><path d="M317.055 250.939 339.732 250.939 339.732 273.616 317.055 273.616Z" fill="#2A9D8F" fill-rule="evenodd"/><path d="M339.732 250.939 362.409 250.939 362.409 273.616 339.732 273.616Z" fill="#2A9D8F" fill-rule="evenodd"/><path d="M362.409 250.939 385.086 250.939 385.086 273.616 362.409 273.616Z" fill="#2A9D8F" fill-rule="evenodd"/><path d="M385.086 250.939 407.763 250.939 407.763 273.616 385.086 273.616Z" fill="#2A9D8F" fill-rule="evenodd"/><path d="M407.763 250.939 430.44 250.939 430.44 273.616 407.763 273.616Z" fill="#2A9D8F" fill-rule="evenodd"/><path d="M430.44 250.939 453.118 250.939 453.118 273.616 430.44 273.616Z" fill="#2A9D8F" fill-rule="evenodd"/><path d="M453.118 250.939 475.795 250.939 475.795 273.616 453.118 273.616Z" fill="#2A9D8F" fill-rule="evenodd"/><path d="M22.2514 273.616 44.9286 273.616 44.9286 296.294 22.2514 296.294Z" fill="#2A9D8F" fill-rule="evenodd"/><path d="M44.9286 273.616 67.6058 273.616 67.6058 296.294 44.9286 296.294Z" fill="#2A9D8F" fill-rule="evenodd"/><path d="M67.6058 273.616 90.2829 273.616 90.2829 296.294 67.6058 296.294Z" fill="#2A9D8F" fill-rule="evenodd"/><path d="M90.2829 273.616 112.96 273.616 112.96 296.294 90.2829 296.294Z" fill="#2A9D8F" fill-rule="evenodd"/><path d="M112.96 273.616 135.637 273.616 135.637 296.294 112.96 296.294Z" fill="#2A9D8F" fill-rule="evenodd"/><path d="M135.637 273.616 158.314 273.616 158.314 296.294 135.637 296.294Z" fill="#2A9D8F" fill-rule="evenodd"/><path d="M158.314 273.616 180.992 273.616 180.992 296.294 158.314 296.294Z" fill="#2A9D8F" fill-rule="evenodd"/><path d="M180.992 273.616 203.669 273.616 203.669 296.294 180.992 296.294Z" fill="#2A9D8F" fill-rule="evenodd"/><path d="M203.669 273.616 226.346 273.616 226.346 296.294 203.669 296.294Z" fill="#2A9D8F" fill-rule="evenodd"/><path d="M226.346 273.616 249.023 273.616 249.023 296.294 226.346 296.294Z" fill="#2A9D8F" fill-rule="evenodd"/><path d="M249.023 273.616 271.7 273.616 271.7 296.294 249.023 296.294Z" fill="#2A9D8F" fill-rule="evenodd"/><path d="M271.7 273.616 294.377 273.616 294.377 296.294 271.7 296.294Z" fill="#2A9D8F" fill-rule="evenodd"/><path d="M294.377 273.616 317.055 273.616 317.055 296.294 294.377 296.294Z" fill="#2A9D8F" fill-rule="evenodd"/><path d="M317.055 273.616 339.732 273.616 339.732 296.294 317.055 296.294Z" fill="#2A9D8F" fill-rule="evenodd"/><path d="M339.732 273.616 362.409 273.616 362.409 296.294 339.732 296.294Z" fill="#2A9D8F" fill-rule="evenodd"/><path d="M362.409 273.616 385.086 273.616 385.086 296.294 362.409 296.294Z" fill="#2A9D8F" fill-rule="evenodd"/><path d="M385.086 273.616 407.763 273.616 407.763 296.294 385.086 296.294Z" fill="#2A9D8F" fill-rule="evenodd"/><path d="M407.763 273.616 430.44 273.616 430.44 296.294 407.763 296.294Z" fill="#2A9D8F" fill-rule="evenodd"/><path d="M430.44 273.616 453.118 273.616 453.118 296.294 430.44 296.294Z" fill="#2A9D8F" fill-rule="evenodd"/><path d="M453.118 273.616 475.795 273.616 475.795 296.294 453.118 296.294Z" fill="#2A9D8F" fill-rule="evenodd"/><path d="M22.2514 296.294 44.9286 296.294 44.9286 318.971 22.2514 318.971Z" fill="#2A9D8F" fill-rule="evenodd"/><path d="M44.9286 296.294 67.6058 296.294 67.6058 318.971 44.9286 318.971Z" fill="#2A9D8F" fill-rule="evenodd"/><path d="M67.6058 296.294 90.2829 296.294 90.2829 318.971 67.6058 318.971Z" fill="#2A9D8F" fill-rule="evenodd"/><path d="M90.2829 296.294 112.96 296.294 112.96 318.971 90.2829 318.971Z" fill="#2A9D8F" fill-rule="evenodd"/><path d="M112.96 296.294 135.637 296.294 135.637 318.971 112.96 318.971Z" fill="#2A9D8F" fill-rule="evenodd"/><path d="M135.637 296.294 158.314 296.294 158.314 318.971 135.637 318.971Z" fill="#2A9D8F" fill-rule="evenodd"/><path d="M158.314 296.294 180.992 296.294 180.992 318.971 158.314 318.971Z" fill="#2A9D8F" fill-rule="evenodd"/><path d="M180.992 296.294 203.669 296.294 203.669 318.971 180.992 318.971Z" fill="#2A9D8F" fill-rule="evenodd"/><path d="M203.669 296.294 226.346 296.294 226.346 318.971 203.669 318.971Z" fill="#2A9D8F" fill-rule="evenodd"/><path d="M226.346 296.294 249.023 296.294 249.023 318.971 226.346 318.971Z" fill="#2A9D8F" fill-rule="evenodd"/><path d="M249.023 296.294 271.7 296.294 271.7 318.971 249.023 318.971Z" fill="#2A9D8F" fill-rule="evenodd"/><path d="M271.7 296.294 294.377 296.294 294.377 318.971 271.7 318.971Z" fill="#2A9D8F" fill-rule="evenodd"/><path d="M294.377 296.294 317.055 296.294 317.055 318.971 294.377 318.971Z" fill="#2A9D8F" fill-rule="evenodd"/><path d="M317.055 296.294 339.732 296.294 339.732 318.971 317.055 318.971Z" fill="#2A9D8F" fill-rule="evenodd"/><path d="M339.732 296.294 362.409 296.294 362.409 318.971 339.732 318.971Z" fill="#2A9D8F" fill-rule="evenodd"/><path d="M362.409 296.294 385.086 296.294 385.086 318.971 362.409 318.971Z" fill="#2A9D8F" fill-rule="evenodd"/><path d="M385.086 296.294 407.763 296.294 407.763 318.971 385.086 318.971Z" fill="#2A9D8F" fill-rule="evenodd"/><path d="M407.763 296.294 430.44 296.294 430.44 318.971 407.763 318.971Z" fill="#2A9D8F" fill-rule="evenodd"/><path d="M430.44 296.294 453.118 296.294 453.118 318.971 430.44 318.971Z" fill="#2A9D8F" fill-rule="evenodd"/><path d="M453.118 296.294 475.795 296.294 475.795 318.971 453.118 318.971Z" fill="#2A9D8F" fill-rule="evenodd"/><path d="M44.9286 227.595 44.9286 319.637" stroke="#000000" stroke-width="1.33333" stroke-linejoin="round" stroke-miterlimit="10" fill="none" fill-rule="evenodd"/><path d="M67.6058 227.595 67.6058 319.637" stroke="#000000" stroke-width="1.33333" stroke-linejoin="round" stroke-miterlimit="10" fill="none" fill-rule="evenodd"/><path d="M90.2829 227.595 90.2829 319.637" stroke="#000000" stroke-width="1.33333" stroke-linejoin="round" stroke-miterlimit="10" fill="none" fill-rule="evenodd"/><path d="M112.96 227.595 112.96 319.637" stroke="#000000" stroke-width="1.33333" stroke-linejoin="round" stroke-miterlimit="10" fill="none" fill-rule="evenodd"/><path d="M135.637 250.273 135.637 319.637" stroke="#000000" stroke-width="1.33333" stroke-linejoin="round" stroke-miterlimit="10" fill="none" fill-rule="evenodd"/><path d="M158.314 250.273 158.314 319.637" stroke="#000000" stroke-width="1.33333" stroke-linejoin="round" stroke-miterlimit="10" fill="none" fill-rule="evenodd"/><path d="M180.992 250.273 180.992 319.637" stroke="#000000" stroke-width="1.33333" stroke-linejoin="round" stroke-miterlimit="10" fill="none" fill-rule="evenodd"/><path d="M203.669 250.273 203.669 319.637" stroke="#000000" stroke-width="1.33333" stroke-linejoin="round" stroke-miterlimit="10" fill="none" fill-rule="evenodd"/><path d="M226.346 250.273 226.346 319.637" stroke="#000000" stroke-width="1.33333" stroke-linejoin="round" stroke-miterlimit="10" fill="none" fill-rule="evenodd"/><path d="M249.023 250.273 249.023 319.637" stroke="#000000" stroke-width="1.33333" stroke-linejoin="round" stroke-miterlimit="10" fill="none" fill-rule="evenodd"/><path d="M271.7 250.273 271.7 319.637" stroke="#000000" stroke-width="1.33333" stroke-linejoin="round" stroke-miterlimit="10" fill="none" fill-rule="evenodd"/><path d="M294.377 250.273 294.377 319.637" stroke="#000000" stroke-width="1.33333" stroke-linejoin="round" stroke-miterlimit="10" fill="none" fill-rule="evenodd"/><path d="M317.055 250.273 317.055 319.637" stroke="#000000" stroke-width="1.33333" stroke-linejoin="round" stroke-miterlimit="10" fill="none" fill-rule="evenodd"/><path d="M339.732 250.273 339.732 319.637" stroke="#000000" stroke-width="1.33333" stroke-linejoin="round" stroke-miterlimit="10" fill="none" fill-rule="evenodd"/><path d="M362.409 250.273 362.409 319.637" stroke="#000000" stroke-width="1.33333" stroke-linejoin="round" stroke-miterlimit="10" fill="none" fill-rule="evenodd"/><path d="M385.086 250.273 385.086 319.637" stroke="#000000" stroke-width="1.33333" stroke-linejoin="round" stroke-miterlimit="10" fill="none" fill-rule="evenodd"/><path d="M407.763 250.273 407.763 319.637" stroke="#000000" stroke-width="1.33333" stroke-linejoin="round" stroke-miterlimit="10" fill="none" fill-rule="evenodd"/><path d="M430.44 250.273 430.44 319.637" stroke="#000000" stroke-width="1.33333" stroke-linejoin="round" stroke-miterlimit="10" fill="none" fill-rule="evenodd"/><path d="M453.118 250.273 453.118 319.637" stroke="#000000" stroke-width="1.33333" stroke-linejoin="round" stroke-miterlimit="10" fill="none" fill-rule="evenodd"/><path d="M21.5848 250.939 476.461 250.939" stroke="#000000" stroke-width="1.33333" stroke-linejoin="round" stroke-miterlimit="10" fill="none" fill-rule="evenodd"/><path d="M21.5848 273.616 476.461 273.616" stroke="#000000" stroke-width="1.33333" stroke-linejoin="round" stroke-miterlimit="10" fill="none" fill-rule="evenodd"/><path d="M21.5848 296.294 476.461 296.294" stroke="#000000" stroke-width="1.33333" stroke-linejoin="round" stroke-miterlimit="10" fill="none" fill-rule="evenodd"/><path d="M22.2514 227.595 22.2514 319.637" stroke="#000000" stroke-width="1.33333" stroke-linejoin="round" stroke-miterlimit="10" fill="none" fill-rule="evenodd"/><path d="M475.795 250.273 475.795 319.637" stroke="#000000" stroke-width="1.33333" stroke-linejoin="round" stroke-miterlimit="10" fill="none" fill-rule="evenodd"/><path d="M21.5848 228.262 113.627 228.262" stroke="#000000" stroke-width="1.33333" stroke-linejoin="round" stroke-miterlimit="10" fill="none" fill-rule="evenodd"/><path d="M21.5848 318.971 476.461 318.971" stroke="#000000" stroke-width="1.33333" stroke-linejoin="round" stroke-miterlimit="10" fill="none" fill-rule="evenodd"/></g></svg>