<svg width="457" height="125" xmlns="http://www.w3.org/2000/svg" xmlns:xlink="http://www.w3.org/1999/xlink" overflow="hidden"><defs><clipPath id="clip0"><rect x="533" y="272" width="457" height="125"/></clipPath></defs><g clip-path="url(#clip0)" transform="translate(-533 -272)"><path d="M534.56 273.616 557.237 273.616 557.237 296.294 534.56 296.294Z" fill="#2A9D8F" fill-rule="evenodd"/><path d="M557.237 273.616 579.914 273.616 579.914 296.294 557.237 296.294Z" fill="#2A9D8F" fill-rule="evenodd"/><path d="M579.914 273.616 602.591 273.616 602.591 296.294 579.914 296.294Z" fill="#2A9D8F" fill-rule="evenodd"/><path d="M602.591 273.616 625.268 273.616 625.268 296.294 602.591 296.294Z" fill="#2A9D8F" fill-rule="evenodd"/><path d="M625.268 273.616 647.945 273.616 647.945 296.294 625.268 296.294Z" fill="#2A9D8F" fill-rule="evenodd"/><path d="M647.945 273.616 670.623 273.616 670.623 296.294 647.945 296.294Z" fill="#2A9D8F" fill-rule="evenodd"/><path d="M670.623 273.616 693.3 273.616 693.3 296.294 670.623 296.294Z" fill="#2A9D8F" fill-rule="evenodd"/><path d="M693.3 273.616 988.103 273.616 988.103 296.294 693.3 296.294Z" fill="#FFFFFF" fill-rule="evenodd"/><path d="M534.56 296.294 557.237 296.294 557.237 318.971 534.56 318.971Z" fill="#2A9D8F" fill-rule="evenodd"/><path d="M557.237 296.294 579.914 296.294 579.914 318.971 557.237 318.971Z" fill="#2A9D8F" fill-rule="evenodd"/><path d="M579.914 296.294 602.591 296.294 602.591 318.971 579.914 318.971Z" fill="#2A9D8F" fill-rule="evenodd"/><path d="M602.591 296.294 625.268 296.294 625.268 318.971 602.591 318.971Z" fill="#2A9D8F" fill-rule="evenodd"/><path d="M625.268 296.294 647.945 296.294 647.945 318.971 625.268 318.971Z" fill="#2A9D8F" fill-rule="evenodd"/><path d="M647.945 296.294 670.623 296.294 670.623 318.971 647.945 318.971Z" fill="#2A9D8F" fill-rule="evenodd"/><path d="M670.623 296.294 693.3 296.294 693.3 318.971 670.623 318.971Z" fill="#2A9D8F" fill-rule="evenodd"/><path d="M693.3 296.294 715.977 296.294 715.977 318.971 693.3 318.971Z" fill="#2A9D8F" fill-rule="evenodd"/><path d="M715.977 296.294 738.654 296.294 738.654 318.971 715.977 318.971Z" fill="#2A9D8F" fill-rule="evenodd"/><path d="M738.654 296.294 761.331 296.294 761.331 318.971 738.654 318.971Z" fill="#2A9D8F" fill-rule="evenodd"/><path d="M761.331 296.294 784.008 296.294 784.008 318.971 761.331 318.971Z" fill="#2A9D8F" fill-rule="evenodd"/><path d="M784.008 296.294 806.686 296.294 806.686 318.971 784.008 318.971Z" fill="#2A9D8F" fill-rule="evenodd"/><path d="M806.686 296.294 829.363 296.294 829.363 318.971 806.686 318.971Z" fill="#2A9D8F" fill-rule="evenodd"/><path d="M829.363 296.294 852.04 296.294 852.04 318.971 829.363 318.971Z" fill="#2A9D8F" fill-rule="evenodd"/><path d="M852.04 296.294 874.717 296.294 874.717 318.971 852.04 318.971Z" fill="#2A9D8F" fill-rule="evenodd"/><path d="M874.717 296.294 897.394 296.294 897.394 318.971 874.717 318.971Z" fill="#2A9D8F" fill-rule="evenodd"/><path d="M897.394 296.294 920.071 296.294 920.071 318.971 897.394 318.971Z" fill="#2A9D8F" fill-rule="evenodd"/><path d="M920.071 296.294 942.749 296.294 942.749 318.971 920.071 318.971Z" fill="#2A9D8F" fill-rule="evenodd"/><path d="M942.749 296.294 965.426 296.294 965.426 318.971 942.749 318.971Z" fill="#2A9D8F" fill-rule="evenodd"/><path d="M965.426 296.294 988.103 296.294 988.103 318.971 965.426 318.971Z" fill="#2A9D8F" fill-rule="evenodd"/><path d="M557.237 272.95 557.237 319.637" stroke="#000000" stroke-width="1.33333" stroke-linejoin="round" stroke-miterlimit="10" fill="none" fill-rule="evenodd"/><path d="M579.914 272.95 579.914 319.637" stroke="#000000" stroke-width="1.33333" stroke-linejoin="round" stroke-miterlimit="10" fill="none" fill-rule="evenodd"/><path d="M602.591 272.95 602.591 319.637" stroke="#000000" stroke-width="1.33333" stroke-linejoin="round" stroke-miterlimit="10" fill="none" fill-rule="evenodd"/><path d="M625.268 272.95 625.268 319.637" stroke="#000000" stroke-width="1.33333" stroke-linejoin="round" stroke-miterlimit="10" fill="none" fill-rule="evenodd"/><path d="M647.945 272.95 647.945 319.637" stroke="#000000" stroke-width="1.33333" stroke-linejoin="round" stroke-miterlimit="10" fill="none" fill-rule="evenodd"/><path d="M670.623 272.95 670.623 319.637" stroke="#000000" stroke-width="1.33333" stroke-linejoin="round" stroke-miterlimit="10" fill="none" fill-rule="evenodd"/><path d="M693.3 272.95 693.3 319.637" stroke="#000000" stroke-width="1.33333" stroke-linejoin="round" stroke-miterlimit="10" fill="none" fill-rule="evenodd"/><path d="M715.977 295.627 715.977 319.637" stroke="#000000" stroke-width="1.33333" stroke-linejoin="round" stroke-miterlimit="10" fill="none" fill-rule="evenodd"/><path d="M738.654 295.627 738.654 319.637" stroke="#000000" stroke-width="1.33333" stroke-linejoin="round" stroke-miterlimit="10" fill="none" fill-rule="evenodd"/><path d="M761.331 295.627 761.331 319.637" stroke="#000000" stroke-width="1.33333" stroke-linejoin="round" stroke-miterlimit="10" fill="none" fill-rule="evenodd"/><path d="M784.008 295.627 784.008 319.637" stroke="#000000" stroke-width="1.33333" stroke-linejoin="round" stroke-miterlimit="10" fill="none" fill-rule="evenodd"/><path d="M806.686 295.627 806.686 319.637" stroke="#000000" stroke-width="1.33333" stroke-linejoin="round" stroke-miterlimit="10" fill="none" fill-rule="evenodd"/><path d="M829.363 295.627 829.363 319.637" stroke="#000000" stroke-width="1.33333" stroke-linejoin="round" stroke-miterlimit="10" fill="none" fill-rule="evenodd"/><path d="M852.04 295.627 852.04 319.637" stroke="#000000" stroke-width="1.33333" stroke-linejoin="round" stroke-miterlimit="10" fill="none" fill-rule="evenodd"/><path d="M874.717 295.627 874.717 319.637" stroke="#000000" stroke-width="1.33333" stroke-linejoin="round" stroke-miterlimit="10" fill="none" fill-rule="evenodd"/><path d="M897.394 295.627 897.394 319.637" stroke="#000000" stroke-width="1.33333" stroke-linejoin="round" stroke-miterlimit="10" fill="none" fill-rule="evenodd"/><path d="M920.071 295.627 920.071 319.637" stroke="#000000" stroke-width="1.33333" stroke-linejoin="round" stroke-miterlimit="10" fill="none" fill-rule="evenodd"/><path d="M942.749 295.627 942.749 319.637" stroke="#000000" stroke-width="1.33333" stroke-linejoin="round" stroke-miterlimit="10" fill="none" fill-rule="evenodd"/><path d="M965.426 295.627 965.426 319.637" stroke="#000000" stroke-width="1.33333" stroke-linejoin="round" stroke-miterlimit="10" fill="none" fill-rule="evenodd"/><path d="M533.893 296.294 988.77 296.294" stroke="#000000" stroke-width="1.33333" stroke-linejoin="round" stroke-miterlimit="10" fill="none" fill-rule="evenodd"/><path d="M534.56 272.95 534.56 319.637" stroke="#000000" stroke-width="1.33333" stroke-linejoin="round" stroke-miterlimit="10" fill="none" fill-rule="evenodd"/><path d="M988.103 295.627 988.103 319.637" stroke="#000000" stroke-width="1.33333" stroke-linejoin="round" stroke-miterlimit="10" fill="none" fill-rule="evenodd"/><path d="M533.893 273.616 693.966 273.616" stroke="#000000" stroke-width="1.33333" stroke-linejoin="round" stroke-miterlimit="10" fill="none" fill-rule="evenodd"/><path d="M533.893 318.971 988.77 318.971" stroke="#000000" stroke-width="1.33333" stroke-linejoin="round" stroke-miterlimit="10" fill="none" fill-rule="evenodd"/><text font-family="Calibri,Calibri_MSFontService,sans-serif" font-weight="700" font-size="24" transform="translate(589.058 346)">Évangélisme non<tspan font-size="24" x="166.433" y="0">-</tspan><tspan font-size="24" x="173.767" y="0">dénominationnel</tspan><tspan font-size="24" x="140.773" y="29">(2,7%)</tspan></text></g></svg>