<svg width="457" height="125" xmlns="http://www.w3.org/2000/svg" xmlns:xlink="http://www.w3.org/1999/xlink" overflow="hidden"><defs><clipPath id="clip0"><rect x="21" y="429" width="457" height="125"/></clipPath></defs><g clip-path="url(#clip0)" transform="translate(-21 -429)"><path d="M22.2513 430.767 44.9285 430.767 44.9285 453.444 22.2513 453.444Z" fill="#2A9D8F" fill-rule="evenodd"/><path d="M44.9285 430.767 67.6057 430.767 67.6057 453.444 44.9285 453.444Z" fill="#2A9D8F" fill-rule="evenodd"/><path d="M67.6057 430.767 90.2828 430.767 90.2828 453.444 67.6057 453.444Z" fill="#2A9D8F" fill-rule="evenodd"/><path d="M90.2828 430.767 475.795 430.767 475.795 453.444 90.2828 453.444Z" fill="#FFFFFF" fill-rule="evenodd"/><path d="M22.2513 453.444 44.9285 453.444 44.9285 476.122 22.2513 476.122Z" fill="#2A9D8F" fill-rule="evenodd"/><path d="M44.9285 453.444 67.6057 453.444 67.6057 476.122 44.9285 476.122Z" fill="#2A9D8F" fill-rule="evenodd"/><path d="M67.6057 453.444 90.2828 453.444 90.2828 476.122 67.6057 476.122Z" fill="#2A9D8F" fill-rule="evenodd"/><path d="M90.2828 453.444 112.96 453.444 112.96 476.122 90.2828 476.122Z" fill="#2A9D8F" fill-rule="evenodd"/><path d="M112.96 453.444 135.637 453.444 135.637 476.122 112.96 476.122Z" fill="#2A9D8F" fill-rule="evenodd"/><path d="M135.637 453.444 158.314 453.444 158.314 476.122 135.637 476.122Z" fill="#2A9D8F" fill-rule="evenodd"/><path d="M158.314 453.444 180.992 453.444 180.992 476.122 158.314 476.122Z" fill="#2A9D8F" fill-rule="evenodd"/><path d="M180.992 453.444 203.669 453.444 203.669 476.122 180.992 476.122Z" fill="#2A9D8F" fill-rule="evenodd"/><path d="M203.669 453.444 226.346 453.444 226.346 476.122 203.669 476.122Z" fill="#2A9D8F" fill-rule="evenodd"/><path d="M226.346 453.444 249.023 453.444 249.023 476.122 226.346 476.122Z" fill="#2A9D8F" fill-rule="evenodd"/><path d="M249.023 453.444 271.7 453.444 271.7 476.122 249.023 476.122Z" fill="#2A9D8F" fill-rule="evenodd"/><path d="M271.7 453.444 294.377 453.444 294.377 476.122 271.7 476.122Z" fill="#2A9D8F" fill-rule="evenodd"/><path d="M294.377 453.444 317.054 453.444 317.054 476.122 294.377 476.122Z" fill="#2A9D8F" fill-rule="evenodd"/><path d="M317.054 453.444 339.732 453.444 339.732 476.122 317.054 476.122Z" fill="#2A9D8F" fill-rule="evenodd"/><path d="M339.732 453.444 362.409 453.444 362.409 476.122 339.732 476.122Z" fill="#2A9D8F" fill-rule="evenodd"/><path d="M362.409 453.444 385.086 453.444 385.086 476.122 362.409 476.122Z" fill="#2A9D8F" fill-rule="evenodd"/><path d="M385.086 453.444 407.763 453.444 407.763 476.122 385.086 476.122Z" fill="#2A9D8F" fill-rule="evenodd"/><path d="M407.763 453.444 430.44 453.444 430.44 476.122 407.763 476.122Z" fill="#2A9D8F" fill-rule="evenodd"/><path d="M430.44 453.444 453.117 453.444 453.117 476.122 430.44 476.122Z" fill="#2A9D8F" fill-rule="evenodd"/><path d="M453.117 453.444 475.795 453.444 475.795 476.122 453.117 476.122Z" fill="#2A9D8F" fill-rule="evenodd"/><path d="M44.9285 430.101 44.9285 476.788" stroke="#000000" stroke-width="1.33333" stroke-linejoin="round" stroke-miterlimit="10" fill="none" fill-rule="evenodd"/><path d="M67.6057 430.101 67.6057 476.788" stroke="#000000" stroke-width="1.33333" stroke-linejoin="round" stroke-miterlimit="10" fill="none" fill-rule="evenodd"/><path d="M90.2828 430.101 90.2828 476.788" stroke="#000000" stroke-width="1.33333" stroke-linejoin="round" stroke-miterlimit="10" fill="none" fill-rule="evenodd"/><path d="M112.96 452.778 112.96 476.788" stroke="#000000" stroke-width="1.33333" stroke-linejoin="round" stroke-miterlimit="10" fill="none" fill-rule="evenodd"/><path d="M135.637 452.778 135.637 476.788" stroke="#000000" stroke-width="1.33333" stroke-linejoin="round" stroke-miterlimit="10" fill="none" fill-rule="evenodd"/><path d="M158.314 452.778 158.314 476.788" stroke="#000000" stroke-width="1.33333" stroke-linejoin="round" stroke-miterlimit="10" fill="none" fill-rule="evenodd"/><path d="M180.992 452.778 180.992 476.788" stroke="#000000" stroke-width="1.33333" stroke-linejoin="round" stroke-miterlimit="10" fill="none" fill-rule="evenodd"/><path d="M203.669 452.778 203.669 476.788" stroke="#000000" stroke-width="1.33333" stroke-linejoin="round" stroke-miterlimit="10" fill="none" fill-rule="evenodd"/><path d="M226.346 452.778 226.346 476.788" stroke="#000000" stroke-width="1.33333" stroke-linejoin="round" stroke-miterlimit="10" fill="none" fill-rule="evenodd"/><path d="M249.023 452.778 249.023 476.788" stroke="#000000" stroke-width="1.33333" stroke-linejoin="round" stroke-miterlimit="10" fill="none" fill-rule="evenodd"/><path d="M271.7 452.778 271.7 476.788" stroke="#000000" stroke-width="1.33333" stroke-linejoin="round" stroke-miterlimit="10" fill="none" fill-rule="evenodd"/><path d="M294.377 452.778 294.377 476.788" stroke="#000000" stroke-width="1.33333" stroke-linejoin="round" stroke-miterlimit="10" fill="none" fill-rule="evenodd"/><path d="M317.054 452.778 317.054 476.788" stroke="#000000" stroke-width="1.33333" stroke-linejoin="round" stroke-miterlimit="10" fill="none" fill-rule="evenodd"/><path d="M339.732 452.778 339.732 476.788" stroke="#000000" stroke-width="1.33333" stroke-linejoin="round" stroke-miterlimit="10" fill="none" fill-rule="evenodd"/><path d="M362.409 452.778 362.409 476.788" stroke="#000000" stroke-width="1.33333" stroke-linejoin="round" stroke-miterlimit="10" fill="none" fill-rule="evenodd"/><path d="M385.086 452.778 385.086 476.788" stroke="#000000" stroke-width="1.33333" stroke-linejoin="round" stroke-miterlimit="10" fill="none" fill-rule="evenodd"/><path d="M407.763 452.778 407.763 476.788" stroke="#000000" stroke-width="1.33333" stroke-linejoin="round" stroke-miterlimit="10" fill="none" fill-rule="evenodd"/><path d="M430.44 452.778 430.44 476.788" stroke="#000000" stroke-width="1.33333" stroke-linejoin="round" stroke-miterlimit="10" fill="none" fill-rule="evenodd"/><path d="M453.117 452.778 453.117 476.788" stroke="#000000" stroke-width="1.33333" stroke-linejoin="round" stroke-miterlimit="10" fill="none" fill-rule="evenodd"/><path d="M21.5847 453.444 476.461 453.444" stroke="#000000" stroke-width="1.33333" stroke-linejoin="round" stroke-miterlimit="10" fill="none" fill-rule="evenodd"/><path d="M22.2513 430.101 22.2513 476.788" stroke="#000000" stroke-width="1.33333" stroke-linejoin="round" stroke-miterlimit="10" fill="none" fill-rule="evenodd"/><path d="M475.795 452.778 475.795 476.788" stroke="#000000" stroke-width="1.33333" stroke-linejoin="round" stroke-miterlimit="10" fill="none" fill-rule="evenodd"/><path d="M21.5847 430.767 90.9495 430.767" stroke="#000000" stroke-width="1.33333" stroke-linejoin="round" stroke-miterlimit="10" fill="none" fill-rule="evenodd"/><path d="M21.5847 476.122 476.461 476.122" stroke="#000000" stroke-width="1.33333" stroke-linejoin="round" stroke-miterlimit="10" fill="none" fill-rule="evenodd"/><text font-family="Calibri,Calibri_MSFontService,sans-serif" font-weight="700" font-size="24" transform="translate(56.9997 503)">Église Protestante Patriotique Chinoise<tspan font-size="24" x="160.527" y="29">(2,3%)</tspan></text></g></svg>