<svg width="457" height="227" xmlns="http://www.w3.org/2000/svg" xmlns:xlink="http://www.w3.org/1999/xlink" overflow="hidden"><defs><clipPath id="clip0"><rect x="-69" y="454" width="457" height="227"/></clipPath></defs><g clip-path="url(#clip0)" transform="translate(69 -454)"><path d="M-67.499 455.094-44.8218 455.094-44.8218 477.771-67.499 477.771Z" fill="#D8DC35" fill-rule="evenodd"/><path d="M-44.8218 455.094-22.1447 455.094-22.1447 477.771-44.8218 477.771Z" fill="#D8DC35" fill-rule="evenodd"/><path d="M-22.1447 455.094 0.532494 455.094 0.532494 477.771-22.1447 477.771Z" fill="#D8DC35" fill-rule="evenodd"/><path d="M0.532494 455.094 23.2097 455.094 23.2097 477.771 0.532494 477.771Z" fill="#D8DC35" fill-rule="evenodd"/><path d="M23.2097 455.094 45.8868 455.094 45.8868 477.771 23.2097 477.771Z" fill="#D8DC35" fill-rule="evenodd"/><path d="M45.8868 455.094 68.564 455.094 68.564 477.771 45.8868 477.771Z" fill="#D8DC35" fill-rule="evenodd"/><path d="M68.564 455.094 91.2412 455.094 91.2412 477.771 68.564 477.771Z" fill="#D8DC35" fill-rule="evenodd"/><path d="M91.2412 455.094 113.918 455.094 113.918 477.771 91.2412 477.771Z" fill="#D8DC35" fill-rule="evenodd"/><path d="M113.918 455.094 136.595 455.094 136.595 477.771 113.918 477.771Z" fill="#D8DC35" fill-rule="evenodd"/><path d="M136.595 455.094 159.273 455.094 159.273 477.771 136.595 477.771Z" fill="#D8DC35" fill-rule="evenodd"/><path d="M159.273 455.094 386.044 455.094 386.044 477.771 159.273 477.771Z" fill="#FFFFFF" fill-rule="evenodd"/><path d="M-67.499 477.771-44.8218 477.771-44.8218 500.448-67.499 500.448Z" fill="#D8DC35" fill-rule="evenodd"/><path d="M-44.8218 477.771-22.1447 477.771-22.1447 500.448-44.8218 500.448Z" fill="#D8DC35" fill-rule="evenodd"/><path d="M-22.1447 477.771 0.532494 477.771 0.532494 500.448-22.1447 500.448Z" fill="#D8DC35" fill-rule="evenodd"/><path d="M0.532494 477.771 23.2097 477.771 23.2097 500.448 0.532494 500.448Z" fill="#D8DC35" fill-rule="evenodd"/><path d="M23.2097 477.771 45.8868 477.771 45.8868 500.448 23.2097 500.448Z" fill="#D8DC35" fill-rule="evenodd"/><path d="M45.8868 477.771 68.564 477.771 68.564 500.448 45.8868 500.448Z" fill="#D8DC35" fill-rule="evenodd"/><path d="M68.564 477.771 91.2412 477.771 91.2412 500.448 68.564 500.448Z" fill="#D8DC35" fill-rule="evenodd"/><path d="M91.2412 477.771 113.918 477.771 113.918 500.448 91.2412 500.448Z" fill="#D8DC35" fill-rule="evenodd"/><path d="M113.918 477.771 136.595 477.771 136.595 500.448 113.918 500.448Z" fill="#D8DC35" fill-rule="evenodd"/><path d="M136.595 477.771 159.273 477.771 159.273 500.448 136.595 500.448Z" fill="#D8DC35" fill-rule="evenodd"/><path d="M159.273 477.771 181.95 477.771 181.95 500.448 159.273 500.448Z" fill="#D8DC35" fill-rule="evenodd"/><path d="M181.95 477.771 204.627 477.771 204.627 500.448 181.95 500.448Z" fill="#D8DC35" fill-rule="evenodd"/><path d="M204.627 477.771 227.304 477.771 227.304 500.448 204.627 500.448Z" fill="#D8DC35" fill-rule="evenodd"/><path d="M227.304 477.771 249.981 477.771 249.981 500.448 227.304 500.448Z" fill="#D8DC35" fill-rule="evenodd"/><path d="M249.981 477.771 272.658 477.771 272.658 500.448 249.981 500.448Z" fill="#D8DC35" fill-rule="evenodd"/><path d="M272.658 477.771 295.336 477.771 295.336 500.448 272.658 500.448Z" fill="#D8DC35" fill-rule="evenodd"/><path d="M295.336 477.771 318.013 477.771 318.013 500.448 295.336 500.448Z" fill="#D8DC35" fill-rule="evenodd"/><path d="M318.013 477.771 340.69 477.771 340.69 500.448 318.013 500.448Z" fill="#D8DC35" fill-rule="evenodd"/><path d="M340.69 477.771 363.367 477.771 363.367 500.448 340.69 500.448Z" fill="#D8DC35" fill-rule="evenodd"/><path d="M363.367 477.771 386.044 477.771 386.044 500.448 363.367 500.448Z" fill="#D8DC35" fill-rule="evenodd"/><path d="M-67.499 500.448-44.8218 500.448-44.8218 523.125-67.499 523.125Z" fill="#D8DC35" fill-rule="evenodd"/><path d="M-44.8218 500.448-22.1447 500.448-22.1447 523.125-44.8218 523.125Z" fill="#D8DC35" fill-rule="evenodd"/><path d="M-22.1447 500.448 0.532494 500.448 0.532494 523.125-22.1447 523.125Z" fill="#D8DC35" fill-rule="evenodd"/><path d="M0.532494 500.448 23.2097 500.448 23.2097 523.125 0.532494 523.125Z" fill="#D8DC35" fill-rule="evenodd"/><path d="M23.2097 500.448 45.8868 500.448 45.8868 523.125 23.2097 523.125Z" fill="#D8DC35" fill-rule="evenodd"/><path d="M45.8868 500.448 68.564 500.448 68.564 523.125 45.8868 523.125Z" fill="#D8DC35" fill-rule="evenodd"/><path d="M68.564 500.448 91.2412 500.448 91.2412 523.125 68.564 523.125Z" fill="#D8DC35" fill-rule="evenodd"/><path d="M91.2412 500.448 113.918 500.448 113.918 523.125 91.2412 523.125Z" fill="#D8DC35" fill-rule="evenodd"/><path d="M113.918 500.448 136.595 500.448 136.595 523.125 113.918 523.125Z" fill="#D8DC35" fill-rule="evenodd"/><path d="M136.595 500.448 159.273 500.448 159.273 523.125 136.595 523.125Z" fill="#D8DC35" fill-rule="evenodd"/><path d="M159.273 500.448 181.95 500.448 181.95 523.125 159.273 523.125Z" fill="#D8DC35" fill-rule="evenodd"/><path d="M181.95 500.448 204.627 500.448 204.627 523.125 181.95 523.125Z" fill="#D8DC35" fill-rule="evenodd"/><path d="M204.627 500.448 227.304 500.448 227.304 523.125 204.627 523.125Z" fill="#D8DC35" fill-rule="evenodd"/><path d="M227.304 500.448 249.981 500.448 249.981 523.125 227.304 523.125Z" fill="#D8DC35" fill-rule="evenodd"/><path d="M249.981 500.448 272.658 500.448 272.658 523.125 249.981 523.125Z" fill="#D8DC35" fill-rule="evenodd"/><path d="M272.658 500.448 295.336 500.448 295.336 523.125 272.658 523.125Z" fill="#D8DC35" fill-rule="evenodd"/><path d="M295.336 500.448 318.013 500.448 318.013 523.125 295.336 523.125Z" fill="#D8DC35" fill-rule="evenodd"/><path d="M318.013 500.448 340.69 500.448 340.69 523.125 318.013 523.125Z" fill="#D8DC35" fill-rule="evenodd"/><path d="M340.69 500.448 363.367 500.448 363.367 523.125 340.69 523.125Z" fill="#D8DC35" fill-rule="evenodd"/><path d="M363.367 500.448 386.044 500.448 386.044 523.125 363.367 523.125Z" fill="#D8DC35" fill-rule="evenodd"/><path d="M-67.499 523.125-44.8218 523.125-44.8218 545.803-67.499 545.803Z" fill="#D8DC35" fill-rule="evenodd"/><path d="M-44.8218 523.125-22.1447 523.125-22.1447 545.803-44.8218 545.803Z" fill="#D8DC35" fill-rule="evenodd"/><path d="M-22.1447 523.125 0.532494 523.125 0.532494 545.803-22.1447 545.803Z" fill="#D8DC35" fill-rule="evenodd"/><path d="M0.532494 523.125 23.2097 523.125 23.2097 545.803 0.532494 545.803Z" fill="#D8DC35" fill-rule="evenodd"/><path d="M23.2097 523.125 45.8868 523.125 45.8868 545.803 23.2097 545.803Z" fill="#D8DC35" fill-rule="evenodd"/><path d="M45.8868 523.125 68.564 523.125 68.564 545.803 45.8868 545.803Z" fill="#D8DC35" fill-rule="evenodd"/><path d="M68.564 523.125 91.2412 523.125 91.2412 545.803 68.564 545.803Z" fill="#D8DC35" fill-rule="evenodd"/><path d="M91.2412 523.125 113.918 523.125 113.918 545.803 91.2412 545.803Z" fill="#D8DC35" fill-rule="evenodd"/><path d="M113.918 523.125 136.595 523.125 136.595 545.803 113.918 545.803Z" fill="#D8DC35" fill-rule="evenodd"/><path d="M136.595 523.125 159.273 523.125 159.273 545.803 136.595 545.803Z" fill="#D8DC35" fill-rule="evenodd"/><path d="M159.273 523.125 181.95 523.125 181.95 545.803 159.273 545.803Z" fill="#D8DC35" fill-rule="evenodd"/><path d="M181.95 523.125 204.627 523.125 204.627 545.803 181.95 545.803Z" fill="#D8DC35" fill-rule="evenodd"/><path d="M204.627 523.125 227.304 523.125 227.304 545.803 204.627 545.803Z" fill="#D8DC35" fill-rule="evenodd"/><path d="M227.304 523.125 249.981 523.125 249.981 545.803 227.304 545.803Z" fill="#D8DC35" fill-rule="evenodd"/><path d="M249.981 523.125 272.658 523.125 272.658 545.803 249.981 545.803Z" fill="#D8DC35" fill-rule="evenodd"/><path d="M272.658 523.125 295.336 523.125 295.336 545.803 272.658 545.803Z" fill="#D8DC35" fill-rule="evenodd"/><path d="M295.336 523.125 318.013 523.125 318.013 545.803 295.336 545.803Z" fill="#D8DC35" fill-rule="evenodd"/><path d="M318.013 523.125 340.69 523.125 340.69 545.803 318.013 545.803Z" fill="#D8DC35" fill-rule="evenodd"/><path d="M340.69 523.125 363.367 523.125 363.367 545.803 340.69 545.803Z" fill="#D8DC35" fill-rule="evenodd"/><path d="M363.367 523.125 386.044 523.125 386.044 545.803 363.367 545.803Z" fill="#D8DC35" fill-rule="evenodd"/><path d="M-67.499 545.803-44.8218 545.803-44.8218 568.48-67.499 568.48Z" fill="#D8DC35" fill-rule="evenodd"/><path d="M-44.8218 545.803-22.1447 545.803-22.1447 568.48-44.8218 568.48Z" fill="#D8DC35" fill-rule="evenodd"/><path d="M-22.1447 545.803 0.532494 545.803 0.532494 568.48-22.1447 568.48Z" fill="#D8DC35" fill-rule="evenodd"/><path d="M0.532494 545.803 23.2097 545.803 23.2097 568.48 0.532494 568.48Z" fill="#D8DC35" fill-rule="evenodd"/><path d="M23.2097 545.803 45.8868 545.803 45.8868 568.48 23.2097 568.48Z" fill="#D8DC35" fill-rule="evenodd"/><path d="M45.8868 545.803 68.564 545.803 68.564 568.48 45.8868 568.48Z" fill="#D8DC35" fill-rule="evenodd"/><path d="M68.564 545.803 91.2412 545.803 91.2412 568.48 68.564 568.48Z" fill="#D8DC35" fill-rule="evenodd"/><path d="M91.2412 545.803 113.918 545.803 113.918 568.48 91.2412 568.48Z" fill="#D8DC35" fill-rule="evenodd"/><path d="M113.918 545.803 136.595 545.803 136.595 568.48 113.918 568.48Z" fill="#D8DC35" fill-rule="evenodd"/><path d="M136.595 545.803 159.273 545.803 159.273 568.48 136.595 568.48Z" fill="#D8DC35" fill-rule="evenodd"/><path d="M159.273 545.803 181.95 545.803 181.95 568.48 159.273 568.48Z" fill="#D8DC35" fill-rule="evenodd"/><path d="M181.95 545.803 204.627 545.803 204.627 568.48 181.95 568.48Z" fill="#D8DC35" fill-rule="evenodd"/><path d="M204.627 545.803 227.304 545.803 227.304 568.48 204.627 568.48Z" fill="#D8DC35" fill-rule="evenodd"/><path d="M227.304 545.803 249.981 545.803 249.981 568.48 227.304 568.48Z" fill="#D8DC35" fill-rule="evenodd"/><path d="M249.981 545.803 272.658 545.803 272.658 568.48 249.981 568.48Z" fill="#D8DC35" fill-rule="evenodd"/><path d="M272.658 545.803 295.336 545.803 295.336 568.48 272.658 568.48Z" fill="#D8DC35" fill-rule="evenodd"/><path d="M295.336 545.803 318.013 545.803 318.013 568.48 295.336 568.48Z" fill="#D8DC35" fill-rule="evenodd"/><path d="M318.013 545.803 340.69 545.803 340.69 568.48 318.013 568.48Z" fill="#D8DC35" fill-rule="evenodd"/><path d="M340.69 545.803 363.367 545.803 363.367 568.48 340.69 568.48Z" fill="#D8DC35" fill-rule="evenodd"/><path d="M363.367 545.803 386.044 545.803 386.044 568.48 363.367 568.48Z" fill="#D8DC35" fill-rule="evenodd"/><path d="M-67.499 568.48-44.8218 568.48-44.8218 591.157-67.499 591.157Z" fill="#D8DC35" fill-rule="evenodd"/><path d="M-44.8218 568.48-22.1447 568.48-22.1447 591.157-44.8218 591.157Z" fill="#D8DC35" fill-rule="evenodd"/><path d="M-22.1447 568.48 0.532494 568.48 0.532494 591.157-22.1447 591.157Z" fill="#D8DC35" fill-rule="evenodd"/><path d="M0.532494 568.48 23.2097 568.48 23.2097 591.157 0.532494 591.157Z" fill="#D8DC35" fill-rule="evenodd"/><path d="M23.2097 568.48 45.8868 568.48 45.8868 591.157 23.2097 591.157Z" fill="#D8DC35" fill-rule="evenodd"/><path d="M45.8868 568.48 68.564 568.48 68.564 591.157 45.8868 591.157Z" fill="#D8DC35" fill-rule="evenodd"/><path d="M68.564 568.48 91.2412 568.48 91.2412 591.157 68.564 591.157Z" fill="#D8DC35" fill-rule="evenodd"/><path d="M91.2412 568.48 113.918 568.48 113.918 591.157 91.2412 591.157Z" fill="#D8DC35" fill-rule="evenodd"/><path d="M113.918 568.48 136.595 568.48 136.595 591.157 113.918 591.157Z" fill="#D8DC35" fill-rule="evenodd"/><path d="M136.595 568.48 159.273 568.48 159.273 591.157 136.595 591.157Z" fill="#D8DC35" fill-rule="evenodd"/><path d="M159.273 568.48 181.95 568.48 181.95 591.157 159.273 591.157Z" fill="#D8DC35" fill-rule="evenodd"/><path d="M181.95 568.48 204.627 568.48 204.627 591.157 181.95 591.157Z" fill="#D8DC35" fill-rule="evenodd"/><path d="M204.627 568.48 227.304 568.48 227.304 591.157 204.627 591.157Z" fill="#D8DC35" fill-rule="evenodd"/><path d="M227.304 568.48 249.981 568.48 249.981 591.157 227.304 591.157Z" fill="#D8DC35" fill-rule="evenodd"/><path d="M249.981 568.48 272.658 568.48 272.658 591.157 249.981 591.157Z" fill="#D8DC35" fill-rule="evenodd"/><path d="M272.658 568.48 295.336 568.48 295.336 591.157 272.658 591.157Z" fill="#D8DC35" fill-rule="evenodd"/><path d="M295.336 568.48 318.013 568.48 318.013 591.157 295.336 591.157Z" fill="#D8DC35" fill-rule="evenodd"/><path d="M318.013 568.48 340.69 568.48 340.69 591.157 318.013 591.157Z" fill="#D8DC35" fill-rule="evenodd"/><path d="M340.69 568.48 363.367 568.48 363.367 591.157 340.69 591.157Z" fill="#D8DC35" fill-rule="evenodd"/><path d="M363.367 568.48 386.044 568.48 386.044 591.157 363.367 591.157Z" fill="#D8DC35" fill-rule="evenodd"/><path d="M-67.499 591.157-44.8218 591.157-44.8218 613.834-67.499 613.834Z" fill="#D8DC35" fill-rule="evenodd"/><path d="M-44.8218 591.157-22.1447 591.157-22.1447 613.834-44.8218 613.834Z" fill="#D8DC35" fill-rule="evenodd"/><path d="M-22.1447 591.157 0.532494 591.157 0.532494 613.834-22.1447 613.834Z" fill="#D8DC35" fill-rule="evenodd"/><path d="M0.532494 591.157 23.2097 591.157 23.2097 613.834 0.532494 613.834Z" fill="#D8DC35" fill-rule="evenodd"/><path d="M23.2097 591.157 45.8868 591.157 45.8868 613.834 23.2097 613.834Z" fill="#D8DC35" fill-rule="evenodd"/><path d="M45.8868 591.157 68.564 591.157 68.564 613.834 45.8868 613.834Z" fill="#D8DC35" fill-rule="evenodd"/><path d="M68.564 591.157 91.2412 591.157 91.2412 613.834 68.564 613.834Z" fill="#D8DC35" fill-rule="evenodd"/><path d="M91.2412 591.157 113.918 591.157 113.918 613.834 91.2412 613.834Z" fill="#D8DC35" fill-rule="evenodd"/><path d="M113.918 591.157 136.595 591.157 136.595 613.834 113.918 613.834Z" fill="#D8DC35" fill-rule="evenodd"/><path d="M136.595 591.157 159.273 591.157 159.273 613.834 136.595 613.834Z" fill="#D8DC35" fill-rule="evenodd"/><path d="M159.273 591.157 181.95 591.157 181.95 613.834 159.273 613.834Z" fill="#D8DC35" fill-rule="evenodd"/><path d="M181.95 591.157 204.627 591.157 204.627 613.834 181.95 613.834Z" fill="#D8DC35" fill-rule="evenodd"/><path d="M204.627 591.157 227.304 591.157 227.304 613.834 204.627 613.834Z" fill="#D8DC35" fill-rule="evenodd"/><path d="M227.304 591.157 249.981 591.157 249.981 613.834 227.304 613.834Z" fill="#D8DC35" fill-rule="evenodd"/><path d="M249.981 591.157 272.658 591.157 272.658 613.834 249.981 613.834Z" fill="#D8DC35" fill-rule="evenodd"/><path d="M272.658 591.157 295.336 591.157 295.336 613.834 272.658 613.834Z" fill="#D8DC35" fill-rule="evenodd"/><path d="M295.336 591.157 318.013 591.157 318.013 613.834 295.336 613.834Z" fill="#D8DC35" fill-rule="evenodd"/><path d="M318.013 591.157 340.69 591.157 340.69 613.834 318.013 613.834Z" fill="#D8DC35" fill-rule="evenodd"/><path d="M340.69 591.157 363.367 591.157 363.367 613.834 340.69 613.834Z" fill="#D8DC35" fill-rule="evenodd"/><path d="M363.367 591.157 386.044 591.157 386.044 613.834 363.367 613.834Z" fill="#D8DC35" fill-rule="evenodd"/><path d="M-67.499 613.834-44.8218 613.834-44.8218 636.511-67.499 636.511Z" fill="#D8DC35" fill-rule="evenodd"/><path d="M-44.8218 613.834-22.1447 613.834-22.1447 636.511-44.8218 636.511Z" fill="#D8DC35" fill-rule="evenodd"/><path d="M-22.1447 613.834 0.532494 613.834 0.532494 636.511-22.1447 636.511Z" fill="#D8DC35" fill-rule="evenodd"/><path d="M0.532494 613.834 23.2097 613.834 23.2097 636.511 0.532494 636.511Z" fill="#D8DC35" fill-rule="evenodd"/><path d="M23.2097 613.834 45.8868 613.834 45.8868 636.511 23.2097 636.511Z" fill="#D8DC35" fill-rule="evenodd"/><path d="M45.8868 613.834 68.564 613.834 68.564 636.511 45.8868 636.511Z" fill="#D8DC35" fill-rule="evenodd"/><path d="M68.564 613.834 91.2412 613.834 91.2412 636.511 68.564 636.511Z" fill="#D8DC35" fill-rule="evenodd"/><path d="M91.2412 613.834 113.918 613.834 113.918 636.511 91.2412 636.511Z" fill="#D8DC35" fill-rule="evenodd"/><path d="M113.918 613.834 136.595 613.834 136.595 636.511 113.918 636.511Z" fill="#D8DC35" fill-rule="evenodd"/><path d="M136.595 613.834 159.273 613.834 159.273 636.511 136.595 636.511Z" fill="#D8DC35" fill-rule="evenodd"/><path d="M159.273 613.834 181.95 613.834 181.95 636.511 159.273 636.511Z" fill="#D8DC35" fill-rule="evenodd"/><path d="M181.95 613.834 204.627 613.834 204.627 636.511 181.95 636.511Z" fill="#D8DC35" fill-rule="evenodd"/><path d="M204.627 613.834 227.304 613.834 227.304 636.511 204.627 636.511Z" fill="#D8DC35" fill-rule="evenodd"/><path d="M227.304 613.834 249.981 613.834 249.981 636.511 227.304 636.511Z" fill="#D8DC35" fill-rule="evenodd"/><path d="M249.981 613.834 272.658 613.834 272.658 636.511 249.981 636.511Z" fill="#D8DC35" fill-rule="evenodd"/><path d="M272.658 613.834 295.336 613.834 295.336 636.511 272.658 636.511Z" fill="#D8DC35" fill-rule="evenodd"/><path d="M295.336 613.834 318.013 613.834 318.013 636.511 295.336 636.511Z" fill="#D8DC35" fill-rule="evenodd"/><path d="M318.013 613.834 340.69 613.834 340.69 636.511 318.013 636.511Z" fill="#D8DC35" fill-rule="evenodd"/><path d="M340.69 613.834 363.367 613.834 363.367 636.511 340.69 636.511Z" fill="#D8DC35" fill-rule="evenodd"/><path d="M363.367 613.834 386.044 613.834 386.044 636.511 363.367 636.511Z" fill="#D8DC35" fill-rule="evenodd"/><path d="M-44.8218 454.427-44.8218 637.178" stroke="#000000" stroke-width="1.33333" stroke-linejoin="round" stroke-miterlimit="10" fill="none" fill-rule="evenodd"/><path d="M-22.1447 454.427-22.1447 637.178" stroke="#000000" stroke-width="1.33333" stroke-linejoin="round" stroke-miterlimit="10" fill="none" fill-rule="evenodd"/><path d="M0.532494 454.427 0.532494 637.178" stroke="#000000" stroke-width="1.33333" stroke-linejoin="round" stroke-miterlimit="10" fill="none" fill-rule="evenodd"/><path d="M23.2097 454.427 23.2097 637.178" stroke="#000000" stroke-width="1.33333" stroke-linejoin="round" stroke-miterlimit="10" fill="none" fill-rule="evenodd"/><path d="M45.8868 454.427 45.8868 637.178" stroke="#000000" stroke-width="1.33333" stroke-linejoin="round" stroke-miterlimit="10" fill="none" fill-rule="evenodd"/><path d="M68.564 454.427 68.564 637.178" stroke="#000000" stroke-width="1.33333" stroke-linejoin="round" stroke-miterlimit="10" fill="none" fill-rule="evenodd"/><path d="M91.2412 454.427 91.2412 637.178" stroke="#000000" stroke-width="1.33333" stroke-linejoin="round" stroke-miterlimit="10" fill="none" fill-rule="evenodd"/><path d="M113.918 454.427 113.918 637.178" stroke="#000000" stroke-width="1.33333" stroke-linejoin="round" stroke-miterlimit="10" fill="none" fill-rule="evenodd"/><path d="M136.595 454.427 136.595 637.178" stroke="#000000" stroke-width="1.33333" stroke-linejoin="round" stroke-miterlimit="10" fill="none" fill-rule="evenodd"/><path d="M159.273 454.427 159.273 637.178" stroke="#000000" stroke-width="1.33333" stroke-linejoin="round" stroke-miterlimit="10" fill="none" fill-rule="evenodd"/><path d="M181.95 477.104 181.95 637.178" stroke="#000000" stroke-width="1.33333" stroke-linejoin="round" stroke-miterlimit="10" fill="none" fill-rule="evenodd"/><path d="M204.627 477.104 204.627 637.178" stroke="#000000" stroke-width="1.33333" stroke-linejoin="round" stroke-miterlimit="10" fill="none" fill-rule="evenodd"/><path d="M227.304 477.104 227.304 637.178" stroke="#000000" stroke-width="1.33333" stroke-linejoin="round" stroke-miterlimit="10" fill="none" fill-rule="evenodd"/><path d="M249.981 477.104 249.981 637.178" stroke="#000000" stroke-width="1.33333" stroke-linejoin="round" stroke-miterlimit="10" fill="none" fill-rule="evenodd"/><path d="M272.658 477.104 272.658 637.178" stroke="#000000" stroke-width="1.33333" stroke-linejoin="round" stroke-miterlimit="10" fill="none" fill-rule="evenodd"/><path d="M295.336 477.104 295.336 637.178" stroke="#000000" stroke-width="1.33333" stroke-linejoin="round" stroke-miterlimit="10" fill="none" fill-rule="evenodd"/><path d="M318.013 477.104 318.013 637.178" stroke="#000000" stroke-width="1.33333" stroke-linejoin="round" stroke-miterlimit="10" fill="none" fill-rule="evenodd"/><path d="M340.69 477.104 340.69 637.178" stroke="#000000" stroke-width="1.33333" stroke-linejoin="round" stroke-miterlimit="10" fill="none" fill-rule="evenodd"/><path d="M363.367 477.104 363.367 637.178" stroke="#000000" stroke-width="1.33333" stroke-linejoin="round" stroke-miterlimit="10" fill="none" fill-rule="evenodd"/><path d="M-68.1657 477.771 386.711 477.771" stroke="#000000" stroke-width="1.33333" stroke-linejoin="round" stroke-miterlimit="10" fill="none" fill-rule="evenodd"/><path d="M-68.1657 500.448 386.711 500.448" stroke="#000000" stroke-width="1.33333" stroke-linejoin="round" stroke-miterlimit="10" fill="none" fill-rule="evenodd"/><path d="M-68.1657 523.125 386.711 523.125" stroke="#000000" stroke-width="1.33333" stroke-linejoin="round" stroke-miterlimit="10" fill="none" fill-rule="evenodd"/><path d="M-68.1657 545.803 386.711 545.803" stroke="#000000" stroke-width="1.33333" stroke-linejoin="round" stroke-miterlimit="10" fill="none" fill-rule="evenodd"/><path d="M-68.1657 568.48 386.711 568.48" stroke="#000000" stroke-width="1.33333" stroke-linejoin="round" stroke-miterlimit="10" fill="none" fill-rule="evenodd"/><path d="M-68.1657 591.157 386.711 591.157" stroke="#000000" stroke-width="1.33333" stroke-linejoin="round" stroke-miterlimit="10" fill="none" fill-rule="evenodd"/><path d="M-68.1657 613.834 386.711 613.834" stroke="#000000" stroke-width="1.33333" stroke-linejoin="round" stroke-miterlimit="10" fill="none" fill-rule="evenodd"/><path d="M-67.499 454.427-67.499 637.178" stroke="#000000" stroke-width="1.33333" stroke-linejoin="round" stroke-miterlimit="10" fill="none" fill-rule="evenodd"/><path d="M386.044 477.104 386.044 637.178" stroke="#000000" stroke-width="1.33333" stroke-linejoin="round" stroke-miterlimit="10" fill="none" fill-rule="evenodd"/><path d="M-68.1657 455.094 159.939 455.094" stroke="#000000" stroke-width="1.33333" stroke-linejoin="round" stroke-miterlimit="10" fill="none" fill-rule="evenodd"/><path d="M-68.1657 636.511 386.711 636.511" stroke="#000000" stroke-width="1.33333" stroke-linejoin="round" stroke-miterlimit="10" fill="none" fill-rule="evenodd"/><text font-family="Calibri,Calibri_MSFontService,sans-serif" font-weight="700" font-size="21" transform="translate(77.1115 662)">Indouisme (15,0%)</text></g></svg>