<svg width="457" height="185" xmlns="http://www.w3.org/2000/svg" xmlns:xlink="http://www.w3.org/1999/xlink" overflow="hidden"><defs><clipPath id="clip0"><rect x="961" y="583" width="457" height="185"/></clipPath></defs><g clip-path="url(#clip0)" transform="translate(-961 -583)"><path d="M962.22 584.417 984.897 584.417 984.897 607.095 962.22 607.095Z" fill="#BEBEBE" fill-rule="evenodd"/><path d="M984.897 584.417 1007.57 584.417 1007.57 607.095 984.897 607.095Z" fill="#BEBEBE" fill-rule="evenodd"/><path d="M1007.57 584.417 1030.25 584.417 1030.25 607.095 1007.57 607.095Z" fill="#BEBEBE" fill-rule="evenodd"/><path d="M1030.25 584.417 1052.93 584.417 1052.93 607.095 1030.25 607.095Z" fill="#BEBEBE" fill-rule="evenodd"/><path d="M1052.93 584.417 1075.61 584.417 1075.61 607.095 1052.93 607.095Z" fill="#BEBEBE" fill-rule="evenodd"/><path d="M1075.61 584.417 1098.28 584.417 1098.28 607.095 1075.61 607.095Z" fill="#BEBEBE" fill-rule="evenodd"/><path d="M1098.28 584.417 1120.96 584.417 1120.96 607.095 1098.28 607.095Z" fill="#BEBEBE" fill-rule="evenodd"/><path d="M1120.96 584.417 1143.64 584.417 1143.64 607.095 1120.96 607.095Z" fill="#BEBEBE" fill-rule="evenodd"/><path d="M1143.64 584.417 1166.31 584.417 1166.31 607.095 1143.64 607.095Z" fill="#BEBEBE" fill-rule="evenodd"/><path d="M1166.31 584.417 1188.99 584.417 1188.99 607.095 1166.31 607.095Z" fill="#BEBEBE" fill-rule="evenodd"/><path d="M1188.99 584.417 1211.67 584.417 1211.67 607.095 1188.99 607.095Z" fill="#BEBEBE" fill-rule="evenodd"/><path d="M1211.67 584.417 1234.35 584.417 1234.35 607.095 1211.67 607.095Z" fill="#BEBEBE" fill-rule="evenodd"/><path d="M1234.35 584.417 1415.76 584.417 1415.76 607.095 1234.35 607.095Z" fill="#FFFFFF" fill-rule="evenodd"/><path d="M962.22 607.095 984.897 607.095 984.897 629.772 962.22 629.772Z" fill="#BEBEBE" fill-rule="evenodd"/><path d="M984.897 607.095 1007.57 607.095 1007.57 629.772 984.897 629.772Z" fill="#BEBEBE" fill-rule="evenodd"/><path d="M1007.57 607.095 1030.25 607.095 1030.25 629.772 1007.57 629.772Z" fill="#BEBEBE" fill-rule="evenodd"/><path d="M1030.25 607.095 1052.93 607.095 1052.93 629.772 1030.25 629.772Z" fill="#BEBEBE" fill-rule="evenodd"/><path d="M1052.93 607.095 1075.61 607.095 1075.61 629.772 1052.93 629.772Z" fill="#BEBEBE" fill-rule="evenodd"/><path d="M1075.61 607.095 1098.28 607.095 1098.28 629.772 1075.61 629.772Z" fill="#BEBEBE" fill-rule="evenodd"/><path d="M1098.28 607.095 1120.96 607.095 1120.96 629.772 1098.28 629.772Z" fill="#BEBEBE" fill-rule="evenodd"/><path d="M1120.96 607.095 1143.64 607.095 1143.64 629.772 1120.96 629.772Z" fill="#BEBEBE" fill-rule="evenodd"/><path d="M1143.64 607.095 1166.31 607.095 1166.31 629.772 1143.64 629.772Z" fill="#BEBEBE" fill-rule="evenodd"/><path d="M1166.31 607.095 1188.99 607.095 1188.99 629.772 1166.31 629.772Z" fill="#BEBEBE" fill-rule="evenodd"/><path d="M1188.99 607.095 1211.67 607.095 1211.67 629.772 1188.99 629.772Z" fill="#BEBEBE" fill-rule="evenodd"/><path d="M1211.67 607.095 1234.35 607.095 1234.35 629.772 1211.67 629.772Z" fill="#BEBEBE" fill-rule="evenodd"/><path d="M1234.35 607.095 1257.02 607.095 1257.02 629.772 1234.35 629.772Z" fill="#BEBEBE" fill-rule="evenodd"/><path d="M1257.02 607.095 1279.7 607.095 1279.7 629.772 1257.02 629.772Z" fill="#BEBEBE" fill-rule="evenodd"/><path d="M1279.7 607.095 1302.38 607.095 1302.38 629.772 1279.7 629.772Z" fill="#BEBEBE" fill-rule="evenodd"/><path d="M1302.38 607.095 1325.05 607.095 1325.05 629.772 1302.38 629.772Z" fill="#BEBEBE" fill-rule="evenodd"/><path d="M1325.05 607.095 1347.73 607.095 1347.73 629.772 1325.05 629.772Z" fill="#BEBEBE" fill-rule="evenodd"/><path d="M1347.73 607.095 1370.41 607.095 1370.41 629.772 1347.73 629.772Z" fill="#BEBEBE" fill-rule="evenodd"/><path d="M1370.41 607.095 1393.09 607.095 1393.09 629.772 1370.41 629.772Z" fill="#BEBEBE" fill-rule="evenodd"/><path d="M1393.09 607.095 1415.76 607.095 1415.76 629.772 1393.09 629.772Z" fill="#BEBEBE" fill-rule="evenodd"/><path d="M962.22 629.772 984.897 629.772 984.897 652.449 962.22 652.449Z" fill="#BEBEBE" fill-rule="evenodd"/><path d="M984.897 629.772 1007.57 629.772 1007.57 652.449 984.897 652.449Z" fill="#BEBEBE" fill-rule="evenodd"/><path d="M1007.57 629.772 1030.25 629.772 1030.25 652.449 1007.57 652.449Z" fill="#BEBEBE" fill-rule="evenodd"/><path d="M1030.25 629.772 1052.93 629.772 1052.93 652.449 1030.25 652.449Z" fill="#BEBEBE" fill-rule="evenodd"/><path d="M1052.93 629.772 1075.61 629.772 1075.61 652.449 1052.93 652.449Z" fill="#BEBEBE" fill-rule="evenodd"/><path d="M1075.61 629.772 1098.28 629.772 1098.28 652.449 1075.61 652.449Z" fill="#BEBEBE" fill-rule="evenodd"/><path d="M1098.28 629.772 1120.96 629.772 1120.96 652.449 1098.28 652.449Z" fill="#BEBEBE" fill-rule="evenodd"/><path d="M1120.96 629.772 1143.64 629.772 1143.64 652.449 1120.96 652.449Z" fill="#BEBEBE" fill-rule="evenodd"/><path d="M1143.64 629.772 1166.31 629.772 1166.31 652.449 1143.64 652.449Z" fill="#BEBEBE" fill-rule="evenodd"/><path d="M1166.31 629.772 1188.99 629.772 1188.99 652.449 1166.31 652.449Z" fill="#BEBEBE" fill-rule="evenodd"/><path d="M1188.99 629.772 1211.67 629.772 1211.67 652.449 1188.99 652.449Z" fill="#BEBEBE" fill-rule="evenodd"/><path d="M1211.67 629.772 1234.35 629.772 1234.35 652.449 1211.67 652.449Z" fill="#BEBEBE" fill-rule="evenodd"/><path d="M1234.35 629.772 1257.02 629.772 1257.02 652.449 1234.35 652.449Z" fill="#BEBEBE" fill-rule="evenodd"/><path d="M1257.02 629.772 1279.7 629.772 1279.7 652.449 1257.02 652.449Z" fill="#BEBEBE" fill-rule="evenodd"/><path d="M1279.7 629.772 1302.38 629.772 1302.38 652.449 1279.7 652.449Z" fill="#BEBEBE" fill-rule="evenodd"/><path d="M1302.38 629.772 1325.05 629.772 1325.05 652.449 1302.38 652.449Z" fill="#BEBEBE" fill-rule="evenodd"/><path d="M1325.05 629.772 1347.73 629.772 1347.73 652.449 1325.05 652.449Z" fill="#BEBEBE" fill-rule="evenodd"/><path d="M1347.73 629.772 1370.41 629.772 1370.41 652.449 1347.73 652.449Z" fill="#BEBEBE" fill-rule="evenodd"/><path d="M1370.41 629.772 1393.09 629.772 1393.09 652.449 1370.41 652.449Z" fill="#BEBEBE" fill-rule="evenodd"/><path d="M1393.09 629.772 1415.76 629.772 1415.76 652.449 1393.09 652.449Z" fill="#BEBEBE" fill-rule="evenodd"/><path d="M962.22 652.449 984.897 652.449 984.897 675.126 962.22 675.126Z" fill="#BEBEBE" fill-rule="evenodd"/><path d="M984.897 652.449 1007.57 652.449 1007.57 675.126 984.897 675.126Z" fill="#BEBEBE" fill-rule="evenodd"/><path d="M1007.57 652.449 1030.25 652.449 1030.25 675.126 1007.57 675.126Z" fill="#BEBEBE" fill-rule="evenodd"/><path d="M1030.25 652.449 1052.93 652.449 1052.93 675.126 1030.25 675.126Z" fill="#BEBEBE" fill-rule="evenodd"/><path d="M1052.93 652.449 1075.61 652.449 1075.61 675.126 1052.93 675.126Z" fill="#BEBEBE" fill-rule="evenodd"/><path d="M1075.61 652.449 1098.28 652.449 1098.28 675.126 1075.61 675.126Z" fill="#BEBEBE" fill-rule="evenodd"/><path d="M1098.28 652.449 1120.96 652.449 1120.96 675.126 1098.28 675.126Z" fill="#BEBEBE" fill-rule="evenodd"/><path d="M1120.96 652.449 1143.64 652.449 1143.64 675.126 1120.96 675.126Z" fill="#BEBEBE" fill-rule="evenodd"/><path d="M1143.64 652.449 1166.31 652.449 1166.31 675.126 1143.64 675.126Z" fill="#BEBEBE" fill-rule="evenodd"/><path d="M1166.31 652.449 1188.99 652.449 1188.99 675.126 1166.31 675.126Z" fill="#BEBEBE" fill-rule="evenodd"/><path d="M1188.99 652.449 1211.67 652.449 1211.67 675.126 1188.99 675.126Z" fill="#BEBEBE" fill-rule="evenodd"/><path d="M1211.67 652.449 1234.35 652.449 1234.35 675.126 1211.67 675.126Z" fill="#BEBEBE" fill-rule="evenodd"/><path d="M1234.35 652.449 1257.02 652.449 1257.02 675.126 1234.35 675.126Z" fill="#BEBEBE" fill-rule="evenodd"/><path d="M1257.02 652.449 1279.7 652.449 1279.7 675.126 1257.02 675.126Z" fill="#BEBEBE" fill-rule="evenodd"/><path d="M1279.7 652.449 1302.38 652.449 1302.38 675.126 1279.7 675.126Z" fill="#BEBEBE" fill-rule="evenodd"/><path d="M1302.38 652.449 1325.05 652.449 1325.05 675.126 1302.38 675.126Z" fill="#BEBEBE" fill-rule="evenodd"/><path d="M1325.05 652.449 1347.73 652.449 1347.73 675.126 1325.05 675.126Z" fill="#BEBEBE" fill-rule="evenodd"/><path d="M1347.73 652.449 1370.41 652.449 1370.41 675.126 1347.73 675.126Z" fill="#BEBEBE" fill-rule="evenodd"/><path d="M1370.41 652.449 1393.09 652.449 1393.09 675.126 1370.41 675.126Z" fill="#BEBEBE" fill-rule="evenodd"/><path d="M1393.09 652.449 1415.76 652.449 1415.76 675.126 1393.09 675.126Z" fill="#BEBEBE" fill-rule="evenodd"/><path d="M962.22 675.126 984.897 675.126 984.897 697.803 962.22 697.803Z" fill="#BEBEBE" fill-rule="evenodd"/><path d="M984.897 675.126 1007.57 675.126 1007.57 697.803 984.897 697.803Z" fill="#BEBEBE" fill-rule="evenodd"/><path d="M1007.57 675.126 1030.25 675.126 1030.25 697.803 1007.57 697.803Z" fill="#BEBEBE" fill-rule="evenodd"/><path d="M1030.25 675.126 1052.93 675.126 1052.93 697.803 1030.25 697.803Z" fill="#BEBEBE" fill-rule="evenodd"/><path d="M1052.93 675.126 1075.61 675.126 1075.61 697.803 1052.93 697.803Z" fill="#BEBEBE" fill-rule="evenodd"/><path d="M1075.61 675.126 1098.28 675.126 1098.28 697.803 1075.61 697.803Z" fill="#BEBEBE" fill-rule="evenodd"/><path d="M1098.28 675.126 1120.96 675.126 1120.96 697.803 1098.28 697.803Z" fill="#BEBEBE" fill-rule="evenodd"/><path d="M1120.96 675.126 1143.64 675.126 1143.64 697.803 1120.96 697.803Z" fill="#BEBEBE" fill-rule="evenodd"/><path d="M1143.64 675.126 1166.31 675.126 1166.31 697.803 1143.64 697.803Z" fill="#BEBEBE" fill-rule="evenodd"/><path d="M1166.31 675.126 1188.99 675.126 1188.99 697.803 1166.31 697.803Z" fill="#BEBEBE" fill-rule="evenodd"/><path d="M1188.99 675.126 1211.67 675.126 1211.67 697.803 1188.99 697.803Z" fill="#BEBEBE" fill-rule="evenodd"/><path d="M1211.67 675.126 1234.35 675.126 1234.35 697.803 1211.67 697.803Z" fill="#BEBEBE" fill-rule="evenodd"/><path d="M1234.35 675.126 1257.02 675.126 1257.02 697.803 1234.35 697.803Z" fill="#BEBEBE" fill-rule="evenodd"/><path d="M1257.02 675.126 1279.7 675.126 1279.7 697.803 1257.02 697.803Z" fill="#BEBEBE" fill-rule="evenodd"/><path d="M1279.7 675.126 1302.38 675.126 1302.38 697.803 1279.7 697.803Z" fill="#BEBEBE" fill-rule="evenodd"/><path d="M1302.38 675.126 1325.05 675.126 1325.05 697.803 1302.38 697.803Z" fill="#BEBEBE" fill-rule="evenodd"/><path d="M1325.05 675.126 1347.73 675.126 1347.73 697.803 1325.05 697.803Z" fill="#BEBEBE" fill-rule="evenodd"/><path d="M1347.73 675.126 1370.41 675.126 1370.41 697.803 1347.73 697.803Z" fill="#BEBEBE" fill-rule="evenodd"/><path d="M1370.41 675.126 1393.09 675.126 1393.09 697.803 1370.41 697.803Z" fill="#BEBEBE" fill-rule="evenodd"/><path d="M1393.09 675.126 1415.76 675.126 1415.76 697.803 1393.09 697.803Z" fill="#BEBEBE" fill-rule="evenodd"/><path d="M984.897 583.751 984.897 698.47" stroke="#000000" stroke-width="1.33333" stroke-linejoin="round" stroke-miterlimit="10" fill="none" fill-rule="evenodd"/><path d="M1007.57 583.751 1007.57 698.47" stroke="#000000" stroke-width="1.33333" stroke-linejoin="round" stroke-miterlimit="10" fill="none" fill-rule="evenodd"/><path d="M1030.25 583.751 1030.25 698.47" stroke="#000000" stroke-width="1.33333" stroke-linejoin="round" stroke-miterlimit="10" fill="none" fill-rule="evenodd"/><path d="M1052.93 583.751 1052.93 698.47" stroke="#000000" stroke-width="1.33333" stroke-linejoin="round" stroke-miterlimit="10" fill="none" fill-rule="evenodd"/><path d="M1075.61 583.751 1075.61 698.47" stroke="#000000" stroke-width="1.33333" stroke-linejoin="round" stroke-miterlimit="10" fill="none" fill-rule="evenodd"/><path d="M1098.28 583.751 1098.28 698.47" stroke="#000000" stroke-width="1.33333" stroke-linejoin="round" stroke-miterlimit="10" fill="none" fill-rule="evenodd"/><path d="M1120.96 583.751 1120.96 698.47" stroke="#000000" stroke-width="1.33333" stroke-linejoin="round" stroke-miterlimit="10" fill="none" fill-rule="evenodd"/><path d="M1143.64 583.751 1143.64 698.47" stroke="#000000" stroke-width="1.33333" stroke-linejoin="round" stroke-miterlimit="10" fill="none" fill-rule="evenodd"/><path d="M1166.31 583.751 1166.31 698.47" stroke="#000000" stroke-width="1.33333" stroke-linejoin="round" stroke-miterlimit="10" fill="none" fill-rule="evenodd"/><path d="M1188.99 583.751 1188.99 698.47" stroke="#000000" stroke-width="1.33333" stroke-linejoin="round" stroke-miterlimit="10" fill="none" fill-rule="evenodd"/><path d="M1211.67 583.751 1211.67 698.47" stroke="#000000" stroke-width="1.33333" stroke-linejoin="round" stroke-miterlimit="10" fill="none" fill-rule="evenodd"/><path d="M1234.35 583.751 1234.35 698.47" stroke="#000000" stroke-width="1.33333" stroke-linejoin="round" stroke-miterlimit="10" fill="none" fill-rule="evenodd"/><path d="M1257.02 606.428 1257.02 698.47" stroke="#000000" stroke-width="1.33333" stroke-linejoin="round" stroke-miterlimit="10" fill="none" fill-rule="evenodd"/><path d="M1279.7 606.428 1279.7 698.47" stroke="#000000" stroke-width="1.33333" stroke-linejoin="round" stroke-miterlimit="10" fill="none" fill-rule="evenodd"/><path d="M1302.38 606.428 1302.38 698.47" stroke="#000000" stroke-width="1.33333" stroke-linejoin="round" stroke-miterlimit="10" fill="none" fill-rule="evenodd"/><path d="M1325.05 606.428 1325.05 698.47" stroke="#000000" stroke-width="1.33333" stroke-linejoin="round" stroke-miterlimit="10" fill="none" fill-rule="evenodd"/><path d="M1347.73 606.428 1347.73 698.47" stroke="#000000" stroke-width="1.33333" stroke-linejoin="round" stroke-miterlimit="10" fill="none" fill-rule="evenodd"/><path d="M1370.41 606.428 1370.41 698.47" stroke="#000000" stroke-width="1.33333" stroke-linejoin="round" stroke-miterlimit="10" fill="none" fill-rule="evenodd"/><path d="M1393.09 606.428 1393.09 698.47" stroke="#000000" stroke-width="1.33333" stroke-linejoin="round" stroke-miterlimit="10" fill="none" fill-rule="evenodd"/><path d="M961.553 607.095 1416.43 607.095" stroke="#000000" stroke-width="1.33333" stroke-linejoin="round" stroke-miterlimit="10" fill="none" fill-rule="evenodd"/><path d="M961.553 629.772 1416.43 629.772" stroke="#000000" stroke-width="1.33333" stroke-linejoin="round" stroke-miterlimit="10" fill="none" fill-rule="evenodd"/><path d="M961.553 652.449 1416.43 652.449" stroke="#000000" stroke-width="1.33333" stroke-linejoin="round" stroke-miterlimit="10" fill="none" fill-rule="evenodd"/><path d="M961.553 675.126 1416.43 675.126" stroke="#000000" stroke-width="1.33333" stroke-linejoin="round" stroke-miterlimit="10" fill="none" fill-rule="evenodd"/><path d="M962.22 583.751 962.22 698.47" stroke="#000000" stroke-width="1.33333" stroke-linejoin="round" stroke-miterlimit="10" fill="none" fill-rule="evenodd"/><path d="M1415.76 606.428 1415.76 698.47" stroke="#000000" stroke-width="1.33333" stroke-linejoin="round" stroke-miterlimit="10" fill="none" fill-rule="evenodd"/><path d="M961.553 584.417 1235.01 584.417" stroke="#000000" stroke-width="1.33333" stroke-linejoin="round" stroke-miterlimit="10" fill="none" fill-rule="evenodd"/><path d="M961.553 697.803 1416.43 697.803" stroke="#000000" stroke-width="1.33333" stroke-linejoin="round" stroke-miterlimit="10" fill="none" fill-rule="evenodd"/><text font-family="Calibri,Calibri_MSFontService,sans-serif" font-weight="700" font-size="21" transform="translate(1132.86 724)">Sans religion<tspan font-size="21" x="28.1334" y="25">(9,2%)</tspan></text></g></svg>