<svg width="455" height="94" xmlns="http://www.w3.org/2000/svg" xmlns:xlink="http://www.w3.org/1999/xlink" overflow="hidden"><defs><clipPath id="clip0"><rect x="927" y="115" width="455" height="94"/></clipPath></defs><g clip-path="url(#clip0)" transform="translate(-927 -115)"><path d="M927.297 116.502 1131.39 116.502 1131.39 139.179 927.297 139.179Z" fill="#FFFFFF" fill-rule="evenodd"/><path d="M1131.39 116.502 1154.07 116.502 1154.07 139.179 1131.39 139.179Z" fill="#ABA7CF" fill-rule="evenodd"/><path d="M1154.07 116.502 1176.75 116.502 1176.75 139.179 1154.07 139.179Z" fill="#ABA7CF" fill-rule="evenodd"/><path d="M1176.75 116.502 1199.42 116.502 1199.42 139.179 1176.75 139.179Z" fill="#ABA7CF" fill-rule="evenodd"/><path d="M1199.42 116.502 1380.84 116.502 1380.84 139.179 1199.42 139.179Z" fill="#FFFFFF" fill-rule="evenodd"/><path d="M1131.39 115.835 1131.39 139.846" stroke="#000000" stroke-width="1.33333" stroke-linejoin="round" stroke-miterlimit="10" fill="none" fill-rule="evenodd"/><path d="M1154.07 115.835 1154.07 139.846" stroke="#000000" stroke-width="1.33333" stroke-linejoin="round" stroke-miterlimit="10" fill="none" fill-rule="evenodd"/><path d="M1176.75 115.835 1176.75 139.846" stroke="#000000" stroke-width="1.33333" stroke-linejoin="round" stroke-miterlimit="10" fill="none" fill-rule="evenodd"/><path d="M1199.42 115.835 1199.42 139.846" stroke="#000000" stroke-width="1.33333" stroke-linejoin="round" stroke-miterlimit="10" fill="none" fill-rule="evenodd"/><path d="M1130.73 116.502 1200.09 116.502" stroke="#000000" stroke-width="1.33333" stroke-linejoin="round" stroke-miterlimit="10" fill="none" fill-rule="evenodd"/><path d="M1130.73 139.179 1200.09 139.179" stroke="#000000" stroke-width="1.33333" stroke-linejoin="round" stroke-miterlimit="10" fill="none" fill-rule="evenodd"/><text font-family="Calibri,Calibri_MSFontService,sans-serif" font-weight="700" font-size="21" transform="translate(1127.3 164)">Sikhisme<tspan font-size="21" x="11.3334" y="25">(0,3%)</tspan></text></g></svg>