<svg width="457" height="374" xmlns="http://www.w3.org/2000/svg" xmlns:xlink="http://www.w3.org/1999/xlink" overflow="hidden"><defs><clipPath id="clip0"><rect x="631" y="15" width="457" height="374"/></clipPath></defs><g clip-path="url(#clip0)" transform="translate(-631 -15)"><text font-family="Calibri,Calibri_MSFontService,sans-serif" font-weight="700" font-size="24" transform="translate(833.001 338)">Islam<tspan x="-11.0867" y="29">(25,1%)</tspan></text><path d="M632.727 15.8841 655.404 15.8841 655.404 38.5613 632.727 38.5613Z" fill="#33783F" fill-rule="evenodd"/><path d="M655.404 15.8841 678.081 15.8841 678.081 38.5613 655.404 38.5613Z" fill="#33783F" fill-rule="evenodd"/><path d="M678.081 15.8841 700.758 15.8841 700.758 38.5613 678.081 38.5613Z" fill="#33783F" fill-rule="evenodd"/><path d="M700.758 15.8841 723.435 15.8841 723.435 38.5613 700.758 38.5613Z" fill="#33783F" fill-rule="evenodd"/><path d="M723.435 15.8841 746.112 15.8841 746.112 38.5613 723.435 38.5613Z" fill="#33783F" fill-rule="evenodd"/><path d="M746.112 15.8841 768.789 15.8841 768.789 38.5613 746.112 38.5613Z" fill="#33783F" fill-rule="evenodd"/><path d="M768.789 15.8841 791.467 15.8841 791.467 38.5613 768.789 38.5613Z" fill="#33783F" fill-rule="evenodd"/><path d="M791.467 15.8841 814.144 15.8841 814.144 38.5613 791.467 38.5613Z" fill="#33783F" fill-rule="evenodd"/><path d="M814.144 15.8841 836.821 15.8841 836.821 38.5613 814.144 38.5613Z" fill="#33783F" fill-rule="evenodd"/><path d="M836.821 15.8841 859.498 15.8841 859.498 38.5613 836.821 38.5613Z" fill="#33783F" fill-rule="evenodd"/><path d="M859.498 15.8841 882.175 15.8841 882.175 38.5613 859.498 38.5613Z" fill="#33783F" fill-rule="evenodd"/><path d="M882.175 15.8841 1086.27 15.8841 1086.27 38.5613 882.175 38.5613Z" fill="#FFFFFF" fill-rule="evenodd"/><path d="M632.727 38.5613 655.404 38.5613 655.404 61.2384 632.727 61.2384Z" fill="#33783F" fill-rule="evenodd"/><path d="M655.404 38.5613 678.081 38.5613 678.081 61.2384 655.404 61.2384Z" fill="#33783F" fill-rule="evenodd"/><path d="M678.081 38.5613 700.758 38.5613 700.758 61.2384 678.081 61.2384Z" fill="#33783F" fill-rule="evenodd"/><path d="M700.758 38.5613 723.435 38.5613 723.435 61.2384 700.758 61.2384Z" fill="#33783F" fill-rule="evenodd"/><path d="M723.435 38.5613 746.112 38.5613 746.112 61.2384 723.435 61.2384Z" fill="#33783F" fill-rule="evenodd"/><path d="M746.112 38.5613 768.789 38.5613 768.789 61.2384 746.112 61.2384Z" fill="#33783F" fill-rule="evenodd"/><path d="M768.789 38.5613 791.467 38.5613 791.467 61.2384 768.789 61.2384Z" fill="#33783F" fill-rule="evenodd"/><path d="M791.467 38.5613 814.144 38.5613 814.144 61.2384 791.467 61.2384Z" fill="#33783F" fill-rule="evenodd"/><path d="M814.144 38.5613 836.821 38.5613 836.821 61.2384 814.144 61.2384Z" fill="#33783F" fill-rule="evenodd"/><path d="M836.821 38.5613 859.498 38.5613 859.498 61.2384 836.821 61.2384Z" fill="#33783F" fill-rule="evenodd"/><path d="M859.498 38.5613 882.175 38.5613 882.175 61.2384 859.498 61.2384Z" fill="#33783F" fill-rule="evenodd"/><path d="M882.175 38.5613 904.852 38.5613 904.852 61.2384 882.175 61.2384Z" fill="#33783F" fill-rule="evenodd"/><path d="M904.852 38.5613 927.53 38.5613 927.53 61.2384 904.852 61.2384Z" fill="#33783F" fill-rule="evenodd"/><path d="M927.53 38.5613 950.207 38.5613 950.207 61.2384 927.53 61.2384Z" fill="#33783F" fill-rule="evenodd"/><path d="M950.207 38.5613 972.884 38.5613 972.884 61.2384 950.207 61.2384Z" fill="#33783F" fill-rule="evenodd"/><path d="M972.884 38.5613 995.561 38.5613 995.561 61.2384 972.884 61.2384Z" fill="#33783F" fill-rule="evenodd"/><path d="M995.561 38.5613 1018.24 38.5613 1018.24 61.2384 995.561 61.2384Z" fill="#33783F" fill-rule="evenodd"/><path d="M1018.24 38.5613 1040.92 38.5613 1040.92 61.2384 1018.24 61.2384Z" fill="#33783F" fill-rule="evenodd"/><path d="M1040.92 38.5613 1063.59 38.5613 1063.59 61.2384 1040.92 61.2384Z" fill="#33783F" fill-rule="evenodd"/><path d="M1063.59 38.5613 1086.27 38.5613 1086.27 61.2384 1063.59 61.2384Z" fill="#33783F" fill-rule="evenodd"/><path d="M632.727 61.2384 655.404 61.2384 655.404 83.9156 632.727 83.9156Z" fill="#33783F" fill-rule="evenodd"/><path d="M655.404 61.2384 678.081 61.2384 678.081 83.9156 655.404 83.9156Z" fill="#33783F" fill-rule="evenodd"/><path d="M678.081 61.2384 700.758 61.2384 700.758 83.9156 678.081 83.9156Z" fill="#33783F" fill-rule="evenodd"/><path d="M700.758 61.2384 723.435 61.2384 723.435 83.9156 700.758 83.9156Z" fill="#33783F" fill-rule="evenodd"/><path d="M723.435 61.2384 746.112 61.2384 746.112 83.9156 723.435 83.9156Z" fill="#33783F" fill-rule="evenodd"/><path d="M746.112 61.2384 768.789 61.2384 768.789 83.9156 746.112 83.9156Z" fill="#33783F" fill-rule="evenodd"/><path d="M768.789 61.2384 791.467 61.2384 791.467 83.9156 768.789 83.9156Z" fill="#33783F" fill-rule="evenodd"/><path d="M791.467 61.2384 814.144 61.2384 814.144 83.9156 791.467 83.9156Z" fill="#33783F" fill-rule="evenodd"/><path d="M814.144 61.2384 836.821 61.2384 836.821 83.9156 814.144 83.9156Z" fill="#33783F" fill-rule="evenodd"/><path d="M836.821 61.2384 859.498 61.2384 859.498 83.9156 836.821 83.9156Z" fill="#33783F" fill-rule="evenodd"/><path d="M859.498 61.2384 882.175 61.2384 882.175 83.9156 859.498 83.9156Z" fill="#33783F" fill-rule="evenodd"/><path d="M882.175 61.2384 904.852 61.2384 904.852 83.9156 882.175 83.9156Z" fill="#33783F" fill-rule="evenodd"/><path d="M904.852 61.2384 927.53 61.2384 927.53 83.9156 904.852 83.9156Z" fill="#33783F" fill-rule="evenodd"/><path d="M927.53 61.2384 950.207 61.2384 950.207 83.9156 927.53 83.9156Z" fill="#33783F" fill-rule="evenodd"/><path d="M950.207 61.2384 972.884 61.2384 972.884 83.9156 950.207 83.9156Z" fill="#33783F" fill-rule="evenodd"/><path d="M972.884 61.2384 995.561 61.2384 995.561 83.9156 972.884 83.9156Z" fill="#33783F" fill-rule="evenodd"/><path d="M995.561 61.2384 1018.24 61.2384 1018.24 83.9156 995.561 83.9156Z" fill="#33783F" fill-rule="evenodd"/><path d="M1018.24 61.2384 1040.92 61.2384 1040.92 83.9156 1018.24 83.9156Z" fill="#33783F" fill-rule="evenodd"/><path d="M1040.92 61.2384 1063.59 61.2384 1063.59 83.9156 1040.92 83.9156Z" fill="#33783F" fill-rule="evenodd"/><path d="M1063.59 61.2384 1086.27 61.2384 1086.27 83.9156 1063.59 83.9156Z" fill="#33783F" fill-rule="evenodd"/><path d="M632.727 83.9156 655.404 83.9156 655.404 106.593 632.727 106.593Z" fill="#33783F" fill-rule="evenodd"/><path d="M655.404 83.9156 678.081 83.9156 678.081 106.593 655.404 106.593Z" fill="#33783F" fill-rule="evenodd"/><path d="M678.081 83.9156 700.758 83.9156 700.758 106.593 678.081 106.593Z" fill="#33783F" fill-rule="evenodd"/><path d="M700.758 83.9156 723.435 83.9156 723.435 106.593 700.758 106.593Z" fill="#33783F" fill-rule="evenodd"/><path d="M723.435 83.9156 746.112 83.9156 746.112 106.593 723.435 106.593Z" fill="#33783F" fill-rule="evenodd"/><path d="M746.112 83.9156 768.789 83.9156 768.789 106.593 746.112 106.593Z" fill="#33783F" fill-rule="evenodd"/><path d="M768.789 83.9156 791.467 83.9156 791.467 106.593 768.789 106.593Z" fill="#33783F" fill-rule="evenodd"/><path d="M791.467 83.9156 814.144 83.9156 814.144 106.593 791.467 106.593Z" fill="#33783F" fill-rule="evenodd"/><path d="M814.144 83.9156 836.821 83.9156 836.821 106.593 814.144 106.593Z" fill="#33783F" fill-rule="evenodd"/><path d="M836.821 83.9156 859.498 83.9156 859.498 106.593 836.821 106.593Z" fill="#33783F" fill-rule="evenodd"/><path d="M859.498 83.9156 882.175 83.9156 882.175 106.593 859.498 106.593Z" fill="#33783F" fill-rule="evenodd"/><path d="M882.175 83.9156 904.852 83.9156 904.852 106.593 882.175 106.593Z" fill="#33783F" fill-rule="evenodd"/><path d="M904.852 83.9156 927.53 83.9156 927.53 106.593 904.852 106.593Z" fill="#33783F" fill-rule="evenodd"/><path d="M927.53 83.9156 950.207 83.9156 950.207 106.593 927.53 106.593Z" fill="#33783F" fill-rule="evenodd"/><path d="M950.207 83.9156 972.884 83.9156 972.884 106.593 950.207 106.593Z" fill="#33783F" fill-rule="evenodd"/><path d="M972.884 83.9156 995.561 83.9156 995.561 106.593 972.884 106.593Z" fill="#33783F" fill-rule="evenodd"/><path d="M995.561 83.9156 1018.24 83.9156 1018.24 106.593 995.561 106.593Z" fill="#33783F" fill-rule="evenodd"/><path d="M1018.24 83.9156 1040.92 83.9156 1040.92 106.593 1018.24 106.593Z" fill="#33783F" fill-rule="evenodd"/><path d="M1040.92 83.9156 1063.59 83.9156 1063.59 106.593 1040.92 106.593Z" fill="#33783F" fill-rule="evenodd"/><path d="M1063.59 83.9156 1086.27 83.9156 1086.27 106.593 1063.59 106.593Z" fill="#33783F" fill-rule="evenodd"/><path d="M632.727 106.593 655.404 106.593 655.404 129.27 632.727 129.27Z" fill="#33783F" fill-rule="evenodd"/><path d="M655.404 106.593 678.081 106.593 678.081 129.27 655.404 129.27Z" fill="#33783F" fill-rule="evenodd"/><path d="M678.081 106.593 700.758 106.593 700.758 129.27 678.081 129.27Z" fill="#33783F" fill-rule="evenodd"/><path d="M700.758 106.593 723.435 106.593 723.435 129.27 700.758 129.27Z" fill="#33783F" fill-rule="evenodd"/><path d="M723.435 106.593 746.112 106.593 746.112 129.27 723.435 129.27Z" fill="#33783F" fill-rule="evenodd"/><path d="M746.112 106.593 768.789 106.593 768.789 129.27 746.112 129.27Z" fill="#33783F" fill-rule="evenodd"/><path d="M768.789 106.593 791.467 106.593 791.467 129.27 768.789 129.27Z" fill="#33783F" fill-rule="evenodd"/><path d="M791.467 106.593 814.144 106.593 814.144 129.27 791.467 129.27Z" fill="#33783F" fill-rule="evenodd"/><path d="M814.144 106.593 836.821 106.593 836.821 129.27 814.144 129.27Z" fill="#33783F" fill-rule="evenodd"/><path d="M836.821 106.593 859.498 106.593 859.498 129.27 836.821 129.27Z" fill="#33783F" fill-rule="evenodd"/><path d="M859.498 106.593 882.175 106.593 882.175 129.27 859.498 129.27Z" fill="#33783F" fill-rule="evenodd"/><path d="M882.175 106.593 904.852 106.593 904.852 129.27 882.175 129.27Z" fill="#33783F" fill-rule="evenodd"/><path d="M904.852 106.593 927.53 106.593 927.53 129.27 904.852 129.27Z" fill="#33783F" fill-rule="evenodd"/><path d="M927.53 106.593 950.207 106.593 950.207 129.27 927.53 129.27Z" fill="#33783F" fill-rule="evenodd"/><path d="M950.207 106.593 972.884 106.593 972.884 129.27 950.207 129.27Z" fill="#33783F" fill-rule="evenodd"/><path d="M972.884 106.593 995.561 106.593 995.561 129.27 972.884 129.27Z" fill="#33783F" fill-rule="evenodd"/><path d="M995.561 106.593 1018.24 106.593 1018.24 129.27 995.561 129.27Z" fill="#33783F" fill-rule="evenodd"/><path d="M1018.24 106.593 1040.92 106.593 1040.92 129.27 1018.24 129.27Z" fill="#33783F" fill-rule="evenodd"/><path d="M1040.92 106.593 1063.59 106.593 1063.59 129.27 1040.92 129.27Z" fill="#33783F" fill-rule="evenodd"/><path d="M1063.59 106.593 1086.27 106.593 1086.27 129.27 1063.59 129.27Z" fill="#33783F" fill-rule="evenodd"/><path d="M632.727 129.27 655.404 129.27 655.404 151.947 632.727 151.947Z" fill="#33783F" fill-rule="evenodd"/><path d="M655.404 129.27 678.081 129.27 678.081 151.947 655.404 151.947Z" fill="#33783F" fill-rule="evenodd"/><path d="M678.081 129.27 700.758 129.27 700.758 151.947 678.081 151.947Z" fill="#33783F" fill-rule="evenodd"/><path d="M700.758 129.27 723.435 129.27 723.435 151.947 700.758 151.947Z" fill="#33783F" fill-rule="evenodd"/><path d="M723.435 129.27 746.112 129.27 746.112 151.947 723.435 151.947Z" fill="#33783F" fill-rule="evenodd"/><path d="M746.112 129.27 768.789 129.27 768.789 151.947 746.112 151.947Z" fill="#33783F" fill-rule="evenodd"/><path d="M768.789 129.27 791.467 129.27 791.467 151.947 768.789 151.947Z" fill="#33783F" fill-rule="evenodd"/><path d="M791.467 129.27 814.144 129.27 814.144 151.947 791.467 151.947Z" fill="#33783F" fill-rule="evenodd"/><path d="M814.144 129.27 836.821 129.27 836.821 151.947 814.144 151.947Z" fill="#33783F" fill-rule="evenodd"/><path d="M836.821 129.27 859.498 129.27 859.498 151.947 836.821 151.947Z" fill="#33783F" fill-rule="evenodd"/><path d="M859.498 129.27 882.175 129.27 882.175 151.947 859.498 151.947Z" fill="#33783F" fill-rule="evenodd"/><path d="M882.175 129.27 904.852 129.27 904.852 151.947 882.175 151.947Z" fill="#33783F" fill-rule="evenodd"/><path d="M904.852 129.27 927.53 129.27 927.53 151.947 904.852 151.947Z" fill="#33783F" fill-rule="evenodd"/><path d="M927.53 129.27 950.207 129.27 950.207 151.947 927.53 151.947Z" fill="#33783F" fill-rule="evenodd"/><path d="M950.207 129.27 972.884 129.27 972.884 151.947 950.207 151.947Z" fill="#33783F" fill-rule="evenodd"/><path d="M972.884 129.27 995.561 129.27 995.561 151.947 972.884 151.947Z" fill="#33783F" fill-rule="evenodd"/><path d="M995.561 129.27 1018.24 129.27 1018.24 151.947 995.561 151.947Z" fill="#33783F" fill-rule="evenodd"/><path d="M1018.24 129.27 1040.92 129.27 1040.92 151.947 1018.24 151.947Z" fill="#33783F" fill-rule="evenodd"/><path d="M1040.92 129.27 1063.59 129.27 1063.59 151.947 1040.92 151.947Z" fill="#33783F" fill-rule="evenodd"/><path d="M1063.59 129.27 1086.27 129.27 1086.27 151.947 1063.59 151.947Z" fill="#33783F" fill-rule="evenodd"/><path d="M632.727 151.947 655.404 151.947 655.404 174.624 632.727 174.624Z" fill="#33783F" fill-rule="evenodd"/><path d="M655.404 151.947 678.081 151.947 678.081 174.624 655.404 174.624Z" fill="#33783F" fill-rule="evenodd"/><path d="M678.081 151.947 700.758 151.947 700.758 174.624 678.081 174.624Z" fill="#33783F" fill-rule="evenodd"/><path d="M700.758 151.947 723.435 151.947 723.435 174.624 700.758 174.624Z" fill="#33783F" fill-rule="evenodd"/><path d="M723.435 151.947 746.112 151.947 746.112 174.624 723.435 174.624Z" fill="#33783F" fill-rule="evenodd"/><path d="M746.112 151.947 768.789 151.947 768.789 174.624 746.112 174.624Z" fill="#33783F" fill-rule="evenodd"/><path d="M768.789 151.947 791.467 151.947 791.467 174.624 768.789 174.624Z" fill="#33783F" fill-rule="evenodd"/><path d="M791.467 151.947 814.144 151.947 814.144 174.624 791.467 174.624Z" fill="#33783F" fill-rule="evenodd"/><path d="M814.144 151.947 836.821 151.947 836.821 174.624 814.144 174.624Z" fill="#33783F" fill-rule="evenodd"/><path d="M836.821 151.947 859.498 151.947 859.498 174.624 836.821 174.624Z" fill="#33783F" fill-rule="evenodd"/><path d="M859.498 151.947 882.175 151.947 882.175 174.624 859.498 174.624Z" fill="#33783F" fill-rule="evenodd"/><path d="M882.175 151.947 904.852 151.947 904.852 174.624 882.175 174.624Z" fill="#33783F" fill-rule="evenodd"/><path d="M904.852 151.947 927.53 151.947 927.53 174.624 904.852 174.624Z" fill="#33783F" fill-rule="evenodd"/><path d="M927.53 151.947 950.207 151.947 950.207 174.624 927.53 174.624Z" fill="#33783F" fill-rule="evenodd"/><path d="M950.207 151.947 972.884 151.947 972.884 174.624 950.207 174.624Z" fill="#33783F" fill-rule="evenodd"/><path d="M972.884 151.947 995.561 151.947 995.561 174.624 972.884 174.624Z" fill="#33783F" fill-rule="evenodd"/><path d="M995.561 151.947 1018.24 151.947 1018.24 174.624 995.561 174.624Z" fill="#33783F" fill-rule="evenodd"/><path d="M1018.24 151.947 1040.92 151.947 1040.92 174.624 1018.24 174.624Z" fill="#33783F" fill-rule="evenodd"/><path d="M1040.92 151.947 1063.59 151.947 1063.59 174.624 1040.92 174.624Z" fill="#33783F" fill-rule="evenodd"/><path d="M1063.59 151.947 1086.27 151.947 1086.27 174.624 1063.59 174.624Z" fill="#33783F" fill-rule="evenodd"/><path d="M632.727 174.624 655.404 174.624 655.404 197.301 632.727 197.301Z" fill="#33783F" fill-rule="evenodd"/><path d="M655.404 174.624 678.081 174.624 678.081 197.301 655.404 197.301Z" fill="#33783F" fill-rule="evenodd"/><path d="M678.081 174.624 700.758 174.624 700.758 197.301 678.081 197.301Z" fill="#33783F" fill-rule="evenodd"/><path d="M700.758 174.624 723.435 174.624 723.435 197.301 700.758 197.301Z" fill="#33783F" fill-rule="evenodd"/><path d="M723.435 174.624 746.112 174.624 746.112 197.301 723.435 197.301Z" fill="#33783F" fill-rule="evenodd"/><path d="M746.112 174.624 768.789 174.624 768.789 197.301 746.112 197.301Z" fill="#33783F" fill-rule="evenodd"/><path d="M768.789 174.624 791.467 174.624 791.467 197.301 768.789 197.301Z" fill="#33783F" fill-rule="evenodd"/><path d="M791.467 174.624 814.144 174.624 814.144 197.301 791.467 197.301Z" fill="#33783F" fill-rule="evenodd"/><path d="M814.144 174.624 836.821 174.624 836.821 197.301 814.144 197.301Z" fill="#33783F" fill-rule="evenodd"/><path d="M836.821 174.624 859.498 174.624 859.498 197.301 836.821 197.301Z" fill="#33783F" fill-rule="evenodd"/><path d="M859.498 174.624 882.175 174.624 882.175 197.301 859.498 197.301Z" fill="#33783F" fill-rule="evenodd"/><path d="M882.175 174.624 904.852 174.624 904.852 197.301 882.175 197.301Z" fill="#33783F" fill-rule="evenodd"/><path d="M904.852 174.624 927.53 174.624 927.53 197.301 904.852 197.301Z" fill="#33783F" fill-rule="evenodd"/><path d="M927.53 174.624 950.207 174.624 950.207 197.301 927.53 197.301Z" fill="#33783F" fill-rule="evenodd"/><path d="M950.207 174.624 972.884 174.624 972.884 197.301 950.207 197.301Z" fill="#33783F" fill-rule="evenodd"/><path d="M972.884 174.624 995.561 174.624 995.561 197.301 972.884 197.301Z" fill="#33783F" fill-rule="evenodd"/><path d="M995.561 174.624 1018.24 174.624 1018.24 197.301 995.561 197.301Z" fill="#33783F" fill-rule="evenodd"/><path d="M1018.24 174.624 1040.92 174.624 1040.92 197.301 1018.24 197.301Z" fill="#33783F" fill-rule="evenodd"/><path d="M1040.92 174.624 1063.59 174.624 1063.59 197.301 1040.92 197.301Z" fill="#33783F" fill-rule="evenodd"/><path d="M1063.59 174.624 1086.27 174.624 1086.27 197.301 1063.59 197.301Z" fill="#33783F" fill-rule="evenodd"/><path d="M632.727 197.301 655.404 197.301 655.404 219.979 632.727 219.979Z" fill="#33783F" fill-rule="evenodd"/><path d="M655.404 197.301 678.081 197.301 678.081 219.979 655.404 219.979Z" fill="#33783F" fill-rule="evenodd"/><path d="M678.081 197.301 700.758 197.301 700.758 219.979 678.081 219.979Z" fill="#33783F" fill-rule="evenodd"/><path d="M700.758 197.301 723.435 197.301 723.435 219.979 700.758 219.979Z" fill="#33783F" fill-rule="evenodd"/><path d="M723.435 197.301 746.112 197.301 746.112 219.979 723.435 219.979Z" fill="#33783F" fill-rule="evenodd"/><path d="M746.112 197.301 768.789 197.301 768.789 219.979 746.112 219.979Z" fill="#33783F" fill-rule="evenodd"/><path d="M768.789 197.301 791.467 197.301 791.467 219.979 768.789 219.979Z" fill="#33783F" fill-rule="evenodd"/><path d="M791.467 197.301 814.144 197.301 814.144 219.979 791.467 219.979Z" fill="#33783F" fill-rule="evenodd"/><path d="M814.144 197.301 836.821 197.301 836.821 219.979 814.144 219.979Z" fill="#33783F" fill-rule="evenodd"/><path d="M836.821 197.301 859.498 197.301 859.498 219.979 836.821 219.979Z" fill="#33783F" fill-rule="evenodd"/><path d="M859.498 197.301 882.175 197.301 882.175 219.979 859.498 219.979Z" fill="#33783F" fill-rule="evenodd"/><path d="M882.175 197.301 904.852 197.301 904.852 219.979 882.175 219.979Z" fill="#33783F" fill-rule="evenodd"/><path d="M904.852 197.301 927.53 197.301 927.53 219.979 904.852 219.979Z" fill="#33783F" fill-rule="evenodd"/><path d="M927.53 197.301 950.207 197.301 950.207 219.979 927.53 219.979Z" fill="#33783F" fill-rule="evenodd"/><path d="M950.207 197.301 972.884 197.301 972.884 219.979 950.207 219.979Z" fill="#33783F" fill-rule="evenodd"/><path d="M972.884 197.301 995.561 197.301 995.561 219.979 972.884 219.979Z" fill="#33783F" fill-rule="evenodd"/><path d="M995.561 197.301 1018.24 197.301 1018.24 219.979 995.561 219.979Z" fill="#33783F" fill-rule="evenodd"/><path d="M1018.24 197.301 1040.92 197.301 1040.92 219.979 1018.24 219.979Z" fill="#33783F" fill-rule="evenodd"/><path d="M1040.92 197.301 1063.59 197.301 1063.59 219.979 1040.92 219.979Z" fill="#33783F" fill-rule="evenodd"/><path d="M1063.59 197.301 1086.27 197.301 1086.27 219.979 1063.59 219.979Z" fill="#33783F" fill-rule="evenodd"/><path d="M632.727 219.979 655.404 219.979 655.404 242.656 632.727 242.656Z" fill="#33783F" fill-rule="evenodd"/><path d="M655.404 219.979 678.081 219.979 678.081 242.656 655.404 242.656Z" fill="#33783F" fill-rule="evenodd"/><path d="M678.081 219.979 700.758 219.979 700.758 242.656 678.081 242.656Z" fill="#33783F" fill-rule="evenodd"/><path d="M700.758 219.979 723.435 219.979 723.435 242.656 700.758 242.656Z" fill="#33783F" fill-rule="evenodd"/><path d="M723.435 219.979 746.112 219.979 746.112 242.656 723.435 242.656Z" fill="#33783F" fill-rule="evenodd"/><path d="M746.112 219.979 768.789 219.979 768.789 242.656 746.112 242.656Z" fill="#33783F" fill-rule="evenodd"/><path d="M768.789 219.979 791.467 219.979 791.467 242.656 768.789 242.656Z" fill="#33783F" fill-rule="evenodd"/><path d="M791.467 219.979 814.144 219.979 814.144 242.656 791.467 242.656Z" fill="#33783F" fill-rule="evenodd"/><path d="M814.144 219.979 836.821 219.979 836.821 242.656 814.144 242.656Z" fill="#33783F" fill-rule="evenodd"/><path d="M836.821 219.979 859.498 219.979 859.498 242.656 836.821 242.656Z" fill="#33783F" fill-rule="evenodd"/><path d="M859.498 219.979 882.175 219.979 882.175 242.656 859.498 242.656Z" fill="#33783F" fill-rule="evenodd"/><path d="M882.175 219.979 904.852 219.979 904.852 242.656 882.175 242.656Z" fill="#33783F" fill-rule="evenodd"/><path d="M904.852 219.979 927.53 219.979 927.53 242.656 904.852 242.656Z" fill="#33783F" fill-rule="evenodd"/><path d="M927.53 219.979 950.207 219.979 950.207 242.656 927.53 242.656Z" fill="#33783F" fill-rule="evenodd"/><path d="M950.207 219.979 972.884 219.979 972.884 242.656 950.207 242.656Z" fill="#33783F" fill-rule="evenodd"/><path d="M972.884 219.979 995.561 219.979 995.561 242.656 972.884 242.656Z" fill="#33783F" fill-rule="evenodd"/><path d="M995.561 219.979 1018.24 219.979 1018.24 242.656 995.561 242.656Z" fill="#33783F" fill-rule="evenodd"/><path d="M1018.24 219.979 1040.92 219.979 1040.92 242.656 1018.24 242.656Z" fill="#33783F" fill-rule="evenodd"/><path d="M1040.92 219.979 1063.59 219.979 1063.59 242.656 1040.92 242.656Z" fill="#33783F" fill-rule="evenodd"/><path d="M1063.59 219.979 1086.27 219.979 1086.27 242.656 1063.59 242.656Z" fill="#33783F" fill-rule="evenodd"/><path d="M632.727 242.656 655.404 242.656 655.404 265.333 632.727 265.333Z" fill="#33783F" fill-rule="evenodd"/><path d="M655.404 242.656 678.081 242.656 678.081 265.333 655.404 265.333Z" fill="#33783F" fill-rule="evenodd"/><path d="M678.081 242.656 700.758 242.656 700.758 265.333 678.081 265.333Z" fill="#33783F" fill-rule="evenodd"/><path d="M700.758 242.656 723.435 242.656 723.435 265.333 700.758 265.333Z" fill="#33783F" fill-rule="evenodd"/><path d="M723.435 242.656 746.112 242.656 746.112 265.333 723.435 265.333Z" fill="#33783F" fill-rule="evenodd"/><path d="M746.112 242.656 768.789 242.656 768.789 265.333 746.112 265.333Z" fill="#33783F" fill-rule="evenodd"/><path d="M768.789 242.656 791.467 242.656 791.467 265.333 768.789 265.333Z" fill="#33783F" fill-rule="evenodd"/><path d="M791.467 242.656 814.144 242.656 814.144 265.333 791.467 265.333Z" fill="#33783F" fill-rule="evenodd"/><path d="M814.144 242.656 836.821 242.656 836.821 265.333 814.144 265.333Z" fill="#33783F" fill-rule="evenodd"/><path d="M836.821 242.656 859.498 242.656 859.498 265.333 836.821 265.333Z" fill="#33783F" fill-rule="evenodd"/><path d="M859.498 242.656 882.175 242.656 882.175 265.333 859.498 265.333Z" fill="#33783F" fill-rule="evenodd"/><path d="M882.175 242.656 904.852 242.656 904.852 265.333 882.175 265.333Z" fill="#33783F" fill-rule="evenodd"/><path d="M904.852 242.656 927.53 242.656 927.53 265.333 904.852 265.333Z" fill="#33783F" fill-rule="evenodd"/><path d="M927.53 242.656 950.207 242.656 950.207 265.333 927.53 265.333Z" fill="#33783F" fill-rule="evenodd"/><path d="M950.207 242.656 972.884 242.656 972.884 265.333 950.207 265.333Z" fill="#33783F" fill-rule="evenodd"/><path d="M972.884 242.656 995.561 242.656 995.561 265.333 972.884 265.333Z" fill="#33783F" fill-rule="evenodd"/><path d="M995.561 242.656 1018.24 242.656 1018.24 265.333 995.561 265.333Z" fill="#33783F" fill-rule="evenodd"/><path d="M1018.24 242.656 1040.92 242.656 1040.92 265.333 1018.24 265.333Z" fill="#33783F" fill-rule="evenodd"/><path d="M1040.92 242.656 1063.59 242.656 1063.59 265.333 1040.92 265.333Z" fill="#33783F" fill-rule="evenodd"/><path d="M1063.59 242.656 1086.27 242.656 1086.27 265.333 1063.59 265.333Z" fill="#33783F" fill-rule="evenodd"/><path d="M632.727 265.333 655.404 265.333 655.404 288.01 632.727 288.01Z" fill="#33783F" fill-rule="evenodd"/><path d="M655.404 265.333 678.081 265.333 678.081 288.01 655.404 288.01Z" fill="#33783F" fill-rule="evenodd"/><path d="M678.081 265.333 700.758 265.333 700.758 288.01 678.081 288.01Z" fill="#33783F" fill-rule="evenodd"/><path d="M700.758 265.333 723.435 265.333 723.435 288.01 700.758 288.01Z" fill="#33783F" fill-rule="evenodd"/><path d="M723.435 265.333 746.112 265.333 746.112 288.01 723.435 288.01Z" fill="#33783F" fill-rule="evenodd"/><path d="M746.112 265.333 768.789 265.333 768.789 288.01 746.112 288.01Z" fill="#33783F" fill-rule="evenodd"/><path d="M768.789 265.333 791.467 265.333 791.467 288.01 768.789 288.01Z" fill="#33783F" fill-rule="evenodd"/><path d="M791.467 265.333 814.144 265.333 814.144 288.01 791.467 288.01Z" fill="#33783F" fill-rule="evenodd"/><path d="M814.144 265.333 836.821 265.333 836.821 288.01 814.144 288.01Z" fill="#33783F" fill-rule="evenodd"/><path d="M836.821 265.333 859.498 265.333 859.498 288.01 836.821 288.01Z" fill="#33783F" fill-rule="evenodd"/><path d="M859.498 265.333 882.175 265.333 882.175 288.01 859.498 288.01Z" fill="#33783F" fill-rule="evenodd"/><path d="M882.175 265.333 904.852 265.333 904.852 288.01 882.175 288.01Z" fill="#33783F" fill-rule="evenodd"/><path d="M904.852 265.333 927.53 265.333 927.53 288.01 904.852 288.01Z" fill="#33783F" fill-rule="evenodd"/><path d="M927.53 265.333 950.207 265.333 950.207 288.01 927.53 288.01Z" fill="#33783F" fill-rule="evenodd"/><path d="M950.207 265.333 972.884 265.333 972.884 288.01 950.207 288.01Z" fill="#33783F" fill-rule="evenodd"/><path d="M972.884 265.333 995.561 265.333 995.561 288.01 972.884 288.01Z" fill="#33783F" fill-rule="evenodd"/><path d="M995.561 265.333 1018.24 265.333 1018.24 288.01 995.561 288.01Z" fill="#33783F" fill-rule="evenodd"/><path d="M1018.24 265.333 1040.92 265.333 1040.92 288.01 1018.24 288.01Z" fill="#33783F" fill-rule="evenodd"/><path d="M1040.92 265.333 1063.59 265.333 1063.59 288.01 1040.92 288.01Z" fill="#33783F" fill-rule="evenodd"/><path d="M1063.59 265.333 1086.27 265.333 1086.27 288.01 1063.59 288.01Z" fill="#33783F" fill-rule="evenodd"/><path d="M632.727 288.01 655.404 288.01 655.404 310.687 632.727 310.687Z" fill="#33783F" fill-rule="evenodd"/><path d="M655.404 288.01 678.081 288.01 678.081 310.687 655.404 310.687Z" fill="#33783F" fill-rule="evenodd"/><path d="M678.081 288.01 700.758 288.01 700.758 310.687 678.081 310.687Z" fill="#33783F" fill-rule="evenodd"/><path d="M700.758 288.01 723.435 288.01 723.435 310.687 700.758 310.687Z" fill="#33783F" fill-rule="evenodd"/><path d="M723.435 288.01 746.112 288.01 746.112 310.687 723.435 310.687Z" fill="#33783F" fill-rule="evenodd"/><path d="M746.112 288.01 768.789 288.01 768.789 310.687 746.112 310.687Z" fill="#33783F" fill-rule="evenodd"/><path d="M768.789 288.01 791.467 288.01 791.467 310.687 768.789 310.687Z" fill="#33783F" fill-rule="evenodd"/><path d="M791.467 288.01 814.144 288.01 814.144 310.687 791.467 310.687Z" fill="#33783F" fill-rule="evenodd"/><path d="M814.144 288.01 836.821 288.01 836.821 310.687 814.144 310.687Z" fill="#33783F" fill-rule="evenodd"/><path d="M836.821 288.01 859.498 288.01 859.498 310.687 836.821 310.687Z" fill="#33783F" fill-rule="evenodd"/><path d="M859.498 288.01 882.175 288.01 882.175 310.687 859.498 310.687Z" fill="#33783F" fill-rule="evenodd"/><path d="M882.175 288.01 904.852 288.01 904.852 310.687 882.175 310.687Z" fill="#33783F" fill-rule="evenodd"/><path d="M904.852 288.01 927.53 288.01 927.53 310.687 904.852 310.687Z" fill="#33783F" fill-rule="evenodd"/><path d="M927.53 288.01 950.207 288.01 950.207 310.687 927.53 310.687Z" fill="#33783F" fill-rule="evenodd"/><path d="M950.207 288.01 972.884 288.01 972.884 310.687 950.207 310.687Z" fill="#33783F" fill-rule="evenodd"/><path d="M972.884 288.01 995.561 288.01 995.561 310.687 972.884 310.687Z" fill="#33783F" fill-rule="evenodd"/><path d="M995.561 288.01 1018.24 288.01 1018.24 310.687 995.561 310.687Z" fill="#33783F" fill-rule="evenodd"/><path d="M1018.24 288.01 1040.92 288.01 1040.92 310.687 1018.24 310.687Z" fill="#33783F" fill-rule="evenodd"/><path d="M1040.92 288.01 1063.59 288.01 1063.59 310.687 1040.92 310.687Z" fill="#33783F" fill-rule="evenodd"/><path d="M1063.59 288.01 1086.27 288.01 1086.27 310.687 1063.59 310.687Z" fill="#33783F" fill-rule="evenodd"/><path d="M655.404 15.2174 655.404 311.354" stroke="#000000" stroke-width="1.33333" stroke-linejoin="round" stroke-miterlimit="10" fill="none" fill-rule="evenodd"/><path d="M678.081 15.2174 678.081 311.354" stroke="#000000" stroke-width="1.33333" stroke-linejoin="round" stroke-miterlimit="10" fill="none" fill-rule="evenodd"/><path d="M700.758 15.2174 700.758 311.354" stroke="#000000" stroke-width="1.33333" stroke-linejoin="round" stroke-miterlimit="10" fill="none" fill-rule="evenodd"/><path d="M723.435 15.2174 723.435 311.354" stroke="#000000" stroke-width="1.33333" stroke-linejoin="round" stroke-miterlimit="10" fill="none" fill-rule="evenodd"/><path d="M746.112 15.2174 746.112 311.354" stroke="#000000" stroke-width="1.33333" stroke-linejoin="round" stroke-miterlimit="10" fill="none" fill-rule="evenodd"/><path d="M768.789 15.2174 768.789 311.354" stroke="#000000" stroke-width="1.33333" stroke-linejoin="round" stroke-miterlimit="10" fill="none" fill-rule="evenodd"/><path d="M791.467 15.2174 791.467 311.354" stroke="#000000" stroke-width="1.33333" stroke-linejoin="round" stroke-miterlimit="10" fill="none" fill-rule="evenodd"/><path d="M814.144 15.2174 814.144 311.354" stroke="#000000" stroke-width="1.33333" stroke-linejoin="round" stroke-miterlimit="10" fill="none" fill-rule="evenodd"/><path d="M836.821 15.2174 836.821 311.354" stroke="#000000" stroke-width="1.33333" stroke-linejoin="round" stroke-miterlimit="10" fill="none" fill-rule="evenodd"/><path d="M859.498 15.2174 859.498 311.354" stroke="#000000" stroke-width="1.33333" stroke-linejoin="round" stroke-miterlimit="10" fill="none" fill-rule="evenodd"/><path d="M882.175 15.2174 882.175 311.354" stroke="#000000" stroke-width="1.33333" stroke-linejoin="round" stroke-miterlimit="10" fill="none" fill-rule="evenodd"/><path d="M904.852 37.8946 904.852 311.354" stroke="#000000" stroke-width="1.33333" stroke-linejoin="round" stroke-miterlimit="10" fill="none" fill-rule="evenodd"/><path d="M927.53 37.8946 927.53 311.354" stroke="#000000" stroke-width="1.33333" stroke-linejoin="round" stroke-miterlimit="10" fill="none" fill-rule="evenodd"/><path d="M950.207 37.8946 950.207 311.354" stroke="#000000" stroke-width="1.33333" stroke-linejoin="round" stroke-miterlimit="10" fill="none" fill-rule="evenodd"/><path d="M972.884 37.8946 972.884 311.354" stroke="#000000" stroke-width="1.33333" stroke-linejoin="round" stroke-miterlimit="10" fill="none" fill-rule="evenodd"/><path d="M995.561 37.8946 995.561 311.354" stroke="#000000" stroke-width="1.33333" stroke-linejoin="round" stroke-miterlimit="10" fill="none" fill-rule="evenodd"/><path d="M1018.24 37.8946 1018.24 311.354" stroke="#000000" stroke-width="1.33333" stroke-linejoin="round" stroke-miterlimit="10" fill="none" fill-rule="evenodd"/><path d="M1040.92 37.8946 1040.92 311.354" stroke="#000000" stroke-width="1.33333" stroke-linejoin="round" stroke-miterlimit="10" fill="none" fill-rule="evenodd"/><path d="M1063.59 37.8946 1063.59 311.354" stroke="#000000" stroke-width="1.33333" stroke-linejoin="round" stroke-miterlimit="10" fill="none" fill-rule="evenodd"/><path d="M632.06 38.5613 1086.94 38.5613" stroke="#000000" stroke-width="1.33333" stroke-linejoin="round" stroke-miterlimit="10" fill="none" fill-rule="evenodd"/><path d="M632.06 61.2384 1086.94 61.2384" stroke="#000000" stroke-width="1.33333" stroke-linejoin="round" stroke-miterlimit="10" fill="none" fill-rule="evenodd"/><path d="M632.06 83.9156 1086.94 83.9156" stroke="#000000" stroke-width="1.33333" stroke-linejoin="round" stroke-miterlimit="10" fill="none" fill-rule="evenodd"/><path d="M632.06 106.593 1086.94 106.593" stroke="#000000" stroke-width="1.33333" stroke-linejoin="round" stroke-miterlimit="10" fill="none" fill-rule="evenodd"/><path d="M632.06 129.27 1086.94 129.27" stroke="#000000" stroke-width="1.33333" stroke-linejoin="round" stroke-miterlimit="10" fill="none" fill-rule="evenodd"/><path d="M632.06 151.947 1086.94 151.947" stroke="#000000" stroke-width="1.33333" stroke-linejoin="round" stroke-miterlimit="10" fill="none" fill-rule="evenodd"/><path d="M632.06 174.624 1086.94 174.624" stroke="#000000" stroke-width="1.33333" stroke-linejoin="round" stroke-miterlimit="10" fill="none" fill-rule="evenodd"/><path d="M632.06 197.301 1086.94 197.301" stroke="#000000" stroke-width="1.33333" stroke-linejoin="round" stroke-miterlimit="10" fill="none" fill-rule="evenodd"/><path d="M632.06 219.979 1086.94 219.979" stroke="#000000" stroke-width="1.33333" stroke-linejoin="round" stroke-miterlimit="10" fill="none" fill-rule="evenodd"/><path d="M632.06 242.656 1086.94 242.656" stroke="#000000" stroke-width="1.33333" stroke-linejoin="round" stroke-miterlimit="10" fill="none" fill-rule="evenodd"/><path d="M632.06 265.333 1086.94 265.333" stroke="#000000" stroke-width="1.33333" stroke-linejoin="round" stroke-miterlimit="10" fill="none" fill-rule="evenodd"/><path d="M632.06 288.01 1086.94 288.01" stroke="#000000" stroke-width="1.33333" stroke-linejoin="round" stroke-miterlimit="10" fill="none" fill-rule="evenodd"/><path d="M632.727 15.2174 632.727 311.354" stroke="#000000" stroke-width="1.33333" stroke-linejoin="round" stroke-miterlimit="10" fill="none" fill-rule="evenodd"/><path d="M1086.27 37.8946 1086.27 311.354" stroke="#000000" stroke-width="1.33333" stroke-linejoin="round" stroke-miterlimit="10" fill="none" fill-rule="evenodd"/><path d="M632.06 15.8841 882.842 15.8841" stroke="#000000" stroke-width="1.33333" stroke-linejoin="round" stroke-miterlimit="10" fill="none" fill-rule="evenodd"/><path d="M632.06 310.687 1086.94 310.687" stroke="#000000" stroke-width="1.33333" stroke-linejoin="round" stroke-miterlimit="10" fill="none" fill-rule="evenodd"/></g></svg>