<svg width="457" height="139" xmlns="http://www.w3.org/2000/svg" xmlns:xlink="http://www.w3.org/1999/xlink" overflow="hidden"><defs><clipPath id="clip0"><rect x="434" y="399" width="457" height="139"/></clipPath></defs><g clip-path="url(#clip0)" transform="translate(-434 -399)"><text font-family="Calibri,Calibri_MSFontService,sans-serif" font-weight="700" font-size="21" transform="translate(606.963 493)">Bouddhisme<tspan font-size="21" x="27.5867" y="25">(5,9%)</tspan></text><path d="M435.025 399.903 457.702 399.903 457.702 422.58 435.025 422.58Z" fill="#B84529" fill-rule="evenodd"/><path d="M457.702 399.903 480.38 399.903 480.38 422.58 457.702 422.58Z" fill="#B84529" fill-rule="evenodd"/><path d="M480.38 399.903 503.057 399.903 503.057 422.58 480.38 422.58Z" fill="#B84529" fill-rule="evenodd"/><path d="M503.057 399.903 525.734 399.903 525.734 422.58 503.057 422.58Z" fill="#B84529" fill-rule="evenodd"/><path d="M525.734 399.903 548.411 399.903 548.411 422.58 525.734 422.58Z" fill="#B84529" fill-rule="evenodd"/><path d="M548.411 399.903 571.088 399.903 571.088 422.58 548.411 422.58Z" fill="#B84529" fill-rule="evenodd"/><path d="M571.088 399.903 593.765 399.903 593.765 422.58 571.088 422.58Z" fill="#B84529" fill-rule="evenodd"/><path d="M593.765 399.903 616.443 399.903 616.443 422.58 593.765 422.58Z" fill="#B84529" fill-rule="evenodd"/><path d="M616.443 399.903 639.12 399.903 639.12 422.58 616.443 422.58Z" fill="#B84529" fill-rule="evenodd"/><path d="M639.12 399.903 661.797 399.903 661.797 422.58 639.12 422.58Z" fill="#B84529" fill-rule="evenodd"/><path d="M661.797 399.903 684.474 399.903 684.474 422.58 661.797 422.58Z" fill="#B84529" fill-rule="evenodd"/><path d="M684.474 399.903 707.151 399.903 707.151 422.58 684.474 422.58Z" fill="#B84529" fill-rule="evenodd"/><path d="M707.151 399.903 729.828 399.903 729.828 422.58 707.151 422.58Z" fill="#B84529" fill-rule="evenodd"/><path d="M729.828 399.903 752.506 399.903 752.506 422.58 729.828 422.58Z" fill="#B84529" fill-rule="evenodd"/><path d="M752.506 399.903 775.183 399.903 775.183 422.58 752.506 422.58Z" fill="#B84529" fill-rule="evenodd"/><path d="M775.183 399.903 797.86 399.903 797.86 422.58 775.183 422.58Z" fill="#B84529" fill-rule="evenodd"/><path d="M797.86 399.903 820.537 399.903 820.537 422.58 797.86 422.58Z" fill="#B84529" fill-rule="evenodd"/><path d="M820.537 399.903 843.214 399.903 843.214 422.58 820.537 422.58Z" fill="#B84529" fill-rule="evenodd"/><path d="M843.214 399.903 865.891 399.903 865.891 422.58 843.214 422.58Z" fill="#B84529" fill-rule="evenodd"/><path d="M865.891 399.903 888.569 399.903 888.569 422.58 865.891 422.58Z" fill="#FFFFFF" fill-rule="evenodd"/><path d="M435.025 422.58 457.702 422.58 457.702 445.257 435.025 445.257Z" fill="#B84529" fill-rule="evenodd"/><path d="M457.702 422.58 480.38 422.58 480.38 445.257 457.702 445.257Z" fill="#B84529" fill-rule="evenodd"/><path d="M480.38 422.58 503.057 422.58 503.057 445.257 480.38 445.257Z" fill="#B84529" fill-rule="evenodd"/><path d="M503.057 422.58 525.734 422.58 525.734 445.257 503.057 445.257Z" fill="#B84529" fill-rule="evenodd"/><path d="M525.734 422.58 548.411 422.58 548.411 445.257 525.734 445.257Z" fill="#B84529" fill-rule="evenodd"/><path d="M548.411 422.58 571.088 422.58 571.088 445.257 548.411 445.257Z" fill="#B84529" fill-rule="evenodd"/><path d="M571.088 422.58 593.765 422.58 593.765 445.257 571.088 445.257Z" fill="#B84529" fill-rule="evenodd"/><path d="M593.765 422.58 616.443 422.58 616.443 445.257 593.765 445.257Z" fill="#B84529" fill-rule="evenodd"/><path d="M616.443 422.58 639.12 422.58 639.12 445.257 616.443 445.257Z" fill="#B84529" fill-rule="evenodd"/><path d="M639.12 422.58 661.797 422.58 661.797 445.257 639.12 445.257Z" fill="#B84529" fill-rule="evenodd"/><path d="M661.797 422.58 684.474 422.58 684.474 445.257 661.797 445.257Z" fill="#B84529" fill-rule="evenodd"/><path d="M684.474 422.58 707.151 422.58 707.151 445.257 684.474 445.257Z" fill="#B84529" fill-rule="evenodd"/><path d="M707.151 422.58 729.828 422.58 729.828 445.257 707.151 445.257Z" fill="#B84529" fill-rule="evenodd"/><path d="M729.828 422.58 752.506 422.58 752.506 445.257 729.828 445.257Z" fill="#B84529" fill-rule="evenodd"/><path d="M752.506 422.58 775.183 422.58 775.183 445.257 752.506 445.257Z" fill="#B84529" fill-rule="evenodd"/><path d="M775.183 422.58 797.86 422.58 797.86 445.257 775.183 445.257Z" fill="#B84529" fill-rule="evenodd"/><path d="M797.86 422.58 820.537 422.58 820.537 445.257 797.86 445.257Z" fill="#B84529" fill-rule="evenodd"/><path d="M820.537 422.58 843.214 422.58 843.214 445.257 820.537 445.257Z" fill="#B84529" fill-rule="evenodd"/><path d="M843.214 422.58 865.891 422.58 865.891 445.257 843.214 445.257Z" fill="#B84529" fill-rule="evenodd"/><path d="M865.891 422.58 888.569 422.58 888.569 445.257 865.891 445.257Z" fill="#B84529" fill-rule="evenodd"/><path d="M435.025 445.257 457.702 445.257 457.702 467.934 435.025 467.934Z" fill="#B84529" fill-rule="evenodd"/><path d="M457.702 445.257 480.38 445.257 480.38 467.934 457.702 467.934Z" fill="#B84529" fill-rule="evenodd"/><path d="M480.38 445.257 503.057 445.257 503.057 467.934 480.38 467.934Z" fill="#B84529" fill-rule="evenodd"/><path d="M503.057 445.257 525.734 445.257 525.734 467.934 503.057 467.934Z" fill="#B84529" fill-rule="evenodd"/><path d="M525.734 445.257 548.411 445.257 548.411 467.934 525.734 467.934Z" fill="#B84529" fill-rule="evenodd"/><path d="M548.411 445.257 571.088 445.257 571.088 467.934 548.411 467.934Z" fill="#B84529" fill-rule="evenodd"/><path d="M571.088 445.257 593.765 445.257 593.765 467.934 571.088 467.934Z" fill="#B84529" fill-rule="evenodd"/><path d="M593.765 445.257 616.443 445.257 616.443 467.934 593.765 467.934Z" fill="#B84529" fill-rule="evenodd"/><path d="M616.443 445.257 639.12 445.257 639.12 467.934 616.443 467.934Z" fill="#B84529" fill-rule="evenodd"/><path d="M639.12 445.257 661.797 445.257 661.797 467.934 639.12 467.934Z" fill="#B84529" fill-rule="evenodd"/><path d="M661.797 445.257 684.474 445.257 684.474 467.934 661.797 467.934Z" fill="#B84529" fill-rule="evenodd"/><path d="M684.474 445.257 707.151 445.257 707.151 467.934 684.474 467.934Z" fill="#B84529" fill-rule="evenodd"/><path d="M707.151 445.257 729.828 445.257 729.828 467.934 707.151 467.934Z" fill="#B84529" fill-rule="evenodd"/><path d="M729.828 445.257 752.506 445.257 752.506 467.934 729.828 467.934Z" fill="#B84529" fill-rule="evenodd"/><path d="M752.506 445.257 775.183 445.257 775.183 467.934 752.506 467.934Z" fill="#B84529" fill-rule="evenodd"/><path d="M775.183 445.257 797.86 445.257 797.86 467.934 775.183 467.934Z" fill="#B84529" fill-rule="evenodd"/><path d="M797.86 445.257 820.537 445.257 820.537 467.934 797.86 467.934Z" fill="#B84529" fill-rule="evenodd"/><path d="M820.537 445.257 843.214 445.257 843.214 467.934 820.537 467.934Z" fill="#B84529" fill-rule="evenodd"/><path d="M843.214 445.257 865.891 445.257 865.891 467.934 843.214 467.934Z" fill="#B84529" fill-rule="evenodd"/><path d="M865.891 445.257 888.569 445.257 888.569 467.934 865.891 467.934Z" fill="#B84529" fill-rule="evenodd"/><path d="M457.702 399.236 457.702 468.601" stroke="#000000" stroke-width="1.33333" stroke-linejoin="round" stroke-miterlimit="10" fill="none" fill-rule="evenodd"/><path d="M480.38 399.236 480.38 468.601" stroke="#000000" stroke-width="1.33333" stroke-linejoin="round" stroke-miterlimit="10" fill="none" fill-rule="evenodd"/><path d="M503.057 399.236 503.057 468.601" stroke="#000000" stroke-width="1.33333" stroke-linejoin="round" stroke-miterlimit="10" fill="none" fill-rule="evenodd"/><path d="M525.734 399.236 525.734 468.601" stroke="#000000" stroke-width="1.33333" stroke-linejoin="round" stroke-miterlimit="10" fill="none" fill-rule="evenodd"/><path d="M548.411 399.236 548.411 468.601" stroke="#000000" stroke-width="1.33333" stroke-linejoin="round" stroke-miterlimit="10" fill="none" fill-rule="evenodd"/><path d="M571.088 399.236 571.088 468.601" stroke="#000000" stroke-width="1.33333" stroke-linejoin="round" stroke-miterlimit="10" fill="none" fill-rule="evenodd"/><path d="M593.765 399.236 593.765 468.601" stroke="#000000" stroke-width="1.33333" stroke-linejoin="round" stroke-miterlimit="10" fill="none" fill-rule="evenodd"/><path d="M616.443 399.236 616.443 468.601" stroke="#000000" stroke-width="1.33333" stroke-linejoin="round" stroke-miterlimit="10" fill="none" fill-rule="evenodd"/><path d="M639.12 399.236 639.12 468.601" stroke="#000000" stroke-width="1.33333" stroke-linejoin="round" stroke-miterlimit="10" fill="none" fill-rule="evenodd"/><path d="M661.797 399.236 661.797 468.601" stroke="#000000" stroke-width="1.33333" stroke-linejoin="round" stroke-miterlimit="10" fill="none" fill-rule="evenodd"/><path d="M684.474 399.236 684.474 468.601" stroke="#000000" stroke-width="1.33333" stroke-linejoin="round" stroke-miterlimit="10" fill="none" fill-rule="evenodd"/><path d="M707.151 399.236 707.151 468.601" stroke="#000000" stroke-width="1.33333" stroke-linejoin="round" stroke-miterlimit="10" fill="none" fill-rule="evenodd"/><path d="M729.828 399.236 729.828 468.601" stroke="#000000" stroke-width="1.33333" stroke-linejoin="round" stroke-miterlimit="10" fill="none" fill-rule="evenodd"/><path d="M752.506 399.236 752.506 468.601" stroke="#000000" stroke-width="1.33333" stroke-linejoin="round" stroke-miterlimit="10" fill="none" fill-rule="evenodd"/><path d="M775.183 399.236 775.183 468.601" stroke="#000000" stroke-width="1.33333" stroke-linejoin="round" stroke-miterlimit="10" fill="none" fill-rule="evenodd"/><path d="M797.86 399.236 797.86 468.601" stroke="#000000" stroke-width="1.33333" stroke-linejoin="round" stroke-miterlimit="10" fill="none" fill-rule="evenodd"/><path d="M820.537 399.236 820.537 468.601" stroke="#000000" stroke-width="1.33333" stroke-linejoin="round" stroke-miterlimit="10" fill="none" fill-rule="evenodd"/><path d="M843.214 399.236 843.214 468.601" stroke="#000000" stroke-width="1.33333" stroke-linejoin="round" stroke-miterlimit="10" fill="none" fill-rule="evenodd"/><path d="M865.891 399.236 865.891 468.601" stroke="#000000" stroke-width="1.33333" stroke-linejoin="round" stroke-miterlimit="10" fill="none" fill-rule="evenodd"/><path d="M434.359 422.58 889.235 422.58" stroke="#000000" stroke-width="1.33333" stroke-linejoin="round" stroke-miterlimit="10" fill="none" fill-rule="evenodd"/><path d="M434.359 445.257 889.235 445.257" stroke="#000000" stroke-width="1.33333" stroke-linejoin="round" stroke-miterlimit="10" fill="none" fill-rule="evenodd"/><path d="M435.025 399.236 435.025 468.601" stroke="#000000" stroke-width="1.33333" stroke-linejoin="round" stroke-miterlimit="10" fill="none" fill-rule="evenodd"/><path d="M888.569 421.913 888.569 468.601" stroke="#000000" stroke-width="1.33333" stroke-linejoin="round" stroke-miterlimit="10" fill="none" fill-rule="evenodd"/><path d="M434.359 399.903 866.558 399.903" stroke="#000000" stroke-width="1.33333" stroke-linejoin="round" stroke-miterlimit="10" fill="none" fill-rule="evenodd"/><path d="M434.359 467.934 889.235 467.934" stroke="#000000" stroke-width="1.33333" stroke-linejoin="round" stroke-miterlimit="10" fill="none" fill-rule="evenodd"/></g></svg>