<svg width="455" height="95" xmlns="http://www.w3.org/2000/svg" xmlns:xlink="http://www.w3.org/1999/xlink" overflow="hidden"><defs><clipPath id="clip0"><rect x="940" y="203" width="455" height="95"/></clipPath></defs><g clip-path="url(#clip0)" transform="translate(-940 -203)"><text font-family="Calibri,Calibri_MSFontService,sans-serif" font-weight="700" font-size="21" transform="translate(1126.08 253)">Judaïsme<tspan font-size="21" x="13.0867" y="25">(0,2%)</tspan></text><path d="M940.396 204.763 1144.49 204.763 1144.49 227.44 940.396 227.44Z" fill="#FFFFFF" fill-rule="evenodd"/><path d="M1144.49 204.763 1167.17 204.763 1167.17 227.44 1144.49 227.44Z" fill="#B78840" fill-rule="evenodd"/><path d="M1167.17 204.763 1189.84 204.763 1189.84 227.44 1167.17 227.44Z" fill="#B78840" fill-rule="evenodd"/><path d="M1189.84 204.763 1393.94 204.763 1393.94 227.44 1189.84 227.44Z" fill="#FFFFFF" fill-rule="evenodd"/><path d="M1144.49 204.096 1144.49 228.107" stroke="#000000" stroke-width="1.33333" stroke-linejoin="round" stroke-miterlimit="10" fill="none" fill-rule="evenodd"/><path d="M1167.17 204.096 1167.17 228.107" stroke="#000000" stroke-width="1.33333" stroke-linejoin="round" stroke-miterlimit="10" fill="none" fill-rule="evenodd"/><path d="M1189.84 204.096 1189.84 228.107" stroke="#000000" stroke-width="1.33333" stroke-linejoin="round" stroke-miterlimit="10" fill="none" fill-rule="evenodd"/><path d="M1143.82 204.763 1190.51 204.763" stroke="#000000" stroke-width="1.33333" stroke-linejoin="round" stroke-miterlimit="10" fill="none" fill-rule="evenodd"/><path d="M1143.82 227.44 1190.51 227.44" stroke="#000000" stroke-width="1.33333" stroke-linejoin="round" stroke-miterlimit="10" fill="none" fill-rule="evenodd"/></g></svg>