<svg width="455" height="94" xmlns="http://www.w3.org/2000/svg" xmlns:xlink="http://www.w3.org/1999/xlink" overflow="hidden"><defs><clipPath id="clip0"><rect x="927" y="16" width="455" height="94"/></clipPath></defs><g clip-path="url(#clip0)" transform="translate(-927 -16)"><path d="M927.297 16.8346 995.329 16.8346 995.329 39.5118 927.297 39.5118Z" fill="#FFFFFF" fill-rule="evenodd"/><path d="M995.329 16.8346 1018.01 16.8346 1018.01 39.5118 995.329 39.5118Z" fill="#78EE5A" fill-rule="evenodd"/><path d="M1018.01 16.8346 1040.68 16.8346 1040.68 39.5118 1018.01 39.5118Z" fill="#78EE5A" fill-rule="evenodd"/><path d="M1040.68 16.8346 1063.36 16.8346 1063.36 39.5118 1040.68 39.5118Z" fill="#78EE5A" fill-rule="evenodd"/><path d="M1063.36 16.8346 1086.04 16.8346 1086.04 39.5118 1063.36 39.5118Z" fill="#78EE5A" fill-rule="evenodd"/><path d="M1086.04 16.8346 1108.71 16.8346 1108.71 39.5118 1086.04 39.5118Z" fill="#78EE5A" fill-rule="evenodd"/><path d="M1108.71 16.8346 1131.39 16.8346 1131.39 39.5118 1108.71 39.5118Z" fill="#78EE5A" fill-rule="evenodd"/><path d="M1131.39 16.8346 1154.07 16.8346 1154.07 39.5118 1131.39 39.5118Z" fill="#78EE5A" fill-rule="evenodd"/><path d="M1154.07 16.8346 1176.75 16.8346 1176.75 39.5118 1154.07 39.5118Z" fill="#78EE5A" fill-rule="evenodd"/><path d="M1176.75 16.8346 1199.42 16.8346 1199.42 39.5118 1176.75 39.5118Z" fill="#78EE5A" fill-rule="evenodd"/><path d="M1199.42 16.8346 1222.1 16.8346 1222.1 39.5118 1199.42 39.5118Z" fill="#78EE5A" fill-rule="evenodd"/><path d="M1222.1 16.8346 1244.78 16.8346 1244.78 39.5118 1222.1 39.5118Z" fill="#78EE5A" fill-rule="evenodd"/><path d="M1244.78 16.8346 1267.45 16.8346 1267.45 39.5118 1244.78 39.5118Z" fill="#78EE5A" fill-rule="evenodd"/><path d="M1267.45 16.8346 1290.13 16.8346 1290.13 39.5118 1267.45 39.5118Z" fill="#78EE5A" fill-rule="evenodd"/><path d="M1290.13 16.8346 1380.84 16.8346 1380.84 39.5118 1290.13 39.5118Z" fill="#FFFFFF" fill-rule="evenodd"/><path d="M995.329 16.168 995.329 40.1785" stroke="#000000" stroke-width="1.33333" stroke-linejoin="round" stroke-miterlimit="10" fill="none" fill-rule="evenodd"/><path d="M1018.01 16.168 1018.01 40.1785" stroke="#000000" stroke-width="1.33333" stroke-linejoin="round" stroke-miterlimit="10" fill="none" fill-rule="evenodd"/><path d="M1040.68 16.168 1040.68 40.1785" stroke="#000000" stroke-width="1.33333" stroke-linejoin="round" stroke-miterlimit="10" fill="none" fill-rule="evenodd"/><path d="M1063.36 16.168 1063.36 40.1785" stroke="#000000" stroke-width="1.33333" stroke-linejoin="round" stroke-miterlimit="10" fill="none" fill-rule="evenodd"/><path d="M1086.04 16.168 1086.04 40.1785" stroke="#000000" stroke-width="1.33333" stroke-linejoin="round" stroke-miterlimit="10" fill="none" fill-rule="evenodd"/><path d="M1108.71 16.168 1108.71 40.1785" stroke="#000000" stroke-width="1.33333" stroke-linejoin="round" stroke-miterlimit="10" fill="none" fill-rule="evenodd"/><path d="M1131.39 16.168 1131.39 40.1785" stroke="#000000" stroke-width="1.33333" stroke-linejoin="round" stroke-miterlimit="10" fill="none" fill-rule="evenodd"/><path d="M1154.07 16.168 1154.07 40.1785" stroke="#000000" stroke-width="1.33333" stroke-linejoin="round" stroke-miterlimit="10" fill="none" fill-rule="evenodd"/><path d="M1176.75 16.168 1176.75 40.1785" stroke="#000000" stroke-width="1.33333" stroke-linejoin="round" stroke-miterlimit="10" fill="none" fill-rule="evenodd"/><path d="M1199.42 16.168 1199.42 40.1785" stroke="#000000" stroke-width="1.33333" stroke-linejoin="round" stroke-miterlimit="10" fill="none" fill-rule="evenodd"/><path d="M1222.1 16.168 1222.1 40.1785" stroke="#000000" stroke-width="1.33333" stroke-linejoin="round" stroke-miterlimit="10" fill="none" fill-rule="evenodd"/><path d="M1244.78 16.168 1244.78 40.1785" stroke="#000000" stroke-width="1.33333" stroke-linejoin="round" stroke-miterlimit="10" fill="none" fill-rule="evenodd"/><path d="M1267.45 16.168 1267.45 40.1785" stroke="#000000" stroke-width="1.33333" stroke-linejoin="round" stroke-miterlimit="10" fill="none" fill-rule="evenodd"/><path d="M1290.13 16.168 1290.13 40.1785" stroke="#000000" stroke-width="1.33333" stroke-linejoin="round" stroke-miterlimit="10" fill="none" fill-rule="evenodd"/><path d="M994.662 16.8346 1290.8 16.8346" stroke="#000000" stroke-width="1.33333" stroke-linejoin="round" stroke-miterlimit="10" fill="none" fill-rule="evenodd"/><path d="M994.662 39.5118 1290.8 39.5118" stroke="#000000" stroke-width="1.33333" stroke-linejoin="round" stroke-miterlimit="10" fill="none" fill-rule="evenodd"/><text font-family="Calibri,Calibri_MSFontService,sans-serif" font-weight="700" font-size="21" transform="translate(1002.99 65)">Religions traditionnelles africaines<tspan font-size="21" x="123.653" y="25">(1,3%)</tspan></text></g></svg>