<svg width="457" height="146" xmlns="http://www.w3.org/2000/svg" xmlns:xlink="http://www.w3.org/1999/xlink" overflow="hidden"><defs><clipPath id="clip0"><rect x="631" y="15" width="457" height="146"/></clipPath></defs><g clip-path="url(#clip0)" transform="translate(-631 -15)"><text font-family="Calibri,Calibri_MSFontService,sans-serif" font-weight="700" font-size="24" transform="translate(797.997 111)">Bouddhisme<tspan x="30.7533" y="29">(5,9%)</tspan></text><path d="M632.727 15.8841 655.404 15.8841 655.404 38.5613 632.727 38.5613Z" fill="#B84529" fill-rule="evenodd"/><path d="M655.404 15.8841 678.081 15.8841 678.081 38.5613 655.404 38.5613Z" fill="#B84529" fill-rule="evenodd"/><path d="M678.081 15.8841 700.758 15.8841 700.758 38.5613 678.081 38.5613Z" fill="#B84529" fill-rule="evenodd"/><path d="M700.758 15.8841 723.435 15.8841 723.435 38.5613 700.758 38.5613Z" fill="#B84529" fill-rule="evenodd"/><path d="M723.435 15.8841 746.112 15.8841 746.112 38.5613 723.435 38.5613Z" fill="#B84529" fill-rule="evenodd"/><path d="M746.112 15.8841 768.789 15.8841 768.789 38.5613 746.112 38.5613Z" fill="#B84529" fill-rule="evenodd"/><path d="M768.789 15.8841 791.467 15.8841 791.467 38.5613 768.789 38.5613Z" fill="#B84529" fill-rule="evenodd"/><path d="M791.467 15.8841 814.144 15.8841 814.144 38.5613 791.467 38.5613Z" fill="#B84529" fill-rule="evenodd"/><path d="M814.144 15.8841 836.821 15.8841 836.821 38.5613 814.144 38.5613Z" fill="#B84529" fill-rule="evenodd"/><path d="M836.821 15.8841 859.498 15.8841 859.498 38.5613 836.821 38.5613Z" fill="#B84529" fill-rule="evenodd"/><path d="M859.498 15.8841 882.175 15.8841 882.175 38.5613 859.498 38.5613Z" fill="#B84529" fill-rule="evenodd"/><path d="M882.175 15.8841 904.852 15.8841 904.852 38.5613 882.175 38.5613Z" fill="#B84529" fill-rule="evenodd"/><path d="M904.852 15.8841 927.53 15.8841 927.53 38.5613 904.852 38.5613Z" fill="#B84529" fill-rule="evenodd"/><path d="M927.53 15.8841 950.207 15.8841 950.207 38.5613 927.53 38.5613Z" fill="#B84529" fill-rule="evenodd"/><path d="M950.207 15.8841 972.884 15.8841 972.884 38.5613 950.207 38.5613Z" fill="#B84529" fill-rule="evenodd"/><path d="M972.884 15.8841 995.561 15.8841 995.561 38.5613 972.884 38.5613Z" fill="#B84529" fill-rule="evenodd"/><path d="M995.561 15.8841 1018.24 15.8841 1018.24 38.5613 995.561 38.5613Z" fill="#B84529" fill-rule="evenodd"/><path d="M1018.24 15.8841 1040.92 15.8841 1040.92 38.5613 1018.24 38.5613Z" fill="#B84529" fill-rule="evenodd"/><path d="M1040.92 15.8841 1063.59 15.8841 1063.59 38.5613 1040.92 38.5613Z" fill="#B84529" fill-rule="evenodd"/><path d="M1063.59 15.8841 1086.27 15.8841 1086.27 38.5613 1063.59 38.5613Z" fill="#FFFFFF" fill-rule="evenodd"/><path d="M632.727 38.5613 655.404 38.5613 655.404 61.2384 632.727 61.2384Z" fill="#B84529" fill-rule="evenodd"/><path d="M655.404 38.5613 678.081 38.5613 678.081 61.2384 655.404 61.2384Z" fill="#B84529" fill-rule="evenodd"/><path d="M678.081 38.5613 700.758 38.5613 700.758 61.2384 678.081 61.2384Z" fill="#B84529" fill-rule="evenodd"/><path d="M700.758 38.5613 723.435 38.5613 723.435 61.2384 700.758 61.2384Z" fill="#B84529" fill-rule="evenodd"/><path d="M723.435 38.5613 746.112 38.5613 746.112 61.2384 723.435 61.2384Z" fill="#B84529" fill-rule="evenodd"/><path d="M746.112 38.5613 768.789 38.5613 768.789 61.2384 746.112 61.2384Z" fill="#B84529" fill-rule="evenodd"/><path d="M768.789 38.5613 791.467 38.5613 791.467 61.2384 768.789 61.2384Z" fill="#B84529" fill-rule="evenodd"/><path d="M791.467 38.5613 814.144 38.5613 814.144 61.2384 791.467 61.2384Z" fill="#B84529" fill-rule="evenodd"/><path d="M814.144 38.5613 836.821 38.5613 836.821 61.2384 814.144 61.2384Z" fill="#B84529" fill-rule="evenodd"/><path d="M836.821 38.5613 859.498 38.5613 859.498 61.2384 836.821 61.2384Z" fill="#B84529" fill-rule="evenodd"/><path d="M859.498 38.5613 882.175 38.5613 882.175 61.2384 859.498 61.2384Z" fill="#B84529" fill-rule="evenodd"/><path d="M882.175 38.5613 904.852 38.5613 904.852 61.2384 882.175 61.2384Z" fill="#B84529" fill-rule="evenodd"/><path d="M904.852 38.5613 927.53 38.5613 927.53 61.2384 904.852 61.2384Z" fill="#B84529" fill-rule="evenodd"/><path d="M927.53 38.5613 950.207 38.5613 950.207 61.2384 927.53 61.2384Z" fill="#B84529" fill-rule="evenodd"/><path d="M950.207 38.5613 972.884 38.5613 972.884 61.2384 950.207 61.2384Z" fill="#B84529" fill-rule="evenodd"/><path d="M972.884 38.5613 995.561 38.5613 995.561 61.2384 972.884 61.2384Z" fill="#B84529" fill-rule="evenodd"/><path d="M995.561 38.5613 1018.24 38.5613 1018.24 61.2384 995.561 61.2384Z" fill="#B84529" fill-rule="evenodd"/><path d="M1018.24 38.5613 1040.92 38.5613 1040.92 61.2384 1018.24 61.2384Z" fill="#B84529" fill-rule="evenodd"/><path d="M1040.92 38.5613 1063.59 38.5613 1063.59 61.2384 1040.92 61.2384Z" fill="#B84529" fill-rule="evenodd"/><path d="M1063.59 38.5613 1086.27 38.5613 1086.27 61.2384 1063.59 61.2384Z" fill="#B84529" fill-rule="evenodd"/><path d="M632.727 61.2384 655.404 61.2384 655.404 83.9156 632.727 83.9156Z" fill="#B84529" fill-rule="evenodd"/><path d="M655.404 61.2384 678.081 61.2384 678.081 83.9156 655.404 83.9156Z" fill="#B84529" fill-rule="evenodd"/><path d="M678.081 61.2384 700.758 61.2384 700.758 83.9156 678.081 83.9156Z" fill="#B84529" fill-rule="evenodd"/><path d="M700.758 61.2384 723.435 61.2384 723.435 83.9156 700.758 83.9156Z" fill="#B84529" fill-rule="evenodd"/><path d="M723.435 61.2384 746.112 61.2384 746.112 83.9156 723.435 83.9156Z" fill="#B84529" fill-rule="evenodd"/><path d="M746.112 61.2384 768.789 61.2384 768.789 83.9156 746.112 83.9156Z" fill="#B84529" fill-rule="evenodd"/><path d="M768.789 61.2384 791.467 61.2384 791.467 83.9156 768.789 83.9156Z" fill="#B84529" fill-rule="evenodd"/><path d="M791.467 61.2384 814.144 61.2384 814.144 83.9156 791.467 83.9156Z" fill="#B84529" fill-rule="evenodd"/><path d="M814.144 61.2384 836.821 61.2384 836.821 83.9156 814.144 83.9156Z" fill="#B84529" fill-rule="evenodd"/><path d="M836.821 61.2384 859.498 61.2384 859.498 83.9156 836.821 83.9156Z" fill="#B84529" fill-rule="evenodd"/><path d="M859.498 61.2384 882.175 61.2384 882.175 83.9156 859.498 83.9156Z" fill="#B84529" fill-rule="evenodd"/><path d="M882.175 61.2384 904.852 61.2384 904.852 83.9156 882.175 83.9156Z" fill="#B84529" fill-rule="evenodd"/><path d="M904.852 61.2384 927.53 61.2384 927.53 83.9156 904.852 83.9156Z" fill="#B84529" fill-rule="evenodd"/><path d="M927.53 61.2384 950.207 61.2384 950.207 83.9156 927.53 83.9156Z" fill="#B84529" fill-rule="evenodd"/><path d="M950.207 61.2384 972.884 61.2384 972.884 83.9156 950.207 83.9156Z" fill="#B84529" fill-rule="evenodd"/><path d="M972.884 61.2384 995.561 61.2384 995.561 83.9156 972.884 83.9156Z" fill="#B84529" fill-rule="evenodd"/><path d="M995.561 61.2384 1018.24 61.2384 1018.24 83.9156 995.561 83.9156Z" fill="#B84529" fill-rule="evenodd"/><path d="M1018.24 61.2384 1040.92 61.2384 1040.92 83.9156 1018.24 83.9156Z" fill="#B84529" fill-rule="evenodd"/><path d="M1040.92 61.2384 1063.59 61.2384 1063.59 83.9156 1040.92 83.9156Z" fill="#B84529" fill-rule="evenodd"/><path d="M1063.59 61.2384 1086.27 61.2384 1086.27 83.9156 1063.59 83.9156Z" fill="#B84529" fill-rule="evenodd"/><path d="M655.404 15.2174 655.404 84.5823" stroke="#000000" stroke-width="1.33333" stroke-linejoin="round" stroke-miterlimit="10" fill="none" fill-rule="evenodd"/><path d="M678.081 15.2174 678.081 84.5823" stroke="#000000" stroke-width="1.33333" stroke-linejoin="round" stroke-miterlimit="10" fill="none" fill-rule="evenodd"/><path d="M700.758 15.2174 700.758 84.5823" stroke="#000000" stroke-width="1.33333" stroke-linejoin="round" stroke-miterlimit="10" fill="none" fill-rule="evenodd"/><path d="M723.435 15.2174 723.435 84.5823" stroke="#000000" stroke-width="1.33333" stroke-linejoin="round" stroke-miterlimit="10" fill="none" fill-rule="evenodd"/><path d="M746.112 15.2174 746.112 84.5823" stroke="#000000" stroke-width="1.33333" stroke-linejoin="round" stroke-miterlimit="10" fill="none" fill-rule="evenodd"/><path d="M768.789 15.2174 768.789 84.5823" stroke="#000000" stroke-width="1.33333" stroke-linejoin="round" stroke-miterlimit="10" fill="none" fill-rule="evenodd"/><path d="M791.467 15.2174 791.467 84.5823" stroke="#000000" stroke-width="1.33333" stroke-linejoin="round" stroke-miterlimit="10" fill="none" fill-rule="evenodd"/><path d="M814.144 15.2174 814.144 84.5823" stroke="#000000" stroke-width="1.33333" stroke-linejoin="round" stroke-miterlimit="10" fill="none" fill-rule="evenodd"/><path d="M836.821 15.2174 836.821 84.5823" stroke="#000000" stroke-width="1.33333" stroke-linejoin="round" stroke-miterlimit="10" fill="none" fill-rule="evenodd"/><path d="M859.498 15.2174 859.498 84.5823" stroke="#000000" stroke-width="1.33333" stroke-linejoin="round" stroke-miterlimit="10" fill="none" fill-rule="evenodd"/><path d="M882.175 15.2174 882.175 84.5823" stroke="#000000" stroke-width="1.33333" stroke-linejoin="round" stroke-miterlimit="10" fill="none" fill-rule="evenodd"/><path d="M904.852 15.2174 904.852 84.5823" stroke="#000000" stroke-width="1.33333" stroke-linejoin="round" stroke-miterlimit="10" fill="none" fill-rule="evenodd"/><path d="M927.53 15.2174 927.53 84.5823" stroke="#000000" stroke-width="1.33333" stroke-linejoin="round" stroke-miterlimit="10" fill="none" fill-rule="evenodd"/><path d="M950.207 15.2174 950.207 84.5823" stroke="#000000" stroke-width="1.33333" stroke-linejoin="round" stroke-miterlimit="10" fill="none" fill-rule="evenodd"/><path d="M972.884 15.2174 972.884 84.5823" stroke="#000000" stroke-width="1.33333" stroke-linejoin="round" stroke-miterlimit="10" fill="none" fill-rule="evenodd"/><path d="M995.561 15.2174 995.561 84.5823" stroke="#000000" stroke-width="1.33333" stroke-linejoin="round" stroke-miterlimit="10" fill="none" fill-rule="evenodd"/><path d="M1018.24 15.2174 1018.24 84.5823" stroke="#000000" stroke-width="1.33333" stroke-linejoin="round" stroke-miterlimit="10" fill="none" fill-rule="evenodd"/><path d="M1040.92 15.2174 1040.92 84.5823" stroke="#000000" stroke-width="1.33333" stroke-linejoin="round" stroke-miterlimit="10" fill="none" fill-rule="evenodd"/><path d="M1063.59 15.2174 1063.59 84.5823" stroke="#000000" stroke-width="1.33333" stroke-linejoin="round" stroke-miterlimit="10" fill="none" fill-rule="evenodd"/><path d="M632.06 38.5613 1086.94 38.5613" stroke="#000000" stroke-width="1.33333" stroke-linejoin="round" stroke-miterlimit="10" fill="none" fill-rule="evenodd"/><path d="M632.06 61.2384 1086.94 61.2384" stroke="#000000" stroke-width="1.33333" stroke-linejoin="round" stroke-miterlimit="10" fill="none" fill-rule="evenodd"/><path d="M632.727 15.2174 632.727 84.5823" stroke="#000000" stroke-width="1.33333" stroke-linejoin="round" stroke-miterlimit="10" fill="none" fill-rule="evenodd"/><path d="M1086.27 37.8946 1086.27 84.5823" stroke="#000000" stroke-width="1.33333" stroke-linejoin="round" stroke-miterlimit="10" fill="none" fill-rule="evenodd"/><path d="M632.06 15.8841 1064.26 15.8841" stroke="#000000" stroke-width="1.33333" stroke-linejoin="round" stroke-miterlimit="10" fill="none" fill-rule="evenodd"/><path d="M632.06 83.9156 1086.94 83.9156" stroke="#000000" stroke-width="1.33333" stroke-linejoin="round" stroke-miterlimit="10" fill="none" fill-rule="evenodd"/></g></svg>