<svg width="457" height="261" xmlns="http://www.w3.org/2000/svg" xmlns:xlink="http://www.w3.org/1999/xlink" overflow="hidden"><defs><clipPath id="clip0"><rect x="139" y="15" width="457" height="261"/></clipPath></defs><g clip-path="url(#clip0)" transform="translate(-139 -15)"><path d="M140.455 15.8841 163.132 15.8841 163.132 38.5613 140.455 38.5613Z" fill="#D8DC35" fill-rule="evenodd"/><path d="M163.132 15.8841 185.809 15.8841 185.809 38.5613 163.132 38.5613Z" fill="#D8DC35" fill-rule="evenodd"/><path d="M185.809 15.8841 208.486 15.8841 208.486 38.5613 185.809 38.5613Z" fill="#D8DC35" fill-rule="evenodd"/><path d="M208.486 15.8841 231.163 15.8841 231.163 38.5613 208.486 38.5613Z" fill="#D8DC35" fill-rule="evenodd"/><path d="M231.163 15.8841 253.84 15.8841 253.84 38.5613 231.163 38.5613Z" fill="#D8DC35" fill-rule="evenodd"/><path d="M253.84 15.8841 276.518 15.8841 276.518 38.5613 253.84 38.5613Z" fill="#D8DC35" fill-rule="evenodd"/><path d="M276.518 15.8841 299.195 15.8841 299.195 38.5613 276.518 38.5613Z" fill="#D8DC35" fill-rule="evenodd"/><path d="M299.195 15.8841 321.872 15.8841 321.872 38.5613 299.195 38.5613Z" fill="#D8DC35" fill-rule="evenodd"/><path d="M321.872 15.8841 344.549 15.8841 344.549 38.5613 321.872 38.5613Z" fill="#D8DC35" fill-rule="evenodd"/><path d="M344.549 15.8841 367.226 15.8841 367.226 38.5613 344.549 38.5613Z" fill="#D8DC35" fill-rule="evenodd"/><path d="M367.226 15.8841 593.998 15.8841 593.998 38.5613 367.226 38.5613Z" fill="#FFFFFF" fill-rule="evenodd"/><path d="M140.455 38.5613 163.132 38.5613 163.132 61.2384 140.455 61.2384Z" fill="#D8DC35" fill-rule="evenodd"/><path d="M163.132 38.5613 185.809 38.5613 185.809 61.2384 163.132 61.2384Z" fill="#D8DC35" fill-rule="evenodd"/><path d="M185.809 38.5613 208.486 38.5613 208.486 61.2384 185.809 61.2384Z" fill="#D8DC35" fill-rule="evenodd"/><path d="M208.486 38.5613 231.163 38.5613 231.163 61.2384 208.486 61.2384Z" fill="#D8DC35" fill-rule="evenodd"/><path d="M231.163 38.5613 253.84 38.5613 253.84 61.2384 231.163 61.2384Z" fill="#D8DC35" fill-rule="evenodd"/><path d="M253.84 38.5613 276.518 38.5613 276.518 61.2384 253.84 61.2384Z" fill="#D8DC35" fill-rule="evenodd"/><path d="M276.518 38.5613 299.195 38.5613 299.195 61.2384 276.518 61.2384Z" fill="#D8DC35" fill-rule="evenodd"/><path d="M299.195 38.5613 321.872 38.5613 321.872 61.2384 299.195 61.2384Z" fill="#D8DC35" fill-rule="evenodd"/><path d="M321.872 38.5613 344.549 38.5613 344.549 61.2384 321.872 61.2384Z" fill="#D8DC35" fill-rule="evenodd"/><path d="M344.549 38.5613 367.226 38.5613 367.226 61.2384 344.549 61.2384Z" fill="#D8DC35" fill-rule="evenodd"/><path d="M367.226 38.5613 389.903 38.5613 389.903 61.2384 367.226 61.2384Z" fill="#D8DC35" fill-rule="evenodd"/><path d="M389.903 38.5613 412.581 38.5613 412.581 61.2384 389.903 61.2384Z" fill="#D8DC35" fill-rule="evenodd"/><path d="M412.581 38.5613 435.258 38.5613 435.258 61.2384 412.581 61.2384Z" fill="#D8DC35" fill-rule="evenodd"/><path d="M435.258 38.5613 457.935 38.5613 457.935 61.2384 435.258 61.2384Z" fill="#D8DC35" fill-rule="evenodd"/><path d="M457.935 38.5613 480.612 38.5613 480.612 61.2384 457.935 61.2384Z" fill="#D8DC35" fill-rule="evenodd"/><path d="M480.612 38.5613 503.289 38.5613 503.289 61.2384 480.612 61.2384Z" fill="#D8DC35" fill-rule="evenodd"/><path d="M503.289 38.5613 525.966 38.5613 525.966 61.2384 503.289 61.2384Z" fill="#D8DC35" fill-rule="evenodd"/><path d="M525.966 38.5613 548.644 38.5613 548.644 61.2384 525.966 61.2384Z" fill="#D8DC35" fill-rule="evenodd"/><path d="M548.644 38.5613 571.321 38.5613 571.321 61.2384 548.644 61.2384Z" fill="#D8DC35" fill-rule="evenodd"/><path d="M571.321 38.5613 593.998 38.5613 593.998 61.2384 571.321 61.2384Z" fill="#D8DC35" fill-rule="evenodd"/><path d="M140.455 61.2384 163.132 61.2384 163.132 83.9156 140.455 83.9156Z" fill="#D8DC35" fill-rule="evenodd"/><path d="M163.132 61.2384 185.809 61.2384 185.809 83.9156 163.132 83.9156Z" fill="#D8DC35" fill-rule="evenodd"/><path d="M185.809 61.2384 208.486 61.2384 208.486 83.9156 185.809 83.9156Z" fill="#D8DC35" fill-rule="evenodd"/><path d="M208.486 61.2384 231.163 61.2384 231.163 83.9156 208.486 83.9156Z" fill="#D8DC35" fill-rule="evenodd"/><path d="M231.163 61.2384 253.84 61.2384 253.84 83.9156 231.163 83.9156Z" fill="#D8DC35" fill-rule="evenodd"/><path d="M253.84 61.2384 276.518 61.2384 276.518 83.9156 253.84 83.9156Z" fill="#D8DC35" fill-rule="evenodd"/><path d="M276.518 61.2384 299.195 61.2384 299.195 83.9156 276.518 83.9156Z" fill="#D8DC35" fill-rule="evenodd"/><path d="M299.195 61.2384 321.872 61.2384 321.872 83.9156 299.195 83.9156Z" fill="#D8DC35" fill-rule="evenodd"/><path d="M321.872 61.2384 344.549 61.2384 344.549 83.9156 321.872 83.9156Z" fill="#D8DC35" fill-rule="evenodd"/><path d="M344.549 61.2384 367.226 61.2384 367.226 83.9156 344.549 83.9156Z" fill="#D8DC35" fill-rule="evenodd"/><path d="M367.226 61.2384 389.903 61.2384 389.903 83.9156 367.226 83.9156Z" fill="#D8DC35" fill-rule="evenodd"/><path d="M389.903 61.2384 412.581 61.2384 412.581 83.9156 389.903 83.9156Z" fill="#D8DC35" fill-rule="evenodd"/><path d="M412.581 61.2384 435.258 61.2384 435.258 83.9156 412.581 83.9156Z" fill="#D8DC35" fill-rule="evenodd"/><path d="M435.258 61.2384 457.935 61.2384 457.935 83.9156 435.258 83.9156Z" fill="#D8DC35" fill-rule="evenodd"/><path d="M457.935 61.2384 480.612 61.2384 480.612 83.9156 457.935 83.9156Z" fill="#D8DC35" fill-rule="evenodd"/><path d="M480.612 61.2384 503.289 61.2384 503.289 83.9156 480.612 83.9156Z" fill="#D8DC35" fill-rule="evenodd"/><path d="M503.289 61.2384 525.966 61.2384 525.966 83.9156 503.289 83.9156Z" fill="#D8DC35" fill-rule="evenodd"/><path d="M525.966 61.2384 548.644 61.2384 548.644 83.9156 525.966 83.9156Z" fill="#D8DC35" fill-rule="evenodd"/><path d="M548.644 61.2384 571.321 61.2384 571.321 83.9156 548.644 83.9156Z" fill="#D8DC35" fill-rule="evenodd"/><path d="M571.321 61.2384 593.998 61.2384 593.998 83.9156 571.321 83.9156Z" fill="#D8DC35" fill-rule="evenodd"/><path d="M140.455 83.9156 163.132 83.9156 163.132 106.593 140.455 106.593Z" fill="#D8DC35" fill-rule="evenodd"/><path d="M163.132 83.9156 185.809 83.9156 185.809 106.593 163.132 106.593Z" fill="#D8DC35" fill-rule="evenodd"/><path d="M185.809 83.9156 208.486 83.9156 208.486 106.593 185.809 106.593Z" fill="#D8DC35" fill-rule="evenodd"/><path d="M208.486 83.9156 231.163 83.9156 231.163 106.593 208.486 106.593Z" fill="#D8DC35" fill-rule="evenodd"/><path d="M231.163 83.9156 253.84 83.9156 253.84 106.593 231.163 106.593Z" fill="#D8DC35" fill-rule="evenodd"/><path d="M253.84 83.9156 276.518 83.9156 276.518 106.593 253.84 106.593Z" fill="#D8DC35" fill-rule="evenodd"/><path d="M276.518 83.9156 299.195 83.9156 299.195 106.593 276.518 106.593Z" fill="#D8DC35" fill-rule="evenodd"/><path d="M299.195 83.9156 321.872 83.9156 321.872 106.593 299.195 106.593Z" fill="#D8DC35" fill-rule="evenodd"/><path d="M321.872 83.9156 344.549 83.9156 344.549 106.593 321.872 106.593Z" fill="#D8DC35" fill-rule="evenodd"/><path d="M344.549 83.9156 367.226 83.9156 367.226 106.593 344.549 106.593Z" fill="#D8DC35" fill-rule="evenodd"/><path d="M367.226 83.9156 389.903 83.9156 389.903 106.593 367.226 106.593Z" fill="#D8DC35" fill-rule="evenodd"/><path d="M389.903 83.9156 412.581 83.9156 412.581 106.593 389.903 106.593Z" fill="#D8DC35" fill-rule="evenodd"/><path d="M412.581 83.9156 435.258 83.9156 435.258 106.593 412.581 106.593Z" fill="#D8DC35" fill-rule="evenodd"/><path d="M435.258 83.9156 457.935 83.9156 457.935 106.593 435.258 106.593Z" fill="#D8DC35" fill-rule="evenodd"/><path d="M457.935 83.9156 480.612 83.9156 480.612 106.593 457.935 106.593Z" fill="#D8DC35" fill-rule="evenodd"/><path d="M480.612 83.9156 503.289 83.9156 503.289 106.593 480.612 106.593Z" fill="#D8DC35" fill-rule="evenodd"/><path d="M503.289 83.9156 525.966 83.9156 525.966 106.593 503.289 106.593Z" fill="#D8DC35" fill-rule="evenodd"/><path d="M525.966 83.9156 548.644 83.9156 548.644 106.593 525.966 106.593Z" fill="#D8DC35" fill-rule="evenodd"/><path d="M548.644 83.9156 571.321 83.9156 571.321 106.593 548.644 106.593Z" fill="#D8DC35" fill-rule="evenodd"/><path d="M571.321 83.9156 593.998 83.9156 593.998 106.593 571.321 106.593Z" fill="#D8DC35" fill-rule="evenodd"/><path d="M140.455 106.593 163.132 106.593 163.132 129.27 140.455 129.27Z" fill="#D8DC35" fill-rule="evenodd"/><path d="M163.132 106.593 185.809 106.593 185.809 129.27 163.132 129.27Z" fill="#D8DC35" fill-rule="evenodd"/><path d="M185.809 106.593 208.486 106.593 208.486 129.27 185.809 129.27Z" fill="#D8DC35" fill-rule="evenodd"/><path d="M208.486 106.593 231.163 106.593 231.163 129.27 208.486 129.27Z" fill="#D8DC35" fill-rule="evenodd"/><path d="M231.163 106.593 253.84 106.593 253.84 129.27 231.163 129.27Z" fill="#D8DC35" fill-rule="evenodd"/><path d="M253.84 106.593 276.518 106.593 276.518 129.27 253.84 129.27Z" fill="#D8DC35" fill-rule="evenodd"/><path d="M276.518 106.593 299.195 106.593 299.195 129.27 276.518 129.27Z" fill="#D8DC35" fill-rule="evenodd"/><path d="M299.195 106.593 321.872 106.593 321.872 129.27 299.195 129.27Z" fill="#D8DC35" fill-rule="evenodd"/><path d="M321.872 106.593 344.549 106.593 344.549 129.27 321.872 129.27Z" fill="#D8DC35" fill-rule="evenodd"/><path d="M344.549 106.593 367.226 106.593 367.226 129.27 344.549 129.27Z" fill="#D8DC35" fill-rule="evenodd"/><path d="M367.226 106.593 389.903 106.593 389.903 129.27 367.226 129.27Z" fill="#D8DC35" fill-rule="evenodd"/><path d="M389.903 106.593 412.581 106.593 412.581 129.27 389.903 129.27Z" fill="#D8DC35" fill-rule="evenodd"/><path d="M412.581 106.593 435.258 106.593 435.258 129.27 412.581 129.27Z" fill="#D8DC35" fill-rule="evenodd"/><path d="M435.258 106.593 457.935 106.593 457.935 129.27 435.258 129.27Z" fill="#D8DC35" fill-rule="evenodd"/><path d="M457.935 106.593 480.612 106.593 480.612 129.27 457.935 129.27Z" fill="#D8DC35" fill-rule="evenodd"/><path d="M480.612 106.593 503.289 106.593 503.289 129.27 480.612 129.27Z" fill="#D8DC35" fill-rule="evenodd"/><path d="M503.289 106.593 525.966 106.593 525.966 129.27 503.289 129.27Z" fill="#D8DC35" fill-rule="evenodd"/><path d="M525.966 106.593 548.644 106.593 548.644 129.27 525.966 129.27Z" fill="#D8DC35" fill-rule="evenodd"/><path d="M548.644 106.593 571.321 106.593 571.321 129.27 548.644 129.27Z" fill="#D8DC35" fill-rule="evenodd"/><path d="M571.321 106.593 593.998 106.593 593.998 129.27 571.321 129.27Z" fill="#D8DC35" fill-rule="evenodd"/><path d="M140.455 129.27 163.132 129.27 163.132 151.947 140.455 151.947Z" fill="#D8DC35" fill-rule="evenodd"/><path d="M163.132 129.27 185.809 129.27 185.809 151.947 163.132 151.947Z" fill="#D8DC35" fill-rule="evenodd"/><path d="M185.809 129.27 208.486 129.27 208.486 151.947 185.809 151.947Z" fill="#D8DC35" fill-rule="evenodd"/><path d="M208.486 129.27 231.163 129.27 231.163 151.947 208.486 151.947Z" fill="#D8DC35" fill-rule="evenodd"/><path d="M231.163 129.27 253.84 129.27 253.84 151.947 231.163 151.947Z" fill="#D8DC35" fill-rule="evenodd"/><path d="M253.84 129.27 276.518 129.27 276.518 151.947 253.84 151.947Z" fill="#D8DC35" fill-rule="evenodd"/><path d="M276.518 129.27 299.195 129.27 299.195 151.947 276.518 151.947Z" fill="#D8DC35" fill-rule="evenodd"/><path d="M299.195 129.27 321.872 129.27 321.872 151.947 299.195 151.947Z" fill="#D8DC35" fill-rule="evenodd"/><path d="M321.872 129.27 344.549 129.27 344.549 151.947 321.872 151.947Z" fill="#D8DC35" fill-rule="evenodd"/><path d="M344.549 129.27 367.226 129.27 367.226 151.947 344.549 151.947Z" fill="#D8DC35" fill-rule="evenodd"/><path d="M367.226 129.27 389.903 129.27 389.903 151.947 367.226 151.947Z" fill="#D8DC35" fill-rule="evenodd"/><path d="M389.903 129.27 412.581 129.27 412.581 151.947 389.903 151.947Z" fill="#D8DC35" fill-rule="evenodd"/><path d="M412.581 129.27 435.258 129.27 435.258 151.947 412.581 151.947Z" fill="#D8DC35" fill-rule="evenodd"/><path d="M435.258 129.27 457.935 129.27 457.935 151.947 435.258 151.947Z" fill="#D8DC35" fill-rule="evenodd"/><path d="M457.935 129.27 480.612 129.27 480.612 151.947 457.935 151.947Z" fill="#D8DC35" fill-rule="evenodd"/><path d="M480.612 129.27 503.289 129.27 503.289 151.947 480.612 151.947Z" fill="#D8DC35" fill-rule="evenodd"/><path d="M503.289 129.27 525.966 129.27 525.966 151.947 503.289 151.947Z" fill="#D8DC35" fill-rule="evenodd"/><path d="M525.966 129.27 548.644 129.27 548.644 151.947 525.966 151.947Z" fill="#D8DC35" fill-rule="evenodd"/><path d="M548.644 129.27 571.321 129.27 571.321 151.947 548.644 151.947Z" fill="#D8DC35" fill-rule="evenodd"/><path d="M571.321 129.27 593.998 129.27 593.998 151.947 571.321 151.947Z" fill="#D8DC35" fill-rule="evenodd"/><path d="M140.455 151.947 163.132 151.947 163.132 174.624 140.455 174.624Z" fill="#D8DC35" fill-rule="evenodd"/><path d="M163.132 151.947 185.809 151.947 185.809 174.624 163.132 174.624Z" fill="#D8DC35" fill-rule="evenodd"/><path d="M185.809 151.947 208.486 151.947 208.486 174.624 185.809 174.624Z" fill="#D8DC35" fill-rule="evenodd"/><path d="M208.486 151.947 231.163 151.947 231.163 174.624 208.486 174.624Z" fill="#D8DC35" fill-rule="evenodd"/><path d="M231.163 151.947 253.84 151.947 253.84 174.624 231.163 174.624Z" fill="#D8DC35" fill-rule="evenodd"/><path d="M253.84 151.947 276.518 151.947 276.518 174.624 253.84 174.624Z" fill="#D8DC35" fill-rule="evenodd"/><path d="M276.518 151.947 299.195 151.947 299.195 174.624 276.518 174.624Z" fill="#D8DC35" fill-rule="evenodd"/><path d="M299.195 151.947 321.872 151.947 321.872 174.624 299.195 174.624Z" fill="#D8DC35" fill-rule="evenodd"/><path d="M321.872 151.947 344.549 151.947 344.549 174.624 321.872 174.624Z" fill="#D8DC35" fill-rule="evenodd"/><path d="M344.549 151.947 367.226 151.947 367.226 174.624 344.549 174.624Z" fill="#D8DC35" fill-rule="evenodd"/><path d="M367.226 151.947 389.903 151.947 389.903 174.624 367.226 174.624Z" fill="#D8DC35" fill-rule="evenodd"/><path d="M389.903 151.947 412.581 151.947 412.581 174.624 389.903 174.624Z" fill="#D8DC35" fill-rule="evenodd"/><path d="M412.581 151.947 435.258 151.947 435.258 174.624 412.581 174.624Z" fill="#D8DC35" fill-rule="evenodd"/><path d="M435.258 151.947 457.935 151.947 457.935 174.624 435.258 174.624Z" fill="#D8DC35" fill-rule="evenodd"/><path d="M457.935 151.947 480.612 151.947 480.612 174.624 457.935 174.624Z" fill="#D8DC35" fill-rule="evenodd"/><path d="M480.612 151.947 503.289 151.947 503.289 174.624 480.612 174.624Z" fill="#D8DC35" fill-rule="evenodd"/><path d="M503.289 151.947 525.966 151.947 525.966 174.624 503.289 174.624Z" fill="#D8DC35" fill-rule="evenodd"/><path d="M525.966 151.947 548.644 151.947 548.644 174.624 525.966 174.624Z" fill="#D8DC35" fill-rule="evenodd"/><path d="M548.644 151.947 571.321 151.947 571.321 174.624 548.644 174.624Z" fill="#D8DC35" fill-rule="evenodd"/><path d="M571.321 151.947 593.998 151.947 593.998 174.624 571.321 174.624Z" fill="#D8DC35" fill-rule="evenodd"/><path d="M140.455 174.624 163.132 174.624 163.132 197.301 140.455 197.301Z" fill="#D8DC35" fill-rule="evenodd"/><path d="M163.132 174.624 185.809 174.624 185.809 197.301 163.132 197.301Z" fill="#D8DC35" fill-rule="evenodd"/><path d="M185.809 174.624 208.486 174.624 208.486 197.301 185.809 197.301Z" fill="#D8DC35" fill-rule="evenodd"/><path d="M208.486 174.624 231.163 174.624 231.163 197.301 208.486 197.301Z" fill="#D8DC35" fill-rule="evenodd"/><path d="M231.163 174.624 253.84 174.624 253.84 197.301 231.163 197.301Z" fill="#D8DC35" fill-rule="evenodd"/><path d="M253.84 174.624 276.518 174.624 276.518 197.301 253.84 197.301Z" fill="#D8DC35" fill-rule="evenodd"/><path d="M276.518 174.624 299.195 174.624 299.195 197.301 276.518 197.301Z" fill="#D8DC35" fill-rule="evenodd"/><path d="M299.195 174.624 321.872 174.624 321.872 197.301 299.195 197.301Z" fill="#D8DC35" fill-rule="evenodd"/><path d="M321.872 174.624 344.549 174.624 344.549 197.301 321.872 197.301Z" fill="#D8DC35" fill-rule="evenodd"/><path d="M344.549 174.624 367.226 174.624 367.226 197.301 344.549 197.301Z" fill="#D8DC35" fill-rule="evenodd"/><path d="M367.226 174.624 389.903 174.624 389.903 197.301 367.226 197.301Z" fill="#D8DC35" fill-rule="evenodd"/><path d="M389.903 174.624 412.581 174.624 412.581 197.301 389.903 197.301Z" fill="#D8DC35" fill-rule="evenodd"/><path d="M412.581 174.624 435.258 174.624 435.258 197.301 412.581 197.301Z" fill="#D8DC35" fill-rule="evenodd"/><path d="M435.258 174.624 457.935 174.624 457.935 197.301 435.258 197.301Z" fill="#D8DC35" fill-rule="evenodd"/><path d="M457.935 174.624 480.612 174.624 480.612 197.301 457.935 197.301Z" fill="#D8DC35" fill-rule="evenodd"/><path d="M480.612 174.624 503.289 174.624 503.289 197.301 480.612 197.301Z" fill="#D8DC35" fill-rule="evenodd"/><path d="M503.289 174.624 525.966 174.624 525.966 197.301 503.289 197.301Z" fill="#D8DC35" fill-rule="evenodd"/><path d="M525.966 174.624 548.644 174.624 548.644 197.301 525.966 197.301Z" fill="#D8DC35" fill-rule="evenodd"/><path d="M548.644 174.624 571.321 174.624 571.321 197.301 548.644 197.301Z" fill="#D8DC35" fill-rule="evenodd"/><path d="M571.321 174.624 593.998 174.624 593.998 197.301 571.321 197.301Z" fill="#D8DC35" fill-rule="evenodd"/><path d="M163.132 15.2174 163.132 197.968" stroke="#000000" stroke-width="1.33333" stroke-linejoin="round" stroke-miterlimit="10" fill="none" fill-rule="evenodd"/><path d="M185.809 15.2174 185.809 197.968" stroke="#000000" stroke-width="1.33333" stroke-linejoin="round" stroke-miterlimit="10" fill="none" fill-rule="evenodd"/><path d="M208.486 15.2174 208.486 197.968" stroke="#000000" stroke-width="1.33333" stroke-linejoin="round" stroke-miterlimit="10" fill="none" fill-rule="evenodd"/><path d="M231.163 15.2174 231.163 197.968" stroke="#000000" stroke-width="1.33333" stroke-linejoin="round" stroke-miterlimit="10" fill="none" fill-rule="evenodd"/><path d="M253.84 15.2174 253.84 197.968" stroke="#000000" stroke-width="1.33333" stroke-linejoin="round" stroke-miterlimit="10" fill="none" fill-rule="evenodd"/><path d="M276.518 15.2174 276.518 197.968" stroke="#000000" stroke-width="1.33333" stroke-linejoin="round" stroke-miterlimit="10" fill="none" fill-rule="evenodd"/><path d="M299.195 15.2174 299.195 197.968" stroke="#000000" stroke-width="1.33333" stroke-linejoin="round" stroke-miterlimit="10" fill="none" fill-rule="evenodd"/><path d="M321.872 15.2174 321.872 197.968" stroke="#000000" stroke-width="1.33333" stroke-linejoin="round" stroke-miterlimit="10" fill="none" fill-rule="evenodd"/><path d="M344.549 15.2174 344.549 197.968" stroke="#000000" stroke-width="1.33333" stroke-linejoin="round" stroke-miterlimit="10" fill="none" fill-rule="evenodd"/><path d="M367.226 15.2174 367.226 197.968" stroke="#000000" stroke-width="1.33333" stroke-linejoin="round" stroke-miterlimit="10" fill="none" fill-rule="evenodd"/><path d="M389.903 37.8946 389.903 197.968" stroke="#000000" stroke-width="1.33333" stroke-linejoin="round" stroke-miterlimit="10" fill="none" fill-rule="evenodd"/><path d="M412.581 37.8946 412.581 197.968" stroke="#000000" stroke-width="1.33333" stroke-linejoin="round" stroke-miterlimit="10" fill="none" fill-rule="evenodd"/><path d="M435.258 37.8946 435.258 197.968" stroke="#000000" stroke-width="1.33333" stroke-linejoin="round" stroke-miterlimit="10" fill="none" fill-rule="evenodd"/><path d="M457.935 37.8946 457.935 197.968" stroke="#000000" stroke-width="1.33333" stroke-linejoin="round" stroke-miterlimit="10" fill="none" fill-rule="evenodd"/><path d="M480.612 37.8946 480.612 197.968" stroke="#000000" stroke-width="1.33333" stroke-linejoin="round" stroke-miterlimit="10" fill="none" fill-rule="evenodd"/><path d="M503.289 37.8946 503.289 197.968" stroke="#000000" stroke-width="1.33333" stroke-linejoin="round" stroke-miterlimit="10" fill="none" fill-rule="evenodd"/><path d="M525.966 37.8946 525.966 197.968" stroke="#000000" stroke-width="1.33333" stroke-linejoin="round" stroke-miterlimit="10" fill="none" fill-rule="evenodd"/><path d="M548.644 37.8946 548.644 197.968" stroke="#000000" stroke-width="1.33333" stroke-linejoin="round" stroke-miterlimit="10" fill="none" fill-rule="evenodd"/><path d="M571.321 37.8946 571.321 197.968" stroke="#000000" stroke-width="1.33333" stroke-linejoin="round" stroke-miterlimit="10" fill="none" fill-rule="evenodd"/><path d="M139.788 38.5613 594.665 38.5613" stroke="#000000" stroke-width="1.33333" stroke-linejoin="round" stroke-miterlimit="10" fill="none" fill-rule="evenodd"/><path d="M139.788 61.2384 594.665 61.2384" stroke="#000000" stroke-width="1.33333" stroke-linejoin="round" stroke-miterlimit="10" fill="none" fill-rule="evenodd"/><path d="M139.788 83.9156 594.665 83.9156" stroke="#000000" stroke-width="1.33333" stroke-linejoin="round" stroke-miterlimit="10" fill="none" fill-rule="evenodd"/><path d="M139.788 106.593 594.665 106.593" stroke="#000000" stroke-width="1.33333" stroke-linejoin="round" stroke-miterlimit="10" fill="none" fill-rule="evenodd"/><path d="M139.788 129.27 594.665 129.27" stroke="#000000" stroke-width="1.33333" stroke-linejoin="round" stroke-miterlimit="10" fill="none" fill-rule="evenodd"/><path d="M139.788 151.947 594.665 151.947" stroke="#000000" stroke-width="1.33333" stroke-linejoin="round" stroke-miterlimit="10" fill="none" fill-rule="evenodd"/><path d="M139.788 174.624 594.665 174.624" stroke="#000000" stroke-width="1.33333" stroke-linejoin="round" stroke-miterlimit="10" fill="none" fill-rule="evenodd"/><path d="M140.455 15.2174 140.455 197.968" stroke="#000000" stroke-width="1.33333" stroke-linejoin="round" stroke-miterlimit="10" fill="none" fill-rule="evenodd"/><path d="M593.998 37.8946 593.998 197.968" stroke="#000000" stroke-width="1.33333" stroke-linejoin="round" stroke-miterlimit="10" fill="none" fill-rule="evenodd"/><path d="M139.788 15.8841 367.893 15.8841" stroke="#000000" stroke-width="1.33333" stroke-linejoin="round" stroke-miterlimit="10" fill="none" fill-rule="evenodd"/><path d="M139.788 197.301 594.665 197.301" stroke="#000000" stroke-width="1.33333" stroke-linejoin="round" stroke-miterlimit="10" fill="none" fill-rule="evenodd"/><text font-family="Calibri,Calibri_MSFontService,sans-serif" font-weight="700" font-size="24" transform="translate(315.315 225)">Indouisme <tspan x="14.6667" y="29">(15,0%)</tspan></text></g></svg>