<svg width="455" height="102" xmlns="http://www.w3.org/2000/svg" xmlns:xlink="http://www.w3.org/1999/xlink" overflow="hidden"><defs><clipPath id="clip0"><rect x="1008" y="538" width="455" height="102"/></clipPath></defs><g clip-path="url(#clip0)" transform="translate(-1008 -538)"><path d="M1008.64 539.472 1212.74 539.472 1212.74 562.149 1008.64 562.149Z" fill="#FFFFFF" fill-rule="evenodd"/><path d="M1212.74 539.472 1235.41 539.472 1235.41 562.149 1212.74 562.149Z" fill="#ABA7CF" fill-rule="evenodd"/><path d="M1235.41 539.472 1258.09 539.472 1258.09 562.149 1235.41 562.149Z" fill="#ABA7CF" fill-rule="evenodd"/><path d="M1258.09 539.472 1280.77 539.472 1280.77 562.149 1258.09 562.149Z" fill="#ABA7CF" fill-rule="evenodd"/><path d="M1280.77 539.472 1462.19 539.472 1462.19 562.149 1280.77 562.149Z" fill="#FFFFFF" fill-rule="evenodd"/><path d="M1212.74 538.805 1212.74 562.815" stroke="#000000" stroke-width="1.33333" stroke-linejoin="round" stroke-miterlimit="10" fill="none" fill-rule="evenodd"/><path d="M1235.41 538.805 1235.41 562.815" stroke="#000000" stroke-width="1.33333" stroke-linejoin="round" stroke-miterlimit="10" fill="none" fill-rule="evenodd"/><path d="M1258.09 538.805 1258.09 562.815" stroke="#000000" stroke-width="1.33333" stroke-linejoin="round" stroke-miterlimit="10" fill="none" fill-rule="evenodd"/><path d="M1280.77 538.805 1280.77 562.815" stroke="#000000" stroke-width="1.33333" stroke-linejoin="round" stroke-miterlimit="10" fill="none" fill-rule="evenodd"/><path d="M1212.07 539.472 1281.43 539.472" stroke="#000000" stroke-width="1.33333" stroke-linejoin="round" stroke-miterlimit="10" fill="none" fill-rule="evenodd"/><path d="M1212.07 562.149 1281.43 562.149" stroke="#000000" stroke-width="1.33333" stroke-linejoin="round" stroke-miterlimit="10" fill="none" fill-rule="evenodd"/><text font-family="Calibri,Calibri_MSFontService,sans-serif" font-weight="700" font-size="24" transform="translate(1203.81 589)">Sikhisme<tspan x="12.6666" y="29">(0,3%)</tspan></text></g></svg>