<svg width="455" height="102" xmlns="http://www.w3.org/2000/svg" xmlns:xlink="http://www.w3.org/1999/xlink" overflow="hidden"><defs><clipPath id="clip0"><rect x="1014" y="353" width="455" height="102"/></clipPath></defs><g clip-path="url(#clip0)" transform="translate(-1014 -353)"><path d="M1014.55 354.283 1082.59 354.283 1082.59 376.961 1014.55 376.961Z" fill="#FFFFFF" fill-rule="evenodd"/><path d="M1082.59 354.283 1105.26 354.283 1105.26 376.961 1082.59 376.961Z" fill="#78EE5A" fill-rule="evenodd"/><path d="M1105.26 354.283 1127.94 354.283 1127.94 376.961 1105.26 376.961Z" fill="#78EE5A" fill-rule="evenodd"/><path d="M1127.94 354.283 1150.62 354.283 1150.62 376.961 1127.94 376.961Z" fill="#78EE5A" fill-rule="evenodd"/><path d="M1150.62 354.283 1173.29 354.283 1173.29 376.961 1150.62 376.961Z" fill="#78EE5A" fill-rule="evenodd"/><path d="M1173.29 354.283 1195.97 354.283 1195.97 376.961 1173.29 376.961Z" fill="#78EE5A" fill-rule="evenodd"/><path d="M1195.97 354.283 1218.65 354.283 1218.65 376.961 1195.97 376.961Z" fill="#78EE5A" fill-rule="evenodd"/><path d="M1218.65 354.283 1241.33 354.283 1241.33 376.961 1218.65 376.961Z" fill="#78EE5A" fill-rule="evenodd"/><path d="M1241.33 354.283 1264 354.283 1264 376.961 1241.33 376.961Z" fill="#78EE5A" fill-rule="evenodd"/><path d="M1264 354.283 1286.68 354.283 1286.68 376.961 1264 376.961Z" fill="#78EE5A" fill-rule="evenodd"/><path d="M1286.68 354.283 1309.36 354.283 1309.36 376.961 1286.68 376.961Z" fill="#78EE5A" fill-rule="evenodd"/><path d="M1309.36 354.283 1332.03 354.283 1332.03 376.961 1309.36 376.961Z" fill="#78EE5A" fill-rule="evenodd"/><path d="M1332.03 354.283 1354.71 354.283 1354.71 376.961 1332.03 376.961Z" fill="#78EE5A" fill-rule="evenodd"/><path d="M1354.71 354.283 1377.39 354.283 1377.39 376.961 1354.71 376.961Z" fill="#78EE5A" fill-rule="evenodd"/><path d="M1377.39 354.283 1468.1 354.283 1468.1 376.961 1377.39 376.961Z" fill="#FFFFFF" fill-rule="evenodd"/><path d="M1082.59 353.617 1082.59 377.627" stroke="#000000" stroke-width="1.33333" stroke-linejoin="round" stroke-miterlimit="10" fill="none" fill-rule="evenodd"/><path d="M1105.26 353.617 1105.26 377.627" stroke="#000000" stroke-width="1.33333" stroke-linejoin="round" stroke-miterlimit="10" fill="none" fill-rule="evenodd"/><path d="M1127.94 353.617 1127.94 377.627" stroke="#000000" stroke-width="1.33333" stroke-linejoin="round" stroke-miterlimit="10" fill="none" fill-rule="evenodd"/><path d="M1150.62 353.617 1150.62 377.627" stroke="#000000" stroke-width="1.33333" stroke-linejoin="round" stroke-miterlimit="10" fill="none" fill-rule="evenodd"/><path d="M1173.29 353.617 1173.29 377.627" stroke="#000000" stroke-width="1.33333" stroke-linejoin="round" stroke-miterlimit="10" fill="none" fill-rule="evenodd"/><path d="M1195.97 353.617 1195.97 377.627" stroke="#000000" stroke-width="1.33333" stroke-linejoin="round" stroke-miterlimit="10" fill="none" fill-rule="evenodd"/><path d="M1218.65 353.617 1218.65 377.627" stroke="#000000" stroke-width="1.33333" stroke-linejoin="round" stroke-miterlimit="10" fill="none" fill-rule="evenodd"/><path d="M1241.33 353.617 1241.33 377.627" stroke="#000000" stroke-width="1.33333" stroke-linejoin="round" stroke-miterlimit="10" fill="none" fill-rule="evenodd"/><path d="M1264 353.617 1264 377.627" stroke="#000000" stroke-width="1.33333" stroke-linejoin="round" stroke-miterlimit="10" fill="none" fill-rule="evenodd"/><path d="M1286.68 353.617 1286.68 377.627" stroke="#000000" stroke-width="1.33333" stroke-linejoin="round" stroke-miterlimit="10" fill="none" fill-rule="evenodd"/><path d="M1309.36 353.617 1309.36 377.627" stroke="#000000" stroke-width="1.33333" stroke-linejoin="round" stroke-miterlimit="10" fill="none" fill-rule="evenodd"/><path d="M1332.03 353.617 1332.03 377.627" stroke="#000000" stroke-width="1.33333" stroke-linejoin="round" stroke-miterlimit="10" fill="none" fill-rule="evenodd"/><path d="M1354.71 353.617 1354.71 377.627" stroke="#000000" stroke-width="1.33333" stroke-linejoin="round" stroke-miterlimit="10" fill="none" fill-rule="evenodd"/><path d="M1377.39 353.617 1377.39 377.627" stroke="#000000" stroke-width="1.33333" stroke-linejoin="round" stroke-miterlimit="10" fill="none" fill-rule="evenodd"/><path d="M1081.92 354.283 1378.06 354.283" stroke="#000000" stroke-width="1.33333" stroke-linejoin="round" stroke-miterlimit="10" fill="none" fill-rule="evenodd"/><path d="M1081.92 376.961 1378.06 376.961" stroke="#000000" stroke-width="1.33333" stroke-linejoin="round" stroke-miterlimit="10" fill="none" fill-rule="evenodd"/><text font-family="Calibri,Calibri_MSFontService,sans-serif" font-weight="700" font-size="24" transform="translate(1071.73 405)">Religions traditionnelles africaines<tspan x="138.673" y="29">(1,3%)</tspan></text></g></svg>