<svg width="494" height="322" xmlns="http://www.w3.org/2000/svg" xmlns:xlink="http://www.w3.org/1999/xlink" overflow="hidden"><defs><clipPath id="clip0"><rect x="559" y="100" width="494" height="322"/></clipPath></defs><g clip-path="url(#clip0)" transform="translate(-559 -100)"><path d="M601 118 601 405.362 598 405.362 598 118ZM595 119.5 599.5 110.5 604 119.5ZM604 403.862 599.5 412.862 595 403.862Z"/><text fill="#FF0000" font-family="Roboto,Roboto_MSFontService,sans-serif" font-weight="400" font-size="19" transform="translate(608.542 144)">Impérialisme<tspan fill="#4472C4" x="0" y="62">Capitalisme</tspan><tspan fill="#000000" x="0" y="122">Neutre</tspan><tspan fill="#4472C4" x="0" y="186">Socialisme</tspan><tspan x="0" y="244">Communisme</tspan></text><path d="M751 118 751 405.362 748 405.362 748 118ZM745 119.5 749.5 110.5 754 119.5ZM754 403.862 749.5 412.862 745 403.862Z"/><text fill="#FF0000" font-family="Roboto,Roboto_MSFontService,sans-serif" font-weight="400" font-size="19" transform="translate(758.817 144)">Fascisme<tspan fill="#4472C4" x="0" y="62">Nationalisme</tspan><tspan fill="#000000" x="0" y="122">Neutre</tspan><tspan fill="#4472C4" x="0" y="186">Libéralisme</tspan><tspan x="0" y="244">Libertarianisme</tspan></text><path d="M900 118 900 405.362 897 405.362 897 118ZM894 119.5 898.5 110.5 903 119.5ZM903 403.862 898.5 412.862 894 403.862Z"/><text fill="#FF0000" font-family="Roboto,Roboto_MSFontService,sans-serif" font-weight="400" font-size="19" transform="translate(908.459 144)">Égalitarisme<tspan fill="#4472C4" x="0" y="62">Républicanisme</tspan><tspan fill="#000000" x="0" y="122">Neutre</tspan><tspan fill="#4472C4" x="0" y="186">Corporatisme</tspan><tspan x="0" y="244">Féodalism</tspan><tspan x="86.5" y="244">e</tspan></text><text font-family="Roboto,Roboto_MSFontService,sans-serif" font-weight="400" font-size="16" transform="matrix(-1.83697e-16 -1 1 -1.83697e-16 584.789 298)">É<tspan font-size="13" x="9" y="-2">TALEMENT</tspan><tspan x="-2" y="151.29">D</tspan><tspan font-size="13" x="9" y="149.29">ÉPENDANCE</tspan><tspan x="7" y="300.775">D</tspan><tspan font-size="13" x="18" y="298.775">IVERSTIÉ</tspan></text></g></svg>