<svg width="618" height="415" xmlns="http://www.w3.org/2000/svg" xmlns:xlink="http://www.w3.org/1999/xlink" overflow="hidden"><defs><clipPath id="clip0"><rect x="350" y="116" width="618" height="415"/></clipPath></defs><g clip-path="url(#clip0)" transform="translate(-350 -116)"><rect x="508.5" y="166.5" width="151" height="151" stroke="#FFFFFF" stroke-width="1.33333" stroke-miterlimit="8" fill="#C00000"/><rect x="659.5" y="166.5" width="151" height="151" stroke="#FFFFFF" stroke-width="1.33333" stroke-miterlimit="8" fill="#4472C4"/><rect x="508.5" y="317.5" width="151" height="151" stroke="#FFFFFF" stroke-width="1.33333" stroke-miterlimit="8" fill="#70AD47"/><rect x="659.5" y="317.5" width="151" height="151" stroke="#FFFFFF" stroke-width="1.33333" stroke-miterlimit="8" fill="#FFC000"/><path d="M505.166 316.167 813.094 316.167 813.094 318.833 505.166 318.833ZM506.5 321.5 498.5 317.5 506.5 313.5ZM811.76 313.5 819.76 317.5 811.76 321.5Z"/><path d="M660.833 164.166 660.833 472.093 658.167 472.093 658.167 164.166ZM655.5 165.5 659.5 157.5 663.5 165.5ZM663.5 470.76 659.5 478.76 655.5 470.76Z"/><text font-family="Roboto,Roboto_MSFontService,sans-serif" font-weight="400" font-size="21" transform="translate(608.796 143)">Autoritaire<tspan x="7.08331" y="369">Libertaire</tspan><tspan x="220.063" y="184">Individualis</tspan><tspan x="327.23" y="184">t</tspan>e<tspan x="-245.279" y="184">Collectiviste</tspan></text></g></svg>