<svg width="618" height="415" xmlns="http://www.w3.org/2000/svg" xmlns:xlink="http://www.w3.org/1999/xlink" overflow="hidden"><defs><clipPath id="clip0"><rect x="350" y="116" width="618" height="415"/></clipPath></defs><g clip-path="url(#clip0)" transform="translate(-350 -116)"><rect x="508.5" y="166.5" width="151" height="151" stroke="#FFFFFF" stroke-width="1.33333" stroke-miterlimit="8" fill="#C00000"/><rect x="659.5" y="166.5" width="151" height="151" stroke="#FFFFFF" stroke-width="1.33333" stroke-miterlimit="8" fill="#4472C4"/><rect x="508.5" y="317.5" width="151" height="151" stroke="#FFFFFF" stroke-width="1.33333" stroke-miterlimit="8" fill="#70AD47"/><rect x="659.5" y="317.5" width="151" height="151" stroke="#FFFFFF" stroke-width="1.33333" stroke-miterlimit="8" fill="#FFC000"/><path d="M505.166 316.167 813.094 316.167 813.094 318.833 505.166 318.833ZM506.5 321.5 498.5 317.5 506.5 313.5ZM811.76 313.5 819.76 317.5 811.76 321.5Z"/><path d="M660.833 164.166 660.833 472.093 658.167 472.093 658.167 164.166ZM655.5 165.5 659.5 157.5 663.5 165.5ZM663.5 470.76 659.5 478.76 655.5 470.76Z"/><text font-family="Roboto,Roboto_MSFontService,sans-serif" font-weight="400" font-size="21" transform="translate(608.796 143)">Autoritaire<tspan x="7.08331" y="369">Libertaire</tspan><tspan x="220.063" y="184">Individualis</tspan><tspan x="327.23" y="184">t</tspan>e<tspan x="-245.279" y="184">Collectiviste</tspan><tspan font-size="16" x="126.673" y="133">Biden</tspan></text><path d="M720.5 270.5C720.5 267.186 722.963 264.5 726 264.5 729.038 264.5 731.5 267.186 731.5 270.5 731.5 273.814 729.038 276.5 726 276.5 722.963 276.5 720.5 273.814 720.5 270.5Z" stroke="#000000" stroke-width="1.33333" stroke-miterlimit="8" fill-rule="evenodd"/><text font-family="Roboto,Roboto_MSFontService,sans-serif" font-weight="400" font-size="16" transform="translate(723.909 294)">Obama</text><path d="M709.5 288.5C709.5 285.186 711.963 282.5 715 282.5 718.038 282.5 720.5 285.186 720.5 288.5 720.5 291.814 718.038 294.5 715 294.5 711.963 294.5 709.5 291.814 709.5 288.5Z" stroke="#000000" stroke-width="1.33333" stroke-miterlimit="8" fill-rule="evenodd"/><text font-family="Roboto,Roboto_MSFontService,sans-serif" font-weight="400" font-size="16" transform="translate(781.016 200)">Trump</text><path d="M766.5 194.5C766.5 191.186 768.963 188.5 772 188.5 775.038 188.5 777.5 191.186 777.5 194.5 777.5 197.814 775.038 200.5 772 200.5 768.963 200.5 766.5 197.814 766.5 194.5Z" stroke="#000000" stroke-width="1.33333" stroke-miterlimit="8" fill-rule="evenodd"/><text font-family="Roboto,Roboto_MSFontService,sans-serif" font-weight="400" font-size="16" transform="translate(810.67 385)">Jorgensen</text><path d="M795.5 380C795.5 376.962 798.186 374.5 801.5 374.5 804.814 374.5 807.5 376.962 807.5 380 807.5 383.038 804.814 385.5 801.5 385.5 798.186 385.5 795.5 383.038 795.5 380Z" stroke="#000000" stroke-width="1.33333" stroke-miterlimit="8" fill-rule="evenodd"/><text font-family="Roboto,Roboto_MSFontService,sans-serif" font-weight="400" font-size="16" transform="translate(589.078 354)">Hawkins</text><path d="M574.5 349C574.5 345.962 576.963 343.5 580 343.5 583.038 343.5 585.5 345.962 585.5 349 585.5 352.038 583.038 354.5 580 354.5 576.963 354.5 574.5 352.038 574.5 349Z" stroke="#000000" stroke-width="1.33333" stroke-miterlimit="8" fill-rule="evenodd"/><text font-family="Roboto,Roboto_MSFontService,sans-serif" font-weight="400" font-size="16" transform="translate(772.234 249)">Clinton</text><path d="M757.5 244.5C757.5 241.186 759.963 238.5 763 238.5 766.038 238.5 768.5 241.186 768.5 244.5 768.5 247.814 766.038 250.5 763 250.5 759.963 250.5 757.5 247.814 757.5 244.5Z" stroke="#000000" stroke-width="1.33333" stroke-miterlimit="8" fill-rule="evenodd"/><text font-family="Roboto,Roboto_MSFontService,sans-serif" font-weight="400" font-size="16" transform="translate(770.765 341)">Paul</text><path d="M755.5 336C755.5 332.962 758.186 330.5 761.5 330.5 764.814 330.5 767.5 332.962 767.5 336 767.5 339.038 764.814 341.5 761.5 341.5 758.186 341.5 755.5 339.038 755.5 336Z" stroke="#000000" stroke-width="1.33333" stroke-miterlimit="8" fill-rule="evenodd"/><text font-family="Roboto,Roboto_MSFontService,sans-serif" font-weight="400" font-size="16" transform="translate(550.014 380)">Moore</text><path d="M535.5 374.5C535.5 371.186 537.963 368.5 541 368.5 544.038 368.5 546.5 371.186 546.5 374.5 546.5 377.814 544.038 380.5 541 380.5 537.963 380.5 535.5 377.814 535.5 374.5Z" stroke="#000000" stroke-width="1.33333" stroke-miterlimit="8" fill-rule="evenodd"/><text font-family="Roboto,Roboto_MSFontService,sans-serif" font-weight="400" font-size="16" transform="translate(621.78 335)">Sanders</text><path d="M606.5 330C606.5 326.962 609.186 324.5 612.5 324.5 615.814 324.5 618.5 326.962 618.5 330 618.5 333.038 615.814 335.5 612.5 335.5 609.186 335.5 606.5 333.038 606.5 330Z" stroke="#000000" stroke-width="1.33333" stroke-miterlimit="8" fill-rule="evenodd"/></g></svg>