<svg width="387" height="254" xmlns="http://www.w3.org/2000/svg" xmlns:xlink="http://www.w3.org/1999/xlink" overflow="hidden"><defs><clipPath id="clip0"><rect x="570" y="96" width="387" height="254"/></clipPath><linearGradient x1="574" y1="220" x2="952" y2="220" gradientUnits="userSpaceOnUse" spreadMethod="reflect" id="fill1"><stop offset="0" stop-color="#C00000"/><stop offset="0.0052356" stop-color="#BF0000"/><stop offset="0.0104712" stop-color="#BF0001"/><stop offset="0.0157068" stop-color="#BF0002"/><stop offset="0.0209424" stop-color="#BF0103"/><stop offset="0.026178" stop-color="#BF0104"/><stop offset="0.0314136" stop-color="#BF0105"/><stop offset="0.0366492" stop-color="#BF0206"/><stop offset="0.0418848" stop-color="#BF0207"/><stop offset="0.0471204" stop-color="#BF0208"/><stop offset="0.052356" stop-color="#BF0309"/><stop offset="0.0575916" stop-color="#BF030A"/><stop offset="0.0628272" stop-color="#BE030A"/><stop offset="0.0680628" stop-color="#BE030B"/><stop offset="0.0732984" stop-color="#BE040C"/><stop offset="0.078534" stop-color="#BE040D"/><stop offset="0.0837696" stop-color="#BE040E"/><stop offset="0.0890052" stop-color="#BD050F"/><stop offset="0.0942408" stop-color="#BD0510"/><stop offset="0.0994764" stop-color="#BD0511"/><stop offset="0.104712" stop-color="#BD0511"/><stop offset="0.109948" stop-color="#BC0612"/><stop offset="0.115183" stop-color="#BC0613"/><stop offset="0.120419" stop-color="#BC0614"/><stop offset="0.125654" stop-color="#BC0715"/><stop offset="0.13089" stop-color="#BB0716"/><stop offset="0.136126" stop-color="#BB0717"/><stop offset="0.141361" stop-color="#BB0717"/><stop offset="0.146597" stop-color="#BA0818"/><stop offset="0.151832" stop-color="#BA0819"/><stop offset="0.157068" stop-color="#BA081A"/><stop offset="0.162304" stop-color="#B9091B"/><stop offset="0.167539" stop-color="#B9091B"/><stop offset="0.172775" stop-color="#B8091C"/><stop offset="0.17801" stop-color="#B8091D"/><stop offset="0.183246" stop-color="#B80A1E"/><stop offset="0.188482" stop-color="#B70A1F"/><stop offset="0.193717" stop-color="#B70A1F"/><stop offset="0.198953" stop-color="#B60A20"/><stop offset="0.204188" stop-color="#B60B21"/><stop offset="0.209424" stop-color="#B50B22"/><stop offset="0.21466" stop-color="#B50B22"/><stop offset="0.219895" stop-color="#B40B23"/><stop offset="0.225131" stop-color="#B40C24"/><stop offset="0.230366" stop-color="#B30C25"/><stop offset="0.235602" stop-color="#B30C25"/><stop offset="0.240838" stop-color="#B20C26"/><stop offset="0.246073" stop-color="#B20D27"/><stop offset="0.251309" stop-color="#B10D28"/><stop offset="0.256545" stop-color="#B10D28"/><stop offset="0.26178" stop-color="#B00D29"/><stop offset="0.267016" stop-color="#AF0E2A"/><stop offset="0.272251" stop-color="#AF0E2B"/><stop offset="0.277487" stop-color="#AE0E2B"/><stop offset="0.282723" stop-color="#AE0E2C"/><stop offset="0.287958" stop-color="#AD0F2D"/><stop offset="0.293194" stop-color="#AC0F2D"/><stop offset="0.298429" stop-color="#AC0F2E"/><stop offset="0.303665" stop-color="#AB0F2F"/><stop offset="0.308901" stop-color="#AA0F2F"/><stop offset="0.314136" stop-color="#AA1030"/><stop offset="0.319372" stop-color="#A91031"/><stop offset="0.324607" stop-color="#A81032"/><stop offset="0.329843" stop-color="#A81032"/><stop offset="0.335079" stop-color="#A71133"/><stop offset="0.340314" stop-color="#A61133"/><stop offset="0.34555" stop-color="#A51134"/><stop offset="0.350785" stop-color="#A51135"/><stop offset="0.356021" stop-color="#A41135"/><stop offset="0.361257" stop-color="#A31236"/><stop offset="0.366492" stop-color="#A21237"/><stop offset="0.371728" stop-color="#A11237"/><stop offset="0.376963" stop-color="#A11238"/><stop offset="0.382199" stop-color="#A01339"/><stop offset="0.387435" stop-color="#9F1339"/><stop offset="0.39267" stop-color="#9E133A"/><stop offset="0.397906" stop-color="#9D133A"/><stop offset="0.403141" stop-color="#9D133B"/><stop offset="0.408377" stop-color="#9C143C"/><stop offset="0.413613" stop-color="#9B143C"/><stop offset="0.418848" stop-color="#9A143D"/><stop offset="0.424084" stop-color="#99143D"/><stop offset="0.429319" stop-color="#98143E"/><stop offset="0.434555" stop-color="#97153F"/><stop offset="0.439791" stop-color="#96153F"/><stop offset="0.445026" stop-color="#951540"/><stop offset="0.450262" stop-color="#941540"/><stop offset="0.455497" stop-color="#941541"/><stop offset="0.460733" stop-color="#931541"/><stop offset="0.465969" stop-color="#921642"/><stop offset="0.471204" stop-color="#911642"/><stop offset="0.47644" stop-color="#901643"/><stop offset="0.481675" stop-color="#8F1644"/><stop offset="0.486911" stop-color="#8E1644"/><stop offset="0.492147" stop-color="#8D1745"/><stop offset="0.497382" stop-color="#8C1745"/><stop offset="0.502618" stop-color="#8B1746"/><stop offset="0.507853" stop-color="#8A1746"/><stop offset="0.513089" stop-color="#891747"/><stop offset="0.518325" stop-color="#881747"/><stop offset="0.52356" stop-color="#861848"/><stop offset="0.528796" stop-color="#851848"/><stop offset="0.534031" stop-color="#841849"/><stop offset="0.539267" stop-color="#831849"/><stop offset="0.544503" stop-color="#82184A"/><stop offset="0.549738" stop-color="#81184A"/><stop offset="0.554974" stop-color="#80184A"/><stop offset="0.560209" stop-color="#7F194B"/><stop offset="0.565445" stop-color="#7E194B"/><stop offset="0.570681" stop-color="#7C194C"/><stop offset="0.575916" stop-color="#7B194C"/><stop offset="0.581152" stop-color="#7A194D"/><stop offset="0.586387" stop-color="#79194D"/><stop offset="0.591623" stop-color="#781A4E"/><stop offset="0.596859" stop-color="#771A4E"/><stop offset="0.602094" stop-color="#751A4E"/><stop offset="0.60733" stop-color="#741A4F"/><stop offset="0.612565" stop-color="#731A4F"/><stop offset="0.617801" stop-color="#721A50"/><stop offset="0.623037" stop-color="#701A50"/><stop offset="0.628272" stop-color="#6F1A50"/><stop offset="0.633508" stop-color="#6E1B51"/><stop offset="0.638743" stop-color="#6D1B51"/><stop offset="0.643979" stop-color="#6B1B52"/><stop offset="0.649215" stop-color="#6A1B52"/><stop offset="0.65445" stop-color="#691B52"/><stop offset="0.659686" stop-color="#671B53"/><stop offset="0.664921" stop-color="#661B53"/><stop offset="0.670157" stop-color="#651C54"/><stop offset="0.675393" stop-color="#641C54"/><stop offset="0.680628" stop-color="#621C54"/><stop offset="0.685864" stop-color="#611C55"/><stop offset="0.691099" stop-color="#5F1C55"/><stop offset="0.696335" stop-color="#5E1C55"/><stop offset="0.701571" stop-color="#5D1C56"/><stop offset="0.706806" stop-color="#5B1C56"/><stop offset="0.712042" stop-color="#5A1C56"/><stop offset="0.717277" stop-color="#591D57"/><stop offset="0.722513" stop-color="#571D57"/><stop offset="0.727749" stop-color="#561D57"/><stop offset="0.732984" stop-color="#541D57"/><stop offset="0.73822" stop-color="#531D58"/><stop offset="0.743455" stop-color="#511D58"/><stop offset="0.748691" stop-color="#501D58"/><stop offset="0.753927" stop-color="#4E1D59"/><stop offset="0.759162" stop-color="#4D1D59"/><stop offset="0.764398" stop-color="#4B1D59"/><stop offset="0.769634" stop-color="#4A1D59"/><stop offset="0.774869" stop-color="#481E5A"/><stop offset="0.780105" stop-color="#471E5A"/><stop offset="0.78534" stop-color="#451E5A"/><stop offset="0.790576" stop-color="#441E5A"/><stop offset="0.795812" stop-color="#421E5B"/><stop offset="0.801047" stop-color="#411E5B"/><stop offset="0.806283" stop-color="#3F1E5B"/><stop offset="0.811518" stop-color="#3E1E5B"/><stop offset="0.816754" stop-color="#3C1E5C"/><stop offset="0.82199" stop-color="#3B1E5C"/><stop offset="0.827225" stop-color="#391E5C"/><stop offset="0.832461" stop-color="#371E5C"/><stop offset="0.837696" stop-color="#361E5C"/><stop offset="0.842932" stop-color="#341F5D"/><stop offset="0.848168" stop-color="#331F5D"/><stop offset="0.853403" stop-color="#311F5D"/><stop offset="0.858639" stop-color="#2F1F5D"/><stop offset="0.863874" stop-color="#2E1F5D"/><stop offset="0.86911" stop-color="#2C1F5D"/><stop offset="0.874346" stop-color="#2A1F5E"/><stop offset="0.879581" stop-color="#291F5E"/><stop offset="0.884817" stop-color="#271F5E"/><stop offset="0.890052" stop-color="#251F5E"/><stop offset="0.895288" stop-color="#231F5E"/><stop offset="0.900524" stop-color="#221F5E"/><stop offset="0.905759" stop-color="#201F5E"/><stop offset="0.910995" stop-color="#1E1F5E"/><stop offset="0.91623" stop-color="#1D1F5F"/><stop offset="0.921466" stop-color="#1B1F5F"/><stop offset="0.926702" stop-color="#191F5F"/><stop offset="0.931937" stop-color="#171F5F"/><stop offset="0.937173" stop-color="#151F5F"/><stop offset="0.942408" stop-color="#141F5F"/><stop offset="0.947644" stop-color="#121F5F"/><stop offset="0.95288" stop-color="#101F5F"/><stop offset="0.958115" stop-color="#0E1F5F"/><stop offset="0.963351" stop-color="#0C1F5F"/><stop offset="0.968586" stop-color="#0B1F5F"/><stop offset="0.973822" stop-color="#091F5F"/><stop offset="0.979058" stop-color="#071F5F"/><stop offset="0.984293" stop-color="#051F5F"/><stop offset="0.989529" stop-color="#031F5F"/><stop offset="0.994764" stop-color="#011F5F"/><stop offset="1" stop-color="#002060"/></linearGradient><clipPath id="clip2"><rect x="615" y="96" width="96" height="96"/></clipPath><clipPath id="clip3"><rect x="615" y="96" width="96" height="96"/></clipPath><clipPath id="clip4"><rect x="615" y="96" width="96" height="96"/></clipPath><clipPath id="clip5"><rect x="810" y="96" width="96" height="96"/></clipPath><clipPath id="clip6"><rect x="810" y="96" width="96" height="96"/></clipPath><clipPath id="clip7"><rect x="810" y="96" width="96" height="96"/></clipPath><clipPath id="clip8"><rect x="715" y="253" width="96" height="96"/></clipPath><clipPath id="clip9"><rect x="715" y="253" width="96" height="96"/></clipPath><clipPath id="clip10"><rect x="715" y="253" width="96" height="96"/></clipPath></defs><g clip-path="url(#clip0)" transform="translate(-570 -96)"><path d="M663.5 178.5 663.5 209.5" stroke="#000000" stroke-width="2.66667" stroke-miterlimit="8" fill="none" fill-rule="evenodd"/><path d="M856.5 176.5 856.5 207.5" stroke="#000000" stroke-width="2.66667" stroke-miterlimit="8" fill="none" fill-rule="evenodd"/><path d="M762.5 236.5 762.5 267.5" stroke="#000000" stroke-width="2.66667" stroke-miterlimit="8" fill="none" fill-rule="evenodd"/><rect x="574" y="201" width="378" height="38" fill="url(#fill1)"/><g clip-path="url(#clip2)"><g clip-path="url(#clip3)"><g clip-path="url(#clip4)"><path d="M695 162C694.948 159.495 693.773 157.145 691.8 155.6 687.4 152 681.8 149.6 676.2 148 671.922 146.69 667.474 146.016 663 146 658.531 146.077 654.092 146.75 649.8 148 644.207 149.632 638.932 152.202 634.2 155.6 632.227 157.145 631.052 159.495 631 162L631 178 695 178Z" fill="#B20D27"/><path d="M660 121.75C662.6 120.22 669 115.28 669 115.28L669 115.28C670.01 115.368 670.971 115.754 671.76 116.39 673.68 117.739 675.307 119.464 676.54 121.46 677.65 123.12 678.6 124.46 678.89 124.86L678.89 124.86 679 125 679 125C679.5 124 679.48 121.21 679.13 118.67 678.64 115.17 678.24 114.13 676 112.25 674.573 110.956 672.668 110.322 670.75 110.5 668.148 108.481 665.013 107.264 661.73 107 656.73 106.82 651.27 109.43 648.95 112.49 645.44 117.09 645.83 120.09 645.83 121.16 645.83 122.23 644.6 124.09 645.46 124.09 646.02 124.09 646.57 124.09 647.13 124.09L647.13 124.09C650.3 124 656.77 123.65 660 121.75Z" fill="#B20D27"/><path d="M677.42 126.17C677.37 126.1 676.27 124.57 674.93 122.58 673.829 120.775 672.369 119.216 670.64 118 670.303 117.755 669.937 117.553 669.55 117.4 667.77 118.75 663.19 122.19 661.01 123.46 657.55 125.46 651.24 125.99 647.01 126.08 647.12 134.916 654.371 141.99 663.207 141.88 671.099 141.783 677.741 135.944 678.85 128.13Z" fill="#B20D27"/></g></g></g><g clip-path="url(#clip5)"><g clip-path="url(#clip6)"><g clip-path="url(#clip7)"><path d="M890 162C889.948 159.495 888.773 157.145 886.8 155.6 882.4 152 876.8 149.6 871.2 148 866.922 146.69 862.474 146.016 858 146 853.531 146.077 849.092 146.75 844.8 148 839.207 149.632 833.932 152.202 829.2 155.6 827.227 157.145 826.052 159.495 826 162L826 178 890 178Z" fill="#501E59"/><path d="M855 121.75C857.6 120.22 864 115.28 864 115.28L864 115.28C865.01 115.368 865.971 115.754 866.76 116.39 868.68 117.739 870.307 119.464 871.54 121.46 872.65 123.12 873.6 124.46 873.89 124.86L873.89 124.86 874 125 874 125C874.5 124 874.48 121.21 874.13 118.67 873.64 115.17 873.24 114.13 871 112.25 869.573 110.956 867.668 110.322 865.75 110.5 863.148 108.481 860.013 107.264 856.73 107 851.73 106.82 846.27 109.43 843.95 112.49 840.44 117.09 840.83 120.09 840.83 121.16 840.83 122.23 839.6 124.09 840.46 124.09 841.02 124.09 841.57 124.09 842.13 124.09L842.13 124.09C845.3 124 851.77 123.65 855 121.75Z" fill="#501E59"/><path d="M872.42 126.17C872.37 126.1 871.27 124.57 869.93 122.58 868.829 120.775 867.369 119.216 865.64 118 865.303 117.755 864.937 117.553 864.55 117.4 862.77 118.75 858.19 122.19 856.01 123.46 852.55 125.46 846.24 125.99 842.01 126.08 842.12 134.916 849.371 141.99 858.207 141.88 866.099 141.783 872.741 135.944 873.85 128.13Z" fill="#501E59"/></g></g></g><text fill="#FFFFFF" font-family="Calibri,Calibri_MSFontService,sans-serif" font-weight="400" font-size="24" transform="translate(585.209 228)">Gauche<tspan x="295.84" y="0">Droite</tspan></text><g clip-path="url(#clip8)"><g clip-path="url(#clip9)"><g clip-path="url(#clip10)"><path d="M795 319C794.948 316.495 793.773 314.145 791.8 312.6 787.4 309 781.8 306.6 776.2 305 771.922 303.69 767.474 303.017 763 303 758.531 303.077 754.092 303.75 749.8 305 744.207 306.632 738.932 309.202 734.2 312.6 732.227 314.145 731.052 316.495 731 319L731 335 795 335Z" fill="#8C1746"/><path d="M760 278.75C762.6 277.22 769 272.28 769 272.28L769 272.28C770.01 272.367 770.971 272.754 771.76 273.39 773.68 274.738 775.307 276.464 776.54 278.46 777.65 280.12 778.6 281.46 778.89 281.86L778.89 281.86 779 282 779 282C779.5 281 779.48 278.21 779.13 275.67 778.64 272.17 778.24 271.13 776 269.25 774.573 267.957 772.668 267.322 770.75 267.5 768.148 265.481 765.013 264.264 761.73 264 756.73 263.82 751.27 266.43 748.95 269.49 745.44 274.09 745.83 277.09 745.83 278.16 745.83 279.23 744.6 281.09 745.46 281.09 746.02 281.09 746.57 281.09 747.13 281.09L747.13 281.09C750.3 281 756.77 280.65 760 278.75Z" fill="#8C1746"/><path d="M777.42 283.17C777.37 283.1 776.27 281.57 774.93 279.58 773.829 277.775 772.369 276.216 770.64 275 770.303 274.755 769.937 274.553 769.55 274.4 767.77 275.75 763.19 279.19 761.01 280.46 757.55 282.46 751.24 282.99 747.01 283.08 747.12 291.916 754.371 298.99 763.207 298.88 771.099 298.783 777.741 292.944 778.85 285.13Z" fill="#8C1746"/></g></g></g></g></svg>