<svg width="815" height="493" xmlns="http://www.w3.org/2000/svg" xmlns:xlink="http://www.w3.org/1999/xlink" overflow="hidden"><defs><clipPath id="clip0"><rect x="193" y="62" width="815" height="493"/></clipPath><clipPath id="clip1"><rect x="193" y="63" width="491" height="491"/></clipPath><clipPath id="clip2"><rect x="193" y="63" width="491" height="491"/></clipPath><clipPath id="clip3"><rect x="193" y="63" width="491" height="491"/></clipPath></defs><g clip-path="url(#clip0)" transform="translate(-193 -62)"><g clip-path="url(#clip1)"><g clip-path="url(#clip2)"><g clip-path="url(#clip3)"><path d="M489.87 338.068 489.87 119.136C489.87 88.1331 464.738 63 433.735 63L433.734 63C402.732 63 377.598 88.1331 377.598 119.136L377.598 338.068C342.329 357.778 318.47 395.461 318.47 438.736 318.47 502.394 370.076 554 433.734 554 497.395 554 549.001 502.394 549.001 438.736 549.001 395.461 525.14 357.778 489.87 338.068Z" fill="#D5D6DB"/><path d="M433.735 545.671C374.771 545.671 326.799 497.7 326.799 438.735 326.799 400.037 347.821 364.249 381.662 345.337L385.926 342.951 385.926 119.136C385.926 92.7725 407.371 71.3271 433.735 71.3271 460.099 71.3271 481.544 92.7725 481.544 119.136L481.544 342.951 485.809 345.337C519.649 364.249 540.672 400.037 540.672 438.735 540.671 497.7 492.699 545.671 433.735 545.671Z" fill="#EBF0F3"/><path d="M445.837 119.133C445.837 112.465 440.406 107.033 433.736 107.033 427.067 107.033 421.635 112.466 421.635 119.133L421.635 231.842 445.837 231.842 445.837 119.133Z" fill="#E1E6E9"/><path d="M468.355 376.491 461.482 372.641C451.819 367.228 445.837 357.016 445.837 345.937L445.837 231.842 421.635 231.842 421.635 345.943C421.635 357.017 415.653 367.228 405.993 372.641L399.082 376.516C369.785 392.874 354.908 428.192 366.398 462.086 374.861 487.051 397.315 505.544 423.412 509.233 467.254 515.427 504.962 481.403 504.962 438.736 504.962 412.957 490.953 389.113 468.355 376.491Z" fill="#E56353"/><path d="M510.055 116.101 540.672 116.101 540.672 125.027 510.055 125.027Z" fill="#3A556A"/><path d="M510.055 135.392 558.53 135.392 558.53 144.318 510.055 144.318Z" fill="#3A556A"/><path d="M510.055 154.688 540.672 154.688 540.672 163.614 510.055 163.614Z" fill="#3A556A"/><path d="M510.055 173.978 540.672 173.978 540.672 182.904 510.055 182.904Z" fill="#3A556A"/><path d="M510.055 193.274 558.53 193.274 558.53 202.2 510.055 202.2Z" fill="#3A556A"/><path d="M510.055 212.584 540.672 212.584 540.672 221.51 510.055 221.51Z" fill="#3A556A"/><path d="M510.055 231.881 540.672 231.881 540.672 240.806 510.055 240.806Z" fill="#3A556A"/><path d="M510.055 251.151 558.53 251.151 558.53 260.077 510.055 260.077Z" fill="#3A556A"/><path d="M510.055 270.446 540.672 270.446 540.672 279.372 510.055 279.372Z" fill="#3A556A"/><path d="M510.055 289.716 540.672 289.716 540.672 298.642 510.055 298.642Z" fill="#3A556A"/><path d="M510.055 309.011 558.53 309.011 558.53 317.937 510.055 317.937Z" fill="#3A556A"/></g></g></g><text font-family="Calibri,Calibri_MSFontService,sans-serif" font-style="italic" font-weight="700" font-size="32" transform="translate(569.927 325)">0<tspan x="16.1666" y="0">°</tspan><tspan x="34.3333" y="0">–</tspan><tspan x="57.5" y="0">Fusion d'un mélange d'eau </tspan><tspan x="0" y="38">et de chlorure d'ammonium</tspan><tspan x="-0.00012207" y="-175">96</tspan><tspan x="32.3332" y="-175">°</tspan><tspan x="50.4999" y="-175">–</tspan><tspan x="73.6666" y="-175">Aisselle d'un homme </tspan><tspan x="-0.00012207" y="-137">adulte en bonne santé</tspan></text></g></svg>