<?xml version="1.0" standalone="no"?>
<!DOCTYPE svg PUBLIC "-//W3C//DTD SVG 20010904//EN"
 "http://www.w3.org/TR/2001/REC-SVG-20010904/DTD/svg10.dtd">
<svg version="1.0" xmlns="http://www.w3.org/2000/svg"
 width="700.000000pt" height="700.000000pt" viewBox="0 0 700.000000 700.000000"
 preserveAspectRatio="xMidYMid meet">
<metadata>
Created by potrace 1.11, written by Peter Selinger 2001-2013
</metadata>
<g transform="translate(0.000000,700.000000) scale(0.100000,-0.100000)"
fill="#000000" stroke="none">
<path d="M5019 5955 c-147 -47 -259 -201 -259 -355 0 -69 34 -167 77 -224 137
-178 399 -197 556 -39 147 147 149 380 4 525 -71 70 -143 101 -247 105 -56 2
-101 -2 -131 -12z m163 -175 c76 -21 138 -102 138 -180 0 -78 -62 -159 -138
-180 -46 -12 -48 -12 -95 1 -43 12 -101 59 -123 100 -37 72 -5 188 63 230 60
37 98 44 155 29z"/>
<path d="M1874 5931 c-66 -28 -84 -117 -35 -170 40 -43 97 -44 143 -2 65 58
33 165 -53 176 -18 3 -44 1 -55 -4z"/>
<path d="M3415 5779 c-33 -19 -775 -762 -791 -793 -10 -17 -13 -39 -9 -55 4
-16 149 -169 403 -423 390 -391 398 -398 437 -398 39 0 47 7 437 398 391 390
398 398 398 437 0 39 -7 47 -397 437 -413 413 -428 425 -478 397z m343 -1136
l-308 -308 -305 305 -305 305 307 307 308 308 305 -305 305 -305 -307 -307z"/>
<path d="M3248 5152 c-222 -222 -221 -192 -11 -403 157 -159 194 -186 236
-175 28 7 339 316 351 350 16 42 -10 77 -173 239 -211 210 -181 211 -403 -11z"/>
<path d="M1794 5283 c-12 -2 -34 -17 -49 -33 -63 -66 -16 -173 75 -173 92 0
139 110 74 173 -30 29 -63 40 -100 33z"/>
<path d="M1238 3992 c-680 -679 -688 -688 -688 -727 0 -39 8 -48 677 -717 372
-372 690 -682 705 -689 21 -9 35 -9 56 0 15 7 333 317 705 689 670 670 677
678 677 717 0 40 -7 47 -688 728 -646 646 -689 687 -722 687 -33 0 -76 -41
-722 -688z m1032 -417 l305 -305 -308 -308 -307 -307 -307 307 -308 308 305
305 c168 168 307 305 310 305 3 0 142 -137 310 -305z"/>
<path d="M4318 3993 c-681 -681 -688 -688 -688 -728 0 -39 7 -47 677 -717 372
-372 690 -682 705 -689 21 -9 35 -9 56 0 15 7 333 317 705 689 669 669 677
678 677 717 0 39 -8 48 -688 727 -646 647 -689 688 -722 688 -33 0 -76 -41
-722 -687z m1032 -418 l305 -305 -308 -308 -307 -307 -307 307 -308 308 305
305 c168 168 307 305 310 305 3 0 142 -137 310 -305z"/>
<path d="M3023 2128 c-216 -215 -397 -404 -404 -420 -9 -21 -9 -35 0 -56 7
-16 188 -205 404 -420 420 -420 410 -412 475 -378 15 8 199 187 410 398 l382
384 0 44 0 44 -382 384 c-211 211 -395 390 -410 398 -65 34 -55 42 -475 -378z
m737 -143 l305 -305 -305 -305 -305 -305 -307 306 -308 306 302 304 c166 167
304 304 307 304 4 0 143 -137 311 -305z"/>
<path d="M3264 1908 c-80 -79 -154 -157 -165 -174 -39 -63 -34 -73 148 -256
222 -223 191 -223 412 -3 160 159 166 165 166 205 0 40 -6 46 -166 205 -220
219 -196 218 -395 23z"/>
<path d="M5214 1252 c-50 -40 -58 -104 -18 -151 66 -79 195 -23 180 79 -11 74
-108 117 -162 72z"/>
</g>
</svg>
