<svg width="131" height="43" xmlns="http://www.w3.org/2000/svg" xmlns:xlink="http://www.w3.org/1999/xlink" overflow="hidden"><defs><clipPath id="clip0"><rect x="270" y="243" width="131" height="43"/></clipPath></defs><g clip-path="url(#clip0)" transform="translate(-270 -243)"><path d="M273.5 261.015 287.633 261.015 292 246.5 296.367 261.015 310.5 261.015 299.066 269.985 303.434 284.5 292 275.529 280.566 284.5 284.934 269.985Z" stroke="#000000" stroke-width="1.33333" stroke-miterlimit="8" fill="#FFC000" fill-rule="evenodd"/><path d="M317.5 261.015 331.633 261.015 336 246.5 340.367 261.015 354.5 261.015 343.066 269.985 347.434 284.5 336 275.529 324.566 284.5 328.934 269.985Z" stroke="#000000" stroke-width="1.33333" stroke-miterlimit="8" fill="none" fill-rule="evenodd"/><path d="M360.5 261.015 375.015 261.015 379.5 246.5 383.985 261.015 398.5 261.015 386.757 269.985 391.243 284.5 379.5 275.529 367.757 284.5 372.243 269.985Z" stroke="#000000" stroke-width="1.33333" stroke-miterlimit="8" fill="none" fill-rule="evenodd"/></g></svg>