<svg width="130" height="44" xmlns="http://www.w3.org/2000/svg" xmlns:xlink="http://www.w3.org/1999/xlink" overflow="hidden"><defs><clipPath id="clip0"><rect x="270" y="189" width="130" height="44"/></clipPath></defs><g clip-path="url(#clip0)" transform="translate(-270 -189)"><path d="M272.5 207.015 287.015 207.015 291.5 192.5 295.985 207.015 310.5 207.015 298.757 215.985 303.243 230.5 291.5 221.529 279.757 230.5 284.243 215.985Z" stroke="#000000" stroke-width="1.33333" stroke-miterlimit="8" fill="#FFC000" fill-rule="evenodd"/><path d="M316.5 207.015 331.015 207.015 335.5 192.5 339.985 207.015 354.5 207.015 342.757 215.985 347.243 230.5 335.5 221.529 323.757 230.5 328.243 215.985Z" stroke="#000000" stroke-width="1.33333" stroke-miterlimit="8" fill="#FFC000" fill-rule="evenodd"/><path d="M360.5 207.015 375.015 207.015 379.5 192.5 383.985 207.015 398.5 207.015 386.757 215.985 391.243 230.5 379.5 221.529 367.757 230.5 372.243 215.985Z" stroke="#000000" stroke-width="1.33333" stroke-miterlimit="8" fill="none" fill-rule="evenodd"/></g></svg>