<svg width="130" height="44" xmlns="http://www.w3.org/2000/svg" xmlns:xlink="http://www.w3.org/1999/xlink" overflow="hidden"><defs><clipPath id="clip0"><rect x="270" y="135" width="130" height="44"/></clipPath></defs><g clip-path="url(#clip0)" transform="translate(-270 -135)"><path d="M272.5 153.015 287.015 153.015 291.5 138.5 295.985 153.015 310.5 153.015 298.757 161.985 303.243 176.5 291.5 167.529 279.757 176.5 284.243 161.985Z" stroke="#000000" stroke-width="1.33333" stroke-miterlimit="8" fill="#FFC000" fill-rule="evenodd"/><path d="M316.5 153.015 331.015 153.015 335.5 138.5 339.985 153.015 354.5 153.015 342.757 161.985 347.243 176.5 335.5 167.529 323.757 176.5 328.243 161.985Z" stroke="#000000" stroke-width="1.33333" stroke-miterlimit="8" fill="#FFC000" fill-rule="evenodd"/><path d="M360.5 153.015 375.015 153.015 379.5 138.5 383.985 153.015 398.5 153.015 386.757 161.985 391.243 176.5 379.5 167.529 367.757 176.5 372.243 161.985Z" stroke="#000000" stroke-width="1.33333" stroke-miterlimit="8" fill="#FFC000" fill-rule="evenodd"/></g></svg>