<svg id="diamonds" enable-background="new 0 0 300 300" height="512" viewBox="0 0 300 300" width="512" xmlns="http://www.w3.org/2000/svg"><g><path d="m220 72c8.822 0 16-7.176 16-16s-7.178-16-16-16-16 7.176-16 16 7.178 16 16 16zm0-24c4.412 0 8 3.59 8 8s-3.588 8-8 8-8-3.59-8-8 3.588-8 8-8z"/><path d="m226 241.47c-2.501 0-4.53 2.028-4.53 4.53 0 2.501 2.028 4.529 4.53 4.529s4.53-2.028 4.53-4.529c0-2.502-2.029-4.53-4.53-4.53z"/><path d="m82 50.529c2.501 0 4.53-2.028 4.53-4.529 0-2.502-2.028-4.53-4.53-4.53s-4.53 2.028-4.53 4.53c0 2.501 2.029 4.529 4.53 4.529z"/><path d="m78 78.529c2.501 0 4.53-2.028 4.53-4.529 0-2.502-2.028-4.53-4.53-4.53s-4.53 2.028-4.53 4.53c0 2.501 2.029 4.529 4.53 4.529z"/><path d="m143.396 153.172-56.568-56.57c-1.5-1.5-4.156-1.5-5.656 0l-56.568 56.57c-1.562 1.562-1.562 4.094 0 5.656l56.568 56.57c.75.75 1.768 1.172 2.828 1.172s2.078-.422 2.828-1.172l56.568-56.57c1.563-1.562 1.563-4.094 0-5.656zm-59.396 53.742-50.912-50.914 50.912-50.914 50.912 50.914z"/><path d="m81.172 121.172-32 32c-1.562 1.562-1.562 4.094 0 5.656l32 32c.781.781 1.805 1.172 2.828 1.172s2.047-.391 2.828-1.172l32-32c1.562-1.562 1.562-4.094 0-5.656l-32-32c-1.562-1.563-4.094-1.563-5.656 0zm29.172 34.828-26.344 26.344-26.344-26.344 26.344-26.344z"/><path d="m275.396 153.172-56.568-56.57c-1.5-1.5-4.156-1.5-5.656 0l-56.568 56.57c-1.562 1.562-1.562 4.094 0 5.656l56.568 56.57c.75.75 1.768 1.172 2.828 1.172s2.078-.422 2.828-1.172l56.568-56.57c1.563-1.562 1.563-4.094 0-5.656zm-59.396 53.742-50.912-50.914 50.912-50.914 50.912 50.914z"/><path d="m213.172 121.172-32 32c-1.562 1.562-1.562 4.094 0 5.656l32 32c.781.781 1.805 1.172 2.828 1.172s2.047-.391 2.828-1.172l32-32c1.562-1.562 1.562-4.094 0-5.656l-32-32c-1.562-1.563-4.094-1.563-5.656 0zm29.172 34.828-26.344 26.344-26.344-26.344 26.344-26.344z"/><path d="m145.172 118.828c.781.781 1.805 1.172 2.828 1.172s2.047-.391 2.828-1.172l32-32c1.562-1.562 1.562-4.094 0-5.656l-32-32c-1.562-1.562-4.094-1.562-5.656 0l-32 32c-1.562 1.562-1.562 4.094 0 5.656zm2.828-61.172 26.344 26.344-26.344 26.344-26.344-26.344z"/><path d="m150.828 98.828 12-12c1.562-1.562 1.562-4.094 0-5.656l-12-12c-1.562-1.562-4.094-1.562-5.656 0l-12 12c-1.562 1.562-1.562 4.094 0 5.656l12 12c.781.781 1.805 1.172 2.828 1.172s2.047-.391 2.828-1.172zm-9.172-14.828 6.344-6.344 6.344 6.344-6.344 6.344z"/><path d="m150.828 189.172c-1.562-1.562-4.094-1.562-5.656 0l-32 32c-1.562 1.562-1.562 4.094 0 5.656l32 32c.781.781 1.805 1.172 2.828 1.172s2.047-.391 2.828-1.172l32-32c1.562-1.562 1.562-4.094 0-5.656zm-2.828 61.172-26.344-26.344 26.344-26.344 26.344 26.344z"/><path d="m145.172 209.172-12 12c-1.562 1.562-1.562 4.094 0 5.656l12 12c.781.781 1.805 1.172 2.828 1.172s2.047-.391 2.828-1.172l12-12c1.562-1.562 1.562-4.094 0-5.656l-12-12c-1.562-1.563-4.094-1.563-5.656 0zm9.172 14.828-6.344 6.344-6.344-6.344 6.344-6.344z"/></g></svg>