<svg id="diamonds" enable-background="new 0 0 300 300" height="512" viewBox="0 0 300 300" width="512" xmlns="http://www.w3.org/2000/svg" xmlns:xlink="http://www.w3.org/1999/xlink"><linearGradient id="SVGID_1_" gradientUnits="userSpaceOnUse" x1="82.887" x2="243.309" y1="217.113" y2="56.691"><stop offset="0" stop-color="#107eff"/><stop offset="1" stop-color="#8f16ff"/></linearGradient><g><path d="m220 72c8.822 0 16-7.176 16-16s-7.178-16-16-16-16 7.176-16 16 7.178 16 16 16zm0-24c4.412 0 8 3.59 8 8s-3.588 8-8 8-8-3.59-8-8 3.588-8 8-8zm10.53 198c0 2.501-2.028 4.529-4.53 4.529s-4.53-2.028-4.53-4.529c0-2.502 2.028-4.53 4.53-4.53s4.53 2.028 4.53 4.53zm-153.06-200c0-2.502 2.028-4.53 4.53-4.53s4.53 2.028 4.53 4.53c0 2.501-2.028 4.529-4.53 4.529s-4.53-2.028-4.53-4.529zm-4 28c0-2.502 2.028-4.53 4.53-4.53s4.53 2.028 4.53 4.53c0 2.501-2.028 4.529-4.53 4.529s-4.53-2.028-4.53-4.529zm69.926 79.172-56.568-56.57c-1.5-1.5-4.156-1.5-5.656 0l-56.568 56.57c-1.562 1.562-1.562 4.094 0 5.656l56.568 56.57c.75.75 1.768 1.172 2.828 1.172s2.078-.422 2.828-1.172l56.568-56.57c1.563-1.562 1.563-4.094 0-5.656zm-59.396 53.742-50.912-50.914 50.912-50.914 50.912 50.914zm-2.828-85.742-32 32c-1.562 1.562-1.562 4.094 0 5.656l32 32c.781.781 1.805 1.172 2.828 1.172s2.047-.391 2.828-1.172l32-32c1.562-1.562 1.562-4.094 0-5.656l-32-32c-1.562-1.563-4.094-1.563-5.656 0zm29.172 34.828-26.344 26.344-26.344-26.344 26.344-26.344zm165.052-2.828-56.568-56.57c-1.5-1.5-4.156-1.5-5.656 0l-56.568 56.57c-1.562 1.562-1.562 4.094 0 5.656l56.568 56.57c.75.75 1.768 1.172 2.828 1.172s2.078-.422 2.828-1.172l56.568-56.57c1.563-1.562 1.563-4.094 0-5.656zm-59.396 53.742-50.912-50.914 50.912-50.914 50.912 50.914zm-2.828-85.742-32 32c-1.562 1.562-1.562 4.094 0 5.656l32 32c.781.781 1.805 1.172 2.828 1.172s2.047-.391 2.828-1.172l32-32c1.562-1.562 1.562-4.094 0-5.656l-32-32c-1.562-1.563-4.094-1.563-5.656 0zm-68-2.344c.781.781 1.805 1.172 2.828 1.172s2.047-.391 2.828-1.172l32-32c1.562-1.562 1.562-4.094 0-5.656l-32-32c-1.562-1.562-4.094-1.562-5.656 0l-32 32c-1.562 1.562-1.562 4.094 0 5.656zm2.828-61.172 26.344 26.344-26.344 26.344-26.344-26.344zm2.828 41.172 12-12c1.562-1.562 1.562-4.094 0-5.656l-12-12c-1.562-1.562-4.094-1.562-5.656 0l-12 12c-1.562 1.562-1.562 4.094 0 5.656l12 12c.781.781 1.805 1.172 2.828 1.172s2.047-.391 2.828-1.172zm0 90.344c-1.562-1.562-4.094-1.562-5.656 0l-32 32c-1.562 1.562-1.562 4.094 0 5.656l32 32c.781.781 1.805 1.172 2.828 1.172s2.047-.391 2.828-1.172l32-32c1.562-1.562 1.562-4.094 0-5.656zm-2.828 61.172-26.344-26.344 26.344-26.344 26.344 26.344zm-2.828-41.172-12 12c-1.562 1.562-1.562 4.094 0 5.656l12 12c.781.781 1.805 1.172 2.828 1.172s2.047-.391 2.828-1.172l12-12c1.562-1.562 1.562-4.094 0-5.656l-12-12c-1.562-1.563-4.094-1.563-5.656 0zm9.172 14.828-6.344 6.344-6.344-6.344 6.344-6.344z" fill="url(#SVGID_1_)"/></g></svg>