<?xml version="1.0" standalone="no"?>
<!DOCTYPE svg PUBLIC "-//W3C//DTD SVG 20010904//EN"
 "http://www.w3.org/TR/2001/REC-SVG-20010904/DTD/svg10.dtd">
<svg version="1.0" xmlns="http://www.w3.org/2000/svg"
 width="700.000000pt" height="700.000000pt" viewBox="0 0 700.000000 700.000000"
 preserveAspectRatio="xMidYMid meet">
<metadata>
Created by potrace 1.11, written by Peter Selinger 2001-2013
</metadata>
<g transform="translate(0.000000,700.000000) scale(0.100000,-0.100000)"
fill="#000000" stroke="none">
<path d="M5041 6053 c-69 -17 -105 -37 -158 -86 -120 -110 -155 -282 -86 -428
114 -245 433 -293 613 -92 160 180 112 460 -97 570 -93 49 -178 61 -272 36z
m150 -183 c68 -19 126 -100 128 -178 2 -73 -68 -165 -136 -178 -45 -8 -121 2
-149 21 -103 68 -112 235 -15 304 57 41 105 50 172 31z"/>
<path d="M1841 5999 c-42 -42 -43 -95 -2 -141 25 -28 36 -33 75 -33 64 0 101
37 101 101 0 39 -5 50 -33 75 -46 41 -99 40 -141 -2z"/>
<path d="M3415 5870 c-11 -4 -196 -185 -411 -402 -284 -286 -391 -400 -392
-417 0 -13 5 -36 13 -50 7 -14 186 -198 398 -409 360 -360 386 -384 425 -389
l42 -6 400 401 400 400 0 42 0 43 -387 387 c-214 213 -398 392 -410 399 -25
13 -50 13 -78 1z m346 -524 c164 -165 299 -302 299 -306 0 -4 -569 -577 -605
-609 -2 -2 -142 134 -310 303 l-307 306 304 304 c167 168 307 304 311 303 5
-2 143 -137 308 -301z"/>
<path d="M3250 5249 c-88 -89 -163 -172 -166 -185 -3 -13 -3 -35 0 -48 3 -14
79 -97 168 -185 215 -214 189 -213 396 -8 84 83 160 164 168 179 27 52 12 76
-160 247 -218 216 -190 216 -406 0z"/>
<path d="M1764 5361 c-88 -54 -47 -191 56 -191 108 0 145 146 50 195 -39 20
-69 19 -106 -4z"/>
<path d="M1233 4087 l-683 -683 0 -43 0 -44 684 -683 684 -684 42 0 42 0 684
684 684 684 0 43 0 43 -683 683 -684 683 -43 0 -44 0 -683 -683z m1318 -131
c321 -322 584 -590 584 -596 0 -6 -264 -276 -588 -599 l-587 -587 -588 588
c-323 323 -588 592 -590 596 -3 9 1166 1182 1178 1182 4 0 270 -263 591 -584z"/>
<path d="M1912 4184 c-52 -36 -783 -778 -788 -800 -3 -13 -3 -35 0 -48 8 -31
781 -804 812 -812 13 -3 35 -4 47 0 29 7 798 775 811 809 5 13 6 36 3 49 -6
23 -711 741 -783 797 -32 25 -71 27 -102 5z m358 -519 l305 -305 -308 -308
-307 -307 -307 307 -308 308 305 305 c168 168 307 305 310 305 3 0 142 -137
310 -305z"/>
<path d="M4313 4087 l-683 -683 0 -43 0 -43 684 -684 683 -684 43 0 42 0 684
684 684 684 0 43 0 43 -683 683 -683 683 -44 0 -44 0 -683 -683z m1318 -131
c321 -322 584 -590 584 -596 0 -11 -1164 -1180 -1175 -1180 -11 0 -1175 1170
-1175 1181 0 13 1156 1176 1171 1178 6 0 274 -262 595 -583z"/>
<path d="M4991 4183 c-54 -37 -781 -776 -787 -799 -3 -13 -3 -35 0 -48 8 -31
781 -804 812 -812 13 -3 34 -4 47 0 30 7 806 783 813 813 4 13 4 34 0 46 -5
22 -739 767 -789 802 -28 20 -67 19 -96 -2z"/>
<path d="M3433 2612 c-25 -4 -812 -783 -814 -805 0 -6 -2 -21 -4 -31 -2 -11 1
-29 7 -40 16 -31 759 -775 788 -790 14 -7 32 -12 40 -11 8 1 22 3 32 3 14 2
717 696 782 773 18 21 26 42 26 67 0 35 -20 56 -392 429 -216 216 -404 396
-418 401 -14 4 -35 6 -47 4z m627 -839 c0 -4 -136 -144 -303 -311 l-303 -303
-307 308 -307 308 307 307 307 307 303 -304 c167 -167 303 -307 303 -312z"/>
<path d="M3425 2139 c-31 -9 -312 -284 -335 -328 -26 -50 -8 -78 158 -244 143
-143 163 -159 200 -164 l41 -5 159 158 c157 157 180 184 177 214 -1 8 -3 23
-3 32 -2 18 -316 338 -331 338 -5 0 -15 2 -23 4 -7 2 -26 0 -43 -5z m152 -387
c-38 -41 -120 -122 -124 -122 -2 0 -36 32 -75 70 l-72 70 40 42 c21 22 55 56
74 75 l34 33 73 -72 73 -72 -23 -24z"/>
<path d="M5243 1359 c-105 -31 -92 -183 18 -204 52 -10 119 49 119 104 0 38
-30 82 -65 97 -19 8 -36 14 -37 13 -2 0 -17 -5 -35 -10z"/>
</g>
</svg>
