<svg width="491" height="122" xmlns="http://www.w3.org/2000/svg" xmlns:xlink="http://www.w3.org/1999/xlink" overflow="hidden"><defs><clipPath id="clip0"><rect x="287" y="242" width="491" height="122"/></clipPath><clipPath id="clip1"><rect x="583" y="243" width="57" height="57"/></clipPath><clipPath id="clip2"><rect x="583" y="243" width="57" height="57"/></clipPath><clipPath id="clip3"><rect x="583" y="243" width="57" height="57"/></clipPath><clipPath id="clip4"><rect x="604" y="243" width="56" height="57"/></clipPath><clipPath id="clip5"><rect x="604" y="243" width="56" height="57"/></clipPath><clipPath id="clip6"><rect x="604" y="243" width="56" height="57"/></clipPath><clipPath id="clip7"><rect x="603" y="306" width="56" height="57"/></clipPath><clipPath id="clip8"><rect x="603" y="306" width="56" height="57"/></clipPath><clipPath id="clip9"><rect x="603" y="306" width="56" height="57"/></clipPath><clipPath id="clip10"><rect x="624" y="243" width="57" height="57"/></clipPath><clipPath id="clip11"><rect x="624" y="243" width="57" height="57"/></clipPath><clipPath id="clip12"><rect x="624" y="243" width="57" height="57"/></clipPath><clipPath id="clip13"><rect x="644" y="243" width="57" height="57"/></clipPath><clipPath id="clip14"><rect x="644" y="243" width="57" height="57"/></clipPath><clipPath id="clip15"><rect x="644" y="243" width="57" height="57"/></clipPath><clipPath id="clip16"><rect x="664" y="243" width="57" height="57"/></clipPath><clipPath id="clip17"><rect x="664" y="243" width="57" height="57"/></clipPath><clipPath id="clip18"><rect x="664" y="243" width="57" height="57"/></clipPath></defs><g clip-path="url(#clip0)" transform="translate(-287 -242)"><path d="M0 0 487.456 0.000104987" stroke="#3B3838" stroke-width="4" stroke-miterlimit="8" fill="none" fill-rule="evenodd" transform="matrix(1 0 0 -1 288 272)"/><rect x="315" y="253" width="75" height="38" stroke="#3B3838" stroke-width="4" stroke-miterlimit="8" fill="#767171"/><path d="M487 272C568.807 274.045 545.373 316.68 574.701 330.525 605.161 340.594 729.122 330.367 775 331.469" stroke="#3B3838" stroke-width="4" stroke-miterlimit="8" fill="none" fill-rule="evenodd"/><g clip-path="url(#clip1)"><g clip-path="url(#clip2)"><g clip-path="url(#clip3)"><path d="M616.25 249.531C616.25 252.155 614.123 254.281 611.5 254.281 608.877 254.281 606.75 252.155 606.75 249.531 606.75 246.908 608.877 244.781 611.5 244.781 614.123 244.781 616.25 246.908 616.25 249.531Z" fill="#ED7D31"/><path d="M624.444 273.994 621.119 259.862C621 259.388 620.763 258.913 620.406 258.556 618.981 257.369 617.319 256.538 615.419 255.944 614.112 255.706 612.806 255.469 611.5 255.469 610.194 255.469 608.888 255.706 607.581 256.063 605.681 256.538 604.019 257.487 602.594 258.675 602.237 259.031 602 259.506 601.881 259.981L598.556 274.112C598.556 274.231 598.438 274.469 598.438 274.706 598.438 276.013 599.506 277.081 600.813 277.081 601.881 277.081 602.831 276.25 603.069 275.3L605.563 264.969 605.563 298.219 610.313 298.219 610.313 276.844 612.688 276.844 612.688 298.219 617.438 298.219 617.438 264.85 619.931 275.181C620.169 276.131 621.119 276.962 622.188 276.962 623.494 276.962 624.563 275.894 624.563 274.587 624.563 274.35 624.444 274.112 624.444 273.994Z" fill="#ED7D31"/></g></g></g><g clip-path="url(#clip4)"><g clip-path="url(#clip5)"><g clip-path="url(#clip6)"><path d="M32.6667 6.41667C32.6667 8.99399 30.5773 11.0833 28 11.0833 25.4227 11.0833 23.3333 8.99399 23.3333 6.41667 23.3333 3.83934 25.4227 1.75 28 1.75 30.5773 1.75 32.6667 3.83934 32.6667 6.41667Z" fill="#ED7D31" transform="matrix(1 0 0 1.01786 604 243)"/><path d="M40.7167 30.45 37.45 16.5667C37.3333 16.1 37.1 15.6333 36.75 15.2833 35.35 14.1167 33.7167 13.3 31.85 12.7167 30.5667 12.4833 29.2833 12.25 28 12.25 26.7167 12.25 25.4333 12.4833 24.15 12.8333 22.2833 13.3 20.65 14.2333 19.25 15.4 18.9 15.75 18.6667 16.2167 18.55 16.6833L15.2833 30.5667C15.2833 30.6833 15.1667 30.9167 15.1667 31.15 15.1667 32.4333 16.2167 33.4833 17.5 33.4833 18.55 33.4833 19.4833 32.6667 19.7167 31.7333L22.1667 21.5833 22.1667 54.25 26.8333 54.25 26.8333 33.25 29.1667 33.25 29.1667 54.25 33.8333 54.25 33.8333 21.4667 36.2833 31.6167C36.5167 32.55 37.45 33.3667 38.5 33.3667 39.7833 33.3667 40.8333 32.3167 40.8333 31.0333 40.8333 30.8 40.7167 30.5667 40.7167 30.45Z" fill="#ED7D31" transform="matrix(1 0 0 1.01786 604 243)"/></g></g></g><g clip-path="url(#clip7)"><g clip-path="url(#clip8)"><g clip-path="url(#clip9)"><path d="M32.6667 6.41667C32.6667 8.99399 30.5773 11.0833 28 11.0833 25.4227 11.0833 23.3333 8.99399 23.3333 6.41667 23.3333 3.83934 25.4227 1.75 28 1.75 30.5773 1.75 32.6667 3.83934 32.6667 6.41667Z" fill="#ED7D31" transform="matrix(1 0 0 1.01786 603 306)"/><path d="M40.7167 30.45 37.45 16.5667C37.3333 16.1 37.1 15.6333 36.75 15.2833 35.35 14.1167 33.7167 13.3 31.85 12.7167 30.5667 12.4833 29.2833 12.25 28 12.25 26.7167 12.25 25.4333 12.4833 24.15 12.8333 22.2833 13.3 20.65 14.2333 19.25 15.4 18.9 15.75 18.6667 16.2167 18.55 16.6833L15.2833 30.5667C15.2833 30.6833 15.1667 30.9167 15.1667 31.15 15.1667 32.4333 16.2167 33.4833 17.5 33.4833 18.55 33.4833 19.4833 32.6667 19.7167 31.7333L22.1667 21.5833 22.1667 54.25 26.8333 54.25 26.8333 33.25 29.1667 33.25 29.1667 54.25 33.8333 54.25 33.8333 21.4667 36.2833 31.6167C36.5167 32.55 37.45 33.3667 38.5 33.3667 39.7833 33.3667 40.8333 32.3167 40.8333 31.0333 40.8333 30.8 40.7167 30.5667 40.7167 30.45Z" fill="#ED7D31" transform="matrix(1 0 0 1.01786 603 306)"/></g></g></g><path d="M403.5 260.25 426.5 260.25 426.5 247.5 449.5 273 426.5 298.5 426.5 285.75 403.5 285.75Z" stroke="#C00000" stroke-width="1.33333" stroke-miterlimit="8" fill="#C00000" fill-rule="evenodd"/><g clip-path="url(#clip10)"><g clip-path="url(#clip11)"><g clip-path="url(#clip12)"><path d="M657.25 249.531C657.25 252.155 655.123 254.281 652.5 254.281 649.877 254.281 647.75 252.155 647.75 249.531 647.75 246.908 649.877 244.781 652.5 244.781 655.123 244.781 657.25 246.908 657.25 249.531Z" fill="#ED7D31"/><path d="M665.444 273.994 662.119 259.862C662 259.388 661.763 258.913 661.406 258.556 659.981 257.369 658.319 256.538 656.419 255.944 655.112 255.706 653.806 255.469 652.5 255.469 651.194 255.469 649.888 255.706 648.581 256.063 646.681 256.538 645.019 257.487 643.594 258.675 643.237 259.031 643 259.506 642.881 259.981L639.556 274.112C639.556 274.231 639.438 274.469 639.438 274.706 639.438 276.013 640.506 277.081 641.813 277.081 642.881 277.081 643.831 276.25 644.069 275.3L646.563 264.969 646.563 298.219 651.313 298.219 651.313 276.844 653.688 276.844 653.688 298.219 658.438 298.219 658.438 264.85 660.931 275.181C661.169 276.131 662.119 276.962 663.188 276.962 664.494 276.962 665.563 275.894 665.563 274.587 665.563 274.35 665.444 274.112 665.444 273.994Z" fill="#ED7D31"/></g></g></g><g clip-path="url(#clip13)"><g clip-path="url(#clip14)"><g clip-path="url(#clip15)"><path d="M677.25 249.531C677.25 252.155 675.123 254.281 672.5 254.281 669.877 254.281 667.75 252.155 667.75 249.531 667.75 246.908 669.877 244.781 672.5 244.781 675.123 244.781 677.25 246.908 677.25 249.531Z" fill="#ED7D31"/><path d="M685.444 273.994 682.119 259.862C682 259.388 681.763 258.913 681.406 258.556 679.981 257.369 678.319 256.538 676.419 255.944 675.112 255.706 673.806 255.469 672.5 255.469 671.194 255.469 669.888 255.706 668.581 256.063 666.681 256.538 665.019 257.487 663.594 258.675 663.237 259.031 663 259.506 662.881 259.981L659.556 274.112C659.556 274.231 659.438 274.469 659.438 274.706 659.438 276.013 660.506 277.081 661.813 277.081 662.881 277.081 663.831 276.25 664.069 275.3L666.563 264.969 666.563 298.219 671.313 298.219 671.313 276.844 673.688 276.844 673.688 298.219 678.438 298.219 678.438 264.85 680.931 275.181C681.169 276.131 682.119 276.962 683.188 276.962 684.494 276.962 685.563 275.894 685.563 274.587 685.563 274.35 685.444 274.112 685.444 273.994Z" fill="#ED7D31"/></g></g></g><g clip-path="url(#clip16)"><g clip-path="url(#clip17)"><g clip-path="url(#clip18)"><path d="M697.25 249.531C697.25 252.155 695.123 254.281 692.5 254.281 689.877 254.281 687.75 252.155 687.75 249.531 687.75 246.908 689.877 244.781 692.5 244.781 695.123 244.781 697.25 246.908 697.25 249.531Z" fill="#ED7D31"/><path d="M705.444 273.994 702.119 259.862C702 259.388 701.763 258.913 701.406 258.556 699.981 257.369 698.319 256.538 696.419 255.944 695.112 255.706 693.806 255.469 692.5 255.469 691.194 255.469 689.888 255.706 688.581 256.063 686.681 256.538 685.019 257.487 683.594 258.675 683.237 259.031 683 259.506 682.881 259.981L679.556 274.112C679.556 274.231 679.438 274.469 679.438 274.706 679.438 276.013 680.506 277.081 681.813 277.081 682.881 277.081 683.831 276.25 684.069 275.3L686.563 264.969 686.563 298.219 691.313 298.219 691.313 276.844 693.688 276.844 693.688 298.219 698.438 298.219 698.438 264.85 700.931 275.181C701.169 276.131 702.119 276.962 703.188 276.962 704.494 276.962 705.563 275.894 705.563 274.587 705.563 274.35 705.444 274.112 705.444 273.994Z" fill="#ED7D31"/></g></g></g></g></svg>