<svg version="1.1" viewBox="0.0 0.0 613.0 400.0" fill="none" stroke="none" stroke-linecap="square" stroke-miterlimit="10" width="613" height="400" xmlns:xlink="http://www.w3.org/1999/xlink" xmlns="http://www.w3.org/2000/svg"><path fill="#ffffff" d="M0 0L613.0 0L613.0 400.0L0 400.0L0 0Z" fill-rule="nonzero"/><path fill="#4285f4" d="M175.83333 68.333336C223.25725 68.333336 268.1004 89.92866 297.66873 127.00617C327.23706 164.0837 338.3124 212.60794 327.7596 258.84283L175.83333 224.16667Z" fill-rule="nonzero"/><path fill="#fbbc04" d="M53.99793 321.32715C16.675985 274.52692 9.46018 210.48488 35.43235 156.55312C61.404522 102.621346 115.97359 68.333336 175.83333 68.333336L175.83333 224.16667Z" fill-rule="nonzero"/><path fill="#ea4335" d="M327.7596 258.84283C314.43954 317.20178 268.86844 362.7729 210.5095 376.09293C152.15057 389.413 91.31987 368.12738 53.99793 321.32715L175.83333 224.16667Z" fill-rule="nonzero"/><path fill="#000000" d="M209.65991 174.2607L209.65991 170.83882L203.44116 170.83882L203.44116 169.21382L209.97241 159.9482L211.40991 159.9482L211.40991 169.21382L213.34741 169.21382L213.34741 170.83882L211.40991 170.83882L211.40991 174.2607L209.65991 174.2607ZM209.65991 169.21382L209.65991 162.7607L205.17554 169.21382L209.65991 169.21382ZM224.86304 178.46382Q223.40991 176.6357 222.40991 174.18257Q221.40991 171.71382 221.40991 169.0732Q221.40991 166.74507 222.15991 164.62007Q223.03491 162.15132 224.86304 159.6982L226.12866 159.6982Q224.94116 161.72945 224.56616 162.60445Q223.97241 163.9482 223.62866 165.41695Q223.20679 167.24507 223.20679 169.08882Q223.20679 173.77632 226.12866 178.46382L224.86304 178.46382ZM237.25366 172.5732L237.25366 174.2607L227.80054 174.2607Q227.78491 173.62007 228.00366 173.04195Q228.36304 172.0732 229.15991 171.1357Q229.95679 170.1982 231.45679 168.96382Q233.80054 167.05757 234.61304 165.9482Q235.44116 164.8232 235.44116 163.8232Q235.44116 162.77632 234.69116 162.05757Q233.94116 161.33882 232.73804 161.33882Q231.47241 161.33882 230.70679 162.10445Q229.94116 162.87007 229.94116 164.21382L228.12866 164.02632Q228.31616 162.0107 229.51929 160.9482Q230.73804 159.8857 232.78491 159.8857Q234.83179 159.8857 236.03491 161.02632Q237.23804 162.16695 237.23804 163.85445Q237.23804 164.71382 236.87866 165.55757Q236.53491 166.3857 235.72241 167.30757Q234.90991 168.21382 233.01929 169.8232Q231.42554 171.15132 230.97241 171.62007Q230.53491 172.08882 230.23804 172.5732L237.25366 172.5732ZM241.72241 166.49507Q240.62866 166.08882 240.09741 165.35445Q239.58179 164.60445 239.58179 163.5732Q239.58179 162.0107 240.70679 160.9482Q241.83179 159.8857 243.69116 159.8857Q245.56616 159.8857 246.70679 160.97945Q247.84741 162.05757 247.84741 163.62007Q247.84741 164.62007 247.31616 165.35445Q246.80054 166.08882 245.73804 166.49507Q247.06616 166.93257 247.75366 167.8857Q248.44116 168.83882 248.44116 170.16695Q248.44116 172.0107 247.12866 173.2607Q245.83179 174.5107 243.72241 174.5107Q241.59741 174.5107 240.30054 173.2607Q239.00366 171.99507 239.00366 170.12007Q239.00366 168.72945 239.70679 167.79195Q240.42554 166.83882 241.72241 166.49507ZM241.37866 163.5107Q241.37866 164.52632 242.03491 165.18257Q242.69116 165.8232 243.72241 165.8232Q244.73804 165.8232 245.39429 165.18257Q246.05054 164.54195 246.05054 163.62007Q246.05054 162.65132 245.37866 161.99507Q244.70679 161.3232 243.70679 161.3232Q242.70679 161.3232 242.03491 161.97945Q241.37866 162.62007 241.37866 163.5107ZM240.81616 170.1357Q240.81616 170.8857 241.15991 171.58882Q241.51929 172.29195 242.22241 172.68257Q242.92554 173.05757 243.73804 173.05757Q245.00366 173.05757 245.81616 172.24507Q246.64429 171.43257 246.64429 170.18257Q246.64429 168.91695 245.80054 168.08882Q244.95679 167.2607 243.67554 167.2607Q242.44116 167.2607 241.62866 168.08882Q240.81616 168.90132 240.81616 170.1357ZM250.97241 174.2607L250.97241 172.2607L252.97241 172.2607L252.97241 174.2607Q252.97241 175.37007 252.58179 176.04195Q252.19116 176.72945 251.34741 177.08882L250.84741 176.33882Q251.40991 176.10445 251.67554 175.62007Q251.94116 175.15132 251.97241 174.2607L250.97241 174.2607ZM265.1443 163.4482L263.3943 163.58882Q263.1599 162.55757 262.73804 162.08882Q262.0193 161.3232 260.9724 161.3232Q260.12866 161.3232 259.50366 161.79195Q258.67554 162.40132 258.19116 163.5732Q257.7068 164.72945 257.69116 166.87007Q258.3318 165.91695 259.23804 165.4482Q260.1599 164.97945 261.17554 164.97945Q262.92554 164.97945 264.1599 166.27632Q265.3943 167.55757 265.3943 169.60445Q265.3943 170.96382 264.81616 172.12007Q264.23804 173.27632 263.2224 173.90132Q262.2068 174.5107 260.9099 174.5107Q258.7224 174.5107 257.3318 172.90132Q255.94116 171.27632 255.94116 167.55757Q255.94116 163.41695 257.4724 161.52632Q258.81616 159.8857 261.0818 159.8857Q262.7693 159.8857 263.8474 160.83882Q264.92554 161.77632 265.1443 163.4482ZM257.9724 169.62007Q257.9724 170.52632 258.3474 171.35445Q258.73804 172.18257 259.42554 172.62007Q260.12866 173.05757 260.87866 173.05757Q262.00366 173.05757 262.80054 172.16695Q263.5974 171.2607 263.5974 169.71382Q263.5974 168.22945 262.80054 167.3857Q262.0193 166.52632 260.81616 166.52632Q259.62866 166.52632 258.80054 167.3857Q257.9724 168.22945 257.9724 169.62007ZM267.3474 163.3857Q267.3474 161.85445 268.11304 160.77632Q268.8943 159.6982 270.36304 159.6982Q271.7068 159.6982 272.5818 160.66695Q273.4724 161.62007 273.4724 163.49507Q273.4724 165.30757 272.5818 166.29195Q271.69116 167.2607 270.37866 167.2607Q269.0818 167.2607 268.2068 166.30757Q267.3474 165.33882 267.3474 163.3857ZM270.4099 160.91695Q269.75366 160.91695 269.31616 161.47945Q268.8943 162.04195 268.8943 163.55757Q268.8943 164.93257 269.3318 165.49507Q269.7693 166.05757 270.4099 166.05757Q271.0818 166.05757 271.50366 165.49507Q271.94116 164.91695 271.94116 163.41695Q271.94116 162.02632 271.50366 161.47945Q271.06616 160.91695 270.4099 160.91695ZM270.42554 174.79195L278.25366 159.6982L279.67554 159.6982L271.87866 174.79195L270.42554 174.79195ZM276.61304 170.90132Q276.61304 169.35445 277.37866 168.29195Q278.1599 167.21382 279.62866 167.21382Q280.9724 167.21382 281.8474 168.18257Q282.73804 169.1357 282.73804 171.0107Q282.73804 172.8232 281.8474 173.80757Q280.9568 174.79195 279.6443 174.79195Q278.3474 174.79195 277.4724 173.8232Q276.61304 172.83882 276.61304 170.90132ZM279.67554 168.43257Q279.0193 168.43257 278.5818 168.99507Q278.1443 169.55757 278.1443 171.0732Q278.1443 172.4482 278.5818 173.0107Q279.0193 173.5732 279.67554 173.5732Q280.3474 173.5732 280.7693 173.0107Q281.2068 172.4482 281.2068 170.93257Q281.2068 169.55757 280.7693 168.99507Q280.3318 168.43257 279.67554 168.43257ZM286.6599 178.46382L285.4099 178.46382Q288.31616 173.77632 288.31616 169.08882Q288.31616 167.24507 287.9099 165.4482Q287.56616 163.97945 286.9724 162.6357Q286.5974 161.74507 285.4099 159.6982L286.6599 159.6982Q288.50366 162.15132 289.37866 164.62007Q290.12866 166.74507 290.12866 169.0732Q290.12866 171.71382 289.11304 174.18257Q288.11304 176.6357 286.6599 178.46382Z" fill-rule="nonzero"/><path fill="#000000" d="M156.41963 331.50803L158.26338 331.35178Q158.4665 332.69553 159.2165 333.38303Q159.9665 334.0549 161.029 334.0549Q162.29463 334.0549 163.16963 333.10178Q164.04463 332.14865 164.04463 330.5549Q164.04463 329.0549 163.20088 328.19553Q162.35713 327.32053 160.99776 327.32053Q160.13838 327.32053 159.45088 327.71115Q158.779 328.08615 158.38838 328.71115L156.73213 328.4924L158.12276 321.13303L165.24776 321.13303L165.24776 322.82053L159.529 322.82053L158.76338 326.66428Q160.04463 325.75803 161.4665 325.75803Q163.3415 325.75803 164.62276 327.07053Q165.91963 328.3674 165.91963 330.39865Q165.91963 332.35178 164.779 333.75803Q163.404 335.50803 161.029 335.50803Q159.07588 335.50803 157.82588 334.41428Q156.5915 333.32053 156.41963 331.50803ZM177.26338 339.46115Q175.81026 337.63303 174.81026 335.1799Q173.81026 332.71115 173.81026 330.07053Q173.81026 327.7424 174.56026 325.6174Q175.43526 323.14865 177.26338 320.69553L178.529 320.69553Q177.3415 322.72678 176.9665 323.60178Q176.37276 324.94553 176.029 326.41428Q175.60713 328.2424 175.60713 330.08615Q175.60713 334.77365 178.529 339.46115L177.26338 339.46115ZM180.43526 331.47678L182.18526 331.2424Q182.49776 332.7424 183.2165 333.39865Q183.95088 334.0549 184.99776 334.0549Q186.23213 334.0549 187.07588 333.19553Q187.93526 332.33615 187.93526 331.07053Q187.93526 329.85178 187.13838 329.07053Q186.35713 328.28928 185.13838 328.28928Q184.63838 328.28928 183.904 328.47678L184.0915 326.9299Q184.26338 326.96115 184.37276 326.96115Q185.49776 326.96115 186.38838 326.38303Q187.29463 325.78928 187.29463 324.57053Q187.29463 323.60178 186.63838 322.96115Q185.98213 322.32053 184.95088 322.32053Q183.93526 322.32053 183.24776 322.97678Q182.56026 323.6174 182.37276 324.89865L180.60713 324.58615Q180.93526 322.82053 182.07588 321.85178Q183.2165 320.88303 184.91963 320.88303Q186.0915 320.88303 187.07588 321.38303Q188.06026 321.88303 188.57588 322.75803Q189.10713 323.63303 189.10713 324.60178Q189.10713 325.52365 188.60713 326.28928Q188.10713 327.0549 187.13838 327.50803Q188.404 327.78928 189.10713 328.72678Q189.81026 329.64865 189.81026 331.02365Q189.81026 332.89865 188.43526 334.21115Q187.07588 335.50803 184.98213 335.50803Q183.0915 335.50803 181.8415 334.38303Q180.60713 333.25803 180.43526 331.47678ZM191.41963 331.50803L193.26338 331.35178Q193.4665 332.69553 194.2165 333.38303Q194.9665 334.0549 196.029 334.0549Q197.29463 334.0549 198.16963 333.10178Q199.04463 332.14865 199.04463 330.5549Q199.04463 329.0549 198.20088 328.19553Q197.35713 327.32053 195.99776 327.32053Q195.13838 327.32053 194.45088 327.71115Q193.779 328.08615 193.38838 328.71115L191.73213 328.4924L193.12276 321.13303L200.24776 321.13303L200.24776 322.82053L194.529 322.82053L193.76338 326.66428Q195.04463 325.75803 196.4665 325.75803Q198.3415 325.75803 199.62276 327.07053Q200.91963 328.3674 200.91963 330.39865Q200.91963 332.35178 199.779 333.75803Q198.404 335.50803 196.029 335.50803Q194.07588 335.50803 192.82588 334.41428Q191.5915 333.32053 191.41963 331.50803ZM203.37276 335.25803L203.37276 333.25803L205.37276 333.25803L205.37276 335.25803Q205.37276 336.3674 204.98213 337.03928Q204.5915 337.72678 203.74776 338.08615L203.24776 337.33615Q203.81026 337.10178 204.07588 336.6174Q204.3415 336.14865 204.37276 335.25803L203.37276 335.25803ZM208.54463 322.82053L208.54463 321.13303L217.81026 321.13303L217.81026 322.4924Q216.43526 323.94553 215.0915 326.3674Q213.74776 328.77365 213.029 331.32053Q212.49776 333.1174 212.3415 335.25803L210.54463 335.25803Q210.57588 333.57053 211.20088 331.1799Q211.8415 328.78928 213.029 326.57053Q214.2165 324.33615 215.54463 322.82053L208.54463 322.82053ZM219.74776 324.38303Q219.74776 322.85178 220.51338 321.77365Q221.29463 320.69553 222.76338 320.69553Q224.10713 320.69553 224.98213 321.66428Q225.87276 322.6174 225.87276 324.4924Q225.87276 326.3049 224.98213 327.28928Q224.0915 328.25803 222.779 328.25803Q221.48213 328.25803 220.60713 327.3049Q219.74776 326.33615 219.74776 324.38303ZM222.81026 321.91428Q222.154 321.91428 221.7165 322.47678Q221.29463 323.03928 221.29463 324.5549Q221.29463 325.9299 221.73213 326.4924Q222.16963 327.0549 222.81026 327.0549Q223.48213 327.0549 223.904 326.4924Q224.3415 325.91428 224.3415 324.41428Q224.3415 323.02365 223.904 322.47678Q223.4665 321.91428 222.81026 321.91428ZM222.82588 335.78928L230.654 320.69553L232.07588 320.69553L224.279 335.78928L222.82588 335.78928ZM229.01338 331.89865Q229.01338 330.35178 229.779 329.28928Q230.56026 328.21115 232.029 328.21115Q233.37276 328.21115 234.24776 329.1799Q235.13838 330.13303 235.13838 332.00803Q235.13838 333.82053 234.24776 334.8049Q233.35713 335.78928 232.04463 335.78928Q230.74776 335.78928 229.87276 334.82053Q229.01338 333.83615 229.01338 331.89865ZM232.07588 329.4299Q231.41963 329.4299 230.98213 329.9924Q230.54463 330.5549 230.54463 332.07053Q230.54463 333.44553 230.98213 334.00803Q231.41963 334.57053 232.07588 334.57053Q232.74776 334.57053 233.16963 334.00803Q233.60713 333.44553 233.60713 331.9299Q233.60713 330.5549 233.16963 329.9924Q232.73213 329.4299 232.07588 329.4299ZM239.06026 339.46115L237.81026 339.46115Q240.7165 334.77365 240.7165 330.08615Q240.7165 328.2424 240.31026 326.44553Q239.9665 324.97678 239.37276 323.63303Q238.99776 322.7424 237.81026 320.69553L239.06026 320.69553Q240.904 323.14865 241.779 325.6174Q242.529 327.7424 242.529 330.07053Q242.529 332.71115 241.51338 335.1799Q240.51338 337.63303 239.06026 339.46115Z" fill-rule="nonzero"/><path fill="#000000" d="M51.412598 188.28928L53.256348 188.13303Q53.459473 189.47678 54.209473 190.16428Q54.959473 190.83615 56.021973 190.83615Q57.287598 190.83615 58.162598 189.88303Q59.037598 188.9299 59.037598 187.33615Q59.037598 185.83615 58.193848 184.97678Q57.350098 184.10178 55.990723 184.10178Q55.131348 184.10178 54.443848 184.4924Q53.771973 184.8674 53.381348 185.4924L51.725098 185.27365L53.115723 177.91428L60.240723 177.91428L60.240723 179.60178L54.521973 179.60178L53.756348 183.44553Q55.037598 182.53928 56.459473 182.53928Q58.334473 182.53928 59.615723 183.85178Q60.912598 185.14865 60.912598 187.1799Q60.912598 189.13303 59.771973 190.53928Q58.396973 192.28928 56.021973 192.28928Q54.068848 192.28928 52.818848 191.19553Q51.584473 190.10178 51.412598 188.28928ZM72.25635 196.2424Q70.80322 194.41428 69.80322 191.96115Q68.80322 189.4924 68.80322 186.85178Q68.80322 184.52365 69.55322 182.39865Q70.42822 179.9299 72.25635 177.47678L73.52197 177.47678Q72.33447 179.50803 71.95947 180.38303Q71.36572 181.72678 71.02197 183.19553Q70.6001 185.02365 70.6001 186.8674Q70.6001 191.5549 73.52197 196.2424L72.25635 196.2424ZM75.42822 188.25803L77.17822 188.02365Q77.49072 189.52365 78.20947 190.1799Q78.94385 190.83615 79.99072 190.83615Q81.2251 190.83615 82.06885 189.97678Q82.92822 189.1174 82.92822 187.85178Q82.92822 186.63303 82.13135 185.85178Q81.3501 185.07053 80.13135 185.07053Q79.63135 185.07053 78.89697 185.25803L79.08447 183.71115Q79.25635 183.7424 79.36572 183.7424Q80.49072 183.7424 81.38135 183.16428Q82.2876 182.57053 82.2876 181.35178Q82.2876 180.38303 81.63135 179.7424Q80.9751 179.10178 79.94385 179.10178Q78.92822 179.10178 78.24072 179.75803Q77.55322 180.39865 77.36572 181.6799L75.6001 181.3674Q75.92822 179.60178 77.06885 178.63303Q78.20947 177.66428 79.9126 177.66428Q81.08447 177.66428 82.06885 178.16428Q83.05322 178.66428 83.56885 179.53928Q84.1001 180.41428 84.1001 181.38303Q84.1001 182.3049 83.6001 183.07053Q83.1001 183.83615 82.13135 184.28928Q83.39697 184.57053 84.1001 185.50803Q84.80322 186.4299 84.80322 187.8049Q84.80322 189.6799 83.42822 190.9924Q82.06885 192.28928 79.9751 192.28928Q78.08447 192.28928 76.83447 191.16428Q75.6001 190.03928 75.42822 188.25803ZM86.4126 188.28928L88.25635 188.13303Q88.45947 189.47678 89.20947 190.16428Q89.95947 190.83615 91.02197 190.83615Q92.2876 190.83615 93.1626 189.88303Q94.0376 188.9299 94.0376 187.33615Q94.0376 185.83615 93.19385 184.97678Q92.3501 184.10178 90.99072 184.10178Q90.13135 184.10178 89.44385 184.4924Q88.77197 184.8674 88.38135 185.4924L86.7251 185.27365L88.11572 177.91428L95.24072 177.91428L95.24072 179.60178L89.52197 179.60178L88.75635 183.44553Q90.0376 182.53928 91.45947 182.53928Q93.33447 182.53928 94.61572 183.85178Q95.9126 185.14865 95.9126 187.1799Q95.9126 189.13303 94.77197 190.53928Q93.39697 192.28928 91.02197 192.28928Q89.06885 192.28928 87.81885 191.19553Q86.58447 190.10178 86.4126 188.28928ZM98.36572 192.03928L98.36572 190.03928L100.36572 190.03928L100.36572 192.03928Q100.36572 193.14865 99.9751 193.82053Q99.58447 194.50803 98.74072 194.8674L98.24072 194.1174Q98.80322 193.88303 99.06885 193.39865Q99.33447 192.9299 99.36572 192.03928L98.36572 192.03928ZM103.5376 179.60178L103.5376 177.91428L112.80322 177.91428L112.80322 179.27365Q111.42822 180.72678 110.08447 183.14865Q108.74072 185.5549 108.02197 188.10178Q107.49072 189.89865 107.33447 192.03928L105.5376 192.03928Q105.56885 190.35178 106.19385 187.96115Q106.83447 185.57053 108.02197 183.35178Q109.20947 181.1174 110.5376 179.60178L103.5376 179.60178ZM114.74072 181.16428Q114.74072 179.63303 115.50635 178.5549Q116.2876 177.47678 117.75635 177.47678Q119.1001 177.47678 119.9751 178.44553Q120.86572 179.39865 120.86572 181.27365Q120.86572 183.08615 119.9751 184.07053Q119.08447 185.03928 117.77197 185.03928Q116.4751 185.03928 115.6001 184.08615Q114.74072 183.1174 114.74072 181.16428ZM117.80322 178.69553Q117.14697 178.69553 116.70947 179.25803Q116.2876 179.82053 116.2876 181.33615Q116.2876 182.71115 116.7251 183.27365Q117.1626 183.83615 117.80322 183.83615Q118.4751 183.83615 118.89697 183.27365Q119.33447 182.69553 119.33447 181.19553Q119.33447 179.8049 118.89697 179.25803Q118.45947 178.69553 117.80322 178.69553ZM117.81885 192.57053L125.64697 177.47678L127.06885 177.47678L119.27197 192.57053L117.81885 192.57053ZM124.00635 188.6799Q124.00635 187.13303 124.77197 186.07053Q125.55322 184.9924 127.02197 184.9924Q128.36572 184.9924 129.24072 185.96115Q130.13135 186.91428 130.13135 188.78928Q130.13135 190.60178 129.24072 191.58615Q128.3501 192.57053 127.0376 192.57053Q125.74072 192.57053 124.86572 191.60178Q124.00635 190.6174 124.00635 188.6799ZM127.06885 186.21115Q126.4126 186.21115 125.9751 186.77365Q125.5376 187.33615 125.5376 188.85178Q125.5376 190.22678 125.9751 190.78928Q126.4126 191.35178 127.06885 191.35178Q127.74072 191.35178 128.1626 190.78928Q128.6001 190.22678 128.6001 188.71115Q128.6001 187.33615 128.1626 186.77365Q127.7251 186.21115 127.06885 186.21115ZM134.05322 196.2424L132.80322 196.2424Q135.70947 191.5549 135.70947 186.8674Q135.70947 185.02365 135.30322 183.22678Q134.95947 181.75803 134.36572 180.41428Q133.99072 179.52365 132.80322 177.47678L134.05322 177.47678Q135.89697 179.9299 136.77197 182.39865Q137.52197 184.52365 137.52197 186.85178Q137.52197 189.4924 136.50635 191.96115Q135.50635 194.41428 134.05322 196.2424Z" fill-rule="nonzero"/><path fill="#4285f4" d="M364.44446 82.333336C364.44446 85.64704 361.75815 88.333336 358.44446 88.333336C355.13074 88.333336 352.44446 85.64704 352.44446 82.333336C352.44446 79.01962 355.13074 76.333336 358.44446 76.333336C361.75815 76.333336 364.44446 79.01962 364.44446 82.333336Z" fill-rule="nonzero"/><path fill="#1a1a1a" d="M374.33508 90.333336L374.33508 73.145836L381.94446 73.145836Q384.24133 73.145836 385.42883 73.614586Q386.63196 74.083336 387.3507 75.25521Q388.06946 76.427086 388.06946 77.833336Q388.06946 79.66146 386.88196 80.927086Q385.69446 82.177086 383.2257 82.520836Q384.13196 82.94271 384.6007 83.364586Q385.6007 84.28646 386.49133 85.66146L389.4757 90.333336L386.61633 90.333336L384.33508 86.75521Q383.3507 85.208336 382.69446 84.395836Q382.05383 83.56771 381.5382 83.239586Q381.0382 82.91146 380.50696 82.78646Q380.11633 82.708336 379.24133 82.708336L376.6007 82.708336L376.6007 90.333336L374.33508 90.333336ZM376.6007 80.739586L381.49133 80.739586Q383.05383 80.739586 383.92883 80.41146Q384.80383 80.083336 385.25696 79.38021Q385.7257 78.677086 385.7257 77.833336Q385.7257 76.614586 384.83508 75.833336Q383.96008 75.052086 382.0382 75.052086L376.6007 75.052086L376.6007 80.739586ZM399.55383 86.31771L401.7257 86.59896Q401.21008 88.50521 399.81946 89.56771Q398.42883 90.614586 396.25696 90.614586Q393.52258 90.614586 391.9132 88.94271Q390.31946 87.25521 390.31946 84.208336Q390.31946 81.06771 391.92883 79.333336Q393.55383 77.59896 396.13196 77.59896Q398.63196 77.59896 400.21008 79.302086Q401.80383 81.00521 401.80383 84.083336Q401.80383 84.270836 401.7882 84.645836L392.50696 84.645836Q392.61633 86.69271 393.6632 87.78646Q394.71008 88.88021 396.27258 88.88021Q397.42883 88.88021 398.24133 88.270836Q399.06946 87.66146 399.55383 86.31771ZM392.61633 82.91146L399.56946 82.91146Q399.42883 81.34896 398.77258 80.552086Q397.77258 79.333336 396.1632 79.333336Q394.71008 79.333336 393.71008 80.31771Q392.7257 81.28646 392.61633 82.91146ZM395.05383 76.333336L396.6007 73.052086L399.36633 73.052086L396.7882 76.333336L395.05383 76.333336ZM404.5382 90.333336L404.5382 79.520836L402.6632 79.520836L402.6632 77.88021L404.5382 77.88021L404.5382 76.56771Q404.5382 75.302086 404.75696 74.69271Q405.05383 73.88021 405.81946 73.38021Q406.6007 72.864586 407.9757 72.864586Q408.86633 72.864586 409.94446 73.06771L409.63196 74.91146Q408.9757 74.78646 408.38196 74.78646Q407.42883 74.78646 407.02258 75.208336Q406.63196 75.614586 406.63196 76.739586L406.63196 77.88021L409.05383 77.88021L409.05383 79.520836L406.63196 79.520836L406.63196 90.333336L404.5382 90.333336ZM410.9757 90.333336L410.9757 73.145836L413.08508 73.145836L413.08508 90.333336L410.9757 90.333336ZM424.55383 86.31771L426.7257 86.59896Q426.21008 88.50521 424.81946 89.56771Q423.42883 90.614586 421.25696 90.614586Q418.52258 90.614586 416.9132 88.94271Q415.31946 87.25521 415.31946 84.208336Q415.31946 81.06771 416.92883 79.333336Q418.55383 77.59896 421.13196 77.59896Q423.63196 77.59896 425.21008 79.302086Q426.80383 81.00521 426.80383 84.083336Q426.80383 84.270836 426.7882 84.645836L417.50696 84.645836Q417.61633 86.69271 418.6632 87.78646Q419.71008 88.88021 421.27258 88.88021Q422.42883 88.88021 423.24133 88.270836Q424.06946 87.66146 424.55383 86.31771ZM417.61633 82.91146L424.56946 82.91146Q424.42883 81.34896 423.77258 80.552086Q422.77258 79.333336 421.1632 79.333336Q419.71008 79.333336 418.71008 80.31771Q417.7257 81.28646 417.61633 82.91146ZM427.61633 90.333336L432.1632 83.864586L427.96008 77.88021L430.6007 77.88021L432.50696 80.802086Q433.05383 81.63021 433.38196 82.19271Q433.89758 81.427086 434.31946 80.833336L436.42883 77.88021L438.94446 77.88021L434.64758 83.739586L439.27258 90.333336L436.67883 90.333336L434.13196 86.458336L433.44446 85.427086L430.17883 90.333336L427.61633 90.333336ZM441.0382 75.583336L441.0382 73.145836L443.14758 73.145836L443.14758 75.583336L441.0382 75.583336ZM441.0382 90.333336L441.0382 77.88021L443.14758 77.88021L443.14758 90.333336L441.0382 90.333336ZM445.24133 84.114586Q445.24133 80.645836 447.1632 78.989586Q448.77258 77.59896 451.08508 77.59896Q453.64758 77.59896 455.27258 79.28646Q456.89758 80.97396 456.89758 83.927086Q456.89758 86.333336 456.17883 87.708336Q455.46008 89.083336 454.08508 89.84896Q452.71008 90.614586 451.08508 90.614586Q448.46008 90.614586 446.8507 88.94271Q445.24133 87.25521 445.24133 84.114586ZM447.4132 84.114586Q447.4132 86.50521 448.44446 87.69271Q449.49133 88.88021 451.08508 88.88021Q452.64758 88.88021 453.69446 87.69271Q454.74133 86.489586 454.74133 84.03646Q454.74133 81.72396 453.67883 80.53646Q452.63196 79.34896 451.08508 79.34896Q449.49133 79.34896 448.44446 80.53646Q447.4132 81.72396 447.4132 84.114586ZM459.02258 90.333336L459.02258 77.88021L460.92883 77.88021L460.92883 79.66146Q462.30383 77.59896 464.88196 77.59896Q466.00696 77.59896 466.94446 78.00521Q467.89758 78.41146 468.36633 79.06771Q468.83508 79.72396 469.02258 80.63021Q469.14758 81.208336 469.14758 82.677086L469.14758 90.333336L467.0382 90.333336L467.0382 82.75521Q467.0382 81.47396 466.7882 80.833336Q466.5382 80.19271 465.9132 79.81771Q465.2882 79.427086 464.44446 79.427086Q463.1007 79.427086 462.11633 80.28646Q461.13196 81.145836 461.13196 83.53646L461.13196 90.333336L459.02258 90.333336Z" fill-rule="nonzero"/><path fill="#1a1a1a" d="M382.17883 118.333336L382.17883 116.50521Q380.7257 118.614586 378.24133 118.614586Q377.13196 118.614586 376.17883 118.19271Q375.2257 117.770836 374.75696 117.13021Q374.30383 116.489586 374.11633 115.56771Q373.9757 114.94271 373.9757 113.59896L373.9757 105.88021L376.08508 105.88021L376.08508 112.78646Q376.08508 114.44271 376.2257 115.020836Q376.4132 115.84896 377.05383 116.333336Q377.71008 116.802086 378.6632 116.802086Q379.6007 116.802086 380.42883 116.31771Q381.27258 115.81771 381.61633 114.989586Q381.96008 114.145836 381.96008 112.552086L381.96008 105.88021L384.06946 105.88021L384.06946 118.333336L382.17883 118.333336ZM387.02258 118.333336L387.02258 105.88021L388.92883 105.88021L388.92883 107.66146Q390.30383 105.59896 392.88196 105.59896Q394.00696 105.59896 394.94446 106.00521Q395.89758 106.41146 396.36633 107.06771Q396.83508 107.72396 397.02258 108.63021Q397.14758 109.208336 397.14758 110.677086L397.14758 118.333336L395.0382 118.333336L395.0382 110.75521Q395.0382 109.47396 394.7882 108.833336Q394.5382 108.19271 393.9132 107.81771Q393.2882 107.427086 392.44446 107.427086Q391.1007 107.427086 390.11633 108.28646Q389.13196 109.145836 389.13196 111.53646L389.13196 118.333336L387.02258 118.333336ZM400.0382 103.583336L400.0382 101.145836L402.14758 101.145836L402.14758 103.583336L400.0382 103.583336ZM400.0382 118.333336L400.0382 105.88021L402.14758 105.88021L402.14758 118.333336L400.0382 118.333336ZM412.96008 123.09896L412.96008 117.00521Q412.4757 117.69271 411.58508 118.16146Q410.69446 118.614586 409.71008 118.614586Q407.49133 118.614586 405.88196 116.84896Q404.2882 115.06771 404.2882 111.989586Q404.2882 110.114586 404.92883 108.63021Q405.58508 107.145836 406.81946 106.38021Q408.06946 105.59896 409.5382 105.59896Q411.8507 105.59896 413.17883 107.552086L413.17883 105.88021L415.06946 105.88021L415.06946 123.09896L412.96008 123.09896ZM406.46008 112.06771Q406.46008 114.47396 407.46008 115.677086Q408.4757 116.88021 409.88196 116.88021Q411.2257 116.88021 412.19446 115.739586Q413.17883 114.59896 413.17883 112.25521Q413.17883 109.770836 412.14758 108.520836Q411.11633 107.270836 409.74133 107.270836Q408.36633 107.270836 407.4132 108.44271Q406.46008 109.59896 406.46008 112.06771ZM426.17883 118.333336L426.17883 116.50521Q424.7257 118.614586 422.24133 118.614586Q421.13196 118.614586 420.17883 118.19271Q419.2257 117.770836 418.75696 117.13021Q418.30383 116.489586 418.11633 115.56771Q417.9757 114.94271 417.9757 113.59896L417.9757 105.88021L420.08508 105.88021L420.08508 112.78646Q420.08508 114.44271 420.2257 115.020836Q420.4132 115.84896 421.05383 116.333336Q421.71008 116.802086 422.6632 116.802086Q423.6007 116.802086 424.42883 116.31771Q425.27258 115.81771 425.61633 114.989586Q425.96008 114.145836 425.96008 112.552086L425.96008 105.88021L428.06946 105.88021L428.06946 118.333336L426.17883 118.333336ZM439.55383 114.31771L441.7257 114.59896Q441.21008 116.50521 439.81946 117.56771Q438.42883 118.614586 436.25696 118.614586Q433.52258 118.614586 431.9132 116.94271Q430.31946 115.25521 430.31946 112.208336Q430.31946 109.06771 431.92883 107.333336Q433.55383 105.59896 436.13196 105.59896Q438.63196 105.59896 440.21008 107.302086Q441.80383 109.00521 441.80383 112.083336Q441.80383 112.270836 441.7882 112.645836L432.50696 112.645836Q432.61633 114.69271 433.6632 115.78646Q434.71008 116.88021 436.27258 116.88021Q437.42883 116.88021 438.24133 116.270836Q439.06946 115.66146 439.55383 114.31771ZM432.61633 110.91146L439.56946 110.91146Q439.42883 109.34896 438.77258 108.552086Q437.77258 107.333336 436.1632 107.333336Q434.71008 107.333336 433.71008 108.31771Q432.7257 109.28646 432.61633 110.91146ZM444.02258 118.333336L444.02258 105.88021L445.9132 105.88021L445.9132 107.63021Q446.50696 106.72396 447.4757 106.16146Q448.44446 105.59896 449.69446 105.59896Q451.06946 105.59896 451.94446 106.177086Q452.83508 106.75521 453.21008 107.78646Q454.67883 105.59896 457.05383 105.59896Q458.89758 105.59896 459.89758 106.63021Q460.89758 107.66146 460.89758 109.78646L460.89758 118.333336L458.7882 118.333336L458.7882 110.489586Q458.7882 109.22396 458.58508 108.677086Q458.38196 108.114586 457.83508 107.770836Q457.30383 107.427086 456.58508 107.427086Q455.27258 107.427086 454.39758 108.302086Q453.5382 109.177086 453.5382 111.09896L453.5382 118.333336L451.42883 118.333336L451.42883 110.239586Q451.42883 108.833336 450.9132 108.13021Q450.39758 107.427086 449.2257 107.427086Q448.33508 107.427086 447.56946 107.895836Q446.81946 108.364586 446.4757 109.270836Q446.13196 110.177086 446.13196 111.88021L446.13196 118.333336L444.02258 118.333336ZM472.55383 114.31771L474.7257 114.59896Q474.21008 116.50521 472.81946 117.56771Q471.42883 118.614586 469.25696 118.614586Q466.52258 118.614586 464.9132 116.94271Q463.31946 115.25521 463.31946 112.208336Q463.31946 109.06771 464.92883 107.333336Q466.55383 105.59896 469.13196 105.59896Q471.63196 105.59896 473.21008 107.302086Q474.80383 109.00521 474.80383 112.083336Q474.80383 112.270836 474.7882 112.645836L465.50696 112.645836Q465.61633 114.69271 466.6632 115.78646Q467.71008 116.88021 469.27258 116.88021Q470.42883 116.88021 471.24133 116.270836Q472.06946 115.66146 472.55383 114.31771ZM465.61633 110.91146L472.56946 110.91146Q472.42883 109.34896 471.77258 108.552086Q470.77258 107.333336 469.1632 107.333336Q467.71008 107.333336 466.71008 108.31771Q465.7257 109.28646 465.61633 110.91146ZM477.02258 118.333336L477.02258 105.88021L478.92883 105.88021L478.92883 107.66146Q480.30383 105.59896 482.88196 105.59896Q484.00696 105.59896 484.94446 106.00521Q485.89758 106.41146 486.36633 107.06771Q486.83508 107.72396 487.02258 108.63021Q487.14758 109.208336 487.14758 110.677086L487.14758 118.333336L485.0382 118.333336L485.0382 110.75521Q485.0382 109.47396 484.7882 108.833336Q484.5382 108.19271 483.9132 107.81771Q483.2882 107.427086 482.44446 107.427086Q481.1007 107.427086 480.11633 108.28646Q479.13196 109.145836 479.13196 111.53646L479.13196 118.333336L477.02258 118.333336ZM494.63196 116.44271L494.94446 118.302086Q494.05383 118.50521 493.3507 118.50521Q492.19446 118.50521 491.55383 118.145836Q490.92883 117.770836 490.6632 117.177086Q490.4132 116.583336 490.4132 114.69271L490.4132 107.520836L488.86633 107.520836L488.86633 105.88021L490.4132 105.88021L490.4132 102.802086L492.50696 101.53646L492.50696 105.88021L494.63196 105.88021L494.63196 107.520836L492.50696 107.520836L492.50696 114.802086Q492.50696 115.708336 492.61633 115.97396Q492.74133 116.22396 492.99133 116.38021Q493.24133 116.520836 493.71008 116.520836Q494.05383 116.520836 494.63196 116.44271Z" fill-rule="nonzero"/><path fill="#ea4335" d="M364.44446 148.33333C364.44446 151.64705 361.75815 154.33333 358.44446 154.33333C355.13074 154.33333 352.44446 151.64705 352.44446 148.33333C352.44446 145.01962 355.13074 142.33333 358.44446 142.33333C361.75815 142.33333 364.44446 145.01962 364.44446 148.33333Z" fill-rule="nonzero"/><path fill="#1a1a1a" d="M374.33508 156.33333L374.33508 139.14583L381.94446 139.14583Q384.24133 139.14583 385.42883 139.61458Q386.63196 140.08333 387.3507 141.2552Q388.06946 142.42708 388.06946 143.83333Q388.06946 145.66145 386.88196 146.92708Q385.69446 148.17708 383.2257 148.52083Q384.13196 148.9427 384.6007 149.36458Q385.6007 150.28645 386.49133 151.66145L389.4757 156.33333L386.61633 156.33333L384.33508 152.7552Q383.3507 151.20833 382.69446 150.39583Q382.05383 149.5677 381.5382 149.23958Q381.0382 148.91145 380.50696 148.78645Q380.11633 148.70833 379.24133 148.70833L376.6007 148.70833L376.6007 156.33333L374.33508 156.33333ZM376.6007 146.73958L381.49133 146.73958Q383.05383 146.73958 383.92883 146.41145Q384.80383 146.08333 385.25696 145.3802Q385.7257 144.67708 385.7257 143.83333Q385.7257 142.61458 384.83508 141.83333Q383.96008 141.05208 382.0382 141.05208L376.6007 141.05208L376.6007 146.73958ZM399.55383 152.3177L401.7257 152.59895Q401.21008 154.5052 399.81946 155.5677Q398.42883 156.61458 396.25696 156.61458Q393.52258 156.61458 391.9132 154.9427Q390.31946 153.2552 390.31946 150.20833Q390.31946 147.0677 391.92883 145.33333Q393.55383 143.59895 396.13196 143.59895Q398.63196 143.59895 400.21008 145.30208Q401.80383 147.0052 401.80383 150.08333Q401.80383 150.27083 401.7882 150.64583L392.50696 150.64583Q392.61633 152.6927 393.6632 153.78645Q394.71008 154.8802 396.27258 154.8802Q397.42883 154.8802 398.24133 154.27083Q399.06946 153.66145 399.55383 152.3177ZM392.61633 148.91145L399.56946 148.91145Q399.42883 147.34895 398.77258 146.55208Q397.77258 145.33333 396.1632 145.33333Q394.71008 145.33333 393.71008 146.3177Q392.7257 147.28645 392.61633 148.91145ZM395.05383 142.33333L396.6007 139.05208L399.36633 139.05208L396.7882 142.33333L395.05383 142.33333ZM404.5382 156.33333L404.5382 145.52083L402.6632 145.52083L402.6632 143.8802L404.5382 143.8802L404.5382 142.5677Q404.5382 141.30208 404.75696 140.6927Q405.05383 139.8802 405.81946 139.3802Q406.6007 138.86458 407.9757 138.86458Q408.86633 138.86458 409.94446 139.0677L409.63196 140.91145Q408.9757 140.78645 408.38196 140.78645Q407.42883 140.78645 407.02258 141.20833Q406.63196 141.61458 406.63196 142.73958L406.63196 143.8802L409.05383 143.8802L409.05383 145.52083L406.63196 145.52083L406.63196 156.33333L404.5382 156.33333ZM410.9757 156.33333L410.9757 139.14583L413.08508 139.14583L413.08508 156.33333L410.9757 156.33333ZM424.55383 152.3177L426.7257 152.59895Q426.21008 154.5052 424.81946 155.5677Q423.42883 156.61458 421.25696 156.61458Q418.52258 156.61458 416.9132 154.9427Q415.31946 153.2552 415.31946 150.20833Q415.31946 147.0677 416.92883 145.33333Q418.55383 143.59895 421.13196 143.59895Q423.63196 143.59895 425.21008 145.30208Q426.80383 147.0052 426.80383 150.08333Q426.80383 150.27083 426.7882 150.64583L417.50696 150.64583Q417.61633 152.6927 418.6632 153.78645Q419.71008 154.8802 421.27258 154.8802Q422.42883 154.8802 423.24133 154.27083Q424.06946 153.66145 424.55383 152.3177ZM417.61633 148.91145L424.56946 148.91145Q424.42883 147.34895 423.77258 146.55208Q422.77258 145.33333 421.1632 145.33333Q419.71008 145.33333 418.71008 146.3177Q417.7257 147.28645 417.61633 148.91145ZM427.61633 156.33333L432.1632 149.86458L427.96008 143.8802L430.6007 143.8802L432.50696 146.80208Q433.05383 147.6302 433.38196 148.1927Q433.89758 147.42708 434.31946 146.83333L436.42883 143.8802L438.94446 143.8802L434.64758 149.73958L439.27258 156.33333L436.67883 156.33333L434.13196 152.45833L433.44446 151.42708L430.17883 156.33333L427.61633 156.33333ZM441.0382 141.58333L441.0382 139.14583L443.14758 139.14583L443.14758 141.58333L441.0382 141.58333ZM441.0382 156.33333L441.0382 143.8802L443.14758 143.8802L443.14758 156.33333L441.0382 156.33333ZM445.24133 150.11458Q445.24133 146.64583 447.1632 144.98958Q448.77258 143.59895 451.08508 143.59895Q453.64758 143.59895 455.27258 145.28645Q456.89758 146.97395 456.89758 149.92708Q456.89758 152.33333 456.17883 153.70833Q455.46008 155.08333 454.08508 155.84895Q452.71008 156.61458 451.08508 156.61458Q448.46008 156.61458 446.8507 154.9427Q445.24133 153.2552 445.24133 150.11458ZM447.4132 150.11458Q447.4132 152.5052 448.44446 153.6927Q449.49133 154.8802 451.08508 154.8802Q452.64758 154.8802 453.69446 153.6927Q454.74133 152.48958 454.74133 150.03645Q454.74133 147.72395 453.67883 146.53645Q452.63196 145.34895 451.08508 145.34895Q449.49133 145.34895 448.44446 146.53645Q447.4132 147.72395 447.4132 150.11458ZM459.02258 156.33333L459.02258 143.8802L460.92883 143.8802L460.92883 145.66145Q462.30383 143.59895 464.88196 143.59895Q466.00696 143.59895 466.94446 144.0052Q467.89758 144.41145 468.36633 145.0677Q468.83508 145.72395 469.02258 146.6302Q469.14758 147.20833 469.14758 148.67708L469.14758 156.33333L467.0382 156.33333L467.0382 148.7552Q467.0382 147.47395 466.7882 146.83333Q466.5382 146.1927 465.9132 145.8177Q465.2882 145.42708 464.44446 145.42708Q463.1007 145.42708 462.11633 146.28645Q461.13196 147.14583 461.13196 149.53645L461.13196 156.33333L459.02258 156.33333Z" fill-rule="nonzero"/><path fill="#1a1a1a" d="M374.02258 189.09895L374.02258 171.8802L375.94446 171.8802L375.94446 173.5052Q376.63196 172.55208 377.4757 172.08333Q378.33508 171.59895 379.55383 171.59895Q381.14758 171.59895 382.36633 172.42708Q383.58508 173.23958 384.21008 174.73958Q384.83508 176.23958 384.83508 178.02083Q384.83508 179.92708 384.14758 181.45833Q383.46008 182.98958 382.14758 183.80208Q380.8507 184.61458 379.4132 184.61458Q378.3507 184.61458 377.50696 184.17708Q376.67883 183.72395 376.13196 183.03645L376.13196 189.09895L374.02258 189.09895ZM375.94446 178.17708Q375.94446 180.58333 376.9132 181.73958Q377.88196 182.8802 379.27258 182.8802Q380.67883 182.8802 381.67883 181.6927Q382.67883 180.5052 382.67883 178.0052Q382.67883 175.6302 381.69446 174.4427Q380.7257 173.2552 379.36633 173.2552Q378.00696 173.2552 376.9757 174.52083Q375.94446 175.77083 375.94446 178.17708ZM387.00696 184.33333L387.00696 171.8802L388.89758 171.8802L388.89758 173.77083Q389.63196 172.4427 390.24133 172.02083Q390.86633 171.59895 391.6007 171.59895Q392.6632 171.59895 393.77258 172.28645L393.0382 174.23958Q392.27258 173.78645 391.49133 173.78645Q390.80383 173.78645 390.24133 174.20833Q389.69446 174.61458 389.46008 175.34895Q389.11633 176.47395 389.11633 177.8177L389.11633 184.33333L387.00696 184.33333ZM395.0382 169.58333L395.0382 167.14583L397.14758 167.14583L397.14758 169.58333L395.0382 169.58333ZM395.0382 184.33333L395.0382 171.8802L397.14758 171.8802L397.14758 184.33333L395.0382 184.33333ZM400.02258 184.33333L400.02258 171.8802L401.92883 171.8802L401.92883 173.66145Q403.30383 171.59895 405.88196 171.59895Q407.00696 171.59895 407.94446 172.0052Q408.89758 172.41145 409.36633 173.0677Q409.83508 173.72395 410.02258 174.6302Q410.14758 175.20833 410.14758 176.67708L410.14758 184.33333L408.0382 184.33333L408.0382 176.7552Q408.0382 175.47395 407.7882 174.83333Q407.5382 174.1927 406.9132 173.8177Q406.2882 173.42708 405.44446 173.42708Q404.1007 173.42708 403.11633 174.28645Q402.13196 175.14583 402.13196 177.53645L402.13196 184.33333L400.02258 184.33333ZM421.14758 179.77083L423.2257 180.03645Q422.88196 182.1927 421.4757 183.41145Q420.08508 184.61458 418.0382 184.61458Q415.49133 184.61458 413.92883 182.9427Q412.38196 181.27083 412.38196 178.16145Q412.38196 176.14583 413.05383 174.6302Q413.7257 173.11458 415.08508 172.36458Q416.44446 171.59895 418.05383 171.59895Q420.08508 171.59895 421.36633 172.6302Q422.6632 173.66145 423.02258 175.53645L420.9757 175.86458Q420.67883 174.59895 419.92883 173.97395Q419.19446 173.33333 418.13196 173.33333Q416.5382 173.33333 415.5382 174.48958Q414.55383 175.6302 414.55383 178.09895Q414.55383 180.59895 415.50696 181.73958Q416.4757 182.8802 418.02258 182.8802Q419.25696 182.8802 420.08508 182.11458Q420.92883 181.34895 421.14758 179.77083ZM425.0382 169.58333L425.0382 167.14583L427.14758 167.14583L427.14758 169.58333L425.0382 169.58333ZM425.0382 184.33333L425.0382 171.8802L427.14758 171.8802L427.14758 184.33333L425.0382 184.33333ZM430.02258 189.09895L430.02258 171.8802L431.94446 171.8802L431.94446 173.5052Q432.63196 172.55208 433.4757 172.08333Q434.33508 171.59895 435.55383 171.59895Q437.14758 171.59895 438.36633 172.42708Q439.58508 173.23958 440.21008 174.73958Q440.83508 176.23958 440.83508 178.02083Q440.83508 179.92708 440.14758 181.45833Q439.46008 182.98958 438.14758 183.80208Q436.8507 184.61458 435.4132 184.61458Q434.3507 184.61458 433.50696 184.17708Q432.67883 183.72395 432.13196 183.03645L432.13196 189.09895L430.02258 189.09895ZM431.94446 178.17708Q431.94446 180.58333 432.9132 181.73958Q433.88196 182.8802 435.27258 182.8802Q436.67883 182.8802 437.67883 181.6927Q438.67883 180.5052 438.67883 178.0052Q438.67883 175.6302 437.69446 174.4427Q436.7257 173.2552 435.36633 173.2552Q434.00696 173.2552 432.9757 174.52083Q431.94446 175.77083 431.94446 178.17708ZM451.14758 182.80208Q449.9757 183.78645 448.88196 184.20833Q447.80383 184.61458 446.56946 184.61458Q444.52258 184.61458 443.4132 183.61458Q442.31946 182.61458 442.31946 181.05208Q442.31946 180.1302 442.7257 179.3802Q443.14758 178.6302 443.81946 178.17708Q444.49133 177.70833 445.33508 177.47395Q445.96008 177.3177 447.21008 177.16145Q449.77258 176.84895 450.9757 176.42708Q450.99133 176.0052 450.99133 175.8802Q450.99133 174.59895 450.38196 174.0677Q449.58508 173.34895 447.99133 173.34895Q446.49133 173.34895 445.7882 173.8802Q445.08508 174.39583 444.74133 175.72395L442.67883 175.4427Q442.96008 174.11458 443.6007 173.30208Q444.24133 172.48958 445.46008 172.05208Q446.67883 171.59895 448.2882 171.59895Q449.88196 171.59895 450.88196 171.97395Q451.88196 172.34895 452.3507 172.92708Q452.81946 173.48958 453.00696 174.36458Q453.1007 174.89583 453.1007 176.30208L453.1007 179.11458Q453.1007 182.05208 453.24133 182.83333Q453.38196 183.61458 453.77258 184.33333L451.56946 184.33333Q451.24133 183.67708 451.14758 182.80208ZM450.9757 178.08333Q449.81946 178.55208 447.52258 178.8802Q446.2257 179.0677 445.67883 179.30208Q445.14758 179.53645 444.8507 179.98958Q444.56946 180.4427 444.56946 180.98958Q444.56946 181.83333 445.19446 182.39583Q445.83508 182.95833 447.06946 182.95833Q448.2882 182.95833 449.24133 182.42708Q450.19446 181.89583 450.63196 180.97395Q450.9757 180.2552 450.9757 178.86458L450.9757 178.08333ZM455.9757 184.33333L455.9757 167.14583L458.08508 167.14583L458.08508 184.33333L455.9757 184.33333ZM469.55383 180.3177L471.7257 180.59895Q471.21008 182.5052 469.81946 183.5677Q468.42883 184.61458 466.25696 184.61458Q463.52258 184.61458 461.9132 182.9427Q460.31946 181.2552 460.31946 178.20833Q460.31946 175.0677 461.92883 173.33333Q463.55383 171.59895 466.13196 171.59895Q468.63196 171.59895 470.21008 173.30208Q471.80383 175.0052 471.80383 178.08333Q471.80383 178.27083 471.7882 178.64583L462.50696 178.64583Q462.61633 180.6927 463.6632 181.78645Q464.71008 182.8802 466.27258 182.8802Q467.42883 182.8802 468.24133 182.27083Q469.06946 181.66145 469.55383 180.3177ZM462.61633 176.91145L469.56946 176.91145Q469.42883 175.34895 468.77258 174.55208Q467.77258 173.33333 466.1632 173.33333Q464.71008 173.33333 463.71008 174.3177Q462.7257 175.28645 462.61633 176.91145ZM474.02258 184.33333L474.02258 171.8802L475.9132 171.8802L475.9132 173.6302Q476.50696 172.72395 477.4757 172.16145Q478.44446 171.59895 479.69446 171.59895Q481.06946 171.59895 481.94446 172.17708Q482.83508 172.7552 483.21008 173.78645Q484.67883 171.59895 487.05383 171.59895Q488.89758 171.59895 489.89758 172.6302Q490.89758 173.66145 490.89758 175.78645L490.89758 184.33333L488.7882 184.33333L488.7882 176.48958Q488.7882 175.22395 488.58508 174.67708Q488.38196 174.11458 487.83508 173.77083Q487.30383 173.42708 486.58508 173.42708Q485.27258 173.42708 484.39758 174.30208Q483.5382 175.17708 483.5382 177.09895L483.5382 184.33333L481.42883 184.33333L481.42883 176.23958Q481.42883 174.83333 480.9132 174.1302Q480.39758 173.42708 479.2257 173.42708Q478.33508 173.42708 477.56946 173.89583Q476.81946 174.36458 476.4757 175.27083Q476.13196 176.17708 476.13196 177.8802L476.13196 184.33333L474.02258 184.33333ZM502.55383 180.3177L504.7257 180.59895Q504.21008 182.5052 502.81946 183.5677Q501.42883 184.61458 499.25696 184.61458Q496.52258 184.61458 494.9132 182.9427Q493.31946 181.2552 493.31946 178.20833Q493.31946 175.0677 494.92883 173.33333Q496.55383 171.59895 499.13196 171.59895Q501.63196 171.59895 503.21008 173.30208Q504.80383 175.0052 504.80383 178.08333Q504.80383 178.27083 504.7882 178.64583L495.50696 178.64583Q495.61633 180.6927 496.6632 181.78645Q497.71008 182.8802 499.27258 182.8802Q500.42883 182.8802 501.24133 182.27083Q502.06946 181.66145 502.55383 180.3177ZM495.61633 176.91145L502.56946 176.91145Q502.42883 175.34895 501.77258 174.55208Q500.77258 173.33333 499.1632 173.33333Q497.71008 173.33333 496.71008 174.3177Q495.7257 175.28645 495.61633 176.91145ZM507.02258 184.33333L507.02258 171.8802L508.92883 171.8802L508.92883 173.66145Q510.30383 171.59895 512.88196 171.59895Q514.00696 171.59895 514.94446 172.0052Q515.8976 172.41145 516.36633 173.0677Q516.8351 173.72395 517.0226 174.6302Q517.1476 175.20833 517.1476 176.67708L517.1476 184.33333L515.0382 184.33333L515.0382 176.7552Q515.0382 175.47395 514.7882 174.83333Q514.5382 174.1927 513.9132 173.8177Q513.2882 173.42708 512.44446 173.42708Q511.1007 173.42708 510.11633 174.28645Q509.13196 175.14583 509.13196 177.53645L509.13196 184.33333L507.02258 184.33333ZM524.63196 182.4427L524.94446 184.30208Q524.05383 184.5052 523.3507 184.5052Q522.19446 184.5052 521.55383 184.14583Q520.92883 183.77083 520.6632 183.17708Q520.4132 182.58333 520.4132 180.6927L520.4132 173.52083L518.86633 173.52083L518.86633 171.8802L520.4132 171.8802L520.4132 168.80208L522.50696 167.53645L522.50696 171.8802L524.63196 171.8802L524.63196 173.52083L522.50696 173.52083L522.50696 180.80208Q522.50696 181.70833 522.61633 181.97395Q522.74133 182.22395 522.99133 182.3802Q523.24133 182.52083 523.7101 182.52083Q524.05383 182.52083 524.63196 182.4427Z" fill-rule="nonzero"/><path fill="#fbbc04" d="M364.44446 214.33333C364.44446 217.64705 361.75815 220.33333 358.44446 220.33333C355.13074 220.33333 352.44446 217.64705 352.44446 214.33333C352.44446 211.01962 355.13074 208.33333 358.44446 208.33333C361.75815 208.33333 364.44446 211.01962 364.44446 214.33333Z" fill-rule="nonzero"/><path fill="#1a1a1a" d="M374.33508 222.33333L374.33508 205.14583L381.94446 205.14583Q384.24133 205.14583 385.42883 205.61458Q386.63196 206.08333 387.3507 207.2552Q388.06946 208.42708 388.06946 209.83333Q388.06946 211.66145 386.88196 212.92708Q385.69446 214.17708 383.2257 214.52083Q384.13196 214.9427 384.6007 215.36458Q385.6007 216.28645 386.49133 217.66145L389.4757 222.33333L386.61633 222.33333L384.33508 218.7552Q383.3507 217.20833 382.69446 216.39583Q382.05383 215.5677 381.5382 215.23958Q381.0382 214.91145 380.50696 214.78645Q380.11633 214.70833 379.24133 214.70833L376.6007 214.70833L376.6007 222.33333L374.33508 222.33333ZM376.6007 212.73958L381.49133 212.73958Q383.05383 212.73958 383.92883 212.41145Q384.80383 212.08333 385.25696 211.3802Q385.7257 210.67708 385.7257 209.83333Q385.7257 208.61458 384.83508 207.83333Q383.96008 207.05208 382.0382 207.05208L376.6007 207.05208L376.6007 212.73958ZM399.55383 218.3177L401.7257 218.59895Q401.21008 220.5052 399.81946 221.5677Q398.42883 222.61458 396.25696 222.61458Q393.52258 222.61458 391.9132 220.9427Q390.31946 219.2552 390.31946 216.20833Q390.31946 213.0677 391.92883 211.33333Q393.55383 209.59895 396.13196 209.59895Q398.63196 209.59895 400.21008 211.30208Q401.80383 213.0052 401.80383 216.08333Q401.80383 216.27083 401.7882 216.64583L392.50696 216.64583Q392.61633 218.6927 393.6632 219.78645Q394.71008 220.8802 396.27258 220.8802Q397.42883 220.8802 398.24133 220.27083Q399.06946 219.66145 399.55383 218.3177ZM392.61633 214.91145L399.56946 214.91145Q399.42883 213.34895 398.77258 212.55208Q397.77258 211.33333 396.1632 211.33333Q394.71008 211.33333 393.71008 212.3177Q392.7257 213.28645 392.61633 214.91145ZM395.05383 208.33333L396.6007 205.05208L399.36633 205.05208L396.7882 208.33333L395.05383 208.33333ZM404.5382 222.33333L404.5382 211.52083L402.6632 211.52083L402.6632 209.8802L404.5382 209.8802L404.5382 208.5677Q404.5382 207.30208 404.75696 206.6927Q405.05383 205.8802 405.81946 205.3802Q406.6007 204.86458 407.9757 204.86458Q408.86633 204.86458 409.94446 205.0677L409.63196 206.91145Q408.9757 206.78645 408.38196 206.78645Q407.42883 206.78645 407.02258 207.20833Q406.63196 207.61458 406.63196 208.73958L406.63196 209.8802L409.05383 209.8802L409.05383 211.52083L406.63196 211.52083L406.63196 222.33333L404.5382 222.33333ZM410.9757 222.33333L410.9757 205.14583L413.08508 205.14583L413.08508 222.33333L410.9757 222.33333ZM424.55383 218.3177L426.7257 218.59895Q426.21008 220.5052 424.81946 221.5677Q423.42883 222.61458 421.25696 222.61458Q418.52258 222.61458 416.9132 220.9427Q415.31946 219.2552 415.31946 216.20833Q415.31946 213.0677 416.92883 211.33333Q418.55383 209.59895 421.13196 209.59895Q423.63196 209.59895 425.21008 211.30208Q426.80383 213.0052 426.80383 216.08333Q426.80383 216.27083 426.7882 216.64583L417.50696 216.64583Q417.61633 218.6927 418.6632 219.78645Q419.71008 220.8802 421.27258 220.8802Q422.42883 220.8802 423.24133 220.27083Q424.06946 219.66145 424.55383 218.3177ZM417.61633 214.91145L424.56946 214.91145Q424.42883 213.34895 423.77258 212.55208Q422.77258 211.33333 421.1632 211.33333Q419.71008 211.33333 418.71008 212.3177Q417.7257 213.28645 417.61633 214.91145ZM427.61633 222.33333L432.1632 215.86458L427.96008 209.8802L430.6007 209.8802L432.50696 212.80208Q433.05383 213.6302 433.38196 214.1927Q433.89758 213.42708 434.31946 212.83333L436.42883 209.8802L438.94446 209.8802L434.64758 215.73958L439.27258 222.33333L436.67883 222.33333L434.13196 218.45833L433.44446 217.42708L430.17883 222.33333L427.61633 222.33333ZM441.0382 207.58333L441.0382 205.14583L443.14758 205.14583L443.14758 207.58333L441.0382 207.58333ZM441.0382 222.33333L441.0382 209.8802L443.14758 209.8802L443.14758 222.33333L441.0382 222.33333ZM445.24133 216.11458Q445.24133 212.64583 447.1632 210.98958Q448.77258 209.59895 451.08508 209.59895Q453.64758 209.59895 455.27258 211.28645Q456.89758 212.97395 456.89758 215.92708Q456.89758 218.33333 456.17883 219.70833Q455.46008 221.08333 454.08508 221.84895Q452.71008 222.61458 451.08508 222.61458Q448.46008 222.61458 446.8507 220.9427Q445.24133 219.2552 445.24133 216.11458ZM447.4132 216.11458Q447.4132 218.5052 448.44446 219.6927Q449.49133 220.8802 451.08508 220.8802Q452.64758 220.8802 453.69446 219.6927Q454.74133 218.48958 454.74133 216.03645Q454.74133 213.72395 453.67883 212.53645Q452.63196 211.34895 451.08508 211.34895Q449.49133 211.34895 448.44446 212.53645Q447.4132 213.72395 447.4132 216.11458ZM459.02258 222.33333L459.02258 209.8802L460.92883 209.8802L460.92883 211.66145Q462.30383 209.59895 464.88196 209.59895Q466.00696 209.59895 466.94446 210.0052Q467.89758 210.41145 468.36633 211.0677Q468.83508 211.72395 469.02258 212.6302Q469.14758 213.20833 469.14758 214.67708L469.14758 222.33333L467.0382 222.33333L467.0382 214.7552Q467.0382 213.47395 466.7882 212.83333Q466.5382 212.1927 465.9132 211.8177Q465.2882 211.42708 464.44446 211.42708Q463.1007 211.42708 462.11633 212.28645Q461.13196 213.14583 461.13196 215.53645L461.13196 222.33333L459.02258 222.33333ZM487.55383 218.3177L489.7257 218.59895Q489.21008 220.5052 487.81946 221.5677Q486.42883 222.61458 484.25696 222.61458Q481.52258 222.61458 479.9132 220.9427Q478.31946 219.2552 478.31946 216.20833Q478.31946 213.0677 479.92883 211.33333Q481.55383 209.59895 484.13196 209.59895Q486.63196 209.59895 488.21008 211.30208Q489.80383 213.0052 489.80383 216.08333Q489.80383 216.27083 489.7882 216.64583L480.50696 216.64583Q480.61633 218.6927 481.6632 219.78645Q482.71008 220.8802 484.27258 220.8802Q485.42883 220.8802 486.24133 220.27083Q487.06946 219.66145 487.55383 218.3177ZM480.61633 214.91145L487.56946 214.91145Q487.42883 213.34895 486.77258 212.55208Q485.77258 211.33333 484.1632 211.33333Q482.71008 211.33333 481.71008 212.3177Q480.7257 213.28645 480.61633 214.91145ZM496.63196 220.4427L496.94446 222.30208Q496.05383 222.5052 495.3507 222.5052Q494.19446 222.5052 493.55383 222.14583Q492.92883 221.77083 492.6632 221.17708Q492.4132 220.58333 492.4132 218.6927L492.4132 211.52083L490.86633 211.52083L490.86633 209.8802L492.4132 209.8802L492.4132 206.80208L494.50696 205.53645L494.50696 209.8802L496.63196 209.8802L496.63196 211.52083L494.50696 211.52083L494.50696 218.80208Q494.50696 219.70833 494.61633 219.97395Q494.74133 220.22395 494.99133 220.3802Q495.24133 220.52083 495.71008 220.52083Q496.05383 220.52083 496.63196 220.4427ZM506.00696 222.33333L506.00696 209.8802L507.89758 209.8802L507.89758 211.77083Q508.63196 210.4427 509.24133 210.02083Q509.86633 209.59895 510.6007 209.59895Q511.6632 209.59895 512.7726 210.28645L512.0382 212.23958Q511.27258 211.78645 510.49133 211.78645Q509.80383 211.78645 509.24133 212.20833Q508.69446 212.61458 508.46008 213.34895Q508.11633 214.47395 508.11633 215.8177L508.11633 222.33333L506.00696 222.33333ZM522.55383 218.3177L524.7257 218.59895Q524.2101 220.5052 522.81946 221.5677Q521.42883 222.61458 519.25696 222.61458Q516.5226 222.61458 514.9132 220.9427Q513.31946 219.2552 513.31946 216.20833Q513.31946 213.0677 514.92883 211.33333Q516.55383 209.59895 519.13196 209.59895Q521.63196 209.59895 523.2101 211.30208Q524.80383 213.0052 524.80383 216.08333Q524.80383 216.27083 524.7882 216.64583L515.50696 216.64583Q515.61633 218.6927 516.6632 219.78645Q517.7101 220.8802 519.2726 220.8802Q520.42883 220.8802 521.24133 220.27083Q522.06946 219.66145 522.55383 218.3177ZM515.61633 214.91145L522.56946 214.91145Q522.42883 213.34895 521.7726 212.55208Q520.7726 211.33333 519.1632 211.33333Q517.7101 211.33333 516.7101 212.3177Q515.7257 213.28645 515.61633 214.91145ZM526.17883 218.61458L528.2726 218.28645Q528.44446 219.53645 529.24133 220.20833Q530.05383 220.8802 531.49133 220.8802Q532.94446 220.8802 533.6476 220.28645Q534.3507 219.6927 534.3507 218.89583Q534.3507 218.17708 533.7257 217.77083Q533.30383 217.48958 531.56946 217.05208Q529.25696 216.47395 528.3507 216.05208Q527.4601 215.61458 526.99133 214.86458Q526.5382 214.09895 526.5382 213.1927Q526.5382 212.36458 526.9132 211.66145Q527.30383 210.9427 527.9601 210.47395Q528.44446 210.11458 529.2882 209.86458Q530.1476 209.59895 531.11633 209.59895Q532.5851 209.59895 533.69446 210.02083Q534.80383 210.4427 535.31946 211.17708Q535.8507 211.89583 536.05383 213.09895L533.99133 213.3802Q533.8507 212.41145 533.17883 211.8802Q532.50696 211.33333 531.2726 211.33333Q529.81946 211.33333 529.19446 211.8177Q528.56946 212.30208 528.56946 212.9427Q528.56946 213.34895 528.8351 213.67708Q529.0851 214.02083 529.6476 214.23958Q529.9601 214.36458 531.50696 214.78645Q533.74133 215.3802 534.61633 215.77083Q535.50696 216.14583 536.00696 216.8802Q536.5226 217.59895 536.5226 218.67708Q536.5226 219.72395 535.8976 220.66145Q535.2882 221.59895 534.13196 222.11458Q532.9757 222.61458 531.50696 222.61458Q529.0851 222.61458 527.80383 221.61458Q526.5382 220.59895 526.17883 218.61458ZM547.55383 218.3177L549.7257 218.59895Q549.2101 220.5052 547.81946 221.5677Q546.42883 222.61458 544.25696 222.61458Q541.5226 222.61458 539.9132 220.9427Q538.31946 219.2552 538.31946 216.20833Q538.31946 213.0677 539.92883 211.33333Q541.55383 209.59895 544.13196 209.59895Q546.63196 209.59895 548.2101 211.30208Q549.80383 213.0052 549.80383 216.08333Q549.80383 216.27083 549.7882 216.64583L540.50696 216.64583Q540.61633 218.6927 541.6632 219.78645Q542.7101 220.8802 544.2726 220.8802Q545.42883 220.8802 546.24133 220.27083Q547.06946 219.66145 547.55383 218.3177ZM540.61633 214.91145L547.56946 214.91145Q547.42883 213.34895 546.7726 212.55208Q545.7726 211.33333 544.1632 211.33333Q542.7101 211.33333 541.7101 212.3177Q540.7257 213.28645 540.61633 214.91145ZM552.0226 222.33333L552.0226 209.8802L553.92883 209.8802L553.92883 211.66145Q555.30383 209.59895 557.88196 209.59895Q559.00696 209.59895 559.94446 210.0052Q560.8976 210.41145 561.36633 211.0677Q561.8351 211.72395 562.0226 212.6302Q562.1476 213.20833 562.1476 214.67708L562.1476 222.33333L560.0382 222.33333L560.0382 214.7552Q560.0382 213.47395 559.7882 212.83333Q559.5382 212.1927 558.9132 211.8177Q558.2882 211.42708 557.44446 211.42708Q556.1007 211.42708 555.11633 212.28645Q554.13196 213.14583 554.13196 215.53645L554.13196 222.33333L552.0226 222.33333ZM569.63196 220.4427L569.94446 222.30208Q569.05383 222.5052 568.3507 222.5052Q567.19446 222.5052 566.55383 222.14583Q565.92883 221.77083 565.6632 221.17708Q565.4132 220.58333 565.4132 218.6927L565.4132 211.52083L563.86633 211.52083L563.86633 209.8802L565.4132 209.8802L565.4132 206.80208L567.50696 205.53645L567.50696 209.8802L569.63196 209.8802L569.63196 211.52083L567.50696 211.52083L567.50696 218.80208Q567.50696 219.70833 567.61633 219.97395Q567.74133 220.22395 567.99133 220.3802Q568.24133 220.52083 568.7101 220.52083Q569.05383 220.52083 569.63196 220.4427ZM572.0382 207.58333L572.0382 205.14583L574.1476 205.14583L574.1476 207.58333L572.0382 207.58333ZM572.0382 222.33333L572.0382 209.8802L574.1476 209.8802L574.1476 222.33333L572.0382 222.33333Z" fill-rule="nonzero"/><path fill="#434343" d="M168.45312 48.0L176.70312 26.53125L179.76562 26.53125L188.54688 48.0L185.3125 48.0L182.8125 41.5L173.82812 41.5L171.46875 48.0L168.45312 48.0ZM174.65625 39.1875L181.9375 39.1875L179.6875 33.234375Q178.67188 30.53125 178.17188 28.78125Q177.76562 30.84375 177.01562 32.875L174.65625 39.1875ZM190.48438 53.96875L190.48438 32.4375L192.875 32.4375L192.875 34.46875Q193.73438 33.28125 194.79688 32.6875Q195.875 32.09375 197.39062 32.09375Q199.39062 32.09375 200.90625 33.125Q202.4375 34.140625 203.20312 36.015625Q203.98438 37.875 203.98438 40.109375Q203.98438 42.484375 203.125 44.40625Q202.26562 46.3125 200.625 47.34375Q199.0 48.359375 197.20312 48.359375Q195.89062 48.359375 194.82812 47.796875Q193.78125 47.234375 193.10938 46.390625L193.10938 53.96875L190.48438 53.96875ZM192.85938 40.3125Q192.85938 43.3125 194.07812 44.75Q195.29688 46.1875 197.03125 46.1875Q198.78125 46.1875 200.03125 44.703125Q201.28125 43.203125 201.28125 40.09375Q201.28125 37.109375 200.0625 35.640625Q198.84375 34.15625 197.14062 34.15625Q195.45312 34.15625 194.15625 35.734375Q192.85938 37.3125 192.85938 40.3125ZM207.48438 53.96875L207.48438 32.4375L209.875 32.4375L209.875 34.46875Q210.73438 33.28125 211.79688 32.6875Q212.875 32.09375 214.39062 32.09375Q216.39062 32.09375 217.90625 33.125Q219.4375 34.140625 220.20312 36.015625Q220.98438 37.875 220.98438 40.109375Q220.98438 42.484375 220.125 44.40625Q219.26562 46.3125 217.625 47.34375Q216.0 48.359375 214.20312 48.359375Q212.89062 48.359375 211.82812 47.796875Q210.78125 47.234375 210.10938 46.390625L210.10938 53.96875L207.48438 53.96875ZM209.85938 40.3125Q209.85938 43.3125 211.07812 44.75Q212.29688 46.1875 214.03125 46.1875Q215.78125 46.1875 217.03125 44.703125Q218.28125 43.203125 218.28125 40.09375Q218.28125 37.109375 217.0625 35.640625Q215.84375 34.15625 214.14062 34.15625Q212.45312 34.15625 211.15625 35.734375Q209.85938 37.3125 209.85938 40.3125ZM224.45312 48.0L224.45312 32.4375L226.82812 32.4375L226.82812 34.796875Q227.73438 33.140625 228.5 32.625Q229.26562 32.09375 230.1875 32.09375Q231.53125 32.09375 232.90625 32.9375L232.0 35.390625Q231.03125 34.8125 230.0625 34.8125Q229.1875 34.8125 228.5 35.34375Q227.8125 35.859375 227.53125 36.78125Q227.07812 38.1875 227.07812 39.859375L227.07812 48.0L224.45312 48.0ZM233.5 40.21875Q233.5 35.90625 235.90625 33.8125Q237.90625 32.09375 240.79688 32.09375Q244.0 32.09375 246.03125 34.203125Q248.07812 36.296875 248.07812 40.0Q248.07812 43.0 247.17188 44.734375Q246.26562 46.453125 244.54688 47.40625Q242.82812 48.359375 240.79688 48.359375Q237.53125 48.359375 235.51562 46.265625Q233.5 44.15625 233.5 40.21875ZM236.20312 40.21875Q236.20312 43.203125 237.5 44.703125Q238.8125 46.1875 240.79688 46.1875Q242.75 46.1875 244.04688 44.6875Q245.35938 43.1875 245.35938 40.140625Q245.35938 37.25 244.04688 35.765625Q242.73438 34.28125 240.79688 34.28125Q238.8125 34.28125 237.5 35.765625Q236.20312 37.234375 236.20312 40.21875ZM261.625 42.296875L264.21875 42.640625Q263.79688 45.3125 262.04688 46.84375Q260.29688 48.359375 257.75 48.359375Q254.54688 48.359375 252.60938 46.265625Q250.67188 44.171875 250.67188 40.28125Q250.67188 37.765625 251.5 35.875Q252.34375 33.984375 254.04688 33.046875Q255.75 32.09375 257.76562 32.09375Q260.29688 32.09375 261.90625 33.375Q263.51562 34.65625 263.96875 37.015625L261.40625 37.40625Q261.04688 35.84375 260.10938 35.0625Q259.1875 34.265625 257.85938 34.265625Q255.875 34.265625 254.625 35.6875Q253.375 37.109375 253.375 40.203125Q253.375 43.34375 254.57812 44.765625Q255.78125 46.1875 257.71875 46.1875Q259.26562 46.1875 260.29688 45.234375Q261.34375 44.28125 261.625 42.296875ZM266.48438 48.0L266.48438 26.53125L269.10938 26.53125L269.10938 34.234375Q270.95312 32.09375 273.76562 32.09375Q275.5 32.09375 276.76562 32.78125Q278.04688 33.453125 278.59375 34.65625Q279.15625 35.859375 279.15625 38.140625L279.15625 48.0L276.51562 48.0L276.51562 38.140625Q276.51562 36.15625 275.65625 35.265625Q274.79688 34.359375 273.23438 34.359375Q272.0625 34.359375 271.03125 34.96875Q270.0 35.578125 269.54688 36.625Q269.10938 37.65625 269.10938 39.484375L269.10938 48.0L266.48438 48.0ZM294.125 42.984375L296.85938 43.328125Q296.20312 45.71875 294.45312 47.046875Q292.71875 48.359375 290.01562 48.359375Q286.59375 48.359375 284.59375 46.25Q282.59375 44.140625 282.59375 40.359375Q282.59375 36.421875 284.60938 34.265625Q286.64062 32.09375 289.85938 32.09375Q292.98438 32.09375 294.95312 34.21875Q296.9375 36.34375 296.9375 40.1875Q296.9375 40.421875 296.92188 40.890625L285.32812 40.890625Q285.46875 43.453125 286.76562 44.828125Q288.07812 46.1875 290.03125 46.1875Q291.46875 46.1875 292.5 45.421875Q293.53125 44.65625 294.125 42.984375ZM285.46875 38.734375L294.15625 38.734375Q293.98438 36.765625 293.15625 35.78125Q291.90625 34.265625 289.89062 34.265625Q288.07812 34.265625 286.84375 35.484375Q285.60938 36.6875 285.46875 38.734375ZM308.48438 53.96875L308.48438 32.4375L310.875 32.4375L310.875 34.46875Q311.73438 33.28125 312.79688 32.6875Q313.875 32.09375 315.39062 32.09375Q317.39062 32.09375 318.90625 33.125Q320.4375 34.140625 321.20312 36.015625Q321.98438 37.875 321.98438 40.109375Q321.98438 42.484375 321.125 44.40625Q320.26562 46.3125 318.625 47.34375Q317.0 48.359375 315.20312 48.359375Q313.89062 48.359375 312.82812 47.796875Q311.78125 47.234375 311.10938 46.390625L311.10938 53.96875L308.48438 53.96875ZM310.85938 40.3125Q310.85938 43.3125 312.07812 44.75Q313.29688 46.1875 315.03125 46.1875Q316.78125 46.1875 318.03125 44.703125Q319.28125 43.203125 319.28125 40.09375Q319.28125 37.109375 318.0625 35.640625Q316.84375 34.15625 315.14062 34.15625Q313.45312 34.15625 312.15625 35.734375Q310.85938 37.3125 310.85938 40.3125ZM325.45312 48.0L325.45312 32.4375L327.82812 32.4375L327.82812 34.796875Q328.73438 33.140625 329.5 32.625Q330.26562 32.09375 331.1875 32.09375Q332.53125 32.09375 333.90625 32.9375L333.0 35.390625Q332.03125 34.8125 331.0625 34.8125Q330.1875 34.8125 329.5 35.34375Q328.8125 35.859375 328.53125 36.78125Q328.07812 38.1875 328.07812 39.859375L328.07812 48.0L325.45312 48.0ZM335.5 29.5625L335.5 26.53125L338.125 26.53125L338.125 29.5625L335.5 29.5625ZM335.5 48.0L335.5 32.4375L338.125 32.4375L338.125 48.0L335.5 48.0ZM346.79688 48.0L340.875 32.4375L343.67188 32.4375L347.0 41.765625Q347.54688 43.265625 348.0 44.890625Q348.35938 43.65625 348.98438 41.9375L352.4375 32.4375L355.15625 32.4375L349.26562 48.0L346.79688 48.0ZM357.5 29.5625L357.5 26.53125L360.125 26.53125L360.125 29.5625L357.5 29.5625ZM357.5 48.0L357.5 32.4375L360.125 32.4375L360.125 48.0L357.5 48.0ZM364.42188 48.0L364.42188 26.53125L367.0625 26.53125L367.0625 48.0L364.42188 48.0ZM382.125 42.984375L384.85938 43.328125Q384.20312 45.71875 382.45312 47.046875Q380.71875 48.359375 378.01562 48.359375Q374.59375 48.359375 372.59375 46.25Q370.59375 44.140625 370.59375 40.359375Q370.59375 36.421875 372.60938 34.265625Q374.64062 32.09375 377.85938 32.09375Q380.98438 32.09375 382.95312 34.21875Q384.9375 36.34375 384.9375 40.1875Q384.9375 40.421875 384.92188 40.890625L373.32812 40.890625Q373.46875 43.453125 374.76562 44.828125Q376.07812 46.1875 378.03125 46.1875Q379.46875 46.1875 380.5 45.421875Q381.53125 44.65625 382.125 42.984375ZM373.46875 38.734375L382.15625 38.734375Q381.98438 36.765625 381.15625 35.78125Q379.90625 34.265625 377.89062 34.265625Q376.07812 34.265625 374.84375 35.484375Q373.60938 36.6875 373.46875 38.734375ZM376.75 30.515625L378.70312 26.40625L382.15625 26.40625L378.9375 30.515625L376.75 30.515625ZM388.0 49.296875L390.5625 49.671875Q390.71875 50.859375 391.45312 51.40625Q392.4375 52.125 394.125 52.125Q395.96875 52.125 396.95312 51.390625Q397.95312 50.671875 398.3125 49.34375Q398.51562 48.546875 398.5 45.96875Q396.76562 48.0 394.1875 48.0Q390.98438 48.0 389.21875 45.6875Q387.46875 43.375 387.46875 40.140625Q387.46875 37.90625 388.26562 36.03125Q389.07812 34.140625 390.60938 33.125Q392.14062 32.09375 394.20312 32.09375Q396.95312 32.09375 398.75 34.3125L398.75 32.4375L401.17188 32.4375L401.17188 45.890625Q401.17188 49.53125 400.4375 51.046875Q399.70312 52.5625 398.09375 53.4375Q396.48438 54.3125 394.14062 54.3125Q391.35938 54.3125 389.64062 53.0625Q387.9375 51.8125 388.0 49.296875ZM390.17188 39.9375Q390.17188 43.0 391.39062 44.40625Q392.60938 45.8125 394.4375 45.8125Q396.25 45.8125 397.48438 44.421875Q398.71875 43.015625 398.71875 40.03125Q398.71875 37.171875 397.45312 35.734375Q396.1875 34.28125 394.39062 34.28125Q392.64062 34.28125 391.40625 35.703125Q390.17188 37.125 390.17188 39.9375ZM405.5 29.5625L405.5 26.53125L408.125 26.53125L408.125 29.5625L405.5 29.5625ZM405.5 48.0L405.5 32.4375L408.125 32.4375L408.125 48.0L405.5 48.0ZM423.125 42.984375L425.85938 43.328125Q425.20312 45.71875 423.45312 47.046875Q421.71875 48.359375 419.01562 48.359375Q415.59375 48.359375 413.59375 46.25Q411.59375 44.140625 411.59375 40.359375Q411.59375 36.421875 413.60938 34.265625Q415.64062 32.09375 418.85938 32.09375Q421.98438 32.09375 423.95312 34.21875Q425.9375 36.34375 425.9375 40.1875Q425.9375 40.421875 425.92188 40.890625L414.32812 40.890625Q414.46875 43.453125 415.76562 44.828125Q417.07812 46.1875 419.03125 46.1875Q420.46875 46.1875 421.5 45.421875Q422.53125 44.65625 423.125 42.984375ZM414.46875 38.734375L423.15625 38.734375Q422.98438 36.765625 422.15625 35.78125Q420.90625 34.265625 418.89062 34.265625Q417.07812 34.265625 415.84375 35.484375Q414.60938 36.6875 414.46875 38.734375ZM417.75 30.515625L419.70312 26.40625L423.15625 26.40625L419.9375 30.515625L417.75 30.515625ZM440.125 42.984375L442.85938 43.328125Q442.20312 45.71875 440.45312 47.046875Q438.71875 48.359375 436.01562 48.359375Q432.59375 48.359375 430.59375 46.25Q428.59375 44.140625 428.59375 40.359375Q428.59375 36.421875 430.60938 34.265625Q432.64062 32.09375 435.85938 32.09375Q438.98438 32.09375 440.95312 34.21875Q442.9375 36.34375 442.9375 40.1875Q442.9375 40.421875 442.92188 40.890625L431.32812 40.890625Q431.46875 43.453125 432.76562 44.828125Q434.07812 46.1875 436.03125 46.1875Q437.46875 46.1875 438.5 45.421875Q439.53125 44.65625 440.125 42.984375ZM431.46875 38.734375L440.15625 38.734375Q439.98438 36.765625 439.15625 35.78125Q437.90625 34.265625 435.89062 34.265625Q434.07812 34.265625 432.84375 35.484375Q431.60938 36.6875 431.46875 38.734375Z" fill-rule="nonzero"/></svg>