<svg version="1.1" viewBox="0.0 0.0 613.0 400.0" fill="none" stroke="none" stroke-linecap="square" stroke-miterlimit="10" width="613" height="400" xmlns:xlink="http://www.w3.org/1999/xlink" xmlns="http://www.w3.org/2000/svg"><path fill="#ffffff" d="M0 0L613.0 0L613.0 400.0L0 400.0L0 0Z" fill-rule="nonzero"/><path fill="#fbbc04" d="M144.99756 83.765686C166.09009 73.60806 189.20018 68.333336 212.61111 68.333336L212.61111 224.16667Z" fill-rule="nonzero"/><path fill="#ea4335" d="M90.7757 321.32715C61.207375 284.24963 50.13203 235.72539 60.684845 189.4905C71.23766 143.25558 102.27009 104.342155 144.99756 83.765686L212.61111 224.16667Z" fill-rule="nonzero"/><path fill="#4285f4" d="M212.61111 68.333336C285.3157 68.333336 348.35907 118.60876 364.53738 189.4905C380.71567 260.37222 345.72922 333.0223 280.22467 364.56766C214.7201 396.11298 136.10628 378.1699 90.7757 321.32715L212.61111 224.16667Z" fill-rule="nonzero"/><path fill="#000000" d="M250.95372 266.98157L252.64122 266.82532Q252.85997 268.01282 253.45372 268.5597Q254.0631 269.09094 255.01622 269.09094Q255.82872 269.09094 256.4381 268.73157Q257.0475 268.35657 257.4381 267.73157Q257.82874 267.10657 258.09436 266.0597Q258.36 264.9972 258.36 263.90344Q258.36 263.79407 258.34436 263.5597Q257.8131 264.38782 256.90686 264.91907Q256.0006 265.4347 254.92247 265.4347Q253.15685 265.4347 251.92247 264.15344Q250.6881 262.85657 250.6881 260.7472Q250.6881 258.57532 251.96935 257.2472Q253.26622 255.91907 255.1881 255.91907Q256.59436 255.91907 257.7506 256.66907Q258.90686 257.41907 259.5006 258.8097Q260.11 260.20032 260.11 262.84094Q260.11 265.59094 259.5006 267.21594Q258.90686 268.84094 257.735 269.70032Q256.5631 270.54407 254.98497 270.54407Q253.29747 270.54407 252.23497 269.60657Q251.17247 268.66907 250.95372 266.98157ZM258.15686 260.66907Q258.15686 259.15344 257.34436 258.26282Q256.5475 257.3722 255.40685 257.3722Q254.23497 257.3722 253.35997 258.34094Q252.5006 259.29407 252.5006 260.8097Q252.5006 262.1847 253.3131 263.04407Q254.14122 263.88782 255.35997 263.88782Q256.57874 263.88782 257.36 263.04407Q258.15686 262.1847 258.15686 260.66907ZM271.53186 274.4972Q270.07874 272.66907 269.07874 270.21594Q268.07874 267.7472 268.07874 265.10657Q268.07874 262.77844 268.82874 260.65344Q269.70374 258.1847 271.53186 255.73157L272.7975 255.73157Q271.61 257.76282 271.235 258.63782Q270.64124 259.98157 270.2975 261.45032Q269.8756 263.27844 269.8756 265.1222Q269.8756 269.8097 272.7975 274.4972L271.53186 274.4972ZM283.8131 259.48157L282.0631 259.6222Q281.82874 258.59094 281.40686 258.1222Q280.6881 257.35657 279.64124 257.35657Q278.7975 257.35657 278.1725 257.82532Q277.34436 258.4347 276.86 259.60657Q276.3756 260.76282 276.36 262.90344Q277.0006 261.95032 277.90686 261.48157Q278.82874 261.01282 279.84436 261.01282Q281.59436 261.01282 282.82874 262.3097Q284.0631 263.59094 284.0631 265.63782Q284.0631 266.9972 283.485 268.15344Q282.90686 269.3097 281.89124 269.9347Q280.8756 270.54407 279.57874 270.54407Q277.39124 270.54407 276.0006 268.9347Q274.61 267.3097 274.61 263.59094Q274.61 259.45032 276.14124 257.5597Q277.485 255.91907 279.7506 255.91907Q281.4381 255.91907 282.51624 256.8722Q283.59436 257.8097 283.8131 259.48157ZM276.64124 265.65344Q276.64124 266.5597 277.01624 267.38782Q277.40686 268.21594 278.09436 268.65344Q278.7975 269.09094 279.5475 269.09094Q280.6725 269.09094 281.46936 268.20032Q282.26624 267.29407 282.26624 265.7472Q282.26624 264.26282 281.46936 263.41907Q280.6881 262.5597 279.485 262.5597Q278.2975 262.5597 277.46936 263.41907Q276.64124 264.26282 276.64124 265.65344ZM291.32874 270.29407L291.32874 266.8722L285.11 266.8722L285.11 265.2472L291.64124 255.98157L293.07874 255.98157L293.07874 265.2472L295.01624 265.2472L295.01624 266.8722L293.07874 266.8722L293.07874 270.29407L291.32874 270.29407ZM291.32874 265.2472L291.32874 258.79407L286.84436 265.2472L291.32874 265.2472ZM297.64124 270.29407L297.64124 268.29407L299.64124 268.29407L299.64124 270.29407Q299.64124 271.40344 299.2506 272.07532Q298.86 272.76282 298.01624 273.1222L297.51624 272.3722Q298.07874 272.13782 298.34436 271.65344Q298.61 271.1847 298.64124 270.29407L297.64124 270.29407ZM302.70374 266.51282L304.45374 266.27844Q304.76624 267.77844 305.485 268.4347Q306.21936 269.09094 307.26624 269.09094Q308.5006 269.09094 309.34436 268.23157Q310.20374 267.3722 310.20374 266.10657Q310.20374 264.88782 309.40686 264.10657Q308.6256 263.32532 307.40686 263.32532Q306.90686 263.32532 306.1725 263.51282L306.36 261.96594Q306.53186 261.9972 306.64124 261.9972Q307.76624 261.9972 308.65686 261.41907Q309.5631 260.82532 309.5631 259.60657Q309.5631 258.63782 308.90686 257.9972Q308.2506 257.35657 307.21936 257.35657Q306.20374 257.35657 305.51624 258.01282Q304.82874 258.65344 304.64124 259.9347L302.8756 259.6222Q303.20374 257.85657 304.34436 256.88782Q305.485 255.91907 307.1881 255.91907Q308.36 255.91907 309.34436 256.41907Q310.32874 256.91907 310.84436 257.79407Q311.3756 258.66907 311.3756 259.63782Q311.3756 260.5597 310.8756 261.32532Q310.3756 262.09094 309.40686 262.54407Q310.6725 262.82532 311.3756 263.76282Q312.07874 264.6847 312.07874 266.0597Q312.07874 267.9347 310.70374 269.2472Q309.34436 270.54407 307.2506 270.54407Q305.36 270.54407 304.11 269.41907Q302.8756 268.29407 302.70374 266.51282ZM314.01624 259.41907Q314.01624 257.88782 314.78186 256.8097Q315.5631 255.73157 317.03186 255.73157Q318.3756 255.73157 319.2506 256.70032Q320.14124 257.65344 320.14124 259.52844Q320.14124 261.34094 319.2506 262.32532Q318.36 263.29407 317.0475 263.29407Q315.7506 263.29407 314.8756 262.34094Q314.01624 261.3722 314.01624 259.41907ZM317.07874 256.95032Q316.4225 256.95032 315.985 257.51282Q315.5631 258.07532 315.5631 259.59094Q315.5631 260.96594 316.0006 261.52844Q316.4381 262.09094 317.07874 262.09094Q317.7506 262.09094 318.1725 261.52844Q318.61 260.95032 318.61 259.45032Q318.61 258.0597 318.1725 257.51282Q317.735 256.95032 317.07874 256.95032ZM317.09436 270.82532L324.9225 255.73157L326.34436 255.73157L318.5475 270.82532L317.09436 270.82532ZM323.28186 266.9347Q323.28186 265.38782 324.0475 264.32532Q324.82874 263.2472 326.2975 263.2472Q327.64124 263.2472 328.51624 264.21594Q329.40686 265.16907 329.40686 267.04407Q329.40686 268.85657 328.51624 269.84094Q327.6256 270.82532 326.3131 270.82532Q325.01624 270.82532 324.14124 269.85657Q323.28186 268.8722 323.28186 266.9347ZM326.34436 264.46594Q325.6881 264.46594 325.2506 265.02844Q324.8131 265.59094 324.8131 267.10657Q324.8131 268.48157 325.2506 269.04407Q325.6881 269.60657 326.34436 269.60657Q327.01624 269.60657 327.4381 269.04407Q327.8756 268.48157 327.8756 266.96594Q327.8756 265.59094 327.4381 265.02844Q327.0006 264.46594 326.34436 264.46594ZM333.32874 274.4972L332.07874 274.4972Q334.985 269.8097 334.985 265.1222Q334.985 263.27844 334.57874 261.48157Q334.235 260.01282 333.64124 258.66907Q333.26624 257.77844 332.07874 255.73157L333.32874 255.73157Q335.1725 258.1847 336.0475 260.65344Q336.7975 262.77844 336.7975 265.10657Q336.7975 267.7472 335.78186 270.21594Q334.78186 272.66907 333.32874 274.4972Z" fill-rule="nonzero"/><path fill="#000000" d="M86.35313 210.91537L86.35313 207.4935L80.13438 207.4935L80.13438 205.8685L86.66563 196.60287L88.10313 196.60287L88.10313 205.8685L90.04063 205.8685L90.04063 207.4935L88.10313 207.4935L88.10313 210.91537L86.35313 210.91537ZM86.35313 205.8685L86.35313 199.41537L81.86875 205.8685L86.35313 205.8685ZM101.55625 215.1185Q100.10313 213.29037 99.10313 210.83725Q98.10313 208.3685 98.10313 205.72787Q98.10313 203.39975 98.85313 201.27475Q99.72813 198.806 101.55625 196.35287L102.82188 196.35287Q101.63438 198.38412 101.25938 199.25912Q100.66563 200.60287 100.32188 202.07162Q99.9 203.89975 99.9 205.7435Q99.9 210.431 102.82188 215.1185L101.55625 215.1185ZM113.94688 209.22787L113.94688 210.91537L104.49375 210.91537Q104.47813 210.27475 104.69688 209.69662Q105.05625 208.72787 105.85313 207.79037Q106.65 206.85287 108.15 205.6185Q110.49375 203.71225 111.30625 202.60287Q112.13438 201.47787 112.13438 200.47787Q112.13438 199.431 111.38438 198.71225Q110.63438 197.9935 109.43125 197.9935Q108.16563 197.9935 107.4 198.75912Q106.63438 199.52475 106.63438 200.8685L104.82188 200.681Q105.00938 198.66537 106.2125 197.60287Q107.43125 196.54037 109.47813 196.54037Q111.525 196.54037 112.72813 197.681Q113.93125 198.82162 113.93125 200.50912Q113.93125 201.3685 113.57188 202.21225Q113.22813 203.04037 112.41563 203.96225Q111.60313 204.8685 109.7125 206.47787Q108.11875 207.806 107.66563 208.27475Q107.22813 208.7435 106.93125 209.22787L113.94688 209.22787ZM118.41563 203.14975Q117.32188 202.7435 116.79063 202.00912Q116.275 201.25912 116.275 200.22787Q116.275 198.66537 117.4 197.60287Q118.525 196.54037 120.38438 196.54037Q122.25938 196.54037 123.4 197.63412Q124.54063 198.71225 124.54063 200.27475Q124.54063 201.27475 124.00938 202.00912Q123.49375 202.7435 122.43125 203.14975Q123.75938 203.58725 124.44688 204.54037Q125.13438 205.4935 125.13438 206.82162Q125.13438 208.66537 123.82188 209.91537Q122.525 211.16537 120.41563 211.16537Q118.29063 211.16537 116.99375 209.91537Q115.69688 208.64975 115.69688 206.77475Q115.69688 205.38412 116.4 204.44662Q117.11875 203.4935 118.41563 203.14975ZM118.07188 200.16537Q118.07188 201.181 118.72813 201.83725Q119.38438 202.47787 120.41563 202.47787Q121.43125 202.47787 122.0875 201.83725Q122.74375 201.19662 122.74375 200.27475Q122.74375 199.306 122.07188 198.64975Q121.4 197.97787 120.4 197.97787Q119.4 197.97787 118.72813 198.63412Q118.07188 199.27475 118.07188 200.16537ZM117.50938 206.79037Q117.50938 207.54037 117.85313 208.2435Q118.2125 208.94662 118.91563 209.33725Q119.61875 209.71225 120.43125 209.71225Q121.69688 209.71225 122.50938 208.89975Q123.3375 208.08725 123.3375 206.83725Q123.3375 205.57162 122.49375 204.7435Q121.65 203.91537 120.36875 203.91537Q119.13438 203.91537 118.32188 204.7435Q117.50938 205.556 117.50938 206.79037ZM127.66563 210.91537L127.66563 208.91537L129.66562 208.91537L129.66562 210.91537Q129.66562 212.02475 129.275 212.69662Q128.88437 213.38412 128.04062 213.7435L127.54063 212.9935Q128.10312 212.75912 128.36874 212.27475Q128.63437 211.806 128.66562 210.91537L127.66563 210.91537ZM141.8375 200.10287L140.0875 200.2435Q139.85312 199.21225 139.43124 198.7435Q138.7125 197.97787 137.66562 197.97787Q136.82187 197.97787 136.19687 198.44662Q135.36874 199.056 134.88437 200.22787Q134.4 201.38412 134.38437 203.52475Q135.025 202.57162 135.93124 202.10287Q136.85312 201.63412 137.86874 201.63412Q139.61874 201.63412 140.85312 202.931Q142.0875 204.21225 142.0875 206.25912Q142.0875 207.6185 141.50937 208.77475Q140.93124 209.931 139.91562 210.556Q138.9 211.16537 137.60312 211.16537Q135.41562 211.16537 134.025 209.556Q132.63437 207.931 132.63437 204.21225Q132.63437 200.07162 134.16562 198.181Q135.50937 196.54037 137.775 196.54037Q139.4625 196.54037 140.54062 197.4935Q141.61874 198.431 141.8375 200.10287ZM134.66562 206.27475Q134.66562 207.181 135.04062 208.00912Q135.43124 208.83725 136.11874 209.27475Q136.82187 209.71225 137.57187 209.71225Q138.69687 209.71225 139.49374 208.82162Q140.29062 207.91537 140.29062 206.3685Q140.29062 204.88412 139.49374 204.04037Q138.7125 203.181 137.50937 203.181Q136.32187 203.181 135.49374 204.04037Q134.66562 204.88412 134.66562 206.27475ZM144.04062 200.04037Q144.04062 198.50912 144.80624 197.431Q145.5875 196.35287 147.05624 196.35287Q148.4 196.35287 149.275 197.32162Q150.16562 198.27475 150.16562 200.14975Q150.16562 201.96225 149.275 202.94662Q148.38437 203.91537 147.07187 203.91537Q145.775 203.91537 144.9 202.96225Q144.04062 201.9935 144.04062 200.04037ZM147.10312 197.57162Q146.44687 197.57162 146.00937 198.13412Q145.5875 198.69662 145.5875 200.21225Q145.5875 201.58725 146.025 202.14975Q146.4625 202.71225 147.10312 202.71225Q147.775 202.71225 148.19687 202.14975Q148.63437 201.57162 148.63437 200.07162Q148.63437 198.681 148.19687 198.13412Q147.75937 197.57162 147.10312 197.57162ZM147.11874 211.44662L154.94687 196.35287L156.36874 196.35287L148.57187 211.44662L147.11874 211.44662ZM153.30624 207.556Q153.30624 206.00912 154.07187 204.94662Q154.85312 203.8685 156.32187 203.8685Q157.66562 203.8685 158.54062 204.83725Q159.43124 205.79037 159.43124 207.66537Q159.43124 209.47787 158.54062 210.46225Q157.65 211.44662 156.3375 211.44662Q155.04062 211.44662 154.16562 210.47787Q153.30624 209.4935 153.30624 207.556ZM156.36874 205.08725Q155.7125 205.08725 155.275 205.64975Q154.8375 206.21225 154.8375 207.72787Q154.8375 209.10287 155.275 209.66537Q155.7125 210.22787 156.36874 210.22787Q157.04062 210.22787 157.4625 209.66537Q157.9 209.10287 157.9 207.58725Q157.9 206.21225 157.4625 205.64975Q157.025 205.08725 156.36874 205.08725ZM163.35312 215.1185L162.10312 215.1185Q165.00937 210.431 165.00937 205.7435Q165.00937 203.89975 164.60312 202.10287Q164.25937 200.63412 163.66562 199.29037Q163.29062 198.39975 162.10312 196.35287L163.35312 196.35287Q165.19687 198.806 166.07187 201.27475Q166.82187 203.39975 166.82187 205.72787Q166.82187 208.3685 165.80624 210.83725Q164.80624 213.29037 163.35312 215.1185Z" fill-rule="nonzero"/><path fill="#4285f4" d="M438.0 82.333336C438.0 85.64704 435.31372 88.333336 432.0 88.333336C428.68628 88.333336 426.0 85.64704 426.0 82.333336C426.0 79.01962 428.68628 76.333336 432.0 76.333336C435.31372 76.333336 438.0 79.01962 438.0 82.333336Z" fill-rule="nonzero"/><path fill="#1a1a1a" d="M448.23438 90.333336L448.23438 73.145836L450.51562 73.145836L450.51562 90.333336L448.23438 90.333336ZM454.57812 90.333336L454.57812 77.88021L456.46875 77.88021L456.46875 79.63021Q457.0625 78.72396 458.03125 78.16146Q459.0 77.59896 460.25 77.59896Q461.625 77.59896 462.5 78.177086Q463.39062 78.75521 463.76562 79.78646Q465.23438 77.59896 467.60938 77.59896Q469.45312 77.59896 470.45312 78.63021Q471.45312 79.66146 471.45312 81.78646L471.45312 90.333336L469.34375 90.333336L469.34375 82.489586Q469.34375 81.22396 469.14062 80.677086Q468.9375 80.114586 468.39062 79.770836Q467.85938 79.427086 467.14062 79.427086Q465.82812 79.427086 464.95312 80.302086Q464.09375 81.177086 464.09375 83.09896L464.09375 90.333336L461.98438 90.333336L461.98438 82.239586Q461.98438 80.833336 461.46875 80.13021Q460.95312 79.427086 459.78125 79.427086Q458.89062 79.427086 458.125 79.895836Q457.375 80.364586 457.03125 81.270836Q456.6875 82.177086 456.6875 83.88021L456.6875 90.333336L454.57812 90.333336ZM474.57812 95.09896L474.57812 77.88021L476.5 77.88021L476.5 79.50521Q477.1875 78.552086 478.03125 78.083336Q478.89062 77.59896 480.10938 77.59896Q481.70312 77.59896 482.92188 78.427086Q484.14062 79.239586 484.76562 80.739586Q485.39062 82.239586 485.39062 84.020836Q485.39062 85.927086 484.70312 87.458336Q484.01562 88.989586 482.70312 89.802086Q481.40625 90.614586 479.96875 90.614586Q478.90625 90.614586 478.0625 90.177086Q477.23438 89.72396 476.6875 89.03646L476.6875 95.09896L474.57812 95.09896ZM476.5 84.177086Q476.5 86.583336 477.46875 87.739586Q478.4375 88.88021 479.82812 88.88021Q481.23438 88.88021 482.23438 87.69271Q483.23438 86.50521 483.23438 84.00521Q483.23438 81.63021 482.25 80.44271Q481.28125 79.25521 479.92188 79.25521Q478.5625 79.25521 477.53125 80.520836Q476.5 81.770836 476.5 84.177086ZM486.79688 84.114586Q486.79688 80.645836 488.71875 78.989586Q490.32812 77.59896 492.64062 77.59896Q495.20312 77.59896 496.82812 79.28646Q498.45312 80.97396 498.45312 83.927086Q498.45312 86.333336 497.73438 87.708336Q497.01562 89.083336 495.64062 89.84896Q494.26562 90.614586 492.64062 90.614586Q490.01562 90.614586 488.40625 88.94271Q486.79688 87.25521 486.79688 84.114586ZM488.96875 84.114586Q488.96875 86.50521 490.0 87.69271Q491.04688 88.88021 492.64062 88.88021Q494.20312 88.88021 495.25 87.69271Q496.29688 86.489586 496.29688 84.03646Q496.29688 81.72396 495.23438 80.53646Q494.1875 79.34896 492.64062 79.34896Q491.04688 79.34896 490.0 80.53646Q488.96875 81.72396 488.96875 84.114586ZM500.5625 90.333336L500.5625 77.88021L502.45312 77.88021L502.45312 79.770836Q503.1875 78.44271 503.79688 78.020836Q504.42188 77.59896 505.15625 77.59896Q506.21875 77.59896 507.32812 78.28646L506.59375 80.239586Q505.82812 79.78646 505.04688 79.78646Q504.35938 79.78646 503.79688 80.208336Q503.25 80.614586 503.01562 81.34896Q502.67188 82.47396 502.67188 83.81771L502.67188 90.333336L500.5625 90.333336ZM513.1875 88.44271L513.5 90.302086Q512.6094 90.50521 511.90625 90.50521Q510.75 90.50521 510.10938 90.145836Q509.48438 89.770836 509.21875 89.177086Q508.96875 88.583336 508.96875 86.69271L508.96875 79.520836L507.42188 79.520836L507.42188 77.88021L508.96875 77.88021L508.96875 74.802086L511.0625 73.53646L511.0625 77.88021L513.1875 77.88021L513.1875 79.520836L511.0625 79.520836L511.0625 86.802086Q511.0625 87.708336 511.17188 87.97396Q511.29688 88.22396 511.54688 88.38021Q511.79688 88.520836 512.2656 88.520836Q512.6094 88.520836 513.1875 88.44271ZM523.7031 88.802086Q522.53125 89.78646 521.4375 90.208336Q520.3594 90.614586 519.125 90.614586Q517.0781 90.614586 515.96875 89.614586Q514.875 88.614586 514.875 87.052086Q514.875 86.13021 515.28125 85.38021Q515.7031 84.63021 516.375 84.177086Q517.0469 83.708336 517.8906 83.47396Q518.5156 83.31771 519.7656 83.16146Q522.3281 82.84896 523.53125 82.427086Q523.5469 82.00521 523.5469 81.88021Q523.5469 80.59896 522.9375 80.06771Q522.1406 79.34896 520.5469 79.34896Q519.0469 79.34896 518.34375 79.88021Q517.6406 80.395836 517.2969 81.72396L515.2344 81.44271Q515.5156 80.114586 516.15625 79.302086Q516.7969 78.489586 518.0156 78.052086Q519.2344 77.59896 520.84375 77.59896Q522.4375 77.59896 523.4375 77.97396Q524.4375 78.34896 524.90625 78.927086Q525.375 79.489586 525.5625 80.364586Q525.65625 80.895836 525.65625 82.302086L525.65625 85.114586Q525.65625 88.052086 525.7969 88.833336Q525.9375 89.614586 526.3281 90.333336L524.125 90.333336Q523.7969 89.677086 523.7031 88.802086ZM523.53125 84.083336Q522.375 84.552086 520.0781 84.88021Q518.78125 85.06771 518.2344 85.302086Q517.7031 85.53646 517.40625 85.989586Q517.125 86.44271 517.125 86.989586Q517.125 87.833336 517.75 88.395836Q518.3906 88.958336 519.625 88.958336Q520.84375 88.958336 521.7969 88.427086Q522.75 87.895836 523.1875 86.97396Q523.53125 86.25521 523.53125 84.864586L523.53125 84.083336ZM528.5781 90.333336L528.5781 77.88021L530.4844 77.88021L530.4844 79.66146Q531.8594 77.59896 534.4375 77.59896Q535.5625 77.59896 536.5 78.00521Q537.4531 78.41146 537.9219 79.06771Q538.3906 79.72396 538.5781 80.63021Q538.7031 81.208336 538.7031 82.677086L538.7031 90.333336L536.59375 90.333336L536.59375 82.75521Q536.59375 81.47396 536.34375 80.833336Q536.09375 80.19271 535.46875 79.81771Q534.84375 79.427086 534.0 79.427086Q532.65625 79.427086 531.6719 80.28646Q530.6875 81.145836 530.6875 83.53646L530.6875 90.333336L528.5781 90.333336ZM546.1875 88.44271L546.5 90.302086Q545.6094 90.50521 544.90625 90.50521Q543.75 90.50521 543.1094 90.145836Q542.4844 89.770836 542.21875 89.177086Q541.96875 88.583336 541.96875 86.69271L541.96875 79.520836L540.4219 79.520836L540.4219 77.88021L541.96875 77.88021L541.96875 74.802086L544.0625 73.53646L544.0625 77.88021L546.1875 77.88021L546.1875 79.520836L544.0625 79.520836L544.0625 86.802086Q544.0625 87.708336 544.1719 87.97396Q544.2969 88.22396 544.5469 88.38021Q544.7969 88.520836 545.2656 88.520836Q545.6094 88.520836 546.1875 88.44271Z" fill-rule="nonzero"/><path fill="#ea4335" d="M438.0 120.333336C438.0 123.64704 435.31372 126.333336 432.0 126.333336C428.68628 126.333336 426.0 123.64704 426.0 120.333336C426.0 117.01962 428.68628 114.333336 432.0 114.333336C435.31372 114.333336 438.0 117.01962 438.0 120.333336Z" fill-rule="nonzero"/><path fill="#1a1a1a" d="M447.85938 128.33333L447.85938 111.14583L454.32812 111.14583Q456.04688 111.14583 456.95312 111.3177Q458.21875 111.52083 459.0625 112.11458Q459.92188 112.70833 460.4375 113.78645Q460.96875 114.84895 460.96875 116.11458Q460.96875 118.3177 459.5625 119.83333Q458.17188 121.34895 454.53125 121.34895L450.125 121.34895L450.125 128.33333L447.85938 128.33333ZM450.125 119.3177L454.5625 119.3177Q456.76562 119.3177 457.6875 118.5052Q458.625 117.67708 458.625 116.1927Q458.625 115.11458 458.07812 114.34895Q457.53125 113.58333 456.64062 113.33333Q456.0625 113.17708 454.51562 113.17708L450.125 113.17708L450.125 119.3177ZM471.70312 126.80208Q470.53125 127.78645 469.4375 128.20833Q468.35938 128.61458 467.125 128.61458Q465.07812 128.61458 463.96875 127.61458Q462.875 126.61458 462.875 125.05208Q462.875 124.1302 463.28125 123.3802Q463.70312 122.6302 464.375 122.17708Q465.04688 121.70833 465.89062 121.47395Q466.51562 121.3177 467.76562 121.16145Q470.32812 120.84895 471.53125 120.42708Q471.54688 120.0052 471.54688 119.8802Q471.54688 118.59895 470.9375 118.0677Q470.14062 117.34895 468.54688 117.34895Q467.04688 117.34895 466.34375 117.8802Q465.64062 118.39583 465.29688 119.72395L463.23438 119.4427Q463.51562 118.11458 464.15625 117.30208Q464.79688 116.48958 466.01562 116.05208Q467.23438 115.59895 468.84375 115.59895Q470.4375 115.59895 471.4375 115.97395Q472.4375 116.34895 472.90625 116.92708Q473.375 117.48958 473.5625 118.36458Q473.65625 118.89583 473.65625 120.30208L473.65625 123.11458Q473.65625 126.05208 473.79688 126.83333Q473.9375 127.61458 474.32812 128.33333L472.125 128.33333Q471.79688 127.67708 471.70312 126.80208ZM471.53125 122.08333Q470.375 122.55208 468.07812 122.8802Q466.78125 123.0677 466.23438 123.30208Q465.70312 123.53645 465.40625 123.98958Q465.125 124.4427 465.125 124.98958Q465.125 125.83333 465.75 126.39583Q466.39062 126.95833 467.625 126.95833Q468.84375 126.95833 469.79688 126.42708Q470.75 125.89583 471.1875 124.97395Q471.53125 124.2552 471.53125 122.86458L471.53125 122.08333ZM475.73438 124.61458L477.82812 124.28645Q478.0 125.53645 478.79688 126.20833Q479.60938 126.8802 481.04688 126.8802Q482.5 126.8802 483.20312 126.28645Q483.90625 125.6927 483.90625 124.89583Q483.90625 124.17708 483.28125 123.77083Q482.85938 123.48958 481.125 123.05208Q478.8125 122.47395 477.90625 122.05208Q477.01562 121.61458 476.54688 120.86458Q476.09375 120.09895 476.09375 119.1927Q476.09375 118.36458 476.46875 117.66145Q476.85938 116.9427 477.51562 116.47395Q478.0 116.11458 478.84375 115.86458Q479.70312 115.59895 480.67188 115.59895Q482.14062 115.59895 483.25 116.02083Q484.35938 116.4427 484.875 117.17708Q485.40625 117.89583 485.60938 119.09895L483.54688 119.3802Q483.40625 118.41145 482.73438 117.8802Q482.0625 117.33333 480.82812 117.33333Q479.375 117.33333 478.75 117.8177Q478.125 118.30208 478.125 118.9427Q478.125 119.34895 478.39062 119.67708Q478.64062 120.02083 479.20312 120.23958Q479.51562 120.36458 481.0625 120.78645Q483.29688 121.3802 484.17188 121.77083Q485.0625 122.14583 485.5625 122.8802Q486.07812 123.59895 486.07812 124.67708Q486.07812 125.72395 485.45312 126.66145Q484.84375 127.59895 483.6875 128.11458Q482.53125 128.61458 481.0625 128.61458Q478.64062 128.61458 477.35938 127.61458Q476.09375 126.59895 475.73438 124.61458ZM495.59375 113.58333L495.59375 111.14583L497.70312 111.14583L497.70312 113.58333L495.59375 113.58333ZM495.59375 128.33333L495.59375 115.8802L497.70312 115.8802L497.70312 128.33333L495.59375 128.33333ZM500.57812 128.33333L500.57812 115.8802L502.46875 115.8802L502.46875 117.6302Q503.0625 116.72395 504.03125 116.16145Q505.0 115.59895 506.25 115.59895Q507.625 115.59895 508.5 116.17708Q509.39062 116.7552 509.76562 117.78645Q511.23438 115.59895 513.6094 115.59895Q515.4531 115.59895 516.4531 116.6302Q517.4531 117.66145 517.4531 119.78645L517.4531 128.33333L515.34375 128.33333L515.34375 120.48958Q515.34375 119.22395 515.1406 118.67708Q514.9375 118.11458 514.3906 117.77083Q513.8594 117.42708 513.1406 117.42708Q511.82812 117.42708 510.95312 118.30208Q510.09375 119.17708 510.09375 121.09895L510.09375 128.33333L507.98438 128.33333L507.98438 120.23958Q507.98438 118.83333 507.46875 118.1302Q506.95312 117.42708 505.78125 117.42708Q504.89062 117.42708 504.125 117.89583Q503.375 118.36458 503.03125 119.27083Q502.6875 120.17708 502.6875 121.8802L502.6875 128.33333L500.57812 128.33333ZM520.5781 133.09895L520.5781 115.8802L522.5 115.8802L522.5 117.5052Q523.1875 116.55208 524.03125 116.08333Q524.8906 115.59895 526.1094 115.59895Q527.7031 115.59895 528.9219 116.42708Q530.1406 117.23958 530.7656 118.73958Q531.3906 120.23958 531.3906 122.02083Q531.3906 123.92708 530.7031 125.45833Q530.0156 126.98958 528.7031 127.80208Q527.40625 128.61458 525.96875 128.61458Q524.90625 128.61458 524.0625 128.17708Q523.2344 127.72395 522.6875 127.03645L522.6875 133.09895L520.5781 133.09895ZM522.5 122.17708Q522.5 124.58333 523.46875 125.73958Q524.4375 126.8802 525.8281 126.8802Q527.2344 126.8802 528.2344 125.6927Q529.2344 124.5052 529.2344 122.0052Q529.2344 119.6302 528.25 118.4427Q527.28125 117.2552 525.9219 117.2552Q524.5625 117.2552 523.53125 118.52083Q522.5 119.77083 522.5 122.17708ZM532.7969 122.11458Q532.7969 118.64583 534.71875 116.98958Q536.3281 115.59895 538.6406 115.59895Q541.2031 115.59895 542.8281 117.28645Q544.4531 118.97395 544.4531 121.92708Q544.4531 124.33333 543.7344 125.70833Q543.0156 127.08333 541.6406 127.84895Q540.2656 128.61458 538.6406 128.61458Q536.0156 128.61458 534.40625 126.9427Q532.7969 125.2552 532.7969 122.11458ZM534.96875 122.11458Q534.96875 124.5052 536.0 125.6927Q537.0469 126.8802 538.6406 126.8802Q540.2031 126.8802 541.25 125.6927Q542.2969 124.48958 542.2969 122.03645Q542.2969 119.72395 541.2344 118.53645Q540.1875 117.34895 538.6406 117.34895Q537.0469 117.34895 536.0 118.53645Q534.96875 119.72395 534.96875 122.11458ZM546.5625 128.33333L546.5625 115.8802L548.4531 115.8802L548.4531 117.77083Q549.1875 116.4427 549.7969 116.02083Q550.4219 115.59895 551.15625 115.59895Q552.21875 115.59895 553.3281 116.28645L552.59375 118.23958Q551.8281 117.78645 551.0469 117.78645Q550.3594 117.78645 549.7969 118.20833Q549.25 118.61458 549.0156 119.34895Q548.6719 120.47395 548.6719 121.8177L548.6719 128.33333L546.5625 128.33333ZM559.1875 126.4427L559.5 128.30208Q558.6094 128.5052 557.90625 128.5052Q556.75 128.5052 556.1094 128.14583Q555.4844 127.77083 555.21875 127.17708Q554.96875 126.58333 554.96875 124.6927L554.96875 117.52083L553.4219 117.52083L553.4219 115.8802L554.96875 115.8802L554.96875 112.80208L557.0625 111.53645L557.0625 115.8802L559.1875 115.8802L559.1875 117.52083L557.0625 117.52083L557.0625 124.80208Q557.0625 125.70833 557.1719 125.97395Q557.2969 126.22395 557.5469 126.3802Q557.7969 126.52083 558.2656 126.52083Q558.6094 126.52083 559.1875 126.4427ZM569.7031 126.80208Q568.53125 127.78645 567.4375 128.20833Q566.3594 128.61458 565.125 128.61458Q563.0781 128.61458 561.96875 127.61458Q560.875 126.61458 560.875 125.05208Q560.875 124.1302 561.28125 123.3802Q561.7031 122.6302 562.375 122.17708Q563.0469 121.70833 563.8906 121.47395Q564.5156 121.3177 565.7656 121.16145Q568.3281 120.84895 569.53125 120.42708Q569.5469 120.0052 569.5469 119.8802Q569.5469 118.59895 568.9375 118.0677Q568.1406 117.34895 566.5469 117.34895Q565.0469 117.34895 564.34375 117.8802Q563.6406 118.39583 563.2969 119.72395L561.2344 119.4427Q561.5156 118.11458 562.15625 117.30208Q562.7969 116.48958 564.0156 116.05208Q565.2344 115.59895 566.84375 115.59895Q568.4375 115.59895 569.4375 115.97395Q570.4375 116.34895 570.90625 116.92708Q571.375 117.48958 571.5625 118.36458Q571.65625 118.89583 571.65625 120.30208L571.65625 123.11458Q571.65625 126.05208 571.7969 126.83333Q571.9375 127.61458 572.3281 128.33333L570.125 128.33333Q569.7969 127.67708 569.7031 126.80208ZM569.53125 122.08333Q568.375 122.55208 566.0781 122.8802Q564.78125 123.0677 564.2344 123.30208Q563.7031 123.53645 563.40625 123.98958Q563.125 124.4427 563.125 124.98958Q563.125 125.83333 563.75 126.39583Q564.3906 126.95833 565.625 126.95833Q566.84375 126.95833 567.7969 126.42708Q568.75 125.89583 569.1875 124.97395Q569.53125 124.2552 569.53125 122.86458L569.53125 122.08333ZM574.5781 128.33333L574.5781 115.8802L576.4844 115.8802L576.4844 117.66145Q577.8594 115.59895 580.4375 115.59895Q581.5625 115.59895 582.5 116.0052Q583.4531 116.41145 583.9219 117.0677Q584.3906 117.72395 584.5781 118.6302Q584.7031 119.20833 584.7031 120.67708L584.7031 128.33333L582.59375 128.33333L582.59375 120.7552Q582.59375 119.47395 582.34375 118.83333Q582.09375 118.1927 581.46875 117.8177Q580.84375 117.42708 580.0 117.42708Q578.65625 117.42708 577.6719 118.28645Q576.6875 119.14583 576.6875 121.53645L576.6875 128.33333L574.5781 128.33333ZM592.1875 126.4427L592.5 128.30208Q591.6094 128.5052 590.90625 128.5052Q589.75 128.5052 589.1094 128.14583Q588.4844 127.77083 588.21875 127.17708Q587.96875 126.58333 587.96875 124.6927L587.96875 117.52083L586.4219 117.52083L586.4219 115.8802L587.96875 115.8802L587.96875 112.80208L590.0625 111.53645L590.0625 115.8802L592.1875 115.8802L592.1875 117.52083L590.0625 117.52083L590.0625 124.80208Q590.0625 125.70833 590.1719 125.97395Q590.2969 126.22395 590.5469 126.3802Q590.7969 126.52083 591.2656 126.52083Q591.6094 126.52083 592.1875 126.4427Z" fill-rule="nonzero"/><path fill="#fbbc04" d="M438.0 158.33333C438.0 161.64705 435.31372 164.33333 432.0 164.33333C428.68628 164.33333 426.0 161.64705 426.0 158.33333C426.0 155.01962 428.68628 152.33333 432.0 152.33333C435.31372 152.33333 438.0 155.01962 438.0 158.33333Z" fill-rule="nonzero"/><path fill="#1a1a1a" d="M447.82812 166.33333L447.82812 149.14583L450.15625 149.14583L459.1875 162.64583L459.1875 149.14583L461.35938 149.14583L461.35938 166.33333L459.03125 166.33333L450.01562 152.83333L450.01562 166.33333L447.82812 166.33333ZM473.10938 162.3177L475.28125 162.59895Q474.76562 164.5052 473.375 165.5677Q471.98438 166.61458 469.8125 166.61458Q467.07812 166.61458 465.46875 164.9427Q463.875 163.2552 463.875 160.20833Q463.875 157.0677 465.48438 155.33333Q467.10938 153.59895 469.6875 153.59895Q472.1875 153.59895 473.76562 155.30208Q475.35938 157.0052 475.35938 160.08333Q475.35938 160.27083 475.34375 160.64583L466.0625 160.64583Q466.17188 162.6927 467.21875 163.78645Q468.26562 164.8802 469.82812 164.8802Q470.98438 164.8802 471.79688 164.27083Q472.625 163.66145 473.10938 162.3177ZM466.17188 158.91145L473.125 158.91145Q472.98438 157.34895 472.32812 156.55208Q471.32812 155.33333 469.71875 155.33333Q468.26562 155.33333 467.26562 156.3177Q466.28125 157.28645 466.17188 158.91145ZM485.73438 166.33333L485.73438 164.5052Q484.28125 166.61458 481.79688 166.61458Q480.6875 166.61458 479.73438 166.1927Q478.78125 165.77083 478.3125 165.1302Q477.85938 164.48958 477.67188 163.5677Q477.53125 162.9427 477.53125 161.59895L477.53125 153.8802L479.64062 153.8802L479.64062 160.78645Q479.64062 162.4427 479.78125 163.02083Q479.96875 163.84895 480.60938 164.33333Q481.26562 164.80208 482.21875 164.80208Q483.15625 164.80208 483.98438 164.3177Q484.82812 163.8177 485.17188 162.98958Q485.51562 162.14583 485.51562 160.55208L485.51562 153.8802L487.625 153.8802L487.625 166.33333L485.73438 166.33333ZM495.1875 164.4427L495.5 166.30208Q494.60938 166.5052 493.90625 166.5052Q492.75 166.5052 492.10938 166.14583Q491.48438 165.77083 491.21875 165.17708Q490.96875 164.58333 490.96875 162.6927L490.96875 155.52083L489.42188 155.52083L489.42188 153.8802L490.96875 153.8802L490.96875 150.80208L493.0625 149.53645L493.0625 153.8802L495.1875 153.8802L495.1875 155.52083L493.0625 155.52083L493.0625 162.80208Q493.0625 163.70833 493.17188 163.97395Q493.29688 164.22395 493.54688 164.3802Q493.79688 164.52083 494.26562 164.52083Q494.60938 164.52083 495.1875 164.4427ZM497.5625 166.33333L497.5625 153.8802L499.45312 153.8802L499.45312 155.77083Q500.1875 154.4427 500.79688 154.02083Q501.42188 153.59895 502.15625 153.59895Q503.21875 153.59895 504.32812 154.28645L503.59375 156.23958Q502.82812 155.78645 502.04688 155.78645Q501.35938 155.78645 500.79688 156.20833Q500.25 156.61458 500.01562 157.34895Q499.67188 158.47395 499.67188 159.8177L499.67188 166.33333L497.5625 166.33333ZM514.1094 162.3177L516.28125 162.59895Q515.7656 164.5052 514.375 165.5677Q512.9844 166.61458 510.8125 166.61458Q508.07812 166.61458 506.46875 164.9427Q504.875 163.2552 504.875 160.20833Q504.875 157.0677 506.48438 155.33333Q508.10938 153.59895 510.6875 153.59895Q513.1875 153.59895 514.7656 155.30208Q516.3594 157.0052 516.3594 160.08333Q516.3594 160.27083 516.34375 160.64583L507.0625 160.64583Q507.17188 162.6927 508.21875 163.78645Q509.26562 164.8802 510.82812 164.8802Q511.98438 164.8802 512.7969 164.27083Q513.625 163.66145 514.1094 162.3177ZM507.17188 158.91145L514.125 158.91145Q513.9844 157.34895 513.3281 156.55208Q512.3281 155.33333 510.71875 155.33333Q509.26562 155.33333 508.26562 156.3177Q507.28125 157.28645 507.17188 158.91145Z" fill-rule="nonzero"/><path fill="#434343" d="M74.796875 48.0L74.796875 26.53125L77.640625 26.53125L77.640625 48.0L74.796875 48.0ZM81.984375 48.0L81.984375 32.4375L84.34375 32.4375L84.34375 34.625Q85.0625 33.484375 86.28125 32.796875Q87.5 32.09375 89.046875 32.09375Q90.78125 32.09375 91.890625 32.8125Q93.0 33.53125 93.453125 34.8125Q95.296875 32.09375 98.25 32.09375Q100.5625 32.09375 101.8125 33.375Q103.0625 34.65625 103.0625 37.328125L103.0625 48.0L100.4375 48.0L100.4375 38.203125Q100.4375 36.625 100.171875 35.921875Q99.921875 35.21875 99.25 34.796875Q98.578125 34.375 97.671875 34.375Q96.03125 34.375 94.9375 35.46875Q93.859375 36.5625 93.859375 38.96875L93.859375 48.0L91.21875 48.0L91.21875 37.890625Q91.21875 36.140625 90.578125 35.265625Q89.9375 34.375 88.46875 34.375Q87.359375 34.375 86.40625 34.96875Q85.46875 35.546875 85.03125 36.671875Q84.609375 37.796875 84.609375 39.921875L84.609375 48.0L81.984375 48.0ZM106.984375 53.96875L106.984375 32.4375L109.375 32.4375L109.375 34.46875Q110.234375 33.28125 111.296875 32.6875Q112.375 32.09375 113.890625 32.09375Q115.890625 32.09375 117.40625 33.125Q118.9375 34.140625 119.703125 36.015625Q120.484375 37.875 120.484375 40.109375Q120.484375 42.484375 119.625 44.40625Q118.765625 46.3125 117.125 47.34375Q115.5 48.359375 113.703125 48.359375Q112.390625 48.359375 111.328125 47.796875Q110.28125 47.234375 109.609375 46.390625L109.609375 53.96875L106.984375 53.96875ZM109.359375 40.3125Q109.359375 43.3125 110.578125 44.75Q111.796875 46.1875 113.53125 46.1875Q115.28125 46.1875 116.53125 44.703125Q117.78125 43.203125 117.78125 40.09375Q117.78125 37.109375 116.5625 35.640625Q115.34375 34.15625 113.640625 34.15625Q111.953125 34.15625 110.65625 35.734375Q109.359375 37.3125 109.359375 40.3125ZM123.0 40.21875Q123.0 35.90625 125.40625 33.8125Q127.40625 32.09375 130.29688 32.09375Q133.5 32.09375 135.53125 34.203125Q137.57812 36.296875 137.57812 40.0Q137.57812 43.0 136.67188 44.734375Q135.76562 46.453125 134.04688 47.40625Q132.32812 48.359375 130.29688 48.359375Q127.03125 48.359375 125.015625 46.265625Q123.0 44.15625 123.0 40.21875ZM125.703125 40.21875Q125.703125 43.203125 127.0 44.703125Q128.3125 46.1875 130.29688 46.1875Q132.25 46.1875 133.54688 44.6875Q134.85938 43.1875 134.85938 40.140625Q134.85938 37.25 133.54688 35.765625Q132.23438 34.28125 130.29688 34.28125Q128.3125 34.28125 127.0 35.765625Q125.703125 37.234375 125.703125 40.21875ZM140.95312 48.0L140.95312 32.4375L143.32812 32.4375L143.32812 34.796875Q144.23438 33.140625 145.0 32.625Q145.76562 32.09375 146.6875 32.09375Q148.03125 32.09375 149.40625 32.9375L148.5 35.390625Q147.53125 34.8125 146.5625 34.8125Q145.6875 34.8125 145.0 35.34375Q144.3125 35.859375 144.03125 36.78125Q143.57812 38.1875 143.57812 39.859375L143.57812 48.0L140.95312 48.0ZM156.73438 45.640625L157.10938 47.96875Q156.0 48.203125 155.125 48.203125Q153.6875 48.203125 152.89062 47.75Q152.10938 47.296875 151.78125 46.5625Q151.46875 45.8125 151.46875 43.4375L151.46875 34.5L149.53125 34.5L149.53125 32.4375L151.46875 32.4375L151.46875 28.59375L154.07812 27.015625L154.07812 32.4375L156.73438 32.4375L156.73438 34.5L154.07812 34.5L154.07812 43.59375Q154.07812 44.71875 154.21875 45.046875Q154.35938 45.359375 154.67188 45.5625Q154.98438 45.75 155.57812 45.75Q156.01562 45.75 156.73438 45.640625ZM169.125 46.078125Q167.67188 47.328125 166.3125 47.84375Q164.95312 48.359375 163.40625 48.359375Q160.84375 48.359375 159.45312 47.109375Q158.07812 45.84375 158.07812 43.890625Q158.07812 42.75 158.59375 41.8125Q159.125 40.859375 159.96875 40.296875Q160.8125 39.71875 161.85938 39.4375Q162.64062 39.21875 164.20312 39.03125Q167.40625 38.65625 168.90625 38.125Q168.92188 37.578125 168.92188 37.4375Q168.92188 35.828125 168.17188 35.171875Q167.17188 34.28125 165.17188 34.28125Q163.3125 34.28125 162.42188 34.9375Q161.54688 35.578125 161.10938 37.234375L158.53125 36.875Q158.89062 35.21875 159.6875 34.203125Q160.5 33.1875 162.01562 32.640625Q163.54688 32.09375 165.5625 32.09375Q167.54688 32.09375 168.78125 32.5625Q170.03125 33.03125 170.60938 33.75Q171.20312 34.453125 171.4375 35.53125Q171.57812 36.203125 171.57812 37.96875L171.57812 41.484375Q171.57812 45.15625 171.73438 46.140625Q171.90625 47.109375 172.40625 48.0L169.65625 48.0Q169.25 47.171875 169.125 46.078125ZM168.90625 40.1875Q167.46875 40.78125 164.60938 41.1875Q162.98438 41.421875 162.29688 41.71875Q161.625 42.015625 161.25 42.578125Q160.89062 43.140625 160.89062 43.828125Q160.89062 44.875 161.6875 45.578125Q162.5 46.28125 164.03125 46.28125Q165.5625 46.28125 166.73438 45.625Q167.92188 44.953125 168.48438 43.796875Q168.90625 42.90625 168.90625 41.15625L168.90625 40.1875ZM175.98438 48.0L175.98438 32.4375L178.34375 32.4375L178.34375 34.65625Q180.0625 32.09375 183.29688 32.09375Q184.70312 32.09375 185.875 32.609375Q187.0625 33.109375 187.64062 33.9375Q188.23438 34.75 188.46875 35.875Q188.625 36.609375 188.625 38.4375L188.625 48.0L185.98438 48.0L185.98438 38.53125Q185.98438 36.921875 185.67188 36.125Q185.375 35.328125 184.57812 34.859375Q183.79688 34.375 182.75 34.375Q181.0625 34.375 179.82812 35.453125Q178.60938 36.515625 178.60938 39.5L178.60938 48.0L175.98438 48.0ZM203.125 42.296875L205.71875 42.640625Q205.29688 45.3125 203.54688 46.84375Q201.79688 48.359375 199.25 48.359375Q196.04688 48.359375 194.10938 46.265625Q192.17188 44.171875 192.17188 40.28125Q192.17188 37.765625 193.0 35.875Q193.84375 33.984375 195.54688 33.046875Q197.25 32.09375 199.26562 32.09375Q201.79688 32.09375 203.40625 33.375Q205.01562 34.65625 205.46875 37.015625L202.90625 37.40625Q202.54688 35.84375 201.60938 35.0625Q200.6875 34.265625 199.35938 34.265625Q197.375 34.265625 196.125 35.6875Q194.875 37.109375 194.875 40.203125Q194.875 43.34375 196.07812 44.765625Q197.28125 46.1875 199.21875 46.1875Q200.76562 46.1875 201.79688 45.234375Q202.84375 44.28125 203.125 42.296875ZM218.625 42.984375L221.35938 43.328125Q220.70312 45.71875 218.95312 47.046875Q217.21875 48.359375 214.51562 48.359375Q211.09375 48.359375 209.09375 46.25Q207.09375 44.140625 207.09375 40.359375Q207.09375 36.421875 209.10938 34.265625Q211.14062 32.09375 214.35938 32.09375Q217.48438 32.09375 219.45312 34.21875Q221.4375 36.34375 221.4375 40.1875Q221.4375 40.421875 221.42188 40.890625L209.82812 40.890625Q209.96875 43.453125 211.26562 44.828125Q212.57812 46.1875 214.53125 46.1875Q215.96875 46.1875 217.0 45.421875Q218.03125 44.65625 218.625 42.984375ZM209.96875 38.734375L218.65625 38.734375Q218.48438 36.765625 217.65625 35.78125Q216.40625 34.265625 214.39062 34.265625Q212.57812 34.265625 211.34375 35.484375Q210.10938 36.6875 209.96875 38.734375ZM243.07812 48.0L243.07812 46.03125Q241.59375 48.359375 238.71875 48.359375Q236.85938 48.359375 235.29688 47.328125Q233.73438 46.296875 232.875 44.46875Q232.03125 42.625 232.03125 40.234375Q232.03125 37.90625 232.79688 36.015625Q233.57812 34.109375 235.125 33.109375Q236.6875 32.09375 238.60938 32.09375Q240.01562 32.09375 241.10938 32.6875Q242.20312 33.28125 242.89062 34.234375L242.89062 26.53125L245.51562 26.53125L245.51562 48.0L243.07812 48.0ZM234.73438 40.234375Q234.73438 43.21875 235.98438 44.703125Q237.25 46.1875 238.96875 46.1875Q240.70312 46.1875 241.90625 44.78125Q243.10938 43.359375 243.10938 40.453125Q243.10938 37.265625 241.875 35.78125Q240.65625 34.28125 238.85938 34.28125Q237.09375 34.28125 235.90625 35.71875Q234.73438 37.140625 234.73438 40.234375ZM260.625 42.984375L263.35938 43.328125Q262.70312 45.71875 260.95312 47.046875Q259.21875 48.359375 256.51562 48.359375Q253.09375 48.359375 251.09375 46.25Q249.09375 44.140625 249.09375 40.359375Q249.09375 36.421875 251.10938 34.265625Q253.14062 32.09375 256.35938 32.09375Q259.48438 32.09375 261.45312 34.21875Q263.4375 36.34375 263.4375 40.1875Q263.4375 40.421875 263.42188 40.890625L251.82812 40.890625Q251.96875 43.453125 253.26562 44.828125Q254.57812 46.1875 256.53125 46.1875Q257.96875 46.1875 259.0 45.421875Q260.03125 44.65625 260.625 42.984375ZM251.96875 38.734375L260.65625 38.734375Q260.48438 36.765625 259.65625 35.78125Q258.40625 34.265625 256.39062 34.265625Q254.57812 34.265625 253.34375 35.484375Q252.10938 36.6875 251.96875 38.734375ZM265.92188 43.359375L268.53125 42.953125Q268.75 44.515625 269.75 45.359375Q270.75 46.1875 272.5625 46.1875Q274.375 46.1875 275.25 45.453125Q276.14062 44.703125 276.14062 43.703125Q276.14062 42.8125 275.35938 42.296875Q274.8125 41.953125 272.65625 41.40625Q269.76562 40.671875 268.64062 40.140625Q267.51562 39.609375 266.9375 38.671875Q266.35938 37.71875 266.35938 36.578125Q266.35938 35.53125 266.82812 34.65625Q267.3125 33.765625 268.14062 33.171875Q268.75 32.71875 269.8125 32.40625Q270.875 32.09375 272.09375 32.09375Q273.92188 32.09375 275.29688 32.625Q276.6875 33.140625 277.34375 34.046875Q278.01562 34.953125 278.25 36.453125L275.67188 36.8125Q275.5 35.609375 274.65625 34.9375Q273.8125 34.265625 272.28125 34.265625Q270.46875 34.265625 269.6875 34.859375Q268.90625 35.453125 268.90625 36.265625Q268.90625 36.78125 269.23438 37.1875Q269.5625 37.609375 270.25 37.890625Q270.64062 38.03125 272.57812 38.5625Q275.375 39.3125 276.46875 39.796875Q277.57812 40.265625 278.20312 41.171875Q278.84375 42.078125 278.84375 43.421875Q278.84375 44.75 278.07812 45.921875Q277.3125 47.078125 275.85938 47.71875Q274.40625 48.359375 272.57812 48.359375Q269.54688 48.359375 267.95312 47.09375Q266.35938 45.828125 265.92188 43.359375ZM299.89062 53.96875L299.89062 46.34375Q299.28125 47.203125 298.17188 47.78125Q297.0625 48.359375 295.82812 48.359375Q293.04688 48.359375 291.04688 46.140625Q289.0625 43.921875 289.0625 40.078125Q289.0625 37.734375 289.875 35.875Q290.6875 34.015625 292.21875 33.0625Q293.76562 32.09375 295.625 32.09375Q298.5 32.09375 300.15625 34.515625L300.15625 32.4375L302.53125 32.4375L302.53125 53.96875L299.89062 53.96875ZM291.76562 40.171875Q291.76562 43.1875 293.01562 44.6875Q294.28125 46.1875 296.04688 46.1875Q297.73438 46.1875 298.9375 44.765625Q300.15625 43.328125 300.15625 40.40625Q300.15625 37.3125 298.875 35.75Q297.59375 34.171875 295.85938 34.171875Q294.15625 34.171875 292.95312 35.640625Q291.76562 37.09375 291.76562 40.171875ZM317.17188 48.0L317.17188 45.71875Q315.35938 48.359375 312.23438 48.359375Q310.85938 48.359375 309.65625 47.828125Q308.46875 47.296875 307.89062 46.5Q307.3125 45.703125 307.07812 44.546875Q306.92188 43.765625 306.92188 42.078125L306.92188 32.4375L309.5625 32.4375L309.5625 41.078125Q309.5625 43.140625 309.71875 43.859375Q309.96875 44.890625 310.76562 45.484375Q311.57812 46.078125 312.76562 46.078125Q313.95312 46.078125 314.98438 45.46875Q316.03125 44.859375 316.45312 43.8125Q316.89062 42.765625 316.89062 40.78125L316.89062 32.4375L319.53125 32.4375L319.53125 48.0L317.17188 48.0ZM334.625 42.984375L337.35938 43.328125Q336.70312 45.71875 334.95312 47.046875Q333.21875 48.359375 330.51562 48.359375Q327.09375 48.359375 325.09375 46.25Q323.09375 44.140625 323.09375 40.359375Q323.09375 36.421875 325.10938 34.265625Q327.14062 32.09375 330.35938 32.09375Q333.48438 32.09375 335.45312 34.21875Q337.4375 36.34375 337.4375 40.1875Q337.4375 40.421875 337.42188 40.890625L325.82812 40.890625Q325.96875 43.453125 327.26562 44.828125Q328.57812 46.1875 330.53125 46.1875Q331.96875 46.1875 333.0 45.421875Q334.03125 44.65625 334.625 42.984375ZM325.96875 38.734375L334.65625 38.734375Q334.48438 36.765625 333.65625 35.78125Q332.40625 34.265625 330.39062 34.265625Q328.57812 34.265625 327.34375 35.484375Q326.10938 36.6875 325.96875 38.734375ZM339.92188 43.359375L342.53125 42.953125Q342.75 44.515625 343.75 45.359375Q344.75 46.1875 346.5625 46.1875Q348.375 46.1875 349.25 45.453125Q350.14062 44.703125 350.14062 43.703125Q350.14062 42.8125 349.35938 42.296875Q348.8125 41.953125 346.65625 41.40625Q343.76562 40.671875 342.64062 40.140625Q341.51562 39.609375 340.9375 38.671875Q340.35938 37.71875 340.35938 36.578125Q340.35938 35.53125 340.82812 34.65625Q341.3125 33.765625 342.14062 33.171875Q342.75 32.71875 343.8125 32.40625Q344.875 32.09375 346.09375 32.09375Q347.92188 32.09375 349.29688 32.625Q350.6875 33.140625 351.34375 34.046875Q352.01562 34.953125 352.25 36.453125L349.67188 36.8125Q349.5 35.609375 348.65625 34.9375Q347.8125 34.265625 346.28125 34.265625Q344.46875 34.265625 343.6875 34.859375Q342.90625 35.453125 342.90625 36.265625Q342.90625 36.78125 343.23438 37.1875Q343.5625 37.609375 344.25 37.890625Q344.64062 38.03125 346.57812 38.5625Q349.375 39.3125 350.46875 39.796875Q351.57812 40.265625 352.20312 41.171875Q352.84375 42.078125 352.84375 43.421875Q352.84375 44.75 352.07812 45.921875Q351.3125 47.078125 349.85938 47.71875Q348.40625 48.359375 346.57812 48.359375Q343.54688 48.359375 341.95312 47.09375Q340.35938 45.828125 339.92188 43.359375ZM361.73438 45.640625L362.10938 47.96875Q361.0 48.203125 360.125 48.203125Q358.6875 48.203125 357.89062 47.75Q357.10938 47.296875 356.78125 46.5625Q356.46875 45.8125 356.46875 43.4375L356.46875 34.5L354.53125 34.5L354.53125 32.4375L356.46875 32.4375L356.46875 28.59375L359.07812 27.015625L359.07812 32.4375L361.73438 32.4375L361.73438 34.5L359.07812 34.5L359.07812 43.59375Q359.07812 44.71875 359.21875 45.046875Q359.35938 45.359375 359.67188 45.5625Q359.98438 45.75 360.57812 45.75Q361.01562 45.75 361.73438 45.640625ZM364.0 29.5625L364.0 26.53125L366.625 26.53125L366.625 29.5625L364.0 29.5625ZM364.0 48.0L364.0 32.4375L366.625 32.4375L366.625 48.0L364.0 48.0ZM370.0 40.21875Q370.0 35.90625 372.40625 33.8125Q374.40625 32.09375 377.29688 32.09375Q380.5 32.09375 382.53125 34.203125Q384.57812 36.296875 384.57812 40.0Q384.57812 43.0 383.67188 44.734375Q382.76562 46.453125 381.04688 47.40625Q379.32812 48.359375 377.29688 48.359375Q374.03125 48.359375 372.01562 46.265625Q370.0 44.15625 370.0 40.21875ZM372.70312 40.21875Q372.70312 43.203125 374.0 44.703125Q375.3125 46.1875 377.29688 46.1875Q379.25 46.1875 380.54688 44.6875Q381.85938 43.1875 381.85938 40.140625Q381.85938 37.25 380.54688 35.765625Q379.23438 34.28125 377.29688 34.28125Q375.3125 34.28125 374.0 35.765625Q372.70312 37.234375 372.70312 40.21875ZM387.98438 48.0L387.98438 32.4375L390.34375 32.4375L390.34375 34.65625Q392.0625 32.09375 395.29688 32.09375Q396.70312 32.09375 397.875 32.609375Q399.0625 33.109375 399.64062 33.9375Q400.23438 34.75 400.46875 35.875Q400.625 36.609375 400.625 38.4375L400.625 48.0L397.98438 48.0L397.98438 38.53125Q397.98438 36.921875 397.67188 36.125Q397.375 35.328125 396.57812 34.859375Q395.79688 34.375 394.75 34.375Q393.0625 34.375 391.82812 35.453125Q390.60938 36.515625 390.60938 39.5L390.60938 48.0L387.98438 48.0ZM403.92188 43.359375L406.53125 42.953125Q406.75 44.515625 407.75 45.359375Q408.75 46.1875 410.5625 46.1875Q412.375 46.1875 413.25 45.453125Q414.14062 44.703125 414.14062 43.703125Q414.14062 42.8125 413.35938 42.296875Q412.8125 41.953125 410.65625 41.40625Q407.76562 40.671875 406.64062 40.140625Q405.51562 39.609375 404.9375 38.671875Q404.35938 37.71875 404.35938 36.578125Q404.35938 35.53125 404.82812 34.65625Q405.3125 33.765625 406.14062 33.171875Q406.75 32.71875 407.8125 32.40625Q408.875 32.09375 410.09375 32.09375Q411.92188 32.09375 413.29688 32.625Q414.6875 33.140625 415.34375 34.046875Q416.01562 34.953125 416.25 36.453125L413.67188 36.8125Q413.5 35.609375 412.65625 34.9375Q411.8125 34.265625 410.28125 34.265625Q408.46875 34.265625 407.6875 34.859375Q406.90625 35.453125 406.90625 36.265625Q406.90625 36.78125 407.23438 37.1875Q407.5625 37.609375 408.25 37.890625Q408.64062 38.03125 410.57812 38.5625Q413.375 39.3125 414.46875 39.796875Q415.57812 40.265625 416.20312 41.171875Q416.84375 42.078125 416.84375 43.421875Q416.84375 44.75 416.07812 45.921875Q415.3125 47.078125 413.85938 47.71875Q412.40625 48.359375 410.57812 48.359375Q407.54688 48.359375 405.95312 47.09375Q404.35938 45.828125 403.92188 43.359375ZM438.625 42.984375L441.35938 43.328125Q440.70312 45.71875 438.95312 47.046875Q437.21875 48.359375 434.51562 48.359375Q431.09375 48.359375 429.09375 46.25Q427.09375 44.140625 427.09375 40.359375Q427.09375 36.421875 429.10938 34.265625Q431.14062 32.09375 434.35938 32.09375Q437.48438 32.09375 439.45312 34.21875Q441.4375 36.34375 441.4375 40.1875Q441.4375 40.421875 441.42188 40.890625L429.82812 40.890625Q429.96875 43.453125 431.26562 44.828125Q432.57812 46.1875 434.53125 46.1875Q435.96875 46.1875 437.0 45.421875Q438.03125 44.65625 438.625 42.984375ZM429.96875 38.734375L438.65625 38.734375Q438.48438 36.765625 437.65625 35.78125Q436.40625 34.265625 434.39062 34.265625Q432.57812 34.265625 431.34375 35.484375Q430.10938 36.6875 429.96875 38.734375ZM433.25 30.515625L435.20312 26.40625L438.65625 26.40625L435.4375 30.515625L433.25 30.515625ZM450.73438 45.640625L451.10938 47.96875Q450.0 48.203125 449.125 48.203125Q447.6875 48.203125 446.89062 47.75Q446.10938 47.296875 445.78125 46.5625Q445.46875 45.8125 445.46875 43.4375L445.46875 34.5L443.53125 34.5L443.53125 32.4375L445.46875 32.4375L445.46875 28.59375L448.07812 27.015625L448.07812 32.4375L450.73438 32.4375L450.73438 34.5L448.07812 34.5L448.07812 43.59375Q448.07812 44.71875 448.21875 45.046875Q448.35938 45.359375 448.67188 45.5625Q448.98438 45.75 449.57812 45.75Q450.01562 45.75 450.73438 45.640625ZM452.98438 48.0L452.98438 26.53125L455.60938 26.53125L455.60938 34.234375Q457.45312 32.09375 460.26562 32.09375Q462.0 32.09375 463.26562 32.78125Q464.54688 33.453125 465.09375 34.65625Q465.65625 35.859375 465.65625 38.140625L465.65625 48.0L463.01562 48.0L463.01562 38.140625Q463.01562 36.15625 462.15625 35.265625Q461.29688 34.359375 459.73438 34.359375Q458.5625 34.359375 457.53125 34.96875Q456.5 35.578125 456.04688 36.625Q455.60938 37.65625 455.60938 39.484375L455.60938 48.0L452.98438 48.0ZM470.0 29.5625L470.0 26.53125L472.625 26.53125L472.625 29.5625L470.0 29.5625ZM470.0 48.0L470.0 32.4375L472.625 32.4375L472.625 48.0L470.0 48.0ZM486.89062 53.96875L486.89062 46.34375Q486.28125 47.203125 485.17188 47.78125Q484.0625 48.359375 482.82812 48.359375Q480.04688 48.359375 478.04688 46.140625Q476.0625 43.921875 476.0625 40.078125Q476.0625 37.734375 476.875 35.875Q477.6875 34.015625 479.21875 33.0625Q480.76562 32.09375 482.625 32.09375Q485.5 32.09375 487.15625 34.515625L487.15625 32.4375L489.53125 32.4375L489.53125 53.96875L486.89062 53.96875ZM478.76562 40.171875Q478.76562 43.1875 480.01562 44.6875Q481.28125 46.1875 483.04688 46.1875Q484.73438 46.1875 485.9375 44.765625Q487.15625 43.328125 487.15625 40.40625Q487.15625 37.3125 485.875 35.75Q484.59375 34.171875 482.85938 34.171875Q481.15625 34.171875 479.95312 35.640625Q478.76562 37.09375 478.76562 40.171875ZM504.17188 48.0L504.17188 45.71875Q502.35938 48.359375 499.23438 48.359375Q497.85938 48.359375 496.65625 47.828125Q495.46875 47.296875 494.89062 46.5Q494.3125 45.703125 494.07812 44.546875Q493.92188 43.765625 493.92188 42.078125L493.92188 32.4375L496.5625 32.4375L496.5625 41.078125Q496.5625 43.140625 496.71875 43.859375Q496.96875 44.890625 497.76562 45.484375Q498.57812 46.078125 499.76562 46.078125Q500.95312 46.078125 501.98438 45.46875Q503.03125 44.859375 503.45312 43.8125Q503.89062 42.765625 503.89062 40.78125L503.89062 32.4375L506.53125 32.4375L506.53125 48.0L504.17188 48.0ZM521.625 42.984375L524.3594 43.328125Q523.7031 45.71875 521.9531 47.046875Q520.21875 48.359375 517.5156 48.359375Q514.09375 48.359375 512.09375 46.25Q510.09375 44.140625 510.09375 40.359375Q510.09375 36.421875 512.1094 34.265625Q514.1406 32.09375 517.3594 32.09375Q520.4844 32.09375 522.4531 34.21875Q524.4375 36.34375 524.4375 40.1875Q524.4375 40.421875 524.4219 40.890625L512.8281 40.890625Q512.96875 43.453125 514.2656 44.828125Q515.5781 46.1875 517.53125 46.1875Q518.96875 46.1875 520.0 45.421875Q521.03125 44.65625 521.625 42.984375ZM512.96875 38.734375L521.65625 38.734375Q521.4844 36.765625 520.65625 35.78125Q519.40625 34.265625 517.3906 34.265625Q515.5781 34.265625 514.34375 35.484375Q513.1094 36.6875 512.96875 38.734375ZM526.9219 43.359375L529.53125 42.953125Q529.75 44.515625 530.75 45.359375Q531.75 46.1875 533.5625 46.1875Q535.375 46.1875 536.25 45.453125Q537.1406 44.703125 537.1406 43.703125Q537.1406 42.8125 536.3594 42.296875Q535.8125 41.953125 533.65625 41.40625Q530.7656 40.671875 529.6406 40.140625Q528.5156 39.609375 527.9375 38.671875Q527.3594 37.71875 527.3594 36.578125Q527.3594 35.53125 527.8281 34.65625Q528.3125 33.765625 529.1406 33.171875Q529.75 32.71875 530.8125 32.40625Q531.875 32.09375 533.09375 32.09375Q534.9219 32.09375 536.2969 32.625Q537.6875 33.140625 538.34375 34.046875Q539.0156 34.953125 539.25 36.453125L536.6719 36.8125Q536.5 35.609375 535.65625 34.9375Q534.8125 34.265625 533.28125 34.265625Q531.46875 34.265625 530.6875 34.859375Q529.90625 35.453125 529.90625 36.265625Q529.90625 36.78125 530.2344 37.1875Q530.5625 37.609375 531.25 37.890625Q531.6406 38.03125 533.5781 38.5625Q536.375 39.3125 537.46875 39.796875Q538.5781 40.265625 539.2031 41.171875Q539.84375 42.078125 539.84375 43.421875Q539.84375 44.75 539.0781 45.921875Q538.3125 47.078125 536.8594 47.71875Q535.40625 48.359375 533.5781 48.359375Q530.5469 48.359375 528.9531 47.09375Q527.3594 45.828125 526.9219 43.359375Z" fill-rule="nonzero"/></svg>