<svg version="1.1" viewBox="0.0 0.0 665.0 400.0" fill="none" stroke="none" stroke-linecap="square" stroke-miterlimit="10" width="665" height="400" xmlns:xlink="http://www.w3.org/1999/xlink" xmlns="http://www.w3.org/2000/svg"><path fill="#ffffff" d="M0 0L665.0 0L665.0 400.0L0 400.0L0 0Z" fill-rule="nonzero"/><path fill="#4285f4" d="M332.5 20.0C387.55817 20.0 437.75003 51.53764 461.6389 101.14333C485.5277 150.74902 478.89072 209.654 444.5625 252.70021L332.5 163.33333Z" fill-rule="nonzero"/><path fill="#ea4335" d="M444.5625 252.70021C402.86807 304.98337 330.56018 321.48718 270.31 292.4722C210.0598 263.45724 177.87976 196.6347 192.76033 131.43866C207.6409 66.24263 265.62732 20.0 332.5 20.0L332.5 163.33333Z" fill-rule="nonzero"/><path fill="#000000" d="M360.8132 132.15793L362.65695 132.00168Q362.86008 133.34543 363.61008 134.03293Q364.36008 134.7048 365.42258 134.7048Q366.6882 134.7048 367.5632 133.75168Q368.4382 132.79855 368.4382 131.2048Q368.4382 129.7048 367.59445 128.84543Q366.7507 127.97043 365.39133 127.97043Q364.53195 127.97043 363.84445 128.36105Q363.17258 128.73605 362.78195 129.36105L361.1257 129.1423L362.51633 121.78293L369.64133 121.78293L369.64133 123.47043L363.92258 123.47043L363.15695 127.31418Q364.4382 126.40793 365.86008 126.40793Q367.73508 126.40793 369.01633 127.72043Q370.3132 129.0173 370.3132 131.04855Q370.3132 133.00168 369.17258 134.40793Q367.79758 136.15793 365.42258 136.15793Q363.46945 136.15793 362.21945 135.06418Q360.98508 133.97043 360.8132 132.15793ZM381.65695 140.11105Q380.20383 138.28293 379.20383 135.8298Q378.20383 133.36105 378.20383 130.72043Q378.20383 128.3923 378.95383 126.2673Q379.82883 123.79855 381.65695 121.34543L382.92258 121.34543Q381.73508 123.37668 381.36008 124.25168Q380.76633 125.59543 380.42258 127.06418Q380.0007 128.8923 380.0007 130.73605Q380.0007 135.42355 382.92258 140.11105L381.65695 140.11105ZM384.82883 132.12668L386.57883 131.8923Q386.89133 133.3923 387.61008 134.04855Q388.34445 134.7048 389.39133 134.7048Q390.6257 134.7048 391.46945 133.84543Q392.32883 132.98605 392.32883 131.72043Q392.32883 130.50168 391.53195 129.72043Q390.7507 128.93918 389.53195 128.93918Q389.03195 128.93918 388.29758 129.12668L388.48508 127.5798Q388.65695 127.61105 388.76633 127.61105Q389.89133 127.61105 390.78195 127.03293Q391.6882 126.43918 391.6882 125.22043Q391.6882 124.25168 391.03195 123.61105Q390.3757 122.97043 389.34445 122.97043Q388.32883 122.97043 387.64133 123.62668Q386.95383 124.2673 386.76633 125.54855L385.0007 125.23605Q385.32883 123.47043 386.46945 122.50168Q387.61008 121.53293 389.3132 121.53293Q390.48508 121.53293 391.46945 122.03293Q392.45383 122.53293 392.96945 123.40793Q393.5007 124.28293 393.5007 125.25168Q393.5007 126.17355 393.0007 126.93918Q392.5007 127.7048 391.53195 128.15793Q392.79758 128.43918 393.5007 129.37668Q394.20383 130.29855 394.20383 131.67355Q394.20383 133.54855 392.82883 134.86105Q391.46945 136.15793 389.3757 136.15793Q387.48508 136.15793 386.23508 135.03293Q385.0007 133.90793 384.82883 132.12668ZM395.8132 132.15793L397.65695 132.00168Q397.86008 133.34543 398.61008 134.03293Q399.36008 134.7048 400.42258 134.7048Q401.6882 134.7048 402.5632 133.75168Q403.4382 132.79855 403.4382 131.2048Q403.4382 129.7048 402.59445 128.84543Q401.7507 127.97043 400.39133 127.97043Q399.53195 127.97043 398.84445 128.36105Q398.17258 128.73605 397.78195 129.36105L396.1257 129.1423L397.51633 121.78293L404.64133 121.78293L404.64133 123.47043L398.92258 123.47043L398.15695 127.31418Q399.4382 126.40793 400.86008 126.40793Q402.73508 126.40793 404.01633 127.72043Q405.3132 129.0173 405.3132 131.04855Q405.3132 133.00168 404.17258 134.40793Q402.79758 136.15793 400.42258 136.15793Q398.46945 136.15793 397.21945 135.06418Q395.98508 133.97043 395.8132 132.15793ZM407.76633 135.90793L407.76633 133.90793L409.76633 133.90793L409.76633 135.90793Q409.76633 137.0173 409.3757 137.68918Q408.98508 138.37668 408.14133 138.73605L407.64133 137.98605Q408.20383 137.75168 408.46945 137.2673Q408.73508 136.79855 408.76633 135.90793L407.76633 135.90793ZM412.9382 123.47043L412.9382 121.78293L422.20383 121.78293L422.20383 123.1423Q420.82883 124.59543 419.48508 127.0173Q418.14133 129.42355 417.42258 131.97043Q416.89133 133.7673 416.73508 135.90793L414.9382 135.90793Q414.96945 134.22043 415.59445 131.8298Q416.23508 129.43918 417.42258 127.22043Q418.61008 124.98605 419.9382 123.47043L412.9382 123.47043ZM424.14133 125.03293Q424.14133 123.50168 424.90695 122.42355Q425.6882 121.34543 427.15695 121.34543Q428.5007 121.34543 429.3757 122.31418Q430.26633 123.2673 430.26633 125.1423Q430.26633 126.9548 429.3757 127.93918Q428.48508 128.90793 427.17258 128.90793Q425.8757 128.90793 425.0007 127.9548Q424.14133 126.98605 424.14133 125.03293ZM427.20383 122.56418Q426.54758 122.56418 426.11008 123.12668Q425.6882 123.68918 425.6882 125.2048Q425.6882 126.5798 426.1257 127.1423Q426.5632 127.7048 427.20383 127.7048Q427.8757 127.7048 428.29758 127.1423Q428.73508 126.56418 428.73508 125.06418Q428.73508 123.67355 428.29758 123.12668Q427.86008 122.56418 427.20383 122.56418ZM427.21945 136.43918L435.04758 121.34543L436.46945 121.34543L428.67258 136.43918L427.21945 136.43918ZM433.40695 132.54855Q433.40695 131.00168 434.17258 129.93918Q434.95383 128.86105 436.42258 128.86105Q437.76633 128.86105 438.64133 129.8298Q439.53195 130.78293 439.53195 132.65793Q439.53195 134.47043 438.64133 135.4548Q437.7507 136.43918 436.4382 136.43918Q435.14133 136.43918 434.26633 135.47043Q433.40695 134.48605 433.40695 132.54855ZM436.46945 130.0798Q435.8132 130.0798 435.3757 130.6423Q434.9382 131.2048 434.9382 132.72043Q434.9382 134.09543 435.3757 134.65793Q435.8132 135.22043 436.46945 135.22043Q437.14133 135.22043 437.5632 134.65793Q438.0007 134.09543 438.0007 132.5798Q438.0007 131.2048 437.5632 130.6423Q437.1257 130.0798 436.46945 130.0798ZM443.45383 140.11105L442.20383 140.11105Q445.11008 135.42355 445.11008 130.73605Q445.11008 128.8923 444.70383 127.09543Q444.36008 125.62668 443.76633 124.28293Q443.39133 123.3923 442.20383 121.34543L443.45383 121.34543Q445.29758 123.79855 446.17258 126.2673Q446.92258 128.3923 446.92258 130.72043Q446.92258 133.36105 445.90695 135.8298Q444.90695 138.28293 443.45383 140.11105Z" fill-rule="nonzero"/><path fill="#000000" d="M218.10867 201.44623L219.79617 201.28998Q220.01492 202.47748 220.60867 203.02435Q221.21805 203.5556 222.17117 203.5556Q222.98367 203.5556 223.59305 203.19623Q224.20242 202.82123 224.59305 202.19623Q224.98367 201.57123 225.2493 200.52435Q225.51492 199.46185 225.51492 198.3681Q225.51492 198.25873 225.4993 198.02435Q224.96805 198.85248 224.0618 199.38373Q223.15555 199.89935 222.07742 199.89935Q220.3118 199.89935 219.07742 198.6181Q217.84305 197.32123 217.84305 195.21185Q217.84305 193.03998 219.1243 191.71185Q220.42117 190.38373 222.34305 190.38373Q223.7493 190.38373 224.90555 191.13373Q226.0618 191.88373 226.65555 193.27435Q227.26492 194.66498 227.26492 197.3056Q227.26492 200.0556 226.65555 201.6806Q226.0618 203.3056 224.88992 204.16498Q223.71805 205.00873 222.13992 205.00873Q220.45242 205.00873 219.38992 204.07123Q218.32742 203.13373 218.10867 201.44623ZM225.3118 195.13373Q225.3118 193.6181 224.4993 192.72748Q223.70242 191.83685 222.5618 191.83685Q221.38992 191.83685 220.51492 192.8056Q219.65555 193.75873 219.65555 195.27435Q219.65555 196.64935 220.46805 197.50873Q221.29617 198.35248 222.51492 198.35248Q223.73367 198.35248 224.51492 197.50873Q225.3118 196.64935 225.3118 195.13373ZM238.6868 208.96185Q237.23367 207.13373 236.23367 204.6806Q235.23367 202.21185 235.23367 199.57123Q235.23367 197.2431 235.98367 195.1181Q236.85867 192.64935 238.6868 190.19623L239.95242 190.19623Q238.76492 192.22748 238.38992 193.10248Q237.79617 194.44623 237.45242 195.91498Q237.03055 197.7431 237.03055 199.58685Q237.03055 204.27435 239.95242 208.96185L238.6868 208.96185ZM250.96805 193.94623L249.21805 194.08685Q248.98367 193.0556 248.5618 192.58685Q247.84305 191.82123 246.79617 191.82123Q245.95242 191.82123 245.32742 192.28998Q244.4993 192.89935 244.01492 194.07123Q243.53055 195.22748 243.51492 197.3681Q244.15555 196.41498 245.0618 195.94623Q245.98367 195.47748 246.9993 195.47748Q248.7493 195.47748 249.98367 196.77435Q251.21805 198.0556 251.21805 200.10248Q251.21805 201.46185 250.63992 202.6181Q250.0618 203.77435 249.04617 204.39935Q248.03055 205.00873 246.73367 205.00873Q244.54617 205.00873 243.15555 203.39935Q241.76492 201.77435 241.76492 198.0556Q241.76492 193.91498 243.29617 192.02435Q244.63992 190.38373 246.90555 190.38373Q248.59305 190.38373 249.67117 191.33685Q250.7493 192.27435 250.96805 193.94623ZM243.79617 200.1181Q243.79617 201.02435 244.17117 201.85248Q244.5618 202.6806 245.2493 203.1181Q245.95242 203.5556 246.70242 203.5556Q247.82742 203.5556 248.6243 202.66498Q249.42117 201.75873 249.42117 200.21185Q249.42117 198.72748 248.6243 197.88373Q247.84305 197.02435 246.63992 197.02435Q245.45242 197.02435 244.6243 197.88373Q243.79617 198.72748 243.79617 200.1181ZM258.48367 204.75873L258.48367 201.33685L252.26492 201.33685L252.26492 199.71185L258.79617 190.44623L260.23367 190.44623L260.23367 199.71185L262.17117 199.71185L262.17117 201.33685L260.23367 201.33685L260.23367 204.75873L258.48367 204.75873ZM258.48367 199.71185L258.48367 193.25873L253.9993 199.71185L258.48367 199.71185ZM264.79617 204.75873L264.79617 202.75873L266.79617 202.75873L266.79617 204.75873Q266.79617 205.8681 266.40555 206.53998Q266.01492 207.22748 265.17117 207.58685L264.67117 206.83685Q265.23367 206.60248 265.4993 206.1181Q265.76492 205.64935 265.79617 204.75873L264.79617 204.75873ZM269.85867 200.97748L271.60867 200.7431Q271.92117 202.2431 272.63992 202.89935Q273.3743 203.5556 274.42117 203.5556Q275.65555 203.5556 276.4993 202.69623Q277.35867 201.83685 277.35867 200.57123Q277.35867 199.35248 276.5618 198.57123Q275.78055 197.78998 274.5618 197.78998Q274.0618 197.78998 273.32742 197.97748L273.51492 196.4306Q273.6868 196.46185 273.79617 196.46185Q274.92117 196.46185 275.8118 195.88373Q276.71805 195.28998 276.71805 194.07123Q276.71805 193.10248 276.0618 192.46185Q275.40555 191.82123 274.3743 191.82123Q273.35867 191.82123 272.67117 192.47748Q271.98367 193.1181 271.79617 194.39935L270.03055 194.08685Q270.35867 192.32123 271.4993 191.35248Q272.63992 190.38373 274.34305 190.38373Q275.51492 190.38373 276.4993 190.88373Q277.48367 191.38373 277.9993 192.25873Q278.53055 193.13373 278.53055 194.10248Q278.53055 195.02435 278.03055 195.78998Q277.53055 196.5556 276.5618 197.00873Q277.82742 197.28998 278.53055 198.22748Q279.23367 199.14935 279.23367 200.52435Q279.23367 202.39935 277.85867 203.71185Q276.4993 205.00873 274.40555 205.00873Q272.51492 205.00873 271.26492 203.88373Q270.03055 202.75873 269.85867 200.97748ZM281.17117 193.88373Q281.17117 192.35248 281.9368 191.27435Q282.71805 190.19623 284.1868 190.19623Q285.53055 190.19623 286.40555 191.16498Q287.29617 192.1181 287.29617 193.9931Q287.29617 195.8056 286.40555 196.78998Q285.51492 197.75873 284.20242 197.75873Q282.90555 197.75873 282.03055 196.8056Q281.17117 195.83685 281.17117 193.88373ZM284.23367 191.41498Q283.57742 191.41498 283.13992 191.97748Q282.71805 192.53998 282.71805 194.0556Q282.71805 195.4306 283.15555 195.9931Q283.59305 196.5556 284.23367 196.5556Q284.90555 196.5556 285.32742 195.9931Q285.76492 195.41498 285.76492 193.91498Q285.76492 192.52435 285.32742 191.97748Q284.88992 191.41498 284.23367 191.41498ZM284.2493 205.28998L292.07742 190.19623L293.4993 190.19623L285.70242 205.28998L284.2493 205.28998ZM290.4368 201.39935Q290.4368 199.85248 291.20242 198.78998Q291.98367 197.71185 293.45242 197.71185Q294.79617 197.71185 295.67117 198.6806Q296.5618 199.63373 296.5618 201.50873Q296.5618 203.32123 295.67117 204.3056Q294.78055 205.28998 293.46805 205.28998Q292.17117 205.28998 291.29617 204.32123Q290.4368 203.33685 290.4368 201.39935ZM293.4993 198.9306Q292.84305 198.9306 292.40555 199.4931Q291.96805 200.0556 291.96805 201.57123Q291.96805 202.94623 292.40555 203.50873Q292.84305 204.07123 293.4993 204.07123Q294.17117 204.07123 294.59305 203.50873Q295.03055 202.94623 295.03055 201.4306Q295.03055 200.0556 294.59305 199.4931Q294.15555 198.9306 293.4993 198.9306ZM300.48367 208.96185L299.23367 208.96185Q302.13992 204.27435 302.13992 199.58685Q302.13992 197.7431 301.73367 195.94623Q301.38992 194.47748 300.79617 193.13373Q300.42117 192.2431 299.23367 190.19623L300.48367 190.19623Q302.32742 192.64935 303.20242 195.1181Q303.95242 197.2431 303.95242 199.57123Q303.95242 202.21185 302.9368 204.6806Q301.9368 207.13373 300.48367 208.96185Z" fill-rule="nonzero"/><path fill="#4285f4" d="M32.0 334.0C32.0 337.31372 29.31371 340.0 26.0 340.0C22.68629 340.0 20.0 337.31372 20.0 334.0C20.0 330.68628 22.68629 328.0 26.0 328.0C29.31371 328.0 32.0 330.68628 32.0 334.0Z" fill-rule="nonzero"/><path fill="#1a1a1a" d="M54.109375 335.96875L56.390625 336.54688Q55.671875 339.34375 53.8125 340.82812Q51.953125 342.29688 49.265625 342.29688Q46.5 342.29688 44.75 341.17188Q43.015625 340.03125 42.109375 337.89062Q41.203125 335.73438 41.203125 333.28125Q41.203125 330.59375 42.21875 328.59375Q43.25 326.59375 45.140625 325.5625Q47.03125 324.53125 49.3125 324.53125Q51.890625 324.53125 53.640625 325.84375Q55.40625 327.15625 56.09375 329.53125L53.859375 330.0625Q53.25 328.1875 52.109375 327.32812Q50.984375 326.46875 49.265625 326.46875Q47.28125 326.46875 45.953125 327.42188Q44.625 328.375 44.078125 329.96875Q43.546875 331.5625 43.546875 333.26562Q43.546875 335.45312 44.171875 337.09375Q44.8125 338.73438 46.15625 339.54688Q47.515625 340.34375 49.078125 340.34375Q51.0 340.34375 52.3125 339.25Q53.640625 338.14062 54.109375 335.96875ZM57.796875 335.78125Q57.796875 332.3125 59.71875 330.65625Q61.328125 329.26562 63.640625 329.26562Q66.203125 329.26562 67.828125 330.95312Q69.453125 332.64062 69.453125 335.59375Q69.453125 338.0 68.734375 339.375Q68.015625 340.75 66.640625 341.51562Q65.265625 342.28125 63.640625 342.28125Q61.015625 342.28125 59.40625 340.60938Q57.796875 338.92188 57.796875 335.78125ZM59.96875 335.78125Q59.96875 338.17188 61.0 339.35938Q62.046875 340.54688 63.640625 340.54688Q65.203125 340.54688 66.25 339.35938Q67.296875 338.15625 67.296875 335.70312Q67.296875 333.39062 66.234375 332.20312Q65.1875 331.01562 63.640625 331.01562Q62.046875 331.01562 61.0 332.20312Q59.96875 333.39062 59.96875 335.78125ZM71.578125 342.0L71.578125 329.54688L73.484375 329.54688L73.484375 331.32812Q74.859375 329.26562 77.4375 329.26562Q78.5625 329.26562 79.5 329.67188Q80.453125 330.07812 80.921875 330.73438Q81.390625 331.39062 81.578125 332.29688Q81.703125 332.875 81.703125 334.34375L81.703125 342.0L79.59375 342.0L79.59375 334.42188Q79.59375 333.14062 79.34375 332.5Q79.09375 331.85938 78.46875 331.48438Q77.84375 331.09375 77.0 331.09375Q75.65625 331.09375 74.671875 331.95312Q73.6875 332.8125 73.6875 335.20312L73.6875 342.0L71.578125 342.0ZM89.1875 340.10938L89.5 341.96875Q88.609375 342.17188 87.90625 342.17188Q86.75 342.17188 86.109375 341.8125Q85.484375 341.4375 85.21875 340.84375Q84.96875 340.25 84.96875 338.35938L84.96875 331.1875L83.421875 331.1875L83.421875 329.54688L84.96875 329.54688L84.96875 326.46875L87.0625 325.20312L87.0625 329.54688L89.1875 329.54688L89.1875 331.1875L87.0625 331.1875L87.0625 338.46875Q87.0625 339.375 87.171875 339.64062Q87.296875 339.89062 87.546875 340.04688Q87.796875 340.1875 88.265625 340.1875Q88.609375 340.1875 89.1875 340.10938ZM91.59375 327.25L91.59375 324.8125L93.703125 324.8125L93.703125 327.25L91.59375 327.25ZM91.59375 342.0L91.59375 329.54688L93.703125 329.54688L93.703125 342.0L91.59375 342.0ZM96.578125 342.0L96.578125 329.54688L98.484375 329.54688L98.484375 331.32812Q99.859375 329.26562 102.4375 329.26562Q103.5625 329.26562 104.5 329.67188Q105.453125 330.07812 105.921875 330.73438Q106.390625 331.39062 106.578125 332.29688Q106.703125 332.875 106.703125 334.34375L106.703125 342.0L104.59375 342.0L104.59375 334.42188Q104.59375 333.14062 104.34375 332.5Q104.09375 331.85938 103.46875 331.48438Q102.84375 331.09375 102.0 331.09375Q100.65625 331.09375 99.671875 331.95312Q98.6875 332.8125 98.6875 335.20312L98.6875 342.0L96.578125 342.0ZM117.734375 342.0L117.734375 340.17188Q116.28125 342.28125 113.796875 342.28125Q112.6875 342.28125 111.734375 341.85938Q110.78125 341.4375 110.3125 340.79688Q109.859375 340.15625 109.671875 339.23438Q109.53125 338.60938 109.53125 337.26562L109.53125 329.54688L111.640625 329.54688L111.640625 336.45312Q111.640625 338.10938 111.78125 338.6875Q111.96875 339.51562 112.609375 340.0Q113.265625 340.46875 114.21875 340.46875Q115.15625 340.46875 115.984375 339.98438Q116.828125 339.48438 117.171875 338.65625Q117.515625 337.8125 117.515625 336.21875L117.515625 329.54688L119.625 329.54688L119.625 342.0L117.734375 342.0ZM131.10938 337.98438L133.28125 338.26562Q132.76562 340.17188 131.375 341.23438Q129.98438 342.28125 127.8125 342.28125Q125.078125 342.28125 123.46875 340.60938Q121.875 338.92188 121.875 335.875Q121.875 332.73438 123.484375 331.0Q125.109375 329.26562 127.6875 329.26562Q130.1875 329.26562 131.76562 330.96875Q133.35938 332.67188 133.35938 335.75Q133.35938 335.9375 133.34375 336.3125L124.0625 336.3125Q124.171875 338.35938 125.21875 339.45312Q126.265625 340.54688 127.828125 340.54688Q128.98438 340.54688 129.79688 339.9375Q130.625 339.32812 131.10938 337.98438ZM124.171875 334.57812L131.125 334.57812Q130.98438 333.01562 130.32812 332.21875Q129.32812 331.0 127.71875 331.0Q126.265625 331.0 125.265625 331.98438Q124.28125 332.95312 124.171875 334.57812ZM135.5625 342.0L135.5625 329.54688L137.45312 329.54688L137.45312 331.4375Q138.1875 330.10938 138.79688 329.6875Q139.42188 329.26562 140.15625 329.26562Q141.21875 329.26562 142.32812 329.95312L141.59375 331.90625Q140.82812 331.45312 140.04688 331.45312Q139.35938 331.45312 138.79688 331.875Q138.25 332.28125 138.01562 333.01562Q137.67188 334.14062 137.67188 335.48438L137.67188 342.0L135.5625 342.0ZM149.73438 338.28125L151.82812 337.95312Q152.0 339.20312 152.79688 339.875Q153.60938 340.54688 155.04688 340.54688Q156.5 340.54688 157.20312 339.95312Q157.90625 339.35938 157.90625 338.5625Q157.90625 337.84375 157.28125 337.4375Q156.85938 337.15625 155.125 336.71875Q152.8125 336.14062 151.90625 335.71875Q151.01562 335.28125 150.54688 334.53125Q150.09375 333.76562 150.09375 332.85938Q150.09375 332.03125 150.46875 331.32812Q150.85938 330.60938 151.51562 330.14062Q152.0 329.78125 152.84375 329.53125Q153.70312 329.26562 154.67188 329.26562Q156.14062 329.26562 157.25 329.6875Q158.35938 330.10938 158.875 330.84375Q159.40625 331.5625 159.60938 332.76562L157.54688 333.04688Q157.40625 332.07812 156.73438 331.54688Q156.0625 331.0 154.82812 331.0Q153.375 331.0 152.75 331.48438Q152.125 331.96875 152.125 332.60938Q152.125 333.01562 152.39062 333.34375Q152.64062 333.6875 153.20312 333.90625Q153.51562 334.03125 155.0625 334.45312Q157.29688 335.04688 158.17188 335.4375Q159.0625 335.8125 159.5625 336.54688Q160.07812 337.26562 160.07812 338.34375Q160.07812 339.39062 159.45312 340.32812Q158.84375 341.26562 157.6875 341.78125Q156.53125 342.28125 155.0625 342.28125Q152.64062 342.28125 151.35938 341.28125Q150.09375 340.26562 149.73438 338.28125ZM170.73438 342.0L170.73438 340.17188Q169.28125 342.28125 166.79688 342.28125Q165.6875 342.28125 164.73438 341.85938Q163.78125 341.4375 163.3125 340.79688Q162.85938 340.15625 162.67188 339.23438Q162.53125 338.60938 162.53125 337.26562L162.53125 329.54688L164.64062 329.54688L164.64062 336.45312Q164.64062 338.10938 164.78125 338.6875Q164.96875 339.51562 165.60938 340.0Q166.26562 340.46875 167.21875 340.46875Q168.15625 340.46875 168.98438 339.98438Q169.82812 339.48438 170.17188 338.65625Q170.51562 337.8125 170.51562 336.21875L170.51562 329.54688L172.625 329.54688L172.625 342.0L170.73438 342.0ZM175.5625 342.0L175.5625 329.54688L177.45312 329.54688L177.45312 331.4375Q178.1875 330.10938 178.79688 329.6875Q179.42188 329.26562 180.15625 329.26562Q181.21875 329.26562 182.32812 329.95312L181.59375 331.90625Q180.82812 331.45312 180.04688 331.45312Q179.35938 331.45312 178.79688 331.875Q178.25 332.28125 178.01562 333.01562Q177.67188 334.14062 177.67188 335.48438L177.67188 342.0L175.5625 342.0ZM190.53125 342.0L190.53125 324.8125L192.64062 324.8125L192.64062 342.0L190.53125 342.0ZM203.70312 340.46875Q202.53125 341.45312 201.4375 341.875Q200.35938 342.28125 199.125 342.28125Q197.07812 342.28125 195.96875 341.28125Q194.875 340.28125 194.875 338.71875Q194.875 337.79688 195.28125 337.04688Q195.70312 336.29688 196.375 335.84375Q197.04688 335.375 197.89062 335.14062Q198.51562 334.98438 199.76562 334.82812Q202.32812 334.51562 203.53125 334.09375Q203.54688 333.67188 203.54688 333.54688Q203.54688 332.26562 202.9375 331.73438Q202.14062 331.01562 200.54688 331.01562Q199.04688 331.01562 198.34375 331.54688Q197.64062 332.0625 197.29688 333.39062L195.23438 333.10938Q195.51562 331.78125 196.15625 330.96875Q196.79688 330.15625 198.01562 329.71875Q199.23438 329.26562 200.84375 329.26562Q202.4375 329.26562 203.4375 329.64062Q204.4375 330.01562 204.90625 330.59375Q205.375 331.15625 205.5625 332.03125Q205.65625 332.5625 205.65625 333.96875L205.65625 336.78125Q205.65625 339.71875 205.79688 340.5Q205.9375 341.28125 206.32812 342.0L204.125 342.0Q203.79688 341.34375 203.70312 340.46875ZM203.53125 335.75Q202.375 336.21875 200.07812 336.54688Q198.78125 336.73438 198.23438 336.96875Q197.70312 337.20312 197.40625 337.65625Q197.125 338.10938 197.125 338.65625Q197.125 339.5 197.75 340.0625Q198.39062 340.625 199.625 340.625Q200.84375 340.625 201.79688 340.09375Q202.75 339.5625 203.1875 338.64062Q203.53125 337.92188 203.53125 336.53125L203.53125 335.75ZM220.1875 340.10938L220.5 341.96875Q219.60938 342.17188 218.90625 342.17188Q217.75 342.17188 217.10938 341.8125Q216.48438 341.4375 216.21875 340.84375Q215.96875 340.25 215.96875 338.35938L215.96875 331.1875L214.42188 331.1875L214.42188 329.54688L215.96875 329.54688L215.96875 326.46875L218.0625 325.20312L218.0625 329.54688L220.1875 329.54688L220.1875 331.1875L218.0625 331.1875L218.0625 338.46875Q218.0625 339.375 218.17188 339.64062Q218.29688 339.89062 218.54688 340.04688Q218.79688 340.1875 219.26562 340.1875Q219.60938 340.1875 220.1875 340.10938ZM222.5625 342.0L222.5625 329.54688L224.45312 329.54688L224.45312 331.4375Q225.1875 330.10938 225.79688 329.6875Q226.42188 329.26562 227.15625 329.26562Q228.21875 329.26562 229.32812 329.95312L228.59375 331.90625Q227.82812 331.45312 227.04688 331.45312Q226.35938 331.45312 225.79688 331.875Q225.25 332.28125 225.01562 333.01562Q224.67188 334.14062 224.67188 335.48438L224.67188 342.0L222.5625 342.0ZM238.70312 340.46875Q237.53125 341.45312 236.4375 341.875Q235.35938 342.28125 234.125 342.28125Q232.07812 342.28125 230.96875 341.28125Q229.875 340.28125 229.875 338.71875Q229.875 337.79688 230.28125 337.04688Q230.70312 336.29688 231.375 335.84375Q232.04688 335.375 232.89062 335.14062Q233.51562 334.98438 234.76562 334.82812Q237.32812 334.51562 238.53125 334.09375Q238.54688 333.67188 238.54688 333.54688Q238.54688 332.26562 237.9375 331.73438Q237.14062 331.01562 235.54688 331.01562Q234.04688 331.01562 233.34375 331.54688Q232.64062 332.0625 232.29688 333.39062L230.23438 333.10938Q230.51562 331.78125 231.15625 330.96875Q231.79688 330.15625 233.01562 329.71875Q234.23438 329.26562 235.84375 329.26562Q237.4375 329.26562 238.4375 329.64062Q239.4375 330.01562 239.90625 330.59375Q240.375 331.15625 240.5625 332.03125Q240.65625 332.5625 240.65625 333.96875L240.65625 336.78125Q240.65625 339.71875 240.79688 340.5Q240.9375 341.28125 241.32812 342.0L239.125 342.0Q238.79688 341.34375 238.70312 340.46875ZM238.53125 335.75Q237.375 336.21875 235.07812 336.54688Q233.78125 336.73438 233.23438 336.96875Q232.70312 337.20312 232.40625 337.65625Q232.125 338.10938 232.125 338.65625Q232.125 339.5 232.75 340.0625Q233.39062 340.625 234.625 340.625Q235.84375 340.625 236.79688 340.09375Q237.75 339.5625 238.1875 338.64062Q238.53125 337.92188 238.53125 336.53125L238.53125 335.75ZM243.57812 327.26562L243.57812 324.8125L245.6875 324.8125L245.6875 327.26562L243.57812 327.26562ZM240.89062 346.82812L241.29688 345.03125Q241.92188 345.20312 242.29688 345.20312Q242.9375 345.20312 243.25 344.76562Q243.57812 344.34375 243.57812 342.64062L243.57812 329.54688L245.6875 329.54688L245.6875 342.6875Q245.6875 344.98438 245.07812 345.875Q244.32812 347.04688 242.54688 347.04688Q241.6875 347.04688 240.89062 346.82812ZM257.10938 337.98438L259.28125 338.26562Q258.76562 340.17188 257.375 341.23438Q255.98438 342.28125 253.8125 342.28125Q251.07812 342.28125 249.46875 340.60938Q247.875 338.92188 247.875 335.875Q247.875 332.73438 249.48438 331.0Q251.10938 329.26562 253.6875 329.26562Q256.1875 329.26562 257.76562 330.96875Q259.35938 332.67188 259.35938 335.75Q259.35938 335.9375 259.34375 336.3125L250.0625 336.3125Q250.17188 338.35938 251.21875 339.45312Q252.26562 340.54688 253.82812 340.54688Q254.98438 340.54688 255.79688 339.9375Q256.625 339.32812 257.10938 337.98438ZM250.17188 334.57812L257.125 334.57812Q256.98438 333.01562 256.32812 332.21875Q255.32812 331.0 253.71875 331.0Q252.26562 331.0 251.26562 331.98438Q250.28125 332.95312 250.17188 334.57812ZM269.70312 337.4375L271.78125 337.70312Q271.4375 339.85938 270.03125 341.07812Q268.64062 342.28125 266.59375 342.28125Q264.04688 342.28125 262.48438 340.60938Q260.9375 338.9375 260.9375 335.82812Q260.9375 333.8125 261.60938 332.29688Q262.28125 330.78125 263.64062 330.03125Q265.0 329.26562 266.60938 329.26562Q268.64062 329.26562 269.92188 330.29688Q271.21875 331.32812 271.57812 333.20312L269.53125 333.53125Q269.23438 332.26562 268.48438 331.64062Q267.75 331.0 266.6875 331.0Q265.09375 331.0 264.09375 332.15625Q263.10938 333.29688 263.10938 335.76562Q263.10938 338.26562 264.0625 339.40625Q265.03125 340.54688 266.57812 340.54688Q267.8125 340.54688 268.64062 339.78125Q269.48438 339.01562 269.70312 337.4375ZM278.1875 340.10938L278.5 341.96875Q277.60938 342.17188 276.90625 342.17188Q275.75 342.17188 275.10938 341.8125Q274.48438 341.4375 274.21875 340.84375Q273.96875 340.25 273.96875 338.35938L273.96875 331.1875L272.42188 331.1875L272.42188 329.54688L273.96875 329.54688L273.96875 326.46875L276.0625 325.20312L276.0625 329.54688L278.1875 329.54688L278.1875 331.1875L276.0625 331.1875L276.0625 338.46875Q276.0625 339.375 276.17188 339.64062Q276.29688 339.89062 276.54688 340.04688Q276.79688 340.1875 277.26562 340.1875Q277.60938 340.1875 278.1875 340.10938ZM279.79688 335.78125Q279.79688 332.3125 281.71875 330.65625Q283.32812 329.26562 285.64062 329.26562Q288.20312 329.26562 289.82812 330.95312Q291.45312 332.64062 291.45312 335.59375Q291.45312 338.0 290.73438 339.375Q290.01562 340.75 288.64062 341.51562Q287.26562 342.28125 285.64062 342.28125Q283.01562 342.28125 281.40625 340.60938Q279.79688 338.92188 279.79688 335.78125ZM281.96875 335.78125Q281.96875 338.17188 283.0 339.35938Q284.04688 340.54688 285.64062 340.54688Q287.20312 340.54688 288.25 339.35938Q289.29688 338.15625 289.29688 335.70312Q289.29688 333.39062 288.23438 332.20312Q287.1875 331.01562 285.64062 331.01562Q284.04688 331.01562 283.0 332.20312Q281.96875 333.39062 281.96875 335.78125ZM293.59375 327.25L293.59375 324.8125L295.70312 324.8125L295.70312 327.25L293.59375 327.25ZM293.59375 342.0L293.59375 329.54688L295.70312 329.54688L295.70312 342.0L293.59375 342.0ZM298.5625 342.0L298.5625 329.54688L300.45312 329.54688L300.45312 331.4375Q301.1875 330.10938 301.79688 329.6875Q302.42188 329.26562 303.15625 329.26562Q304.21875 329.26562 305.32812 329.95312L304.59375 331.90625Q303.82812 331.45312 303.04688 331.45312Q302.35938 331.45312 301.79688 331.875Q301.25 332.28125 301.01562 333.01562Q300.67188 334.14062 300.67188 335.48438L300.67188 342.0L298.5625 342.0ZM315.10938 337.98438L317.28125 338.26562Q316.76562 340.17188 315.375 341.23438Q313.98438 342.28125 311.8125 342.28125Q309.07812 342.28125 307.46875 340.60938Q305.875 338.92188 305.875 335.875Q305.875 332.73438 307.48438 331.0Q309.10938 329.26562 311.6875 329.26562Q314.1875 329.26562 315.76562 330.96875Q317.35938 332.67188 317.35938 335.75Q317.35938 335.9375 317.34375 336.3125L308.0625 336.3125Q308.17188 338.35938 309.21875 339.45312Q310.26562 340.54688 311.82812 340.54688Q312.98438 340.54688 313.79688 339.9375Q314.625 339.32812 315.10938 337.98438ZM308.17188 334.57812L315.125 334.57812Q314.98438 333.01562 314.32812 332.21875Q313.32812 331.0 311.71875 331.0Q310.26562 331.0 309.26562 331.98438Q308.28125 332.95312 308.17188 334.57812ZM326.59375 327.25L326.59375 324.8125L328.70312 324.8125L328.70312 327.25L326.59375 327.25ZM326.59375 342.0L326.59375 329.54688L328.70312 329.54688L328.70312 342.0L326.59375 342.0ZM331.57812 342.0L331.57812 329.54688L333.48438 329.54688L333.48438 331.32812Q334.85938 329.26562 337.4375 329.26562Q338.5625 329.26562 339.5 329.67188Q340.45312 330.07812 340.92188 330.73438Q341.39062 331.39062 341.57812 332.29688Q341.70312 332.875 341.70312 334.34375L341.70312 342.0L339.59375 342.0L339.59375 334.42188Q339.59375 333.14062 339.34375 332.5Q339.09375 331.85938 338.46875 331.48438Q337.84375 331.09375 337.0 331.09375Q335.65625 331.09375 334.67188 331.95312Q333.6875 332.8125 333.6875 335.20312L333.6875 342.0L331.57812 342.0ZM344.59375 327.25L344.59375 324.8125L346.70312 324.8125L346.70312 327.25L344.59375 327.25ZM344.59375 342.0L344.59375 329.54688L346.70312 329.54688L346.70312 342.0L344.59375 342.0ZM354.1875 340.10938L354.5 341.96875Q353.60938 342.17188 352.90625 342.17188Q351.75 342.17188 351.10938 341.8125Q350.48438 341.4375 350.21875 340.84375Q349.96875 340.25 349.96875 338.35938L349.96875 331.1875L348.42188 331.1875L348.42188 329.54688L349.96875 329.54688L349.96875 326.46875L352.0625 325.20312L352.0625 329.54688L354.1875 329.54688L354.1875 331.1875L352.0625 331.1875L352.0625 338.46875Q352.0625 339.375 352.17188 339.64062Q352.29688 339.89062 352.54688 340.04688Q352.79688 340.1875 353.26562 340.1875Q353.60938 340.1875 354.1875 340.10938ZM356.59375 327.25L356.59375 324.8125L358.70312 324.8125L358.70312 327.25L356.59375 327.25ZM356.59375 342.0L356.59375 329.54688L358.70312 329.54688L358.70312 342.0L356.59375 342.0ZM369.70312 340.46875Q368.53125 341.45312 367.4375 341.875Q366.35938 342.28125 365.125 342.28125Q363.07812 342.28125 361.96875 341.28125Q360.875 340.28125 360.875 338.71875Q360.875 337.79688 361.28125 337.04688Q361.70312 336.29688 362.375 335.84375Q363.04688 335.375 363.89062 335.14062Q364.51562 334.98438 365.76562 334.82812Q368.32812 334.51562 369.53125 334.09375Q369.54688 333.67188 369.54688 333.54688Q369.54688 332.26562 368.9375 331.73438Q368.14062 331.01562 366.54688 331.01562Q365.04688 331.01562 364.34375 331.54688Q363.64062 332.0625 363.29688 333.39062L361.23438 333.10938Q361.51562 331.78125 362.15625 330.96875Q362.79688 330.15625 364.01562 329.71875Q365.23438 329.26562 366.84375 329.26562Q368.4375 329.26562 369.4375 329.64062Q370.4375 330.01562 370.90625 330.59375Q371.375 331.15625 371.5625 332.03125Q371.65625 332.5625 371.65625 333.96875L371.65625 336.78125Q371.65625 339.71875 371.79688 340.5Q371.9375 341.28125 372.32812 342.0L370.125 342.0Q369.79688 341.34375 369.70312 340.46875ZM369.53125 335.75Q368.375 336.21875 366.07812 336.54688Q364.78125 336.73438 364.23438 336.96875Q363.70312 337.20312 363.40625 337.65625Q363.125 338.10938 363.125 338.65625Q363.125 339.5 363.75 340.0625Q364.39062 340.625 365.625 340.625Q366.84375 340.625 367.79688 340.09375Q368.75 339.5625 369.1875 338.64062Q369.53125 337.92188 369.53125 336.53125L369.53125 335.75ZM374.53125 342.0L374.53125 324.8125L376.64062 324.8125L376.64062 342.0L374.53125 342.0ZM388.10938 337.98438L390.28125 338.26562Q389.76562 340.17188 388.375 341.23438Q386.98438 342.28125 384.8125 342.28125Q382.07812 342.28125 380.46875 340.60938Q378.875 338.92188 378.875 335.875Q378.875 332.73438 380.48438 331.0Q382.10938 329.26562 384.6875 329.26562Q387.1875 329.26562 388.76562 330.96875Q390.35938 332.67188 390.35938 335.75Q390.35938 335.9375 390.34375 336.3125L381.0625 336.3125Q381.17188 338.35938 382.21875 339.45312Q383.26562 340.54688 384.82812 340.54688Q385.98438 340.54688 386.79688 339.9375Q387.625 339.32812 388.10938 337.98438ZM381.17188 334.57812L388.125 334.57812Q387.98438 333.01562 387.32812 332.21875Q386.32812 331.0 384.71875 331.0Q383.26562 331.0 382.26562 331.98438Q381.28125 332.95312 381.17188 334.57812ZM403.60938 347.04688Q401.875 344.84375 400.65625 341.89062Q399.45312 338.9375 399.45312 335.78125Q399.45312 332.98438 400.35938 330.4375Q401.40625 327.46875 403.60938 324.53125L405.125 324.53125Q403.70312 326.96875 403.25 328.0Q402.53125 329.625 402.125 331.375Q401.625 333.57812 401.625 335.78125Q401.625 341.42188 405.125 347.04688L403.60938 347.04688ZM407.0 337.5L409.21875 337.3125Q409.45312 338.92188 410.34375 339.75Q411.25 340.5625 412.51562 340.5625Q414.04688 340.5625 415.09375 339.42188Q416.15625 338.26562 416.15625 336.35938Q416.15625 334.5625 415.14062 333.51562Q414.125 332.46875 412.48438 332.46875Q411.46875 332.46875 410.64062 332.9375Q409.82812 333.39062 409.35938 334.14062L407.375 333.875L409.03125 325.04688L417.57812 325.04688L417.57812 327.0625L410.71875 327.0625L409.79688 331.6875Q411.34375 330.60938 413.04688 330.60938Q415.29688 330.60938 416.84375 332.17188Q418.39062 333.71875 418.39062 336.17188Q418.39062 338.5 417.03125 340.20312Q415.375 342.29688 412.51562 342.29688Q410.17188 342.29688 408.6875 340.98438Q407.20312 339.67188 407.0 337.5ZM427.57812 342.0L427.57812 329.54688L429.46875 329.54688L429.46875 331.29688Q430.0625 330.39062 431.03125 329.82812Q432.0 329.26562 433.25 329.26562Q434.625 329.26562 435.5 329.84375Q436.39062 330.42188 436.76562 331.45312Q438.23438 329.26562 440.60938 329.26562Q442.45312 329.26562 443.45312 330.29688Q444.45312 331.32812 444.45312 333.45312L444.45312 342.0L442.34375 342.0L442.34375 334.15625Q442.34375 332.89062 442.14062 332.34375Q441.9375 331.78125 441.39062 331.4375Q440.85938 331.09375 440.14062 331.09375Q438.82812 331.09375 437.95312 331.96875Q437.09375 332.84375 437.09375 334.76562L437.09375 342.0L434.98438 342.0L434.98438 333.90625Q434.98438 332.5 434.46875 331.79688Q433.95312 331.09375 432.78125 331.09375Q431.89062 331.09375 431.125 331.5625Q430.375 332.03125 430.03125 332.9375Q429.6875 333.84375 429.6875 335.54688L429.6875 342.0L427.57812 342.0ZM446.79688 335.78125Q446.79688 332.3125 448.71875 330.65625Q450.32812 329.26562 452.64062 329.26562Q455.20312 329.26562 456.82812 330.95312Q458.45312 332.64062 458.45312 335.59375Q458.45312 338.0 457.73438 339.375Q457.01562 340.75 455.64062 341.51562Q454.26562 342.28125 452.64062 342.28125Q450.01562 342.28125 448.40625 340.60938Q446.79688 338.92188 446.79688 335.78125ZM448.96875 335.78125Q448.96875 338.17188 450.0 339.35938Q451.04688 340.54688 452.64062 340.54688Q454.20312 340.54688 455.25 339.35938Q456.29688 338.15625 456.29688 335.70312Q456.29688 333.39062 455.23438 332.20312Q454.1875 331.01562 452.64062 331.01562Q451.04688 331.01562 450.0 332.20312Q448.96875 333.39062 448.96875 335.78125ZM460.5625 342.0L460.5625 329.54688L462.45312 329.54688L462.45312 331.4375Q463.1875 330.10938 463.79688 329.6875Q464.42188 329.26562 465.15625 329.26562Q466.21875 329.26562 467.32812 329.95312L466.59375 331.90625Q465.82812 331.45312 465.04688 331.45312Q464.35938 331.45312 463.79688 331.875Q463.25 332.28125 463.01562 333.01562Q462.67188 334.14062 462.67188 335.48438L462.67188 342.0L460.5625 342.0ZM473.1875 340.10938L473.5 341.96875Q472.60938 342.17188 471.90625 342.17188Q470.75 342.17188 470.10938 341.8125Q469.48438 341.4375 469.21875 340.84375Q468.96875 340.25 468.96875 338.35938L468.96875 331.1875L467.42188 331.1875L467.42188 329.54688L468.96875 329.54688L468.96875 326.46875L471.0625 325.20312L471.0625 329.54688L473.1875 329.54688L473.1875 331.1875L471.0625 331.1875L471.0625 338.46875Q471.0625 339.375 471.17188 339.64062Q471.29688 339.89062 471.54688 340.04688Q471.79688 340.1875 472.26562 340.1875Q472.60938 340.1875 473.1875 340.10938ZM474.73438 338.28125L476.82812 337.95312Q477.0 339.20312 477.79688 339.875Q478.60938 340.54688 480.04688 340.54688Q481.5 340.54688 482.20312 339.95312Q482.90625 339.35938 482.90625 338.5625Q482.90625 337.84375 482.28125 337.4375Q481.85938 337.15625 480.125 336.71875Q477.8125 336.14062 476.90625 335.71875Q476.01562 335.28125 475.54688 334.53125Q475.09375 333.76562 475.09375 332.85938Q475.09375 332.03125 475.46875 331.32812Q475.85938 330.60938 476.51562 330.14062Q477.0 329.78125 477.84375 329.53125Q478.70312 329.26562 479.67188 329.26562Q481.14062 329.26562 482.25 329.6875Q483.35938 330.10938 483.875 330.84375Q484.40625 331.5625 484.60938 332.76562L482.54688 333.04688Q482.40625 332.07812 481.73438 331.54688Q481.0625 331.0 479.82812 331.0Q478.375 331.0 477.75 331.48438Q477.125 331.96875 477.125 332.60938Q477.125 333.01562 477.39062 333.34375Q477.64062 333.6875 478.20312 333.90625Q478.51562 334.03125 480.0625 334.45312Q482.29688 335.04688 483.17188 335.4375Q484.0625 335.8125 484.5625 336.54688Q485.07812 337.26562 485.07812 338.34375Q485.07812 339.39062 484.45312 340.32812Q483.84375 341.26562 482.6875 341.78125Q481.53125 342.28125 480.0625 342.28125Q477.64062 342.28125 476.35938 341.28125Q475.09375 340.26562 474.73438 338.28125ZM488.96875 347.04688L487.45312 347.04688Q490.95312 341.42188 490.95312 335.78125Q490.95312 333.57812 490.45312 331.42188Q490.0625 329.65625 489.34375 328.04688Q488.89062 326.98438 487.45312 324.53125L488.96875 324.53125Q491.17188 327.46875 492.21875 330.4375Q493.125 332.98438 493.125 335.78125Q493.125 338.9375 491.90625 341.89062Q490.70312 344.84375 488.96875 347.04688Z" fill-rule="nonzero"/><path fill="#ea4335" d="M227.0 366.0C227.0 369.31372 224.3137 372.0 221.0 372.0C217.6863 372.0 215.0 369.31372 215.0 366.0C215.0 362.68628 217.6863 360.0 221.0 360.0C224.3137 360.0 227.0 362.68628 227.0 366.0Z" fill-rule="nonzero"/><path fill="#1a1a1a" d="M236.07812 368.48438L238.21875 368.29688Q238.375 369.57812 238.92188 370.40625Q239.48438 371.23438 240.65625 371.75Q241.82812 372.25 243.29688 372.25Q244.59375 372.25 245.59375 371.875Q246.59375 371.48438 247.07812 370.8125Q247.5625 370.125 247.5625 369.32812Q247.5625 368.53125 247.09375 367.92188Q246.625 367.3125 245.54688 366.90625Q244.85938 366.64062 242.48438 366.07812Q240.125 365.5 239.17188 365.0Q237.9375 364.35938 237.32812 363.40625Q236.73438 362.4375 236.73438 361.26562Q236.73438 359.95312 237.46875 358.82812Q238.21875 357.70312 239.625 357.125Q241.04688 356.53125 242.78125 356.53125Q244.6875 356.53125 246.14062 357.14062Q247.60938 357.75 248.39062 358.95312Q249.1875 360.14062 249.23438 361.65625L247.0625 361.82812Q246.89062 360.1875 245.875 359.35938Q244.85938 358.53125 242.875 358.53125Q240.8125 358.53125 239.85938 359.29688Q238.92188 360.04688 238.92188 361.10938Q238.92188 362.03125 239.59375 362.625Q240.25 363.23438 243.01562 363.85938Q245.79688 364.48438 246.82812 364.95312Q248.32812 365.64062 249.03125 366.70312Q249.75 367.76562 249.75 369.14062Q249.75 370.51562 248.96875 371.73438Q248.1875 372.9375 246.71875 373.625Q245.25 374.29688 243.40625 374.29688Q241.07812 374.29688 239.5 373.625Q237.92188 372.9375 237.01562 371.57812Q236.125 370.20312 236.07812 368.48438ZM261.10938 369.98438L263.28125 370.26562Q262.76562 372.17188 261.375 373.23438Q259.98438 374.28125 257.8125 374.28125Q255.07812 374.28125 253.46875 372.60938Q251.875 370.92188 251.875 367.875Q251.875 364.73438 253.48438 363.0Q255.10938 361.26562 257.6875 361.26562Q260.1875 361.26562 261.76562 362.96875Q263.35938 364.67188 263.35938 367.75Q263.35938 367.9375 263.34375 368.3125L254.0625 368.3125Q254.17188 370.35938 255.21875 371.45312Q256.26562 372.54688 257.82812 372.54688Q258.98438 372.54688 259.79688 371.9375Q260.625 371.32812 261.10938 369.98438ZM254.17188 366.57812L261.125 366.57812Q260.98438 365.01562 260.32812 364.21875Q259.32812 363.0 257.71875 363.0Q256.26562 363.0 255.26562 363.98438Q254.28125 364.95312 254.17188 366.57812ZM280.65625 374.0L280.65625 372.42188Q279.46875 374.28125 277.17188 374.28125Q275.6875 374.28125 274.4375 373.46875Q273.1875 372.64062 272.5 371.17188Q271.82812 369.70312 271.82812 367.78125Q271.82812 365.92188 272.4375 364.40625Q273.0625 362.89062 274.29688 362.07812Q275.54688 361.26562 277.07812 361.26562Q278.20312 361.26562 279.07812 361.75Q279.96875 362.21875 280.51562 362.98438L280.51562 356.8125L282.60938 356.8125L282.60938 374.0L280.65625 374.0ZM273.98438 367.78125Q273.98438 370.17188 274.98438 371.35938Q276.0 372.54688 277.375 372.54688Q278.76562 372.54688 279.71875 371.42188Q280.6875 370.28125 280.6875 367.96875Q280.6875 365.40625 279.70312 364.21875Q278.71875 363.01562 277.28125 363.01562Q275.875 363.01562 274.92188 364.17188Q273.98438 365.3125 273.98438 367.78125ZM294.10938 369.98438L296.28125 370.26562Q295.76562 372.17188 294.375 373.23438Q292.98438 374.28125 290.8125 374.28125Q288.07812 374.28125 286.46875 372.60938Q284.875 370.92188 284.875 367.875Q284.875 364.73438 286.48438 363.0Q288.10938 361.26562 290.6875 361.26562Q293.1875 361.26562 294.76562 362.96875Q296.35938 364.67188 296.35938 367.75Q296.35938 367.9375 296.34375 368.3125L287.0625 368.3125Q287.17188 370.35938 288.21875 371.45312Q289.26562 372.54688 290.82812 372.54688Q291.98438 372.54688 292.79688 371.9375Q293.625 371.32812 294.10938 369.98438ZM287.17188 366.57812L294.125 366.57812Q293.98438 365.01562 293.32812 364.21875Q292.32812 363.0 290.71875 363.0Q289.26562 363.0 288.26562 363.98438Q287.28125 364.95312 287.17188 366.57812ZM289.60938 360.0L291.15625 356.71875L293.92188 356.71875L291.34375 360.0L289.60938 360.0ZM298.57812 378.76562L298.57812 361.54688L300.5 361.54688L300.5 363.17188Q301.1875 362.21875 302.03125 361.75Q302.89062 361.26562 304.10938 361.26562Q305.70312 361.26562 306.92188 362.09375Q308.14062 362.90625 308.76562 364.40625Q309.39062 365.90625 309.39062 367.6875Q309.39062 369.59375 308.70312 371.125Q308.01562 372.65625 306.70312 373.46875Q305.40625 374.28125 303.96875 374.28125Q302.90625 374.28125 302.0625 373.84375Q301.23438 373.39062 300.6875 372.70312L300.6875 378.76562L298.57812 378.76562ZM300.5 367.84375Q300.5 370.25 301.46875 371.40625Q302.4375 372.54688 303.82812 372.54688Q305.23438 372.54688 306.23438 371.35938Q307.23438 370.17188 307.23438 367.67188Q307.23438 365.29688 306.25 364.10938Q305.28125 362.92188 303.92188 362.92188Q302.5625 362.92188 301.53125 364.1875Q300.5 365.4375 300.5 367.84375ZM310.79688 367.78125Q310.79688 364.3125 312.71875 362.65625Q314.32812 361.26562 316.64062 361.26562Q319.20312 361.26562 320.82812 362.95312Q322.45312 364.64062 322.45312 367.59375Q322.45312 370.0 321.73438 371.375Q321.01562 372.75 319.64062 373.51562Q318.26562 374.28125 316.64062 374.28125Q314.01562 374.28125 312.40625 372.60938Q310.79688 370.92188 310.79688 367.78125ZM312.96875 367.78125Q312.96875 370.17188 314.0 371.35938Q315.04688 372.54688 316.64062 372.54688Q318.20312 372.54688 319.25 371.35938Q320.29688 370.15625 320.29688 367.70312Q320.29688 365.39062 319.23438 364.20312Q318.1875 363.01562 316.64062 363.01562Q315.04688 363.01562 314.0 364.20312Q312.96875 365.39062 312.96875 367.78125ZM324.5625 374.0L324.5625 361.54688L326.45312 361.54688L326.45312 363.4375Q327.1875 362.10938 327.79688 361.6875Q328.42188 361.26562 329.15625 361.26562Q330.21875 361.26562 331.32812 361.95312L330.59375 363.90625Q329.82812 363.45312 329.04688 363.45312Q328.35938 363.45312 327.79688 363.875Q327.25 364.28125 327.01562 365.01562Q326.67188 366.14062 326.67188 367.48438L326.67188 374.0L324.5625 374.0ZM337.1875 372.10938L337.5 373.96875Q336.60938 374.17188 335.90625 374.17188Q334.75 374.17188 334.10938 373.8125Q333.48438 373.4375 333.21875 372.84375Q332.96875 372.25 332.96875 370.35938L332.96875 363.1875L331.42188 363.1875L331.42188 361.54688L332.96875 361.54688L332.96875 358.46875L335.0625 357.20312L335.0625 361.54688L337.1875 361.54688L337.1875 363.1875L335.0625 363.1875L335.0625 370.46875Q335.0625 371.375 335.17188 371.64062Q335.29688 371.89062 335.54688 372.04688Q335.79688 372.1875 336.26562 372.1875Q336.60938 372.1875 337.1875 372.10938ZM348.10938 369.98438L350.28125 370.26562Q349.76562 372.17188 348.375 373.23438Q346.98438 374.28125 344.8125 374.28125Q342.07812 374.28125 340.46875 372.60938Q338.875 370.92188 338.875 367.875Q338.875 364.73438 340.48438 363.0Q342.10938 361.26562 344.6875 361.26562Q347.1875 361.26562 348.76562 362.96875Q350.35938 364.67188 350.35938 367.75Q350.35938 367.9375 350.34375 368.3125L341.0625 368.3125Q341.17188 370.35938 342.21875 371.45312Q343.26562 372.54688 344.82812 372.54688Q345.98438 372.54688 346.79688 371.9375Q347.625 371.32812 348.10938 369.98438ZM341.17188 366.57812L348.125 366.57812Q347.98438 365.01562 347.32812 364.21875Q346.32812 363.0 344.71875 363.0Q343.26562 363.0 342.26562 363.98438Q341.28125 364.95312 341.17188 366.57812ZM352.5625 374.0L352.5625 361.54688L354.45312 361.54688L354.45312 363.4375Q355.1875 362.10938 355.79688 361.6875Q356.42188 361.26562 357.15625 361.26562Q358.21875 361.26562 359.32812 361.95312L358.59375 363.90625Q357.82812 363.45312 357.04688 363.45312Q356.35938 363.45312 355.79688 363.875Q355.25 364.28125 355.01562 365.01562Q354.67188 366.14062 354.67188 367.48438L354.67188 374.0L352.5625 374.0ZM371.60938 379.04688Q369.875 376.84375 368.65625 373.89062Q367.45312 370.9375 367.45312 367.78125Q367.45312 364.98438 368.35938 362.4375Q369.40625 359.46875 371.60938 356.53125L373.125 356.53125Q371.70312 358.96875 371.25 360.0Q370.53125 361.625 370.125 363.375Q369.625 365.57812 369.625 367.78125Q369.625 373.42188 373.125 379.04688L371.60938 379.04688ZM382.9375 374.0L380.82812 374.0L380.82812 360.5625Q380.07812 361.28125 378.82812 362.01562Q377.59375 362.73438 376.60938 363.09375L376.60938 361.0625Q378.39062 360.23438 379.70312 359.04688Q381.03125 357.85938 381.57812 356.75L382.9375 356.75L382.9375 374.0ZM395.57812 374.0L395.57812 361.54688L397.46875 361.54688L397.46875 363.29688Q398.0625 362.39062 399.03125 361.82812Q400.0 361.26562 401.25 361.26562Q402.625 361.26562 403.5 361.84375Q404.39062 362.42188 404.76562 363.45312Q406.23438 361.26562 408.60938 361.26562Q410.45312 361.26562 411.45312 362.29688Q412.45312 363.32812 412.45312 365.45312L412.45312 374.0L410.34375 374.0L410.34375 366.15625Q410.34375 364.89062 410.14062 364.34375Q409.9375 363.78125 409.39062 363.4375Q408.85938 363.09375 408.14062 363.09375Q406.82812 363.09375 405.95312 363.96875Q405.09375 364.84375 405.09375 366.76562L405.09375 374.0L402.98438 374.0L402.98438 365.90625Q402.98438 364.5 402.46875 363.79688Q401.95312 363.09375 400.78125 363.09375Q399.89062 363.09375 399.125 363.5625Q398.375 364.03125 398.03125 364.9375Q397.6875 365.84375 397.6875 367.54688L397.6875 374.0L395.57812 374.0ZM414.79688 367.78125Q414.79688 364.3125 416.71875 362.65625Q418.32812 361.26562 420.64062 361.26562Q423.20312 361.26562 424.82812 362.95312Q426.45312 364.64062 426.45312 367.59375Q426.45312 370.0 425.73438 371.375Q425.01562 372.75 423.64062 373.51562Q422.26562 374.28125 420.64062 374.28125Q418.01562 374.28125 416.40625 372.60938Q414.79688 370.92188 414.79688 367.78125ZM416.96875 367.78125Q416.96875 370.17188 418.0 371.35938Q419.04688 372.54688 420.64062 372.54688Q422.20312 372.54688 423.25 371.35938Q424.29688 370.15625 424.29688 367.70312Q424.29688 365.39062 423.23438 364.20312Q422.1875 363.01562 420.64062 363.01562Q419.04688 363.01562 418.0 364.20312Q416.96875 365.39062 416.96875 367.78125ZM428.5625 374.0L428.5625 361.54688L430.45312 361.54688L430.45312 363.4375Q431.1875 362.10938 431.79688 361.6875Q432.42188 361.26562 433.15625 361.26562Q434.21875 361.26562 435.32812 361.95312L434.59375 363.90625Q433.82812 363.45312 433.04688 363.45312Q432.35938 363.45312 431.79688 363.875Q431.25 364.28125 431.01562 365.01562Q430.67188 366.14062 430.67188 367.48438L430.67188 374.0L428.5625 374.0ZM441.1875 372.10938L441.5 373.96875Q440.60938 374.17188 439.90625 374.17188Q438.75 374.17188 438.10938 373.8125Q437.48438 373.4375 437.21875 372.84375Q436.96875 372.25 436.96875 370.35938L436.96875 363.1875L435.42188 363.1875L435.42188 361.54688L436.96875 361.54688L436.96875 358.46875L439.0625 357.20312L439.0625 361.54688L441.1875 361.54688L441.1875 363.1875L439.0625 363.1875L439.0625 370.46875Q439.0625 371.375 439.17188 371.64062Q439.29688 371.89062 439.54688 372.04688Q439.79688 372.1875 440.26562 372.1875Q440.60938 372.1875 441.1875 372.10938ZM444.96875 379.04688L443.45312 379.04688Q446.95312 373.42188 446.95312 367.78125Q446.95312 365.57812 446.45312 363.42188Q446.0625 361.65625 445.34375 360.04688Q444.89062 358.98438 443.45312 356.53125L444.96875 356.53125Q447.17188 359.46875 448.21875 362.4375Q449.125 364.98438 449.125 367.78125Q449.125 370.9375 447.90625 373.89062Q446.70312 376.84375 444.96875 379.04688Z" fill-rule="nonzero"/></svg>