<svg version="1.1" viewBox="0.0 0.0 665.0 400.0" fill="none" stroke="none" stroke-linecap="square" stroke-miterlimit="10" width="665" height="400" xmlns:xlink="http://www.w3.org/1999/xlink" xmlns="http://www.w3.org/2000/svg"><path fill="#ffffff" d="M0 0L665.0 0L665.0 400.0L0 400.0L0 0Z" fill-rule="nonzero"/><path fill="#4285f4" d="M332.5 20.0C393.7042 20.0 449.49887 55.05812 476.05438 110.20119C502.60986 165.34425 495.232 230.82468 457.0718 278.67606L332.5 179.33333Z" fill-rule="nonzero"/><path fill="#ea4335" d="M457.0718 278.67606C410.7231 336.79547 330.34366 355.14154 263.36786 322.8877C196.39206 290.63385 160.61983 216.35207 177.16148 143.87833C193.70314 71.4046 258.16248 20.0 332.5 20.0L332.5 179.33333Z" fill-rule="nonzero"/><path fill="#000000" d="M373.31036 142.13962L375.1541 141.98337Q375.35724 143.32712 376.10724 144.01462Q376.85724 144.6865 377.91974 144.6865Q379.18536 144.6865 380.06036 143.73337Q380.93536 142.78024 380.93536 141.1865Q380.93536 139.6865 380.0916 138.82712Q379.24786 137.95212 377.8885 137.95212Q377.0291 137.95212 376.3416 138.34274Q375.66974 138.71774 375.2791 139.34274L373.62286 139.124L375.0135 131.76462L382.1385 131.76462L382.1385 133.45212L376.41974 133.45212L375.6541 137.29587Q376.93536 136.38962 378.35724 136.38962Q380.23224 136.38962 381.5135 137.70212Q382.81036 138.999 382.81036 141.03024Q382.81036 142.98337 381.66974 144.38962Q380.29474 146.13962 377.91974 146.13962Q375.9666 146.13962 374.7166 145.04587Q373.48224 143.95212 373.31036 142.13962ZM394.1541 150.09274Q392.701 148.26462 391.701 145.8115Q390.701 143.34274 390.701 140.70212Q390.701 138.374 391.451 136.249Q392.326 133.78024 394.1541 131.32712L395.41974 131.32712Q394.23224 133.35837 393.85724 134.23337Q393.2635 135.57712 392.91974 137.04587Q392.49786 138.874 392.49786 140.71774Q392.49786 145.40524 395.41974 150.09274L394.1541 150.09274ZM397.326 142.10837L399.076 141.874Q399.3885 143.374 400.10724 144.03024Q400.8416 144.6865 401.8885 144.6865Q403.12286 144.6865 403.9666 143.82712Q404.826 142.96774 404.826 141.70212Q404.826 140.48337 404.0291 139.70212Q403.24786 138.92087 402.0291 138.92087Q401.5291 138.92087 400.79474 139.10837L400.98224 137.5615Q401.1541 137.59274 401.2635 137.59274Q402.3885 137.59274 403.2791 137.01462Q404.18536 136.42087 404.18536 135.20212Q404.18536 134.23337 403.5291 133.59274Q402.87286 132.95212 401.8416 132.95212Q400.826 132.95212 400.1385 133.60837Q399.451 134.249 399.2635 135.53024L397.49786 135.21774Q397.826 133.45212 398.9666 132.48337Q400.10724 131.51462 401.81036 131.51462Q402.98224 131.51462 403.9666 132.01462Q404.951 132.51462 405.4666 133.38962Q405.99786 134.26462 405.99786 135.23337Q405.99786 136.15524 405.49786 136.92087Q404.99786 137.6865 404.0291 138.13962Q405.29474 138.42087 405.99786 139.35837Q406.701 140.28024 406.701 141.65524Q406.701 143.53024 405.326 144.84274Q403.9666 146.13962 401.87286 146.13962Q399.98224 146.13962 398.73224 145.01462Q397.49786 143.88962 397.326 142.10837ZM408.31036 142.13962L410.1541 141.98337Q410.35724 143.32712 411.10724 144.01462Q411.85724 144.6865 412.91974 144.6865Q414.18536 144.6865 415.06036 143.73337Q415.93536 142.78024 415.93536 141.1865Q415.93536 139.6865 415.0916 138.82712Q414.24786 137.95212 412.8885 137.95212Q412.0291 137.95212 411.3416 138.34274Q410.66974 138.71774 410.2791 139.34274L408.62286 139.124L410.0135 131.76462L417.1385 131.76462L417.1385 133.45212L411.41974 133.45212L410.6541 137.29587Q411.93536 136.38962 413.35724 136.38962Q415.23224 136.38962 416.5135 137.70212Q417.81036 138.999 417.81036 141.03024Q417.81036 142.98337 416.66974 144.38962Q415.29474 146.13962 412.91974 146.13962Q410.9666 146.13962 409.7166 145.04587Q408.48224 143.95212 408.31036 142.13962ZM420.2635 145.88962L420.2635 143.88962L422.2635 143.88962L422.2635 145.88962Q422.2635 146.999 421.87286 147.67087Q421.48224 148.35837 420.6385 148.71774L420.1385 147.96774Q420.701 147.73337 420.9666 147.249Q421.23224 146.78024 421.2635 145.88962L420.2635 145.88962ZM425.43536 133.45212L425.43536 131.76462L434.701 131.76462L434.701 133.124Q433.326 134.57712 431.98224 136.999Q430.6385 139.40524 429.91974 141.95212Q429.3885 143.749 429.23224 145.88962L427.43536 145.88962Q427.4666 144.20212 428.0916 141.8115Q428.73224 139.42087 429.91974 137.20212Q431.10724 134.96774 432.43536 133.45212L425.43536 133.45212ZM436.6385 135.01462Q436.6385 133.48337 437.4041 132.40524Q438.18536 131.32712 439.6541 131.32712Q440.99786 131.32712 441.87286 132.29587Q442.7635 133.249 442.7635 135.124Q442.7635 136.9365 441.87286 137.92087Q440.98224 138.88962 439.66974 138.88962Q438.37286 138.88962 437.49786 137.9365Q436.6385 136.96774 436.6385 135.01462ZM439.701 132.54587Q439.04474 132.54587 438.60724 133.10837Q438.18536 133.67087 438.18536 135.1865Q438.18536 136.5615 438.62286 137.124Q439.06036 137.6865 439.701 137.6865Q440.37286 137.6865 440.79474 137.124Q441.23224 136.54587 441.23224 135.04587Q441.23224 133.65524 440.79474 133.10837Q440.35724 132.54587 439.701 132.54587ZM439.7166 146.42087L447.54474 131.32712L448.9666 131.32712L441.16974 146.42087L439.7166 146.42087ZM445.9041 142.53024Q445.9041 140.98337 446.66974 139.92087Q447.451 138.84274 448.91974 138.84274Q450.2635 138.84274 451.1385 139.8115Q452.0291 140.76462 452.0291 142.63962Q452.0291 144.45212 451.1385 145.4365Q450.24786 146.42087 448.93536 146.42087Q447.6385 146.42087 446.7635 145.45212Q445.9041 144.46774 445.9041 142.53024ZM448.9666 140.0615Q448.31036 140.0615 447.87286 140.624Q447.43536 141.1865 447.43536 142.70212Q447.43536 144.07712 447.87286 144.63962Q448.31036 145.20212 448.9666 145.20212Q449.6385 145.20212 450.06036 144.63962Q450.49786 144.07712 450.49786 142.5615Q450.49786 141.1865 450.06036 140.624Q449.62286 140.0615 448.9666 140.0615ZM455.951 150.09274L454.701 150.09274Q457.60724 145.40524 457.60724 140.71774Q457.60724 138.874 457.201 137.07712Q456.85724 135.60837 456.2635 134.26462Q455.8885 133.374 454.701 131.32712L455.951 131.32712Q457.79474 133.78024 458.66974 136.249Q459.41974 138.374 459.41974 140.70212Q459.41974 143.34274 458.4041 145.8115Q457.4041 148.26462 455.951 150.09274Z" fill-rule="nonzero"/><path fill="#000000" d="M205.61151 223.46454L207.29901 223.30829Q207.51776 224.49579 208.11151 225.04266Q208.72089 225.57391 209.67401 225.57391Q210.48651 225.57391 211.09589 225.21454Q211.70526 224.83954 212.09589 224.21454Q212.48651 223.58954 212.75214 222.54266Q213.01776 221.48016 213.01776 220.38641Q213.01776 220.27704 213.00214 220.04266Q212.47089 220.87079 211.56464 221.40204Q210.65839 221.91766 209.58026 221.91766Q207.81464 221.91766 206.58026 220.63641Q205.34589 219.33954 205.34589 217.23016Q205.34589 215.05829 206.62714 213.73016Q207.92401 212.40204 209.84589 212.40204Q211.25214 212.40204 212.40839 213.15204Q213.56464 213.90204 214.15839 215.29266Q214.76776 216.68329 214.76776 219.32391Q214.76776 222.07391 214.15839 223.69891Q213.56464 225.32391 212.39276 226.18329Q211.22089 227.02704 209.64276 227.02704Q207.95526 227.02704 206.89276 226.08954Q205.83026 225.15204 205.61151 223.46454ZM212.81464 217.15204Q212.81464 215.63641 212.00214 214.74579Q211.20526 213.85516 210.06464 213.85516Q208.89276 213.85516 208.01776 214.82391Q207.15839 215.77704 207.15839 217.29266Q207.15839 218.66766 207.97089 219.52704Q208.79901 220.37079 210.01776 220.37079Q211.23651 220.37079 212.01776 219.52704Q212.81464 218.66766 212.81464 217.15204ZM226.18964 230.98016Q224.73651 229.15204 223.73651 226.69891Q222.73651 224.23016 222.73651 221.58954Q222.73651 219.26141 223.48651 217.13641Q224.36151 214.66766 226.18964 212.21454L227.45526 212.21454Q226.26776 214.24579 225.89276 215.12079Q225.29901 216.46454 224.95526 217.93329Q224.53339 219.76141 224.53339 221.60516Q224.53339 226.29266 227.45526 230.98016L226.18964 230.98016ZM238.47089 215.96454L236.72089 216.10516Q236.48651 215.07391 236.06464 214.60516Q235.34589 213.83954 234.29901 213.83954Q233.45526 213.83954 232.83026 214.30829Q232.00214 214.91766 231.51776 216.08954Q231.03339 217.24579 231.01776 219.38641Q231.65839 218.43329 232.56464 217.96454Q233.48651 217.49579 234.50214 217.49579Q236.25214 217.49579 237.48651 218.79266Q238.72089 220.07391 238.72089 222.12079Q238.72089 223.48016 238.14276 224.63641Q237.56464 225.79266 236.54901 226.41766Q235.53339 227.02704 234.23651 227.02704Q232.04901 227.02704 230.65839 225.41766Q229.26776 223.79266 229.26776 220.07391Q229.26776 215.93329 230.79901 214.04266Q232.14276 212.40204 234.40839 212.40204Q236.09589 212.40204 237.17401 213.35516Q238.25214 214.29266 238.47089 215.96454ZM231.29901 222.13641Q231.29901 223.04266 231.67401 223.87079Q232.06464 224.69891 232.75214 225.13641Q233.45526 225.57391 234.20526 225.57391Q235.33026 225.57391 236.12714 224.68329Q236.92401 223.77704 236.92401 222.23016Q236.92401 220.74579 236.12714 219.90204Q235.34589 219.04266 234.14276 219.04266Q232.95526 219.04266 232.12714 219.90204Q231.29901 220.74579 231.29901 222.13641ZM245.98651 226.77704L245.98651 223.35516L239.76776 223.35516L239.76776 221.73016L246.29901 212.46454L247.73651 212.46454L247.73651 221.73016L249.67401 221.73016L249.67401 223.35516L247.73651 223.35516L247.73651 226.77704L245.98651 226.77704ZM245.98651 221.73016L245.98651 215.27704L241.50214 221.73016L245.98651 221.73016ZM252.29901 226.77704L252.29901 224.77704L254.29901 224.77704L254.29901 226.77704Q254.29901 227.88641 253.90839 228.55829Q253.51776 229.24579 252.67401 229.60516L252.17401 228.85516Q252.73651 228.62079 253.00214 228.13641Q253.26776 227.66766 253.29901 226.77704L252.29901 226.77704ZM257.3615 222.99579L259.1115 222.76141Q259.424 224.26141 260.14276 224.91766Q260.87714 225.57391 261.924 225.57391Q263.1584 225.57391 264.00214 224.71454Q264.8615 223.85516 264.8615 222.58954Q264.8615 221.37079 264.06464 220.58954Q263.2834 219.80829 262.06464 219.80829Q261.56464 219.80829 260.83026 219.99579L261.01776 218.44891Q261.18964 218.48016 261.299 218.48016Q262.424 218.48016 263.31464 217.90204Q264.2209 217.30829 264.2209 216.08954Q264.2209 215.12079 263.56464 214.48016Q262.9084 213.83954 261.87714 213.83954Q260.8615 213.83954 260.174 214.49579Q259.4865 215.13641 259.299 216.41766L257.5334 216.10516Q257.8615 214.33954 259.00214 213.37079Q260.14276 212.40204 261.8459 212.40204Q263.01776 212.40204 264.00214 212.90204Q264.9865 213.40204 265.50214 214.27704Q266.0334 215.15204 266.0334 216.12079Q266.0334 217.04266 265.5334 217.80829Q265.0334 218.57391 264.06464 219.02704Q265.33026 219.30829 266.0334 220.24579Q266.7365 221.16766 266.7365 222.54266Q266.7365 224.41766 265.3615 225.73016Q264.00214 227.02704 261.9084 227.02704Q260.01776 227.02704 258.76776 225.90204Q257.5334 224.77704 257.3615 222.99579ZM268.674 215.90204Q268.674 214.37079 269.43964 213.29266Q270.2209 212.21454 271.68964 212.21454Q273.0334 212.21454 273.9084 213.18329Q274.799 214.13641 274.799 216.01141Q274.799 217.82391 273.9084 218.80829Q273.01776 219.77704 271.70526 219.77704Q270.4084 219.77704 269.5334 218.82391Q268.674 217.85516 268.674 215.90204ZM271.7365 213.43329Q271.08026 213.43329 270.64276 213.99579Q270.2209 214.55829 270.2209 216.07391Q270.2209 217.44891 270.6584 218.01141Q271.0959 218.57391 271.7365 218.57391Q272.4084 218.57391 272.83026 218.01141Q273.26776 217.43329 273.26776 215.93329Q273.26776 214.54266 272.83026 213.99579Q272.39276 213.43329 271.7365 213.43329ZM271.75214 227.30829L279.58026 212.21454L281.00214 212.21454L273.20526 227.30829L271.75214 227.30829ZM277.93964 223.41766Q277.93964 221.87079 278.70526 220.80829Q279.4865 219.73016 280.95526 219.73016Q282.299 219.73016 283.174 220.69891Q284.06464 221.65204 284.06464 223.52704Q284.06464 225.33954 283.174 226.32391Q282.2834 227.30829 280.9709 227.30829Q279.674 227.30829 278.799 226.33954Q277.93964 225.35516 277.93964 223.41766ZM281.00214 220.94891Q280.3459 220.94891 279.9084 221.51141Q279.4709 222.07391 279.4709 223.58954Q279.4709 224.96454 279.9084 225.52704Q280.3459 226.08954 281.00214 226.08954Q281.674 226.08954 282.0959 225.52704Q282.5334 224.96454 282.5334 223.44891Q282.5334 222.07391 282.0959 221.51141Q281.6584 220.94891 281.00214 220.94891ZM287.9865 230.98016L286.7365 230.98016Q289.64276 226.29266 289.64276 221.60516Q289.64276 219.76141 289.2365 217.96454Q288.89276 216.49579 288.299 215.15204Q287.924 214.26141 286.7365 212.21454L287.9865 212.21454Q289.83026 214.66766 290.70526 217.13641Q291.45526 219.26141 291.45526 221.58954Q291.45526 224.23016 290.43964 226.69891Q289.43964 229.15204 287.9865 230.98016Z" fill-rule="nonzero"/><path fill="#4285f4" d="M276.5 366.0C276.5 369.31372 273.81372 372.0 270.5 372.0C267.18628 372.0 264.5 369.31372 264.5 366.0C264.5 362.68628 267.18628 360.0 270.5 360.0C273.81372 360.0 276.5 362.68628 276.5 366.0Z" fill-rule="nonzero"/><path fill="#1a1a1a" d="M285.65625 365.625Q285.65625 361.35938 287.95312 358.9375Q290.25 356.51562 293.89062 356.51562Q296.26562 356.51562 298.17188 357.65625Q300.09375 358.78125 301.09375 360.82812Q302.09375 362.85938 302.09375 365.4375Q302.09375 368.04688 301.03125 370.10938Q299.98438 372.17188 298.04688 373.23438Q296.10938 374.29688 293.875 374.29688Q291.45312 374.29688 289.53125 373.125Q287.625 371.95312 286.64062 369.92188Q285.65625 367.89062 285.65625 365.625ZM288.0 365.67188Q288.0 368.76562 289.67188 370.5625Q291.34375 372.34375 293.85938 372.34375Q296.4375 372.34375 298.09375 370.54688Q299.75 368.73438 299.75 365.42188Q299.75 363.32812 299.03125 361.76562Q298.32812 360.1875 296.95312 359.32812Q295.59375 358.46875 293.90625 358.46875Q291.48438 358.46875 289.73438 360.125Q288.0 361.78125 288.0 365.67188ZM313.23438 374.0L313.23438 372.17188Q311.78125 374.28125 309.29688 374.28125Q308.1875 374.28125 307.23438 373.85938Q306.28125 373.4375 305.8125 372.79688Q305.35938 372.15625 305.17188 371.23438Q305.03125 370.60938 305.03125 369.26562L305.03125 361.54688L307.14062 361.54688L307.14062 368.45312Q307.14062 370.10938 307.28125 370.6875Q307.46875 371.51562 308.10938 372.0Q308.76562 372.46875 309.71875 372.46875Q310.65625 372.46875 311.48438 371.98438Q312.32812 371.48438 312.67188 370.65625Q313.01562 369.8125 313.01562 368.21875L313.01562 361.54688L315.125 361.54688L315.125 374.0L313.23438 374.0ZM318.09375 359.25L318.09375 356.8125L320.20312 356.8125L320.20312 359.25L318.09375 359.25ZM318.09375 374.0L318.09375 361.54688L320.20312 361.54688L320.20312 374.0L318.09375 374.0Z" fill-rule="nonzero"/><path fill="#ea4335" d="M349.5 366.0C349.5 369.31372 346.81372 372.0 343.5 372.0C340.18628 372.0 337.5 369.31372 337.5 366.0C337.5 362.68628 340.18628 360.0 343.5 360.0C346.81372 360.0 349.5 362.68628 349.5 366.0Z" fill-rule="nonzero"/><path fill="#1a1a1a" d="M359.32812 374.0L359.32812 356.8125L361.65625 356.8125L370.6875 370.3125L370.6875 356.8125L372.85938 356.8125L372.85938 374.0L370.53125 374.0L361.51562 360.5L361.51562 374.0L359.32812 374.0ZM375.29688 367.78125Q375.29688 364.3125 377.21875 362.65625Q378.82812 361.26562 381.14062 361.26562Q383.70312 361.26562 385.32812 362.95312Q386.95312 364.64062 386.95312 367.59375Q386.95312 370.0 386.23438 371.375Q385.51562 372.75 384.14062 373.51562Q382.76562 374.28125 381.14062 374.28125Q378.51562 374.28125 376.90625 372.60938Q375.29688 370.92188 375.29688 367.78125ZM377.46875 367.78125Q377.46875 370.17188 378.5 371.35938Q379.54688 372.54688 381.14062 372.54688Q382.70312 372.54688 383.75 371.35938Q384.79688 370.15625 384.79688 367.70312Q384.79688 365.39062 383.73438 364.20312Q382.6875 363.01562 381.14062 363.01562Q379.54688 363.01562 378.5 364.20312Q377.46875 365.39062 377.46875 367.78125ZM389.07812 374.0L389.07812 361.54688L390.98438 361.54688L390.98438 363.32812Q392.35938 361.26562 394.9375 361.26562Q396.0625 361.26562 397.0 361.67188Q397.95312 362.07812 398.42188 362.73438Q398.89062 363.39062 399.07812 364.29688Q399.20312 364.875 399.20312 366.34375L399.20312 374.0L397.09375 374.0L397.09375 366.42188Q397.09375 365.14062 396.84375 364.5Q396.59375 363.85938 395.96875 363.48438Q395.34375 363.09375 394.5 363.09375Q393.15625 363.09375 392.17188 363.95312Q391.1875 364.8125 391.1875 367.20312L391.1875 374.0L389.07812 374.0Z" fill-rule="nonzero"/></svg>