<svg version="1.1" viewBox="0.0 0.0 665.0 400.0" fill="none" stroke="none" stroke-linecap="square" stroke-miterlimit="10" width="665" height="400" xmlns:xlink="http://www.w3.org/1999/xlink" xmlns="http://www.w3.org/2000/svg"><path fill="#ffffff" d="M0 0L665.0 0L665.0 400.0L0 400.0L0 0Z" fill-rule="nonzero"/><path fill="#ea4335" d="M192.76033 195.228C183.054 152.70178 193.24095 108.06985 220.43748 73.96646C247.63403 39.86308 288.88013 20.0 332.5 20.0L332.5 163.33333Z" fill-rule="nonzero"/><path fill="#4285f4" d="M332.5 20.0C407.50558 20.0 469.82736 77.826164 475.43256 152.62202C481.03772 227.41788 428.03055 293.88675 353.86273 305.06577C279.6949 316.24475 209.45064 268.35303 192.76033 195.228L332.5 163.33333Z" fill-rule="nonzero"/><path fill="#000000" d="M349.64917 217.54059L347.88354 217.54059L347.88354 206.33746Q347.25854 206.94684 346.2273 207.55621Q345.19604 208.14996 344.36792 208.46246L344.36792 206.75934Q345.8523 206.07184 346.94604 205.08746Q348.05542 204.08746 348.50854 203.16559L349.64917 203.16559L349.64917 217.54059ZM354.02417 210.47809Q354.02417 207.94684 354.5398 206.39996Q355.07104 204.83746 356.1023 204.00934Q357.13354 203.16559 358.69604 203.16559Q359.8523 203.16559 360.71167 203.63434Q361.58667 204.08746 362.14917 204.96246Q362.71167 205.83746 363.0398 207.10309Q363.36792 208.35309 363.36792 210.47809Q363.36792 212.99371 362.83667 214.54059Q362.32104 216.08746 361.2898 216.94684Q360.27417 217.79059 358.69604 217.79059Q356.61792 217.79059 355.44604 216.30621Q354.02417 214.50934 354.02417 210.47809ZM355.83667 210.47809Q355.83667 214.00934 356.64917 215.18121Q357.4773 216.33746 358.69604 216.33746Q359.89917 216.33746 360.7273 215.16559Q361.55542 213.99371 361.55542 210.47809Q361.55542 206.94684 360.7273 205.79059Q359.89917 204.61871 358.68042 204.61871Q357.46167 204.61871 356.74292 205.64996Q355.83667 206.94684 355.83667 210.47809ZM374.86792 221.74371Q373.4148 219.91559 372.4148 217.46246Q371.4148 214.99371 371.4148 212.35309Q371.4148 210.02496 372.1648 207.89996Q373.0398 205.43121 374.86792 202.97809L376.13354 202.97809Q374.94604 205.00934 374.57104 205.88434Q373.9773 207.22809 373.63354 208.69684Q373.21167 210.52496 373.21167 212.36871Q373.21167 217.05621 376.13354 221.74371L374.86792 221.74371ZM378.14917 205.10309L378.14917 203.41559L387.4148 203.41559L387.4148 204.77496Q386.0398 206.22809 384.69604 208.64996Q383.3523 211.05621 382.63354 213.60309Q382.1023 215.39996 381.94604 217.54059L380.14917 217.54059Q380.18042 215.85309 380.80542 213.46246Q381.44604 211.07184 382.63354 208.85309Q383.82104 206.61871 385.14917 205.10309L378.14917 205.10309ZM395.64917 217.54059L393.88354 217.54059L393.88354 206.33746Q393.25854 206.94684 392.2273 207.55621Q391.19604 208.14996 390.36792 208.46246L390.36792 206.75934Q391.8523 206.07184 392.94604 205.08746Q394.05542 204.08746 394.50854 203.16559L395.64917 203.16559L395.64917 217.54059ZM400.9773 217.54059L400.9773 215.54059L402.9773 215.54059L402.9773 217.54059Q402.9773 218.64996 402.58667 219.32184Q402.19604 220.00934 401.3523 220.36871L400.8523 219.61871Q401.4148 219.38434 401.68042 218.89996Q401.94604 218.43121 401.9773 217.54059L400.9773 217.54059ZM411.6648 217.54059L411.6648 214.11871L405.44604 214.11871L405.44604 212.49371L411.9773 203.22809L413.4148 203.22809L413.4148 212.49371L415.3523 212.49371L415.3523 214.11871L413.4148 214.11871L413.4148 217.54059L411.6648 217.54059ZM411.6648 212.49371L411.6648 206.04059L407.18042 212.49371L411.6648 212.49371ZM417.3523 206.66559Q417.3523 205.13434 418.11792 204.05621Q418.89917 202.97809 420.36792 202.97809Q421.71167 202.97809 422.58667 203.94684Q423.4773 204.89996 423.4773 206.77496Q423.4773 208.58746 422.58667 209.57184Q421.69604 210.54059 420.38354 210.54059Q419.08667 210.54059 418.21167 209.58746Q417.3523 208.61871 417.3523 206.66559ZM420.4148 204.19684Q419.75854 204.19684 419.32104 204.75934Q418.89917 205.32184 418.89917 206.83746Q418.89917 208.21246 419.33667 208.77496Q419.77417 209.33746 420.4148 209.33746Q421.08667 209.33746 421.50854 208.77496Q421.94604 208.19684 421.94604 206.69684Q421.94604 205.30621 421.50854 204.75934Q421.07104 204.19684 420.4148 204.19684ZM420.43042 218.07184L428.25854 202.97809L429.68042 202.97809L421.88354 218.07184L420.43042 218.07184ZM426.61792 214.18121Q426.61792 212.63434 427.38354 211.57184Q428.1648 210.49371 429.63354 210.49371Q430.9773 210.49371 431.8523 211.46246Q432.74292 212.41559 432.74292 214.29059Q432.74292 216.10309 431.8523 217.08746Q430.96167 218.07184 429.64917 218.07184Q428.3523 218.07184 427.4773 217.10309Q426.61792 216.11871 426.61792 214.18121ZM429.68042 211.71246Q429.02417 211.71246 428.58667 212.27496Q428.14917 212.83746 428.14917 214.35309Q428.14917 215.72809 428.58667 216.29059Q429.02417 216.85309 429.68042 216.85309Q430.3523 216.85309 430.77417 216.29059Q431.21167 215.72809 431.21167 214.21246Q431.21167 212.83746 430.77417 212.27496Q430.33667 211.71246 429.68042 211.71246ZM436.6648 221.74371L435.4148 221.74371Q438.32104 217.05621 438.32104 212.36871Q438.32104 210.52496 437.9148 208.72809Q437.57104 207.25934 436.9773 205.91559Q436.6023 205.02496 435.4148 202.97809L436.6648 202.97809Q438.50854 205.43121 439.38354 207.89996Q440.13354 210.02496 440.13354 212.35309Q440.13354 214.99371 439.11792 217.46246Q438.11792 219.91559 436.6648 221.74371Z" fill-rule="nonzero"/><path fill="#000000" d="M232.08102 120.18204L232.08102 116.76016L225.86227 116.76016L225.86227 115.13516L232.39352 105.86954L233.83102 105.86954L233.83102 115.13516L235.76852 115.13516L235.76852 116.76016L233.83102 116.76016L233.83102 120.18204L232.08102 120.18204ZM232.08102 115.13516L232.08102 108.68204L227.59665 115.13516L232.08102 115.13516ZM247.28415 124.38516Q245.83102 122.55704 244.83102 120.10391Q243.83102 117.63516 243.83102 114.99454Q243.83102 112.66641 244.58102 110.54141Q245.45602 108.07266 247.28415 105.61954L248.54977 105.61954Q247.36227 107.65079 246.98727 108.52579Q246.39352 109.86954 246.04977 111.33829Q245.6279 113.16641 245.6279 115.01016Q245.6279 119.69766 248.54977 124.38516L247.28415 124.38516ZM259.67477 118.49454L259.67477 120.18204L250.22165 120.18204Q250.20602 119.54141 250.42477 118.96329Q250.78415 117.99454 251.58102 117.05704Q252.3779 116.11954 253.8779 114.88516Q256.22165 112.97891 257.03415 111.86954Q257.86227 110.74454 257.86227 109.74454Q257.86227 108.69766 257.11227 107.97891Q256.36227 107.26016 255.15915 107.26016Q253.89352 107.26016 253.1279 108.02579Q252.36227 108.79141 252.36227 110.13516L250.54977 109.94766Q250.73727 107.93204 251.9404 106.86954Q253.15915 105.80704 255.20602 105.80704Q257.2529 105.80704 258.45602 106.94766Q259.65915 108.08829 259.65915 109.77579Q259.65915 110.63516 259.29977 111.47891Q258.95602 112.30704 258.14352 113.22891Q257.33102 114.13516 255.4404 115.74454Q253.84665 117.07266 253.39352 117.54141Q252.95602 118.01016 252.65915 118.49454L259.67477 118.49454ZM264.14352 112.41641Q263.04977 112.01016 262.51852 111.27579Q262.0029 110.52579 262.0029 109.49454Q262.0029 107.93204 263.1279 106.86954Q264.2529 105.80704 266.11227 105.80704Q267.98727 105.80704 269.1279 106.90079Q270.26852 107.97891 270.26852 109.54141Q270.26852 110.54141 269.73727 111.27579Q269.22165 112.01016 268.15915 112.41641Q269.48727 112.85391 270.17477 113.80704Q270.86227 114.76016 270.86227 116.08829Q270.86227 117.93204 269.54977 119.18204Q268.2529 120.43204 266.14352 120.43204Q264.01852 120.43204 262.72165 119.18204Q261.42477 117.91641 261.42477 116.04141Q261.42477 114.65079 262.1279 113.71329Q262.84665 112.76016 264.14352 112.41641ZM263.79977 109.43204Q263.79977 110.44766 264.45602 111.10391Q265.11227 111.74454 266.14352 111.74454Q267.15915 111.74454 267.8154 111.10391Q268.47165 110.46329 268.47165 109.54141Q268.47165 108.57266 267.79977 107.91641Q267.1279 107.24454 266.1279 107.24454Q265.1279 107.24454 264.45602 107.90079Q263.79977 108.54141 263.79977 109.43204ZM263.23727 116.05704Q263.23727 116.80704 263.58102 117.51016Q263.9404 118.21329 264.64352 118.60391Q265.34665 118.97891 266.15915 118.97891Q267.42477 118.97891 268.23727 118.16641Q269.0654 117.35391 269.0654 116.10391Q269.0654 114.83829 268.22165 114.01016Q267.3779 113.18204 266.09665 113.18204Q264.86227 113.18204 264.04977 114.01016Q263.23727 114.82266 263.23727 116.05704ZM273.39352 120.18204L273.39352 118.18204L275.39352 118.18204L275.39352 120.18204Q275.39352 121.29141 275.0029 121.96329Q274.61227 122.65079 273.76852 123.01016L273.26852 122.26016Q273.83102 122.02579 274.09665 121.54141Q274.36227 121.07266 274.39352 120.18204L273.39352 120.18204ZM287.5654 109.36954L285.8154 109.51016Q285.58102 108.47891 285.15915 108.01016Q284.4404 107.24454 283.39352 107.24454Q282.54977 107.24454 281.92477 107.71329Q281.09665 108.32266 280.61227 109.49454Q280.1279 110.65079 280.11227 112.79141Q280.7529 111.83829 281.65915 111.36954Q282.58102 110.90079 283.59665 110.90079Q285.34665 110.90079 286.58102 112.19766Q287.8154 113.47891 287.8154 115.52579Q287.8154 116.88516 287.23727 118.04141Q286.65915 119.19766 285.64352 119.82266Q284.6279 120.43204 283.33102 120.43204Q281.14352 120.43204 279.7529 118.82266Q278.36227 117.19766 278.36227 113.47891Q278.36227 109.33829 279.89352 107.44766Q281.23727 105.80704 283.5029 105.80704Q285.1904 105.80704 286.26852 106.76016Q287.34665 107.69766 287.5654 109.36954ZM280.39352 115.54141Q280.39352 116.44766 280.76852 117.27579Q281.15915 118.10391 281.84665 118.54141Q282.54977 118.97891 283.29977 118.97891Q284.42477 118.97891 285.22165 118.08829Q286.01852 117.18204 286.01852 115.63516Q286.01852 114.15079 285.22165 113.30704Q284.4404 112.44766 283.23727 112.44766Q282.04977 112.44766 281.22165 113.30704Q280.39352 114.15079 280.39352 115.54141ZM289.76852 109.30704Q289.76852 107.77579 290.53415 106.69766Q291.3154 105.61954 292.78415 105.61954Q294.1279 105.61954 295.0029 106.58829Q295.89352 107.54141 295.89352 109.41641Q295.89352 111.22891 295.0029 112.21329Q294.11227 113.18204 292.79977 113.18204Q291.5029 113.18204 290.6279 112.22891Q289.76852 111.26016 289.76852 109.30704ZM292.83102 106.83829Q292.17477 106.83829 291.73727 107.40079Q291.3154 107.96329 291.3154 109.47891Q291.3154 110.85391 291.7529 111.41641Q292.1904 111.97891 292.83102 111.97891Q293.5029 111.97891 293.92477 111.41641Q294.36227 110.83829 294.36227 109.33829Q294.36227 107.94766 293.92477 107.40079Q293.48727 106.83829 292.83102 106.83829ZM292.84665 120.71329L300.67477 105.61954L302.09665 105.61954L294.29977 120.71329L292.84665 120.71329ZM299.03415 116.82266Q299.03415 115.27579 299.79977 114.21329Q300.58102 113.13516 302.04977 113.13516Q303.39352 113.13516 304.26852 114.10391Q305.15915 115.05704 305.15915 116.93204Q305.15915 118.74454 304.26852 119.72891Q303.3779 120.71329 302.0654 120.71329Q300.76852 120.71329 299.89352 119.74454Q299.03415 118.76016 299.03415 116.82266ZM302.09665 114.35391Q301.4404 114.35391 301.0029 114.91641Q300.5654 115.47891 300.5654 116.99454Q300.5654 118.36954 301.0029 118.93204Q301.4404 119.49454 302.09665 119.49454Q302.76852 119.49454 303.1904 118.93204Q303.6279 118.36954 303.6279 116.85391Q303.6279 115.47891 303.1904 114.91641Q302.7529 114.35391 302.09665 114.35391ZM309.08102 124.38516L307.83102 124.38516Q310.73727 119.69766 310.73727 115.01016Q310.73727 113.16641 310.33102 111.36954Q309.98727 109.90079 309.39352 108.55704Q309.01852 107.66641 307.83102 105.61954L309.08102 105.61954Q310.92477 108.07266 311.79977 110.54141Q312.54977 112.66641 312.54977 114.99454Q312.54977 117.63516 311.53415 120.10391Q310.53415 122.55704 309.08102 124.38516Z" fill-rule="nonzero"/><path fill="#4285f4" d="M32.0 334.0C32.0 337.31372 29.31371 340.0 26.0 340.0C22.68629 340.0 20.0 337.31372 20.0 334.0C20.0 330.68628 22.68629 328.0 26.0 328.0C29.31371 328.0 32.0 330.68628 32.0 334.0Z" fill-rule="nonzero"/><path fill="#1a1a1a" d="M54.109375 335.96875L56.390625 336.54688Q55.671875 339.34375 53.8125 340.82812Q51.953125 342.29688 49.265625 342.29688Q46.5 342.29688 44.75 341.17188Q43.015625 340.03125 42.109375 337.89062Q41.203125 335.73438 41.203125 333.28125Q41.203125 330.59375 42.21875 328.59375Q43.25 326.59375 45.140625 325.5625Q47.03125 324.53125 49.3125 324.53125Q51.890625 324.53125 53.640625 325.84375Q55.40625 327.15625 56.09375 329.53125L53.859375 330.0625Q53.25 328.1875 52.109375 327.32812Q50.984375 326.46875 49.265625 326.46875Q47.28125 326.46875 45.953125 327.42188Q44.625 328.375 44.078125 329.96875Q43.546875 331.5625 43.546875 333.26562Q43.546875 335.45312 44.171875 337.09375Q44.8125 338.73438 46.15625 339.54688Q47.515625 340.34375 49.078125 340.34375Q51.0 340.34375 52.3125 339.25Q53.640625 338.14062 54.109375 335.96875ZM57.796875 335.78125Q57.796875 332.3125 59.71875 330.65625Q61.328125 329.26562 63.640625 329.26562Q66.203125 329.26562 67.828125 330.95312Q69.453125 332.64062 69.453125 335.59375Q69.453125 338.0 68.734375 339.375Q68.015625 340.75 66.640625 341.51562Q65.265625 342.28125 63.640625 342.28125Q61.015625 342.28125 59.40625 340.60938Q57.796875 338.92188 57.796875 335.78125ZM59.96875 335.78125Q59.96875 338.17188 61.0 339.35938Q62.046875 340.54688 63.640625 340.54688Q65.203125 340.54688 66.25 339.35938Q67.296875 338.15625 67.296875 335.70312Q67.296875 333.39062 66.234375 332.20312Q65.1875 331.01562 63.640625 331.01562Q62.046875 331.01562 61.0 332.20312Q59.96875 333.39062 59.96875 335.78125ZM71.578125 342.0L71.578125 329.54688L73.484375 329.54688L73.484375 331.32812Q74.859375 329.26562 77.4375 329.26562Q78.5625 329.26562 79.5 329.67188Q80.453125 330.07812 80.921875 330.73438Q81.390625 331.39062 81.578125 332.29688Q81.703125 332.875 81.703125 334.34375L81.703125 342.0L79.59375 342.0L79.59375 334.42188Q79.59375 333.14062 79.34375 332.5Q79.09375 331.85938 78.46875 331.48438Q77.84375 331.09375 77.0 331.09375Q75.65625 331.09375 74.671875 331.95312Q73.6875 332.8125 73.6875 335.20312L73.6875 342.0L71.578125 342.0ZM89.1875 340.10938L89.5 341.96875Q88.609375 342.17188 87.90625 342.17188Q86.75 342.17188 86.109375 341.8125Q85.484375 341.4375 85.21875 340.84375Q84.96875 340.25 84.96875 338.35938L84.96875 331.1875L83.421875 331.1875L83.421875 329.54688L84.96875 329.54688L84.96875 326.46875L87.0625 325.20312L87.0625 329.54688L89.1875 329.54688L89.1875 331.1875L87.0625 331.1875L87.0625 338.46875Q87.0625 339.375 87.171875 339.64062Q87.296875 339.89062 87.546875 340.04688Q87.796875 340.1875 88.265625 340.1875Q88.609375 340.1875 89.1875 340.10938ZM91.59375 327.25L91.59375 324.8125L93.703125 324.8125L93.703125 327.25L91.59375 327.25ZM91.59375 342.0L91.59375 329.54688L93.703125 329.54688L93.703125 342.0L91.59375 342.0ZM96.578125 342.0L96.578125 329.54688L98.484375 329.54688L98.484375 331.32812Q99.859375 329.26562 102.4375 329.26562Q103.5625 329.26562 104.5 329.67188Q105.453125 330.07812 105.921875 330.73438Q106.390625 331.39062 106.578125 332.29688Q106.703125 332.875 106.703125 334.34375L106.703125 342.0L104.59375 342.0L104.59375 334.42188Q104.59375 333.14062 104.34375 332.5Q104.09375 331.85938 103.46875 331.48438Q102.84375 331.09375 102.0 331.09375Q100.65625 331.09375 99.671875 331.95312Q98.6875 332.8125 98.6875 335.20312L98.6875 342.0L96.578125 342.0ZM117.734375 342.0L117.734375 340.17188Q116.28125 342.28125 113.796875 342.28125Q112.6875 342.28125 111.734375 341.85938Q110.78125 341.4375 110.3125 340.79688Q109.859375 340.15625 109.671875 339.23438Q109.53125 338.60938 109.53125 337.26562L109.53125 329.54688L111.640625 329.54688L111.640625 336.45312Q111.640625 338.10938 111.78125 338.6875Q111.96875 339.51562 112.609375 340.0Q113.265625 340.46875 114.21875 340.46875Q115.15625 340.46875 115.984375 339.98438Q116.828125 339.48438 117.171875 338.65625Q117.515625 337.8125 117.515625 336.21875L117.515625 329.54688L119.625 329.54688L119.625 342.0L117.734375 342.0ZM131.10938 337.98438L133.28125 338.26562Q132.76562 340.17188 131.375 341.23438Q129.98438 342.28125 127.8125 342.28125Q125.078125 342.28125 123.46875 340.60938Q121.875 338.92188 121.875 335.875Q121.875 332.73438 123.484375 331.0Q125.109375 329.26562 127.6875 329.26562Q130.1875 329.26562 131.76562 330.96875Q133.35938 332.67188 133.35938 335.75Q133.35938 335.9375 133.34375 336.3125L124.0625 336.3125Q124.171875 338.35938 125.21875 339.45312Q126.265625 340.54688 127.828125 340.54688Q128.98438 340.54688 129.79688 339.9375Q130.625 339.32812 131.10938 337.98438ZM124.171875 334.57812L131.125 334.57812Q130.98438 333.01562 130.32812 332.21875Q129.32812 331.0 127.71875 331.0Q126.265625 331.0 125.265625 331.98438Q124.28125 332.95312 124.171875 334.57812ZM135.5625 342.0L135.5625 329.54688L137.45312 329.54688L137.45312 331.4375Q138.1875 330.10938 138.79688 329.6875Q139.42188 329.26562 140.15625 329.26562Q141.21875 329.26562 142.32812 329.95312L141.59375 331.90625Q140.82812 331.45312 140.04688 331.45312Q139.35938 331.45312 138.79688 331.875Q138.25 332.28125 138.01562 333.01562Q137.67188 334.14062 137.67188 335.48438L137.67188 342.0L135.5625 342.0ZM149.73438 338.28125L151.82812 337.95312Q152.0 339.20312 152.79688 339.875Q153.60938 340.54688 155.04688 340.54688Q156.5 340.54688 157.20312 339.95312Q157.90625 339.35938 157.90625 338.5625Q157.90625 337.84375 157.28125 337.4375Q156.85938 337.15625 155.125 336.71875Q152.8125 336.14062 151.90625 335.71875Q151.01562 335.28125 150.54688 334.53125Q150.09375 333.76562 150.09375 332.85938Q150.09375 332.03125 150.46875 331.32812Q150.85938 330.60938 151.51562 330.14062Q152.0 329.78125 152.84375 329.53125Q153.70312 329.26562 154.67188 329.26562Q156.14062 329.26562 157.25 329.6875Q158.35938 330.10938 158.875 330.84375Q159.40625 331.5625 159.60938 332.76562L157.54688 333.04688Q157.40625 332.07812 156.73438 331.54688Q156.0625 331.0 154.82812 331.0Q153.375 331.0 152.75 331.48438Q152.125 331.96875 152.125 332.60938Q152.125 333.01562 152.39062 333.34375Q152.64062 333.6875 153.20312 333.90625Q153.51562 334.03125 155.0625 334.45312Q157.29688 335.04688 158.17188 335.4375Q159.0625 335.8125 159.5625 336.54688Q160.07812 337.26562 160.07812 338.34375Q160.07812 339.39062 159.45312 340.32812Q158.84375 341.26562 157.6875 341.78125Q156.53125 342.28125 155.0625 342.28125Q152.64062 342.28125 151.35938 341.28125Q150.09375 340.26562 149.73438 338.28125ZM170.73438 342.0L170.73438 340.17188Q169.28125 342.28125 166.79688 342.28125Q165.6875 342.28125 164.73438 341.85938Q163.78125 341.4375 163.3125 340.79688Q162.85938 340.15625 162.67188 339.23438Q162.53125 338.60938 162.53125 337.26562L162.53125 329.54688L164.64062 329.54688L164.64062 336.45312Q164.64062 338.10938 164.78125 338.6875Q164.96875 339.51562 165.60938 340.0Q166.26562 340.46875 167.21875 340.46875Q168.15625 340.46875 168.98438 339.98438Q169.82812 339.48438 170.17188 338.65625Q170.51562 337.8125 170.51562 336.21875L170.51562 329.54688L172.625 329.54688L172.625 342.0L170.73438 342.0ZM175.5625 342.0L175.5625 329.54688L177.45312 329.54688L177.45312 331.4375Q178.1875 330.10938 178.79688 329.6875Q179.42188 329.26562 180.15625 329.26562Q181.21875 329.26562 182.32812 329.95312L181.59375 331.90625Q180.82812 331.45312 180.04688 331.45312Q179.35938 331.45312 178.79688 331.875Q178.25 332.28125 178.01562 333.01562Q177.67188 334.14062 177.67188 335.48438L177.67188 342.0L175.5625 342.0ZM190.53125 342.0L190.53125 324.8125L192.64062 324.8125L192.64062 342.0L190.53125 342.0ZM203.70312 340.46875Q202.53125 341.45312 201.4375 341.875Q200.35938 342.28125 199.125 342.28125Q197.07812 342.28125 195.96875 341.28125Q194.875 340.28125 194.875 338.71875Q194.875 337.79688 195.28125 337.04688Q195.70312 336.29688 196.375 335.84375Q197.04688 335.375 197.89062 335.14062Q198.51562 334.98438 199.76562 334.82812Q202.32812 334.51562 203.53125 334.09375Q203.54688 333.67188 203.54688 333.54688Q203.54688 332.26562 202.9375 331.73438Q202.14062 331.01562 200.54688 331.01562Q199.04688 331.01562 198.34375 331.54688Q197.64062 332.0625 197.29688 333.39062L195.23438 333.10938Q195.51562 331.78125 196.15625 330.96875Q196.79688 330.15625 198.01562 329.71875Q199.23438 329.26562 200.84375 329.26562Q202.4375 329.26562 203.4375 329.64062Q204.4375 330.01562 204.90625 330.59375Q205.375 331.15625 205.5625 332.03125Q205.65625 332.5625 205.65625 333.96875L205.65625 336.78125Q205.65625 339.71875 205.79688 340.5Q205.9375 341.28125 206.32812 342.0L204.125 342.0Q203.79688 341.34375 203.70312 340.46875ZM203.53125 335.75Q202.375 336.21875 200.07812 336.54688Q198.78125 336.73438 198.23438 336.96875Q197.70312 337.20312 197.40625 337.65625Q197.125 338.10938 197.125 338.65625Q197.125 339.5 197.75 340.0625Q198.39062 340.625 199.625 340.625Q200.84375 340.625 201.79688 340.09375Q202.75 339.5625 203.1875 338.64062Q203.53125 337.92188 203.53125 336.53125L203.53125 335.75ZM220.1875 340.10938L220.5 341.96875Q219.60938 342.17188 218.90625 342.17188Q217.75 342.17188 217.10938 341.8125Q216.48438 341.4375 216.21875 340.84375Q215.96875 340.25 215.96875 338.35938L215.96875 331.1875L214.42188 331.1875L214.42188 329.54688L215.96875 329.54688L215.96875 326.46875L218.0625 325.20312L218.0625 329.54688L220.1875 329.54688L220.1875 331.1875L218.0625 331.1875L218.0625 338.46875Q218.0625 339.375 218.17188 339.64062Q218.29688 339.89062 218.54688 340.04688Q218.79688 340.1875 219.26562 340.1875Q219.60938 340.1875 220.1875 340.10938ZM222.5625 342.0L222.5625 329.54688L224.45312 329.54688L224.45312 331.4375Q225.1875 330.10938 225.79688 329.6875Q226.42188 329.26562 227.15625 329.26562Q228.21875 329.26562 229.32812 329.95312L228.59375 331.90625Q227.82812 331.45312 227.04688 331.45312Q226.35938 331.45312 225.79688 331.875Q225.25 332.28125 225.01562 333.01562Q224.67188 334.14062 224.67188 335.48438L224.67188 342.0L222.5625 342.0ZM238.70312 340.46875Q237.53125 341.45312 236.4375 341.875Q235.35938 342.28125 234.125 342.28125Q232.07812 342.28125 230.96875 341.28125Q229.875 340.28125 229.875 338.71875Q229.875 337.79688 230.28125 337.04688Q230.70312 336.29688 231.375 335.84375Q232.04688 335.375 232.89062 335.14062Q233.51562 334.98438 234.76562 334.82812Q237.32812 334.51562 238.53125 334.09375Q238.54688 333.67188 238.54688 333.54688Q238.54688 332.26562 237.9375 331.73438Q237.14062 331.01562 235.54688 331.01562Q234.04688 331.01562 233.34375 331.54688Q232.64062 332.0625 232.29688 333.39062L230.23438 333.10938Q230.51562 331.78125 231.15625 330.96875Q231.79688 330.15625 233.01562 329.71875Q234.23438 329.26562 235.84375 329.26562Q237.4375 329.26562 238.4375 329.64062Q239.4375 330.01562 239.90625 330.59375Q240.375 331.15625 240.5625 332.03125Q240.65625 332.5625 240.65625 333.96875L240.65625 336.78125Q240.65625 339.71875 240.79688 340.5Q240.9375 341.28125 241.32812 342.0L239.125 342.0Q238.79688 341.34375 238.70312 340.46875ZM238.53125 335.75Q237.375 336.21875 235.07812 336.54688Q233.78125 336.73438 233.23438 336.96875Q232.70312 337.20312 232.40625 337.65625Q232.125 338.10938 232.125 338.65625Q232.125 339.5 232.75 340.0625Q233.39062 340.625 234.625 340.625Q235.84375 340.625 236.79688 340.09375Q237.75 339.5625 238.1875 338.64062Q238.53125 337.92188 238.53125 336.53125L238.53125 335.75ZM243.57812 327.26562L243.57812 324.8125L245.6875 324.8125L245.6875 327.26562L243.57812 327.26562ZM240.89062 346.82812L241.29688 345.03125Q241.92188 345.20312 242.29688 345.20312Q242.9375 345.20312 243.25 344.76562Q243.57812 344.34375 243.57812 342.64062L243.57812 329.54688L245.6875 329.54688L245.6875 342.6875Q245.6875 344.98438 245.07812 345.875Q244.32812 347.04688 242.54688 347.04688Q241.6875 347.04688 240.89062 346.82812ZM257.10938 337.98438L259.28125 338.26562Q258.76562 340.17188 257.375 341.23438Q255.98438 342.28125 253.8125 342.28125Q251.07812 342.28125 249.46875 340.60938Q247.875 338.92188 247.875 335.875Q247.875 332.73438 249.48438 331.0Q251.10938 329.26562 253.6875 329.26562Q256.1875 329.26562 257.76562 330.96875Q259.35938 332.67188 259.35938 335.75Q259.35938 335.9375 259.34375 336.3125L250.0625 336.3125Q250.17188 338.35938 251.21875 339.45312Q252.26562 340.54688 253.82812 340.54688Q254.98438 340.54688 255.79688 339.9375Q256.625 339.32812 257.10938 337.98438ZM250.17188 334.57812L257.125 334.57812Q256.98438 333.01562 256.32812 332.21875Q255.32812 331.0 253.71875 331.0Q252.26562 331.0 251.26562 331.98438Q250.28125 332.95312 250.17188 334.57812ZM269.70312 337.4375L271.78125 337.70312Q271.4375 339.85938 270.03125 341.07812Q268.64062 342.28125 266.59375 342.28125Q264.04688 342.28125 262.48438 340.60938Q260.9375 338.9375 260.9375 335.82812Q260.9375 333.8125 261.60938 332.29688Q262.28125 330.78125 263.64062 330.03125Q265.0 329.26562 266.60938 329.26562Q268.64062 329.26562 269.92188 330.29688Q271.21875 331.32812 271.57812 333.20312L269.53125 333.53125Q269.23438 332.26562 268.48438 331.64062Q267.75 331.0 266.6875 331.0Q265.09375 331.0 264.09375 332.15625Q263.10938 333.29688 263.10938 335.76562Q263.10938 338.26562 264.0625 339.40625Q265.03125 340.54688 266.57812 340.54688Q267.8125 340.54688 268.64062 339.78125Q269.48438 339.01562 269.70312 337.4375ZM278.1875 340.10938L278.5 341.96875Q277.60938 342.17188 276.90625 342.17188Q275.75 342.17188 275.10938 341.8125Q274.48438 341.4375 274.21875 340.84375Q273.96875 340.25 273.96875 338.35938L273.96875 331.1875L272.42188 331.1875L272.42188 329.54688L273.96875 329.54688L273.96875 326.46875L276.0625 325.20312L276.0625 329.54688L278.1875 329.54688L278.1875 331.1875L276.0625 331.1875L276.0625 338.46875Q276.0625 339.375 276.17188 339.64062Q276.29688 339.89062 276.54688 340.04688Q276.79688 340.1875 277.26562 340.1875Q277.60938 340.1875 278.1875 340.10938ZM279.79688 335.78125Q279.79688 332.3125 281.71875 330.65625Q283.32812 329.26562 285.64062 329.26562Q288.20312 329.26562 289.82812 330.95312Q291.45312 332.64062 291.45312 335.59375Q291.45312 338.0 290.73438 339.375Q290.01562 340.75 288.64062 341.51562Q287.26562 342.28125 285.64062 342.28125Q283.01562 342.28125 281.40625 340.60938Q279.79688 338.92188 279.79688 335.78125ZM281.96875 335.78125Q281.96875 338.17188 283.0 339.35938Q284.04688 340.54688 285.64062 340.54688Q287.20312 340.54688 288.25 339.35938Q289.29688 338.15625 289.29688 335.70312Q289.29688 333.39062 288.23438 332.20312Q287.1875 331.01562 285.64062 331.01562Q284.04688 331.01562 283.0 332.20312Q281.96875 333.39062 281.96875 335.78125ZM293.59375 327.25L293.59375 324.8125L295.70312 324.8125L295.70312 327.25L293.59375 327.25ZM293.59375 342.0L293.59375 329.54688L295.70312 329.54688L295.70312 342.0L293.59375 342.0ZM298.5625 342.0L298.5625 329.54688L300.45312 329.54688L300.45312 331.4375Q301.1875 330.10938 301.79688 329.6875Q302.42188 329.26562 303.15625 329.26562Q304.21875 329.26562 305.32812 329.95312L304.59375 331.90625Q303.82812 331.45312 303.04688 331.45312Q302.35938 331.45312 301.79688 331.875Q301.25 332.28125 301.01562 333.01562Q300.67188 334.14062 300.67188 335.48438L300.67188 342.0L298.5625 342.0ZM315.10938 337.98438L317.28125 338.26562Q316.76562 340.17188 315.375 341.23438Q313.98438 342.28125 311.8125 342.28125Q309.07812 342.28125 307.46875 340.60938Q305.875 338.92188 305.875 335.875Q305.875 332.73438 307.48438 331.0Q309.10938 329.26562 311.6875 329.26562Q314.1875 329.26562 315.76562 330.96875Q317.35938 332.67188 317.35938 335.75Q317.35938 335.9375 317.34375 336.3125L308.0625 336.3125Q308.17188 338.35938 309.21875 339.45312Q310.26562 340.54688 311.82812 340.54688Q312.98438 340.54688 313.79688 339.9375Q314.625 339.32812 315.10938 337.98438ZM308.17188 334.57812L315.125 334.57812Q314.98438 333.01562 314.32812 332.21875Q313.32812 331.0 311.71875 331.0Q310.26562 331.0 309.26562 331.98438Q308.28125 332.95312 308.17188 334.57812ZM326.59375 327.25L326.59375 324.8125L328.70312 324.8125L328.70312 327.25L326.59375 327.25ZM326.59375 342.0L326.59375 329.54688L328.70312 329.54688L328.70312 342.0L326.59375 342.0ZM331.57812 342.0L331.57812 329.54688L333.48438 329.54688L333.48438 331.32812Q334.85938 329.26562 337.4375 329.26562Q338.5625 329.26562 339.5 329.67188Q340.45312 330.07812 340.92188 330.73438Q341.39062 331.39062 341.57812 332.29688Q341.70312 332.875 341.70312 334.34375L341.70312 342.0L339.59375 342.0L339.59375 334.42188Q339.59375 333.14062 339.34375 332.5Q339.09375 331.85938 338.46875 331.48438Q337.84375 331.09375 337.0 331.09375Q335.65625 331.09375 334.67188 331.95312Q333.6875 332.8125 333.6875 335.20312L333.6875 342.0L331.57812 342.0ZM344.59375 327.25L344.59375 324.8125L346.70312 324.8125L346.70312 327.25L344.59375 327.25ZM344.59375 342.0L344.59375 329.54688L346.70312 329.54688L346.70312 342.0L344.59375 342.0ZM354.1875 340.10938L354.5 341.96875Q353.60938 342.17188 352.90625 342.17188Q351.75 342.17188 351.10938 341.8125Q350.48438 341.4375 350.21875 340.84375Q349.96875 340.25 349.96875 338.35938L349.96875 331.1875L348.42188 331.1875L348.42188 329.54688L349.96875 329.54688L349.96875 326.46875L352.0625 325.20312L352.0625 329.54688L354.1875 329.54688L354.1875 331.1875L352.0625 331.1875L352.0625 338.46875Q352.0625 339.375 352.17188 339.64062Q352.29688 339.89062 352.54688 340.04688Q352.79688 340.1875 353.26562 340.1875Q353.60938 340.1875 354.1875 340.10938ZM356.59375 327.25L356.59375 324.8125L358.70312 324.8125L358.70312 327.25L356.59375 327.25ZM356.59375 342.0L356.59375 329.54688L358.70312 329.54688L358.70312 342.0L356.59375 342.0ZM369.70312 340.46875Q368.53125 341.45312 367.4375 341.875Q366.35938 342.28125 365.125 342.28125Q363.07812 342.28125 361.96875 341.28125Q360.875 340.28125 360.875 338.71875Q360.875 337.79688 361.28125 337.04688Q361.70312 336.29688 362.375 335.84375Q363.04688 335.375 363.89062 335.14062Q364.51562 334.98438 365.76562 334.82812Q368.32812 334.51562 369.53125 334.09375Q369.54688 333.67188 369.54688 333.54688Q369.54688 332.26562 368.9375 331.73438Q368.14062 331.01562 366.54688 331.01562Q365.04688 331.01562 364.34375 331.54688Q363.64062 332.0625 363.29688 333.39062L361.23438 333.10938Q361.51562 331.78125 362.15625 330.96875Q362.79688 330.15625 364.01562 329.71875Q365.23438 329.26562 366.84375 329.26562Q368.4375 329.26562 369.4375 329.64062Q370.4375 330.01562 370.90625 330.59375Q371.375 331.15625 371.5625 332.03125Q371.65625 332.5625 371.65625 333.96875L371.65625 336.78125Q371.65625 339.71875 371.79688 340.5Q371.9375 341.28125 372.32812 342.0L370.125 342.0Q369.79688 341.34375 369.70312 340.46875ZM369.53125 335.75Q368.375 336.21875 366.07812 336.54688Q364.78125 336.73438 364.23438 336.96875Q363.70312 337.20312 363.40625 337.65625Q363.125 338.10938 363.125 338.65625Q363.125 339.5 363.75 340.0625Q364.39062 340.625 365.625 340.625Q366.84375 340.625 367.79688 340.09375Q368.75 339.5625 369.1875 338.64062Q369.53125 337.92188 369.53125 336.53125L369.53125 335.75ZM374.53125 342.0L374.53125 324.8125L376.64062 324.8125L376.64062 342.0L374.53125 342.0ZM388.10938 337.98438L390.28125 338.26562Q389.76562 340.17188 388.375 341.23438Q386.98438 342.28125 384.8125 342.28125Q382.07812 342.28125 380.46875 340.60938Q378.875 338.92188 378.875 335.875Q378.875 332.73438 380.48438 331.0Q382.10938 329.26562 384.6875 329.26562Q387.1875 329.26562 388.76562 330.96875Q390.35938 332.67188 390.35938 335.75Q390.35938 335.9375 390.34375 336.3125L381.0625 336.3125Q381.17188 338.35938 382.21875 339.45312Q383.26562 340.54688 384.82812 340.54688Q385.98438 340.54688 386.79688 339.9375Q387.625 339.32812 388.10938 337.98438ZM381.17188 334.57812L388.125 334.57812Q387.98438 333.01562 387.32812 332.21875Q386.32812 331.0 384.71875 331.0Q383.26562 331.0 382.26562 331.98438Q381.28125 332.95312 381.17188 334.57812ZM403.60938 347.04688Q401.875 344.84375 400.65625 341.89062Q399.45312 338.9375 399.45312 335.78125Q399.45312 332.98438 400.35938 330.4375Q401.40625 327.46875 403.60938 324.53125L405.125 324.53125Q403.70312 326.96875 403.25 328.0Q402.53125 329.625 402.125 331.375Q401.625 333.57812 401.625 335.78125Q401.625 341.42188 405.125 347.04688L403.60938 347.04688ZM407.01562 337.46875L409.125 337.1875Q409.48438 338.96875 410.35938 339.76562Q411.23438 340.5625 412.48438 340.5625Q413.96875 340.5625 414.98438 339.53125Q416.01562 338.5 416.01562 336.96875Q416.01562 335.51562 415.0625 334.57812Q414.125 333.625 412.65625 333.625Q412.0625 333.625 411.17188 333.85938L411.40625 332.01562Q411.60938 332.03125 411.75 332.03125Q413.09375 332.03125 414.17188 331.32812Q415.25 330.625 415.25 329.17188Q415.25 328.0 414.45312 327.25Q413.67188 326.48438 412.4375 326.48438Q411.20312 326.48438 410.375 327.26562Q409.5625 328.03125 409.32812 329.57812L407.21875 329.20312Q407.60938 327.07812 408.96875 325.92188Q410.34375 324.75 412.39062 324.75Q413.79688 324.75 414.96875 325.35938Q416.15625 325.95312 416.78125 327.0Q417.42188 328.04688 417.42188 329.21875Q417.42188 330.32812 416.8125 331.25Q416.21875 332.15625 415.04688 332.6875Q416.57812 333.04688 417.42188 334.15625Q418.26562 335.26562 418.26562 336.92188Q418.26562 339.17188 416.625 340.75Q414.98438 342.3125 412.46875 342.3125Q410.20312 342.3125 408.70312 340.96875Q407.21875 339.60938 407.01562 337.46875ZM436.10938 337.98438L438.28125 338.26562Q437.76562 340.17188 436.375 341.23438Q434.98438 342.28125 432.8125 342.28125Q430.07812 342.28125 428.46875 340.60938Q426.875 338.92188 426.875 335.875Q426.875 332.73438 428.48438 331.0Q430.10938 329.26562 432.6875 329.26562Q435.1875 329.26562 436.76562 330.96875Q438.35938 332.67188 438.35938 335.75Q438.35938 335.9375 438.34375 336.3125L429.0625 336.3125Q429.17188 338.35938 430.21875 339.45312Q431.26562 340.54688 432.82812 340.54688Q433.98438 340.54688 434.79688 339.9375Q435.625 339.32812 436.10938 337.98438ZM429.17188 334.57812L436.125 334.57812Q435.98438 333.01562 435.32812 332.21875Q434.32812 331.0 432.71875 331.0Q431.26562 331.0 430.26562 331.98438Q429.28125 332.95312 429.17188 334.57812ZM440.57812 342.0L440.57812 329.54688L442.48438 329.54688L442.48438 331.32812Q443.85938 329.26562 446.4375 329.26562Q447.5625 329.26562 448.5 329.67188Q449.45312 330.07812 449.92188 330.73438Q450.39062 331.39062 450.57812 332.29688Q450.70312 332.875 450.70312 334.34375L450.70312 342.0L448.59375 342.0L448.59375 334.42188Q448.59375 333.14062 448.34375 332.5Q448.09375 331.85938 447.46875 331.48438Q446.84375 331.09375 446.0 331.09375Q444.65625 331.09375 443.67188 331.95312Q442.6875 332.8125 442.6875 335.20312L442.6875 342.0L440.57812 342.0ZM454.09375 342.0L454.09375 331.1875L452.21875 331.1875L452.21875 329.54688L454.09375 329.54688L454.09375 328.23438Q454.09375 326.96875 454.3125 326.35938Q454.60938 325.54688 455.375 325.04688Q456.15625 324.53125 457.53125 324.53125Q458.42188 324.53125 459.5 324.73438L459.1875 326.57812Q458.53125 326.45312 457.9375 326.45312Q456.98438 326.45312 456.57812 326.875Q456.1875 327.28125 456.1875 328.40625L456.1875 329.54688L458.60938 329.54688L458.60938 331.1875L456.1875 331.1875L456.1875 342.0L454.09375 342.0ZM468.70312 340.46875Q467.53125 341.45312 466.4375 341.875Q465.35938 342.28125 464.125 342.28125Q462.07812 342.28125 460.96875 341.28125Q459.875 340.28125 459.875 338.71875Q459.875 337.79688 460.28125 337.04688Q460.70312 336.29688 461.375 335.84375Q462.04688 335.375 462.89062 335.14062Q463.51562 334.98438 464.76562 334.82812Q467.32812 334.51562 468.53125 334.09375Q468.54688 333.67188 468.54688 333.54688Q468.54688 332.26562 467.9375 331.73438Q467.14062 331.01562 465.54688 331.01562Q464.04688 331.01562 463.34375 331.54688Q462.64062 332.0625 462.29688 333.39062L460.23438 333.10938Q460.51562 331.78125 461.15625 330.96875Q461.79688 330.15625 463.01562 329.71875Q464.23438 329.26562 465.84375 329.26562Q467.4375 329.26562 468.4375 329.64062Q469.4375 330.01562 469.90625 330.59375Q470.375 331.15625 470.5625 332.03125Q470.65625 332.5625 470.65625 333.96875L470.65625 336.78125Q470.65625 339.71875 470.79688 340.5Q470.9375 341.28125 471.32812 342.0L469.125 342.0Q468.79688 341.34375 468.70312 340.46875ZM468.53125 335.75Q467.375 336.21875 465.07812 336.54688Q463.78125 336.73438 463.23438 336.96875Q462.70312 337.20312 462.40625 337.65625Q462.125 338.10938 462.125 338.65625Q462.125 339.5 462.75 340.0625Q463.39062 340.625 464.625 340.625Q465.84375 340.625 466.79688 340.09375Q467.75 339.5625 468.1875 338.64062Q468.53125 337.92188 468.53125 336.53125L468.53125 335.75ZM473.57812 342.0L473.57812 329.54688L475.48438 329.54688L475.48438 331.32812Q476.85938 329.26562 479.4375 329.26562Q480.5625 329.26562 481.5 329.67188Q482.45312 330.07812 482.92188 330.73438Q483.39062 331.39062 483.57812 332.29688Q483.70312 332.875 483.70312 334.34375L483.70312 342.0L481.59375 342.0L481.59375 334.42188Q481.59375 333.14062 481.34375 332.5Q481.09375 331.85938 480.46875 331.48438Q479.84375 331.09375 479.0 331.09375Q477.65625 331.09375 476.67188 331.95312Q475.6875 332.8125 475.6875 335.20312L475.6875 342.0L473.57812 342.0ZM491.1875 340.10938L491.5 341.96875Q490.60938 342.17188 489.90625 342.17188Q488.75 342.17188 488.10938 341.8125Q487.48438 341.4375 487.21875 340.84375Q486.96875 340.25 486.96875 338.35938L486.96875 331.1875L485.42188 331.1875L485.42188 329.54688L486.96875 329.54688L486.96875 326.46875L489.0625 325.20312L489.0625 329.54688L491.1875 329.54688L491.1875 331.1875L489.0625 331.1875L489.0625 338.46875Q489.0625 339.375 489.17188 339.64062Q489.29688 339.89062 489.54688 340.04688Q489.79688 340.1875 490.26562 340.1875Q490.60938 340.1875 491.1875 340.10938ZM492.73438 338.28125L494.82812 337.95312Q495.0 339.20312 495.79688 339.875Q496.60938 340.54688 498.04688 340.54688Q499.5 340.54688 500.20312 339.95312Q500.90625 339.35938 500.90625 338.5625Q500.90625 337.84375 500.28125 337.4375Q499.85938 337.15625 498.125 336.71875Q495.8125 336.14062 494.90625 335.71875Q494.01562 335.28125 493.54688 334.53125Q493.09375 333.76562 493.09375 332.85938Q493.09375 332.03125 493.46875 331.32812Q493.85938 330.60938 494.51562 330.14062Q495.0 329.78125 495.84375 329.53125Q496.70312 329.26562 497.67188 329.26562Q499.14062 329.26562 500.25 329.6875Q501.35938 330.10938 501.875 330.84375Q502.40625 331.5625 502.60938 332.76562L500.54688 333.04688Q500.40625 332.07812 499.73438 331.54688Q499.0625 331.0 497.82812 331.0Q496.375 331.0 495.75 331.48438Q495.125 331.96875 495.125 332.60938Q495.125 333.01562 495.39062 333.34375Q495.64062 333.6875 496.20312 333.90625Q496.51562 334.03125 498.0625 334.45312Q500.29688 335.04688 501.17188 335.4375Q502.0625 335.8125 502.5625 336.54688Q503.07812 337.26562 503.07812 338.34375Q503.07812 339.39062 502.45312 340.32812Q501.84375 341.26562 500.6875 341.78125Q499.53125 342.28125 498.0625 342.28125Q495.64062 342.28125 494.35938 341.28125Q493.09375 340.26562 492.73438 338.28125ZM512.5781 342.0L512.5781 329.54688L514.46875 329.54688L514.46875 331.29688Q515.0625 330.39062 516.03125 329.82812Q517.0 329.26562 518.25 329.26562Q519.625 329.26562 520.5 329.84375Q521.3906 330.42188 521.7656 331.45312Q523.2344 329.26562 525.6094 329.26562Q527.4531 329.26562 528.4531 330.29688Q529.4531 331.32812 529.4531 333.45312L529.4531 342.0L527.34375 342.0L527.34375 334.15625Q527.34375 332.89062 527.1406 332.34375Q526.9375 331.78125 526.3906 331.4375Q525.8594 331.09375 525.1406 331.09375Q523.8281 331.09375 522.9531 331.96875Q522.09375 332.84375 522.09375 334.76562L522.09375 342.0L519.9844 342.0L519.9844 333.90625Q519.9844 332.5 519.46875 331.79688Q518.9531 331.09375 517.78125 331.09375Q516.8906 331.09375 516.125 331.5625Q515.375 332.03125 515.03125 332.9375Q514.6875 333.84375 514.6875 335.54688L514.6875 342.0L512.5781 342.0ZM531.7969 335.78125Q531.7969 332.3125 533.71875 330.65625Q535.3281 329.26562 537.6406 329.26562Q540.2031 329.26562 541.8281 330.95312Q543.4531 332.64062 543.4531 335.59375Q543.4531 338.0 542.7344 339.375Q542.0156 340.75 540.6406 341.51562Q539.2656 342.28125 537.6406 342.28125Q535.0156 342.28125 533.40625 340.60938Q531.7969 338.92188 531.7969 335.78125ZM533.96875 335.78125Q533.96875 338.17188 535.0 339.35938Q536.0469 340.54688 537.6406 340.54688Q539.2031 340.54688 540.25 339.35938Q541.2969 338.15625 541.2969 335.70312Q541.2969 333.39062 540.2344 332.20312Q539.1875 331.01562 537.6406 331.01562Q536.0469 331.01562 535.0 332.20312Q533.96875 333.39062 533.96875 335.78125ZM545.5625 342.0L545.5625 329.54688L547.4531 329.54688L547.4531 331.4375Q548.1875 330.10938 548.7969 329.6875Q549.4219 329.26562 550.15625 329.26562Q551.21875 329.26562 552.3281 329.95312L551.59375 331.90625Q550.8281 331.45312 550.0469 331.45312Q549.3594 331.45312 548.7969 331.875Q548.25 332.28125 548.0156 333.01562Q547.6719 334.14062 547.6719 335.48438L547.6719 342.0L545.5625 342.0ZM558.1875 340.10938L558.5 341.96875Q557.6094 342.17188 556.90625 342.17188Q555.75 342.17188 555.1094 341.8125Q554.4844 341.4375 554.21875 340.84375Q553.96875 340.25 553.96875 338.35938L553.96875 331.1875L552.4219 331.1875L552.4219 329.54688L553.96875 329.54688L553.96875 326.46875L556.0625 325.20312L556.0625 329.54688L558.1875 329.54688L558.1875 331.1875L556.0625 331.1875L556.0625 338.46875Q556.0625 339.375 556.1719 339.64062Q556.2969 339.89062 556.5469 340.04688Q556.7969 340.1875 557.2656 340.1875Q557.6094 340.1875 558.1875 340.10938ZM559.7344 338.28125L561.8281 337.95312Q562.0 339.20312 562.7969 339.875Q563.6094 340.54688 565.0469 340.54688Q566.5 340.54688 567.2031 339.95312Q567.90625 339.35938 567.90625 338.5625Q567.90625 337.84375 567.28125 337.4375Q566.8594 337.15625 565.125 336.71875Q562.8125 336.14062 561.90625 335.71875Q561.0156 335.28125 560.5469 334.53125Q560.09375 333.76562 560.09375 332.85938Q560.09375 332.03125 560.46875 331.32812Q560.8594 330.60938 561.5156 330.14062Q562.0 329.78125 562.84375 329.53125Q563.7031 329.26562 564.6719 329.26562Q566.1406 329.26562 567.25 329.6875Q568.3594 330.10938 568.875 330.84375Q569.40625 331.5625 569.6094 332.76562L567.5469 333.04688Q567.40625 332.07812 566.7344 331.54688Q566.0625 331.0 564.8281 331.0Q563.375 331.0 562.75 331.48438Q562.125 331.96875 562.125 332.60938Q562.125 333.01562 562.3906 333.34375Q562.6406 333.6875 563.2031 333.90625Q563.5156 334.03125 565.0625 334.45312Q567.2969 335.04688 568.1719 335.4375Q569.0625 335.8125 569.5625 336.54688Q570.0781 337.26562 570.0781 338.34375Q570.0781 339.39062 569.4531 340.32812Q568.84375 341.26562 567.6875 341.78125Q566.53125 342.28125 565.0625 342.28125Q562.6406 342.28125 561.3594 341.28125Q560.09375 340.26562 559.7344 338.28125ZM573.96875 347.04688L572.4531 347.04688Q575.9531 341.42188 575.9531 335.78125Q575.9531 333.57812 575.4531 331.42188Q575.0625 329.65625 574.34375 328.04688Q573.8906 326.98438 572.4531 324.53125L573.96875 324.53125Q576.1719 327.46875 577.21875 330.4375Q578.125 332.98438 578.125 335.78125Q578.125 338.9375 576.90625 341.89062Q575.7031 344.84375 573.96875 347.04688Z" fill-rule="nonzero"/><path fill="#ea4335" d="M179.5 366.0C179.5 369.31372 176.8137 372.0 173.5 372.0C170.1863 372.0 167.5 369.31372 167.5 366.0C167.5 362.68628 170.1863 360.0 173.5 360.0C176.8137 360.0 179.5 362.68628 179.5 366.0Z" fill-rule="nonzero"/><path fill="#1a1a1a" d="M188.57812 368.48438L190.71875 368.29688Q190.875 369.57812 191.42188 370.40625Q191.98438 371.23438 193.15625 371.75Q194.32812 372.25 195.79688 372.25Q197.09375 372.25 198.09375 371.875Q199.09375 371.48438 199.57812 370.8125Q200.0625 370.125 200.0625 369.32812Q200.0625 368.53125 199.59375 367.92188Q199.125 367.3125 198.04688 366.90625Q197.35938 366.64062 194.98438 366.07812Q192.625 365.5 191.67188 365.0Q190.4375 364.35938 189.82812 363.40625Q189.23438 362.4375 189.23438 361.26562Q189.23438 359.95312 189.96875 358.82812Q190.71875 357.70312 192.125 357.125Q193.54688 356.53125 195.28125 356.53125Q197.1875 356.53125 198.64062 357.14062Q200.10938 357.75 200.89062 358.95312Q201.6875 360.14062 201.73438 361.65625L199.5625 361.82812Q199.39062 360.1875 198.375 359.35938Q197.35938 358.53125 195.375 358.53125Q193.3125 358.53125 192.35938 359.29688Q191.42188 360.04688 191.42188 361.10938Q191.42188 362.03125 192.09375 362.625Q192.75 363.23438 195.51562 363.85938Q198.29688 364.48438 199.32812 364.95312Q200.82812 365.64062 201.53125 366.70312Q202.25 367.76562 202.25 369.14062Q202.25 370.51562 201.46875 371.73438Q200.6875 372.9375 199.21875 373.625Q197.75 374.29688 195.90625 374.29688Q193.57812 374.29688 192.0 373.625Q190.42188 372.9375 189.51562 371.57812Q188.625 370.20312 188.57812 368.48438ZM213.60938 369.98438L215.78125 370.26562Q215.26562 372.17188 213.875 373.23438Q212.48438 374.28125 210.3125 374.28125Q207.57812 374.28125 205.96875 372.60938Q204.375 370.92188 204.375 367.875Q204.375 364.73438 205.98438 363.0Q207.60938 361.26562 210.1875 361.26562Q212.6875 361.26562 214.26562 362.96875Q215.85938 364.67188 215.85938 367.75Q215.85938 367.9375 215.84375 368.3125L206.5625 368.3125Q206.67188 370.35938 207.71875 371.45312Q208.76562 372.54688 210.32812 372.54688Q211.48438 372.54688 212.29688 371.9375Q213.125 371.32812 213.60938 369.98438ZM206.67188 366.57812L213.625 366.57812Q213.48438 365.01562 212.82812 364.21875Q211.82812 363.0 210.21875 363.0Q208.76562 363.0 207.76562 363.98438Q206.78125 364.95312 206.67188 366.57812ZM233.15625 374.0L233.15625 372.42188Q231.96875 374.28125 229.67188 374.28125Q228.1875 374.28125 226.9375 373.46875Q225.6875 372.64062 225.0 371.17188Q224.32812 369.70312 224.32812 367.78125Q224.32812 365.92188 224.9375 364.40625Q225.5625 362.89062 226.79688 362.07812Q228.04688 361.26562 229.57812 361.26562Q230.70312 361.26562 231.57812 361.75Q232.46875 362.21875 233.01562 362.98438L233.01562 356.8125L235.10938 356.8125L235.10938 374.0L233.15625 374.0ZM226.48438 367.78125Q226.48438 370.17188 227.48438 371.35938Q228.5 372.54688 229.875 372.54688Q231.26562 372.54688 232.21875 371.42188Q233.1875 370.28125 233.1875 367.96875Q233.1875 365.40625 232.20312 364.21875Q231.21875 363.01562 229.78125 363.01562Q228.375 363.01562 227.42188 364.17188Q226.48438 365.3125 226.48438 367.78125ZM246.60938 369.98438L248.78125 370.26562Q248.26562 372.17188 246.875 373.23438Q245.48438 374.28125 243.3125 374.28125Q240.57812 374.28125 238.96875 372.60938Q237.375 370.92188 237.375 367.875Q237.375 364.73438 238.98438 363.0Q240.60938 361.26562 243.1875 361.26562Q245.6875 361.26562 247.26562 362.96875Q248.85938 364.67188 248.85938 367.75Q248.85938 367.9375 248.84375 368.3125L239.5625 368.3125Q239.67188 370.35938 240.71875 371.45312Q241.76562 372.54688 243.32812 372.54688Q244.48438 372.54688 245.29688 371.9375Q246.125 371.32812 246.60938 369.98438ZM239.67188 366.57812L246.625 366.57812Q246.48438 365.01562 245.82812 364.21875Q244.82812 363.0 243.21875 363.0Q241.76562 363.0 240.76562 363.98438Q239.78125 364.95312 239.67188 366.57812ZM242.10938 360.0L243.65625 356.71875L246.42188 356.71875L243.84375 360.0L242.10938 360.0ZM251.07812 378.76562L251.07812 361.54688L253.0 361.54688L253.0 363.17188Q253.6875 362.21875 254.53125 361.75Q255.39062 361.26562 256.60938 361.26562Q258.20312 361.26562 259.42188 362.09375Q260.64062 362.90625 261.26562 364.40625Q261.89062 365.90625 261.89062 367.6875Q261.89062 369.59375 261.20312 371.125Q260.51562 372.65625 259.20312 373.46875Q257.90625 374.28125 256.46875 374.28125Q255.40625 374.28125 254.5625 373.84375Q253.73438 373.39062 253.1875 372.70312L253.1875 378.76562L251.07812 378.76562ZM253.0 367.84375Q253.0 370.25 253.96875 371.40625Q254.9375 372.54688 256.32812 372.54688Q257.73438 372.54688 258.73438 371.35938Q259.73438 370.17188 259.73438 367.67188Q259.73438 365.29688 258.75 364.10938Q257.78125 362.92188 256.42188 362.92188Q255.0625 362.92188 254.03125 364.1875Q253.0 365.4375 253.0 367.84375ZM263.29688 367.78125Q263.29688 364.3125 265.21875 362.65625Q266.82812 361.26562 269.14062 361.26562Q271.70312 361.26562 273.32812 362.95312Q274.95312 364.64062 274.95312 367.59375Q274.95312 370.0 274.23438 371.375Q273.51562 372.75 272.14062 373.51562Q270.76562 374.28125 269.14062 374.28125Q266.51562 374.28125 264.90625 372.60938Q263.29688 370.92188 263.29688 367.78125ZM265.46875 367.78125Q265.46875 370.17188 266.5 371.35938Q267.54688 372.54688 269.14062 372.54688Q270.70312 372.54688 271.75 371.35938Q272.79688 370.15625 272.79688 367.70312Q272.79688 365.39062 271.73438 364.20312Q270.6875 363.01562 269.14062 363.01562Q267.54688 363.01562 266.5 364.20312Q265.46875 365.39062 265.46875 367.78125ZM277.0625 374.0L277.0625 361.54688L278.95312 361.54688L278.95312 363.4375Q279.6875 362.10938 280.29688 361.6875Q280.92188 361.26562 281.65625 361.26562Q282.71875 361.26562 283.82812 361.95312L283.09375 363.90625Q282.32812 363.45312 281.54688 363.45312Q280.85938 363.45312 280.29688 363.875Q279.75 364.28125 279.51562 365.01562Q279.17188 366.14062 279.17188 367.48438L279.17188 374.0L277.0625 374.0ZM289.6875 372.10938L290.0 373.96875Q289.10938 374.17188 288.40625 374.17188Q287.25 374.17188 286.60938 373.8125Q285.98438 373.4375 285.71875 372.84375Q285.46875 372.25 285.46875 370.35938L285.46875 363.1875L283.92188 363.1875L283.92188 361.54688L285.46875 361.54688L285.46875 358.46875L287.5625 357.20312L287.5625 361.54688L289.6875 361.54688L289.6875 363.1875L287.5625 363.1875L287.5625 370.46875Q287.5625 371.375 287.67188 371.64062Q287.79688 371.89062 288.04688 372.04688Q288.29688 372.1875 288.76562 372.1875Q289.10938 372.1875 289.6875 372.10938ZM300.60938 369.98438L302.78125 370.26562Q302.26562 372.17188 300.875 373.23438Q299.48438 374.28125 297.3125 374.28125Q294.57812 374.28125 292.96875 372.60938Q291.375 370.92188 291.375 367.875Q291.375 364.73438 292.98438 363.0Q294.60938 361.26562 297.1875 361.26562Q299.6875 361.26562 301.26562 362.96875Q302.85938 364.67188 302.85938 367.75Q302.85938 367.9375 302.84375 368.3125L293.5625 368.3125Q293.67188 370.35938 294.71875 371.45312Q295.76562 372.54688 297.32812 372.54688Q298.48438 372.54688 299.29688 371.9375Q300.125 371.32812 300.60938 369.98438ZM293.67188 366.57812L300.625 366.57812Q300.48438 365.01562 299.82812 364.21875Q298.82812 363.0 297.21875 363.0Q295.76562 363.0 294.76562 363.98438Q293.78125 364.95312 293.67188 366.57812ZM305.0625 374.0L305.0625 361.54688L306.95312 361.54688L306.95312 363.4375Q307.6875 362.10938 308.29688 361.6875Q308.92188 361.26562 309.65625 361.26562Q310.71875 361.26562 311.82812 361.95312L311.09375 363.90625Q310.32812 363.45312 309.54688 363.45312Q308.85938 363.45312 308.29688 363.875Q307.75 364.28125 307.51562 365.01562Q307.17188 366.14062 307.17188 367.48438L307.17188 374.0L305.0625 374.0ZM324.10938 379.04688Q322.375 376.84375 321.15625 373.89062Q319.95312 370.9375 319.95312 367.78125Q319.95312 364.98438 320.85938 362.4375Q321.90625 359.46875 324.10938 356.53125L325.625 356.53125Q324.20312 358.96875 323.75 360.0Q323.03125 361.625 322.625 363.375Q322.125 365.57812 322.125 367.78125Q322.125 373.42188 325.625 379.04688L324.10938 379.04688ZM327.51562 369.46875L329.625 369.1875Q329.98438 370.96875 330.85938 371.76562Q331.73438 372.5625 332.98438 372.5625Q334.46875 372.5625 335.48438 371.53125Q336.51562 370.5 336.51562 368.96875Q336.51562 367.51562 335.5625 366.57812Q334.625 365.625 333.15625 365.625Q332.5625 365.625 331.67188 365.85938L331.90625 364.01562Q332.10938 364.03125 332.25 364.03125Q333.59375 364.03125 334.67188 363.32812Q335.75 362.625 335.75 361.17188Q335.75 360.0 334.95312 359.25Q334.17188 358.48438 332.9375 358.48438Q331.70312 358.48438 330.875 359.26562Q330.0625 360.03125 329.82812 361.57812L327.71875 361.20312Q328.10938 359.07812 329.46875 357.92188Q330.84375 356.75 332.89062 356.75Q334.29688 356.75 335.46875 357.35938Q336.65625 357.95312 337.28125 359.0Q337.92188 360.04688 337.92188 361.21875Q337.92188 362.32812 337.3125 363.25Q336.71875 364.15625 335.54688 364.6875Q337.07812 365.04688 337.92188 366.15625Q338.76562 367.26562 338.76562 368.92188Q338.76562 371.17188 337.125 372.75Q335.48438 374.3125 332.96875 374.3125Q330.70312 374.3125 329.20312 372.96875Q327.71875 371.60938 327.51562 369.46875ZM356.20312 372.46875Q355.03125 373.45312 353.9375 373.875Q352.85938 374.28125 351.625 374.28125Q349.57812 374.28125 348.46875 373.28125Q347.375 372.28125 347.375 370.71875Q347.375 369.79688 347.78125 369.04688Q348.20312 368.29688 348.875 367.84375Q349.54688 367.375 350.39062 367.14062Q351.01562 366.98438 352.26562 366.82812Q354.82812 366.51562 356.03125 366.09375Q356.04688 365.67188 356.04688 365.54688Q356.04688 364.26562 355.4375 363.73438Q354.64062 363.01562 353.04688 363.01562Q351.54688 363.01562 350.84375 363.54688Q350.14062 364.0625 349.79688 365.39062L347.73438 365.10938Q348.01562 363.78125 348.65625 362.96875Q349.29688 362.15625 350.51562 361.71875Q351.73438 361.26562 353.34375 361.26562Q354.9375 361.26562 355.9375 361.64062Q356.9375 362.01562 357.40625 362.59375Q357.875 363.15625 358.0625 364.03125Q358.15625 364.5625 358.15625 365.96875L358.15625 368.78125Q358.15625 371.71875 358.29688 372.5Q358.4375 373.28125 358.82812 374.0L356.625 374.0Q356.29688 373.34375 356.20312 372.46875ZM356.03125 367.75Q354.875 368.21875 352.57812 368.54688Q351.28125 368.73438 350.73438 368.96875Q350.20312 369.20312 349.90625 369.65625Q349.625 370.10938 349.625 370.65625Q349.625 371.5 350.25 372.0625Q350.89062 372.625 352.125 372.625Q353.34375 372.625 354.29688 372.09375Q355.25 371.5625 355.6875 370.64062Q356.03125 369.92188 356.03125 368.53125L356.03125 367.75ZM369.15625 374.0L369.15625 372.42188Q367.96875 374.28125 365.67188 374.28125Q364.1875 374.28125 362.9375 373.46875Q361.6875 372.64062 361.0 371.17188Q360.32812 369.70312 360.32812 367.78125Q360.32812 365.92188 360.9375 364.40625Q361.5625 362.89062 362.79688 362.07812Q364.04688 361.26562 365.57812 361.26562Q366.70312 361.26562 367.57812 361.75Q368.46875 362.21875 369.01562 362.98438L369.01562 356.8125L371.10938 356.8125L371.10938 374.0L369.15625 374.0ZM362.48438 367.78125Q362.48438 370.17188 363.48438 371.35938Q364.5 372.54688 365.875 372.54688Q367.26562 372.54688 368.21875 371.42188Q369.1875 370.28125 369.1875 367.96875Q369.1875 365.40625 368.20312 364.21875Q367.21875 363.01562 365.78125 363.01562Q364.375 363.01562 363.42188 364.17188Q362.48438 365.3125 362.48438 367.78125ZM382.23438 374.0L382.23438 372.17188Q380.78125 374.28125 378.29688 374.28125Q377.1875 374.28125 376.23438 373.85938Q375.28125 373.4375 374.8125 372.79688Q374.35938 372.15625 374.17188 371.23438Q374.03125 370.60938 374.03125 369.26562L374.03125 361.54688L376.14062 361.54688L376.14062 368.45312Q376.14062 370.10938 376.28125 370.6875Q376.46875 371.51562 377.10938 372.0Q377.76562 372.46875 378.71875 372.46875Q379.65625 372.46875 380.48438 371.98438Q381.32812 371.48438 381.67188 370.65625Q382.01562 369.8125 382.01562 368.21875L382.01562 361.54688L384.125 361.54688L384.125 374.0L382.23438 374.0ZM387.03125 374.0L387.03125 356.8125L389.14062 356.8125L389.14062 374.0L387.03125 374.0ZM396.6875 372.10938L397.0 373.96875Q396.10938 374.17188 395.40625 374.17188Q394.25 374.17188 393.60938 373.8125Q392.98438 373.4375 392.71875 372.84375Q392.46875 372.25 392.46875 370.35938L392.46875 363.1875L390.92188 363.1875L390.92188 361.54688L392.46875 361.54688L392.46875 358.46875L394.5625 357.20312L394.5625 361.54688L396.6875 361.54688L396.6875 363.1875L394.5625 363.1875L394.5625 370.46875Q394.5625 371.375 394.67188 371.64062Q394.79688 371.89062 395.04688 372.04688Q395.29688 372.1875 395.76562 372.1875Q396.10938 372.1875 396.6875 372.10938ZM407.60938 369.98438L409.78125 370.26562Q409.26562 372.17188 407.875 373.23438Q406.48438 374.28125 404.3125 374.28125Q401.57812 374.28125 399.96875 372.60938Q398.375 370.92188 398.375 367.875Q398.375 364.73438 399.98438 363.0Q401.60938 361.26562 404.1875 361.26562Q406.6875 361.26562 408.26562 362.96875Q409.85938 364.67188 409.85938 367.75Q409.85938 367.9375 409.84375 368.3125L400.5625 368.3125Q400.67188 370.35938 401.71875 371.45312Q402.76562 372.54688 404.32812 372.54688Q405.48438 372.54688 406.29688 371.9375Q407.125 371.32812 407.60938 369.98438ZM400.67188 366.57812L407.625 366.57812Q407.48438 365.01562 406.82812 364.21875Q405.82812 363.0 404.21875 363.0Q402.76562 363.0 401.76562 363.98438Q400.78125 364.95312 400.67188 366.57812ZM411.23438 370.28125L413.32812 369.95312Q413.5 371.20312 414.29688 371.875Q415.10938 372.54688 416.54688 372.54688Q418.0 372.54688 418.70312 371.95312Q419.40625 371.35938 419.40625 370.5625Q419.40625 369.84375 418.78125 369.4375Q418.35938 369.15625 416.625 368.71875Q414.3125 368.14062 413.40625 367.71875Q412.51562 367.28125 412.04688 366.53125Q411.59375 365.76562 411.59375 364.85938Q411.59375 364.03125 411.96875 363.32812Q412.35938 362.60938 413.01562 362.14062Q413.5 361.78125 414.34375 361.53125Q415.20312 361.26562 416.17188 361.26562Q417.64062 361.26562 418.75 361.6875Q419.85938 362.10938 420.375 362.84375Q420.90625 363.5625 421.10938 364.76562L419.04688 365.04688Q418.90625 364.07812 418.23438 363.54688Q417.5625 363.0 416.32812 363.0Q414.875 363.0 414.25 363.48438Q413.625 363.96875 413.625 364.60938Q413.625 365.01562 413.89062 365.34375Q414.14062 365.6875 414.70312 365.90625Q415.01562 366.03125 416.5625 366.45312Q418.79688 367.04688 419.67188 367.4375Q420.5625 367.8125 421.0625 368.54688Q421.57812 369.26562 421.57812 370.34375Q421.57812 371.39062 420.95312 372.32812Q420.34375 373.26562 419.1875 373.78125Q418.03125 374.28125 416.5625 374.28125Q414.14062 374.28125 412.85938 373.28125Q411.59375 372.26562 411.23438 370.28125ZM431.07812 374.0L431.07812 361.54688L432.96875 361.54688L432.96875 363.29688Q433.5625 362.39062 434.53125 361.82812Q435.5 361.26562 436.75 361.26562Q438.125 361.26562 439.0 361.84375Q439.89062 362.42188 440.26562 363.45312Q441.73438 361.26562 444.10938 361.26562Q445.95312 361.26562 446.95312 362.29688Q447.95312 363.32812 447.95312 365.45312L447.95312 374.0L445.84375 374.0L445.84375 366.15625Q445.84375 364.89062 445.64062 364.34375Q445.4375 363.78125 444.89062 363.4375Q444.35938 363.09375 443.64062 363.09375Q442.32812 363.09375 441.45312 363.96875Q440.59375 364.84375 440.59375 366.76562L440.59375 374.0L438.48438 374.0L438.48438 365.90625Q438.48438 364.5 437.96875 363.79688Q437.45312 363.09375 436.28125 363.09375Q435.39062 363.09375 434.625 363.5625Q433.875 364.03125 433.53125 364.9375Q433.1875 365.84375 433.1875 367.54688L433.1875 374.0L431.07812 374.0ZM450.29688 367.78125Q450.29688 364.3125 452.21875 362.65625Q453.82812 361.26562 456.14062 361.26562Q458.70312 361.26562 460.32812 362.95312Q461.95312 364.64062 461.95312 367.59375Q461.95312 370.0 461.23438 371.375Q460.51562 372.75 459.14062 373.51562Q457.76562 374.28125 456.14062 374.28125Q453.51562 374.28125 451.90625 372.60938Q450.29688 370.92188 450.29688 367.78125ZM452.46875 367.78125Q452.46875 370.17188 453.5 371.35938Q454.54688 372.54688 456.14062 372.54688Q457.70312 372.54688 458.75 371.35938Q459.79688 370.15625 459.79688 367.70312Q459.79688 365.39062 458.73438 364.20312Q457.6875 363.01562 456.14062 363.01562Q454.54688 363.01562 453.5 364.20312Q452.46875 365.39062 452.46875 367.78125ZM464.0625 374.0L464.0625 361.54688L465.95312 361.54688L465.95312 363.4375Q466.6875 362.10938 467.29688 361.6875Q467.92188 361.26562 468.65625 361.26562Q469.71875 361.26562 470.82812 361.95312L470.09375 363.90625Q469.32812 363.45312 468.54688 363.45312Q467.85938 363.45312 467.29688 363.875Q466.75 364.28125 466.51562 365.01562Q466.17188 366.14062 466.17188 367.48438L466.17188 374.0L464.0625 374.0ZM476.6875 372.10938L477.0 373.96875Q476.10938 374.17188 475.40625 374.17188Q474.25 374.17188 473.60938 373.8125Q472.98438 373.4375 472.71875 372.84375Q472.46875 372.25 472.46875 370.35938L472.46875 363.1875L470.92188 363.1875L470.92188 361.54688L472.46875 361.54688L472.46875 358.46875L474.5625 357.20312L474.5625 361.54688L476.6875 361.54688L476.6875 363.1875L474.5625 363.1875L474.5625 370.46875Q474.5625 371.375 474.67188 371.64062Q474.79688 371.89062 475.04688 372.04688Q475.29688 372.1875 475.76562 372.1875Q476.10938 372.1875 476.6875 372.10938ZM478.23438 370.28125L480.32812 369.95312Q480.5 371.20312 481.29688 371.875Q482.10938 372.54688 483.54688 372.54688Q485.0 372.54688 485.70312 371.95312Q486.40625 371.35938 486.40625 370.5625Q486.40625 369.84375 485.78125 369.4375Q485.35938 369.15625 483.625 368.71875Q481.3125 368.14062 480.40625 367.71875Q479.51562 367.28125 479.04688 366.53125Q478.59375 365.76562 478.59375 364.85938Q478.59375 364.03125 478.96875 363.32812Q479.35938 362.60938 480.01562 362.14062Q480.5 361.78125 481.34375 361.53125Q482.20312 361.26562 483.17188 361.26562Q484.64062 361.26562 485.75 361.6875Q486.85938 362.10938 487.375 362.84375Q487.90625 363.5625 488.10938 364.76562L486.04688 365.04688Q485.90625 364.07812 485.23438 363.54688Q484.5625 363.0 483.32812 363.0Q481.875 363.0 481.25 363.48438Q480.625 363.96875 480.625 364.60938Q480.625 365.01562 480.89062 365.34375Q481.14062 365.6875 481.70312 365.90625Q482.01562 366.03125 483.5625 366.45312Q485.79688 367.04688 486.67188 367.4375Q487.5625 367.8125 488.0625 368.54688Q488.57812 369.26562 488.57812 370.34375Q488.57812 371.39062 487.95312 372.32812Q487.34375 373.26562 486.1875 373.78125Q485.03125 374.28125 483.5625 374.28125Q481.14062 374.28125 479.85938 373.28125Q478.59375 372.26562 478.23438 370.28125ZM492.46875 379.04688L490.95312 379.04688Q494.45312 373.42188 494.45312 367.78125Q494.45312 365.57812 493.95312 363.42188Q493.5625 361.65625 492.84375 360.04688Q492.39062 358.98438 490.95312 356.53125L492.46875 356.53125Q494.67188 359.46875 495.71875 362.4375Q496.625 364.98438 496.625 367.78125Q496.625 370.9375 495.40625 373.89062Q494.20312 376.84375 492.46875 379.04688Z" fill-rule="nonzero"/></svg>