<svg version="1.1" viewBox="0.0 0.0 625.0 400.0" fill="none" stroke="none" stroke-linecap="square" stroke-miterlimit="10" width="625" height="400" xmlns:xlink="http://www.w3.org/1999/xlink" xmlns="http://www.w3.org/2000/svg"><path fill="#ffffff" d="M0 0L625.0 0L625.0 400.0L0 400.0L0 0Z" fill-rule="nonzero"/><path fill="#4285f4" d="M312.5 20.0C379.37268 20.0 437.3591 66.24263 452.23965 131.43866C467.12024 196.6347 434.9402 263.45724 374.69 292.4722L312.5 163.33333Z" fill-rule="nonzero"/><path fill="#ea4335" d="M374.69 292.4722C321.5779 318.04965 258.22195 308.50027 215.00858 268.4041C171.79518 228.30794 157.53792 165.84277 179.07477 110.96779C200.6116 56.092808 253.55003 20.0 312.5 20.0L312.5 163.33333Z" fill-rule="nonzero"/><path fill="#000000" d="M356.48608 141.71033L354.73608 141.85095Q354.5017 140.8197 354.07983 140.35095Q353.36108 139.58533 352.3142 139.58533Q351.47046 139.58533 350.84546 140.05408Q350.01733 140.66345 349.53296 141.83533Q349.04858 142.99158 349.03296 145.1322Q349.67358 144.17908 350.57983 143.71033Q351.5017 143.24158 352.51733 143.24158Q354.26733 143.24158 355.5017 144.53845Q356.73608 145.8197 356.73608 147.86658Q356.73608 149.22595 356.15796 150.3822Q355.57983 151.53845 354.5642 152.16345Q353.54858 152.77283 352.2517 152.77283Q350.0642 152.77283 348.67358 151.16345Q347.28296 149.53845 347.28296 145.8197Q347.28296 141.67908 348.8142 139.78845Q350.15796 138.14783 352.42358 138.14783Q354.11108 138.14783 355.1892 139.10095Q356.26733 140.03845 356.48608 141.71033ZM349.3142 147.8822Q349.3142 148.78845 349.6892 149.61658Q350.07983 150.4447 350.76733 150.8822Q351.47046 151.3197 352.22046 151.3197Q353.34546 151.3197 354.14233 150.42908Q354.9392 149.52283 354.9392 147.97595Q354.9392 146.49158 354.14233 145.64783Q353.36108 144.78845 352.15796 144.78845Q350.97046 144.78845 350.14233 145.64783Q349.3142 146.49158 349.3142 147.8822ZM368.20483 156.72595Q366.7517 154.89783 365.7517 152.4447Q364.7517 149.97595 364.7517 147.33533Q364.7517 145.0072 365.5017 142.8822Q366.3767 140.41345 368.20483 137.96033L369.47046 137.96033Q368.28296 139.99158 367.90796 140.86658Q367.3142 142.21033 366.97046 143.67908Q366.54858 145.5072 366.54858 147.35095Q366.54858 152.03845 369.47046 156.72595L368.20483 156.72595ZM377.0017 152.52283L377.0017 149.10095L370.78296 149.10095L370.78296 147.47595L377.3142 138.21033L378.7517 138.21033L378.7517 147.47595L380.6892 147.47595L380.6892 149.10095L378.7517 149.10095L378.7517 152.52283L377.0017 152.52283ZM377.0017 147.47595L377.0017 141.02283L372.51733 147.47595L377.0017 147.47595ZM391.59546 150.83533L391.59546 152.52283L382.14233 152.52283Q382.1267 151.8822 382.34546 151.30408Q382.70483 150.33533 383.5017 149.39783Q384.29858 148.46033 385.79858 147.22595Q388.14233 145.3197 388.95483 144.21033Q389.78296 143.08533 389.78296 142.08533Q389.78296 141.03845 389.03296 140.3197Q388.28296 139.60095 387.07983 139.60095Q385.8142 139.60095 385.04858 140.36658Q384.28296 141.1322 384.28296 142.47595L382.47046 142.28845Q382.65796 140.27283 383.86108 139.21033Q385.07983 138.14783 387.1267 138.14783Q389.17358 138.14783 390.3767 139.28845Q391.57983 140.42908 391.57983 142.11658Q391.57983 142.97595 391.22046 143.8197Q390.8767 144.64783 390.0642 145.5697Q389.2517 146.47595 387.36108 148.08533Q385.76733 149.41345 385.3142 149.8822Q384.8767 150.35095 384.57983 150.83533L391.59546 150.83533ZM394.3142 152.52283L394.3142 150.52283L396.3142 150.52283L396.3142 152.52283Q396.3142 153.6322 395.92358 154.30408Q395.53296 154.99158 394.6892 155.35095L394.1892 154.60095Q394.7517 154.36658 395.01733 153.8822Q395.28296 153.41345 395.3142 152.52283L394.3142 152.52283ZM399.6267 149.21033L401.3142 149.05408Q401.53296 150.24158 402.1267 150.78845Q402.73608 151.3197 403.6892 151.3197Q404.5017 151.3197 405.11108 150.96033Q405.72046 150.58533 406.11108 149.96033Q406.5017 149.33533 406.76733 148.28845Q407.03296 147.22595 407.03296 146.1322Q407.03296 146.02283 407.01733 145.78845Q406.48608 146.61658 405.57983 147.14783Q404.67358 147.66345 403.59546 147.66345Q401.82983 147.66345 400.59546 146.3822Q399.36108 145.08533 399.36108 142.97595Q399.36108 140.80408 400.64233 139.47595Q401.9392 138.14783 403.86108 138.14783Q405.26733 138.14783 406.42358 138.89783Q407.57983 139.64783 408.17358 141.03845Q408.78296 142.42908 408.78296 145.0697Q408.78296 147.8197 408.17358 149.4447Q407.57983 151.0697 406.40796 151.92908Q405.23608 152.77283 403.65796 152.77283Q401.97046 152.77283 400.90796 151.83533Q399.84546 150.89783 399.6267 149.21033ZM406.82983 142.89783Q406.82983 141.3822 406.01733 140.49158Q405.22046 139.60095 404.07983 139.60095Q402.90796 139.60095 402.03296 140.5697Q401.17358 141.52283 401.17358 143.03845Q401.17358 144.41345 401.98608 145.27283Q402.8142 146.11658 404.03296 146.11658Q405.2517 146.11658 406.03296 145.27283Q406.82983 144.41345 406.82983 142.89783ZM410.6892 141.64783Q410.6892 140.11658 411.45483 139.03845Q412.23608 137.96033 413.70483 137.96033Q415.04858 137.96033 415.92358 138.92908Q416.8142 139.8822 416.8142 141.7572Q416.8142 143.5697 415.92358 144.55408Q415.03296 145.52283 413.72046 145.52283Q412.42358 145.52283 411.54858 144.5697Q410.6892 143.60095 410.6892 141.64783ZM413.7517 139.17908Q413.09546 139.17908 412.65796 139.74158Q412.23608 140.30408 412.23608 141.8197Q412.23608 143.1947 412.67358 143.7572Q413.11108 144.3197 413.7517 144.3197Q414.42358 144.3197 414.84546 143.7572Q415.28296 143.17908 415.28296 141.67908Q415.28296 140.28845 414.84546 139.74158Q414.40796 139.17908 413.7517 139.17908ZM413.76733 153.05408L421.59546 137.96033L423.01733 137.96033L415.22046 153.05408L413.76733 153.05408ZM419.95483 149.16345Q419.95483 147.61658 420.72046 146.55408Q421.5017 145.47595 422.97046 145.47595Q424.3142 145.47595 425.1892 146.4447Q426.07983 147.39783 426.07983 149.27283Q426.07983 151.08533 425.1892 152.0697Q424.29858 153.05408 422.98608 153.05408Q421.6892 153.05408 420.8142 152.08533Q419.95483 151.10095 419.95483 149.16345ZM423.01733 146.6947Q422.36108 146.6947 421.92358 147.2572Q421.48608 147.8197 421.48608 149.33533Q421.48608 150.71033 421.92358 151.27283Q422.36108 151.83533 423.01733 151.83533Q423.6892 151.83533 424.11108 151.27283Q424.54858 150.71033 424.54858 149.1947Q424.54858 147.8197 424.11108 147.2572Q423.67358 146.6947 423.01733 146.6947ZM430.0017 156.72595L428.7517 156.72595Q431.65796 152.03845 431.65796 147.35095Q431.65796 145.5072 431.2517 143.71033Q430.90796 142.24158 430.3142 140.89783Q429.9392 140.0072 428.7517 137.96033L430.0017 137.96033Q431.84546 140.41345 432.72046 142.8822Q433.47046 145.0072 433.47046 147.33533Q433.47046 149.97595 432.45483 152.4447Q431.45483 154.89783 430.0017 156.72595Z" fill-rule="nonzero"/><path fill="#000000" d="M193.99829 180.37822Q192.90454 179.97197 192.37329 179.2376Q191.85767 178.4876 191.85767 177.45634Q191.85767 175.89384 192.98267 174.83134Q194.10767 173.76884 195.96704 173.76884Q197.84204 173.76884 198.98267 174.8626Q200.12329 175.94072 200.12329 177.50322Q200.12329 178.50322 199.59204 179.2376Q199.07642 179.97197 198.01392 180.37822Q199.34204 180.81572 200.02954 181.76884Q200.71704 182.72197 200.71704 184.0501Q200.71704 185.89384 199.40454 187.14384Q198.10767 188.39384 195.99829 188.39384Q193.87329 188.39384 192.57642 187.14384Q191.27954 185.87822 191.27954 184.00322Q191.27954 182.6126 191.98267 181.6751Q192.70142 180.72197 193.99829 180.37822ZM193.65454 177.39384Q193.65454 178.40947 194.31079 179.06572Q194.96704 179.70634 195.99829 179.70634Q197.01392 179.70634 197.67017 179.06572Q198.32642 178.4251 198.32642 177.50322Q198.32642 176.53447 197.65454 175.87822Q196.98267 175.20634 195.98267 175.20634Q194.98267 175.20634 194.31079 175.8626Q193.65454 176.50322 193.65454 177.39384ZM193.09204 184.01884Q193.09204 184.76884 193.43579 185.47197Q193.79517 186.1751 194.49829 186.56572Q195.20142 186.94072 196.01392 186.94072Q197.27954 186.94072 198.09204 186.12822Q198.92017 185.31572 198.92017 184.06572Q198.92017 182.8001 198.07642 181.97197Q197.23267 181.14384 195.95142 181.14384Q194.71704 181.14384 193.90454 181.97197Q193.09204 182.78447 193.09204 184.01884ZM212.13892 192.34697Q210.68579 190.51884 209.68579 188.06572Q208.68579 185.59697 208.68579 182.95634Q208.68579 180.62822 209.43579 178.50322Q210.31079 176.03447 212.13892 173.58134L213.40454 173.58134Q212.21704 175.6126 211.84204 176.4876Q211.24829 177.83134 210.90454 179.3001Q210.48267 181.12822 210.48267 182.97197Q210.48267 187.65947 213.40454 192.34697L212.13892 192.34697ZM215.29517 184.39384L217.13892 184.2376Q217.34204 185.58134 218.09204 186.26884Q218.84204 186.94072 219.90454 186.94072Q221.17017 186.94072 222.04517 185.9876Q222.92017 185.03447 222.92017 183.44072Q222.92017 181.94072 222.07642 181.08134Q221.23267 180.20634 219.87329 180.20634Q219.01392 180.20634 218.32642 180.59697Q217.65454 180.97197 217.26392 181.59697L215.60767 181.37822L216.99829 174.01884L224.12329 174.01884L224.12329 175.70634L218.40454 175.70634L217.63892 179.5501Q218.92017 178.64384 220.34204 178.64384Q222.21704 178.64384 223.49829 179.95634Q224.79517 181.25322 224.79517 183.28447Q224.79517 185.2376 223.65454 186.64384Q222.27954 188.39384 219.90454 188.39384Q217.95142 188.39384 216.70142 187.3001Q215.46704 186.20634 215.29517 184.39384ZM226.42017 175.70634L226.42017 174.01884L235.68579 174.01884L235.68579 175.37822Q234.31079 176.83134 232.96704 179.25322Q231.62329 181.65947 230.90454 184.20634Q230.37329 186.00322 230.21704 188.14384L228.42017 188.14384Q228.45142 186.45634 229.07642 184.06572Q229.71704 181.6751 230.90454 179.45634Q232.09204 177.22197 233.42017 175.70634L226.42017 175.70634ZM238.24829 188.14384L238.24829 186.14384L240.24829 186.14384L240.24829 188.14384Q240.24829 189.25322 239.85767 189.9251Q239.46704 190.6126 238.62329 190.97197L238.12329 190.22197Q238.68579 189.9876 238.95142 189.50322Q239.21704 189.03447 239.24829 188.14384L238.24829 188.14384ZM249.92017 188.14384L248.15454 188.14384L248.15454 176.94072Q247.52954 177.5501 246.49829 178.15947Q245.46704 178.75322 244.63892 179.06572L244.63892 177.3626Q246.12329 176.6751 247.21704 175.69072Q248.32642 174.69072 248.77954 173.76884L249.92017 173.76884L249.92017 188.14384ZM254.62329 177.26884Q254.62329 175.7376 255.38892 174.65947Q256.17017 173.58134 257.63892 173.58134Q258.98267 173.58134 259.85767 174.5501Q260.7483 175.50322 260.7483 177.37822Q260.7483 179.19072 259.85767 180.1751Q258.96704 181.14384 257.65454 181.14384Q256.35767 181.14384 255.48267 180.19072Q254.62329 179.22197 254.62329 177.26884ZM257.6858 174.8001Q257.02954 174.8001 256.59204 175.3626Q256.17017 175.9251 256.17017 177.44072Q256.17017 178.81572 256.60767 179.37822Q257.04517 179.94072 257.6858 179.94072Q258.35767 179.94072 258.77954 179.37822Q259.21704 178.8001 259.21704 177.3001Q259.21704 175.90947 258.77954 175.3626Q258.34204 174.8001 257.6858 174.8001ZM257.70142 188.6751L265.52954 173.58134L266.95142 173.58134L259.15454 188.6751L257.70142 188.6751ZM263.88892 184.78447Q263.88892 183.2376 264.65454 182.1751Q265.4358 181.09697 266.90454 181.09697Q268.2483 181.09697 269.1233 182.06572Q270.01392 183.01884 270.01392 184.89384Q270.01392 186.70634 269.1233 187.69072Q268.23267 188.6751 266.92017 188.6751Q265.6233 188.6751 264.7483 187.70634Q263.88892 186.72197 263.88892 184.78447ZM266.95142 182.31572Q266.29517 182.31572 265.85767 182.87822Q265.42017 183.44072 265.42017 184.95634Q265.42017 186.33134 265.85767 186.89384Q266.29517 187.45634 266.95142 187.45634Q267.6233 187.45634 268.04517 186.89384Q268.48267 186.33134 268.48267 184.81572Q268.48267 183.44072 268.04517 182.87822Q267.60767 182.31572 266.95142 182.31572ZM273.9358 192.34697L272.6858 192.34697Q275.59204 187.65947 275.59204 182.97197Q275.59204 181.12822 275.1858 179.33134Q274.84204 177.8626 274.2483 176.51884Q273.8733 175.62822 272.6858 173.58134L273.9358 173.58134Q275.77954 176.03447 276.65454 178.50322Q277.40454 180.62822 277.40454 182.95634Q277.40454 185.59697 276.38892 188.06572Q275.38892 190.51884 273.9358 192.34697Z" fill-rule="nonzero"/><path fill="#4285f4" d="M32.0 334.0C32.0 337.31372 29.31371 340.0 26.0 340.0C22.68629 340.0 20.0 337.31372 20.0 334.0C20.0 330.68628 22.68629 328.0 26.0 328.0C29.31371 328.0 32.0 330.68628 32.0 334.0Z" fill-rule="nonzero"/><path fill="#1a1a1a" d="M46.765625 342.0L40.109375 324.8125L42.5625 324.8125L47.03125 337.29688Q47.578125 338.79688 47.9375 340.10938Q48.328125 338.70312 48.859375 337.29688L53.5 324.8125L55.828125 324.8125L49.09375 342.0L46.765625 342.0ZM56.796875 335.78125Q56.796875 332.3125 58.71875 330.65625Q60.328125 329.26562 62.640625 329.26562Q65.203125 329.26562 66.828125 330.95312Q68.453125 332.64062 68.453125 335.59375Q68.453125 338.0 67.734375 339.375Q67.015625 340.75 65.640625 341.51562Q64.265625 342.28125 62.640625 342.28125Q60.015625 342.28125 58.40625 340.60938Q56.796875 338.92188 56.796875 335.78125ZM58.96875 335.78125Q58.96875 338.17188 60.0 339.35938Q61.046875 340.54688 62.640625 340.54688Q64.203125 340.54688 65.25 339.35938Q66.296875 338.15625 66.296875 335.70312Q66.296875 333.39062 65.234375 332.20312Q64.1875 331.01562 62.640625 331.01562Q61.046875 331.01562 60.0 332.20312Q58.96875 333.39062 58.96875 335.78125ZM78.734375 342.0L78.734375 340.17188Q77.28125 342.28125 74.796875 342.28125Q73.6875 342.28125 72.734375 341.85938Q71.78125 341.4375 71.3125 340.79688Q70.859375 340.15625 70.671875 339.23438Q70.53125 338.60938 70.53125 337.26562L70.53125 329.54688L72.640625 329.54688L72.640625 336.45312Q72.640625 338.10938 72.78125 338.6875Q72.96875 339.51562 73.609375 340.0Q74.265625 340.46875 75.21875 340.46875Q76.15625 340.46875 76.984375 339.98438Q77.828125 339.48438 78.171875 338.65625Q78.515625 337.8125 78.515625 336.21875L78.515625 329.54688L80.625 329.54688L80.625 342.0L78.734375 342.0ZM82.734375 338.28125L84.828125 337.95312Q85.0 339.20312 85.796875 339.875Q86.609375 340.54688 88.046875 340.54688Q89.5 340.54688 90.203125 339.95312Q90.90625 339.35938 90.90625 338.5625Q90.90625 337.84375 90.28125 337.4375Q89.859375 337.15625 88.125 336.71875Q85.8125 336.14062 84.90625 335.71875Q84.015625 335.28125 83.546875 334.53125Q83.09375 333.76562 83.09375 332.85938Q83.09375 332.03125 83.46875 331.32812Q83.859375 330.60938 84.515625 330.14062Q85.0 329.78125 85.84375 329.53125Q86.703125 329.26562 87.671875 329.26562Q89.140625 329.26562 90.25 329.6875Q91.359375 330.10938 91.875 330.84375Q92.40625 331.5625 92.609375 332.76562L90.546875 333.04688Q90.40625 332.07812 89.734375 331.54688Q89.0625 331.0 87.828125 331.0Q86.375 331.0 85.75 331.48438Q85.125 331.96875 85.125 332.60938Q85.125 333.01562 85.390625 333.34375Q85.640625 333.6875 86.203125 333.90625Q86.515625 334.03125 88.0625 334.45312Q90.296875 335.04688 91.171875 335.4375Q92.0625 335.8125 92.5625 336.54688Q93.078125 337.26562 93.078125 338.34375Q93.078125 339.39062 92.453125 340.32812Q91.84375 341.26562 90.6875 341.78125Q89.53125 342.28125 88.0625 342.28125Q85.640625 342.28125 84.359375 341.28125Q83.09375 340.26562 82.734375 338.28125ZM110.65625 342.0L110.65625 340.42188Q109.46875 342.28125 107.171875 342.28125Q105.6875 342.28125 104.4375 341.46875Q103.1875 340.64062 102.5 339.17188Q101.828125 337.70312 101.828125 335.78125Q101.828125 333.92188 102.4375 332.40625Q103.0625 330.89062 104.296875 330.07812Q105.546875 329.26562 107.078125 329.26562Q108.203125 329.26562 109.078125 329.75Q109.96875 330.21875 110.515625 330.98438L110.515625 324.8125L112.609375 324.8125L112.609375 342.0L110.65625 342.0ZM103.984375 335.78125Q103.984375 338.17188 104.984375 339.35938Q106.0 340.54688 107.375 340.54688Q108.765625 340.54688 109.71875 339.42188Q110.6875 338.28125 110.6875 335.96875Q110.6875 333.40625 109.703125 332.21875Q108.71875 331.01562 107.28125 331.01562Q105.875 331.01562 104.921875 332.17188Q103.984375 333.3125 103.984375 335.78125ZM124.109375 337.98438L126.28125 338.26562Q125.765625 340.17188 124.375 341.23438Q122.984375 342.28125 120.8125 342.28125Q118.078125 342.28125 116.46875 340.60938Q114.875 338.92188 114.875 335.875Q114.875 332.73438 116.484375 331.0Q118.109375 329.26562 120.6875 329.26562Q123.1875 329.26562 124.765625 330.96875Q126.359375 332.67188 126.359375 335.75Q126.359375 335.9375 126.34375 336.3125L117.0625 336.3125Q117.171875 338.35938 118.21875 339.45312Q119.265625 340.54688 120.828125 340.54688Q121.984375 340.54688 122.796875 339.9375Q123.625 339.32812 124.109375 337.98438ZM117.171875 334.57812L124.125 334.57812Q123.984375 333.01562 123.328125 332.21875Q122.328125 331.0 120.71875 331.0Q119.265625 331.0 118.265625 331.98438Q117.28125 332.95312 117.171875 334.57812ZM119.609375 328.0L121.15625 324.71875L123.921875 324.71875L121.34375 328.0L119.609375 328.0ZM132.04688 342.0L127.3125 329.54688L129.53125 329.54688L132.20312 337.0Q132.64062 338.21875 133.0 339.51562Q133.28125 338.53125 133.78125 337.14062L136.54688 329.54688L138.71875 329.54688L134.01562 342.0L132.04688 342.0ZM140.59375 327.25L140.59375 324.8125L142.70312 324.8125L142.70312 327.25L140.59375 327.25ZM140.59375 342.0L140.59375 329.54688L142.70312 329.54688L142.70312 342.0L140.59375 342.0ZM154.10938 337.98438L156.28125 338.26562Q155.76562 340.17188 154.375 341.23438Q152.98438 342.28125 150.8125 342.28125Q148.07812 342.28125 146.46875 340.60938Q144.875 338.92188 144.875 335.875Q144.875 332.73438 146.48438 331.0Q148.10938 329.26562 150.6875 329.26562Q153.1875 329.26562 154.76562 330.96875Q156.35938 332.67188 156.35938 335.75Q156.35938 335.9375 156.34375 336.3125L147.0625 336.3125Q147.17188 338.35938 148.21875 339.45312Q149.26562 340.54688 150.82812 340.54688Q151.98438 340.54688 152.79688 339.9375Q153.625 339.32812 154.10938 337.98438ZM147.17188 334.57812L154.125 334.57812Q153.98438 333.01562 153.32812 332.21875Q152.32812 331.0 150.71875 331.0Q149.26562 331.0 148.26562 331.98438Q147.28125 332.95312 147.17188 334.57812ZM157.46875 342.0L157.46875 340.28125L165.39062 331.1875Q164.04688 331.26562 163.01562 331.26562L157.9375 331.26562L157.9375 329.54688L168.10938 329.54688L168.10938 330.95312L161.375 338.84375L160.07812 340.28125Q161.48438 340.1875 162.73438 340.1875L168.48438 340.1875L168.48438 342.0L157.46875 342.0ZM177.53125 342.0L177.53125 324.8125L179.64062 324.8125L179.64062 342.0L177.53125 342.0ZM191.10938 337.98438L193.28125 338.26562Q192.76562 340.17188 191.375 341.23438Q189.98438 342.28125 187.8125 342.28125Q185.07812 342.28125 183.46875 340.60938Q181.875 338.92188 181.875 335.875Q181.875 332.73438 183.48438 331.0Q185.10938 329.26562 187.6875 329.26562Q190.1875 329.26562 191.76562 330.96875Q193.35938 332.67188 193.35938 335.75Q193.35938 335.9375 193.34375 336.3125L184.0625 336.3125Q184.17188 338.35938 185.21875 339.45312Q186.26562 340.54688 187.82812 340.54688Q188.98438 340.54688 189.79688 339.9375Q190.625 339.32812 191.10938 337.98438ZM184.17188 334.57812L191.125 334.57812Q190.98438 333.01562 190.32812 332.21875Q189.32812 331.0 187.71875 331.0Q186.26562 331.0 185.26562 331.98438Q184.28125 332.95312 184.17188 334.57812ZM207.1875 340.10938L207.5 341.96875Q206.60938 342.17188 205.90625 342.17188Q204.75 342.17188 204.10938 341.8125Q203.48438 341.4375 203.21875 340.84375Q202.96875 340.25 202.96875 338.35938L202.96875 331.1875L201.42188 331.1875L201.42188 329.54688L202.96875 329.54688L202.96875 326.46875L205.0625 325.20312L205.0625 329.54688L207.1875 329.54688L207.1875 331.1875L205.0625 331.1875L205.0625 338.46875Q205.0625 339.375 205.17188 339.64062Q205.29688 339.89062 205.54688 340.04688Q205.79688 340.1875 206.26562 340.1875Q206.60938 340.1875 207.1875 340.10938ZM209.5625 342.0L209.5625 329.54688L211.45312 329.54688L211.45312 331.4375Q212.1875 330.10938 212.79688 329.6875Q213.42188 329.26562 214.15625 329.26562Q215.21875 329.26562 216.32812 329.95312L215.59375 331.90625Q214.82812 331.45312 214.04688 331.45312Q213.35938 331.45312 212.79688 331.875Q212.25 332.28125 212.01562 333.01562Q211.67188 334.14062 211.67188 335.48438L211.67188 342.0L209.5625 342.0ZM225.70312 340.46875Q224.53125 341.45312 223.4375 341.875Q222.35938 342.28125 221.125 342.28125Q219.07812 342.28125 217.96875 341.28125Q216.875 340.28125 216.875 338.71875Q216.875 337.79688 217.28125 337.04688Q217.70312 336.29688 218.375 335.84375Q219.04688 335.375 219.89062 335.14062Q220.51562 334.98438 221.76562 334.82812Q224.32812 334.51562 225.53125 334.09375Q225.54688 333.67188 225.54688 333.54688Q225.54688 332.26562 224.9375 331.73438Q224.14062 331.01562 222.54688 331.01562Q221.04688 331.01562 220.34375 331.54688Q219.64062 332.0625 219.29688 333.39062L217.23438 333.10938Q217.51562 331.78125 218.15625 330.96875Q218.79688 330.15625 220.01562 329.71875Q221.23438 329.26562 222.84375 329.26562Q224.4375 329.26562 225.4375 329.64062Q226.4375 330.01562 226.90625 330.59375Q227.375 331.15625 227.5625 332.03125Q227.65625 332.5625 227.65625 333.96875L227.65625 336.78125Q227.65625 339.71875 227.79688 340.5Q227.9375 341.28125 228.32812 342.0L226.125 342.0Q225.79688 341.34375 225.70312 340.46875ZM225.53125 335.75Q224.375 336.21875 222.07812 336.54688Q220.78125 336.73438 220.23438 336.96875Q219.70312 337.20312 219.40625 337.65625Q219.125 338.10938 219.125 338.65625Q219.125 339.5 219.75 340.0625Q220.39062 340.625 221.625 340.625Q222.84375 340.625 223.79688 340.09375Q224.75 339.5625 225.1875 338.64062Q225.53125 337.92188 225.53125 336.53125L225.53125 335.75ZM230.59375 327.25L230.59375 324.8125L232.70312 324.8125L232.70312 327.25L230.59375 327.25ZM230.59375 342.0L230.59375 329.54688L232.70312 329.54688L232.70312 342.0L230.59375 342.0ZM235.57812 342.0L235.57812 329.54688L237.48438 329.54688L237.48438 331.32812Q238.85938 329.26562 241.4375 329.26562Q242.5625 329.26562 243.5 329.67188Q244.45312 330.07812 244.92188 330.73438Q245.39062 331.39062 245.57812 332.29688Q245.70312 332.875 245.70312 334.34375L245.70312 342.0L243.59375 342.0L243.59375 334.42188Q243.59375 333.14062 243.34375 332.5Q243.09375 331.85938 242.46875 331.48438Q241.84375 331.09375 241.0 331.09375Q239.65625 331.09375 238.67188 331.95312Q237.6875 332.8125 237.6875 335.20312L237.6875 342.0L235.57812 342.0ZM249.14062 342.0L249.14062 339.59375L251.53125 339.59375L251.53125 342.0Q251.53125 343.32812 251.0625 344.14062Q250.59375 344.95312 249.57812 345.40625L249.0 344.5Q249.65625 344.20312 249.96875 343.625Q250.29688 343.0625 250.32812 342.0L249.14062 342.0ZM270.73438 342.0L270.73438 340.17188Q269.28125 342.28125 266.79688 342.28125Q265.6875 342.28125 264.73438 341.85938Q263.78125 341.4375 263.3125 340.79688Q262.85938 340.15625 262.67188 339.23438Q262.53125 338.60938 262.53125 337.26562L262.53125 329.54688L264.64062 329.54688L264.64062 336.45312Q264.64062 338.10938 264.78125 338.6875Q264.96875 339.51562 265.60938 340.0Q266.26562 340.46875 267.21875 340.46875Q268.15625 340.46875 268.98438 339.98438Q269.82812 339.48438 270.17188 338.65625Q270.51562 337.8125 270.51562 336.21875L270.51562 329.54688L272.625 329.54688L272.625 342.0L270.73438 342.0ZM275.57812 342.0L275.57812 329.54688L277.48438 329.54688L277.48438 331.32812Q278.85938 329.26562 281.4375 329.26562Q282.5625 329.26562 283.5 329.67188Q284.45312 330.07812 284.92188 330.73438Q285.39062 331.39062 285.57812 332.29688Q285.70312 332.875 285.70312 334.34375L285.70312 342.0L283.59375 342.0L283.59375 334.42188Q283.59375 333.14062 283.34375 332.5Q283.09375 331.85938 282.46875 331.48438Q281.84375 331.09375 281.0 331.09375Q279.65625 331.09375 278.67188 331.95312Q277.6875 332.8125 277.6875 335.20312L277.6875 342.0L275.57812 342.0ZM297.10938 337.98438L299.28125 338.26562Q298.76562 340.17188 297.375 341.23438Q295.98438 342.28125 293.8125 342.28125Q291.07812 342.28125 289.46875 340.60938Q287.875 338.92188 287.875 335.875Q287.875 332.73438 289.48438 331.0Q291.10938 329.26562 293.6875 329.26562Q296.1875 329.26562 297.76562 330.96875Q299.35938 332.67188 299.35938 335.75Q299.35938 335.9375 299.34375 336.3125L290.0625 336.3125Q290.17188 338.35938 291.21875 339.45312Q292.26562 340.54688 293.82812 340.54688Q294.98438 340.54688 295.79688 339.9375Q296.625 339.32812 297.10938 337.98438ZM290.17188 334.57812L297.125 334.57812Q296.98438 333.01562 296.32812 332.21875Q295.32812 331.0 293.71875 331.0Q292.26562 331.0 291.26562 331.98438Q290.28125 332.95312 290.17188 334.57812ZM308.57812 346.76562L308.57812 329.54688L310.5 329.54688L310.5 331.17188Q311.1875 330.21875 312.03125 329.75Q312.89062 329.26562 314.10938 329.26562Q315.70312 329.26562 316.92188 330.09375Q318.14062 330.90625 318.76562 332.40625Q319.39062 333.90625 319.39062 335.6875Q319.39062 337.59375 318.70312 339.125Q318.01562 340.65625 316.70312 341.46875Q315.40625 342.28125 313.96875 342.28125Q312.90625 342.28125 312.0625 341.84375Q311.23438 341.39062 310.6875 340.70312L310.6875 346.76562L308.57812 346.76562ZM310.5 335.84375Q310.5 338.25 311.46875 339.40625Q312.4375 340.54688 313.82812 340.54688Q315.23438 340.54688 316.23438 339.35938Q317.23438 338.17188 317.23438 335.67188Q317.23438 333.29688 316.25 332.10938Q315.28125 330.92188 313.92188 330.92188Q312.5625 330.92188 311.53125 332.1875Q310.5 333.4375 310.5 335.84375ZM330.10938 337.98438L332.28125 338.26562Q331.76562 340.17188 330.375 341.23438Q328.98438 342.28125 326.8125 342.28125Q324.07812 342.28125 322.46875 340.60938Q320.875 338.92188 320.875 335.875Q320.875 332.73438 322.48438 331.0Q324.10938 329.26562 326.6875 329.26562Q329.1875 329.26562 330.76562 330.96875Q332.35938 332.67188 332.35938 335.75Q332.35938 335.9375 332.34375 336.3125L323.0625 336.3125Q323.17188 338.35938 324.21875 339.45312Q325.26562 340.54688 326.82812 340.54688Q327.98438 340.54688 328.79688 339.9375Q329.625 339.32812 330.10938 337.98438ZM323.17188 334.57812L330.125 334.57812Q329.98438 333.01562 329.32812 332.21875Q328.32812 331.0 326.71875 331.0Q325.26562 331.0 324.26562 331.98438Q323.28125 332.95312 323.17188 334.57812ZM334.5625 342.0L334.5625 329.54688L336.45312 329.54688L336.45312 331.4375Q337.1875 330.10938 337.79688 329.6875Q338.42188 329.26562 339.15625 329.26562Q340.21875 329.26562 341.32812 329.95312L340.59375 331.90625Q339.82812 331.45312 339.04688 331.45312Q338.35938 331.45312 337.79688 331.875Q337.25 332.28125 337.01562 333.01562Q336.67188 334.14062 336.67188 335.48438L336.67188 342.0L334.5625 342.0ZM341.73438 338.28125L343.82812 337.95312Q344.0 339.20312 344.79688 339.875Q345.60938 340.54688 347.04688 340.54688Q348.5 340.54688 349.20312 339.95312Q349.90625 339.35938 349.90625 338.5625Q349.90625 337.84375 349.28125 337.4375Q348.85938 337.15625 347.125 336.71875Q344.8125 336.14062 343.90625 335.71875Q343.01562 335.28125 342.54688 334.53125Q342.09375 333.76562 342.09375 332.85938Q342.09375 332.03125 342.46875 331.32812Q342.85938 330.60938 343.51562 330.14062Q344.0 329.78125 344.84375 329.53125Q345.70312 329.26562 346.67188 329.26562Q348.14062 329.26562 349.25 329.6875Q350.35938 330.10938 350.875 330.84375Q351.40625 331.5625 351.60938 332.76562L349.54688 333.04688Q349.40625 332.07812 348.73438 331.54688Q348.0625 331.0 346.82812 331.0Q345.375 331.0 344.75 331.48438Q344.125 331.96875 344.125 332.60938Q344.125 333.01562 344.39062 333.34375Q344.64062 333.6875 345.20312 333.90625Q345.51562 334.03125 347.0625 334.45312Q349.29688 335.04688 350.17188 335.4375Q351.0625 335.8125 351.5625 336.54688Q352.07812 337.26562 352.07812 338.34375Q352.07812 339.39062 351.45312 340.32812Q350.84375 341.26562 349.6875 341.78125Q348.53125 342.28125 347.0625 342.28125Q344.64062 342.28125 343.35938 341.28125Q342.09375 340.26562 341.73438 338.28125ZM353.79688 335.78125Q353.79688 332.3125 355.71875 330.65625Q357.32812 329.26562 359.64062 329.26562Q362.20312 329.26562 363.82812 330.95312Q365.45312 332.64062 365.45312 335.59375Q365.45312 338.0 364.73438 339.375Q364.01562 340.75 362.64062 341.51562Q361.26562 342.28125 359.64062 342.28125Q357.01562 342.28125 355.40625 340.60938Q353.79688 338.92188 353.79688 335.78125ZM355.96875 335.78125Q355.96875 338.17188 357.0 339.35938Q358.04688 340.54688 359.64062 340.54688Q361.20312 340.54688 362.25 339.35938Q363.29688 338.15625 363.29688 335.70312Q363.29688 333.39062 362.23438 332.20312Q361.1875 331.01562 359.64062 331.01562Q358.04688 331.01562 357.0 332.20312Q355.96875 333.39062 355.96875 335.78125ZM367.57812 342.0L367.57812 329.54688L369.48438 329.54688L369.48438 331.32812Q370.85938 329.26562 373.4375 329.26562Q374.5625 329.26562 375.5 329.67188Q376.45312 330.07812 376.92188 330.73438Q377.39062 331.39062 377.57812 332.29688Q377.70312 332.875 377.70312 334.34375L377.70312 342.0L375.59375 342.0L375.59375 334.42188Q375.59375 333.14062 375.34375 332.5Q375.09375 331.85938 374.46875 331.48438Q373.84375 331.09375 373.0 331.09375Q371.65625 331.09375 370.67188 331.95312Q369.6875 332.8125 369.6875 335.20312L369.6875 342.0L367.57812 342.0ZM380.57812 342.0L380.57812 329.54688L382.48438 329.54688L382.48438 331.32812Q383.85938 329.26562 386.4375 329.26562Q387.5625 329.26562 388.5 329.67188Q389.45312 330.07812 389.92188 330.73438Q390.39062 331.39062 390.57812 332.29688Q390.70312 332.875 390.70312 334.34375L390.70312 342.0L388.59375 342.0L388.59375 334.42188Q388.59375 333.14062 388.34375 332.5Q388.09375 331.85938 387.46875 331.48438Q386.84375 331.09375 386.0 331.09375Q384.65625 331.09375 383.67188 331.95312Q382.6875 332.8125 382.6875 335.20312L382.6875 342.0L380.57812 342.0ZM402.10938 337.98438L404.28125 338.26562Q403.76562 340.17188 402.375 341.23438Q400.98438 342.28125 398.8125 342.28125Q396.07812 342.28125 394.46875 340.60938Q392.875 338.92188 392.875 335.875Q392.875 332.73438 394.48438 331.0Q396.10938 329.26562 398.6875 329.26562Q401.1875 329.26562 402.76562 330.96875Q404.35938 332.67188 404.35938 335.75Q404.35938 335.9375 404.34375 336.3125L395.0625 336.3125Q395.17188 338.35938 396.21875 339.45312Q397.26562 340.54688 398.82812 340.54688Q399.98438 340.54688 400.79688 339.9375Q401.625 339.32812 402.10938 337.98438ZM395.17188 334.57812L402.125 334.57812Q401.98438 333.01562 401.32812 332.21875Q400.32812 331.0 398.71875 331.0Q397.26562 331.0 396.26562 331.98438Q395.28125 332.95312 395.17188 334.57812ZM413.57812 342.0L413.57812 329.54688L415.46875 329.54688L415.46875 331.29688Q416.0625 330.39062 417.03125 329.82812Q418.0 329.26562 419.25 329.26562Q420.625 329.26562 421.5 329.84375Q422.39062 330.42188 422.76562 331.45312Q424.23438 329.26562 426.60938 329.26562Q428.45312 329.26562 429.45312 330.29688Q430.45312 331.32812 430.45312 333.45312L430.45312 342.0L428.34375 342.0L428.34375 334.15625Q428.34375 332.89062 428.14062 332.34375Q427.9375 331.78125 427.39062 331.4375Q426.85938 331.09375 426.14062 331.09375Q424.82812 331.09375 423.95312 331.96875Q423.09375 332.84375 423.09375 334.76562L423.09375 342.0L420.98438 342.0L420.98438 333.90625Q420.98438 332.5 420.46875 331.79688Q419.95312 331.09375 418.78125 331.09375Q417.89062 331.09375 417.125 331.5625Q416.375 332.03125 416.03125 332.9375Q415.6875 333.84375 415.6875 335.54688L415.6875 342.0L413.57812 342.0ZM442.10938 337.98438L444.28125 338.26562Q443.76562 340.17188 442.375 341.23438Q440.98438 342.28125 438.8125 342.28125Q436.07812 342.28125 434.46875 340.60938Q432.875 338.92188 432.875 335.875Q432.875 332.73438 434.48438 331.0Q436.10938 329.26562 438.6875 329.26562Q441.1875 329.26562 442.76562 330.96875Q444.35938 332.67188 444.35938 335.75Q444.35938 335.9375 444.34375 336.3125L435.0625 336.3125Q435.17188 338.35938 436.21875 339.45312Q437.26562 340.54688 438.82812 340.54688Q439.98438 340.54688 440.79688 339.9375Q441.625 339.32812 442.10938 337.98438ZM435.17188 334.57812L442.125 334.57812Q441.98438 333.01562 441.32812 332.21875Q440.32812 331.0 438.71875 331.0Q437.26562 331.0 436.26562 331.98438Q435.28125 332.95312 435.17188 334.57812ZM454.73438 342.0L454.73438 340.17188Q453.28125 342.28125 450.79688 342.28125Q449.6875 342.28125 448.73438 341.85938Q447.78125 341.4375 447.3125 340.79688Q446.85938 340.15625 446.67188 339.23438Q446.53125 338.60938 446.53125 337.26562L446.53125 329.54688L448.64062 329.54688L448.64062 336.45312Q448.64062 338.10938 448.78125 338.6875Q448.96875 339.51562 449.60938 340.0Q450.26562 340.46875 451.21875 340.46875Q452.15625 340.46875 452.98438 339.98438Q453.82812 339.48438 454.17188 338.65625Q454.51562 337.8125 454.51562 336.21875L454.51562 329.54688L456.625 329.54688L456.625 342.0L454.73438 342.0ZM459.5625 342.0L459.5625 329.54688L461.45312 329.54688L461.45312 331.4375Q462.1875 330.10938 462.79688 329.6875Q463.42188 329.26562 464.15625 329.26562Q465.21875 329.26562 466.32812 329.95312L465.59375 331.90625Q464.82812 331.45312 464.04688 331.45312Q463.35938 331.45312 462.79688 331.875Q462.25 332.28125 462.01562 333.01562Q461.67188 334.14062 461.67188 335.48438L461.67188 342.0L459.5625 342.0ZM472.1875 340.10938L472.5 341.96875Q471.60938 342.17188 470.90625 342.17188Q469.75 342.17188 469.10938 341.8125Q468.48438 341.4375 468.21875 340.84375Q467.96875 340.25 467.96875 338.35938L467.96875 331.1875L466.42188 331.1875L466.42188 329.54688L467.96875 329.54688L467.96875 326.46875L470.0625 325.20312L470.0625 329.54688L472.1875 329.54688L472.1875 331.1875L470.0625 331.1875L470.0625 338.46875Q470.0625 339.375 470.17188 339.64062Q470.29688 339.89062 470.54688 340.04688Q470.79688 340.1875 471.26562 340.1875Q471.60938 340.1875 472.1875 340.10938Z" fill-rule="nonzero"/><path fill="#ea4335" d="M38.0 366.0C38.0 369.31372 35.31371 372.0 32.0 372.0C28.68629 372.0 26.0 369.31372 26.0 366.0C26.0 362.68628 28.68629 360.0 32.0 360.0C35.31371 360.0 38.0 362.68628 38.0 366.0Z" fill-rule="nonzero"/><path fill="#1a1a1a" d="M52.765625 374.0L46.109375 356.8125L48.5625 356.8125L53.03125 369.29688Q53.578125 370.79688 53.9375 372.10938Q54.328125 370.70312 54.859375 369.29688L59.5 356.8125L61.828125 356.8125L55.09375 374.0L52.765625 374.0ZM62.796875 367.78125Q62.796875 364.3125 64.71875 362.65625Q66.328125 361.26562 68.640625 361.26562Q71.203125 361.26562 72.828125 362.95312Q74.453125 364.64062 74.453125 367.59375Q74.453125 370.0 73.734375 371.375Q73.015625 372.75 71.640625 373.51562Q70.265625 374.28125 68.640625 374.28125Q66.015625 374.28125 64.40625 372.60938Q62.796875 370.92188 62.796875 367.78125ZM64.96875 367.78125Q64.96875 370.17188 66.0 371.35938Q67.046875 372.54688 68.640625 372.54688Q70.203125 372.54688 71.25 371.35938Q72.296875 370.15625 72.296875 367.70312Q72.296875 365.39062 71.234375 364.20312Q70.1875 363.01562 68.640625 363.01562Q67.046875 363.01562 66.0 364.20312Q64.96875 365.39062 64.96875 367.78125ZM84.734375 374.0L84.734375 372.17188Q83.28125 374.28125 80.796875 374.28125Q79.6875 374.28125 78.734375 373.85938Q77.78125 373.4375 77.3125 372.79688Q76.859375 372.15625 76.671875 371.23438Q76.53125 370.60938 76.53125 369.26562L76.53125 361.54688L78.640625 361.54688L78.640625 368.45312Q78.640625 370.10938 78.78125 370.6875Q78.96875 371.51562 79.609375 372.0Q80.265625 372.46875 81.21875 372.46875Q82.15625 372.46875 82.984375 371.98438Q83.828125 371.48438 84.171875 370.65625Q84.515625 369.8125 84.515625 368.21875L84.515625 361.54688L86.625 361.54688L86.625 374.0L84.734375 374.0ZM88.734375 370.28125L90.828125 369.95312Q91.0 371.20312 91.796875 371.875Q92.609375 372.54688 94.046875 372.54688Q95.5 372.54688 96.203125 371.95312Q96.90625 371.35938 96.90625 370.5625Q96.90625 369.84375 96.28125 369.4375Q95.859375 369.15625 94.125 368.71875Q91.8125 368.14062 90.90625 367.71875Q90.015625 367.28125 89.546875 366.53125Q89.09375 365.76562 89.09375 364.85938Q89.09375 364.03125 89.46875 363.32812Q89.859375 362.60938 90.515625 362.14062Q91.0 361.78125 91.84375 361.53125Q92.703125 361.26562 93.671875 361.26562Q95.140625 361.26562 96.25 361.6875Q97.359375 362.10938 97.875 362.84375Q98.40625 363.5625 98.609375 364.76562L96.546875 365.04688Q96.40625 364.07812 95.734375 363.54688Q95.0625 363.0 93.828125 363.0Q92.375 363.0 91.75 363.48438Q91.125 363.96875 91.125 364.60938Q91.125 365.01562 91.390625 365.34375Q91.640625 365.6875 92.203125 365.90625Q92.515625 366.03125 94.0625 366.45312Q96.296875 367.04688 97.171875 367.4375Q98.0625 367.8125 98.5625 368.54688Q99.078125 369.26562 99.078125 370.34375Q99.078125 371.39062 98.453125 372.32812Q97.84375 373.26562 96.6875 373.78125Q95.53125 374.28125 94.0625 374.28125Q91.640625 374.28125 90.359375 373.28125Q89.09375 372.26562 88.734375 370.28125ZM108.578125 374.0L108.578125 361.54688L110.484375 361.54688L110.484375 363.32812Q111.859375 361.26562 114.4375 361.26562Q115.5625 361.26562 116.5 361.67188Q117.453125 362.07812 117.921875 362.73438Q118.390625 363.39062 118.578125 364.29688Q118.703125 364.875 118.703125 366.34375L118.703125 374.0L116.59375 374.0L116.59375 366.42188Q116.59375 365.14062 116.34375 364.5Q116.09375 363.85938 115.46875 363.48438Q114.84375 363.09375 114.0 363.09375Q112.65625 363.09375 111.671875 363.95312Q110.6875 364.8125 110.6875 367.20312L110.6875 374.0L108.578125 374.0ZM130.10938 369.98438L132.28125 370.26562Q131.76562 372.17188 130.375 373.23438Q128.98438 374.28125 126.8125 374.28125Q124.078125 374.28125 122.46875 372.60938Q120.875 370.92188 120.875 367.875Q120.875 364.73438 122.484375 363.0Q124.109375 361.26562 126.6875 361.26562Q129.1875 361.26562 130.76562 362.96875Q132.35938 364.67188 132.35938 367.75Q132.35938 367.9375 132.34375 368.3125L123.0625 368.3125Q123.171875 370.35938 124.21875 371.45312Q125.265625 372.54688 126.828125 372.54688Q127.984375 372.54688 128.79688 371.9375Q129.625 371.32812 130.10938 369.98438ZM123.171875 366.57812L130.125 366.57812Q129.98438 365.01562 129.32812 364.21875Q128.32812 363.0 126.71875 363.0Q125.265625 363.0 124.265625 363.98438Q123.28125 364.95312 123.171875 366.57812ZM149.65625 374.0L149.65625 372.42188Q148.46875 374.28125 146.17188 374.28125Q144.6875 374.28125 143.4375 373.46875Q142.1875 372.64062 141.5 371.17188Q140.82812 369.70312 140.82812 367.78125Q140.82812 365.92188 141.4375 364.40625Q142.0625 362.89062 143.29688 362.07812Q144.54688 361.26562 146.07812 361.26562Q147.20312 361.26562 148.07812 361.75Q148.96875 362.21875 149.51562 362.98438L149.51562 356.8125L151.60938 356.8125L151.60938 374.0L149.65625 374.0ZM142.98438 367.78125Q142.98438 370.17188 143.98438 371.35938Q145.0 372.54688 146.375 372.54688Q147.76562 372.54688 148.71875 371.42188Q149.6875 370.28125 149.6875 367.96875Q149.6875 365.40625 148.70312 364.21875Q147.71875 363.01562 146.28125 363.01562Q144.875 363.01562 143.92188 364.17188Q142.98438 365.3125 142.98438 367.78125ZM163.10938 369.98438L165.28125 370.26562Q164.76562 372.17188 163.375 373.23438Q161.98438 374.28125 159.8125 374.28125Q157.07812 374.28125 155.46875 372.60938Q153.875 370.92188 153.875 367.875Q153.875 364.73438 155.48438 363.0Q157.10938 361.26562 159.6875 361.26562Q162.1875 361.26562 163.76562 362.96875Q165.35938 364.67188 165.35938 367.75Q165.35938 367.9375 165.34375 368.3125L156.0625 368.3125Q156.17188 370.35938 157.21875 371.45312Q158.26562 372.54688 159.82812 372.54688Q160.98438 372.54688 161.79688 371.9375Q162.625 371.32812 163.10938 369.98438ZM156.17188 366.57812L163.125 366.57812Q162.98438 365.01562 162.32812 364.21875Q161.32812 363.0 159.71875 363.0Q158.26562 363.0 157.26562 363.98438Q156.28125 364.95312 156.17188 366.57812ZM158.60938 360.0L160.15625 356.71875L162.92188 356.71875L160.34375 360.0L158.60938 360.0ZM171.04688 374.0L166.3125 361.54688L168.53125 361.54688L171.20312 369.0Q171.64062 370.21875 172.0 371.51562Q172.28125 370.53125 172.78125 369.14062L175.54688 361.54688L177.71875 361.54688L173.01562 374.0L171.04688 374.0ZM179.59375 359.25L179.59375 356.8125L181.70312 356.8125L181.70312 359.25L179.59375 359.25ZM179.59375 374.0L179.59375 361.54688L181.70312 361.54688L181.70312 374.0L179.59375 374.0ZM193.10938 369.98438L195.28125 370.26562Q194.76562 372.17188 193.375 373.23438Q191.98438 374.28125 189.8125 374.28125Q187.07812 374.28125 185.46875 372.60938Q183.875 370.92188 183.875 367.875Q183.875 364.73438 185.48438 363.0Q187.10938 361.26562 189.6875 361.26562Q192.1875 361.26562 193.76562 362.96875Q195.35938 364.67188 195.35938 367.75Q195.35938 367.9375 195.34375 368.3125L186.0625 368.3125Q186.17188 370.35938 187.21875 371.45312Q188.26562 372.54688 189.82812 372.54688Q190.98438 372.54688 191.79688 371.9375Q192.625 371.32812 193.10938 369.98438ZM186.17188 366.57812L193.125 366.57812Q192.98438 365.01562 192.32812 364.21875Q191.32812 363.0 189.71875 363.0Q188.26562 363.0 187.26562 363.98438Q186.28125 364.95312 186.17188 366.57812ZM196.46875 374.0L196.46875 372.28125L204.39062 363.1875Q203.04688 363.26562 202.01562 363.26562L196.9375 363.26562L196.9375 361.54688L207.10938 361.54688L207.10938 362.95312L200.375 370.84375L199.07812 372.28125Q200.48438 372.1875 201.73438 372.1875L207.48438 372.1875L207.48438 374.0L196.46875 374.0ZM216.57812 378.76562L216.57812 361.54688L218.5 361.54688L218.5 363.17188Q219.1875 362.21875 220.03125 361.75Q220.89062 361.26562 222.10938 361.26562Q223.70312 361.26562 224.92188 362.09375Q226.14062 362.90625 226.76562 364.40625Q227.39062 365.90625 227.39062 367.6875Q227.39062 369.59375 226.70312 371.125Q226.01562 372.65625 224.70312 373.46875Q223.40625 374.28125 221.96875 374.28125Q220.90625 374.28125 220.0625 373.84375Q219.23438 373.39062 218.6875 372.70312L218.6875 378.76562L216.57812 378.76562ZM218.5 367.84375Q218.5 370.25 219.46875 371.40625Q220.4375 372.54688 221.82812 372.54688Q223.23438 372.54688 224.23438 371.35938Q225.23438 370.17188 225.23438 367.67188Q225.23438 365.29688 224.25 364.10938Q223.28125 362.92188 221.92188 362.92188Q220.5625 362.92188 219.53125 364.1875Q218.5 365.4375 218.5 367.84375ZM237.70312 372.46875Q236.53125 373.45312 235.4375 373.875Q234.35938 374.28125 233.125 374.28125Q231.07812 374.28125 229.96875 373.28125Q228.875 372.28125 228.875 370.71875Q228.875 369.79688 229.28125 369.04688Q229.70312 368.29688 230.375 367.84375Q231.04688 367.375 231.89062 367.14062Q232.51562 366.98438 233.76562 366.82812Q236.32812 366.51562 237.53125 366.09375Q237.54688 365.67188 237.54688 365.54688Q237.54688 364.26562 236.9375 363.73438Q236.14062 363.01562 234.54688 363.01562Q233.04688 363.01562 232.34375 363.54688Q231.64062 364.0625 231.29688 365.39062L229.23438 365.10938Q229.51562 363.78125 230.15625 362.96875Q230.79688 362.15625 232.01562 361.71875Q233.23438 361.26562 234.84375 361.26562Q236.4375 361.26562 237.4375 361.64062Q238.4375 362.01562 238.90625 362.59375Q239.375 363.15625 239.5625 364.03125Q239.65625 364.5625 239.65625 365.96875L239.65625 368.78125Q239.65625 371.71875 239.79688 372.5Q239.9375 373.28125 240.32812 374.0L238.125 374.0Q237.79688 373.34375 237.70312 372.46875ZM237.53125 367.75Q236.375 368.21875 234.07812 368.54688Q232.78125 368.73438 232.23438 368.96875Q231.70312 369.20312 231.40625 369.65625Q231.125 370.10938 231.125 370.65625Q231.125 371.5 231.75 372.0625Q232.39062 372.625 233.625 372.625Q234.84375 372.625 235.79688 372.09375Q236.75 371.5625 237.1875 370.64062Q237.53125 369.92188 237.53125 368.53125L237.53125 367.75ZM241.73438 370.28125L243.82812 369.95312Q244.0 371.20312 244.79688 371.875Q245.60938 372.54688 247.04688 372.54688Q248.5 372.54688 249.20312 371.95312Q249.90625 371.35938 249.90625 370.5625Q249.90625 369.84375 249.28125 369.4375Q248.85938 369.15625 247.125 368.71875Q244.8125 368.14062 243.90625 367.71875Q243.01562 367.28125 242.54688 366.53125Q242.09375 365.76562 242.09375 364.85938Q242.09375 364.03125 242.46875 363.32812Q242.85938 362.60938 243.51562 362.14062Q244.0 361.78125 244.84375 361.53125Q245.70312 361.26562 246.67188 361.26562Q248.14062 361.26562 249.25 361.6875Q250.35938 362.10938 250.875 362.84375Q251.40625 363.5625 251.60938 364.76562L249.54688 365.04688Q249.40625 364.07812 248.73438 363.54688Q248.0625 363.0 246.82812 363.0Q245.375 363.0 244.75 363.48438Q244.125 363.96875 244.125 364.60938Q244.125 365.01562 244.39062 365.34375Q244.64062 365.6875 245.20312 365.90625Q245.51562 366.03125 247.0625 366.45312Q249.29688 367.04688 250.17188 367.4375Q251.0625 367.8125 251.5625 368.54688Q252.07812 369.26562 252.07812 370.34375Q252.07812 371.39062 251.45312 372.32812Q250.84375 373.26562 249.6875 373.78125Q248.53125 374.28125 247.0625 374.28125Q244.64062 374.28125 243.35938 373.28125Q242.09375 372.26562 241.73438 370.28125ZM261.53125 374.0L261.53125 356.8125L263.64062 356.8125L263.64062 374.0L261.53125 374.0ZM275.10938 369.98438L277.28125 370.26562Q276.76562 372.17188 275.375 373.23438Q273.98438 374.28125 271.8125 374.28125Q269.07812 374.28125 267.46875 372.60938Q265.875 370.92188 265.875 367.875Q265.875 364.73438 267.48438 363.0Q269.10938 361.26562 271.6875 361.26562Q274.1875 361.26562 275.76562 362.96875Q277.35938 364.67188 277.35938 367.75Q277.35938 367.9375 277.34375 368.3125L268.0625 368.3125Q268.17188 370.35938 269.21875 371.45312Q270.26562 372.54688 271.82812 372.54688Q272.98438 372.54688 273.79688 371.9375Q274.625 371.32812 275.10938 369.98438ZM268.17188 366.57812L275.125 366.57812Q274.98438 365.01562 274.32812 364.21875Q273.32812 363.0 271.71875 363.0Q270.26562 363.0 269.26562 363.98438Q268.28125 364.95312 268.17188 366.57812ZM291.1875 372.10938L291.5 373.96875Q290.60938 374.17188 289.90625 374.17188Q288.75 374.17188 288.10938 373.8125Q287.48438 373.4375 287.21875 372.84375Q286.96875 372.25 286.96875 370.35938L286.96875 363.1875L285.42188 363.1875L285.42188 361.54688L286.96875 361.54688L286.96875 358.46875L289.0625 357.20312L289.0625 361.54688L291.1875 361.54688L291.1875 363.1875L289.0625 363.1875L289.0625 370.46875Q289.0625 371.375 289.17188 371.64062Q289.29688 371.89062 289.54688 372.04688Q289.79688 372.1875 290.26562 372.1875Q290.60938 372.1875 291.1875 372.10938ZM293.5625 374.0L293.5625 361.54688L295.45312 361.54688L295.45312 363.4375Q296.1875 362.10938 296.79688 361.6875Q297.42188 361.26562 298.15625 361.26562Q299.21875 361.26562 300.32812 361.95312L299.59375 363.90625Q298.82812 363.45312 298.04688 363.45312Q297.35938 363.45312 296.79688 363.875Q296.25 364.28125 296.01562 365.01562Q295.67188 366.14062 295.67188 367.48438L295.67188 374.0L293.5625 374.0ZM309.70312 372.46875Q308.53125 373.45312 307.4375 373.875Q306.35938 374.28125 305.125 374.28125Q303.07812 374.28125 301.96875 373.28125Q300.875 372.28125 300.875 370.71875Q300.875 369.79688 301.28125 369.04688Q301.70312 368.29688 302.375 367.84375Q303.04688 367.375 303.89062 367.14062Q304.51562 366.98438 305.76562 366.82812Q308.32812 366.51562 309.53125 366.09375Q309.54688 365.67188 309.54688 365.54688Q309.54688 364.26562 308.9375 363.73438Q308.14062 363.01562 306.54688 363.01562Q305.04688 363.01562 304.34375 363.54688Q303.64062 364.0625 303.29688 365.39062L301.23438 365.10938Q301.51562 363.78125 302.15625 362.96875Q302.79688 362.15625 304.01562 361.71875Q305.23438 361.26562 306.84375 361.26562Q308.4375 361.26562 309.4375 361.64062Q310.4375 362.01562 310.90625 362.59375Q311.375 363.15625 311.5625 364.03125Q311.65625 364.5625 311.65625 365.96875L311.65625 368.78125Q311.65625 371.71875 311.79688 372.5Q311.9375 373.28125 312.32812 374.0L310.125 374.0Q309.79688 373.34375 309.70312 372.46875ZM309.53125 367.75Q308.375 368.21875 306.07812 368.54688Q304.78125 368.73438 304.23438 368.96875Q303.70312 369.20312 303.40625 369.65625Q303.125 370.10938 303.125 370.65625Q303.125 371.5 303.75 372.0625Q304.39062 372.625 305.625 372.625Q306.84375 372.625 307.79688 372.09375Q308.75 371.5625 309.1875 370.64062Q309.53125 369.92188 309.53125 368.53125L309.53125 367.75ZM314.59375 359.25L314.59375 356.8125L316.70312 356.8125L316.70312 359.25L314.59375 359.25ZM314.59375 374.0L314.59375 361.54688L316.70312 361.54688L316.70312 374.0L314.59375 374.0ZM319.57812 374.0L319.57812 361.54688L321.48438 361.54688L321.48438 363.32812Q322.85938 361.26562 325.4375 361.26562Q326.5625 361.26562 327.5 361.67188Q328.45312 362.07812 328.92188 362.73438Q329.39062 363.39062 329.57812 364.29688Q329.70312 364.875 329.70312 366.34375L329.70312 374.0L327.59375 374.0L327.59375 366.42188Q327.59375 365.14062 327.34375 364.5Q327.09375 363.85938 326.46875 363.48438Q325.84375 363.09375 325.0 363.09375Q323.65625 363.09375 322.67188 363.95312Q321.6875 364.8125 321.6875 367.20312L321.6875 374.0L319.57812 374.0ZM333.14062 374.0L333.14062 371.59375L335.53125 371.59375L335.53125 374.0Q335.53125 375.32812 335.0625 376.14062Q334.59375 376.95312 333.57812 377.40625L333.0 376.5Q333.65625 376.20312 333.96875 375.625Q334.29688 375.0625 334.32812 374.0L333.14062 374.0ZM354.70312 369.4375L356.78125 369.70312Q356.4375 371.85938 355.03125 373.07812Q353.64062 374.28125 351.59375 374.28125Q349.04688 374.28125 347.48438 372.60938Q345.9375 370.9375 345.9375 367.82812Q345.9375 365.8125 346.60938 364.29688Q347.28125 362.78125 348.64062 362.03125Q350.0 361.26562 351.60938 361.26562Q353.64062 361.26562 354.92188 362.29688Q356.21875 363.32812 356.57812 365.20312L354.53125 365.53125Q354.23438 364.26562 353.48438 363.64062Q352.75 363.0 351.6875 363.0Q350.09375 363.0 349.09375 364.15625Q348.10938 365.29688 348.10938 367.76562Q348.10938 370.26562 349.0625 371.40625Q350.03125 372.54688 351.57812 372.54688Q352.8125 372.54688 353.64062 371.78125Q354.48438 371.01562 354.70312 369.4375ZM358.59375 359.25L358.59375 356.8125L360.70312 356.8125L360.70312 359.25L358.59375 359.25ZM358.59375 374.0L358.59375 361.54688L360.70312 361.54688L360.70312 374.0L358.59375 374.0ZM363.57812 374.0L363.57812 361.54688L365.48438 361.54688L365.48438 363.32812Q366.85938 361.26562 369.4375 361.26562Q370.5625 361.26562 371.5 361.67188Q372.45312 362.07812 372.92188 362.73438Q373.39062 363.39062 373.57812 364.29688Q373.70312 364.875 373.70312 366.34375L373.70312 374.0L371.59375 374.0L371.59375 366.42188Q371.59375 365.14062 371.34375 364.5Q371.09375 363.85938 370.46875 363.48438Q369.84375 363.09375 369.0 363.09375Q367.65625 363.09375 366.67188 363.95312Q365.6875 364.8125 365.6875 367.20312L365.6875 374.0L363.57812 374.0ZM384.51562 378.76562L384.51562 372.67188Q384.03125 373.35938 383.14062 373.82812Q382.25 374.28125 381.26562 374.28125Q379.04688 374.28125 377.4375 372.51562Q375.84375 370.73438 375.84375 367.65625Q375.84375 365.78125 376.48438 364.29688Q377.14062 362.8125 378.375 362.04688Q379.625 361.26562 381.09375 361.26562Q383.40625 361.26562 384.73438 363.21875L384.73438 361.54688L386.625 361.54688L386.625 378.76562L384.51562 378.76562ZM378.01562 367.73438Q378.01562 370.14062 379.01562 371.34375Q380.03125 372.54688 381.4375 372.54688Q382.78125 372.54688 383.75 371.40625Q384.73438 370.26562 384.73438 367.92188Q384.73438 365.4375 383.70312 364.1875Q382.67188 362.9375 381.29688 362.9375Q379.92188 362.9375 378.96875 364.10938Q378.01562 365.26562 378.01562 367.73438ZM396.57812 378.76562L396.57812 361.54688L398.5 361.54688L398.5 363.17188Q399.1875 362.21875 400.03125 361.75Q400.89062 361.26562 402.10938 361.26562Q403.70312 361.26562 404.92188 362.09375Q406.14062 362.90625 406.76562 364.40625Q407.39062 365.90625 407.39062 367.6875Q407.39062 369.59375 406.70312 371.125Q406.01562 372.65625 404.70312 373.46875Q403.40625 374.28125 401.96875 374.28125Q400.90625 374.28125 400.0625 373.84375Q399.23438 373.39062 398.6875 372.70312L398.6875 378.76562L396.57812 378.76562ZM398.5 367.84375Q398.5 370.25 399.46875 371.40625Q400.4375 372.54688 401.82812 372.54688Q403.23438 372.54688 404.23438 371.35938Q405.23438 370.17188 405.23438 367.67188Q405.23438 365.29688 404.25 364.10938Q403.28125 362.92188 401.92188 362.92188Q400.5625 362.92188 399.53125 364.1875Q398.5 365.4375 398.5 367.84375ZM418.10938 369.98438L420.28125 370.26562Q419.76562 372.17188 418.375 373.23438Q416.98438 374.28125 414.8125 374.28125Q412.07812 374.28125 410.46875 372.60938Q408.875 370.92188 408.875 367.875Q408.875 364.73438 410.48438 363.0Q412.10938 361.26562 414.6875 361.26562Q417.1875 361.26562 418.76562 362.96875Q420.35938 364.67188 420.35938 367.75Q420.35938 367.9375 420.34375 368.3125L411.0625 368.3125Q411.17188 370.35938 412.21875 371.45312Q413.26562 372.54688 414.82812 372.54688Q415.98438 372.54688 416.79688 371.9375Q417.625 371.32812 418.10938 369.98438ZM411.17188 366.57812L418.125 366.57812Q417.98438 365.01562 417.32812 364.21875Q416.32812 363.0 414.71875 363.0Q413.26562 363.0 412.26562 363.98438Q411.28125 364.95312 411.17188 366.57812ZM422.5625 374.0L422.5625 361.54688L424.45312 361.54688L424.45312 363.4375Q425.1875 362.10938 425.79688 361.6875Q426.42188 361.26562 427.15625 361.26562Q428.21875 361.26562 429.32812 361.95312L428.59375 363.90625Q427.82812 363.45312 427.04688 363.45312Q426.35938 363.45312 425.79688 363.875Q425.25 364.28125 425.01562 365.01562Q424.67188 366.14062 424.67188 367.48438L424.67188 374.0L422.5625 374.0ZM429.73438 370.28125L431.82812 369.95312Q432.0 371.20312 432.79688 371.875Q433.60938 372.54688 435.04688 372.54688Q436.5 372.54688 437.20312 371.95312Q437.90625 371.35938 437.90625 370.5625Q437.90625 369.84375 437.28125 369.4375Q436.85938 369.15625 435.125 368.71875Q432.8125 368.14062 431.90625 367.71875Q431.01562 367.28125 430.54688 366.53125Q430.09375 365.76562 430.09375 364.85938Q430.09375 364.03125 430.46875 363.32812Q430.85938 362.60938 431.51562 362.14062Q432.0 361.78125 432.84375 361.53125Q433.70312 361.26562 434.67188 361.26562Q436.14062 361.26562 437.25 361.6875Q438.35938 362.10938 438.875 362.84375Q439.40625 363.5625 439.60938 364.76562L437.54688 365.04688Q437.40625 364.07812 436.73438 363.54688Q436.0625 363.0 434.82812 363.0Q433.375 363.0 432.75 363.48438Q432.125 363.96875 432.125 364.60938Q432.125 365.01562 432.39062 365.34375Q432.64062 365.6875 433.20312 365.90625Q433.51562 366.03125 435.0625 366.45312Q437.29688 367.04688 438.17188 367.4375Q439.0625 367.8125 439.5625 368.54688Q440.07812 369.26562 440.07812 370.34375Q440.07812 371.39062 439.45312 372.32812Q438.84375 373.26562 437.6875 373.78125Q436.53125 374.28125 435.0625 374.28125Q432.64062 374.28125 431.35938 373.28125Q430.09375 372.26562 429.73438 370.28125ZM441.79688 367.78125Q441.79688 364.3125 443.71875 362.65625Q445.32812 361.26562 447.64062 361.26562Q450.20312 361.26562 451.82812 362.95312Q453.45312 364.64062 453.45312 367.59375Q453.45312 370.0 452.73438 371.375Q452.01562 372.75 450.64062 373.51562Q449.26562 374.28125 447.64062 374.28125Q445.01562 374.28125 443.40625 372.60938Q441.79688 370.92188 441.79688 367.78125ZM443.96875 367.78125Q443.96875 370.17188 445.0 371.35938Q446.04688 372.54688 447.64062 372.54688Q449.20312 372.54688 450.25 371.35938Q451.29688 370.15625 451.29688 367.70312Q451.29688 365.39062 450.23438 364.20312Q449.1875 363.01562 447.64062 363.01562Q446.04688 363.01562 445.0 364.20312Q443.96875 365.39062 443.96875 367.78125ZM455.57812 374.0L455.57812 361.54688L457.48438 361.54688L457.48438 363.32812Q458.85938 361.26562 461.4375 361.26562Q462.5625 361.26562 463.5 361.67188Q464.45312 362.07812 464.92188 362.73438Q465.39062 363.39062 465.57812 364.29688Q465.70312 364.875 465.70312 366.34375L465.70312 374.0L463.59375 374.0L463.59375 366.42188Q463.59375 365.14062 463.34375 364.5Q463.09375 363.85938 462.46875 363.48438Q461.84375 363.09375 461.0 363.09375Q459.65625 363.09375 458.67188 363.95312Q457.6875 364.8125 457.6875 367.20312L457.6875 374.0L455.57812 374.0ZM468.57812 374.0L468.57812 361.54688L470.48438 361.54688L470.48438 363.32812Q471.85938 361.26562 474.4375 361.26562Q475.5625 361.26562 476.5 361.67188Q477.45312 362.07812 477.92188 362.73438Q478.39062 363.39062 478.57812 364.29688Q478.70312 364.875 478.70312 366.34375L478.70312 374.0L476.59375 374.0L476.59375 366.42188Q476.59375 365.14062 476.34375 364.5Q476.09375 363.85938 475.46875 363.48438Q474.84375 363.09375 474.0 363.09375Q472.65625 363.09375 471.67188 363.95312Q470.6875 364.8125 470.6875 367.20312L470.6875 374.0L468.57812 374.0ZM490.10938 369.98438L492.28125 370.26562Q491.76562 372.17188 490.375 373.23438Q488.98438 374.28125 486.8125 374.28125Q484.07812 374.28125 482.46875 372.60938Q480.875 370.92188 480.875 367.875Q480.875 364.73438 482.48438 363.0Q484.10938 361.26562 486.6875 361.26562Q489.1875 361.26562 490.76562 362.96875Q492.35938 364.67188 492.35938 367.75Q492.35938 367.9375 492.34375 368.3125L483.0625 368.3125Q483.17188 370.35938 484.21875 371.45312Q485.26562 372.54688 486.82812 372.54688Q487.98438 372.54688 488.79688 371.9375Q489.625 371.32812 490.10938 369.98438ZM483.17188 366.57812L490.125 366.57812Q489.98438 365.01562 489.32812 364.21875Q488.32812 363.0 486.71875 363.0Q485.26562 363.0 484.26562 363.98438Q483.28125 364.95312 483.17188 366.57812ZM493.73438 370.28125L495.82812 369.95312Q496.0 371.20312 496.79688 371.875Q497.60938 372.54688 499.04688 372.54688Q500.5 372.54688 501.20312 371.95312Q501.90625 371.35938 501.90625 370.5625Q501.90625 369.84375 501.28125 369.4375Q500.85938 369.15625 499.125 368.71875Q496.8125 368.14062 495.90625 367.71875Q495.01562 367.28125 494.54688 366.53125Q494.09375 365.76562 494.09375 364.85938Q494.09375 364.03125 494.46875 363.32812Q494.85938 362.60938 495.51562 362.14062Q496.0 361.78125 496.84375 361.53125Q497.70312 361.26562 498.67188 361.26562Q500.14062 361.26562 501.25 361.6875Q502.35938 362.10938 502.875 362.84375Q503.40625 363.5625 503.60938 364.76562L501.54688 365.04688Q501.40625 364.07812 500.73438 363.54688Q500.0625 363.0 498.82812 363.0Q497.375 363.0 496.75 363.48438Q496.125 363.96875 496.125 364.60938Q496.125 365.01562 496.39062 365.34375Q496.64062 365.6875 497.20312 365.90625Q497.51562 366.03125 499.0625 366.45312Q501.29688 367.04688 502.17188 367.4375Q503.0625 367.8125 503.5625 368.54688Q504.07812 369.26562 504.07812 370.34375Q504.07812 371.39062 503.45312 372.32812Q502.84375 373.26562 501.6875 373.78125Q500.53125 374.28125 499.0625 374.28125Q496.64062 374.28125 495.35938 373.28125Q494.09375 372.26562 493.73438 370.28125ZM513.5781 374.0L513.5781 361.54688L515.46875 361.54688L515.46875 363.29688Q516.0625 362.39062 517.03125 361.82812Q518.0 361.26562 519.25 361.26562Q520.625 361.26562 521.5 361.84375Q522.3906 362.42188 522.7656 363.45312Q524.2344 361.26562 526.6094 361.26562Q528.4531 361.26562 529.4531 362.29688Q530.4531 363.32812 530.4531 365.45312L530.4531 374.0L528.34375 374.0L528.34375 366.15625Q528.34375 364.89062 528.1406 364.34375Q527.9375 363.78125 527.3906 363.4375Q526.8594 363.09375 526.1406 363.09375Q524.8281 363.09375 523.9531 363.96875Q523.09375 364.84375 523.09375 366.76562L523.09375 374.0L520.9844 374.0L520.9844 365.90625Q520.9844 364.5 520.46875 363.79688Q519.9531 363.09375 518.78125 363.09375Q517.8906 363.09375 517.125 363.5625Q516.375 364.03125 516.03125 364.9375Q515.6875 365.84375 515.6875 367.54688L515.6875 374.0L513.5781 374.0ZM542.1094 369.98438L544.28125 370.26562Q543.7656 372.17188 542.375 373.23438Q540.9844 374.28125 538.8125 374.28125Q536.0781 374.28125 534.46875 372.60938Q532.875 370.92188 532.875 367.875Q532.875 364.73438 534.4844 363.0Q536.1094 361.26562 538.6875 361.26562Q541.1875 361.26562 542.7656 362.96875Q544.3594 364.67188 544.3594 367.75Q544.3594 367.9375 544.34375 368.3125L535.0625 368.3125Q535.1719 370.35938 536.21875 371.45312Q537.2656 372.54688 538.8281 372.54688Q539.9844 372.54688 540.7969 371.9375Q541.625 371.32812 542.1094 369.98438ZM535.1719 366.57812L542.125 366.57812Q541.9844 365.01562 541.3281 364.21875Q540.3281 363.0 538.71875 363.0Q537.2656 363.0 536.2656 363.98438Q535.28125 364.95312 535.1719 366.57812ZM554.7344 374.0L554.7344 372.17188Q553.28125 374.28125 550.7969 374.28125Q549.6875 374.28125 548.7344 373.85938Q547.78125 373.4375 547.3125 372.79688Q546.8594 372.15625 546.6719 371.23438Q546.53125 370.60938 546.53125 369.26562L546.53125 361.54688L548.6406 361.54688L548.6406 368.45312Q548.6406 370.10938 548.78125 370.6875Q548.96875 371.51562 549.6094 372.0Q550.2656 372.46875 551.21875 372.46875Q552.15625 372.46875 552.9844 371.98438Q553.8281 371.48438 554.1719 370.65625Q554.5156 369.8125 554.5156 368.21875L554.5156 361.54688L556.625 361.54688L556.625 374.0L554.7344 374.0ZM559.5625 374.0L559.5625 361.54688L561.4531 361.54688L561.4531 363.4375Q562.1875 362.10938 562.7969 361.6875Q563.4219 361.26562 564.15625 361.26562Q565.21875 361.26562 566.3281 361.95312L565.59375 363.90625Q564.8281 363.45312 564.0469 363.45312Q563.3594 363.45312 562.7969 363.875Q562.25 364.28125 562.0156 365.01562Q561.6719 366.14062 561.6719 367.48438L561.6719 374.0L559.5625 374.0ZM576.1094 369.98438L578.28125 370.26562Q577.7656 372.17188 576.375 373.23438Q574.9844 374.28125 572.8125 374.28125Q570.0781 374.28125 568.46875 372.60938Q566.875 370.92188 566.875 367.875Q566.875 364.73438 568.4844 363.0Q570.1094 361.26562 572.6875 361.26562Q575.1875 361.26562 576.7656 362.96875Q578.3594 364.67188 578.3594 367.75Q578.3594 367.9375 578.34375 368.3125L569.0625 368.3125Q569.1719 370.35938 570.21875 371.45312Q571.2656 372.54688 572.8281 372.54688Q573.9844 372.54688 574.7969 371.9375Q575.625 371.32812 576.1094 369.98438ZM569.1719 366.57812L576.125 366.57812Q575.9844 365.01562 575.3281 364.21875Q574.3281 363.0 572.71875 363.0Q571.2656 363.0 570.2656 363.98438Q569.28125 364.95312 569.1719 366.57812ZM580.5781 374.0L580.5781 361.54688L582.4844 361.54688L582.4844 363.32812Q583.8594 361.26562 586.4375 361.26562Q587.5625 361.26562 588.5 361.67188Q589.4531 362.07812 589.9219 362.73438Q590.3906 363.39062 590.5781 364.29688Q590.7031 364.875 590.7031 366.34375L590.7031 374.0L588.59375 374.0L588.59375 366.42188Q588.59375 365.14062 588.34375 364.5Q588.09375 363.85938 587.46875 363.48438Q586.84375 363.09375 586.0 363.09375Q584.65625 363.09375 583.6719 363.95312Q582.6875 364.8125 582.6875 367.20312L582.6875 374.0L580.5781 374.0ZM598.1875 372.10938L598.5 373.96875Q597.6094 374.17188 596.90625 374.17188Q595.75 374.17188 595.1094 373.8125Q594.4844 373.4375 594.21875 372.84375Q593.96875 372.25 593.96875 370.35938L593.96875 363.1875L592.4219 363.1875L592.4219 361.54688L593.96875 361.54688L593.96875 358.46875L596.0625 357.20312L596.0625 361.54688L598.1875 361.54688L598.1875 363.1875L596.0625 363.1875L596.0625 370.46875Q596.0625 371.375 596.1719 371.64062Q596.2969 371.89062 596.5469 372.04688Q596.7969 372.1875 597.2656 372.1875Q597.6094 372.1875 598.1875 372.10938Z" fill-rule="nonzero"/></svg>