<svg version="1.1" viewBox="0.0 0.0 633.0 400.0" fill="none" stroke="none" stroke-linecap="square" stroke-miterlimit="10" width="633" height="400" xmlns:xlink="http://www.w3.org/1999/xlink" xmlns="http://www.w3.org/2000/svg"><path fill="#ffffff" d="M0 0L633.0 0L633.0 400.0L0 400.0L0 0Z" fill-rule="nonzero"/><path fill="#ea4335" d="M176.76033 131.43866C191.6409 66.24263 249.62733 20.0 316.5 20.0L316.5 163.33333Z" fill-rule="nonzero"/><path fill="#4285f4" d="M316.5 20.0C377.4126 20.0 431.67178 58.498955 451.78995 115.99333C471.9081 173.48772 453.49026 237.41747 405.86688 275.39584C358.2435 313.37424 291.81824 317.10458 240.24207 284.69714C188.66591 252.28969 163.20601 190.82405 176.76033 131.43866L316.5 163.33333Z" fill-rule="nonzero"/><path fill="#000000" d="M323.69553 232.08134L321.9299 232.08134L321.9299 220.87822Q321.3049 221.4876 320.27365 222.09697Q319.2424 222.69072 318.41428 223.00322L318.41428 221.3001Q319.89865 220.6126 320.9924 219.62822Q322.10178 218.62822 322.5549 217.70634L323.69553 217.70634L323.69553 232.08134ZM334.69553 232.08134L332.9299 232.08134L332.9299 220.87822Q332.3049 221.4876 331.27365 222.09697Q330.2424 222.69072 329.41428 223.00322L329.41428 221.3001Q330.89865 220.6126 331.9924 219.62822Q333.10178 218.62822 333.5549 217.70634L334.69553 217.70634L334.69553 232.08134ZM348.91428 236.28447Q347.46115 234.45634 346.46115 232.00322Q345.46115 229.53447 345.46115 226.89384Q345.46115 224.56572 346.21115 222.44072Q347.08615 219.97197 348.91428 217.51884L350.1799 217.51884Q348.9924 219.5501 348.6174 220.4251Q348.02365 221.76884 347.6799 223.2376Q347.25803 225.06572 347.25803 226.90947Q347.25803 231.59697 350.1799 236.28447L348.91428 236.28447ZM352.19553 219.64384L352.19553 217.95634L361.46115 217.95634L361.46115 219.31572Q360.08615 220.76884 358.7424 223.19072Q357.39865 225.59697 356.6799 228.14384Q356.14865 229.94072 355.9924 232.08134L354.19553 232.08134Q354.22678 230.39384 354.85178 228.00322Q355.4924 225.6126 356.6799 223.39384Q357.8674 221.15947 359.19553 219.64384L352.19553 219.64384ZM365.77365 224.31572Q364.6799 223.90947 364.14865 223.1751Q363.63303 222.4251 363.63303 221.39384Q363.63303 219.83134 364.75803 218.76884Q365.88303 217.70634 367.7424 217.70634Q369.6174 217.70634 370.75803 218.8001Q371.89865 219.87822 371.89865 221.44072Q371.89865 222.44072 371.3674 223.1751Q370.85178 223.90947 369.78928 224.31572Q371.1174 224.75322 371.8049 225.70634Q372.4924 226.65947 372.4924 227.9876Q372.4924 229.83134 371.1799 231.08134Q369.88303 232.33134 367.77365 232.33134Q365.64865 232.33134 364.35178 231.08134Q363.0549 229.81572 363.0549 227.94072Q363.0549 226.5501 363.75803 225.6126Q364.47678 224.65947 365.77365 224.31572ZM365.4299 221.33134Q365.4299 222.34697 366.08615 223.00322Q366.7424 223.64384 367.77365 223.64384Q368.78928 223.64384 369.44553 223.00322Q370.10178 222.3626 370.10178 221.44072Q370.10178 220.47197 369.4299 219.81572Q368.75803 219.14384 367.75803 219.14384Q366.75803 219.14384 366.08615 219.8001Q365.4299 220.44072 365.4299 221.33134ZM364.8674 227.95634Q364.8674 228.70634 365.21115 229.40947Q365.57053 230.1126 366.27365 230.50322Q366.97678 230.87822 367.78928 230.87822Q369.0549 230.87822 369.8674 230.06572Q370.69553 229.25322 370.69553 228.00322Q370.69553 226.7376 369.85178 225.90947Q369.00803 225.08134 367.72678 225.08134Q366.4924 225.08134 365.6799 225.90947Q364.8674 226.72197 364.8674 227.95634ZM375.02365 232.08134L375.02365 230.08134L377.02365 230.08134L377.02365 232.08134Q377.02365 233.19072 376.63303 233.8626Q376.2424 234.5501 375.39865 234.90947L374.89865 234.15947Q375.46115 233.9251 375.72678 233.44072Q375.9924 232.97197 376.02365 232.08134L375.02365 232.08134ZM389.19553 221.26884L387.44553 221.40947Q387.21115 220.37822 386.78928 219.90947Q386.07053 219.14384 385.02365 219.14384Q384.1799 219.14384 383.5549 219.6126Q382.72678 220.22197 382.2424 221.39384Q381.75803 222.5501 381.7424 224.69072Q382.38303 223.7376 383.28928 223.26884Q384.21115 222.8001 385.22678 222.8001Q386.97678 222.8001 388.21115 224.09697Q389.44553 225.37822 389.44553 227.4251Q389.44553 228.78447 388.8674 229.94072Q388.28928 231.09697 387.27365 231.72197Q386.25803 232.33134 384.96115 232.33134Q382.77365 232.33134 381.38303 230.72197Q379.9924 229.09697 379.9924 225.37822Q379.9924 221.2376 381.52365 219.34697Q382.8674 217.70634 385.13303 217.70634Q386.82053 217.70634 387.89865 218.65947Q388.97678 219.59697 389.19553 221.26884ZM382.02365 227.44072Q382.02365 228.34697 382.39865 229.1751Q382.78928 230.00322 383.47678 230.44072Q384.1799 230.87822 384.9299 230.87822Q386.0549 230.87822 386.85178 229.9876Q387.64865 229.08134 387.64865 227.53447Q387.64865 226.0501 386.85178 225.20634Q386.07053 224.34697 384.8674 224.34697Q383.6799 224.34697 382.85178 225.20634Q382.02365 226.0501 382.02365 227.44072ZM391.39865 221.20634Q391.39865 219.6751 392.16428 218.59697Q392.94553 217.51884 394.41428 217.51884Q395.75803 217.51884 396.63303 218.4876Q397.52365 219.44072 397.52365 221.31572Q397.52365 223.12822 396.63303 224.1126Q395.7424 225.08134 394.4299 225.08134Q393.13303 225.08134 392.25803 224.12822Q391.39865 223.15947 391.39865 221.20634ZM394.46115 218.7376Q393.8049 218.7376 393.3674 219.3001Q392.94553 219.8626 392.94553 221.37822Q392.94553 222.75322 393.38303 223.31572Q393.82053 223.87822 394.46115 223.87822Q395.13303 223.87822 395.5549 223.31572Q395.9924 222.7376 395.9924 221.2376Q395.9924 219.84697 395.5549 219.3001Q395.1174 218.7376 394.46115 218.7376ZM394.47678 232.6126L402.3049 217.51884L403.72678 217.51884L395.9299 232.6126L394.47678 232.6126ZM400.66428 228.72197Q400.66428 227.1751 401.4299 226.1126Q402.21115 225.03447 403.6799 225.03447Q405.02365 225.03447 405.89865 226.00322Q406.78928 226.95634 406.78928 228.83134Q406.78928 230.64384 405.89865 231.62822Q405.00803 232.6126 403.69553 232.6126Q402.39865 232.6126 401.52365 231.64384Q400.66428 230.65947 400.66428 228.72197ZM403.72678 226.25322Q403.07053 226.25322 402.63303 226.81572Q402.19553 227.37822 402.19553 228.89384Q402.19553 230.26884 402.63303 230.83134Q403.07053 231.39384 403.72678 231.39384Q404.39865 231.39384 404.82053 230.83134Q405.25803 230.26884 405.25803 228.75322Q405.25803 227.37822 404.82053 226.81572Q404.38303 226.25322 403.72678 226.25322ZM410.71115 236.28447L409.46115 236.28447Q412.3674 231.59697 412.3674 226.90947Q412.3674 225.06572 411.96115 223.26884Q411.6174 221.8001 411.02365 220.45634Q410.64865 219.56572 409.46115 217.51884L410.71115 217.51884Q412.5549 219.97197 413.4299 222.44072Q414.1799 224.56572 414.1799 226.89384Q414.1799 229.53447 413.16428 232.00322Q412.16428 234.45634 410.71115 236.28447Z" fill-rule="nonzero"/><path fill="#000000" d="M221.36249 101.36965L223.11249 101.13528Q223.42499 102.63528 224.14374 103.29153Q224.87811 103.94778 225.92499 103.94778Q227.15936 103.94778 228.00311 103.0884Q228.86249 102.22903 228.86249 100.9634Q228.86249 99.74465 228.06561 98.9634Q227.28436 98.18215 226.06561 98.18215Q225.56561 98.18215 224.83124 98.36965L225.01874 96.82278Q225.19061 96.85403 225.29999 96.85403Q226.42499 96.85403 227.31561 96.2759Q228.22186 95.68215 228.22186 94.4634Q228.22186 93.49465 227.56561 92.85403Q226.90936 92.2134 225.87811 92.2134Q224.86249 92.2134 224.17499 92.86965Q223.48749 93.51028 223.29999 94.79153L221.53436 94.47903Q221.86249 92.7134 223.00311 91.74465Q224.14374 90.7759 225.84686 90.7759Q227.01874 90.7759 228.00311 91.2759Q228.98749 91.7759 229.50311 92.6509Q230.03436 93.5259 230.03436 94.49465Q230.03436 95.41653 229.53436 96.18215Q229.03436 96.94778 228.06561 97.4009Q229.33124 97.68215 230.03436 98.61965Q230.73749 99.54153 230.73749 100.91653Q230.73749 102.79153 229.36249 104.10403Q228.00311 105.4009 225.90936 105.4009Q224.01874 105.4009 222.76874 104.2759Q221.53436 103.1509 221.36249 101.36965ZM242.19061 109.35403Q240.73749 107.5259 239.73749 105.07278Q238.73749 102.60403 238.73749 99.9634Q238.73749 97.63528 239.48749 95.51028Q240.36249 93.04153 242.19061 90.5884L243.45624 90.5884Q242.26874 92.61965 241.89374 93.49465Q241.29999 94.8384 240.95624 96.30715Q240.53436 98.13528 240.53436 99.97903Q240.53436 104.66653 243.45624 109.35403L242.19061 109.35403ZM254.58124 103.4634L254.58124 105.1509L245.12811 105.1509Q245.11249 104.51028 245.33124 103.93215Q245.69061 102.9634 246.48749 102.0259Q247.28436 101.0884 248.78436 99.85403Q251.12811 97.94778 251.94061 96.8384Q252.76874 95.7134 252.76874 94.7134Q252.76874 93.66653 252.01874 92.94778Q251.26874 92.22903 250.06561 92.22903Q248.79999 92.22903 248.03436 92.99465Q247.26874 93.76028 247.26874 95.10403L245.45624 94.91653Q245.64374 92.9009 246.84686 91.8384Q248.06561 90.7759 250.11249 90.7759Q252.15936 90.7759 253.36249 91.91653Q254.56561 93.05715 254.56561 94.74465Q254.56561 95.60403 254.20624 96.44778Q253.86249 97.2759 253.04999 98.19778Q252.23749 99.10403 250.34686 100.7134Q248.75311 102.04153 248.29999 102.51028Q247.86249 102.97903 247.56561 103.4634L254.58124 103.4634ZM262.97186 105.1509L261.20624 105.1509L261.20624 93.94778Q260.58124 94.55715 259.55 95.16653Q258.51874 95.76028 257.6906 96.07278L257.6906 94.36965Q259.175 93.68215 260.26874 92.69778Q261.3781 91.69778 261.83124 90.7759L262.97186 90.7759L262.97186 105.1509ZM268.3 105.1509L268.3 103.1509L270.3 103.1509L270.3 105.1509Q270.3 106.26028 269.90936 106.93215Q269.51874 107.61965 268.675 107.97903L268.175 107.22903Q268.7375 106.99465 269.0031 106.51028Q269.26874 106.04153 269.3 105.1509L268.3 105.1509ZM278.9875 105.1509L278.9875 101.72903L272.76874 101.72903L272.76874 100.10403L279.3 90.8384L280.7375 90.8384L280.7375 100.10403L282.675 100.10403L282.675 101.72903L280.7375 101.72903L280.7375 105.1509L278.9875 105.1509ZM278.9875 100.10403L278.9875 93.6509L274.5031 100.10403L278.9875 100.10403ZM284.675 94.2759Q284.675 92.74465 285.4406 91.66653Q286.22186 90.5884 287.6906 90.5884Q289.03436 90.5884 289.90936 91.55715Q290.8 92.51028 290.8 94.38528Q290.8 96.19778 289.90936 97.18215Q289.01874 98.1509 287.70624 98.1509Q286.40936 98.1509 285.53436 97.19778Q284.675 96.22903 284.675 94.2759ZM287.7375 91.80715Q287.08124 91.80715 286.64374 92.36965Q286.22186 92.93215 286.22186 94.44778Q286.22186 95.82278 286.65936 96.38528Q287.09686 96.94778 287.7375 96.94778Q288.40936 96.94778 288.83124 96.38528Q289.26874 95.80715 289.26874 94.30715Q289.26874 92.91653 288.83124 92.36965Q288.39374 91.80715 287.7375 91.80715ZM287.7531 105.68215L295.58124 90.5884L297.0031 90.5884L289.20624 105.68215L287.7531 105.68215ZM293.9406 101.79153Q293.9406 100.24465 294.70624 99.18215Q295.4875 98.10403 296.95624 98.10403Q298.3 98.10403 299.175 99.07278Q300.0656 100.0259 300.0656 101.9009Q300.0656 103.7134 299.175 104.69778Q298.28436 105.68215 296.97186 105.68215Q295.675 105.68215 294.8 104.7134Q293.9406 103.72903 293.9406 101.79153ZM297.0031 99.32278Q296.34686 99.32278 295.90936 99.88528Q295.47186 100.44778 295.47186 101.9634Q295.47186 103.3384 295.90936 103.9009Q296.34686 104.4634 297.0031 104.4634Q297.675 104.4634 298.09686 103.9009Q298.53436 103.3384 298.53436 101.82278Q298.53436 100.44778 298.09686 99.88528Q297.65936 99.32278 297.0031 99.32278ZM303.9875 109.35403L302.7375 109.35403Q305.64374 104.66653 305.64374 99.97903Q305.64374 98.13528 305.2375 96.3384Q304.89374 94.86965 304.3 93.5259Q303.925 92.63528 302.7375 90.5884L303.9875 90.5884Q305.83124 93.04153 306.70624 95.51028Q307.45624 97.63528 307.45624 99.9634Q307.45624 102.60403 306.4406 105.07278Q305.4406 107.5259 303.9875 109.35403Z" fill-rule="nonzero"/><path fill="#4285f4" d="M32.0 334.0C32.0 337.31372 29.31371 340.0 26.0 340.0C22.68629 340.0 20.0 337.31372 20.0 334.0C20.0 330.68628 22.68629 328.0 26.0 328.0C29.31371 328.0 32.0 330.68628 32.0 334.0Z" fill-rule="nonzero"/><path fill="#1a1a1a" d="M46.765625 342.0L40.109375 324.8125L42.5625 324.8125L47.03125 337.29688Q47.578125 338.79688 47.9375 340.10938Q48.328125 338.70312 48.859375 337.29688L53.5 324.8125L55.828125 324.8125L49.09375 342.0L46.765625 342.0ZM56.796875 335.78125Q56.796875 332.3125 58.71875 330.65625Q60.328125 329.26562 62.640625 329.26562Q65.203125 329.26562 66.828125 330.95312Q68.453125 332.64062 68.453125 335.59375Q68.453125 338.0 67.734375 339.375Q67.015625 340.75 65.640625 341.51562Q64.265625 342.28125 62.640625 342.28125Q60.015625 342.28125 58.40625 340.60938Q56.796875 338.92188 56.796875 335.78125ZM58.96875 335.78125Q58.96875 338.17188 60.0 339.35938Q61.046875 340.54688 62.640625 340.54688Q64.203125 340.54688 65.25 339.35938Q66.296875 338.15625 66.296875 335.70312Q66.296875 333.39062 65.234375 332.20312Q64.1875 331.01562 62.640625 331.01562Q61.046875 331.01562 60.0 332.20312Q58.96875 333.39062 58.96875 335.78125ZM78.734375 342.0L78.734375 340.17188Q77.28125 342.28125 74.796875 342.28125Q73.6875 342.28125 72.734375 341.85938Q71.78125 341.4375 71.3125 340.79688Q70.859375 340.15625 70.671875 339.23438Q70.53125 338.60938 70.53125 337.26562L70.53125 329.54688L72.640625 329.54688L72.640625 336.45312Q72.640625 338.10938 72.78125 338.6875Q72.96875 339.51562 73.609375 340.0Q74.265625 340.46875 75.21875 340.46875Q76.15625 340.46875 76.984375 339.98438Q77.828125 339.48438 78.171875 338.65625Q78.515625 337.8125 78.515625 336.21875L78.515625 329.54688L80.625 329.54688L80.625 342.0L78.734375 342.0ZM82.734375 338.28125L84.828125 337.95312Q85.0 339.20312 85.796875 339.875Q86.609375 340.54688 88.046875 340.54688Q89.5 340.54688 90.203125 339.95312Q90.90625 339.35938 90.90625 338.5625Q90.90625 337.84375 90.28125 337.4375Q89.859375 337.15625 88.125 336.71875Q85.8125 336.14062 84.90625 335.71875Q84.015625 335.28125 83.546875 334.53125Q83.09375 333.76562 83.09375 332.85938Q83.09375 332.03125 83.46875 331.32812Q83.859375 330.60938 84.515625 330.14062Q85.0 329.78125 85.84375 329.53125Q86.703125 329.26562 87.671875 329.26562Q89.140625 329.26562 90.25 329.6875Q91.359375 330.10938 91.875 330.84375Q92.40625 331.5625 92.609375 332.76562L90.546875 333.04688Q90.40625 332.07812 89.734375 331.54688Q89.0625 331.0 87.828125 331.0Q86.375 331.0 85.75 331.48438Q85.125 331.96875 85.125 332.60938Q85.125 333.01562 85.390625 333.34375Q85.640625 333.6875 86.203125 333.90625Q86.515625 334.03125 88.0625 334.45312Q90.296875 335.04688 91.171875 335.4375Q92.0625 335.8125 92.5625 336.54688Q93.078125 337.26562 93.078125 338.34375Q93.078125 339.39062 92.453125 340.32812Q91.84375 341.26562 90.6875 341.78125Q89.53125 342.28125 88.0625 342.28125Q85.640625 342.28125 84.359375 341.28125Q83.09375 340.26562 82.734375 338.28125ZM110.65625 342.0L110.65625 340.42188Q109.46875 342.28125 107.171875 342.28125Q105.6875 342.28125 104.4375 341.46875Q103.1875 340.64062 102.5 339.17188Q101.828125 337.70312 101.828125 335.78125Q101.828125 333.92188 102.4375 332.40625Q103.0625 330.89062 104.296875 330.07812Q105.546875 329.26562 107.078125 329.26562Q108.203125 329.26562 109.078125 329.75Q109.96875 330.21875 110.515625 330.98438L110.515625 324.8125L112.609375 324.8125L112.609375 342.0L110.65625 342.0ZM103.984375 335.78125Q103.984375 338.17188 104.984375 339.35938Q106.0 340.54688 107.375 340.54688Q108.765625 340.54688 109.71875 339.42188Q110.6875 338.28125 110.6875 335.96875Q110.6875 333.40625 109.703125 332.21875Q108.71875 331.01562 107.28125 331.01562Q105.875 331.01562 104.921875 332.17188Q103.984375 333.3125 103.984375 335.78125ZM124.109375 337.98438L126.28125 338.26562Q125.765625 340.17188 124.375 341.23438Q122.984375 342.28125 120.8125 342.28125Q118.078125 342.28125 116.46875 340.60938Q114.875 338.92188 114.875 335.875Q114.875 332.73438 116.484375 331.0Q118.109375 329.26562 120.6875 329.26562Q123.1875 329.26562 124.765625 330.96875Q126.359375 332.67188 126.359375 335.75Q126.359375 335.9375 126.34375 336.3125L117.0625 336.3125Q117.171875 338.35938 118.21875 339.45312Q119.265625 340.54688 120.828125 340.54688Q121.984375 340.54688 122.796875 339.9375Q123.625 339.32812 124.109375 337.98438ZM117.171875 334.57812L124.125 334.57812Q123.984375 333.01562 123.328125 332.21875Q122.328125 331.0 120.71875 331.0Q119.265625 331.0 118.265625 331.98438Q117.28125 332.95312 117.171875 334.57812ZM119.609375 328.0L121.15625 324.71875L123.921875 324.71875L121.34375 328.0L119.609375 328.0ZM132.04688 342.0L127.3125 329.54688L129.53125 329.54688L132.20312 337.0Q132.64062 338.21875 133.0 339.51562Q133.28125 338.53125 133.78125 337.14062L136.54688 329.54688L138.71875 329.54688L134.01562 342.0L132.04688 342.0ZM140.59375 327.25L140.59375 324.8125L142.70312 324.8125L142.70312 327.25L140.59375 327.25ZM140.59375 342.0L140.59375 329.54688L142.70312 329.54688L142.70312 342.0L140.59375 342.0ZM154.10938 337.98438L156.28125 338.26562Q155.76562 340.17188 154.375 341.23438Q152.98438 342.28125 150.8125 342.28125Q148.07812 342.28125 146.46875 340.60938Q144.875 338.92188 144.875 335.875Q144.875 332.73438 146.48438 331.0Q148.10938 329.26562 150.6875 329.26562Q153.1875 329.26562 154.76562 330.96875Q156.35938 332.67188 156.35938 335.75Q156.35938 335.9375 156.34375 336.3125L147.0625 336.3125Q147.17188 338.35938 148.21875 339.45312Q149.26562 340.54688 150.82812 340.54688Q151.98438 340.54688 152.79688 339.9375Q153.625 339.32812 154.10938 337.98438ZM147.17188 334.57812L154.125 334.57812Q153.98438 333.01562 153.32812 332.21875Q152.32812 331.0 150.71875 331.0Q149.26562 331.0 148.26562 331.98438Q147.28125 332.95312 147.17188 334.57812ZM157.46875 342.0L157.46875 340.28125L165.39062 331.1875Q164.04688 331.26562 163.01562 331.26562L157.9375 331.26562L157.9375 329.54688L168.10938 329.54688L168.10938 330.95312L161.375 338.84375L160.07812 340.28125Q161.48438 340.1875 162.73438 340.1875L168.48438 340.1875L168.48438 342.0L157.46875 342.0ZM177.53125 342.0L177.53125 324.8125L179.64062 324.8125L179.64062 342.0L177.53125 342.0ZM191.10938 337.98438L193.28125 338.26562Q192.76562 340.17188 191.375 341.23438Q189.98438 342.28125 187.8125 342.28125Q185.07812 342.28125 183.46875 340.60938Q181.875 338.92188 181.875 335.875Q181.875 332.73438 183.48438 331.0Q185.10938 329.26562 187.6875 329.26562Q190.1875 329.26562 191.76562 330.96875Q193.35938 332.67188 193.35938 335.75Q193.35938 335.9375 193.34375 336.3125L184.0625 336.3125Q184.17188 338.35938 185.21875 339.45312Q186.26562 340.54688 187.82812 340.54688Q188.98438 340.54688 189.79688 339.9375Q190.625 339.32812 191.10938 337.98438ZM184.17188 334.57812L191.125 334.57812Q190.98438 333.01562 190.32812 332.21875Q189.32812 331.0 187.71875 331.0Q186.26562 331.0 185.26562 331.98438Q184.28125 332.95312 184.17188 334.57812ZM207.1875 340.10938L207.5 341.96875Q206.60938 342.17188 205.90625 342.17188Q204.75 342.17188 204.10938 341.8125Q203.48438 341.4375 203.21875 340.84375Q202.96875 340.25 202.96875 338.35938L202.96875 331.1875L201.42188 331.1875L201.42188 329.54688L202.96875 329.54688L202.96875 326.46875L205.0625 325.20312L205.0625 329.54688L207.1875 329.54688L207.1875 331.1875L205.0625 331.1875L205.0625 338.46875Q205.0625 339.375 205.17188 339.64062Q205.29688 339.89062 205.54688 340.04688Q205.79688 340.1875 206.26562 340.1875Q206.60938 340.1875 207.1875 340.10938ZM209.5625 342.0L209.5625 329.54688L211.45312 329.54688L211.45312 331.4375Q212.1875 330.10938 212.79688 329.6875Q213.42188 329.26562 214.15625 329.26562Q215.21875 329.26562 216.32812 329.95312L215.59375 331.90625Q214.82812 331.45312 214.04688 331.45312Q213.35938 331.45312 212.79688 331.875Q212.25 332.28125 212.01562 333.01562Q211.67188 334.14062 211.67188 335.48438L211.67188 342.0L209.5625 342.0ZM225.70312 340.46875Q224.53125 341.45312 223.4375 341.875Q222.35938 342.28125 221.125 342.28125Q219.07812 342.28125 217.96875 341.28125Q216.875 340.28125 216.875 338.71875Q216.875 337.79688 217.28125 337.04688Q217.70312 336.29688 218.375 335.84375Q219.04688 335.375 219.89062 335.14062Q220.51562 334.98438 221.76562 334.82812Q224.32812 334.51562 225.53125 334.09375Q225.54688 333.67188 225.54688 333.54688Q225.54688 332.26562 224.9375 331.73438Q224.14062 331.01562 222.54688 331.01562Q221.04688 331.01562 220.34375 331.54688Q219.64062 332.0625 219.29688 333.39062L217.23438 333.10938Q217.51562 331.78125 218.15625 330.96875Q218.79688 330.15625 220.01562 329.71875Q221.23438 329.26562 222.84375 329.26562Q224.4375 329.26562 225.4375 329.64062Q226.4375 330.01562 226.90625 330.59375Q227.375 331.15625 227.5625 332.03125Q227.65625 332.5625 227.65625 333.96875L227.65625 336.78125Q227.65625 339.71875 227.79688 340.5Q227.9375 341.28125 228.32812 342.0L226.125 342.0Q225.79688 341.34375 225.70312 340.46875ZM225.53125 335.75Q224.375 336.21875 222.07812 336.54688Q220.78125 336.73438 220.23438 336.96875Q219.70312 337.20312 219.40625 337.65625Q219.125 338.10938 219.125 338.65625Q219.125 339.5 219.75 340.0625Q220.39062 340.625 221.625 340.625Q222.84375 340.625 223.79688 340.09375Q224.75 339.5625 225.1875 338.64062Q225.53125 337.92188 225.53125 336.53125L225.53125 335.75ZM230.59375 327.25L230.59375 324.8125L232.70312 324.8125L232.70312 327.25L230.59375 327.25ZM230.59375 342.0L230.59375 329.54688L232.70312 329.54688L232.70312 342.0L230.59375 342.0ZM235.57812 342.0L235.57812 329.54688L237.48438 329.54688L237.48438 331.32812Q238.85938 329.26562 241.4375 329.26562Q242.5625 329.26562 243.5 329.67188Q244.45312 330.07812 244.92188 330.73438Q245.39062 331.39062 245.57812 332.29688Q245.70312 332.875 245.70312 334.34375L245.70312 342.0L243.59375 342.0L243.59375 334.42188Q243.59375 333.14062 243.34375 332.5Q243.09375 331.85938 242.46875 331.48438Q241.84375 331.09375 241.0 331.09375Q239.65625 331.09375 238.67188 331.95312Q237.6875 332.8125 237.6875 335.20312L237.6875 342.0L235.57812 342.0ZM249.14062 342.0L249.14062 339.59375L251.53125 339.59375L251.53125 342.0Q251.53125 343.32812 251.0625 344.14062Q250.59375 344.95312 249.57812 345.40625L249.0 344.5Q249.65625 344.20312 249.96875 343.625Q250.29688 343.0625 250.32812 342.0L249.14062 342.0ZM270.73438 342.0L270.73438 340.17188Q269.28125 342.28125 266.79688 342.28125Q265.6875 342.28125 264.73438 341.85938Q263.78125 341.4375 263.3125 340.79688Q262.85938 340.15625 262.67188 339.23438Q262.53125 338.60938 262.53125 337.26562L262.53125 329.54688L264.64062 329.54688L264.64062 336.45312Q264.64062 338.10938 264.78125 338.6875Q264.96875 339.51562 265.60938 340.0Q266.26562 340.46875 267.21875 340.46875Q268.15625 340.46875 268.98438 339.98438Q269.82812 339.48438 270.17188 338.65625Q270.51562 337.8125 270.51562 336.21875L270.51562 329.54688L272.625 329.54688L272.625 342.0L270.73438 342.0ZM275.57812 342.0L275.57812 329.54688L277.48438 329.54688L277.48438 331.32812Q278.85938 329.26562 281.4375 329.26562Q282.5625 329.26562 283.5 329.67188Q284.45312 330.07812 284.92188 330.73438Q285.39062 331.39062 285.57812 332.29688Q285.70312 332.875 285.70312 334.34375L285.70312 342.0L283.59375 342.0L283.59375 334.42188Q283.59375 333.14062 283.34375 332.5Q283.09375 331.85938 282.46875 331.48438Q281.84375 331.09375 281.0 331.09375Q279.65625 331.09375 278.67188 331.95312Q277.6875 332.8125 277.6875 335.20312L277.6875 342.0L275.57812 342.0ZM297.10938 337.98438L299.28125 338.26562Q298.76562 340.17188 297.375 341.23438Q295.98438 342.28125 293.8125 342.28125Q291.07812 342.28125 289.46875 340.60938Q287.875 338.92188 287.875 335.875Q287.875 332.73438 289.48438 331.0Q291.10938 329.26562 293.6875 329.26562Q296.1875 329.26562 297.76562 330.96875Q299.35938 332.67188 299.35938 335.75Q299.35938 335.9375 299.34375 336.3125L290.0625 336.3125Q290.17188 338.35938 291.21875 339.45312Q292.26562 340.54688 293.82812 340.54688Q294.98438 340.54688 295.79688 339.9375Q296.625 339.32812 297.10938 337.98438ZM290.17188 334.57812L297.125 334.57812Q296.98438 333.01562 296.32812 332.21875Q295.32812 331.0 293.71875 331.0Q292.26562 331.0 291.26562 331.98438Q290.28125 332.95312 290.17188 334.57812ZM308.57812 346.76562L308.57812 329.54688L310.5 329.54688L310.5 331.17188Q311.1875 330.21875 312.03125 329.75Q312.89062 329.26562 314.10938 329.26562Q315.70312 329.26562 316.92188 330.09375Q318.14062 330.90625 318.76562 332.40625Q319.39062 333.90625 319.39062 335.6875Q319.39062 337.59375 318.70312 339.125Q318.01562 340.65625 316.70312 341.46875Q315.40625 342.28125 313.96875 342.28125Q312.90625 342.28125 312.0625 341.84375Q311.23438 341.39062 310.6875 340.70312L310.6875 346.76562L308.57812 346.76562ZM310.5 335.84375Q310.5 338.25 311.46875 339.40625Q312.4375 340.54688 313.82812 340.54688Q315.23438 340.54688 316.23438 339.35938Q317.23438 338.17188 317.23438 335.67188Q317.23438 333.29688 316.25 332.10938Q315.28125 330.92188 313.92188 330.92188Q312.5625 330.92188 311.53125 332.1875Q310.5 333.4375 310.5 335.84375ZM330.10938 337.98438L332.28125 338.26562Q331.76562 340.17188 330.375 341.23438Q328.98438 342.28125 326.8125 342.28125Q324.07812 342.28125 322.46875 340.60938Q320.875 338.92188 320.875 335.875Q320.875 332.73438 322.48438 331.0Q324.10938 329.26562 326.6875 329.26562Q329.1875 329.26562 330.76562 330.96875Q332.35938 332.67188 332.35938 335.75Q332.35938 335.9375 332.34375 336.3125L323.0625 336.3125Q323.17188 338.35938 324.21875 339.45312Q325.26562 340.54688 326.82812 340.54688Q327.98438 340.54688 328.79688 339.9375Q329.625 339.32812 330.10938 337.98438ZM323.17188 334.57812L330.125 334.57812Q329.98438 333.01562 329.32812 332.21875Q328.32812 331.0 326.71875 331.0Q325.26562 331.0 324.26562 331.98438Q323.28125 332.95312 323.17188 334.57812ZM334.5625 342.0L334.5625 329.54688L336.45312 329.54688L336.45312 331.4375Q337.1875 330.10938 337.79688 329.6875Q338.42188 329.26562 339.15625 329.26562Q340.21875 329.26562 341.32812 329.95312L340.59375 331.90625Q339.82812 331.45312 339.04688 331.45312Q338.35938 331.45312 337.79688 331.875Q337.25 332.28125 337.01562 333.01562Q336.67188 334.14062 336.67188 335.48438L336.67188 342.0L334.5625 342.0ZM341.73438 338.28125L343.82812 337.95312Q344.0 339.20312 344.79688 339.875Q345.60938 340.54688 347.04688 340.54688Q348.5 340.54688 349.20312 339.95312Q349.90625 339.35938 349.90625 338.5625Q349.90625 337.84375 349.28125 337.4375Q348.85938 337.15625 347.125 336.71875Q344.8125 336.14062 343.90625 335.71875Q343.01562 335.28125 342.54688 334.53125Q342.09375 333.76562 342.09375 332.85938Q342.09375 332.03125 342.46875 331.32812Q342.85938 330.60938 343.51562 330.14062Q344.0 329.78125 344.84375 329.53125Q345.70312 329.26562 346.67188 329.26562Q348.14062 329.26562 349.25 329.6875Q350.35938 330.10938 350.875 330.84375Q351.40625 331.5625 351.60938 332.76562L349.54688 333.04688Q349.40625 332.07812 348.73438 331.54688Q348.0625 331.0 346.82812 331.0Q345.375 331.0 344.75 331.48438Q344.125 331.96875 344.125 332.60938Q344.125 333.01562 344.39062 333.34375Q344.64062 333.6875 345.20312 333.90625Q345.51562 334.03125 347.0625 334.45312Q349.29688 335.04688 350.17188 335.4375Q351.0625 335.8125 351.5625 336.54688Q352.07812 337.26562 352.07812 338.34375Q352.07812 339.39062 351.45312 340.32812Q350.84375 341.26562 349.6875 341.78125Q348.53125 342.28125 347.0625 342.28125Q344.64062 342.28125 343.35938 341.28125Q342.09375 340.26562 341.73438 338.28125ZM353.79688 335.78125Q353.79688 332.3125 355.71875 330.65625Q357.32812 329.26562 359.64062 329.26562Q362.20312 329.26562 363.82812 330.95312Q365.45312 332.64062 365.45312 335.59375Q365.45312 338.0 364.73438 339.375Q364.01562 340.75 362.64062 341.51562Q361.26562 342.28125 359.64062 342.28125Q357.01562 342.28125 355.40625 340.60938Q353.79688 338.92188 353.79688 335.78125ZM355.96875 335.78125Q355.96875 338.17188 357.0 339.35938Q358.04688 340.54688 359.64062 340.54688Q361.20312 340.54688 362.25 339.35938Q363.29688 338.15625 363.29688 335.70312Q363.29688 333.39062 362.23438 332.20312Q361.1875 331.01562 359.64062 331.01562Q358.04688 331.01562 357.0 332.20312Q355.96875 333.39062 355.96875 335.78125ZM367.57812 342.0L367.57812 329.54688L369.48438 329.54688L369.48438 331.32812Q370.85938 329.26562 373.4375 329.26562Q374.5625 329.26562 375.5 329.67188Q376.45312 330.07812 376.92188 330.73438Q377.39062 331.39062 377.57812 332.29688Q377.70312 332.875 377.70312 334.34375L377.70312 342.0L375.59375 342.0L375.59375 334.42188Q375.59375 333.14062 375.34375 332.5Q375.09375 331.85938 374.46875 331.48438Q373.84375 331.09375 373.0 331.09375Q371.65625 331.09375 370.67188 331.95312Q369.6875 332.8125 369.6875 335.20312L369.6875 342.0L367.57812 342.0ZM380.57812 342.0L380.57812 329.54688L382.48438 329.54688L382.48438 331.32812Q383.85938 329.26562 386.4375 329.26562Q387.5625 329.26562 388.5 329.67188Q389.45312 330.07812 389.92188 330.73438Q390.39062 331.39062 390.57812 332.29688Q390.70312 332.875 390.70312 334.34375L390.70312 342.0L388.59375 342.0L388.59375 334.42188Q388.59375 333.14062 388.34375 332.5Q388.09375 331.85938 387.46875 331.48438Q386.84375 331.09375 386.0 331.09375Q384.65625 331.09375 383.67188 331.95312Q382.6875 332.8125 382.6875 335.20312L382.6875 342.0L380.57812 342.0ZM402.10938 337.98438L404.28125 338.26562Q403.76562 340.17188 402.375 341.23438Q400.98438 342.28125 398.8125 342.28125Q396.07812 342.28125 394.46875 340.60938Q392.875 338.92188 392.875 335.875Q392.875 332.73438 394.48438 331.0Q396.10938 329.26562 398.6875 329.26562Q401.1875 329.26562 402.76562 330.96875Q404.35938 332.67188 404.35938 335.75Q404.35938 335.9375 404.34375 336.3125L395.0625 336.3125Q395.17188 338.35938 396.21875 339.45312Q397.26562 340.54688 398.82812 340.54688Q399.98438 340.54688 400.79688 339.9375Q401.625 339.32812 402.10938 337.98438ZM395.17188 334.57812L402.125 334.57812Q401.98438 333.01562 401.32812 332.21875Q400.32812 331.0 398.71875 331.0Q397.26562 331.0 396.26562 331.98438Q395.28125 332.95312 395.17188 334.57812ZM413.57812 342.0L413.57812 329.54688L415.46875 329.54688L415.46875 331.29688Q416.0625 330.39062 417.03125 329.82812Q418.0 329.26562 419.25 329.26562Q420.625 329.26562 421.5 329.84375Q422.39062 330.42188 422.76562 331.45312Q424.23438 329.26562 426.60938 329.26562Q428.45312 329.26562 429.45312 330.29688Q430.45312 331.32812 430.45312 333.45312L430.45312 342.0L428.34375 342.0L428.34375 334.15625Q428.34375 332.89062 428.14062 332.34375Q427.9375 331.78125 427.39062 331.4375Q426.85938 331.09375 426.14062 331.09375Q424.82812 331.09375 423.95312 331.96875Q423.09375 332.84375 423.09375 334.76562L423.09375 342.0L420.98438 342.0L420.98438 333.90625Q420.98438 332.5 420.46875 331.79688Q419.95312 331.09375 418.78125 331.09375Q417.89062 331.09375 417.125 331.5625Q416.375 332.03125 416.03125 332.9375Q415.6875 333.84375 415.6875 335.54688L415.6875 342.0L413.57812 342.0ZM442.10938 337.98438L444.28125 338.26562Q443.76562 340.17188 442.375 341.23438Q440.98438 342.28125 438.8125 342.28125Q436.07812 342.28125 434.46875 340.60938Q432.875 338.92188 432.875 335.875Q432.875 332.73438 434.48438 331.0Q436.10938 329.26562 438.6875 329.26562Q441.1875 329.26562 442.76562 330.96875Q444.35938 332.67188 444.35938 335.75Q444.35938 335.9375 444.34375 336.3125L435.0625 336.3125Q435.17188 338.35938 436.21875 339.45312Q437.26562 340.54688 438.82812 340.54688Q439.98438 340.54688 440.79688 339.9375Q441.625 339.32812 442.10938 337.98438ZM435.17188 334.57812L442.125 334.57812Q441.98438 333.01562 441.32812 332.21875Q440.32812 331.0 438.71875 331.0Q437.26562 331.0 436.26562 331.98438Q435.28125 332.95312 435.17188 334.57812ZM454.73438 342.0L454.73438 340.17188Q453.28125 342.28125 450.79688 342.28125Q449.6875 342.28125 448.73438 341.85938Q447.78125 341.4375 447.3125 340.79688Q446.85938 340.15625 446.67188 339.23438Q446.53125 338.60938 446.53125 337.26562L446.53125 329.54688L448.64062 329.54688L448.64062 336.45312Q448.64062 338.10938 448.78125 338.6875Q448.96875 339.51562 449.60938 340.0Q450.26562 340.46875 451.21875 340.46875Q452.15625 340.46875 452.98438 339.98438Q453.82812 339.48438 454.17188 338.65625Q454.51562 337.8125 454.51562 336.21875L454.51562 329.54688L456.625 329.54688L456.625 342.0L454.73438 342.0ZM459.5625 342.0L459.5625 329.54688L461.45312 329.54688L461.45312 331.4375Q462.1875 330.10938 462.79688 329.6875Q463.42188 329.26562 464.15625 329.26562Q465.21875 329.26562 466.32812 329.95312L465.59375 331.90625Q464.82812 331.45312 464.04688 331.45312Q463.35938 331.45312 462.79688 331.875Q462.25 332.28125 462.01562 333.01562Q461.67188 334.14062 461.67188 335.48438L461.67188 342.0L459.5625 342.0ZM472.1875 340.10938L472.5 341.96875Q471.60938 342.17188 470.90625 342.17188Q469.75 342.17188 469.10938 341.8125Q468.48438 341.4375 468.21875 340.84375Q467.96875 340.25 467.96875 338.35938L467.96875 331.1875L466.42188 331.1875L466.42188 329.54688L467.96875 329.54688L467.96875 326.46875L470.0625 325.20312L470.0625 329.54688L472.1875 329.54688L472.1875 331.1875L470.0625 331.1875L470.0625 338.46875Q470.0625 339.375 470.17188 339.64062Q470.29688 339.89062 470.54688 340.04688Q470.79688 340.1875 471.26562 340.1875Q471.60938 340.1875 472.1875 340.10938Z" fill-rule="nonzero"/><path fill="#ea4335" d="M42.0 366.0C42.0 369.31372 39.31371 372.0 36.0 372.0C32.68629 372.0 30.0 369.31372 30.0 366.0C30.0 362.68628 32.68629 360.0 36.0 360.0C39.31371 360.0 42.0 362.68628 42.0 366.0Z" fill-rule="nonzero"/><path fill="#1a1a1a" d="M56.765625 374.0L50.109375 356.8125L52.5625 356.8125L57.03125 369.29688Q57.578125 370.79688 57.9375 372.10938Q58.328125 370.70312 58.859375 369.29688L63.5 356.8125L65.828125 356.8125L59.09375 374.0L56.765625 374.0ZM66.796875 367.78125Q66.796875 364.3125 68.71875 362.65625Q70.328125 361.26562 72.640625 361.26562Q75.203125 361.26562 76.828125 362.95312Q78.453125 364.64062 78.453125 367.59375Q78.453125 370.0 77.734375 371.375Q77.015625 372.75 75.640625 373.51562Q74.265625 374.28125 72.640625 374.28125Q70.015625 374.28125 68.40625 372.60938Q66.796875 370.92188 66.796875 367.78125ZM68.96875 367.78125Q68.96875 370.17188 70.0 371.35938Q71.046875 372.54688 72.640625 372.54688Q74.203125 372.54688 75.25 371.35938Q76.296875 370.15625 76.296875 367.70312Q76.296875 365.39062 75.234375 364.20312Q74.1875 363.01562 72.640625 363.01562Q71.046875 363.01562 70.0 364.20312Q68.96875 365.39062 68.96875 367.78125ZM88.734375 374.0L88.734375 372.17188Q87.28125 374.28125 84.796875 374.28125Q83.6875 374.28125 82.734375 373.85938Q81.78125 373.4375 81.3125 372.79688Q80.859375 372.15625 80.671875 371.23438Q80.53125 370.60938 80.53125 369.26562L80.53125 361.54688L82.640625 361.54688L82.640625 368.45312Q82.640625 370.10938 82.78125 370.6875Q82.96875 371.51562 83.609375 372.0Q84.265625 372.46875 85.21875 372.46875Q86.15625 372.46875 86.984375 371.98438Q87.828125 371.48438 88.171875 370.65625Q88.515625 369.8125 88.515625 368.21875L88.515625 361.54688L90.625 361.54688L90.625 374.0L88.734375 374.0ZM92.734375 370.28125L94.828125 369.95312Q95.0 371.20312 95.796875 371.875Q96.609375 372.54688 98.046875 372.54688Q99.5 372.54688 100.203125 371.95312Q100.90625 371.35938 100.90625 370.5625Q100.90625 369.84375 100.28125 369.4375Q99.859375 369.15625 98.125 368.71875Q95.8125 368.14062 94.90625 367.71875Q94.015625 367.28125 93.546875 366.53125Q93.09375 365.76562 93.09375 364.85938Q93.09375 364.03125 93.46875 363.32812Q93.859375 362.60938 94.515625 362.14062Q95.0 361.78125 95.84375 361.53125Q96.703125 361.26562 97.671875 361.26562Q99.140625 361.26562 100.25 361.6875Q101.359375 362.10938 101.875 362.84375Q102.40625 363.5625 102.609375 364.76562L100.546875 365.04688Q100.40625 364.07812 99.734375 363.54688Q99.0625 363.0 97.828125 363.0Q96.375 363.0 95.75 363.48438Q95.125 363.96875 95.125 364.60938Q95.125 365.01562 95.390625 365.34375Q95.640625 365.6875 96.203125 365.90625Q96.515625 366.03125 98.0625 366.45312Q100.296875 367.04688 101.171875 367.4375Q102.0625 367.8125 102.5625 368.54688Q103.078125 369.26562 103.078125 370.34375Q103.078125 371.39062 102.453125 372.32812Q101.84375 373.26562 100.6875 373.78125Q99.53125 374.28125 98.0625 374.28125Q95.640625 374.28125 94.359375 373.28125Q93.09375 372.26562 92.734375 370.28125ZM112.578125 374.0L112.578125 361.54688L114.484375 361.54688L114.484375 363.32812Q115.859375 361.26562 118.4375 361.26562Q119.5625 361.26562 120.5 361.67188Q121.453125 362.07812 121.921875 362.73438Q122.390625 363.39062 122.578125 364.29688Q122.703125 364.875 122.703125 366.34375L122.703125 374.0L120.59375 374.0L120.59375 366.42188Q120.59375 365.14062 120.34375 364.5Q120.09375 363.85938 119.46875 363.48438Q118.84375 363.09375 118.0 363.09375Q116.65625 363.09375 115.671875 363.95312Q114.6875 364.8125 114.6875 367.20312L114.6875 374.0L112.578125 374.0ZM134.10938 369.98438L136.28125 370.26562Q135.76562 372.17188 134.375 373.23438Q132.98438 374.28125 130.8125 374.28125Q128.07812 374.28125 126.46875 372.60938Q124.875 370.92188 124.875 367.875Q124.875 364.73438 126.484375 363.0Q128.10938 361.26562 130.6875 361.26562Q133.1875 361.26562 134.76562 362.96875Q136.35938 364.67188 136.35938 367.75Q136.35938 367.9375 136.34375 368.3125L127.0625 368.3125Q127.171875 370.35938 128.21875 371.45312Q129.26562 372.54688 130.82812 372.54688Q131.98438 372.54688 132.79688 371.9375Q133.625 371.32812 134.10938 369.98438ZM127.171875 366.57812L134.125 366.57812Q133.98438 365.01562 133.32812 364.21875Q132.32812 363.0 130.71875 363.0Q129.26562 363.0 128.26562 363.98438Q127.28125 364.95312 127.171875 366.57812ZM153.65625 374.0L153.65625 372.42188Q152.46875 374.28125 150.17188 374.28125Q148.6875 374.28125 147.4375 373.46875Q146.1875 372.64062 145.5 371.17188Q144.82812 369.70312 144.82812 367.78125Q144.82812 365.92188 145.4375 364.40625Q146.0625 362.89062 147.29688 362.07812Q148.54688 361.26562 150.07812 361.26562Q151.20312 361.26562 152.07812 361.75Q152.96875 362.21875 153.51562 362.98438L153.51562 356.8125L155.60938 356.8125L155.60938 374.0L153.65625 374.0ZM146.98438 367.78125Q146.98438 370.17188 147.98438 371.35938Q149.0 372.54688 150.375 372.54688Q151.76562 372.54688 152.71875 371.42188Q153.6875 370.28125 153.6875 367.96875Q153.6875 365.40625 152.70312 364.21875Q151.71875 363.01562 150.28125 363.01562Q148.875 363.01562 147.92188 364.17188Q146.98438 365.3125 146.98438 367.78125ZM167.10938 369.98438L169.28125 370.26562Q168.76562 372.17188 167.375 373.23438Q165.98438 374.28125 163.8125 374.28125Q161.07812 374.28125 159.46875 372.60938Q157.875 370.92188 157.875 367.875Q157.875 364.73438 159.48438 363.0Q161.10938 361.26562 163.6875 361.26562Q166.1875 361.26562 167.76562 362.96875Q169.35938 364.67188 169.35938 367.75Q169.35938 367.9375 169.34375 368.3125L160.0625 368.3125Q160.17188 370.35938 161.21875 371.45312Q162.26562 372.54688 163.82812 372.54688Q164.98438 372.54688 165.79688 371.9375Q166.625 371.32812 167.10938 369.98438ZM160.17188 366.57812L167.125 366.57812Q166.98438 365.01562 166.32812 364.21875Q165.32812 363.0 163.71875 363.0Q162.26562 363.0 161.26562 363.98438Q160.28125 364.95312 160.17188 366.57812ZM162.60938 360.0L164.15625 356.71875L166.92188 356.71875L164.34375 360.0L162.60938 360.0ZM175.04688 374.0L170.3125 361.54688L172.53125 361.54688L175.20312 369.0Q175.64062 370.21875 176.0 371.51562Q176.28125 370.53125 176.78125 369.14062L179.54688 361.54688L181.71875 361.54688L177.01562 374.0L175.04688 374.0ZM183.59375 359.25L183.59375 356.8125L185.70312 356.8125L185.70312 359.25L183.59375 359.25ZM183.59375 374.0L183.59375 361.54688L185.70312 361.54688L185.70312 374.0L183.59375 374.0ZM197.10938 369.98438L199.28125 370.26562Q198.76562 372.17188 197.375 373.23438Q195.98438 374.28125 193.8125 374.28125Q191.07812 374.28125 189.46875 372.60938Q187.875 370.92188 187.875 367.875Q187.875 364.73438 189.48438 363.0Q191.10938 361.26562 193.6875 361.26562Q196.1875 361.26562 197.76562 362.96875Q199.35938 364.67188 199.35938 367.75Q199.35938 367.9375 199.34375 368.3125L190.0625 368.3125Q190.17188 370.35938 191.21875 371.45312Q192.26562 372.54688 193.82812 372.54688Q194.98438 372.54688 195.79688 371.9375Q196.625 371.32812 197.10938 369.98438ZM190.17188 366.57812L197.125 366.57812Q196.98438 365.01562 196.32812 364.21875Q195.32812 363.0 193.71875 363.0Q192.26562 363.0 191.26562 363.98438Q190.28125 364.95312 190.17188 366.57812ZM200.46875 374.0L200.46875 372.28125L208.39062 363.1875Q207.04688 363.26562 206.01562 363.26562L200.9375 363.26562L200.9375 361.54688L211.10938 361.54688L211.10938 362.95312L204.375 370.84375L203.07812 372.28125Q204.48438 372.1875 205.73438 372.1875L211.48438 372.1875L211.48438 374.0L200.46875 374.0ZM220.57812 378.76562L220.57812 361.54688L222.5 361.54688L222.5 363.17188Q223.1875 362.21875 224.03125 361.75Q224.89062 361.26562 226.10938 361.26562Q227.70312 361.26562 228.92188 362.09375Q230.14062 362.90625 230.76562 364.40625Q231.39062 365.90625 231.39062 367.6875Q231.39062 369.59375 230.70312 371.125Q230.01562 372.65625 228.70312 373.46875Q227.40625 374.28125 225.96875 374.28125Q224.90625 374.28125 224.0625 373.84375Q223.23438 373.39062 222.6875 372.70312L222.6875 378.76562L220.57812 378.76562ZM222.5 367.84375Q222.5 370.25 223.46875 371.40625Q224.4375 372.54688 225.82812 372.54688Q227.23438 372.54688 228.23438 371.35938Q229.23438 370.17188 229.23438 367.67188Q229.23438 365.29688 228.25 364.10938Q227.28125 362.92188 225.92188 362.92188Q224.5625 362.92188 223.53125 364.1875Q222.5 365.4375 222.5 367.84375ZM241.70312 372.46875Q240.53125 373.45312 239.4375 373.875Q238.35938 374.28125 237.125 374.28125Q235.07812 374.28125 233.96875 373.28125Q232.875 372.28125 232.875 370.71875Q232.875 369.79688 233.28125 369.04688Q233.70312 368.29688 234.375 367.84375Q235.04688 367.375 235.89062 367.14062Q236.51562 366.98438 237.76562 366.82812Q240.32812 366.51562 241.53125 366.09375Q241.54688 365.67188 241.54688 365.54688Q241.54688 364.26562 240.9375 363.73438Q240.14062 363.01562 238.54688 363.01562Q237.04688 363.01562 236.34375 363.54688Q235.64062 364.0625 235.29688 365.39062L233.23438 365.10938Q233.51562 363.78125 234.15625 362.96875Q234.79688 362.15625 236.01562 361.71875Q237.23438 361.26562 238.84375 361.26562Q240.4375 361.26562 241.4375 361.64062Q242.4375 362.01562 242.90625 362.59375Q243.375 363.15625 243.5625 364.03125Q243.65625 364.5625 243.65625 365.96875L243.65625 368.78125Q243.65625 371.71875 243.79688 372.5Q243.9375 373.28125 244.32812 374.0L242.125 374.0Q241.79688 373.34375 241.70312 372.46875ZM241.53125 367.75Q240.375 368.21875 238.07812 368.54688Q236.78125 368.73438 236.23438 368.96875Q235.70312 369.20312 235.40625 369.65625Q235.125 370.10938 235.125 370.65625Q235.125 371.5 235.75 372.0625Q236.39062 372.625 237.625 372.625Q238.84375 372.625 239.79688 372.09375Q240.75 371.5625 241.1875 370.64062Q241.53125 369.92188 241.53125 368.53125L241.53125 367.75ZM245.73438 370.28125L247.82812 369.95312Q248.0 371.20312 248.79688 371.875Q249.60938 372.54688 251.04688 372.54688Q252.5 372.54688 253.20312 371.95312Q253.90625 371.35938 253.90625 370.5625Q253.90625 369.84375 253.28125 369.4375Q252.85938 369.15625 251.125 368.71875Q248.8125 368.14062 247.90625 367.71875Q247.01562 367.28125 246.54688 366.53125Q246.09375 365.76562 246.09375 364.85938Q246.09375 364.03125 246.46875 363.32812Q246.85938 362.60938 247.51562 362.14062Q248.0 361.78125 248.84375 361.53125Q249.70312 361.26562 250.67188 361.26562Q252.14062 361.26562 253.25 361.6875Q254.35938 362.10938 254.875 362.84375Q255.40625 363.5625 255.60938 364.76562L253.54688 365.04688Q253.40625 364.07812 252.73438 363.54688Q252.0625 363.0 250.82812 363.0Q249.375 363.0 248.75 363.48438Q248.125 363.96875 248.125 364.60938Q248.125 365.01562 248.39062 365.34375Q248.64062 365.6875 249.20312 365.90625Q249.51562 366.03125 251.0625 366.45312Q253.29688 367.04688 254.17188 367.4375Q255.0625 367.8125 255.5625 368.54688Q256.07812 369.26562 256.07812 370.34375Q256.07812 371.39062 255.45312 372.32812Q254.84375 373.26562 253.6875 373.78125Q252.53125 374.28125 251.0625 374.28125Q248.64062 374.28125 247.35938 373.28125Q246.09375 372.26562 245.73438 370.28125ZM265.53125 374.0L265.53125 356.8125L267.64062 356.8125L267.64062 374.0L265.53125 374.0ZM279.10938 369.98438L281.28125 370.26562Q280.76562 372.17188 279.375 373.23438Q277.98438 374.28125 275.8125 374.28125Q273.07812 374.28125 271.46875 372.60938Q269.875 370.92188 269.875 367.875Q269.875 364.73438 271.48438 363.0Q273.10938 361.26562 275.6875 361.26562Q278.1875 361.26562 279.76562 362.96875Q281.35938 364.67188 281.35938 367.75Q281.35938 367.9375 281.34375 368.3125L272.0625 368.3125Q272.17188 370.35938 273.21875 371.45312Q274.26562 372.54688 275.82812 372.54688Q276.98438 372.54688 277.79688 371.9375Q278.625 371.32812 279.10938 369.98438ZM272.17188 366.57812L279.125 366.57812Q278.98438 365.01562 278.32812 364.21875Q277.32812 363.0 275.71875 363.0Q274.26562 363.0 273.26562 363.98438Q272.28125 364.95312 272.17188 366.57812ZM295.1875 372.10938L295.5 373.96875Q294.60938 374.17188 293.90625 374.17188Q292.75 374.17188 292.10938 373.8125Q291.48438 373.4375 291.21875 372.84375Q290.96875 372.25 290.96875 370.35938L290.96875 363.1875L289.42188 363.1875L289.42188 361.54688L290.96875 361.54688L290.96875 358.46875L293.0625 357.20312L293.0625 361.54688L295.1875 361.54688L295.1875 363.1875L293.0625 363.1875L293.0625 370.46875Q293.0625 371.375 293.17188 371.64062Q293.29688 371.89062 293.54688 372.04688Q293.79688 372.1875 294.26562 372.1875Q294.60938 372.1875 295.1875 372.10938ZM297.5625 374.0L297.5625 361.54688L299.45312 361.54688L299.45312 363.4375Q300.1875 362.10938 300.79688 361.6875Q301.42188 361.26562 302.15625 361.26562Q303.21875 361.26562 304.32812 361.95312L303.59375 363.90625Q302.82812 363.45312 302.04688 363.45312Q301.35938 363.45312 300.79688 363.875Q300.25 364.28125 300.01562 365.01562Q299.67188 366.14062 299.67188 367.48438L299.67188 374.0L297.5625 374.0ZM313.70312 372.46875Q312.53125 373.45312 311.4375 373.875Q310.35938 374.28125 309.125 374.28125Q307.07812 374.28125 305.96875 373.28125Q304.875 372.28125 304.875 370.71875Q304.875 369.79688 305.28125 369.04688Q305.70312 368.29688 306.375 367.84375Q307.04688 367.375 307.89062 367.14062Q308.51562 366.98438 309.76562 366.82812Q312.32812 366.51562 313.53125 366.09375Q313.54688 365.67188 313.54688 365.54688Q313.54688 364.26562 312.9375 363.73438Q312.14062 363.01562 310.54688 363.01562Q309.04688 363.01562 308.34375 363.54688Q307.64062 364.0625 307.29688 365.39062L305.23438 365.10938Q305.51562 363.78125 306.15625 362.96875Q306.79688 362.15625 308.01562 361.71875Q309.23438 361.26562 310.84375 361.26562Q312.4375 361.26562 313.4375 361.64062Q314.4375 362.01562 314.90625 362.59375Q315.375 363.15625 315.5625 364.03125Q315.65625 364.5625 315.65625 365.96875L315.65625 368.78125Q315.65625 371.71875 315.79688 372.5Q315.9375 373.28125 316.32812 374.0L314.125 374.0Q313.79688 373.34375 313.70312 372.46875ZM313.53125 367.75Q312.375 368.21875 310.07812 368.54688Q308.78125 368.73438 308.23438 368.96875Q307.70312 369.20312 307.40625 369.65625Q307.125 370.10938 307.125 370.65625Q307.125 371.5 307.75 372.0625Q308.39062 372.625 309.625 372.625Q310.84375 372.625 311.79688 372.09375Q312.75 371.5625 313.1875 370.64062Q313.53125 369.92188 313.53125 368.53125L313.53125 367.75ZM318.59375 359.25L318.59375 356.8125L320.70312 356.8125L320.70312 359.25L318.59375 359.25ZM318.59375 374.0L318.59375 361.54688L320.70312 361.54688L320.70312 374.0L318.59375 374.0ZM323.57812 374.0L323.57812 361.54688L325.48438 361.54688L325.48438 363.32812Q326.85938 361.26562 329.4375 361.26562Q330.5625 361.26562 331.5 361.67188Q332.45312 362.07812 332.92188 362.73438Q333.39062 363.39062 333.57812 364.29688Q333.70312 364.875 333.70312 366.34375L333.70312 374.0L331.59375 374.0L331.59375 366.42188Q331.59375 365.14062 331.34375 364.5Q331.09375 363.85938 330.46875 363.48438Q329.84375 363.09375 329.0 363.09375Q327.65625 363.09375 326.67188 363.95312Q325.6875 364.8125 325.6875 367.20312L325.6875 374.0L323.57812 374.0ZM337.14062 374.0L337.14062 371.59375L339.53125 371.59375L339.53125 374.0Q339.53125 375.32812 339.0625 376.14062Q338.59375 376.95312 337.57812 377.40625L337.0 376.5Q337.65625 376.20312 337.96875 375.625Q338.29688 375.0625 338.32812 374.0L337.14062 374.0ZM358.70312 369.4375L360.78125 369.70312Q360.4375 371.85938 359.03125 373.07812Q357.64062 374.28125 355.59375 374.28125Q353.04688 374.28125 351.48438 372.60938Q349.9375 370.9375 349.9375 367.82812Q349.9375 365.8125 350.60938 364.29688Q351.28125 362.78125 352.64062 362.03125Q354.0 361.26562 355.60938 361.26562Q357.64062 361.26562 358.92188 362.29688Q360.21875 363.32812 360.57812 365.20312L358.53125 365.53125Q358.23438 364.26562 357.48438 363.64062Q356.75 363.0 355.6875 363.0Q354.09375 363.0 353.09375 364.15625Q352.10938 365.29688 352.10938 367.76562Q352.10938 370.26562 353.0625 371.40625Q354.03125 372.54688 355.57812 372.54688Q356.8125 372.54688 357.64062 371.78125Q358.48438 371.01562 358.70312 369.4375ZM362.59375 359.25L362.59375 356.8125L364.70312 356.8125L364.70312 359.25L362.59375 359.25ZM362.59375 374.0L362.59375 361.54688L364.70312 361.54688L364.70312 374.0L362.59375 374.0ZM367.57812 374.0L367.57812 361.54688L369.48438 361.54688L369.48438 363.32812Q370.85938 361.26562 373.4375 361.26562Q374.5625 361.26562 375.5 361.67188Q376.45312 362.07812 376.92188 362.73438Q377.39062 363.39062 377.57812 364.29688Q377.70312 364.875 377.70312 366.34375L377.70312 374.0L375.59375 374.0L375.59375 366.42188Q375.59375 365.14062 375.34375 364.5Q375.09375 363.85938 374.46875 363.48438Q373.84375 363.09375 373.0 363.09375Q371.65625 363.09375 370.67188 363.95312Q369.6875 364.8125 369.6875 367.20312L369.6875 374.0L367.57812 374.0ZM388.51562 378.76562L388.51562 372.67188Q388.03125 373.35938 387.14062 373.82812Q386.25 374.28125 385.26562 374.28125Q383.04688 374.28125 381.4375 372.51562Q379.84375 370.73438 379.84375 367.65625Q379.84375 365.78125 380.48438 364.29688Q381.14062 362.8125 382.375 362.04688Q383.625 361.26562 385.09375 361.26562Q387.40625 361.26562 388.73438 363.21875L388.73438 361.54688L390.625 361.54688L390.625 378.76562L388.51562 378.76562ZM382.01562 367.73438Q382.01562 370.14062 383.01562 371.34375Q384.03125 372.54688 385.4375 372.54688Q386.78125 372.54688 387.75 371.40625Q388.73438 370.26562 388.73438 367.92188Q388.73438 365.4375 387.70312 364.1875Q386.67188 362.9375 385.29688 362.9375Q383.92188 362.9375 382.96875 364.10938Q382.01562 365.26562 382.01562 367.73438ZM400.57812 378.76562L400.57812 361.54688L402.5 361.54688L402.5 363.17188Q403.1875 362.21875 404.03125 361.75Q404.89062 361.26562 406.10938 361.26562Q407.70312 361.26562 408.92188 362.09375Q410.14062 362.90625 410.76562 364.40625Q411.39062 365.90625 411.39062 367.6875Q411.39062 369.59375 410.70312 371.125Q410.01562 372.65625 408.70312 373.46875Q407.40625 374.28125 405.96875 374.28125Q404.90625 374.28125 404.0625 373.84375Q403.23438 373.39062 402.6875 372.70312L402.6875 378.76562L400.57812 378.76562ZM402.5 367.84375Q402.5 370.25 403.46875 371.40625Q404.4375 372.54688 405.82812 372.54688Q407.23438 372.54688 408.23438 371.35938Q409.23438 370.17188 409.23438 367.67188Q409.23438 365.29688 408.25 364.10938Q407.28125 362.92188 405.92188 362.92188Q404.5625 362.92188 403.53125 364.1875Q402.5 365.4375 402.5 367.84375ZM422.10938 369.98438L424.28125 370.26562Q423.76562 372.17188 422.375 373.23438Q420.98438 374.28125 418.8125 374.28125Q416.07812 374.28125 414.46875 372.60938Q412.875 370.92188 412.875 367.875Q412.875 364.73438 414.48438 363.0Q416.10938 361.26562 418.6875 361.26562Q421.1875 361.26562 422.76562 362.96875Q424.35938 364.67188 424.35938 367.75Q424.35938 367.9375 424.34375 368.3125L415.0625 368.3125Q415.17188 370.35938 416.21875 371.45312Q417.26562 372.54688 418.82812 372.54688Q419.98438 372.54688 420.79688 371.9375Q421.625 371.32812 422.10938 369.98438ZM415.17188 366.57812L422.125 366.57812Q421.98438 365.01562 421.32812 364.21875Q420.32812 363.0 418.71875 363.0Q417.26562 363.0 416.26562 363.98438Q415.28125 364.95312 415.17188 366.57812ZM426.5625 374.0L426.5625 361.54688L428.45312 361.54688L428.45312 363.4375Q429.1875 362.10938 429.79688 361.6875Q430.42188 361.26562 431.15625 361.26562Q432.21875 361.26562 433.32812 361.95312L432.59375 363.90625Q431.82812 363.45312 431.04688 363.45312Q430.35938 363.45312 429.79688 363.875Q429.25 364.28125 429.01562 365.01562Q428.67188 366.14062 428.67188 367.48438L428.67188 374.0L426.5625 374.0ZM433.73438 370.28125L435.82812 369.95312Q436.0 371.20312 436.79688 371.875Q437.60938 372.54688 439.04688 372.54688Q440.5 372.54688 441.20312 371.95312Q441.90625 371.35938 441.90625 370.5625Q441.90625 369.84375 441.28125 369.4375Q440.85938 369.15625 439.125 368.71875Q436.8125 368.14062 435.90625 367.71875Q435.01562 367.28125 434.54688 366.53125Q434.09375 365.76562 434.09375 364.85938Q434.09375 364.03125 434.46875 363.32812Q434.85938 362.60938 435.51562 362.14062Q436.0 361.78125 436.84375 361.53125Q437.70312 361.26562 438.67188 361.26562Q440.14062 361.26562 441.25 361.6875Q442.35938 362.10938 442.875 362.84375Q443.40625 363.5625 443.60938 364.76562L441.54688 365.04688Q441.40625 364.07812 440.73438 363.54688Q440.0625 363.0 438.82812 363.0Q437.375 363.0 436.75 363.48438Q436.125 363.96875 436.125 364.60938Q436.125 365.01562 436.39062 365.34375Q436.64062 365.6875 437.20312 365.90625Q437.51562 366.03125 439.0625 366.45312Q441.29688 367.04688 442.17188 367.4375Q443.0625 367.8125 443.5625 368.54688Q444.07812 369.26562 444.07812 370.34375Q444.07812 371.39062 443.45312 372.32812Q442.84375 373.26562 441.6875 373.78125Q440.53125 374.28125 439.0625 374.28125Q436.64062 374.28125 435.35938 373.28125Q434.09375 372.26562 433.73438 370.28125ZM445.79688 367.78125Q445.79688 364.3125 447.71875 362.65625Q449.32812 361.26562 451.64062 361.26562Q454.20312 361.26562 455.82812 362.95312Q457.45312 364.64062 457.45312 367.59375Q457.45312 370.0 456.73438 371.375Q456.01562 372.75 454.64062 373.51562Q453.26562 374.28125 451.64062 374.28125Q449.01562 374.28125 447.40625 372.60938Q445.79688 370.92188 445.79688 367.78125ZM447.96875 367.78125Q447.96875 370.17188 449.0 371.35938Q450.04688 372.54688 451.64062 372.54688Q453.20312 372.54688 454.25 371.35938Q455.29688 370.15625 455.29688 367.70312Q455.29688 365.39062 454.23438 364.20312Q453.1875 363.01562 451.64062 363.01562Q450.04688 363.01562 449.0 364.20312Q447.96875 365.39062 447.96875 367.78125ZM459.57812 374.0L459.57812 361.54688L461.48438 361.54688L461.48438 363.32812Q462.85938 361.26562 465.4375 361.26562Q466.5625 361.26562 467.5 361.67188Q468.45312 362.07812 468.92188 362.73438Q469.39062 363.39062 469.57812 364.29688Q469.70312 364.875 469.70312 366.34375L469.70312 374.0L467.59375 374.0L467.59375 366.42188Q467.59375 365.14062 467.34375 364.5Q467.09375 363.85938 466.46875 363.48438Q465.84375 363.09375 465.0 363.09375Q463.65625 363.09375 462.67188 363.95312Q461.6875 364.8125 461.6875 367.20312L461.6875 374.0L459.57812 374.0ZM472.57812 374.0L472.57812 361.54688L474.48438 361.54688L474.48438 363.32812Q475.85938 361.26562 478.4375 361.26562Q479.5625 361.26562 480.5 361.67188Q481.45312 362.07812 481.92188 362.73438Q482.39062 363.39062 482.57812 364.29688Q482.70312 364.875 482.70312 366.34375L482.70312 374.0L480.59375 374.0L480.59375 366.42188Q480.59375 365.14062 480.34375 364.5Q480.09375 363.85938 479.46875 363.48438Q478.84375 363.09375 478.0 363.09375Q476.65625 363.09375 475.67188 363.95312Q474.6875 364.8125 474.6875 367.20312L474.6875 374.0L472.57812 374.0ZM494.10938 369.98438L496.28125 370.26562Q495.76562 372.17188 494.375 373.23438Q492.98438 374.28125 490.8125 374.28125Q488.07812 374.28125 486.46875 372.60938Q484.875 370.92188 484.875 367.875Q484.875 364.73438 486.48438 363.0Q488.10938 361.26562 490.6875 361.26562Q493.1875 361.26562 494.76562 362.96875Q496.35938 364.67188 496.35938 367.75Q496.35938 367.9375 496.34375 368.3125L487.0625 368.3125Q487.17188 370.35938 488.21875 371.45312Q489.26562 372.54688 490.82812 372.54688Q491.98438 372.54688 492.79688 371.9375Q493.625 371.32812 494.10938 369.98438ZM487.17188 366.57812L494.125 366.57812Q493.98438 365.01562 493.32812 364.21875Q492.32812 363.0 490.71875 363.0Q489.26562 363.0 488.26562 363.98438Q487.28125 364.95312 487.17188 366.57812ZM497.73438 370.28125L499.82812 369.95312Q500.0 371.20312 500.79688 371.875Q501.60938 372.54688 503.04688 372.54688Q504.5 372.54688 505.20312 371.95312Q505.90625 371.35938 505.90625 370.5625Q505.90625 369.84375 505.28125 369.4375Q504.85938 369.15625 503.125 368.71875Q500.8125 368.14062 499.90625 367.71875Q499.01562 367.28125 498.54688 366.53125Q498.09375 365.76562 498.09375 364.85938Q498.09375 364.03125 498.46875 363.32812Q498.85938 362.60938 499.51562 362.14062Q500.0 361.78125 500.84375 361.53125Q501.70312 361.26562 502.67188 361.26562Q504.14062 361.26562 505.25 361.6875Q506.35938 362.10938 506.875 362.84375Q507.40625 363.5625 507.60938 364.76562L505.54688 365.04688Q505.40625 364.07812 504.73438 363.54688Q504.0625 363.0 502.82812 363.0Q501.375 363.0 500.75 363.48438Q500.125 363.96875 500.125 364.60938Q500.125 365.01562 500.39062 365.34375Q500.64062 365.6875 501.20312 365.90625Q501.51562 366.03125 503.0625 366.45312Q505.29688 367.04688 506.17188 367.4375Q507.0625 367.8125 507.5625 368.54688Q508.07812 369.26562 508.07812 370.34375Q508.07812 371.39062 507.45312 372.32812Q506.84375 373.26562 505.6875 373.78125Q504.53125 374.28125 503.0625 374.28125Q500.64062 374.28125 499.35938 373.28125Q498.09375 372.26562 497.73438 370.28125ZM517.5781 374.0L517.5781 361.54688L519.46875 361.54688L519.46875 363.29688Q520.0625 362.39062 521.03125 361.82812Q522.0 361.26562 523.25 361.26562Q524.625 361.26562 525.5 361.84375Q526.3906 362.42188 526.7656 363.45312Q528.2344 361.26562 530.6094 361.26562Q532.4531 361.26562 533.4531 362.29688Q534.4531 363.32812 534.4531 365.45312L534.4531 374.0L532.34375 374.0L532.34375 366.15625Q532.34375 364.89062 532.1406 364.34375Q531.9375 363.78125 531.3906 363.4375Q530.8594 363.09375 530.1406 363.09375Q528.8281 363.09375 527.9531 363.96875Q527.09375 364.84375 527.09375 366.76562L527.09375 374.0L524.9844 374.0L524.9844 365.90625Q524.9844 364.5 524.46875 363.79688Q523.9531 363.09375 522.78125 363.09375Q521.8906 363.09375 521.125 363.5625Q520.375 364.03125 520.03125 364.9375Q519.6875 365.84375 519.6875 367.54688L519.6875 374.0L517.5781 374.0ZM546.1094 369.98438L548.28125 370.26562Q547.7656 372.17188 546.375 373.23438Q544.9844 374.28125 542.8125 374.28125Q540.0781 374.28125 538.46875 372.60938Q536.875 370.92188 536.875 367.875Q536.875 364.73438 538.4844 363.0Q540.1094 361.26562 542.6875 361.26562Q545.1875 361.26562 546.7656 362.96875Q548.3594 364.67188 548.3594 367.75Q548.3594 367.9375 548.34375 368.3125L539.0625 368.3125Q539.1719 370.35938 540.21875 371.45312Q541.2656 372.54688 542.8281 372.54688Q543.9844 372.54688 544.7969 371.9375Q545.625 371.32812 546.1094 369.98438ZM539.1719 366.57812L546.125 366.57812Q545.9844 365.01562 545.3281 364.21875Q544.3281 363.0 542.71875 363.0Q541.2656 363.0 540.2656 363.98438Q539.28125 364.95312 539.1719 366.57812ZM558.7344 374.0L558.7344 372.17188Q557.28125 374.28125 554.7969 374.28125Q553.6875 374.28125 552.7344 373.85938Q551.78125 373.4375 551.3125 372.79688Q550.8594 372.15625 550.6719 371.23438Q550.53125 370.60938 550.53125 369.26562L550.53125 361.54688L552.6406 361.54688L552.6406 368.45312Q552.6406 370.10938 552.78125 370.6875Q552.96875 371.51562 553.6094 372.0Q554.2656 372.46875 555.21875 372.46875Q556.15625 372.46875 556.9844 371.98438Q557.8281 371.48438 558.1719 370.65625Q558.5156 369.8125 558.5156 368.21875L558.5156 361.54688L560.625 361.54688L560.625 374.0L558.7344 374.0ZM563.5625 374.0L563.5625 361.54688L565.4531 361.54688L565.4531 363.4375Q566.1875 362.10938 566.7969 361.6875Q567.4219 361.26562 568.15625 361.26562Q569.21875 361.26562 570.3281 361.95312L569.59375 363.90625Q568.8281 363.45312 568.0469 363.45312Q567.3594 363.45312 566.7969 363.875Q566.25 364.28125 566.0156 365.01562Q565.6719 366.14062 565.6719 367.48438L565.6719 374.0L563.5625 374.0ZM580.1094 369.98438L582.28125 370.26562Q581.7656 372.17188 580.375 373.23438Q578.9844 374.28125 576.8125 374.28125Q574.0781 374.28125 572.46875 372.60938Q570.875 370.92188 570.875 367.875Q570.875 364.73438 572.4844 363.0Q574.1094 361.26562 576.6875 361.26562Q579.1875 361.26562 580.7656 362.96875Q582.3594 364.67188 582.3594 367.75Q582.3594 367.9375 582.34375 368.3125L573.0625 368.3125Q573.1719 370.35938 574.21875 371.45312Q575.2656 372.54688 576.8281 372.54688Q577.9844 372.54688 578.7969 371.9375Q579.625 371.32812 580.1094 369.98438ZM573.1719 366.57812L580.125 366.57812Q579.9844 365.01562 579.3281 364.21875Q578.3281 363.0 576.71875 363.0Q575.2656 363.0 574.2656 363.98438Q573.28125 364.95312 573.1719 366.57812ZM584.5781 374.0L584.5781 361.54688L586.4844 361.54688L586.4844 363.32812Q587.8594 361.26562 590.4375 361.26562Q591.5625 361.26562 592.5 361.67188Q593.4531 362.07812 593.9219 362.73438Q594.3906 363.39062 594.5781 364.29688Q594.7031 364.875 594.7031 366.34375L594.7031 374.0L592.59375 374.0L592.59375 366.42188Q592.59375 365.14062 592.34375 364.5Q592.09375 363.85938 591.46875 363.48438Q590.84375 363.09375 590.0 363.09375Q588.65625 363.09375 587.6719 363.95312Q586.6875 364.8125 586.6875 367.20312L586.6875 374.0L584.5781 374.0ZM602.1875 372.10938L602.5 373.96875Q601.6094 374.17188 600.90625 374.17188Q599.75 374.17188 599.1094 373.8125Q598.4844 373.4375 598.21875 372.84375Q597.96875 372.25 597.96875 370.35938L597.96875 363.1875L596.4219 363.1875L596.4219 361.54688L597.96875 361.54688L597.96875 358.46875L600.0625 357.20312L600.0625 361.54688L602.1875 361.54688L602.1875 363.1875L600.0625 363.1875L600.0625 370.46875Q600.0625 371.375 600.1719 371.64062Q600.2969 371.89062 600.5469 372.04688Q600.7969 372.1875 601.2656 372.1875Q601.6094 372.1875 602.1875 372.10938Z" fill-rule="nonzero"/></svg>