<svg version="1.1" viewBox="0.0 0.0 665.0 400.0" fill="none" stroke="none" stroke-linecap="square" stroke-miterlimit="10" width="665" height="400" xmlns:xlink="http://www.w3.org/1999/xlink" xmlns="http://www.w3.org/2000/svg"><path fill="#ffffff" d="M0 0L665.0 0L665.0 400.0L0 400.0L0 0Z" fill-rule="nonzero"/><path fill="#ea4335" d="M207.92818 278.67606C169.76799 230.82468 162.39012 165.34425 188.94563 110.20119C215.50113 55.05812 271.2958 20.0 332.5 20.0L332.5 179.33333Z" fill-rule="nonzero"/><path fill="#4285f4" d="M332.5 20.0C406.83752 20.0 471.29684 71.4046 487.8385 143.87833C504.38016 216.35207 468.60794 290.63385 401.63214 322.8877C334.65634 355.14154 254.27687 336.79547 207.92818 278.67606L332.5 179.33333Z" fill-rule="nonzero"/><path fill="#000000" d="M373.576 223.46454L375.2635 223.30829Q375.48224 224.49579 376.076 225.04266Q376.68536 225.57391 377.6385 225.57391Q378.451 225.57391 379.06036 225.21454Q379.66974 224.83954 380.06036 224.21454Q380.451 223.58954 380.7166 222.54266Q380.98224 221.48016 380.98224 220.38641Q380.98224 220.27704 380.9666 220.04266Q380.43536 220.87079 379.5291 221.40204Q378.62286 221.91766 377.54474 221.91766Q375.7791 221.91766 374.54474 220.63641Q373.31036 219.33954 373.31036 217.23016Q373.31036 215.05829 374.5916 213.73016Q375.8885 212.40204 377.81036 212.40204Q379.2166 212.40204 380.37286 213.15204Q381.5291 213.90204 382.12286 215.29266Q382.73224 216.68329 382.73224 219.32391Q382.73224 222.07391 382.12286 223.69891Q381.5291 225.32391 380.35724 226.18329Q379.18536 227.02704 377.60724 227.02704Q375.91974 227.02704 374.85724 226.08954Q373.79474 225.15204 373.576 223.46454ZM380.7791 217.15204Q380.7791 215.63641 379.9666 214.74579Q379.16974 213.85516 378.0291 213.85516Q376.85724 213.85516 375.98224 214.82391Q375.12286 215.77704 375.12286 217.29266Q375.12286 218.66766 375.93536 219.52704Q376.7635 220.37079 377.98224 220.37079Q379.201 220.37079 379.98224 219.52704Q380.7791 218.66766 380.7791 217.15204ZM394.1541 230.98016Q392.701 229.15204 391.701 226.69891Q390.701 224.23016 390.701 221.58954Q390.701 219.26141 391.451 217.13641Q392.326 214.66766 394.1541 212.21454L395.41974 212.21454Q394.23224 214.24579 393.85724 215.12079Q393.2635 216.46454 392.91974 217.93329Q392.49786 219.76141 392.49786 221.60516Q392.49786 226.29266 395.41974 230.98016L394.1541 230.98016ZM406.43536 215.96454L404.68536 216.10516Q404.451 215.07391 404.0291 214.60516Q403.31036 213.83954 402.2635 213.83954Q401.41974 213.83954 400.79474 214.30829Q399.9666 214.91766 399.48224 216.08954Q398.99786 217.24579 398.98224 219.38641Q399.62286 218.43329 400.5291 217.96454Q401.451 217.49579 402.4666 217.49579Q404.2166 217.49579 405.451 218.79266Q406.68536 220.07391 406.68536 222.12079Q406.68536 223.48016 406.10724 224.63641Q405.5291 225.79266 404.5135 226.41766Q403.49786 227.02704 402.201 227.02704Q400.0135 227.02704 398.62286 225.41766Q397.23224 223.79266 397.23224 220.07391Q397.23224 215.93329 398.7635 214.04266Q400.10724 212.40204 402.37286 212.40204Q404.06036 212.40204 405.1385 213.35516Q406.2166 214.29266 406.43536 215.96454ZM399.2635 222.13641Q399.2635 223.04266 399.6385 223.87079Q400.0291 224.69891 400.7166 225.13641Q401.41974 225.57391 402.16974 225.57391Q403.29474 225.57391 404.0916 224.68329Q404.8885 223.77704 404.8885 222.23016Q404.8885 220.74579 404.0916 219.90204Q403.31036 219.04266 402.10724 219.04266Q400.91974 219.04266 400.0916 219.90204Q399.2635 220.74579 399.2635 222.13641ZM413.951 226.77704L413.951 223.35516L407.73224 223.35516L407.73224 221.73016L414.2635 212.46454L415.701 212.46454L415.701 221.73016L417.6385 221.73016L417.6385 223.35516L415.701 223.35516L415.701 226.77704L413.951 226.77704ZM413.951 221.73016L413.951 215.27704L409.4666 221.73016L413.951 221.73016ZM420.2635 226.77704L420.2635 224.77704L422.2635 224.77704L422.2635 226.77704Q422.2635 227.88641 421.87286 228.55829Q421.48224 229.24579 420.6385 229.60516L420.1385 228.85516Q420.701 228.62079 420.9666 228.13641Q421.23224 227.66766 421.2635 226.77704L420.2635 226.77704ZM425.326 222.99579L427.076 222.76141Q427.3885 224.26141 428.10724 224.91766Q428.8416 225.57391 429.8885 225.57391Q431.12286 225.57391 431.9666 224.71454Q432.826 223.85516 432.826 222.58954Q432.826 221.37079 432.0291 220.58954Q431.24786 219.80829 430.0291 219.80829Q429.5291 219.80829 428.79474 219.99579L428.98224 218.44891Q429.1541 218.48016 429.2635 218.48016Q430.3885 218.48016 431.2791 217.90204Q432.18536 217.30829 432.18536 216.08954Q432.18536 215.12079 431.5291 214.48016Q430.87286 213.83954 429.8416 213.83954Q428.826 213.83954 428.1385 214.49579Q427.451 215.13641 427.2635 216.41766L425.49786 216.10516Q425.826 214.33954 426.9666 213.37079Q428.10724 212.40204 429.81036 212.40204Q430.98224 212.40204 431.9666 212.90204Q432.951 213.40204 433.4666 214.27704Q433.99786 215.15204 433.99786 216.12079Q433.99786 217.04266 433.49786 217.80829Q432.99786 218.57391 432.0291 219.02704Q433.29474 219.30829 433.99786 220.24579Q434.701 221.16766 434.701 222.54266Q434.701 224.41766 433.326 225.73016Q431.9666 227.02704 429.87286 227.02704Q427.98224 227.02704 426.73224 225.90204Q425.49786 224.77704 425.326 222.99579ZM436.6385 215.90204Q436.6385 214.37079 437.4041 213.29266Q438.18536 212.21454 439.6541 212.21454Q440.99786 212.21454 441.87286 213.18329Q442.7635 214.13641 442.7635 216.01141Q442.7635 217.82391 441.87286 218.80829Q440.98224 219.77704 439.66974 219.77704Q438.37286 219.77704 437.49786 218.82391Q436.6385 217.85516 436.6385 215.90204ZM439.701 213.43329Q439.04474 213.43329 438.60724 213.99579Q438.18536 214.55829 438.18536 216.07391Q438.18536 217.44891 438.62286 218.01141Q439.06036 218.57391 439.701 218.57391Q440.37286 218.57391 440.79474 218.01141Q441.23224 217.43329 441.23224 215.93329Q441.23224 214.54266 440.79474 213.99579Q440.35724 213.43329 439.701 213.43329ZM439.7166 227.30829L447.54474 212.21454L448.9666 212.21454L441.16974 227.30829L439.7166 227.30829ZM445.9041 223.41766Q445.9041 221.87079 446.66974 220.80829Q447.451 219.73016 448.91974 219.73016Q450.2635 219.73016 451.1385 220.69891Q452.0291 221.65204 452.0291 223.52704Q452.0291 225.33954 451.1385 226.32391Q450.24786 227.30829 448.93536 227.30829Q447.6385 227.30829 446.7635 226.33954Q445.9041 225.35516 445.9041 223.41766ZM448.9666 220.94891Q448.31036 220.94891 447.87286 221.51141Q447.43536 222.07391 447.43536 223.58954Q447.43536 224.96454 447.87286 225.52704Q448.31036 226.08954 448.9666 226.08954Q449.6385 226.08954 450.06036 225.52704Q450.49786 224.96454 450.49786 223.44891Q450.49786 222.07391 450.06036 221.51141Q449.62286 220.94891 448.9666 220.94891ZM455.951 230.98016L454.701 230.98016Q457.60724 226.29266 457.60724 221.60516Q457.60724 219.76141 457.201 217.96454Q456.85724 216.49579 456.2635 215.15204Q455.8885 214.26141 454.701 212.21454L455.951 212.21454Q457.79474 214.66766 458.66974 217.13641Q459.41974 219.26141 459.41974 221.58954Q459.41974 224.23016 458.4041 226.69891Q457.4041 229.15204 455.951 230.98016Z" fill-rule="nonzero"/><path fill="#000000" d="M205.34589 142.13962L207.18964 141.98337Q207.39276 143.32712 208.14276 144.01462Q208.89276 144.6865 209.95526 144.6865Q211.22089 144.6865 212.09589 143.73337Q212.97089 142.78024 212.97089 141.1865Q212.97089 139.6865 212.12714 138.82712Q211.28339 137.95212 209.92401 137.95212Q209.06464 137.95212 208.37714 138.34274Q207.70526 138.71774 207.31464 139.34274L205.65839 139.124L207.04901 131.76462L214.17401 131.76462L214.17401 133.45212L208.45526 133.45212L207.68964 137.29587Q208.97089 136.38962 210.39276 136.38962Q212.26776 136.38962 213.54901 137.70212Q214.84589 138.999 214.84589 141.03024Q214.84589 142.98337 213.70526 144.38962Q212.33026 146.13962 209.95526 146.13962Q208.00214 146.13962 206.75214 145.04587Q205.51776 143.95212 205.34589 142.13962ZM226.18964 150.09274Q224.73651 148.26462 223.73651 145.8115Q222.73651 143.34274 222.73651 140.70212Q222.73651 138.374 223.48651 136.249Q224.36151 133.78024 226.18964 131.32712L227.45526 131.32712Q226.26776 133.35837 225.89276 134.23337Q225.29901 135.57712 224.95526 137.04587Q224.53339 138.874 224.53339 140.71774Q224.53339 145.40524 227.45526 150.09274L226.18964 150.09274ZM229.36151 142.10837L231.11151 141.874Q231.42401 143.374 232.14276 144.03024Q232.87714 144.6865 233.92401 144.6865Q235.15839 144.6865 236.00214 143.82712Q236.86151 142.96774 236.86151 141.70212Q236.86151 140.48337 236.06464 139.70212Q235.28339 138.92087 234.06464 138.92087Q233.56464 138.92087 232.83026 139.10837L233.01776 137.5615Q233.18964 137.59274 233.29901 137.59274Q234.42401 137.59274 235.31464 137.01462Q236.22089 136.42087 236.22089 135.20212Q236.22089 134.23337 235.56464 133.59274Q234.90839 132.95212 233.87714 132.95212Q232.86151 132.95212 232.17401 133.60837Q231.48651 134.249 231.29901 135.53024L229.53339 135.21774Q229.86151 133.45212 231.00214 132.48337Q232.14276 131.51462 233.84589 131.51462Q235.01776 131.51462 236.00214 132.01462Q236.98651 132.51462 237.50214 133.38962Q238.03339 134.26462 238.03339 135.23337Q238.03339 136.15524 237.53339 136.92087Q237.03339 137.6865 236.06464 138.13962Q237.33026 138.42087 238.03339 139.35837Q238.73651 140.28024 238.73651 141.65524Q238.73651 143.53024 237.36151 144.84274Q236.00214 146.13962 233.90839 146.13962Q232.01776 146.13962 230.76776 145.01462Q229.53339 143.88962 229.36151 142.10837ZM240.34589 142.13962L242.18964 141.98337Q242.39276 143.32712 243.14276 144.01462Q243.89276 144.6865 244.95526 144.6865Q246.22089 144.6865 247.09589 143.73337Q247.97089 142.78024 247.97089 141.1865Q247.97089 139.6865 247.12714 138.82712Q246.28339 137.95212 244.92401 137.95212Q244.06464 137.95212 243.37714 138.34274Q242.70526 138.71774 242.31464 139.34274L240.65839 139.124L242.04901 131.76462L249.17401 131.76462L249.17401 133.45212L243.45526 133.45212L242.68964 137.29587Q243.97089 136.38962 245.39276 136.38962Q247.26776 136.38962 248.54901 137.70212Q249.84589 138.999 249.84589 141.03024Q249.84589 142.98337 248.70526 144.38962Q247.33026 146.13962 244.95526 146.13962Q243.00214 146.13962 241.75214 145.04587Q240.51776 143.95212 240.34589 142.13962ZM252.29901 145.88962L252.29901 143.88962L254.29901 143.88962L254.29901 145.88962Q254.29901 146.999 253.90839 147.67087Q253.51776 148.35837 252.67401 148.71774L252.17401 147.96774Q252.73651 147.73337 253.00214 147.249Q253.26776 146.78024 253.29901 145.88962L252.29901 145.88962ZM257.4709 133.45212L257.4709 131.76462L266.7365 131.76462L266.7365 133.124Q265.3615 134.57712 264.01776 136.999Q262.674 139.40524 261.95526 141.95212Q261.424 143.749 261.26776 145.88962L259.4709 145.88962Q259.50214 144.20212 260.12714 141.8115Q260.76776 139.42087 261.95526 137.20212Q263.14276 134.96774 264.4709 133.45212L257.4709 133.45212ZM268.674 135.01462Q268.674 133.48337 269.43964 132.40524Q270.2209 131.32712 271.68964 131.32712Q273.0334 131.32712 273.9084 132.29587Q274.799 133.249 274.799 135.124Q274.799 136.9365 273.9084 137.92087Q273.01776 138.88962 271.70526 138.88962Q270.4084 138.88962 269.5334 137.9365Q268.674 136.96774 268.674 135.01462ZM271.7365 132.54587Q271.08026 132.54587 270.64276 133.10837Q270.2209 133.67087 270.2209 135.1865Q270.2209 136.5615 270.6584 137.124Q271.0959 137.6865 271.7365 137.6865Q272.4084 137.6865 272.83026 137.124Q273.26776 136.54587 273.26776 135.04587Q273.26776 133.65524 272.83026 133.10837Q272.39276 132.54587 271.7365 132.54587ZM271.75214 146.42087L279.58026 131.32712L281.00214 131.32712L273.20526 146.42087L271.75214 146.42087ZM277.93964 142.53024Q277.93964 140.98337 278.70526 139.92087Q279.4865 138.84274 280.95526 138.84274Q282.299 138.84274 283.174 139.8115Q284.06464 140.76462 284.06464 142.63962Q284.06464 144.45212 283.174 145.4365Q282.2834 146.42087 280.9709 146.42087Q279.674 146.42087 278.799 145.45212Q277.93964 144.46774 277.93964 142.53024ZM281.00214 140.0615Q280.3459 140.0615 279.9084 140.624Q279.4709 141.1865 279.4709 142.70212Q279.4709 144.07712 279.9084 144.63962Q280.3459 145.20212 281.00214 145.20212Q281.674 145.20212 282.0959 144.63962Q282.5334 144.07712 282.5334 142.5615Q282.5334 141.1865 282.0959 140.624Q281.6584 140.0615 281.00214 140.0615ZM287.9865 150.09274L286.7365 150.09274Q289.64276 145.40524 289.64276 140.71774Q289.64276 138.874 289.2365 137.07712Q288.89276 135.60837 288.299 134.26462Q287.924 133.374 286.7365 131.32712L287.9865 131.32712Q289.83026 133.78024 290.70526 136.249Q291.45526 138.374 291.45526 140.70212Q291.45526 143.34274 290.43964 145.8115Q289.43964 148.26462 287.9865 150.09274Z" fill-rule="nonzero"/><path fill="#4285f4" d="M276.5 366.0C276.5 369.31372 273.81372 372.0 270.5 372.0C267.18628 372.0 264.5 369.31372 264.5 366.0C264.5 362.68628 267.18628 360.0 270.5 360.0C273.81372 360.0 276.5 362.68628 276.5 366.0Z" fill-rule="nonzero"/><path fill="#1a1a1a" d="M285.65625 365.625Q285.65625 361.35938 287.95312 358.9375Q290.25 356.51562 293.89062 356.51562Q296.26562 356.51562 298.17188 357.65625Q300.09375 358.78125 301.09375 360.82812Q302.09375 362.85938 302.09375 365.4375Q302.09375 368.04688 301.03125 370.10938Q299.98438 372.17188 298.04688 373.23438Q296.10938 374.29688 293.875 374.29688Q291.45312 374.29688 289.53125 373.125Q287.625 371.95312 286.64062 369.92188Q285.65625 367.89062 285.65625 365.625ZM288.0 365.67188Q288.0 368.76562 289.67188 370.5625Q291.34375 372.34375 293.85938 372.34375Q296.4375 372.34375 298.09375 370.54688Q299.75 368.73438 299.75 365.42188Q299.75 363.32812 299.03125 361.76562Q298.32812 360.1875 296.95312 359.32812Q295.59375 358.46875 293.90625 358.46875Q291.48438 358.46875 289.73438 360.125Q288.0 361.78125 288.0 365.67188ZM313.23438 374.0L313.23438 372.17188Q311.78125 374.28125 309.29688 374.28125Q308.1875 374.28125 307.23438 373.85938Q306.28125 373.4375 305.8125 372.79688Q305.35938 372.15625 305.17188 371.23438Q305.03125 370.60938 305.03125 369.26562L305.03125 361.54688L307.14062 361.54688L307.14062 368.45312Q307.14062 370.10938 307.28125 370.6875Q307.46875 371.51562 308.10938 372.0Q308.76562 372.46875 309.71875 372.46875Q310.65625 372.46875 311.48438 371.98438Q312.32812 371.48438 312.67188 370.65625Q313.01562 369.8125 313.01562 368.21875L313.01562 361.54688L315.125 361.54688L315.125 374.0L313.23438 374.0ZM318.09375 359.25L318.09375 356.8125L320.20312 356.8125L320.20312 359.25L318.09375 359.25ZM318.09375 374.0L318.09375 361.54688L320.20312 361.54688L320.20312 374.0L318.09375 374.0Z" fill-rule="nonzero"/><path fill="#ea4335" d="M349.5 366.0C349.5 369.31372 346.81372 372.0 343.5 372.0C340.18628 372.0 337.5 369.31372 337.5 366.0C337.5 362.68628 340.18628 360.0 343.5 360.0C346.81372 360.0 349.5 362.68628 349.5 366.0Z" fill-rule="nonzero"/><path fill="#1a1a1a" d="M359.32812 374.0L359.32812 356.8125L361.65625 356.8125L370.6875 370.3125L370.6875 356.8125L372.85938 356.8125L372.85938 374.0L370.53125 374.0L361.51562 360.5L361.51562 374.0L359.32812 374.0ZM375.29688 367.78125Q375.29688 364.3125 377.21875 362.65625Q378.82812 361.26562 381.14062 361.26562Q383.70312 361.26562 385.32812 362.95312Q386.95312 364.64062 386.95312 367.59375Q386.95312 370.0 386.23438 371.375Q385.51562 372.75 384.14062 373.51562Q382.76562 374.28125 381.14062 374.28125Q378.51562 374.28125 376.90625 372.60938Q375.29688 370.92188 375.29688 367.78125ZM377.46875 367.78125Q377.46875 370.17188 378.5 371.35938Q379.54688 372.54688 381.14062 372.54688Q382.70312 372.54688 383.75 371.35938Q384.79688 370.15625 384.79688 367.70312Q384.79688 365.39062 383.73438 364.20312Q382.6875 363.01562 381.14062 363.01562Q379.54688 363.01562 378.5 364.20312Q377.46875 365.39062 377.46875 367.78125ZM389.07812 374.0L389.07812 361.54688L390.98438 361.54688L390.98438 363.32812Q392.35938 361.26562 394.9375 361.26562Q396.0625 361.26562 397.0 361.67188Q397.95312 362.07812 398.42188 362.73438Q398.89062 363.39062 399.07812 364.29688Q399.20312 364.875 399.20312 366.34375L399.20312 374.0L397.09375 374.0L397.09375 366.42188Q397.09375 365.14062 396.84375 364.5Q396.59375 363.85938 395.96875 363.48438Q395.34375 363.09375 394.5 363.09375Q393.15625 363.09375 392.17188 363.95312Q391.1875 364.8125 391.1875 367.20312L391.1875 374.0L389.07812 374.0Z" fill-rule="nonzero"/></svg>