<svg version="1.1" viewBox="0.0 0.0 711.0 439.0" fill="none" stroke="none" stroke-linecap="square" stroke-miterlimit="10" width="711" height="439" xmlns:xlink="http://www.w3.org/1999/xlink" xmlns="http://www.w3.org/2000/svg"><path fill="#ffffff" d="M0 0L711.0 0L711.0 439.0L0 439.0L0 0Z" fill-rule="nonzero"/><path stroke="#333333" stroke-width="1.0" stroke-linecap="butt" d="M48.5 365.5L689.5 365.5" fill-rule="nonzero"/><path stroke="#cccccc" stroke-width="1.0" stroke-linecap="butt" d="M48.5 281.5L689.5 281.5" fill-rule="nonzero"/><path stroke="#cccccc" stroke-width="1.0" stroke-linecap="butt" d="M48.5 197.5L689.5 197.5" fill-rule="nonzero"/><path stroke="#cccccc" stroke-width="1.0" stroke-linecap="butt" d="M48.5 112.5L689.5 112.5" fill-rule="nonzero"/><path stroke="#cccccc" stroke-width="1.0" stroke-linecap="butt" d="M48.5 28.5L689.5 28.5" fill-rule="nonzero"/><clipPath id="id_0"><path d="M48.95 28.95L689.05 28.95L689.05 365.05L48.95 365.05L48.95 28.95Z" clip-rule="nonzero"/></clipPath><path stroke="#000000" stroke-width="2.0" stroke-linecap="butt" stroke-opacity="0.0" clip-path="url(#id_0)" d="M169.0 365.0L91.0 365.0L91.0 365.0L169.0 365.0Z" fill-rule="nonzero"/><path fill="#4285f4" clip-path="url(#id_0)" d="M169.0 365.0L91.0 365.0L91.0 365.0L169.0 365.0Z" fill-rule="nonzero"/><path stroke="#000000" stroke-width="2.0" stroke-linecap="butt" stroke-opacity="0.0" clip-path="url(#id_0)" d="M288.0 365.0L210.0 365.0L210.0 325.0C210.0 323.89542 210.89543 323.0 212.0 323.0L286.0 323.0C287.10458 323.0 288.0 323.89542 288.0 325.0Z" fill-rule="nonzero"/><path fill="#4285f4" clip-path="url(#id_0)" d="M288.0 365.0L210.0 365.0L210.0 325.0C210.0 323.89542 210.89543 323.0 212.0 323.0L286.0 323.0C287.10458 323.0 288.0 323.89542 288.0 325.0Z" fill-rule="nonzero"/><path stroke="#000000" stroke-width="2.0" stroke-linecap="butt" stroke-opacity="0.0" clip-path="url(#id_0)" d="M408.0 365.0L330.0 365.0L330.0 73.0C330.0 71.89543 330.89542 71.0 332.0 71.0L406.0 71.0C407.10458 71.0 408.0 71.89543 408.0 73.0Z" fill-rule="nonzero"/><path fill="#4285f4" clip-path="url(#id_0)" d="M408.0 365.0L330.0 365.0L330.0 73.0C330.0 71.89543 330.89542 71.0 332.0 71.0L406.0 71.0C407.10458 71.0 408.0 71.89543 408.0 73.0Z" fill-rule="nonzero"/><path stroke="#000000" stroke-width="2.0" stroke-linecap="butt" stroke-opacity="0.0" clip-path="url(#id_0)" d="M528.0 365.0L450.0 365.0L450.0 283.0C450.0 281.89542 450.89542 281.0 452.0 281.0L526.0 281.0C527.10455 281.0 528.0 281.89542 528.0 283.0Z" fill-rule="nonzero"/><path fill="#4285f4" clip-path="url(#id_0)" d="M528.0 365.0L450.0 365.0L450.0 283.0C450.0 281.89542 450.89542 281.0 452.0 281.0L526.0 281.0C527.10455 281.0 528.0 281.89542 528.0 283.0Z" fill-rule="nonzero"/><path stroke="#000000" stroke-width="2.0" stroke-linecap="butt" stroke-opacity="0.0" clip-path="url(#id_0)" d="M647.0 365.0L569.0 365.0L569.0 199.0C569.0 197.89543 569.89545 197.0 571.0 197.0L645.0 197.0C646.10455 197.0 647.0 197.89543 647.0 199.0Z" fill-rule="nonzero"/><path fill="#4285f4" clip-path="url(#id_0)" d="M647.0 365.0L569.0 365.0L569.0 199.0C569.0 197.89543 569.89545 197.0 571.0 197.0L645.0 197.0C646.10455 197.0 647.0 197.89543 647.0 199.0Z" fill-rule="nonzero"/><path fill="#000000" d="M36.45 364.8156Q36.45 363.28436 36.7625 362.3625Q37.075 361.425 37.684376 360.925Q38.309376 360.425 39.246876 360.425Q39.934376 360.425 40.45 360.70624Q40.98125 360.9875 41.325 361.51874Q41.66875 362.03436 41.85625 362.78436Q42.04375 363.53436 42.04375 364.8156Q42.04375 366.33124 41.73125 367.2531Q41.434376 368.175 40.809376 368.6906Q40.2 369.1906 39.246876 369.1906Q38.0125 369.1906 37.29375 368.3Q36.45 367.2375 36.45 364.8156ZM37.528126 364.8156Q37.528126 366.925 38.028126 367.6281Q38.528126 368.33124 39.246876 368.33124Q39.98125 368.33124 40.465626 367.6281Q40.965626 366.925 40.965626 364.8156Q40.965626 362.6906 40.465626 362.0031Q39.98125 361.3 39.23125 361.3Q38.5125 361.3 38.075 361.90936Q37.528126 362.6906 37.528126 364.8156Z" fill-rule="nonzero"/><path fill="#000000" d="M41.996876 284.00937L41.996876 285.025L36.309376 285.025Q36.309376 284.65 36.434376 284.29062Q36.653126 283.7125 37.121876 283.15Q37.60625 282.5875 38.5125 281.85312Q39.91875 280.69687 40.403126 280.025Q40.903126 279.35312 40.903126 278.75937Q40.903126 278.13437 40.45 277.7125Q39.996876 277.275 39.278126 277.275Q38.5125 277.275 38.059376 277.72812Q37.60625 278.18124 37.590626 278.99374L36.5125 278.88437Q36.621876 277.66562 37.340626 277.04062Q38.075 276.4 39.309376 276.4Q40.54375 276.4 41.2625 277.0875Q41.98125 277.775 41.98125 278.79062Q41.98125 279.30624 41.7625 279.80624Q41.559376 280.29062 41.059376 280.85312Q40.575 281.4 39.45 282.35312Q38.496876 283.15 38.215626 283.44687Q37.95 283.72812 37.778126 284.00937L41.996876 284.00937Z" fill-rule="nonzero"/><path fill="#000000" d="M39.825 201.0L39.825 198.9375L36.10625 198.9375L36.10625 197.96875L40.028126 192.40625L40.8875 192.40625L40.8875 197.96875L42.04375 197.96875L42.04375 198.9375L40.8875 198.9375L40.8875 201.0L39.825 201.0ZM39.825 197.96875L39.825 194.10938L37.1375 197.96875L39.825 197.96875Z" fill-rule="nonzero"/><path fill="#000000" d="M41.91875 110.49062L40.871876 110.56875Q40.73125 109.94375 40.48125 109.6625Q40.04375 109.20937 39.41875 109.20937Q38.91875 109.20937 38.528126 109.49062Q38.04375 109.86562 37.746876 110.56875Q37.465626 111.25625 37.45 112.5375Q37.825 111.95937 38.371876 111.67812Q38.934376 111.39687 39.54375 111.39687Q40.590626 111.39687 41.325 112.17812Q42.075 112.95937 42.075 114.17812Q42.075 114.99062 41.715626 115.69375Q41.371876 116.38125 40.7625 116.75625Q40.153126 117.11562 39.3875 117.11562Q38.059376 117.11562 37.23125 116.14687Q36.403126 115.17812 36.403126 112.95937Q36.403126 110.45937 37.325 109.33437Q38.121876 108.35 39.48125 108.35Q40.496876 108.35 41.1375 108.92812Q41.79375 109.49062 41.91875 110.49062ZM37.621876 114.19375Q37.621876 114.74062 37.840626 115.24062Q38.075 115.725 38.48125 115.99062Q38.903126 116.25625 39.371876 116.25625Q40.028126 116.25625 40.5125 115.725Q40.996876 115.17812 40.996876 114.25625Q40.996876 113.36562 40.5125 112.85Q40.04375 112.33437 39.325 112.33437Q38.60625 112.33437 38.10625 112.85Q37.621876 113.36562 37.621876 114.19375Z" fill-rule="nonzero"/><path fill="#000000" d="M38.075 28.29375Q37.41875 28.04375 37.090626 27.60625Q36.778126 27.153126 36.778126 26.54375Q36.778126 25.60625 37.45 24.965626Q38.1375 24.325 39.246876 24.325Q40.371876 24.325 41.059376 24.98125Q41.746876 25.6375 41.746876 26.575Q41.746876 27.16875 41.434376 27.60625Q41.121876 28.04375 40.48125 28.29375Q41.278126 28.54375 41.684376 29.121876Q42.090626 29.7 42.090626 30.496876Q42.090626 31.590626 41.309376 32.340626Q40.54375 33.090626 39.2625 33.090626Q37.996876 33.090626 37.215626 32.340626Q36.434376 31.590626 36.434376 30.465626Q36.434376 29.621876 36.85625 29.059376Q37.29375 28.496876 38.075 28.29375ZM37.85625 26.496876Q37.85625 27.10625 38.246876 27.496876Q38.653126 27.8875 39.278126 27.8875Q39.8875 27.8875 40.278126 27.5125Q40.66875 27.121876 40.66875 26.559376Q40.66875 25.98125 40.2625 25.590626Q39.85625 25.184376 39.2625 25.184376Q38.653126 25.184376 38.246876 25.575Q37.85625 25.965626 37.85625 26.496876ZM37.528126 30.465626Q37.528126 30.91875 37.73125 31.340626Q37.95 31.7625 38.371876 31.996876Q38.79375 32.23125 39.278126 32.23125Q40.028126 32.23125 40.5125 31.746876Q41.0125 31.2625 41.0125 30.5125Q41.0125 29.746876 40.5125 29.246876Q40.0125 28.746876 39.246876 28.746876Q38.496876 28.746876 38.0125 29.246876Q37.528126 29.73125 37.528126 30.465626Z" fill-rule="nonzero"/><path fill="#000000" d="M74.58528 384.76874Q74.58528 381.5656 76.30403 379.7531Q78.02278 377.9406 80.75716 377.9406Q82.53841 377.9406 83.96028 378.8Q85.39778 379.64374 86.14778 381.175Q86.89778 382.6906 86.89778 384.6281Q86.89778 386.58124 86.10091 388.1281Q85.31966 389.675 83.86653 390.47186Q82.41341 391.26874 80.74153 391.26874Q78.92903 391.26874 77.49153 390.39374Q76.05403 389.51874 75.31966 388.0031Q74.58528 386.47186 74.58528 384.76874ZM76.33528 384.8Q76.33528 387.1281 77.58528 388.47186Q78.85091 389.8156 80.72591 389.8156Q82.66341 389.8156 83.89778 388.45624Q85.14778 387.09686 85.14778 384.6125Q85.14778 383.05 84.61653 381.8781Q84.08528 380.6906 83.05403 380.05Q82.03841 379.40936 80.75716 379.40936Q78.94466 379.40936 77.63216 380.65936Q76.33528 381.89374 76.33528 384.8ZM95.00716 391.05L95.00716 389.675Q93.92903 391.26874 92.05403 391.26874Q91.22591 391.26874 90.50716 390.95624Q89.78841 390.6281 89.44466 390.15936Q89.10091 389.675 88.96028 388.97186Q88.86653 388.5031 88.86653 387.5031L88.86653 381.72186L90.44466 381.72186L90.44466 386.89374Q90.44466 388.1281 90.53841 388.5656Q90.69466 389.1906 91.17903 389.55Q91.66341 389.89374 92.36653 389.89374Q93.08528 389.89374 93.71028 389.53436Q94.33528 389.175 94.58528 388.55Q94.85091 387.90936 94.85091 386.72186L94.85091 381.72186L96.42903 381.72186L96.42903 391.05L95.00716 391.05ZM98.91341 379.9875L98.91341 378.15936L100.49153 378.15936L100.49153 379.9875L98.91341 379.9875ZM98.91341 391.05L98.91341 381.72186L100.49153 381.72186L100.49153 391.05L98.91341 391.05ZM109.35091 391.05L107.88216 391.05L107.88216 378.15936L109.47591 378.15936L109.47591 382.76874Q110.47591 381.5031 112.02278 381.5031Q112.88216 381.5031 113.64778 381.8625Q114.42903 382.20624 114.91341 382.83124Q115.41341 383.45624 115.69466 384.34686Q115.97591 385.2375 115.97591 386.2375Q115.97591 388.64374 114.78841 389.95624Q113.61653 391.26874 111.94466 391.26874Q110.30403 391.26874 109.35091 389.8781L109.35091 391.05ZM109.33528 386.3156Q109.33528 387.9875 109.78841 388.7375Q110.53841 389.95624 111.81966 389.95624Q112.85091 389.95624 113.60091 389.0656Q114.36653 388.15936 114.36653 386.3781Q114.36653 384.55 113.63216 383.675Q112.91341 382.8 111.88216 382.8Q110.85091 382.8 110.08528 383.70624Q109.33528 384.6125 109.33528 386.3156ZM124.28841 388.05L125.92903 388.2531Q125.53841 389.675 124.49153 390.47186Q123.44466 391.26874 121.81966 391.26874Q119.77278 391.26874 118.56966 390.0031Q117.36653 388.7375 117.36653 386.45624Q117.36653 384.1125 118.56966 382.8156Q119.78841 381.5031 121.72591 381.5031Q123.60091 381.5031 124.78841 382.78436Q125.97591 384.05 125.97591 386.3625Q125.97591 386.5031 125.96028 386.78436L119.00716 386.78436Q119.08528 388.33124 119.86653 389.14374Q120.66341 389.95624 121.81966 389.95624Q122.69466 389.95624 123.30403 389.5031Q123.92903 389.05 124.28841 388.05ZM119.08528 385.4875L124.30403 385.4875Q124.19466 384.3156 123.71028 383.72186Q122.94466 382.8 121.74153 382.8Q120.66341 382.8 119.91341 383.53436Q119.17903 384.26874 119.08528 385.4875ZM133.99153 389.89374Q133.11653 390.64374 132.2884 390.95624Q131.4759 391.26874 130.55403 391.26874Q129.00716 391.26874 128.17903 390.51874Q127.36653 389.7531 127.36653 388.58124Q127.36653 387.90936 127.67903 387.34686Q127.99153 386.76874 128.49153 386.425Q128.99153 386.08124 129.63216 385.90936Q130.1009 385.78436 131.0384 385.675Q132.94466 385.4406 133.8509 385.1281Q133.86653 384.8 133.86653 384.70624Q133.86653 383.7531 133.4134 383.34686Q132.80403 382.8156 131.61653 382.8156Q130.49153 382.8156 129.96028 383.20624Q129.42903 383.59686 129.17903 384.59686L127.63216 384.3781Q127.85091 383.3781 128.31966 382.76874Q128.80403 382.15936 129.71028 381.83124Q130.63216 381.5031 131.8509 381.5031Q133.0384 381.5031 133.7884 381.78436Q134.5384 382.0656 134.88216 382.5031Q135.24153 382.925 135.38216 383.5656Q135.46028 383.97186 135.46028 385.03436L135.46028 387.14374Q135.46028 389.34686 135.55403 389.9406Q135.6634 390.51874 135.96028 391.05L134.30403 391.05Q134.05403 390.55 133.99153 389.89374ZM133.8509 386.3625Q132.99153 386.72186 131.27278 386.95624Q130.30403 387.09686 129.89778 387.28436Q129.49153 387.45624 129.27278 387.8Q129.05403 388.1281 129.05403 388.55Q129.05403 389.175 129.52278 389.59686Q130.00716 390.01874 130.92903 390.01874Q131.8509 390.01874 132.55403 389.6281Q133.27278 389.22186 133.6009 388.53436Q133.8509 387.9875 133.8509 386.9406L133.8509 386.3625ZM144.00716 391.05L144.00716 389.675Q142.92903 391.26874 141.05403 391.26874Q140.2259 391.26874 139.50716 390.95624Q138.7884 390.6281 138.44466 390.15936Q138.1009 389.675 137.96028 388.97186Q137.86653 388.5031 137.86653 387.5031L137.86653 381.72186L139.44466 381.72186L139.44466 386.89374Q139.44466 388.1281 139.5384 388.5656Q139.69466 389.1906 140.17903 389.55Q140.6634 389.89374 141.36653 389.89374Q142.08528 389.89374 142.71028 389.53436Q143.33528 389.175 143.58528 388.55Q143.8509 387.90936 143.8509 386.72186L143.8509 381.72186L145.42903 381.72186L145.42903 391.05L144.00716 391.05ZM153.99153 387.6281L155.5384 387.83124Q155.2884 389.4406 154.24153 390.3625Q153.19466 391.26874 151.6634 391.26874Q149.74153 391.26874 148.56966 390.01874Q147.4134 388.7531 147.4134 386.425Q147.4134 384.90936 147.9134 383.78436Q148.4134 382.64374 149.42903 382.08124Q150.46028 381.5031 151.6634 381.5031Q153.19466 381.5031 154.14778 382.28436Q155.11653 383.05 155.39778 384.45624L153.8509 384.6906Q153.63216 383.7531 153.06966 383.28436Q152.52278 382.8 151.7259 382.8Q150.5384 382.8 149.7884 383.65936Q149.0384 384.51874 149.0384 386.3781Q149.0384 388.2531 149.75716 389.1125Q150.4759 389.95624 151.64778 389.95624Q152.56966 389.95624 153.19466 389.39374Q153.81966 388.8156 153.99153 387.6281ZM156.30403 386.3781Q156.30403 383.78436 157.75716 382.53436Q158.96028 381.5031 160.67903 381.5031Q162.61653 381.5031 163.83528 382.76874Q165.05403 384.03436 165.05403 386.2531Q165.05403 388.05 164.50716 389.08124Q163.9759 390.1125 162.94466 390.6906Q161.9134 391.26874 160.67903 391.26874Q158.7259 391.26874 157.50716 390.01874Q156.30403 388.7531 156.30403 386.3781ZM157.92903 386.3781Q157.92903 388.175 158.71028 389.0656Q159.49153 389.95624 160.67903 389.95624Q161.86653 389.95624 162.64778 389.0656Q163.42903 388.15936 163.42903 386.33124Q163.42903 384.59686 162.63216 383.70624Q161.8509 382.8156 160.67903 382.8156Q159.49153 382.8156 158.71028 383.70624Q157.92903 384.59686 157.92903 386.3781ZM173.00716 391.05L173.00716 389.675Q171.92903 391.26874 170.05403 391.26874Q169.2259 391.26874 168.50716 390.95624Q167.7884 390.6281 167.44466 390.15936Q167.1009 389.675 166.96028 388.97186Q166.86653 388.5031 166.86653 387.5031L166.86653 381.72186L168.44466 381.72186L168.44466 386.89374Q168.44466 388.1281 168.5384 388.5656Q168.69466 389.1906 169.17903 389.55Q169.6634 389.89374 170.36653 389.89374Q171.08528 389.89374 171.71028 389.53436Q172.33528 389.175 172.58528 388.55Q172.8509 387.90936 172.8509 386.72186L172.8509 381.72186L174.42903 381.72186L174.42903 391.05L173.00716 391.05ZM176.89778 394.6281L176.89778 381.72186L178.33528 381.72186L178.33528 382.925Q178.8509 382.22186 179.49153 381.8625Q180.13216 381.5031 181.0384 381.5031Q182.24153 381.5031 183.14778 382.1281Q184.06966 382.7375 184.5384 383.8625Q185.00716 384.97186 185.00716 386.3156Q185.00716 387.7375 184.49153 388.89374Q183.9759 390.03436 182.99153 390.65936Q182.00716 391.26874 180.92903 391.26874Q180.14778 391.26874 179.50716 390.9406Q178.88216 390.59686 178.4759 390.08124L178.4759 394.6281L176.89778 394.6281ZM178.33528 386.4406Q178.33528 388.2375 179.05403 389.09686Q179.7884 389.95624 180.81966 389.95624Q181.88216 389.95624 182.63216 389.0656Q183.38216 388.175 183.38216 386.3Q183.38216 384.51874 182.64778 383.6281Q181.9134 382.7375 180.89778 382.7375Q179.88216 382.7375 179.1009 383.6906Q178.33528 384.6281 178.33528 386.4406Z" fill-rule="nonzero"/><path fill="#000000" d="M211.73013 384.76874Q211.73013 381.5656 213.44888 379.7531Q215.16763 377.9406 217.90201 377.9406Q219.68326 377.9406 221.10513 378.8Q222.54263 379.64374 223.29263 381.175Q224.04263 382.6906 224.04263 384.6281Q224.04263 386.58124 223.24576 388.1281Q222.46451 389.675 221.01138 390.47186Q219.55826 391.26874 217.88638 391.26874Q216.07388 391.26874 214.63638 390.39374Q213.19888 389.51874 212.46451 388.0031Q211.73013 386.47186 211.73013 384.76874ZM213.48013 384.8Q213.48013 387.1281 214.73013 388.47186Q215.99576 389.8156 217.87076 389.8156Q219.80826 389.8156 221.04263 388.45624Q222.29263 387.09686 222.29263 384.6125Q222.29263 383.05 221.76138 381.8781Q221.23013 380.6906 220.19888 380.05Q219.18326 379.40936 217.90201 379.40936Q216.08951 379.40936 214.77701 380.65936Q213.48013 381.89374 213.48013 384.8ZM232.15201 391.05L232.15201 389.675Q231.07388 391.26874 229.19888 391.26874Q228.37076 391.26874 227.65201 390.95624Q226.93326 390.6281 226.58951 390.15936Q226.24576 389.675 226.10513 388.97186Q226.01138 388.5031 226.01138 387.5031L226.01138 381.72186L227.58951 381.72186L227.58951 386.89374Q227.58951 388.1281 227.68326 388.5656Q227.83951 389.1906 228.32388 389.55Q228.80826 389.89374 229.51138 389.89374Q230.23013 389.89374 230.85513 389.53436Q231.48013 389.175 231.73013 388.55Q231.99576 387.90936 231.99576 386.72186L231.99576 381.72186L233.57388 381.72186L233.57388 391.05L232.15201 391.05ZM236.05826 379.9875L236.05826 378.15936L237.63638 378.15936L237.63638 379.9875L236.05826 379.9875ZM236.05826 391.05L236.05826 381.72186L237.63638 381.72186L237.63638 391.05L236.05826 391.05ZM245.04263 394.6281L245.04263 381.72186L246.48013 381.72186L246.48013 382.925Q246.99576 382.22186 247.63638 381.8625Q248.27701 381.5031 249.18326 381.5031Q250.38638 381.5031 251.29263 382.1281Q252.21451 382.7375 252.68326 383.8625Q253.15201 384.97186 253.15201 386.3156Q253.15201 387.7375 252.63638 388.89374Q252.12076 390.03436 251.13638 390.65936Q250.15201 391.26874 249.07388 391.26874Q248.29263 391.26874 247.65201 390.9406Q247.02701 390.59686 246.62076 390.08124L246.62076 394.6281L245.04263 394.6281ZM246.48013 386.4406Q246.48013 388.2375 247.19888 389.09686Q247.93326 389.95624 248.96451 389.95624Q250.02701 389.95624 250.77701 389.0656Q251.52701 388.175 251.52701 386.3Q251.52701 384.51874 250.79263 383.6281Q250.05826 382.7375 249.04263 382.7375Q248.02701 382.7375 247.24576 383.6906Q246.48013 384.6281 246.48013 386.4406ZM255.01138 391.05L255.01138 378.15936L256.5895 378.15936L256.5895 391.05L255.01138 391.05ZM265.152 391.05L265.152 389.675Q264.07388 391.26874 262.19888 391.26874Q261.37076 391.26874 260.652 390.95624Q259.93326 390.6281 259.5895 390.15936Q259.24576 389.675 259.10513 388.97186Q259.01138 388.5031 259.01138 387.5031L259.01138 381.72186L260.5895 381.72186L260.5895 386.89374Q260.5895 388.1281 260.68326 388.5656Q260.8395 389.1906 261.32388 389.55Q261.80826 389.89374 262.51138 389.89374Q263.23013 389.89374 263.85513 389.53436Q264.48013 389.175 264.73013 388.55Q264.99576 387.90936 264.99576 386.72186L264.99576 381.72186L266.57388 381.72186L266.57388 391.05L265.152 391.05ZM272.49576 389.6281L272.73013 391.03436Q272.05826 391.175 271.527 391.175Q270.66763 391.175 270.18326 390.90936Q269.7145 390.6281 269.527 390.1906Q269.3395 389.7375 269.3395 388.3156L269.3395 382.9406L268.16763 382.9406L268.16763 381.72186L269.3395 381.72186L269.3395 379.40936L270.902 378.45624L270.902 381.72186L272.49576 381.72186L272.49576 382.9406L270.902 382.9406L270.902 388.40936Q270.902 389.08124 270.98013 389.28436Q271.07388 389.47186 271.26138 389.58124Q271.44888 389.6906 271.80826 389.6906Q272.05826 389.6906 272.49576 389.6281ZM273.44888 386.3781Q273.44888 383.78436 274.902 382.53436Q276.10513 381.5031 277.82388 381.5031Q279.76138 381.5031 280.98013 382.76874Q282.19888 384.03436 282.19888 386.2531Q282.19888 388.05 281.652 389.08124Q281.12076 390.1125 280.0895 390.6906Q279.05826 391.26874 277.82388 391.26874Q275.87076 391.26874 274.652 390.01874Q273.44888 388.7531 273.44888 386.3781ZM275.07388 386.3781Q275.07388 388.175 275.85513 389.0656Q276.63638 389.95624 277.82388 389.95624Q279.01138 389.95624 279.79263 389.0656Q280.57388 388.15936 280.57388 386.33124Q280.57388 384.59686 279.777 383.70624Q278.99576 382.8156 277.82388 382.8156Q276.63638 382.8156 275.85513 383.70624Q275.07388 384.59686 275.07388 386.3781ZM277.88638 379.0656L276.88638 380.55L275.07388 380.55L276.98013 378.09686L278.66763 378.09686L280.63638 380.55L278.8395 380.55L277.88638 379.0656ZM287.49576 389.6281L287.73013 391.03436Q287.05826 391.175 286.527 391.175Q285.66763 391.175 285.18326 390.90936Q284.7145 390.6281 284.527 390.1906Q284.3395 389.7375 284.3395 388.3156L284.3395 382.9406L283.16763 382.9406L283.16763 381.72186L284.3395 381.72186L284.3395 379.40936L285.902 378.45624L285.902 381.72186L287.49576 381.72186L287.49576 382.9406L285.902 382.9406L285.902 388.40936Q285.902 389.08124 285.98013 389.28436Q286.07388 389.47186 286.26138 389.58124Q286.44888 389.6906 286.80826 389.6906Q287.05826 389.6906 287.49576 389.6281Z" fill-rule="nonzero"/><path fill="#000000" d="M343.375 391.05L343.375 378.15936L345.125 378.15936L351.89062 388.28436L351.89062 378.15936L353.51562 378.15936L353.51562 391.05L351.78125 391.05L345.0 380.925L345.0 391.05L343.375 391.05ZM362.57812 388.05L364.21875 388.2531Q363.82812 389.675 362.78125 390.47186Q361.73438 391.26874 360.10938 391.26874Q358.0625 391.26874 356.85938 390.0031Q355.65625 388.7375 355.65625 386.45624Q355.65625 384.1125 356.85938 382.8156Q358.07812 381.5031 360.01562 381.5031Q361.89062 381.5031 363.07812 382.78436Q364.26562 384.05 364.26562 386.3625Q364.26562 386.5031 364.25 386.78436L357.29688 386.78436Q357.375 388.33124 358.15625 389.14374Q358.95312 389.95624 360.10938 389.95624Q360.98438 389.95624 361.59375 389.5031Q362.21875 389.05 362.57812 388.05ZM357.375 385.4875L362.59375 385.4875Q362.48438 384.3156 362.0 383.72186Q361.23438 382.8 360.03125 382.8Q358.95312 382.8 358.20312 383.53436Q357.46875 384.26874 357.375 385.4875ZM372.29688 391.05L372.29688 389.675Q371.21875 391.26874 369.34375 391.26874Q368.51562 391.26874 367.79688 390.95624Q367.07812 390.6281 366.73438 390.15936Q366.39062 389.675 366.25 388.97186Q366.15625 388.5031 366.15625 387.5031L366.15625 381.72186L367.73438 381.72186L367.73438 386.89374Q367.73438 388.1281 367.82812 388.5656Q367.98438 389.1906 368.46875 389.55Q368.95312 389.89374 369.65625 389.89374Q370.375 389.89374 371.0 389.53436Q371.625 389.175 371.875 388.55Q372.14062 387.90936 372.14062 386.72186L372.14062 381.72186L373.71875 381.72186L373.71875 391.05L372.29688 391.05ZM379.64062 389.6281L379.875 391.03436Q379.20312 391.175 378.67188 391.175Q377.8125 391.175 377.32812 390.90936Q376.85938 390.6281 376.67188 390.1906Q376.48438 389.7375 376.48438 388.3156L376.48438 382.9406L375.3125 382.9406L375.3125 381.72186L376.48438 381.72186L376.48438 379.40936L378.04688 378.45624L378.04688 381.72186L379.64062 381.72186L379.64062 382.9406L378.04688 382.9406L378.04688 388.40936Q378.04688 389.08124 378.125 389.28436Q378.21875 389.47186 378.40625 389.58124Q378.59375 389.6906 378.95312 389.6906Q379.20312 389.6906 379.64062 389.6281ZM381.17188 391.05L381.17188 381.72186L382.59375 381.72186L382.59375 383.1281Q383.14062 382.14374 383.59375 381.83124Q384.0625 381.5031 384.60938 381.5031Q385.42188 381.5031 386.23438 382.01874L385.70312 383.4875Q385.10938 383.14374 384.53125 383.14374Q384.01562 383.14374 383.59375 383.45624Q383.1875 383.76874 383.01562 384.3156Q382.75 385.15936 382.75 386.15936L382.75 391.05L381.17188 391.05ZM393.57812 388.05L395.21875 388.2531Q394.82812 389.675 393.78125 390.47186Q392.73438 391.26874 391.10938 391.26874Q389.0625 391.26874 387.85938 390.0031Q386.65625 388.7375 386.65625 386.45624Q386.65625 384.1125 387.85938 382.8156Q389.07812 381.5031 391.01562 381.5031Q392.89062 381.5031 394.07812 382.78436Q395.26562 384.05 395.26562 386.3625Q395.26562 386.5031 395.25 386.78436L388.29688 386.78436Q388.375 388.33124 389.15625 389.14374Q389.95312 389.95624 391.10938 389.95624Q391.98438 389.95624 392.59375 389.5031Q393.21875 389.05 393.57812 388.05ZM388.375 385.4875L393.59375 385.4875Q393.48438 384.3156 393.0 383.72186Q392.23438 382.8 391.03125 382.8Q389.95312 382.8 389.20312 383.53436Q388.46875 384.26874 388.375 385.4875Z" fill-rule="nonzero"/><path fill="#000000" d="M449.01987 391.05L449.01987 378.15936L450.76987 378.15936L457.5355 388.28436L457.5355 378.15936L459.1605 378.15936L459.1605 391.05L457.42612 391.05L450.64487 380.925L450.64487 391.05L449.01987 391.05ZM461.23862 386.3781Q461.23862 383.78436 462.69174 382.53436Q463.89487 381.5031 465.61362 381.5031Q467.55112 381.5031 468.76987 382.76874Q469.98862 384.03436 469.98862 386.2531Q469.98862 388.05 469.44174 389.08124Q468.9105 390.1125 467.87924 390.6906Q466.848 391.26874 465.61362 391.26874Q463.6605 391.26874 462.44174 390.01874Q461.23862 388.7531 461.23862 386.3781ZM462.86362 386.3781Q462.86362 388.175 463.64487 389.0656Q464.42612 389.95624 465.61362 389.95624Q466.80112 389.95624 467.58237 389.0656Q468.36362 388.15936 468.36362 386.33124Q468.36362 384.59686 467.56674 383.70624Q466.7855 382.8156 465.61362 382.8156Q464.42612 382.8156 463.64487 383.70624Q462.86362 384.59686 462.86362 386.3781ZM471.83237 391.05L471.83237 381.72186L473.25424 381.72186L473.25424 383.05Q474.2855 381.5031 476.223 381.5031Q477.06674 381.5031 477.76987 381.8156Q478.48862 382.1125 478.83237 382.6125Q479.19174 383.09686 479.33237 383.76874Q479.4105 384.20624 479.4105 385.3156L479.4105 391.05L477.83237 391.05L477.83237 385.3781Q477.83237 384.40936 477.64487 383.925Q477.473 383.4406 476.98862 383.15936Q476.51987 382.8781 475.89487 382.8781Q474.87924 382.8781 474.14487 383.51874Q473.4105 384.15936 473.4105 385.95624L473.4105 391.05L471.83237 391.05ZM486.83237 394.6281L486.83237 381.72186L488.26987 381.72186L488.26987 382.925Q488.7855 382.22186 489.42612 381.8625Q490.06674 381.5031 490.973 381.5031Q492.17612 381.5031 493.08237 382.1281Q494.00424 382.7375 494.473 383.8625Q494.94174 384.97186 494.94174 386.3156Q494.94174 387.7375 494.42612 388.89374Q493.9105 390.03436 492.92612 390.65936Q491.94174 391.26874 490.86362 391.26874Q490.08237 391.26874 489.44174 390.9406Q488.81674 390.59686 488.4105 390.08124L488.4105 394.6281L486.83237 394.6281ZM488.26987 386.4406Q488.26987 388.2375 488.98862 389.09686Q489.723 389.95624 490.75424 389.95624Q491.81674 389.95624 492.56674 389.0656Q493.31674 388.175 493.31674 386.3Q493.31674 384.51874 492.58237 383.6281Q491.848 382.7375 490.83237 382.7375Q489.81674 382.7375 489.0355 383.6906Q488.26987 384.6281 488.26987 386.4406ZM496.80112 391.05L496.80112 378.15936L498.37924 378.15936L498.37924 391.05L496.80112 391.05ZM506.94174 391.05L506.94174 389.675Q505.86362 391.26874 503.98862 391.26874Q503.1605 391.26874 502.44174 390.95624Q501.723 390.6281 501.37924 390.15936Q501.0355 389.675 500.89487 388.97186Q500.80112 388.5031 500.80112 387.5031L500.80112 381.72186L502.37924 381.72186L502.37924 386.89374Q502.37924 388.1281 502.473 388.5656Q502.62924 389.1906 503.11362 389.55Q503.598 389.89374 504.30112 389.89374Q505.01987 389.89374 505.64487 389.53436Q506.26987 389.175 506.51987 388.55Q506.7855 387.90936 506.7855 386.72186L506.7855 381.72186L508.36362 381.72186L508.36362 391.05L506.94174 391.05ZM514.2855 389.6281L514.5199 391.03436Q513.848 391.175 513.3168 391.175Q512.4574 391.175 511.973 390.90936Q511.50424 390.6281 511.31674 390.1906Q511.12924 389.7375 511.12924 388.3156L511.12924 382.9406L509.95737 382.9406L509.95737 381.72186L511.12924 381.72186L511.12924 379.40936L512.6918 378.45624L512.6918 381.72186L514.2855 381.72186L514.2855 382.9406L512.6918 382.9406L512.6918 388.40936Q512.6918 389.08124 512.7699 389.28436Q512.86365 389.47186 513.05115 389.58124Q513.23865 389.6906 513.598 389.6906Q513.848 389.6906 514.2855 389.6281ZM515.23865 386.3781Q515.23865 383.78436 516.6918 382.53436Q517.8949 381.5031 519.61365 381.5031Q521.55115 381.5031 522.7699 382.76874Q523.98865 384.03436 523.98865 386.2531Q523.98865 388.05 523.4418 389.08124Q522.9105 390.1125 521.8793 390.6906Q520.848 391.26874 519.61365 391.26874Q517.6605 391.26874 516.4418 390.01874Q515.23865 388.7531 515.23865 386.3781ZM516.86365 386.3781Q516.86365 388.175 517.6449 389.0656Q518.42615 389.95624 519.61365 389.95624Q520.80115 389.95624 521.5824 389.0656Q522.36365 388.15936 522.36365 386.33124Q522.36365 384.59686 521.5668 383.70624Q520.7855 382.8156 519.61365 382.8156Q518.42615 382.8156 517.6449 383.70624Q516.86365 384.59686 516.86365 386.3781ZM519.67615 379.0656L518.67615 380.55L516.86365 380.55L518.7699 378.09686L520.4574 378.09686L522.42615 380.55L520.6293 380.55L519.67615 379.0656ZM529.2855 389.6281L529.5199 391.03436Q528.848 391.175 528.3168 391.175Q527.4574 391.175 526.973 390.90936Q526.5043 390.6281 526.3168 390.1906Q526.1293 389.7375 526.1293 388.3156L526.1293 382.9406L524.9574 382.9406L524.9574 381.72186L526.1293 381.72186L526.1293 379.40936L527.6918 378.45624L527.6918 381.72186L529.2855 381.72186L529.2855 382.9406L527.6918 382.9406L527.6918 388.40936Q527.6918 389.08124 527.7699 389.28436Q527.86365 389.47186 528.05115 389.58124Q528.23865 389.6906 528.598 389.6906Q528.848 389.6906 529.2855 389.6281Z" fill-rule="nonzero"/><path fill="#000000" d="M475.33237 416.6281L475.33237 403.72186L476.76987 403.72186L476.76987 404.925Q477.2855 404.22186 477.92612 403.8625Q478.56674 403.5031 479.473 403.5031Q480.67612 403.5031 481.58237 404.1281Q482.50424 404.7375 482.973 405.8625Q483.44174 406.97186 483.44174 408.3156Q483.44174 409.7375 482.92612 410.89374Q482.4105 412.03436 481.42612 412.65936Q480.44174 413.26874 479.36362 413.26874Q478.58237 413.26874 477.94174 412.9406Q477.31674 412.59686 476.9105 412.08124L476.9105 416.6281L475.33237 416.6281ZM476.76987 408.4406Q476.76987 410.2375 477.48862 411.09686Q478.223 411.95624 479.25424 411.95624Q480.31674 411.95624 481.06674 411.0656Q481.81674 410.175 481.81674 408.3Q481.81674 406.51874 481.08237 405.6281Q480.348 404.7375 479.33237 404.7375Q478.31674 404.7375 477.5355 405.6906Q476.76987 406.6281 476.76987 408.4406ZM491.42612 411.89374Q490.55112 412.64374 489.723 412.95624Q488.9105 413.26874 487.98862 413.26874Q486.44174 413.26874 485.61362 412.51874Q484.80112 411.7531 484.80112 410.58124Q484.80112 409.90936 485.11362 409.34686Q485.42612 408.76874 485.92612 408.425Q486.42612 408.08124 487.06674 407.90936Q487.5355 407.78436 488.473 407.675Q490.37924 407.4406 491.2855 407.1281Q491.30112 406.8 491.30112 406.70624Q491.30112 405.7531 490.848 405.34686Q490.23862 404.8156 489.05112 404.8156Q487.92612 404.8156 487.39487 405.20624Q486.86362 405.59686 486.61362 406.59686L485.06674 406.3781Q485.2855 405.3781 485.75424 404.76874Q486.23862 404.15936 487.14487 403.83124Q488.06674 403.5031 489.2855 403.5031Q490.473 403.5031 491.223 403.78436Q491.973 404.0656 492.31674 404.5031Q492.67612 404.925 492.81674 405.5656Q492.89487 405.97186 492.89487 407.03436L492.89487 409.14374Q492.89487 411.34686 492.98862 411.9406Q493.098 412.51874 493.39487 413.05L491.73862 413.05Q491.48862 412.55 491.42612 411.89374ZM491.2855 408.3625Q490.42612 408.72186 488.70737 408.95624Q487.73862 409.09686 487.33237 409.28436Q486.92612 409.45624 486.70737 409.8Q486.48862 410.1281 486.48862 410.55Q486.48862 411.175 486.95737 411.59686Q487.44174 412.01874 488.36362 412.01874Q489.2855 412.01874 489.98862 411.6281Q490.70737 411.22186 491.0355 410.53436Q491.2855 409.9875 491.2855 408.9406L491.2855 408.3625ZM494.69174 410.26874L496.26987 410.01874Q496.39487 410.95624 496.98862 411.45624Q497.598 411.95624 498.67612 411.95624Q499.76987 411.95624 500.30112 411.51874Q500.83237 411.0656 500.83237 410.47186Q500.83237 409.9406 500.36362 409.6281Q500.0355 409.425 498.73862 409.09686Q497.00424 408.65936 496.33237 408.34686Q495.6605 408.01874 495.30112 407.45624Q494.95737 406.8781 494.95737 406.1906Q494.95737 405.5656 495.23862 405.03436Q495.5355 404.5031 496.01987 404.15936Q496.39487 403.8781 497.0355 403.6906Q497.67612 403.5031 498.39487 403.5031Q499.50424 403.5031 500.33237 403.83124Q501.1605 404.14374 501.55112 404.6906Q501.95737 405.22186 502.098 406.1281L500.55112 406.33124Q500.44174 405.6125 499.94174 405.20624Q499.44174 404.8 498.51987 404.8Q497.42612 404.8 496.95737 405.15936Q496.48862 405.51874 496.48862 406.0031Q496.48862 406.3156 496.69174 406.5656Q496.87924 406.8156 497.2855 406.9875Q497.5355 407.0656 498.69174 407.39374Q500.36362 407.83124 501.01987 408.1281Q501.69174 408.40936 502.06674 408.95624Q502.45737 409.5031 502.45737 410.3Q502.45737 411.09686 501.98862 411.8Q501.5355 412.5031 500.6605 412.89374Q499.7855 413.26874 498.69174 413.26874Q496.86362 413.26874 495.9105 412.51874Q494.95737 411.7531 494.69174 410.26874Z" fill-rule="nonzero"/><path fill="#000000" d="M563.66473 391.05L563.66473 378.15936L565.41473 378.15936L572.18036 388.28436L572.18036 378.15936L573.80536 378.15936L573.80536 391.05L572.071 391.05L565.28973 380.925L565.28973 391.05L563.66473 391.05ZM575.8835 386.3781Q575.8835 383.78436 577.3366 382.53436Q578.53973 381.5031 580.2585 381.5031Q582.196 381.5031 583.41473 382.76874Q584.6335 384.03436 584.6335 386.2531Q584.6335 388.05 584.0866 389.08124Q583.55536 390.1125 582.5241 390.6906Q581.49286 391.26874 580.2585 391.26874Q578.30536 391.26874 577.0866 390.01874Q575.8835 388.7531 575.8835 386.3781ZM577.5085 386.3781Q577.5085 388.175 578.28973 389.0656Q579.071 389.95624 580.2585 389.95624Q581.446 389.95624 582.22723 389.0656Q583.0085 388.15936 583.0085 386.33124Q583.0085 384.59686 582.2116 383.70624Q581.43036 382.8156 580.2585 382.8156Q579.071 382.8156 578.28973 383.70624Q577.5085 384.59686 577.5085 386.3781ZM586.47723 391.05L586.47723 381.72186L587.8991 381.72186L587.8991 383.05Q588.93036 381.5031 590.86786 381.5031Q591.7116 381.5031 592.41473 381.8156Q593.1335 382.1125 593.47723 382.6125Q593.8366 383.09686 593.97723 383.76874Q594.05536 384.20624 594.05536 385.3156L594.05536 391.05L592.47723 391.05L592.47723 385.3781Q592.47723 384.40936 592.28973 383.925Q592.11786 383.4406 591.6335 383.15936Q591.16473 382.8781 590.53973 382.8781Q589.5241 382.8781 588.78973 383.51874Q588.05536 384.15936 588.05536 385.95624L588.05536 391.05L586.47723 391.05ZM601.47723 394.6281L601.47723 381.72186L602.91473 381.72186L602.91473 382.925Q603.43036 382.22186 604.071 381.8625Q604.7116 381.5031 605.61786 381.5031Q606.821 381.5031 607.72723 382.1281Q608.6491 382.7375 609.11786 383.8625Q609.5866 384.97186 609.5866 386.3156Q609.5866 387.7375 609.071 388.89374Q608.55536 390.03436 607.571 390.65936Q606.5866 391.26874 605.5085 391.26874Q604.72723 391.26874 604.0866 390.9406Q603.4616 390.59686 603.05536 390.08124L603.05536 394.6281L601.47723 394.6281ZM602.91473 386.4406Q602.91473 388.2375 603.6335 389.09686Q604.36786 389.95624 605.3991 389.95624Q606.4616 389.95624 607.2116 389.0656Q607.9616 388.175 607.9616 386.3Q607.9616 384.51874 607.22723 383.6281Q606.49286 382.7375 605.47723 382.7375Q604.4616 382.7375 603.68036 383.6906Q602.91473 384.6281 602.91473 386.4406ZM617.571 389.89374Q616.696 390.64374 615.86786 390.95624Q615.05536 391.26874 614.1335 391.26874Q612.5866 391.26874 611.7585 390.51874Q610.946 389.7531 610.946 388.58124Q610.946 387.90936 611.2585 387.34686Q611.571 386.76874 612.071 386.425Q612.571 386.08124 613.2116 385.90936Q613.68036 385.78436 614.61786 385.675Q616.5241 385.4406 617.43036 385.1281Q617.446 384.8 617.446 384.70624Q617.446 383.7531 616.99286 383.34686Q616.3835 382.8156 615.196 382.8156Q614.071 382.8156 613.53973 383.20624Q613.0085 383.59686 612.7585 384.59686L611.2116 384.3781Q611.43036 383.3781 611.8991 382.76874Q612.3835 382.15936 613.28973 381.83124Q614.2116 381.5031 615.43036 381.5031Q616.61786 381.5031 617.36786 381.78436Q618.11786 382.0656 618.4616 382.5031Q618.821 382.925 618.9616 383.5656Q619.03973 383.97186 619.03973 385.03436L619.03973 387.14374Q619.03973 389.34686 619.1335 389.9406Q619.24286 390.51874 619.53973 391.05L617.8835 391.05Q617.6335 390.55 617.571 389.89374ZM617.43036 386.3625Q616.571 386.72186 614.85223 386.95624Q613.8835 387.09686 613.47723 387.28436Q613.071 387.45624 612.85223 387.8Q612.6335 388.1281 612.6335 388.55Q612.6335 389.175 613.10223 389.59686Q613.5866 390.01874 614.5085 390.01874Q615.43036 390.01874 616.1335 389.6281Q616.85223 389.22186 617.18036 388.53436Q617.43036 387.9875 617.43036 386.9406L617.43036 386.3625ZM620.8366 388.26874L622.41473 388.01874Q622.53973 388.95624 623.1335 389.45624Q623.74286 389.95624 624.821 389.95624Q625.91473 389.95624 626.446 389.51874Q626.97723 389.0656 626.97723 388.47186Q626.97723 387.9406 626.5085 387.6281Q626.18036 387.425 624.8835 387.09686Q623.1491 386.65936 622.47723 386.34686Q621.80536 386.01874 621.446 385.45624Q621.10223 384.8781 621.10223 384.1906Q621.10223 383.5656 621.3835 383.03436Q621.68036 382.5031 622.16473 382.15936Q622.53973 381.8781 623.18036 381.6906Q623.821 381.5031 624.53973 381.5031Q625.6491 381.5031 626.47723 381.83124Q627.30536 382.14374 627.696 382.6906Q628.10223 383.22186 628.24286 384.1281L626.696 384.33124Q626.5866 383.6125 626.0866 383.20624Q625.5866 382.8 624.66473 382.8Q623.571 382.8 623.10223 383.15936Q622.6335 383.51874 622.6335 384.0031Q622.6335 384.3156 622.8366 384.5656Q623.0241 384.8156 623.43036 384.9875Q623.68036 385.0656 624.8366 385.39374Q626.5085 385.83124 627.16473 386.1281Q627.8366 386.40936 628.2116 386.95624Q628.60223 387.5031 628.60223 388.3Q628.60223 389.09686 628.1335 389.8Q627.68036 390.5031 626.80536 390.89374Q625.93036 391.26874 624.8366 391.26874Q623.0085 391.26874 622.05536 390.51874Q621.10223 389.7531 620.8366 388.26874ZM641.53973 391.05L641.53973 389.8781Q640.6491 391.26874 638.91473 391.26874Q637.80536 391.26874 636.86786 390.65936Q635.93036 390.03436 635.41473 388.9406Q634.8991 387.83124 634.8991 386.39374Q634.8991 384.9875 635.36786 383.8625Q635.8366 382.72186 636.7585 382.1125Q637.696 381.5031 638.85223 381.5031Q639.696 381.5031 640.35223 381.8625Q641.0085 382.22186 641.43036 382.78436L641.43036 378.15936L642.99286 378.15936L642.99286 391.05L641.53973 391.05ZM636.5241 386.39374Q636.5241 388.1906 637.2741 389.08124Q638.03973 389.95624 639.071 389.95624Q640.10223 389.95624 640.821 389.1125Q641.55536 388.26874 641.55536 386.51874Q641.55536 384.6125 640.821 383.72186Q640.0866 382.8156 639.0085 382.8156Q637.946 382.8156 637.22723 383.675Q636.5241 384.53436 636.5241 386.39374ZM651.5866 391.05L651.5866 389.675Q650.5085 391.26874 648.6335 391.26874Q647.80536 391.26874 647.0866 390.95624Q646.36786 390.6281 646.0241 390.15936Q645.68036 389.675 645.53973 388.97186Q645.446 388.5031 645.446 387.5031L645.446 381.72186L647.0241 381.72186L647.0241 386.89374Q647.0241 388.1281 647.11786 388.5656Q647.2741 389.1906 647.7585 389.55Q648.24286 389.89374 648.946 389.89374Q649.66473 389.89374 650.28973 389.53436Q650.91473 389.175 651.16473 388.55Q651.43036 387.90936 651.43036 386.72186L651.43036 381.72186L653.0085 381.72186L653.0085 391.05L651.5866 391.05Z" fill-rule="nonzero"/><path fill="#000000" d="M597.93036 411.6281L598.16473 413.03436Q597.49286 413.175 596.9616 413.175Q596.10223 413.175 595.61786 412.90936Q595.1491 412.6281 594.9616 412.1906Q594.7741 411.7375 594.7741 410.3156L594.7741 404.9406L593.60223 404.9406L593.60223 403.72186L594.7741 403.72186L594.7741 401.40936L596.3366 400.45624L596.3366 403.72186L597.93036 403.72186L597.93036 404.9406L596.3366 404.9406L596.3366 410.40936Q596.3366 411.08124 596.41473 411.28436Q596.5085 411.47186 596.696 411.58124Q596.8835 411.6906 597.24286 411.6906Q597.49286 411.6906 597.93036 411.6281ZM598.8835 408.3781Q598.8835 405.78436 600.3366 404.53436Q601.53973 403.5031 603.2585 403.5031Q605.196 403.5031 606.41473 404.76874Q607.6335 406.03436 607.6335 408.2531Q607.6335 410.05 607.0866 411.08124Q606.55536 412.1125 605.5241 412.6906Q604.49286 413.26874 603.2585 413.26874Q601.30536 413.26874 600.0866 412.01874Q598.8835 410.7531 598.8835 408.3781ZM600.5085 408.3781Q600.5085 410.175 601.28973 411.0656Q602.071 411.95624 603.2585 411.95624Q604.446 411.95624 605.22723 411.0656Q606.0085 410.15936 606.0085 408.33124Q606.0085 406.59686 605.2116 405.70624Q604.43036 404.8156 603.2585 404.8156Q602.071 404.8156 601.28973 405.70624Q600.5085 406.59686 600.5085 408.3781ZM615.5866 413.05L615.5866 411.675Q614.5085 413.26874 612.6335 413.26874Q611.80536 413.26874 611.0866 412.95624Q610.36786 412.6281 610.0241 412.15936Q609.68036 411.675 609.53973 410.97186Q609.446 410.5031 609.446 409.5031L609.446 403.72186L611.0241 403.72186L611.0241 408.89374Q611.0241 410.1281 611.11786 410.5656Q611.2741 411.1906 611.7585 411.55Q612.24286 411.89374 612.946 411.89374Q613.66473 411.89374 614.28973 411.53436Q614.91473 411.175 615.16473 410.55Q615.43036 409.90936 615.43036 408.72186L615.43036 403.72186L617.0085 403.72186L617.0085 413.05L615.5866 413.05ZM622.93036 411.6281L623.16473 413.03436Q622.49286 413.175 621.9616 413.175Q621.10223 413.175 620.61786 412.90936Q620.1491 412.6281 619.9616 412.1906Q619.7741 411.7375 619.7741 410.3156L619.7741 404.9406L618.60223 404.9406L618.60223 403.72186L619.7741 403.72186L619.7741 401.40936L621.3366 400.45624L621.3366 403.72186L622.93036 403.72186L622.93036 404.9406L621.3366 404.9406L621.3366 410.40936Q621.3366 411.08124 621.41473 411.28436Q621.5085 411.47186 621.696 411.58124Q621.8835 411.6906 622.24286 411.6906Q622.49286 411.6906 622.93036 411.6281Z" fill-rule="nonzero"/></svg>