<svg version="1.1" viewBox="0.0 0.0 665.0 400.0" fill="none" stroke="none" stroke-linecap="square" stroke-miterlimit="10" width="665" height="400" xmlns:xlink="http://www.w3.org/1999/xlink" xmlns="http://www.w3.org/2000/svg"><path fill="#ffffff" d="M0 0L665.0 0L665.0 400.0L0 400.0L0 0Z" fill-rule="nonzero"/><path fill="#ea4335" d="M177.16148 214.78833C166.37166 167.515 177.69576 117.900894 207.92818 79.99062C238.16061 42.080353 284.01096 20.0 332.5 20.0L332.5 179.33333Z" fill-rule="nonzero"/><path fill="#4285f4" d="M332.5 20.0C415.8783 20.0 485.15695 84.28118 491.38782 167.42635C497.61868 250.5715 438.69443 324.46014 356.2474 336.88705C273.80035 349.31393 195.7149 296.07617 177.16148 214.78833L332.5 179.33333Z" fill-rule="nonzero"/><path fill="#000000" d="M360.52673 242.21516L358.7611 242.21516L358.7611 231.01204Q358.1361 231.62141 357.10486 232.23079Q356.0736 232.82454 355.24548 233.13704L355.24548 231.43391Q356.72986 230.74641 357.8236 229.76204Q358.93298 228.76204 359.3861 227.84016L360.52673 227.84016L360.52673 242.21516ZM364.90173 235.15266Q364.90173 232.62141 365.41736 231.07454Q365.9486 229.51204 366.97986 228.68391Q368.0111 227.84016 369.5736 227.84016Q370.72986 227.84016 371.58923 228.30891Q372.46423 228.76204 373.02673 229.63704Q373.58923 230.51204 373.91736 231.77766Q374.24548 233.02766 374.24548 235.15266Q374.24548 237.66829 373.71423 239.21516Q373.1986 240.76204 372.16736 241.62141Q371.15173 242.46516 369.5736 242.46516Q367.49548 242.46516 366.3236 240.98079Q364.90173 239.18391 364.90173 235.15266ZM366.71423 235.15266Q366.71423 238.68391 367.52673 239.85579Q368.35486 241.01204 369.5736 241.01204Q370.77673 241.01204 371.60486 239.84016Q372.43298 238.66829 372.43298 235.15266Q372.43298 231.62141 371.60486 230.46516Q370.77673 229.29329 369.55798 229.29329Q368.33923 229.29329 367.62048 230.32454Q366.71423 231.62141 366.71423 235.15266ZM385.74548 246.41829Q384.29236 244.59016 383.29236 242.13704Q382.29236 239.66829 382.29236 237.02766Q382.29236 234.69954 383.04236 232.57454Q383.91736 230.10579 385.74548 227.65266L387.0111 227.65266Q385.8236 229.68391 385.4486 230.55891Q384.85486 231.90266 384.5111 233.37141Q384.08923 235.19954 384.08923 237.04329Q384.08923 241.73079 387.0111 246.41829L385.74548 246.41829ZM389.02673 229.77766L389.02673 228.09016L398.29236 228.09016L398.29236 229.44954Q396.91736 230.90266 395.5736 233.32454Q394.22986 235.73079 393.5111 238.27766Q392.97986 240.07454 392.8236 242.21516L391.02673 242.21516Q391.05798 240.52766 391.68298 238.13704Q392.3236 235.74641 393.5111 233.52766Q394.6986 231.29329 396.02673 229.77766L389.02673 229.77766ZM406.52673 242.21516L404.7611 242.21516L404.7611 231.01204Q404.1361 231.62141 403.10486 232.23079Q402.0736 232.82454 401.24548 233.13704L401.24548 231.43391Q402.72986 230.74641 403.8236 229.76204Q404.93298 228.76204 405.3861 227.84016L406.52673 227.84016L406.52673 242.21516ZM411.85486 242.21516L411.85486 240.21516L413.85486 240.21516L413.85486 242.21516Q413.85486 243.32454 413.46423 243.99641Q413.0736 244.68391 412.22986 245.04329L411.72986 244.29329Q412.29236 244.05891 412.55798 243.57454Q412.8236 243.10579 412.85486 242.21516L411.85486 242.21516ZM422.54236 242.21516L422.54236 238.79329L416.3236 238.79329L416.3236 237.16829L422.85486 227.90266L424.29236 227.90266L424.29236 237.16829L426.22986 237.16829L426.22986 238.79329L424.29236 238.79329L424.29236 242.21516L422.54236 242.21516ZM422.54236 237.16829L422.54236 230.71516L418.05798 237.16829L422.54236 237.16829ZM428.22986 231.34016Q428.22986 229.80891 428.99548 228.73079Q429.77673 227.65266 431.24548 227.65266Q432.58923 227.65266 433.46423 228.62141Q434.35486 229.57454 434.35486 231.44954Q434.35486 233.26204 433.46423 234.24641Q432.5736 235.21516 431.2611 235.21516Q429.96423 235.21516 429.08923 234.26204Q428.22986 233.29329 428.22986 231.34016ZM431.29236 228.87141Q430.6361 228.87141 430.1986 229.43391Q429.77673 229.99641 429.77673 231.51204Q429.77673 232.88704 430.21423 233.44954Q430.65173 234.01204 431.29236 234.01204Q431.96423 234.01204 432.3861 233.44954Q432.8236 232.87141 432.8236 231.37141Q432.8236 229.98079 432.3861 229.43391Q431.9486 228.87141 431.29236 228.87141ZM431.30798 242.74641L439.1361 227.65266L440.55798 227.65266L432.7611 242.74641L431.30798 242.74641ZM437.49548 238.85579Q437.49548 237.30891 438.2611 236.24641Q439.04236 235.16829 440.5111 235.16829Q441.85486 235.16829 442.72986 236.13704Q443.62048 237.09016 443.62048 238.96516Q443.62048 240.77766 442.72986 241.76204Q441.83923 242.74641 440.52673 242.74641Q439.22986 242.74641 438.35486 241.77766Q437.49548 240.79329 437.49548 238.85579ZM440.55798 236.38704Q439.90173 236.38704 439.46423 236.94954Q439.02673 237.51204 439.02673 239.02766Q439.02673 240.40266 439.46423 240.96516Q439.90173 241.52766 440.55798 241.52766Q441.22986 241.52766 441.65173 240.96516Q442.08923 240.40266 442.08923 238.88704Q442.08923 237.51204 441.65173 236.94954Q441.21423 236.38704 440.55798 236.38704ZM447.54236 246.41829L446.29236 246.41829Q449.1986 241.73079 449.1986 237.04329Q449.1986 235.19954 448.79236 233.40266Q448.4486 231.93391 447.85486 230.59016Q447.47986 229.69954 446.29236 227.65266L447.54236 227.65266Q449.3861 230.10579 450.2611 232.57454Q451.0111 234.69954 451.0111 237.02766Q451.0111 239.66829 449.99548 242.13704Q448.99548 244.59016 447.54236 246.41829Z" fill-rule="nonzero"/><path fill="#000000" d="M221.24133 127.53768L221.24133 124.11581L215.02258 124.11581L215.02258 122.49081L221.55383 113.22518L222.99133 113.22518L222.99133 122.49081L224.92883 122.49081L224.92883 124.11581L222.99133 124.11581L222.99133 127.53768L221.24133 127.53768ZM221.24133 122.49081L221.24133 116.03768L216.75696 122.49081L221.24133 122.49081ZM236.44446 131.74081Q234.99133 129.91269 233.99133 127.45956Q232.99133 124.99081 232.99133 122.35018Q232.99133 120.02206 233.74133 117.89706Q234.61633 115.42831 236.44446 112.97518L237.71008 112.97518Q236.52258 115.00643 236.14758 115.88143Q235.55383 117.22518 235.21008 118.69393Q234.78821 120.52206 234.78821 122.36581Q234.78821 127.05331 237.71008 131.74081L236.44446 131.74081ZM248.83508 125.85018L248.83508 127.53768L239.38196 127.53768Q239.36633 126.89706 239.58508 126.31893Q239.94446 125.35018 240.74133 124.41268Q241.53821 123.47518 243.03821 122.24081Q245.38196 120.33456 246.19446 119.22518Q247.02258 118.10018 247.02258 117.10018Q247.02258 116.05331 246.27258 115.33456Q245.52258 114.61581 244.31946 114.61581Q243.05383 114.61581 242.28821 115.38143Q241.52258 116.14706 241.52258 117.49081L239.71008 117.30331Q239.89758 115.28768 241.10071 114.22518Q242.31946 113.16268 244.36633 113.16268Q246.41321 113.16268 247.61633 114.30331Q248.81946 115.44393 248.81946 117.13143Q248.81946 117.99081 248.46008 118.83456Q248.11633 119.66268 247.30383 120.58456Q246.49133 121.49081 244.60071 123.10018Q243.00696 124.42831 242.55383 124.89706Q242.11633 125.36581 241.81946 125.85018L248.83508 125.85018ZM253.30383 119.77206Q252.21008 119.36581 251.67883 118.63143Q251.16321 117.88143 251.16321 116.85018Q251.16321 115.28768 252.28821 114.22518Q253.41321 113.16268 255.27258 113.16268Q257.14758 113.16268 258.2882 114.25643Q259.42883 115.33456 259.42883 116.89706Q259.42883 117.89706 258.89758 118.63143Q258.38196 119.36581 257.31946 119.77206Q258.64758 120.20956 259.33508 121.16268Q260.02258 122.11581 260.02258 123.44393Q260.02258 125.28768 258.71008 126.53768Q257.4132 127.78768 255.30383 127.78768Q253.17883 127.78768 251.88196 126.53768Q250.58508 125.27206 250.58508 123.39706Q250.58508 122.00643 251.28821 121.06893Q252.00696 120.11581 253.30383 119.77206ZM252.96008 116.78768Q252.96008 117.80331 253.61633 118.45956Q254.27258 119.10018 255.30383 119.10018Q256.31946 119.10018 256.9757 118.45956Q257.63196 117.81893 257.63196 116.89706Q257.63196 115.92831 256.96008 115.27206Q256.2882 114.60018 255.28821 114.60018Q254.28821 114.60018 253.61633 115.25643Q252.96008 115.89706 252.96008 116.78768ZM252.39758 123.41268Q252.39758 124.16268 252.74133 124.86581Q253.10071 125.56893 253.80383 125.95956Q254.50696 126.33456 255.31946 126.33456Q256.58508 126.33456 257.39758 125.52206Q258.2257 124.70956 258.2257 123.45956Q258.2257 122.19393 257.38196 121.36581Q256.5382 120.53768 255.25696 120.53768Q254.02258 120.53768 253.21008 121.36581Q252.39758 122.17831 252.39758 123.41268ZM262.55383 127.53768L262.55383 125.53768L264.55383 125.53768L264.55383 127.53768Q264.55383 128.64706 264.1632 129.31894Q263.77258 130.00644 262.92883 130.36581L262.42883 129.61581Q262.99133 129.38144 263.25696 128.89706Q263.52258 128.42831 263.55383 127.53768L262.55383 127.53768ZM276.7257 116.72518L274.9757 116.86581Q274.74133 115.83456 274.31946 115.36581Q273.6007 114.60018 272.55383 114.60018Q271.71008 114.60018 271.08508 115.06893Q270.25696 115.67831 269.77258 116.85018Q269.2882 118.00643 269.27258 120.14706Q269.9132 119.19393 270.81946 118.72518Q271.74133 118.25643 272.75696 118.25643Q274.50696 118.25643 275.74133 119.55331Q276.9757 120.83456 276.9757 122.88143Q276.9757 124.24081 276.39758 125.39706Q275.81946 126.55331 274.80383 127.17831Q273.7882 127.78768 272.49133 127.78768Q270.30383 127.78768 268.9132 126.17831Q267.52258 124.55331 267.52258 120.83456Q267.52258 116.69393 269.05383 114.80331Q270.39758 113.16268 272.6632 113.16268Q274.3507 113.16268 275.42883 114.11581Q276.50696 115.05331 276.7257 116.72518ZM269.55383 122.89706Q269.55383 123.80331 269.92883 124.63143Q270.31946 125.45956 271.00696 125.89706Q271.71008 126.33456 272.46008 126.33456Q273.58508 126.33456 274.38196 125.44393Q275.17883 124.53768 275.17883 122.99081Q275.17883 121.50643 274.38196 120.66268Q273.6007 119.80331 272.39758 119.80331Q271.21008 119.80331 270.38196 120.66268Q269.55383 121.50643 269.55383 122.89706ZM278.92883 116.66268Q278.92883 115.13143 279.69446 114.05331Q280.4757 112.97518 281.94446 112.97518Q283.2882 112.97518 284.1632 113.94393Q285.05383 114.89706 285.05383 116.77206Q285.05383 118.58456 284.1632 119.56893Q283.27258 120.53768 281.96008 120.53768Q280.6632 120.53768 279.7882 119.58456Q278.92883 118.61581 278.92883 116.66268ZM281.99133 114.19393Q281.33508 114.19393 280.89758 114.75643Q280.4757 115.31893 280.4757 116.83456Q280.4757 118.20956 280.9132 118.77206Q281.3507 119.33456 281.99133 119.33456Q282.6632 119.33456 283.08508 118.77206Q283.52258 118.19393 283.52258 116.69393Q283.52258 115.30331 283.08508 114.75643Q282.64758 114.19393 281.99133 114.19393ZM282.00696 128.06894L289.83508 112.97518L291.25696 112.97518L283.46008 128.06894L282.00696 128.06894ZM288.19446 124.17831Q288.19446 122.63143 288.96008 121.56893Q289.74133 120.49081 291.21008 120.49081Q292.55383 120.49081 293.42883 121.45956Q294.31946 122.41268 294.31946 124.28768Q294.31946 126.10018 293.42883 127.08456Q292.5382 128.06894 291.2257 128.06894Q289.92883 128.06894 289.05383 127.10018Q288.19446 126.11581 288.19446 124.17831ZM291.25696 121.70956Q290.6007 121.70956 290.1632 122.27206Q289.7257 122.83456 289.7257 124.35018Q289.7257 125.72518 290.1632 126.28768Q290.6007 126.85018 291.25696 126.85018Q291.92883 126.85018 292.3507 126.28768Q292.7882 125.72518 292.7882 124.20956Q292.7882 122.83456 292.3507 122.27206Q291.9132 121.70956 291.25696 121.70956ZM298.24133 131.74081L296.99133 131.74081Q299.89758 127.05331 299.89758 122.36581Q299.89758 120.52206 299.49133 118.72518Q299.14758 117.25643 298.55383 115.91268Q298.17883 115.02206 296.99133 112.97518L298.24133 112.97518Q300.08508 115.42831 300.96008 117.89706Q301.71008 120.02206 301.71008 122.35018Q301.71008 124.99081 300.69446 127.45956Q299.69446 129.91269 298.24133 131.74081Z" fill-rule="nonzero"/><path fill="#4285f4" d="M276.5 366.0C276.5 369.31372 273.81372 372.0 270.5 372.0C267.18628 372.0 264.5 369.31372 264.5 366.0C264.5 362.68628 267.18628 360.0 270.5 360.0C273.81372 360.0 276.5 362.68628 276.5 366.0Z" fill-rule="nonzero"/><path fill="#1a1a1a" d="M285.65625 365.625Q285.65625 361.35938 287.95312 358.9375Q290.25 356.51562 293.89062 356.51562Q296.26562 356.51562 298.17188 357.65625Q300.09375 358.78125 301.09375 360.82812Q302.09375 362.85938 302.09375 365.4375Q302.09375 368.04688 301.03125 370.10938Q299.98438 372.17188 298.04688 373.23438Q296.10938 374.29688 293.875 374.29688Q291.45312 374.29688 289.53125 373.125Q287.625 371.95312 286.64062 369.92188Q285.65625 367.89062 285.65625 365.625ZM288.0 365.67188Q288.0 368.76562 289.67188 370.5625Q291.34375 372.34375 293.85938 372.34375Q296.4375 372.34375 298.09375 370.54688Q299.75 368.73438 299.75 365.42188Q299.75 363.32812 299.03125 361.76562Q298.32812 360.1875 296.95312 359.32812Q295.59375 358.46875 293.90625 358.46875Q291.48438 358.46875 289.73438 360.125Q288.0 361.78125 288.0 365.67188ZM313.23438 374.0L313.23438 372.17188Q311.78125 374.28125 309.29688 374.28125Q308.1875 374.28125 307.23438 373.85938Q306.28125 373.4375 305.8125 372.79688Q305.35938 372.15625 305.17188 371.23438Q305.03125 370.60938 305.03125 369.26562L305.03125 361.54688L307.14062 361.54688L307.14062 368.45312Q307.14062 370.10938 307.28125 370.6875Q307.46875 371.51562 308.10938 372.0Q308.76562 372.46875 309.71875 372.46875Q310.65625 372.46875 311.48438 371.98438Q312.32812 371.48438 312.67188 370.65625Q313.01562 369.8125 313.01562 368.21875L313.01562 361.54688L315.125 361.54688L315.125 374.0L313.23438 374.0ZM318.09375 359.25L318.09375 356.8125L320.20312 356.8125L320.20312 359.25L318.09375 359.25ZM318.09375 374.0L318.09375 361.54688L320.20312 361.54688L320.20312 374.0L318.09375 374.0Z" fill-rule="nonzero"/><path fill="#ea4335" d="M349.5 366.0C349.5 369.31372 346.81372 372.0 343.5 372.0C340.18628 372.0 337.5 369.31372 337.5 366.0C337.5 362.68628 340.18628 360.0 343.5 360.0C346.81372 360.0 349.5 362.68628 349.5 366.0Z" fill-rule="nonzero"/><path fill="#1a1a1a" d="M359.32812 374.0L359.32812 356.8125L361.65625 356.8125L370.6875 370.3125L370.6875 356.8125L372.85938 356.8125L372.85938 374.0L370.53125 374.0L361.51562 360.5L361.51562 374.0L359.32812 374.0ZM375.29688 367.78125Q375.29688 364.3125 377.21875 362.65625Q378.82812 361.26562 381.14062 361.26562Q383.70312 361.26562 385.32812 362.95312Q386.95312 364.64062 386.95312 367.59375Q386.95312 370.0 386.23438 371.375Q385.51562 372.75 384.14062 373.51562Q382.76562 374.28125 381.14062 374.28125Q378.51562 374.28125 376.90625 372.60938Q375.29688 370.92188 375.29688 367.78125ZM377.46875 367.78125Q377.46875 370.17188 378.5 371.35938Q379.54688 372.54688 381.14062 372.54688Q382.70312 372.54688 383.75 371.35938Q384.79688 370.15625 384.79688 367.70312Q384.79688 365.39062 383.73438 364.20312Q382.6875 363.01562 381.14062 363.01562Q379.54688 363.01562 378.5 364.20312Q377.46875 365.39062 377.46875 367.78125ZM389.07812 374.0L389.07812 361.54688L390.98438 361.54688L390.98438 363.32812Q392.35938 361.26562 394.9375 361.26562Q396.0625 361.26562 397.0 361.67188Q397.95312 362.07812 398.42188 362.73438Q398.89062 363.39062 399.07812 364.29688Q399.20312 364.875 399.20312 366.34375L399.20312 374.0L397.09375 374.0L397.09375 366.42188Q397.09375 365.14062 396.84375 364.5Q396.59375 363.85938 395.96875 363.48438Q395.34375 363.09375 394.5 363.09375Q393.15625 363.09375 392.17188 363.95312Q391.1875 364.8125 391.1875 367.20312L391.1875 374.0L389.07812 374.0Z" fill-rule="nonzero"/></svg>