<svg version="1.1" viewBox="0.0 0.0 683.0 645.0" fill="none" stroke="none" stroke-linecap="square" stroke-miterlimit="10" width="683" height="645" xmlns:xlink="http://www.w3.org/1999/xlink" xmlns="http://www.w3.org/2000/svg"><path fill="#ffffff" d="M0 0L683.0 0L683.0 645.0L0 645.0L0 0Z" fill-rule="nonzero"/><path stroke="#333333" stroke-width="1.0" stroke-linecap="butt" d="M192.5 32.5L192.5 593.5" fill-rule="nonzero"/><path stroke="#cccccc" stroke-width="1.0" stroke-linecap="butt" d="M269.5 32.5L269.5 593.5" fill-rule="nonzero"/><path stroke="#cccccc" stroke-width="1.0" stroke-linecap="butt" d="M346.5 32.5L346.5 593.5" fill-rule="nonzero"/><path stroke="#cccccc" stroke-width="1.0" stroke-linecap="butt" d="M423.5 32.5L423.5 593.5" fill-rule="nonzero"/><path stroke="#cccccc" stroke-width="1.0" stroke-linecap="butt" d="M500.5 32.5L500.5 593.5" fill-rule="nonzero"/><path stroke="#cccccc" stroke-width="1.0" stroke-linecap="butt" d="M577.5 32.5L577.5 593.5" fill-rule="nonzero"/><path stroke="#cccccc" stroke-width="1.0" stroke-linecap="butt" d="M654.5 32.5L654.5 593.5" fill-rule="nonzero"/><clipPath id="id_0"><path d="M192.5 32.25L654.4364 32.25L654.4364 593.0051L192.5 593.0051L192.5 32.25Z" clip-rule="nonzero"/></clipPath><path stroke="#000000" stroke-width="2.0" stroke-linecap="butt" stroke-opacity="0.0" clip-path="url(#id_0)" d="M193.0 100.0L193.0 56.0L614.0 56.0C615.10455 56.0 616.0 56.89543 616.0 58.0L616.0 98.0C616.0 99.10457 615.10455 100.0 614.0 100.0Z" fill-rule="nonzero"/><path fill="#4285f4" clip-path="url(#id_0)" d="M193.0 100.0L193.0 56.0L614.0 56.0C615.10455 56.0 616.0 56.89543 616.0 58.0L616.0 98.0C616.0 99.10457 615.10455 100.0 614.0 100.0Z" fill-rule="nonzero"/><path stroke="#000000" stroke-width="2.0" stroke-linecap="butt" stroke-opacity="0.0" clip-path="url(#id_0)" d="M193.0 167.0L193.0 123.0L575.0 123.0C576.10455 123.0 577.0 123.89543 577.0 125.0L577.0 165.0C577.0 166.10457 576.10455 167.0 575.0 167.0Z" fill-rule="nonzero"/><path fill="#4285f4" clip-path="url(#id_0)" d="M193.0 167.0L193.0 123.0L575.0 123.0C576.10455 123.0 577.0 123.89543 577.0 125.0L577.0 165.0C577.0 166.10457 576.10455 167.0 575.0 167.0Z" fill-rule="nonzero"/><path stroke="#000000" stroke-width="2.0" stroke-linecap="butt" stroke-opacity="0.0" clip-path="url(#id_0)" d="M193.0 234.0L193.0 190.0L421.0 190.0C422.10458 190.0 423.0 190.89543 423.0 192.0L423.0 232.0C423.0 233.10457 422.10458 234.0 421.0 234.0Z" fill-rule="nonzero"/><path fill="#4285f4" clip-path="url(#id_0)" d="M193.0 234.0L193.0 190.0L421.0 190.0C422.10458 190.0 423.0 190.89543 423.0 192.0L423.0 232.0C423.0 233.10457 422.10458 234.0 421.0 234.0Z" fill-rule="nonzero"/><path stroke="#000000" stroke-width="2.0" stroke-linecap="butt" stroke-opacity="0.0" clip-path="url(#id_0)" d="M193.0 301.0L193.0 257.0L421.0 257.0C422.10458 257.0 423.0 257.89542 423.0 259.0L423.0 299.0C423.0 300.10458 422.10458 301.0 421.0 301.0Z" fill-rule="nonzero"/><path fill="#4285f4" clip-path="url(#id_0)" d="M193.0 301.0L193.0 257.0L421.0 257.0C422.10458 257.0 423.0 257.89542 423.0 259.0L423.0 299.0C423.0 300.10458 422.10458 301.0 421.0 301.0Z" fill-rule="nonzero"/><path stroke="#000000" stroke-width="2.0" stroke-linecap="butt" stroke-opacity="0.0" clip-path="url(#id_0)" d="M193.0 368.0L193.0 324.0L306.0 324.0C307.10458 324.0 308.0 324.89542 308.0 326.0L308.0 366.0C308.0 367.10458 307.10458 368.0 306.0 368.0Z" fill-rule="nonzero"/><path fill="#4285f4" clip-path="url(#id_0)" d="M193.0 368.0L193.0 324.0L306.0 324.0C307.10458 324.0 308.0 324.89542 308.0 326.0L308.0 366.0C308.0 367.10458 307.10458 368.0 306.0 368.0Z" fill-rule="nonzero"/><path stroke="#000000" stroke-width="2.0" stroke-linecap="butt" stroke-opacity="0.0" clip-path="url(#id_0)" d="M193.0 435.0L193.0 391.0L229.0 391.0C230.10457 391.0 231.0 391.89542 231.0 393.0L231.0 433.0C231.0 434.10458 230.10457 435.0 229.0 435.0Z" fill-rule="nonzero"/><path fill="#4285f4" clip-path="url(#id_0)" d="M193.0 435.0L193.0 391.0L229.0 391.0C230.10457 391.0 231.0 391.89542 231.0 393.0L231.0 433.0C231.0 434.10458 230.10457 435.0 229.0 435.0Z" fill-rule="nonzero"/><path stroke="#000000" stroke-width="2.0" stroke-linecap="butt" stroke-opacity="0.0" clip-path="url(#id_0)" d="M193.0 503.0L193.0 459.0L229.0 459.0C230.10457 459.0 231.0 459.89542 231.0 461.0L231.0 501.0C231.0 502.10458 230.10457 503.0 229.0 503.0Z" fill-rule="nonzero"/><path fill="#4285f4" clip-path="url(#id_0)" d="M193.0 503.0L193.0 459.0L229.0 459.0C230.10457 459.0 231.0 459.89542 231.0 461.0L231.0 501.0C231.0 502.10458 230.10457 503.0 229.0 503.0Z" fill-rule="nonzero"/><path stroke="#000000" stroke-width="2.0" stroke-linecap="butt" stroke-opacity="0.0" clip-path="url(#id_0)" d="M193.0 570.0L193.0 526.0L229.0 526.0C230.10457 526.0 231.0 526.89545 231.0 528.0L231.0 568.0C231.0 569.10455 230.10457 570.0 229.0 570.0Z" fill-rule="nonzero"/><path fill="#4285f4" clip-path="url(#id_0)" d="M193.0 570.0L193.0 526.0L229.0 526.0C230.10457 526.0 231.0 526.89545 231.0 528.0L231.0 568.0C231.0 569.10455 230.10457 570.0 229.0 570.0Z" fill-rule="nonzero"/><path fill="#000000" d="M32.078125 84.580505L32.078125 70.268005L42.4375 70.268005L42.4375 71.955505L33.984375 71.955505L33.984375 76.330505L41.890625 76.330505L41.890625 78.018005L33.984375 78.018005L33.984375 82.893005L42.765625 82.893005L42.765625 84.580505L32.078125 84.580505ZM35.671875 68.924255L36.96875 66.18988L39.265625 66.18988L37.125 68.924255L35.671875 68.924255ZM48.65625 83.00238L48.90625 84.56488Q48.171875 84.72113 47.578125 84.72113Q46.625 84.72113 46.09375 84.424255Q45.578125 84.111755 45.359375 83.62738Q45.140625 83.12738 45.140625 81.549255L45.140625 75.580505L43.859375 75.580505L43.859375 74.205505L45.140625 74.205505L45.140625 71.643005L46.890625 70.580505L46.890625 74.205505L48.65625 74.205505L48.65625 75.580505L46.890625 75.580505L46.890625 81.643005Q46.890625 82.393005 46.984375 82.611755Q47.078125 82.81488 47.28125 82.955505Q47.5 83.080505 47.890625 83.080505Q48.171875 83.080505 48.65625 83.00238ZM50.8125 84.580505L50.8125 70.268005L52.578125 70.268005L52.578125 75.393005Q53.8125 73.97113 55.6875 73.97113Q56.828125 73.97113 57.671875 74.424255Q58.53125 74.87738 58.890625 75.68988Q59.265625 76.486755 59.265625 78.00238L59.265625 84.580505L57.515625 84.580505L57.515625 78.00238Q57.515625 76.68988 56.9375 76.09613Q56.359375 75.486755 55.328125 75.486755Q54.546875 75.486755 53.84375 75.893005Q53.15625 76.299255 52.859375 77.00238Q52.578125 77.68988 52.578125 78.90863L52.578125 84.580505L50.8125 84.580505ZM61.828125 72.28363L61.828125 70.268005L63.59375 70.268005L63.59375 72.28363L61.828125 72.28363ZM61.828125 84.580505L61.828125 74.205505L63.59375 74.205505L63.59375 84.580505L61.828125 84.580505ZM72.4375 88.549255L72.4375 83.47113Q72.015625 84.049255 71.28125 84.43988Q70.546875 84.81488 69.71875 84.81488Q67.875 84.81488 66.53125 83.34613Q65.203125 81.861755 65.203125 79.299255Q65.203125 77.736755 65.734375 76.50238Q66.28125 75.25238 67.3125 74.611755Q68.34375 73.97113 69.578125 73.97113Q71.5 73.97113 72.609375 75.59613L72.609375 74.205505L74.1875 74.205505L74.1875 88.549255L72.4375 88.549255ZM67.015625 79.361755Q67.015625 81.361755 67.84375 82.361755Q68.6875 83.361755 69.859375 83.361755Q70.984375 83.361755 71.796875 82.424255Q72.609375 81.47113 72.609375 79.518005Q72.609375 77.455505 71.75 76.40863Q70.890625 75.361755 69.75 75.361755Q68.609375 75.361755 67.8125 76.330505Q67.015625 77.299255 67.015625 79.361755ZM83.609375 84.580505L83.609375 83.049255Q82.40625 84.81488 80.328125 84.81488Q79.40625 84.81488 78.609375 84.47113Q77.8125 84.111755 77.421875 83.580505Q77.046875 83.049255 76.890625 82.268005Q76.78125 81.75238 76.78125 80.62738L76.78125 74.205505L78.53125 74.205505L78.53125 79.955505Q78.53125 81.330505 78.640625 81.81488Q78.8125 82.50238 79.34375 82.90863Q79.890625 83.299255 80.671875 83.299255Q81.46875 83.299255 82.15625 82.893005Q82.859375 82.486755 83.140625 81.799255Q83.4375 81.09613 83.4375 79.768005L83.4375 74.205505L85.1875 74.205505L85.1875 84.580505L83.609375 84.580505ZM94.921875 81.236755L96.734375 81.47113Q96.3125 83.049255 95.140625 83.93988Q93.984375 84.81488 92.171875 84.81488Q89.90625 84.81488 88.5625 83.424255Q87.234375 82.018005 87.234375 79.486755Q87.234375 76.861755 88.578125 75.424255Q89.921875 73.97113 92.078125 73.97113Q94.15625 73.97113 95.46875 75.393005Q96.796875 76.799255 96.796875 79.37738Q96.796875 79.53363 96.78125 79.84613L89.046875 79.84613Q89.140625 81.549255 90.015625 82.455505Q90.890625 83.361755 92.1875 83.361755Q93.15625 83.361755 93.828125 82.861755Q94.515625 82.34613 94.921875 81.236755ZM89.140625 78.393005L94.9375 78.393005Q94.828125 77.09613 94.28125 76.43988Q93.4375 75.424255 92.09375 75.424255Q90.890625 75.424255 90.0625 76.236755Q89.234375 77.03363 89.140625 78.393005ZM104.8125 84.580505L104.8125 74.205505L106.390625 74.205505L106.390625 75.65863Q106.875 74.90863 107.6875 74.43988Q108.5 73.97113 109.53125 73.97113Q110.6875 73.97113 111.421875 74.455505Q112.15625 74.924255 112.46875 75.78363Q113.703125 73.97113 115.671875 73.97113Q117.21875 73.97113 118.046875 74.830505Q118.875 75.68988 118.875 77.455505L118.875 84.580505L117.125 84.580505L117.125 78.049255Q117.125 76.986755 116.953125 76.53363Q116.78125 76.06488 116.328125 75.78363Q115.890625 75.50238 115.28125 75.50238Q114.1875 75.50238 113.453125 76.236755Q112.734375 76.955505 112.734375 78.549255L112.734375 84.580505L110.984375 84.580505L110.984375 77.84613Q110.984375 76.674255 110.546875 76.09613Q110.125 75.50238 109.140625 75.50238Q108.40625 75.50238 107.765625 75.893005Q107.140625 76.28363 106.859375 77.03363Q106.578125 77.78363 106.578125 79.205505L106.578125 84.580505L104.8125 84.580505ZM128.92188 81.236755L130.73438 81.47113Q130.3125 83.049255 129.14062 83.93988Q127.984375 84.81488 126.171875 84.81488Q123.90625 84.81488 122.5625 83.424255Q121.234375 82.018005 121.234375 79.486755Q121.234375 76.861755 122.578125 75.424255Q123.921875 73.97113 126.078125 73.97113Q128.15625 73.97113 129.46875 75.393005Q130.79688 76.799255 130.79688 79.37738Q130.79688 79.53363 130.78125 79.84613L123.046875 79.84613Q123.140625 81.549255 124.015625 82.455505Q124.890625 83.361755 126.1875 83.361755Q127.15625 83.361755 127.828125 82.861755Q128.51562 82.34613 128.92188 81.236755ZM123.140625 78.393005L128.9375 78.393005Q128.82812 77.09613 128.28125 76.43988Q127.4375 75.424255 126.09375 75.424255Q124.890625 75.424255 124.0625 76.236755Q123.234375 77.03363 123.140625 78.393005ZM124.671875 72.924255L125.96875 70.18988L128.26562 70.18988L126.125 72.924255L124.671875 72.924255ZM139.54688 84.580505L139.54688 83.268005Q138.5625 84.81488 136.64062 84.81488Q135.40625 84.81488 134.35938 84.12738Q133.32812 83.43988 132.75 82.22113Q132.1875 81.00238 132.1875 79.40863Q132.1875 77.84613 132.70312 76.580505Q133.21875 75.31488 134.25 74.643005Q135.29688 73.97113 136.5625 73.97113Q137.5 73.97113 138.23438 74.37738Q138.96875 74.768005 139.4375 75.393005L139.4375 70.268005L141.17188 70.268005L141.17188 84.580505L139.54688 84.580505ZM133.98438 79.40863Q133.98438 81.393005 134.82812 82.37738Q135.67188 83.361755 136.8125 83.361755Q137.96875 83.361755 138.76562 82.424255Q139.57812 81.486755 139.57812 79.549255Q139.57812 77.424255 138.75 76.424255Q137.9375 75.424255 136.73438 75.424255Q135.5625 75.424255 134.76562 76.393005Q133.98438 77.34613 133.98438 79.40863ZM143.82812 72.28363L143.82812 70.268005L145.59375 70.268005L145.59375 72.28363L143.82812 72.28363ZM143.82812 84.580505L143.82812 74.205505L145.59375 74.205505L145.59375 84.580505L143.82812 84.580505ZM154.59375 80.78363L156.3125 81.00238Q156.03125 82.799255 154.85938 83.81488Q153.70312 84.81488 152.0 84.81488Q149.875 84.81488 148.57812 83.424255Q147.28125 82.03363 147.28125 79.43988Q147.28125 77.75238 147.82812 76.50238Q148.39062 75.236755 149.53125 74.611755Q150.67188 73.97113 152.01562 73.97113Q153.70312 73.97113 154.76562 74.830505Q155.84375 75.68988 156.15625 77.25238L154.4375 77.518005Q154.20312 76.47113 153.57812 75.955505Q152.95312 75.424255 152.07812 75.424255Q150.75 75.424255 149.92188 76.37738Q149.09375 77.330505 149.09375 79.37738Q149.09375 81.47113 149.89062 82.424255Q150.6875 83.361755 151.98438 83.361755Q153.01562 83.361755 153.70312 82.736755Q154.40625 82.09613 154.59375 80.78363ZM164.59375 83.299255Q163.60938 84.12738 162.70312 84.47113Q161.79688 84.81488 160.76562 84.81488Q159.0625 84.81488 158.14062 83.986755Q157.21875 83.143005 157.21875 81.84613Q157.21875 81.080505 157.5625 80.455505Q157.92188 79.830505 158.48438 79.455505Q159.04688 79.06488 159.75 78.861755Q160.26562 78.736755 161.3125 78.59613Q163.4375 78.34613 164.4375 78.00238Q164.45312 77.643005 164.45312 77.53363Q164.45312 76.47113 163.95312 76.018005Q163.28125 75.424255 161.95312 75.424255Q160.70312 75.424255 160.10938 75.861755Q159.53125 76.299255 159.25 77.40863L157.53125 77.174255Q157.76562 76.06488 158.29688 75.393005Q158.82812 74.705505 159.84375 74.34613Q160.85938 73.97113 162.20312 73.97113Q163.53125 73.97113 164.35938 74.28363Q165.1875 74.59613 165.57812 75.080505Q165.96875 75.549255 166.125 76.268005Q166.21875 76.72113 166.21875 77.893005L166.21875 80.236755Q166.21875 82.68988 166.32812 83.34613Q166.4375 83.986755 166.78125 84.580505L164.9375 84.580505Q164.67188 84.03363 164.59375 83.299255ZM164.4375 79.37738Q163.48438 79.768005 161.5625 80.03363Q160.48438 80.18988 160.03125 80.393005Q159.59375 80.580505 159.34375 80.955505Q159.09375 81.330505 159.09375 81.799255Q159.09375 82.50238 159.625 82.97113Q160.15625 83.43988 161.1875 83.43988Q162.20312 83.43988 162.98438 83.00238Q163.78125 82.549255 164.15625 81.78363Q164.4375 81.174255 164.4375 80.018005L164.4375 79.37738ZM168.78125 84.580505L168.78125 70.268005L170.53125 70.268005L170.53125 84.580505L168.78125 84.580505ZM179.92188 81.236755L181.73438 81.47113Q181.3125 83.049255 180.14062 83.93988Q178.98438 84.81488 177.17188 84.81488Q174.90625 84.81488 173.5625 83.424255Q172.23438 82.018005 172.23438 79.486755Q172.23438 76.861755 173.57812 75.424255Q174.92188 73.97113 177.07812 73.97113Q179.15625 73.97113 180.46875 75.393005Q181.79688 76.799255 181.79688 79.37738Q181.79688 79.53363 181.78125 79.84613L174.04688 79.84613Q174.14062 81.549255 175.01562 82.455505Q175.89062 83.361755 177.1875 83.361755Q178.15625 83.361755 178.82812 82.861755Q179.51562 82.34613 179.92188 81.236755ZM174.14062 78.393005L179.9375 78.393005Q179.82812 77.09613 179.28125 76.43988Q178.4375 75.424255 177.09375 75.424255Q175.89062 75.424255 175.0625 76.236755Q174.23438 77.03363 174.14062 78.393005Z" fill-rule="nonzero"/><path fill="#000000" d="M56.078125 151.7368L56.078125 137.4243L66.4375 137.4243L66.4375 139.1118L57.984375 139.1118L57.984375 143.4868L65.890625 143.4868L65.890625 145.1743L57.984375 145.1743L57.984375 150.0493L66.765625 150.0493L66.765625 151.7368L56.078125 151.7368ZM59.671875 136.08055L60.96875 133.34618L63.265625 133.34618L61.125 136.08055L59.671875 136.08055ZM72.65625 150.15868L72.90625 151.72118Q72.171875 151.87743 71.578125 151.87743Q70.625 151.87743 70.09375 151.58055Q69.578125 151.26805 69.359375 150.78368Q69.140625 150.28368 69.140625 148.70555L69.140625 142.7368L67.859375 142.7368L67.859375 141.3618L69.140625 141.3618L69.140625 138.7993L70.890625 137.7368L70.890625 141.3618L72.65625 141.3618L72.65625 142.7368L70.890625 142.7368L70.890625 148.7993Q70.890625 149.5493 70.984375 149.76805Q71.078125 149.97118 71.28125 150.1118Q71.5 150.2368 71.890625 150.2368Q72.171875 150.2368 72.65625 150.15868ZM74.8125 151.7368L74.8125 137.4243L76.578125 137.4243L76.578125 142.5493Q77.8125 141.12743 79.6875 141.12743Q80.828125 141.12743 81.671875 141.58055Q82.53125 142.03368 82.890625 142.84618Q83.265625 143.64305 83.265625 145.15868L83.265625 151.7368L81.515625 151.7368L81.515625 145.15868Q81.515625 143.84618 80.9375 143.25243Q80.359375 142.64305 79.328125 142.64305Q78.546875 142.64305 77.84375 143.0493Q77.15625 143.45555 76.859375 144.15868Q76.578125 144.84618 76.578125 146.06493L76.578125 151.7368L74.8125 151.7368ZM85.828125 139.43993L85.828125 137.4243L87.59375 137.4243L87.59375 139.43993L85.828125 139.43993ZM85.828125 151.7368L85.828125 141.3618L87.59375 141.3618L87.59375 151.7368L85.828125 151.7368ZM96.4375 155.70555L96.4375 150.62743Q96.015625 151.20555 95.28125 151.59618Q94.546875 151.97118 93.71875 151.97118Q91.875 151.97118 90.53125 150.50243Q89.203125 149.01805 89.203125 146.45555Q89.203125 144.89305 89.734375 143.65868Q90.28125 142.40868 91.3125 141.76805Q92.34375 141.12743 93.578125 141.12743Q95.5 141.12743 96.609375 142.75243L96.609375 141.3618L98.1875 141.3618L98.1875 155.70555L96.4375 155.70555ZM91.015625 146.51805Q91.015625 148.51805 91.84375 149.51805Q92.6875 150.51805 93.859375 150.51805Q94.984375 150.51805 95.796875 149.58055Q96.609375 148.62743 96.609375 146.6743Q96.609375 144.6118 95.75 143.56493Q94.890625 142.51805 93.75 142.51805Q92.609375 142.51805 91.8125 143.4868Q91.015625 144.45555 91.015625 146.51805ZM107.609375 151.7368L107.609375 150.20555Q106.40625 151.97118 104.328125 151.97118Q103.40625 151.97118 102.609375 151.62743Q101.8125 151.26805 101.421875 150.7368Q101.046875 150.20555 100.890625 149.4243Q100.78125 148.90868 100.78125 147.78368L100.78125 141.3618L102.53125 141.3618L102.53125 147.1118Q102.53125 148.4868 102.640625 148.97118Q102.8125 149.65868 103.34375 150.06493Q103.890625 150.45555 104.671875 150.45555Q105.46875 150.45555 106.15625 150.0493Q106.859375 149.64305 107.140625 148.95555Q107.4375 148.25243 107.4375 146.9243L107.4375 141.3618L109.1875 141.3618L109.1875 151.7368L107.609375 151.7368ZM118.921875 148.39305L120.734375 148.62743Q120.3125 150.20555 119.140625 151.09618Q117.984375 151.97118 116.171875 151.97118Q113.90625 151.97118 112.5625 150.58055Q111.234375 149.1743 111.234375 146.64305Q111.234375 144.01805 112.578125 142.58055Q113.921875 141.12743 116.078125 141.12743Q118.15625 141.12743 119.46875 142.5493Q120.796875 143.95555 120.796875 146.53368Q120.796875 146.68993 120.78125 147.00243L113.046875 147.00243Q113.140625 148.70555 114.015625 149.6118Q114.890625 150.51805 116.1875 150.51805Q117.15625 150.51805 117.828125 150.01805Q118.515625 149.50243 118.921875 148.39305ZM113.140625 145.5493L118.9375 145.5493Q118.828125 144.25243 118.28125 143.59618Q117.4375 142.58055 116.09375 142.58055Q114.890625 142.58055 114.0625 143.39305Q113.234375 144.18993 113.140625 145.5493ZM135.54688 151.7368L135.54688 150.4243Q134.5625 151.97118 132.64062 151.97118Q131.40625 151.97118 130.35938 151.28368Q129.32812 150.59618 128.75 149.37743Q128.1875 148.15868 128.1875 146.56493Q128.1875 145.00243 128.70312 143.7368Q129.21875 142.47118 130.25 141.7993Q131.29688 141.12743 132.5625 141.12743Q133.5 141.12743 134.23438 141.53368Q134.96875 141.9243 135.4375 142.5493L135.4375 137.4243L137.17188 137.4243L137.17188 151.7368L135.54688 151.7368ZM129.98438 146.56493Q129.98438 148.5493 130.82812 149.53368Q131.67188 150.51805 132.8125 150.51805Q133.96875 150.51805 134.76562 149.58055Q135.57812 148.64305 135.57812 146.70555Q135.57812 144.58055 134.75 143.58055Q133.9375 142.58055 132.73438 142.58055Q131.5625 142.58055 130.76562 143.5493Q129.98438 144.50243 129.98438 146.56493ZM146.92188 148.39305L148.73438 148.62743Q148.3125 150.20555 147.14062 151.09618Q145.98438 151.97118 144.17188 151.97118Q141.90625 151.97118 140.5625 150.58055Q139.23438 149.1743 139.23438 146.64305Q139.23438 144.01805 140.57812 142.58055Q141.92188 141.12743 144.07812 141.12743Q146.15625 141.12743 147.46875 142.5493Q148.79688 143.95555 148.79688 146.53368Q148.79688 146.68993 148.78125 147.00243L141.04688 147.00243Q141.14062 148.70555 142.01562 149.6118Q142.89062 150.51805 144.1875 150.51805Q145.15625 150.51805 145.82812 150.01805Q146.51562 149.50243 146.92188 148.39305ZM141.14062 145.5493L146.9375 145.5493Q146.82812 144.25243 146.28125 143.59618Q145.4375 142.58055 144.09375 142.58055Q142.89062 142.58055 142.0625 143.39305Q141.23438 144.18993 141.14062 145.5493ZM156.78125 151.7368L156.78125 137.4243L158.53125 137.4243L158.53125 151.7368L156.78125 151.7368ZM160.82812 142.4868L160.375 139.81493L160.375 137.4243L162.375 137.4243L162.375 139.81493L161.90625 142.4868L160.82812 142.4868ZM165.35938 151.7368L165.35938 137.4243L167.26562 137.4243L167.26562 151.7368L165.35938 151.7368ZM169.46875 151.7368L174.96875 137.4243L177.01562 137.4243L182.875 151.7368L180.71875 151.7368L179.04688 147.39305L173.0625 147.39305L171.48438 151.7368L169.46875 151.7368ZM173.60938 145.8618L178.45312 145.8618L176.96875 141.89305Q176.28125 140.08055 175.95312 138.9243Q175.67188 140.2993 175.17188 141.65868L173.60938 145.8618Z" fill-rule="nonzero"/><path fill="#000000" d="M90.96875 218.8931L90.96875 204.5806L96.34375 204.5806Q97.984375 204.5806 98.96875 205.0181Q99.953125 205.43997 100.515625 206.34622Q101.078125 207.25247 101.078125 208.23685Q101.078125 209.15872 100.578125 209.97122Q100.09375 210.78372 99.078125 211.2681Q100.375 211.65872 101.078125 212.5806Q101.78125 213.48685 101.78125 214.73685Q101.78125 215.75247 101.34375 216.61185Q100.921875 217.47122 100.296875 217.93997Q99.671875 218.40872 98.734375 218.65872Q97.796875 218.8931 96.421875 218.8931L90.96875 218.8931ZM92.859375 210.59622L95.953125 210.59622Q97.21875 210.59622 97.765625 210.42435Q98.484375 210.2056 98.84375 209.72122Q99.21875 209.22122 99.21875 208.4556Q99.21875 207.75247 98.875 207.2056Q98.53125 206.65872 97.890625 206.47122Q97.265625 206.2681 95.71875 206.2681L92.859375 206.2681L92.859375 210.59622ZM92.859375 217.2056L96.421875 217.2056Q97.34375 217.2056 97.71875 217.12747Q98.375 217.0181 98.8125 216.75247Q99.25 216.47122 99.53125 215.9556Q99.8125 215.42435 99.8125 214.73685Q99.8125 213.93997 99.40625 213.34622Q99.0 212.75247 98.265625 212.5181Q97.53125 212.28372 96.171875 212.28372L92.859375 212.28372L92.859375 217.2056ZM103.828125 206.59622L103.828125 204.5806L105.59375 204.5806L105.59375 206.59622L103.828125 206.59622ZM103.828125 218.8931L103.828125 208.5181L105.59375 208.5181L105.59375 218.8931L103.828125 218.8931ZM107.171875 213.7056Q107.171875 210.8306 108.765625 209.43997Q110.109375 208.28372 112.03125 208.28372Q114.171875 208.28372 115.515625 209.68997Q116.875 211.09622 116.875 213.56497Q116.875 215.56497 116.28125 216.72122Q115.6875 217.86185 114.53125 218.50247Q113.390625 219.12747 112.03125 219.12747Q109.84375 219.12747 108.5 217.73685Q107.171875 216.3306 107.171875 213.7056ZM108.96875 213.7056Q108.96875 215.7056 109.828125 216.68997Q110.703125 217.67435 112.03125 217.67435Q113.34375 217.67435 114.203125 216.68997Q115.078125 215.68997 115.078125 213.6431Q115.078125 211.72122 114.203125 210.73685Q113.328125 209.73685 112.03125 209.73685Q110.703125 209.73685 109.828125 210.73685Q108.96875 211.72122 108.96875 213.7056ZM125.921875 215.54935L127.734375 215.78372Q127.3125 217.36185 126.140625 218.25247Q124.984375 219.12747 123.171875 219.12747Q120.90625 219.12747 119.5625 217.73685Q118.234375 216.3306 118.234375 213.79935Q118.234375 211.17435 119.578125 209.73685Q120.921875 208.28372 123.078125 208.28372Q125.15625 208.28372 126.46875 209.7056Q127.796875 211.11185 127.796875 213.68997Q127.796875 213.84622 127.78125 214.15872L120.046875 214.15872Q120.140625 215.86185 121.015625 216.7681Q121.890625 217.67435 123.1875 217.67435Q124.15625 217.67435 124.828125 217.17435Q125.515625 216.65872 125.921875 215.54935ZM120.140625 212.7056L125.9375 212.7056Q125.828125 211.40872 125.28125 210.75247Q124.4375 209.73685 123.09375 209.73685Q121.890625 209.73685 121.0625 210.54935Q120.234375 211.34622 120.140625 212.7056ZM121.671875 207.23685L122.96875 204.50247L125.265625 204.50247L123.125 207.23685L121.671875 207.23685ZM133.65625 217.31497L133.90625 218.87747Q133.17188 219.03372 132.57812 219.03372Q131.625 219.03372 131.09375 218.73685Q130.57812 218.42435 130.35938 217.93997Q130.14062 217.43997 130.14062 215.86185L130.14062 209.8931L128.85938 209.8931L128.85938 208.5181L130.14062 208.5181L130.14062 205.9556L131.89062 204.8931L131.89062 208.5181L133.65625 208.5181L133.65625 209.8931L131.89062 209.8931L131.89062 215.9556Q131.89062 216.7056 131.98438 216.92435Q132.07812 217.12747 132.28125 217.2681Q132.5 217.3931 132.89062 217.3931Q133.17188 217.3931 133.65625 217.31497ZM135.8125 218.8931L135.8125 204.5806L137.57812 204.5806L137.57812 209.7056Q138.8125 208.28372 140.6875 208.28372Q141.82812 208.28372 142.67188 208.73685Q143.53125 209.18997 143.89062 210.00247Q144.26562 210.79935 144.26562 212.31497L144.26562 218.8931L142.51562 218.8931L142.51562 212.31497Q142.51562 211.00247 141.9375 210.40872Q141.35938 209.79935 140.32812 209.79935Q139.54688 209.79935 138.84375 210.2056Q138.15625 210.61185 137.85938 211.31497Q137.57812 212.00247 137.57812 213.22122L137.57812 218.8931L135.8125 218.8931ZM146.82812 206.59622L146.82812 204.5806L148.59375 204.5806L148.59375 206.59622L146.82812 206.59622ZM146.82812 218.8931L146.82812 208.5181L148.59375 208.5181L148.59375 218.8931L146.82812 218.8931ZM157.4375 222.86185L157.4375 217.78372Q157.01562 218.36185 156.28125 218.75247Q155.54688 219.12747 154.71875 219.12747Q152.875 219.12747 151.53125 217.65872Q150.20312 216.17435 150.20312 213.61185Q150.20312 212.04935 150.73438 210.81497Q151.28125 209.56497 152.3125 208.92435Q153.34375 208.28372 154.57812 208.28372Q156.5 208.28372 157.60938 209.90872L157.60938 208.5181L159.1875 208.5181L159.1875 222.86185L157.4375 222.86185ZM152.01562 213.67435Q152.01562 215.67435 152.84375 216.67435Q153.6875 217.67435 154.85938 217.67435Q155.98438 217.67435 156.79688 216.73685Q157.60938 215.78372 157.60938 213.8306Q157.60938 211.7681 156.75 210.72122Q155.89062 209.67435 154.75 209.67435Q153.60938 209.67435 152.8125 210.6431Q152.01562 211.61185 152.01562 213.67435ZM168.60938 218.8931L168.60938 217.36185Q167.40625 219.12747 165.32812 219.12747Q164.40625 219.12747 163.60938 218.78372Q162.8125 218.42435 162.42188 217.8931Q162.04688 217.36185 161.89062 216.5806Q161.78125 216.06497 161.78125 214.93997L161.78125 208.5181L163.53125 208.5181L163.53125 214.2681Q163.53125 215.6431 163.64062 216.12747Q163.8125 216.81497 164.34375 217.22122Q164.89062 217.61185 165.67188 217.61185Q166.46875 217.61185 167.15625 217.2056Q167.85938 216.79935 168.14062 216.11185Q168.4375 215.40872 168.4375 214.0806L168.4375 208.5181L170.1875 208.5181L170.1875 218.8931L168.60938 218.8931ZM179.92188 215.54935L181.73438 215.78372Q181.3125 217.36185 180.14062 218.25247Q178.98438 219.12747 177.17188 219.12747Q174.90625 219.12747 173.5625 217.73685Q172.23438 216.3306 172.23438 213.79935Q172.23438 211.17435 173.57812 209.73685Q174.92188 208.28372 177.07812 208.28372Q179.15625 208.28372 180.46875 209.7056Q181.79688 211.11185 181.79688 213.68997Q181.79688 213.84622 181.78125 214.15872L174.04688 214.15872Q174.14062 215.86185 175.01562 216.7681Q175.89062 217.67435 177.1875 217.67435Q178.15625 217.67435 178.82812 217.17435Q179.51562 216.65872 179.92188 215.54935ZM174.14062 212.7056L179.9375 212.7056Q179.82812 211.40872 179.28125 210.75247Q178.4375 209.73685 177.09375 209.73685Q175.89062 209.73685 175.0625 210.54935Q174.23438 211.34622 174.14062 212.7056Z" fill-rule="nonzero"/><path fill="#000000" d="M27.078125 274.0494L27.078125 259.7369L37.4375 259.7369L37.4375 261.4244L28.984375 261.4244L28.984375 265.7994L36.890625 265.7994L36.890625 267.4869L28.984375 267.4869L28.984375 272.3619L37.765625 272.3619L37.765625 274.0494L27.078125 274.0494ZM30.671875 258.39316L31.96875 255.65878L34.265625 255.65878L32.125 258.39316L30.671875 258.39316ZM43.65625 272.47128L43.90625 274.03378Q43.171875 274.19003 42.578125 274.19003Q41.625 274.19003 41.09375 273.89316Q40.578125 273.58066 40.359375 273.09628Q40.140625 272.59628 40.140625 271.01816L40.140625 265.0494L38.859375 265.0494L38.859375 263.6744L40.140625 263.6744L40.140625 261.1119L41.890625 260.0494L41.890625 263.6744L43.65625 263.6744L43.65625 265.0494L41.890625 265.0494L41.890625 271.1119Q41.890625 271.8619 41.984375 272.08066Q42.078125 272.28378 42.28125 272.4244Q42.5 272.5494 42.890625 272.5494Q43.171875 272.5494 43.65625 272.47128ZM45.8125 274.0494L45.8125 259.7369L47.578125 259.7369L47.578125 264.8619Q48.8125 263.44003 50.6875 263.44003Q51.828125 263.44003 52.671875 263.89316Q53.53125 264.34628 53.890625 265.15878Q54.265625 265.95566 54.265625 267.47128L54.265625 274.0494L52.515625 274.0494L52.515625 267.47128Q52.515625 266.15878 51.9375 265.56503Q51.359375 264.95566 50.328125 264.95566Q49.546875 264.95566 48.84375 265.3619Q48.15625 265.76816 47.859375 266.47128Q47.578125 267.15878 47.578125 268.37753L47.578125 274.0494L45.8125 274.0494ZM56.828125 261.75253L56.828125 259.7369L58.59375 259.7369L58.59375 261.75253L56.828125 261.75253ZM56.828125 274.0494L56.828125 263.6744L58.59375 263.6744L58.59375 274.0494L56.828125 274.0494ZM67.4375 278.01816L67.4375 272.94003Q67.015625 273.51816 66.28125 273.90878Q65.546875 274.28378 64.71875 274.28378Q62.875 274.28378 61.53125 272.81503Q60.203125 271.33066 60.203125 268.76816Q60.203125 267.20566 60.734375 265.97128Q61.28125 264.72128 62.3125 264.08066Q63.34375 263.44003 64.578125 263.44003Q66.5 263.44003 67.609375 265.06503L67.609375 263.6744L69.1875 263.6744L69.1875 278.01816L67.4375 278.01816ZM62.015625 268.83066Q62.015625 270.83066 62.84375 271.83066Q63.6875 272.83066 64.859375 272.83066Q65.984375 272.83066 66.796875 271.89316Q67.609375 270.94003 67.609375 268.9869Q67.609375 266.9244 66.75 265.87753Q65.890625 264.83066 64.75 264.83066Q63.609375 264.83066 62.8125 265.7994Q62.015625 266.76816 62.015625 268.83066ZM78.609375 274.0494L78.609375 272.51816Q77.40625 274.28378 75.328125 274.28378Q74.40625 274.28378 73.609375 273.94003Q72.8125 273.58066 72.421875 273.0494Q72.046875 272.51816 71.890625 271.7369Q71.78125 271.22128 71.78125 270.09628L71.78125 263.6744L73.53125 263.6744L73.53125 269.4244Q73.53125 270.7994 73.640625 271.28378Q73.8125 271.97128 74.34375 272.37753Q74.890625 272.76816 75.671875 272.76816Q76.46875 272.76816 77.15625 272.3619Q77.859375 271.95566 78.140625 271.26816Q78.4375 270.56503 78.4375 269.2369L78.4375 263.6744L80.1875 263.6744L80.1875 274.0494L78.609375 274.0494ZM89.921875 270.70566L91.734375 270.94003Q91.3125 272.51816 90.140625 273.40878Q88.984375 274.28378 87.171875 274.28378Q84.90625 274.28378 83.5625 272.89316Q82.234375 271.4869 82.234375 268.95566Q82.234375 266.33066 83.578125 264.89316Q84.921875 263.44003 87.078125 263.44003Q89.15625 263.44003 90.46875 264.8619Q91.796875 266.26816 91.796875 268.84628Q91.796875 269.00253 91.78125 269.31503L84.046875 269.31503Q84.140625 271.01816 85.015625 271.9244Q85.890625 272.83066 87.1875 272.83066Q88.15625 272.83066 88.828125 272.33066Q89.515625 271.81503 89.921875 270.70566ZM84.140625 267.8619L89.9375 267.8619Q89.828125 266.56503 89.28125 265.90878Q88.4375 264.89316 87.09375 264.89316Q85.890625 264.89316 85.0625 265.70566Q84.234375 266.50253 84.140625 267.8619ZM99.109375 270.95566L100.859375 270.6744Q101.0 271.72128 101.671875 272.28378Q102.34375 272.83066 103.546875 272.83066Q104.75 272.83066 105.328125 272.34628Q105.921875 271.84628 105.921875 271.19003Q105.921875 270.59628 105.40625 270.25253Q105.046875 270.01816 103.609375 269.65878Q101.671875 269.15878 100.921875 268.81503Q100.1875 268.45566 99.796875 267.83066Q99.40625 267.19003 99.40625 266.4244Q99.40625 265.7369 99.71875 265.14316Q100.046875 264.5494 100.59375 264.15878Q101.0 263.8619 101.703125 263.65878Q102.421875 263.44003 103.234375 263.44003Q104.453125 263.44003 105.375 263.7994Q106.296875 264.14316 106.734375 264.75253Q107.171875 265.34628 107.34375 266.34628L105.625 266.58066Q105.5 265.78378 104.9375 265.34628Q104.375 264.89316 103.359375 264.89316Q102.140625 264.89316 101.625 265.2994Q101.109375 265.69003 101.109375 266.22128Q101.109375 266.56503 101.328125 266.84628Q101.53125 267.12753 102.0 267.31503Q102.265625 267.40878 103.546875 267.75253Q105.421875 268.25253 106.15625 268.58066Q106.890625 268.89316 107.3125 269.50253Q107.734375 270.09628 107.734375 271.00253Q107.734375 271.87753 107.21875 272.65878Q106.703125 273.44003 105.734375 273.8619Q104.765625 274.28378 103.546875 274.28378Q101.53125 274.28378 100.46875 273.44003Q99.40625 272.59628 99.109375 270.95566ZM109.171875 268.8619Q109.171875 265.9869 110.765625 264.59628Q112.109375 263.44003 114.03125 263.44003Q116.171875 263.44003 117.515625 264.84628Q118.875 266.25253 118.875 268.72128Q118.875 270.72128 118.28125 271.87753Q117.6875 273.01816 116.53125 273.65878Q115.390625 274.28378 114.03125 274.28378Q111.84375 274.28378 110.5 272.89316Q109.171875 271.4869 109.171875 268.8619ZM110.96875 268.8619Q110.96875 270.8619 111.828125 271.84628Q112.703125 272.83066 114.03125 272.83066Q115.34375 272.83066 116.203125 271.84628Q117.078125 270.84628 117.078125 268.7994Q117.078125 266.87753 116.203125 265.89316Q115.328125 264.89316 114.03125 264.89316Q112.703125 264.89316 111.828125 265.89316Q110.96875 266.87753 110.96875 268.8619ZM127.59375 270.25253L129.3125 270.47128Q129.03125 272.26816 127.859375 273.28378Q126.703125 274.28378 125.0 274.28378Q122.875 274.28378 121.578125 272.89316Q120.28125 271.50253 120.28125 268.90878Q120.28125 267.22128 120.828125 265.97128Q121.390625 264.70566 122.53125 264.08066Q123.671875 263.44003 125.015625 263.44003Q126.703125 263.44003 127.765625 264.2994Q128.84375 265.15878 129.15625 266.72128L127.4375 266.9869Q127.203125 265.94003 126.578125 265.4244Q125.953125 264.89316 125.078125 264.89316Q123.75 264.89316 122.921875 265.84628Q122.09375 266.7994 122.09375 268.84628Q122.09375 270.94003 122.890625 271.89316Q123.6875 272.83066 124.984375 272.83066Q126.015625 272.83066 126.703125 272.20566Q127.40625 271.56503 127.59375 270.25253ZM130.82812 261.75253L130.82812 259.7369L132.59375 259.7369L132.59375 261.75253L130.82812 261.75253ZM130.82812 274.0494L130.82812 263.6744L132.59375 263.6744L132.59375 274.0494L130.82812 274.0494ZM141.59375 272.76816Q140.60938 273.59628 139.70312 273.94003Q138.79688 274.28378 137.76562 274.28378Q136.0625 274.28378 135.14062 273.45566Q134.21875 272.6119 134.21875 271.31503Q134.21875 270.5494 134.5625 269.9244Q134.92188 269.2994 135.48438 268.9244Q136.04688 268.53378 136.75 268.33066Q137.26562 268.20566 138.3125 268.06503Q140.4375 267.81503 141.4375 267.47128Q141.45312 267.1119 141.45312 267.00253Q141.45312 265.94003 140.95312 265.4869Q140.28125 264.89316 138.95312 264.89316Q137.70312 264.89316 137.10938 265.33066Q136.53125 265.76816 136.25 266.87753L134.53125 266.64316Q134.76562 265.53378 135.29688 264.8619Q135.82812 264.1744 136.84375 263.81503Q137.85938 263.44003 139.20312 263.44003Q140.53125 263.44003 141.35938 263.75253Q142.1875 264.06503 142.57812 264.5494Q142.96875 265.01816 143.125 265.7369Q143.21875 266.19003 143.21875 267.3619L143.21875 269.70566Q143.21875 272.15878 143.32812 272.81503Q143.4375 273.45566 143.78125 274.0494L141.9375 274.0494Q141.67188 273.50253 141.59375 272.76816ZM141.4375 268.84628Q140.48438 269.2369 138.5625 269.50253Q137.48438 269.65878 137.03125 269.8619Q136.59375 270.0494 136.34375 270.4244Q136.09375 270.7994 136.09375 271.26816Q136.09375 271.97128 136.625 272.44003Q137.15625 272.90878 138.1875 272.90878Q139.20312 272.90878 139.98438 272.47128Q140.78125 272.01816 141.15625 271.25253Q141.4375 270.64316 141.4375 269.4869L141.4375 268.84628ZM145.78125 274.0494L145.78125 259.7369L147.53125 259.7369L147.53125 274.0494L145.78125 274.0494ZM156.92188 270.70566L158.73438 270.94003Q158.3125 272.51816 157.14062 273.40878Q155.98438 274.28378 154.17188 274.28378Q151.90625 274.28378 150.5625 272.89316Q149.23438 271.4869 149.23438 268.95566Q149.23438 266.33066 150.57812 264.89316Q151.92188 263.44003 154.07812 263.44003Q156.15625 263.44003 157.46875 264.8619Q158.79688 266.26816 158.79688 268.84628Q158.79688 269.00253 158.78125 269.31503L151.04688 269.31503Q151.14062 271.01816 152.01562 271.9244Q152.89062 272.83066 154.1875 272.83066Q155.15625 272.83066 155.82812 272.33066Q156.51562 271.81503 156.92188 270.70566ZM151.14062 267.8619L156.9375 267.8619Q156.82812 266.56503 156.28125 265.90878Q155.4375 264.89316 154.09375 264.89316Q152.89062 264.89316 152.0625 265.70566Q151.23438 266.50253 151.14062 267.8619ZM173.92188 270.70566L175.73438 270.94003Q175.3125 272.51816 174.14062 273.40878Q172.98438 274.28378 171.17188 274.28378Q168.90625 274.28378 167.5625 272.89316Q166.23438 271.4869 166.23438 268.95566Q166.23438 266.33066 167.57812 264.89316Q168.92188 263.44003 171.07812 263.44003Q173.15625 263.44003 174.46875 264.8619Q175.79688 266.26816 175.79688 268.84628Q175.79688 269.00253 175.78125 269.31503L168.04688 269.31503Q168.14062 271.01816 169.01562 271.9244Q169.89062 272.83066 171.1875 272.83066Q172.15625 272.83066 172.82812 272.33066Q173.51562 271.81503 173.92188 270.70566ZM168.14062 267.8619L173.9375 267.8619Q173.82812 266.56503 173.28125 265.90878Q172.4375 264.89316 171.09375 264.89316Q169.89062 264.89316 169.0625 265.70566Q168.23438 266.50253 168.14062 267.8619ZM181.65625 272.47128L181.90625 274.03378Q181.17188 274.19003 180.57812 274.19003Q179.625 274.19003 179.09375 273.89316Q178.57812 273.58066 178.35938 273.09628Q178.14062 272.59628 178.14062 271.01816L178.14062 265.0494L176.85938 265.0494L176.85938 263.6744L178.14062 263.6744L178.14062 261.1119L179.89062 260.0494L179.89062 263.6744L181.65625 263.6744L181.65625 265.0494L179.89062 265.0494L179.89062 271.1119Q179.89062 271.8619 179.98438 272.08066Q180.07812 272.28378 180.28125 272.4244Q180.5 272.5494 180.89062 272.5494Q181.17188 272.5494 181.65625 272.47128Z" fill-rule="nonzero"/><path fill="#000000" d="M110.8125 302.01816L110.8125 287.6744L112.421875 287.6744L112.421875 289.01816Q112.984375 288.2369 113.6875 287.84628Q114.40625 287.44003 115.421875 287.44003Q116.75 287.44003 117.765625 288.12753Q118.78125 288.81503 119.296875 290.06503Q119.828125 291.2994 119.828125 292.78378Q119.828125 294.37753 119.25 295.65878Q118.6875 296.9244 117.59375 297.6119Q116.5 298.28378 115.296875 298.28378Q114.421875 298.28378 113.71875 297.90878Q113.03125 297.53378 112.578125 296.97128L112.578125 302.01816L110.8125 302.01816ZM112.40625 292.9244Q112.40625 294.9244 113.21875 295.87753Q114.03125 296.83066 115.1875 296.83066Q116.359375 296.83066 117.1875 295.84628Q118.03125 294.8619 118.03125 292.76816Q118.03125 290.7994 117.203125 289.81503Q116.390625 288.81503 115.265625 288.81503Q114.140625 288.81503 113.265625 289.87753Q112.40625 290.9244 112.40625 292.9244ZM121.171875 292.8619Q121.171875 289.9869 122.765625 288.59628Q124.109375 287.44003 126.03125 287.44003Q128.17188 287.44003 129.51562 288.84628Q130.875 290.25253 130.875 292.72128Q130.875 294.72128 130.28125 295.87753Q129.6875 297.01816 128.53125 297.65878Q127.390625 298.28378 126.03125 298.28378Q123.84375 298.28378 122.5 296.89316Q121.171875 295.4869 121.171875 292.8619ZM122.96875 292.8619Q122.96875 294.8619 123.828125 295.84628Q124.703125 296.83066 126.03125 296.83066Q127.34375 296.83066 128.20312 295.84628Q129.07812 294.84628 129.07812 292.7994Q129.07812 290.87753 128.20312 289.89316Q127.328125 288.89316 126.03125 288.89316Q124.703125 288.89316 123.828125 289.89316Q122.96875 290.87753 122.96875 292.8619ZM132.78125 298.0494L132.78125 283.7369L134.53125 283.7369L134.53125 298.0494L132.78125 298.0494ZM136.82812 285.75253L136.82812 283.7369L138.59375 283.7369L138.59375 285.75253L136.82812 285.75253ZM136.82812 298.0494L136.82812 287.6744L138.59375 287.6744L138.59375 298.0494L136.82812 298.0494ZM144.65625 296.47128L144.90625 298.03378Q144.17188 298.19003 143.57812 298.19003Q142.625 298.19003 142.09375 297.89316Q141.57812 297.58066 141.35938 297.09628Q141.14062 296.59628 141.14062 295.01816L141.14062 289.0494L139.85938 289.0494L139.85938 287.6744L141.14062 287.6744L141.14062 285.1119L142.89062 284.0494L142.89062 287.6744L144.65625 287.6744L144.65625 289.0494L142.89062 289.0494L142.89062 295.1119Q142.89062 295.8619 142.98438 296.08066Q143.07812 296.28378 143.28125 296.4244Q143.5 296.5494 143.89062 296.5494Q144.17188 296.5494 144.65625 296.47128ZM146.82812 285.75253L146.82812 283.7369L148.59375 283.7369L148.59375 285.75253L146.82812 285.75253ZM146.82812 298.0494L146.82812 287.6744L148.59375 287.6744L148.59375 298.0494L146.82812 298.0494ZM157.4375 302.01816L157.4375 296.94003Q157.01562 297.51816 156.28125 297.90878Q155.54688 298.28378 154.71875 298.28378Q152.875 298.28378 151.53125 296.81503Q150.20312 295.33066 150.20312 292.76816Q150.20312 291.20566 150.73438 289.97128Q151.28125 288.72128 152.3125 288.08066Q153.34375 287.44003 154.57812 287.44003Q156.5 287.44003 157.60938 289.06503L157.60938 287.6744L159.1875 287.6744L159.1875 302.01816L157.4375 302.01816ZM152.01562 292.83066Q152.01562 294.83066 152.84375 295.83066Q153.6875 296.83066 154.85938 296.83066Q155.98438 296.83066 156.79688 295.89316Q157.60938 294.94003 157.60938 292.9869Q157.60938 290.9244 156.75 289.87753Q155.89062 288.83066 154.75 288.83066Q153.60938 288.83066 152.8125 289.7994Q152.01562 290.76816 152.01562 292.83066ZM168.60938 298.0494L168.60938 296.51816Q167.40625 298.28378 165.32812 298.28378Q164.40625 298.28378 163.60938 297.94003Q162.8125 297.58066 162.42188 297.0494Q162.04688 296.51816 161.89062 295.7369Q161.78125 295.22128 161.78125 294.09628L161.78125 287.6744L163.53125 287.6744L163.53125 293.4244Q163.53125 294.7994 163.64062 295.28378Q163.8125 295.97128 164.34375 296.37753Q164.89062 296.76816 165.67188 296.76816Q166.46875 296.76816 167.15625 296.3619Q167.85938 295.95566 168.14062 295.26816Q168.4375 294.56503 168.4375 293.2369L168.4375 287.6744L170.1875 287.6744L170.1875 298.0494L168.60938 298.0494ZM179.92188 294.70566L181.73438 294.94003Q181.3125 296.51816 180.14062 297.40878Q178.98438 298.28378 177.17188 298.28378Q174.90625 298.28378 173.5625 296.89316Q172.23438 295.4869 172.23438 292.95566Q172.23438 290.33066 173.57812 288.89316Q174.92188 287.44003 177.07812 287.44003Q179.15625 287.44003 180.46875 288.8619Q181.79688 290.26816 181.79688 292.84628Q181.79688 293.00253 181.78125 293.31503L174.04688 293.31503Q174.14062 295.01816 175.01562 295.9244Q175.89062 296.83066 177.1875 296.83066Q178.15625 296.83066 178.82812 296.33066Q179.51562 295.81503 179.92188 294.70566ZM174.14062 291.8619L179.9375 291.8619Q179.82812 290.56503 179.28125 289.90878Q178.4375 288.89316 177.09375 288.89316Q175.89062 288.89316 175.0625 289.70566Q174.23438 290.50253 174.14062 291.8619Z" fill-rule="nonzero"/><path fill="#000000" d="M34.078125 353.2057L34.078125 338.8932L44.4375 338.8932L44.4375 340.5807L35.984375 340.5807L35.984375 344.9557L43.890625 344.9557L43.890625 346.6432L35.984375 346.6432L35.984375 351.5182L44.765625 351.5182L44.765625 353.2057L34.078125 353.2057ZM37.671875 337.54944L38.96875 334.81506L41.265625 334.81506L39.125 337.54944L37.671875 337.54944ZM50.65625 351.62756L50.90625 353.19006Q50.171875 353.3463 49.578125 353.3463Q48.625 353.3463 48.09375 353.04944Q47.578125 352.73694 47.359375 352.25256Q47.140625 351.75256 47.140625 350.17444L47.140625 344.2057L45.859375 344.2057L45.859375 342.8307L47.140625 342.8307L47.140625 340.2682L48.890625 339.2057L48.890625 342.8307L50.65625 342.8307L50.65625 344.2057L48.890625 344.2057L48.890625 350.2682Q48.890625 351.0182 48.984375 351.23694Q49.078125 351.44006 49.28125 351.5807Q49.5 351.7057 49.890625 351.7057Q50.171875 351.7057 50.65625 351.62756ZM52.8125 353.2057L52.8125 338.8932L54.578125 338.8932L54.578125 344.0182Q55.8125 342.5963 57.6875 342.5963Q58.828125 342.5963 59.671875 343.04944Q60.53125 343.50256 60.890625 344.31506Q61.265625 345.11194 61.265625 346.62756L61.265625 353.2057L59.515625 353.2057L59.515625 346.62756Q59.515625 345.31506 58.9375 344.7213Q58.359375 344.11194 57.328125 344.11194Q56.546875 344.11194 55.84375 344.5182Q55.15625 344.92444 54.859375 345.62756Q54.578125 346.31506 54.578125 347.5338L54.578125 353.2057L52.8125 353.2057ZM63.828125 340.9088L63.828125 338.8932L65.59375 338.8932L65.59375 340.9088L63.828125 340.9088ZM63.828125 353.2057L63.828125 342.8307L65.59375 342.8307L65.59375 353.2057L63.828125 353.2057ZM74.4375 357.17444L74.4375 352.0963Q74.015625 352.67444 73.28125 353.06506Q72.546875 353.44006 71.71875 353.44006Q69.875 353.44006 68.53125 351.9713Q67.203125 350.48694 67.203125 347.92444Q67.203125 346.36194 67.734375 345.12756Q68.28125 343.87756 69.3125 343.23694Q70.34375 342.5963 71.578125 342.5963Q73.5 342.5963 74.609375 344.2213L74.609375 342.8307L76.1875 342.8307L76.1875 357.17444L74.4375 357.17444ZM69.015625 347.98694Q69.015625 349.98694 69.84375 350.98694Q70.6875 351.98694 71.859375 351.98694Q72.984375 351.98694 73.796875 351.04944Q74.609375 350.0963 74.609375 348.1432Q74.609375 346.0807 73.75 345.0338Q72.890625 343.98694 71.75 343.98694Q70.609375 343.98694 69.8125 344.9557Q69.015625 345.92444 69.015625 347.98694ZM85.609375 353.2057L85.609375 351.67444Q84.40625 353.44006 82.328125 353.44006Q81.40625 353.44006 80.609375 353.0963Q79.8125 352.73694 79.421875 352.2057Q79.046875 351.67444 78.890625 350.8932Q78.78125 350.37756 78.78125 349.25256L78.78125 342.8307L80.53125 342.8307L80.53125 348.5807Q80.53125 349.9557 80.640625 350.44006Q80.8125 351.12756 81.34375 351.5338Q81.890625 351.92444 82.671875 351.92444Q83.46875 351.92444 84.15625 351.5182Q84.859375 351.11194 85.140625 350.42444Q85.4375 349.7213 85.4375 348.3932L85.4375 342.8307L87.1875 342.8307L87.1875 353.2057L85.609375 353.2057ZM96.921875 349.86194L98.734375 350.0963Q98.3125 351.67444 97.140625 352.56506Q95.984375 353.44006 94.171875 353.44006Q91.90625 353.44006 90.5625 352.04944Q89.234375 350.6432 89.234375 348.11194Q89.234375 345.48694 90.578125 344.04944Q91.921875 342.5963 94.078125 342.5963Q96.15625 342.5963 97.46875 344.0182Q98.796875 345.42444 98.796875 348.00256Q98.796875 348.1588 98.78125 348.4713L91.046875 348.4713Q91.140625 350.17444 92.015625 351.0807Q92.890625 351.98694 94.1875 351.98694Q95.15625 351.98694 95.828125 351.48694Q96.515625 350.9713 96.921875 349.86194ZM91.140625 347.0182L96.9375 347.0182Q96.828125 345.7213 96.28125 345.06506Q95.4375 344.04944 94.09375 344.04944Q92.890625 344.04944 92.0625 344.86194Q91.234375 345.6588 91.140625 347.0182ZM106.8125 340.92444L106.8125 338.8932L108.5625 338.8932L108.5625 340.92444L106.8125 340.92444ZM104.578125 357.23694L104.90625 355.73694Q105.4375 355.87756 105.75 355.87756Q106.28125 355.87756 106.546875 355.5182Q106.8125 355.1588 106.8125 353.73694L106.8125 342.8307L108.5625 342.8307L108.5625 353.7682Q108.5625 355.69006 108.0625 356.44006Q107.4375 357.4088 105.953125 357.4088Q105.25 357.4088 104.578125 357.23694ZM117.609375 353.2057L117.609375 351.67444Q116.40625 353.44006 114.328125 353.44006Q113.40625 353.44006 112.609375 353.0963Q111.8125 352.73694 111.421875 352.2057Q111.046875 351.67444 110.890625 350.8932Q110.78125 350.37756 110.78125 349.25256L110.78125 342.8307L112.53125 342.8307L112.53125 348.5807Q112.53125 349.9557 112.640625 350.44006Q112.8125 351.12756 113.34375 351.5338Q113.890625 351.92444 114.671875 351.92444Q115.46875 351.92444 116.15625 351.5182Q116.859375 351.11194 117.140625 350.42444Q117.4375 349.7213 117.4375 348.3932L117.4375 342.8307L119.1875 342.8307L119.1875 353.2057L117.609375 353.2057ZM128.54688 353.2057L128.54688 351.8932Q127.5625 353.44006 125.640625 353.44006Q124.40625 353.44006 123.359375 352.75256Q122.328125 352.06506 121.75 350.8463Q121.1875 349.62756 121.1875 348.0338Q121.1875 346.4713 121.703125 345.2057Q122.21875 343.94006 123.25 343.2682Q124.296875 342.5963 125.5625 342.5963Q126.5 342.5963 127.234375 343.00256Q127.96875 343.3932 128.4375 344.0182L128.4375 338.8932L130.17188 338.8932L130.17188 353.2057L128.54688 353.2057ZM122.984375 348.0338Q122.984375 350.0182 123.828125 351.00256Q124.671875 351.98694 125.8125 351.98694Q126.96875 351.98694 127.765625 351.04944Q128.57812 350.11194 128.57812 348.17444Q128.57812 346.04944 127.75 345.04944Q126.9375 344.04944 125.734375 344.04944Q124.5625 344.04944 123.765625 345.0182Q122.984375 345.9713 122.984375 348.0338ZM132.82812 340.9088L132.82812 338.8932L134.59375 338.8932L134.59375 340.9088L132.82812 340.9088ZM132.82812 353.2057L132.82812 342.8307L134.59375 342.8307L134.59375 353.2057L132.82812 353.2057ZM143.59375 349.4088L145.3125 349.62756Q145.03125 351.42444 143.85938 352.44006Q142.70312 353.44006 141.0 353.44006Q138.875 353.44006 137.57812 352.04944Q136.28125 350.6588 136.28125 348.06506Q136.28125 346.37756 136.82812 345.12756Q137.39062 343.86194 138.53125 343.23694Q139.67188 342.5963 141.01562 342.5963Q142.70312 342.5963 143.76562 343.4557Q144.84375 344.31506 145.15625 345.87756L143.4375 346.1432Q143.20312 345.0963 142.57812 344.5807Q141.95312 344.04944 141.07812 344.04944Q139.75 344.04944 138.92188 345.00256Q138.09375 345.9557 138.09375 348.00256Q138.09375 350.0963 138.89062 351.04944Q139.6875 351.98694 140.98438 351.98694Q142.01562 351.98694 142.70312 351.36194Q143.40625 350.7213 143.59375 349.4088ZM146.82812 340.9088L146.82812 338.8932L148.59375 338.8932L148.59375 340.9088L146.82812 340.9088ZM146.82812 353.2057L146.82812 342.8307L148.59375 342.8307L148.59375 353.2057L146.82812 353.2057ZM157.59375 351.92444Q156.60938 352.75256 155.70312 353.0963Q154.79688 353.44006 153.76562 353.44006Q152.0625 353.44006 151.14062 352.61194Q150.21875 351.7682 150.21875 350.4713Q150.21875 349.7057 150.5625 349.0807Q150.92188 348.4557 151.48438 348.0807Q152.04688 347.69006 152.75 347.48694Q153.26562 347.36194 154.3125 347.2213Q156.4375 346.9713 157.4375 346.62756Q157.45312 346.2682 157.45312 346.1588Q157.45312 345.0963 156.95312 344.6432Q156.28125 344.04944 154.95312 344.04944Q153.70312 344.04944 153.10938 344.48694Q152.53125 344.92444 152.25 346.0338L150.53125 345.79944Q150.76562 344.69006 151.29688 344.0182Q151.82812 343.3307 152.84375 342.9713Q153.85938 342.5963 155.20312 342.5963Q156.53125 342.5963 157.35938 342.9088Q158.1875 343.2213 158.57812 343.7057Q158.96875 344.17444 159.125 344.8932Q159.21875 345.3463 159.21875 346.5182L159.21875 348.86194Q159.21875 351.31506 159.32812 351.9713Q159.4375 352.61194 159.78125 353.2057L157.9375 353.2057Q157.67188 352.6588 157.59375 351.92444ZM157.4375 348.00256Q156.48438 348.3932 154.5625 348.6588Q153.48438 348.81506 153.03125 349.0182Q152.59375 349.2057 152.34375 349.5807Q152.09375 349.9557 152.09375 350.42444Q152.09375 351.12756 152.625 351.5963Q153.15625 352.06506 154.1875 352.06506Q155.20312 352.06506 155.98438 351.62756Q156.78125 351.17444 157.15625 350.4088Q157.4375 349.79944 157.4375 348.6432L157.4375 348.00256ZM161.82812 340.9088L161.82812 338.8932L163.59375 338.8932L163.59375 340.9088L161.82812 340.9088ZM161.82812 353.2057L161.82812 342.8307L163.59375 342.8307L163.59375 353.2057L161.82812 353.2057ZM165.79688 353.2057L165.79688 342.8307L167.375 342.8307L167.375 344.4088Q167.98438 343.29944 168.5 342.9557Q169.01562 342.5963 169.625 342.5963Q170.51562 342.5963 171.4375 343.1588L170.82812 344.79944Q170.1875 344.4088 169.54688 344.4088Q168.96875 344.4088 168.5 344.7682Q168.04688 345.11194 167.84375 345.7213Q167.5625 346.6588 167.5625 347.7682L167.5625 353.2057L165.79688 353.2057ZM179.92188 349.86194L181.73438 350.0963Q181.3125 351.67444 180.14062 352.56506Q178.98438 353.44006 177.17188 353.44006Q174.90625 353.44006 173.5625 352.04944Q172.23438 350.6432 172.23438 348.11194Q172.23438 345.48694 173.57812 344.04944Q174.92188 342.5963 177.07812 342.5963Q179.15625 342.5963 180.46875 344.0182Q181.79688 345.42444 181.79688 348.00256Q181.79688 348.1588 181.78125 348.4713L174.04688 348.4713Q174.14062 350.17444 175.01562 351.0807Q175.89062 351.98694 177.1875 351.98694Q178.15625 351.98694 178.82812 351.48694Q179.51562 350.9713 179.92188 349.86194ZM174.14062 347.0182L179.9375 347.0182Q179.82812 345.7213 179.28125 345.06506Q178.4375 344.04944 177.09375 344.04944Q175.89062 344.04944 175.0625 344.86194Q174.23438 345.6588 174.14062 347.0182Z" fill-rule="nonzero"/><path fill="#000000" d="M42.078125 420.362L42.078125 406.0495L52.4375 406.0495L52.4375 407.737L43.984375 407.737L43.984375 412.112L51.890625 412.112L51.890625 413.7995L43.984375 413.7995L43.984375 418.6745L52.765625 418.6745L52.765625 420.362L42.078125 420.362ZM45.671875 404.70575L46.96875 401.97137L49.265625 401.97137L47.125 404.70575L45.671875 404.70575ZM58.65625 418.78387L58.90625 420.34637Q58.171875 420.50262 57.578125 420.50262Q56.625 420.50262 56.09375 420.20575Q55.578125 419.89325 55.359375 419.40887Q55.140625 418.90887 55.140625 417.33075L55.140625 411.362L53.859375 411.362L53.859375 409.987L55.140625 409.987L55.140625 407.4245L56.890625 406.362L56.890625 409.987L58.65625 409.987L58.65625 411.362L56.890625 411.362L56.890625 417.4245Q56.890625 418.1745 56.984375 418.39325Q57.078125 418.59637 57.28125 418.737Q57.5 418.862 57.890625 418.862Q58.171875 418.862 58.65625 418.78387ZM60.8125 420.362L60.8125 406.0495L62.578125 406.0495L62.578125 411.1745Q63.8125 409.75262 65.6875 409.75262Q66.828125 409.75262 67.671875 410.20575Q68.53125 410.65887 68.890625 411.47137Q69.265625 412.26825 69.265625 413.78387L69.265625 420.362L67.515625 420.362L67.515625 413.78387Q67.515625 412.47137 66.9375 411.87762Q66.359375 411.26825 65.328125 411.26825Q64.546875 411.26825 63.84375 411.6745Q63.15625 412.08075 62.859375 412.78387Q62.578125 413.47137 62.578125 414.69012L62.578125 420.362L60.8125 420.362ZM71.828125 408.06512L71.828125 406.0495L73.59375 406.0495L73.59375 408.06512L71.828125 408.06512ZM71.828125 420.362L71.828125 409.987L73.59375 409.987L73.59375 420.362L71.828125 420.362ZM82.4375 424.33075L82.4375 419.25262Q82.015625 419.83075 81.28125 420.22137Q80.546875 420.59637 79.71875 420.59637Q77.875 420.59637 76.53125 419.12762Q75.203125 417.64325 75.203125 415.08075Q75.203125 413.51825 75.734375 412.28387Q76.28125 411.03387 77.3125 410.39325Q78.34375 409.75262 79.578125 409.75262Q81.5 409.75262 82.609375 411.37762L82.609375 409.987L84.1875 409.987L84.1875 424.33075L82.4375 424.33075ZM77.015625 415.14325Q77.015625 417.14325 77.84375 418.14325Q78.6875 419.14325 79.859375 419.14325Q80.984375 419.14325 81.796875 418.20575Q82.609375 417.25262 82.609375 415.2995Q82.609375 413.237 81.75 412.19012Q80.890625 411.14325 79.75 411.14325Q78.609375 411.14325 77.8125 412.112Q77.015625 413.08075 77.015625 415.14325ZM93.609375 420.362L93.609375 418.83075Q92.40625 420.59637 90.328125 420.59637Q89.40625 420.59637 88.609375 420.25262Q87.8125 419.89325 87.421875 419.362Q87.046875 418.83075 86.890625 418.0495Q86.78125 417.53387 86.78125 416.40887L86.78125 409.987L88.53125 409.987L88.53125 415.737Q88.53125 417.112 88.640625 417.59637Q88.8125 418.28387 89.34375 418.69012Q89.890625 419.08075 90.671875 419.08075Q91.46875 419.08075 92.15625 418.6745Q92.859375 418.26825 93.140625 417.58075Q93.4375 416.87762 93.4375 415.5495L93.4375 409.987L95.1875 409.987L95.1875 420.362L93.609375 420.362ZM104.921875 417.01825L106.734375 417.25262Q106.3125 418.83075 105.140625 419.72137Q103.984375 420.59637 102.171875 420.59637Q99.90625 420.59637 98.5625 419.20575Q97.234375 417.7995 97.234375 415.26825Q97.234375 412.64325 98.578125 411.20575Q99.921875 409.75262 102.078125 409.75262Q104.15625 409.75262 105.46875 411.1745Q106.796875 412.58075 106.796875 415.15887Q106.796875 415.31512 106.78125 415.62762L99.046875 415.62762Q99.140625 417.33075 100.015625 418.237Q100.890625 419.14325 102.1875 419.14325Q103.15625 419.14325 103.828125 418.64325Q104.515625 418.12762 104.921875 417.01825ZM99.140625 414.1745L104.9375 414.1745Q104.828125 412.87762 104.28125 412.22137Q103.4375 411.20575 102.09375 411.20575Q100.890625 411.20575 100.0625 412.01825Q99.234375 412.81512 99.140625 414.1745ZM121.59375 419.08075Q120.609375 419.90887 119.703125 420.25262Q118.796875 420.59637 117.765625 420.59637Q116.0625 420.59637 115.140625 419.76825Q114.21875 418.9245 114.21875 417.62762Q114.21875 416.862 114.5625 416.237Q114.921875 415.612 115.484375 415.237Q116.046875 414.84637 116.75 414.64325Q117.265625 414.51825 118.3125 414.37762Q120.4375 414.12762 121.4375 413.78387Q121.453125 413.4245 121.453125 413.31512Q121.453125 412.25262 120.953125 411.7995Q120.28125 411.20575 118.953125 411.20575Q117.703125 411.20575 117.109375 411.64325Q116.53125 412.08075 116.25 413.19012L114.53125 412.95575Q114.765625 411.84637 115.296875 411.1745Q115.828125 410.487 116.84375 410.12762Q117.859375 409.75262 119.203125 409.75262Q120.53125 409.75262 121.359375 410.06512Q122.1875 410.37762 122.578125 410.862Q122.96875 411.33075 123.125 412.0495Q123.21875 412.50262 123.21875 413.6745L123.21875 416.01825Q123.21875 418.47137 123.328125 419.12762Q123.4375 419.76825 123.78125 420.362L121.9375 420.362Q121.671875 419.81512 121.59375 419.08075ZM121.4375 415.15887Q120.484375 415.5495 118.5625 415.81512Q117.484375 415.97137 117.03125 416.1745Q116.59375 416.362 116.34375 416.737Q116.09375 417.112 116.09375 417.58075Q116.09375 418.28387 116.625 418.75262Q117.15625 419.22137 118.1875 419.22137Q119.203125 419.22137 119.984375 418.78387Q120.78125 418.33075 121.15625 417.56512Q121.4375 416.95575 121.4375 415.7995L121.4375 415.15887ZM125.8125 420.362L125.8125 409.987L127.40625 409.987L127.40625 411.47137Q128.54688 409.75262 130.70312 409.75262Q131.64062 409.75262 132.42188 410.09637Q133.21875 410.4245 133.60938 410.97137Q134.0 411.51825 134.15625 412.26825Q134.25 412.76825 134.25 413.987L134.25 420.362L132.48438 420.362L132.48438 414.0495Q132.48438 412.97137 132.28125 412.44012Q132.07812 411.90887 131.54688 411.59637Q131.03125 411.28387 130.32812 411.28387Q129.20312 411.28387 128.39062 412.00262Q127.578125 412.70575 127.578125 414.69012L127.578125 420.362L125.8125 420.362ZM136.82812 408.06512L136.82812 406.0495L138.59375 406.0495L138.59375 408.06512L136.82812 408.06512ZM136.82812 420.362L136.82812 409.987L138.59375 409.987L138.59375 420.362L136.82812 420.362ZM140.8125 420.362L140.8125 409.987L142.39062 409.987L142.39062 411.44012Q142.875 410.69012 143.6875 410.22137Q144.5 409.75262 145.53125 409.75262Q146.6875 409.75262 147.42188 410.237Q148.15625 410.70575 148.46875 411.56512Q149.70312 409.75262 151.67188 409.75262Q153.21875 409.75262 154.04688 410.612Q154.875 411.47137 154.875 413.237L154.875 420.362L153.125 420.362L153.125 413.83075Q153.125 412.76825 152.95312 412.31512Q152.78125 411.84637 152.32812 411.56512Q151.89062 411.28387 151.28125 411.28387Q150.1875 411.28387 149.45312 412.01825Q148.73438 412.737 148.73438 414.33075L148.73438 420.362L146.98438 420.362L146.98438 413.62762Q146.98438 412.45575 146.54688 411.87762Q146.125 411.28387 145.14062 411.28387Q144.40625 411.28387 143.76562 411.6745Q143.14062 412.06512 142.85938 412.81512Q142.57812 413.56512 142.57812 414.987L142.57812 420.362L140.8125 420.362ZM164.59375 419.08075Q163.60938 419.90887 162.70312 420.25262Q161.79688 420.59637 160.76562 420.59637Q159.0625 420.59637 158.14062 419.76825Q157.21875 418.9245 157.21875 417.62762Q157.21875 416.862 157.5625 416.237Q157.92188 415.612 158.48438 415.237Q159.04688 414.84637 159.75 414.64325Q160.26562 414.51825 161.3125 414.37762Q163.4375 414.12762 164.4375 413.78387Q164.45312 413.4245 164.45312 413.31512Q164.45312 412.25262 163.95312 411.7995Q163.28125 411.20575 161.95312 411.20575Q160.70312 411.20575 160.10938 411.64325Q159.53125 412.08075 159.25 413.19012L157.53125 412.95575Q157.76562 411.84637 158.29688 411.1745Q158.82812 410.487 159.84375 410.12762Q160.85938 409.75262 162.20312 409.75262Q163.53125 409.75262 164.35938 410.06512Q165.1875 410.37762 165.57812 410.862Q165.96875 411.33075 166.125 412.0495Q166.21875 412.50262 166.21875 413.6745L166.21875 416.01825Q166.21875 418.47137 166.32812 419.12762Q166.4375 419.76825 166.78125 420.362L164.9375 420.362Q164.67188 419.81512 164.59375 419.08075ZM164.4375 415.15887Q163.48438 415.5495 161.5625 415.81512Q160.48438 415.97137 160.03125 416.1745Q159.59375 416.362 159.34375 416.737Q159.09375 417.112 159.09375 417.58075Q159.09375 418.28387 159.625 418.75262Q160.15625 419.22137 161.1875 419.22137Q162.20312 419.22137 162.98438 418.78387Q163.78125 418.33075 164.15625 417.56512Q164.4375 416.95575 164.4375 415.7995L164.4375 415.15887ZM168.78125 420.362L168.78125 406.0495L170.53125 406.0495L170.53125 420.362L168.78125 420.362ZM179.92188 417.01825L181.73438 417.25262Q181.3125 418.83075 180.14062 419.72137Q178.98438 420.59637 177.17188 420.59637Q174.90625 420.59637 173.5625 419.20575Q172.23438 417.7995 172.23438 415.26825Q172.23438 412.64325 173.57812 411.20575Q174.92188 409.75262 177.07812 409.75262Q179.15625 409.75262 180.46875 411.1745Q181.79688 412.58075 181.79688 415.15887Q181.79688 415.31512 181.78125 415.62762L174.04688 415.62762Q174.14062 417.33075 175.01562 418.237Q175.89062 419.14325 177.1875 419.14325Q178.15625 419.14325 178.82812 418.64325Q179.51562 418.12762 179.92188 417.01825ZM174.14062 414.1745L179.9375 414.1745Q179.82812 412.87762 179.28125 412.22137Q178.4375 411.20575 177.09375 411.20575Q175.89062 411.20575 175.0625 412.01825Q174.23438 412.81512 174.14062 414.1745Z" fill-rule="nonzero"/><path fill="#000000" d="M30.078125 487.5183L30.078125 473.2058L40.4375 473.2058L40.4375 474.8933L31.984375 474.8933L31.984375 479.2683L39.890625 479.2683L39.890625 480.9558L31.984375 480.9558L31.984375 485.8308L40.765625 485.8308L40.765625 487.5183L30.078125 487.5183ZM33.671875 471.86206L34.96875 469.1277L37.265625 469.1277L35.125 471.86206L33.671875 471.86206ZM46.65625 485.9402L46.90625 487.5027Q46.171875 487.65894 45.578125 487.65894Q44.625 487.65894 44.09375 487.36206Q43.578125 487.04956 43.359375 486.5652Q43.140625 486.0652 43.140625 484.48706L43.140625 478.5183L41.859375 478.5183L41.859375 477.1433L43.140625 477.1433L43.140625 474.5808L44.890625 473.5183L44.890625 477.1433L46.65625 477.1433L46.65625 478.5183L44.890625 478.5183L44.890625 484.5808Q44.890625 485.3308 44.984375 485.54956Q45.078125 485.7527 45.28125 485.8933Q45.5 486.0183 45.890625 486.0183Q46.171875 486.0183 46.65625 485.9402ZM48.8125 487.5183L48.8125 473.2058L50.578125 473.2058L50.578125 478.3308Q51.8125 476.90894 53.6875 476.90894Q54.828125 476.90894 55.671875 477.36206Q56.53125 477.8152 56.890625 478.6277Q57.265625 479.42456 57.265625 480.9402L57.265625 487.5183L55.515625 487.5183L55.515625 480.9402Q55.515625 479.6277 54.9375 479.03394Q54.359375 478.42456 53.328125 478.42456Q52.546875 478.42456 51.84375 478.8308Q51.15625 479.23706 50.859375 479.9402Q50.578125 480.6277 50.578125 481.84644L50.578125 487.5183L48.8125 487.5183ZM59.828125 475.22144L59.828125 473.2058L61.59375 473.2058L61.59375 475.22144L59.828125 475.22144ZM59.828125 487.5183L59.828125 477.1433L61.59375 477.1433L61.59375 487.5183L59.828125 487.5183ZM70.4375 491.48706L70.4375 486.40894Q70.015625 486.98706 69.28125 487.3777Q68.546875 487.7527 67.71875 487.7527Q65.875 487.7527 64.53125 486.28394Q63.203125 484.79956 63.203125 482.23706Q63.203125 480.67456 63.734375 479.4402Q64.28125 478.1902 65.3125 477.54956Q66.34375 476.90894 67.578125 476.90894Q69.5 476.90894 70.609375 478.53394L70.609375 477.1433L72.1875 477.1433L72.1875 491.48706L70.4375 491.48706ZM65.015625 482.29956Q65.015625 484.29956 65.84375 485.29956Q66.6875 486.29956 67.859375 486.29956Q68.984375 486.29956 69.796875 485.36206Q70.609375 484.40894 70.609375 482.4558Q70.609375 480.3933 69.75 479.34644Q68.890625 478.29956 67.75 478.29956Q66.609375 478.29956 65.8125 479.2683Q65.015625 480.23706 65.015625 482.29956ZM81.609375 487.5183L81.609375 485.98706Q80.40625 487.7527 78.328125 487.7527Q77.40625 487.7527 76.609375 487.40894Q75.8125 487.04956 75.421875 486.5183Q75.046875 485.98706 74.890625 485.2058Q74.78125 484.6902 74.78125 483.5652L74.78125 477.1433L76.53125 477.1433L76.53125 482.8933Q76.53125 484.2683 76.640625 484.7527Q76.8125 485.4402 77.34375 485.84644Q77.890625 486.23706 78.671875 486.23706Q79.46875 486.23706 80.15625 485.8308Q80.859375 485.42456 81.140625 484.73706Q81.4375 484.03394 81.4375 482.7058L81.4375 477.1433L83.1875 477.1433L83.1875 487.5183L81.609375 487.5183ZM92.921875 484.17456L94.734375 484.40894Q94.3125 485.98706 93.140625 486.8777Q91.984375 487.7527 90.171875 487.7527Q87.90625 487.7527 86.5625 486.36206Q85.234375 484.9558 85.234375 482.42456Q85.234375 479.79956 86.578125 478.36206Q87.921875 476.90894 90.078125 476.90894Q92.15625 476.90894 93.46875 478.3308Q94.796875 479.73706 94.796875 482.3152Q94.796875 482.47144 94.78125 482.78394L87.046875 482.78394Q87.140625 484.48706 88.015625 485.3933Q88.890625 486.29956 90.1875 486.29956Q91.15625 486.29956 91.828125 485.79956Q92.515625 485.28394 92.921875 484.17456ZM87.140625 481.3308L92.9375 481.3308Q92.828125 480.03394 92.28125 479.3777Q91.4375 478.36206 90.09375 478.36206Q88.890625 478.36206 88.0625 479.17456Q87.234375 479.97144 87.140625 481.3308ZM109.546875 487.5183L109.546875 486.2058Q108.5625 487.7527 106.640625 487.7527Q105.40625 487.7527 104.359375 487.0652Q103.328125 486.3777 102.75 485.15894Q102.1875 483.9402 102.1875 482.34644Q102.1875 480.78394 102.703125 479.5183Q103.21875 478.2527 104.25 477.5808Q105.296875 476.90894 106.5625 476.90894Q107.5 476.90894 108.234375 477.3152Q108.96875 477.7058 109.4375 478.3308L109.4375 473.2058L111.171875 473.2058L111.171875 487.5183L109.546875 487.5183ZM103.984375 482.34644Q103.984375 484.3308 104.828125 485.3152Q105.671875 486.29956 106.8125 486.29956Q107.96875 486.29956 108.765625 485.36206Q109.578125 484.42456 109.578125 482.48706Q109.578125 480.36206 108.75 479.36206Q107.9375 478.36206 106.734375 478.36206Q105.5625 478.36206 104.765625 479.3308Q103.984375 480.28394 103.984375 482.34644ZM120.609375 487.5183L120.609375 485.98706Q119.40625 487.7527 117.328125 487.7527Q116.40625 487.7527 115.609375 487.40894Q114.8125 487.04956 114.421875 486.5183Q114.046875 485.98706 113.890625 485.2058Q113.78125 484.6902 113.78125 483.5652L113.78125 477.1433L115.53125 477.1433L115.53125 482.8933Q115.53125 484.2683 115.640625 484.7527Q115.8125 485.4402 116.34375 485.84644Q116.890625 486.23706 117.671875 486.23706Q118.46875 486.23706 119.15625 485.8308Q119.859375 485.42456 120.140625 484.73706Q120.4375 484.03394 120.4375 482.7058L120.4375 477.1433L122.1875 477.1433L122.1875 487.5183L120.609375 487.5183ZM134.65625 485.9402L134.90625 487.5027Q134.17188 487.65894 133.57812 487.65894Q132.625 487.65894 132.09375 487.36206Q131.57812 487.04956 131.35938 486.5652Q131.14062 486.0652 131.14062 484.48706L131.14062 478.5183L129.85938 478.5183L129.85938 477.1433L131.14062 477.1433L131.14062 474.5808L132.89062 473.5183L132.89062 477.1433L134.65625 477.1433L134.65625 478.5183L132.89062 478.5183L132.89062 484.5808Q132.89062 485.3308 132.98438 485.54956Q133.07812 485.7527 133.28125 485.8933Q133.5 486.0183 133.89062 486.0183Q134.17188 486.0183 134.65625 485.9402ZM136.79688 487.5183L136.79688 477.1433L138.375 477.1433L138.375 478.72144Q138.98438 477.61206 139.5 477.2683Q140.01562 476.90894 140.625 476.90894Q141.51562 476.90894 142.4375 477.47144L141.82812 479.11206Q141.1875 478.72144 140.54688 478.72144Q139.96875 478.72144 139.5 479.0808Q139.04688 479.42456 138.84375 480.03394Q138.5625 480.97144 138.5625 482.0808L138.5625 487.5183L136.79688 487.5183ZM150.59375 486.23706Q149.60938 487.0652 148.70312 487.40894Q147.79688 487.7527 146.76562 487.7527Q145.0625 487.7527 144.14062 486.92456Q143.21875 486.0808 143.21875 484.78394Q143.21875 484.0183 143.5625 483.3933Q143.92188 482.7683 144.48438 482.3933Q145.04688 482.0027 145.75 481.79956Q146.26562 481.67456 147.3125 481.53394Q149.4375 481.28394 150.4375 480.9402Q150.45312 480.5808 150.45312 480.47144Q150.45312 479.40894 149.95312 478.9558Q149.28125 478.36206 147.95312 478.36206Q146.70312 478.36206 146.10938 478.79956Q145.53125 479.23706 145.25 480.34644L143.53125 480.11206Q143.76562 479.0027 144.29688 478.3308Q144.82812 477.6433 145.84375 477.28394Q146.85938 476.90894 148.20312 476.90894Q149.53125 476.90894 150.35938 477.22144Q151.1875 477.53394 151.57812 478.0183Q151.96875 478.48706 152.125 479.2058Q152.21875 479.65894 152.21875 480.8308L152.21875 483.17456Q152.21875 485.6277 152.32812 486.28394Q152.4375 486.92456 152.78125 487.5183L150.9375 487.5183Q150.67188 486.97144 150.59375 486.23706ZM150.4375 482.3152Q149.48438 482.7058 147.5625 482.97144Q146.48438 483.1277 146.03125 483.3308Q145.59375 483.5183 145.34375 483.8933Q145.09375 484.2683 145.09375 484.73706Q145.09375 485.4402 145.625 485.90894Q146.15625 486.3777 147.1875 486.3777Q148.20312 486.3777 148.98438 485.9402Q149.78125 485.48706 150.15625 484.72144Q150.4375 484.11206 150.4375 482.9558L150.4375 482.3152ZM157.70312 487.5183L153.75 477.1433L155.60938 477.1433L157.84375 483.36206Q158.20312 484.36206 158.5 485.4402Q158.73438 484.6277 159.15625 483.47144L161.45312 477.1433L163.26562 477.1433L159.34375 487.5183L157.70312 487.5183ZM171.59375 486.23706Q170.60938 487.0652 169.70312 487.40894Q168.79688 487.7527 167.76562 487.7527Q166.0625 487.7527 165.14062 486.92456Q164.21875 486.0808 164.21875 484.78394Q164.21875 484.0183 164.5625 483.3933Q164.92188 482.7683 165.48438 482.3933Q166.04688 482.0027 166.75 481.79956Q167.26562 481.67456 168.3125 481.53394Q170.4375 481.28394 171.4375 480.9402Q171.45312 480.5808 171.45312 480.47144Q171.45312 479.40894 170.95312 478.9558Q170.28125 478.36206 168.95312 478.36206Q167.70312 478.36206 167.10938 478.79956Q166.53125 479.23706 166.25 480.34644L164.53125 480.11206Q164.76562 479.0027 165.29688 478.3308Q165.82812 477.6433 166.84375 477.28394Q167.85938 476.90894 169.20312 476.90894Q170.53125 476.90894 171.35938 477.22144Q172.1875 477.53394 172.57812 478.0183Q172.96875 478.48706 173.125 479.2058Q173.21875 479.65894 173.21875 480.8308L173.21875 483.17456Q173.21875 485.6277 173.32812 486.28394Q173.4375 486.92456 173.78125 487.5183L171.9375 487.5183Q171.67188 486.97144 171.59375 486.23706ZM171.4375 482.3152Q170.48438 482.7058 168.5625 482.97144Q167.48438 483.1277 167.03125 483.3308Q166.59375 483.5183 166.34375 483.8933Q166.09375 484.2683 166.09375 484.73706Q166.09375 485.4402 166.625 485.90894Q167.15625 486.3777 168.1875 486.3777Q169.20312 486.3777 169.98438 485.9402Q170.78125 485.48706 171.15625 484.72144Q171.4375 484.11206 171.4375 482.9558L171.4375 482.3152ZM175.82812 475.22144L175.82812 473.2058L177.59375 473.2058L177.59375 475.22144L175.82812 475.22144ZM175.82812 487.5183L175.82812 477.1433L177.59375 477.1433L177.59375 487.5183L175.82812 487.5183ZM179.78125 487.5183L179.78125 473.2058L181.53125 473.2058L181.53125 487.5183L179.78125 487.5183Z" fill-rule="nonzero"/><path fill="#000000" d="M117.078125 542.6746L117.078125 528.3621L127.4375 528.3621L127.4375 530.0496L118.984375 530.0496L118.984375 534.4246L126.890625 534.4246L126.890625 536.1121L118.984375 536.1121L118.984375 540.9871L127.765625 540.9871L127.765625 542.6746L117.078125 542.6746ZM120.671875 527.0184L121.96875 524.284L124.265625 524.284L122.125 527.0184L120.671875 527.0184ZM133.65625 541.0965L133.90625 542.659Q133.17188 542.81525 132.57812 542.81525Q131.625 542.81525 131.09375 542.5184Q130.57812 542.2059 130.35938 541.7215Q130.14062 541.2215 130.14062 539.6434L130.14062 533.6746L128.85938 533.6746L128.85938 532.2996L130.14062 532.2996L130.14062 529.7371L131.89062 528.6746L131.89062 532.2996L133.65625 532.2996L133.65625 533.6746L131.89062 533.6746L131.89062 539.7371Q131.89062 540.4871 131.98438 540.7059Q132.07812 540.909 132.28125 541.0496Q132.5 541.1746 132.89062 541.1746Q133.17188 541.1746 133.65625 541.0965ZM135.8125 542.6746L135.8125 528.3621L137.57812 528.3621L137.57812 533.4871Q138.8125 532.06525 140.6875 532.06525Q141.82812 532.06525 142.67188 532.5184Q143.53125 532.9715 143.89062 533.784Q144.26562 534.5809 144.26562 536.0965L144.26562 542.6746L142.51562 542.6746L142.51562 536.0965Q142.51562 534.784 141.9375 534.19025Q141.35938 533.5809 140.32812 533.5809Q139.54688 533.5809 138.84375 533.9871Q138.15625 534.3934 137.85938 535.0965Q137.57812 535.784 137.57812 537.00275L137.57812 542.6746L135.8125 542.6746ZM146.82812 530.37775L146.82812 528.3621L148.59375 528.3621L148.59375 530.37775L146.82812 530.37775ZM146.82812 542.6746L146.82812 532.2996L148.59375 532.2996L148.59375 542.6746L146.82812 542.6746ZM157.4375 546.6434L157.4375 541.56525Q157.01562 542.1434 156.28125 542.534Q155.54688 542.909 154.71875 542.909Q152.875 542.909 151.53125 541.44025Q150.20312 539.9559 150.20312 537.3934Q150.20312 535.8309 150.73438 534.5965Q151.28125 533.3465 152.3125 532.7059Q153.34375 532.06525 154.57812 532.06525Q156.5 532.06525 157.60938 533.69025L157.60938 532.2996L159.1875 532.2996L159.1875 546.6434L157.4375 546.6434ZM152.01562 537.4559Q152.01562 539.4559 152.84375 540.4559Q153.6875 541.4559 154.85938 541.4559Q155.98438 541.4559 156.79688 540.5184Q157.60938 539.56525 157.60938 537.6121Q157.60938 535.5496 156.75 534.50275Q155.89062 533.4559 154.75 533.4559Q153.60938 533.4559 152.8125 534.4246Q152.01562 535.3934 152.01562 537.4559ZM168.60938 542.6746L168.60938 541.1434Q167.40625 542.909 165.32812 542.909Q164.40625 542.909 163.60938 542.56525Q162.8125 542.2059 162.42188 541.6746Q162.04688 541.1434 161.89062 540.3621Q161.78125 539.8465 161.78125 538.7215L161.78125 532.2996L163.53125 532.2996L163.53125 538.0496Q163.53125 539.4246 163.64062 539.909Q163.8125 540.5965 164.34375 541.00275Q164.89062 541.3934 165.67188 541.3934Q166.46875 541.3934 167.15625 540.9871Q167.85938 540.5809 168.14062 539.8934Q168.4375 539.19025 168.4375 537.8621L168.4375 532.2996L170.1875 532.2996L170.1875 542.6746L168.60938 542.6746ZM179.92188 539.3309L181.73438 539.56525Q181.3125 541.1434 180.14062 542.034Q178.98438 542.909 177.17188 542.909Q174.90625 542.909 173.5625 541.5184Q172.23438 540.1121 172.23438 537.5809Q172.23438 534.9559 173.57812 533.5184Q174.92188 532.06525 177.07812 532.06525Q179.15625 532.06525 180.46875 533.4871Q181.79688 534.8934 181.79688 537.4715Q181.79688 537.62775 181.78125 537.94025L174.04688 537.94025Q174.14062 539.6434 175.01562 540.5496Q175.89062 541.4559 177.1875 541.4559Q178.15625 541.4559 178.82812 540.9559Q179.51562 540.44025 179.92188 539.3309ZM174.14062 536.4871L179.9375 536.4871Q179.82812 535.19025 179.28125 534.534Q178.4375 533.5184 177.09375 533.5184Q175.89062 533.5184 175.0625 534.3309Q174.23438 535.12775 174.14062 536.4871Z" fill-rule="nonzero"/><path fill="#000000" d="M32.921875 563.3309L34.734375 563.56525Q34.3125 565.1434 33.140625 566.034Q31.984375 566.909 30.171875 566.909Q27.90625 566.909 26.5625 565.5184Q25.234375 564.1121 25.234375 561.5809Q25.234375 558.9559 26.578125 557.5184Q27.921875 556.06525 30.078125 556.06525Q32.15625 556.06525 33.46875 557.4871Q34.796875 558.8934 34.796875 561.4715Q34.796875 561.62775 34.78125 561.94025L27.046875 561.94025Q27.140625 563.6434 28.015625 564.5496Q28.890625 565.4559 30.1875 565.4559Q31.15625 565.4559 31.828125 564.9559Q32.515625 564.44025 32.921875 563.3309ZM27.140625 560.4871L32.9375 560.4871Q32.828125 559.19025 32.28125 558.534Q31.4375 557.5184 30.09375 557.5184Q28.890625 557.5184 28.0625 558.3309Q27.234375 559.12775 27.140625 560.4871ZM36.8125 566.6746L36.8125 556.2996L38.40625 556.2996L38.40625 557.784Q39.546875 556.06525 41.703125 556.06525Q42.640625 556.06525 43.421875 556.409Q44.21875 556.7371 44.609375 557.284Q45.0 557.8309 45.15625 558.5809Q45.25 559.0809 45.25 560.2996L45.25 566.6746L43.484375 566.6746L43.484375 560.3621Q43.484375 559.284 43.28125 558.75275Q43.078125 558.2215 42.546875 557.909Q42.03125 557.5965 41.328125 557.5965Q40.203125 557.5965 39.390625 558.31525Q38.578125 559.0184 38.578125 561.00275L38.578125 566.6746L36.8125 566.6746ZM50.703125 566.6746L46.75 556.2996L48.609375 556.2996L50.84375 562.5184Q51.203125 563.5184 51.5 564.5965Q51.734375 563.784 52.15625 562.62775L54.453125 556.2996L56.265625 556.2996L52.34375 566.6746L50.703125 566.6746ZM57.828125 554.37775L57.828125 552.3621L59.59375 552.3621L59.59375 554.37775L57.828125 554.37775ZM57.828125 566.6746L57.828125 556.2996L59.59375 556.2996L59.59375 566.6746L57.828125 566.6746ZM61.796875 566.6746L61.796875 556.2996L63.375 556.2996L63.375 557.87775Q63.984375 556.7684 64.5 556.4246Q65.015625 556.06525 65.625 556.06525Q66.515625 556.06525 67.4375 556.62775L66.828125 558.2684Q66.1875 557.87775 65.546875 557.87775Q64.96875 557.87775 64.5 558.2371Q64.046875 558.5809 63.84375 559.19025Q63.5625 560.12775 63.5625 561.2371L63.5625 566.6746L61.796875 566.6746ZM68.171875 561.4871Q68.171875 558.6121 69.765625 557.2215Q71.109375 556.06525 73.03125 556.06525Q75.171875 556.06525 76.515625 557.4715Q77.875 558.87775 77.875 561.3465Q77.875 563.3465 77.28125 564.50275Q76.6875 565.6434 75.53125 566.284Q74.390625 566.909 73.03125 566.909Q70.84375 566.909 69.5 565.5184Q68.171875 564.1121 68.171875 561.4871ZM69.96875 561.4871Q69.96875 563.4871 70.828125 564.4715Q71.703125 565.4559 73.03125 565.4559Q74.34375 565.4559 75.203125 564.4715Q76.078125 563.4715 76.078125 561.4246Q76.078125 559.50275 75.203125 558.5184Q74.328125 557.5184 73.03125 557.5184Q71.703125 557.5184 70.828125 558.5184Q69.96875 559.50275 69.96875 561.4871ZM79.8125 566.6746L79.8125 556.2996L81.40625 556.2996L81.40625 557.784Q82.546875 556.06525 84.703125 556.06525Q85.640625 556.06525 86.421875 556.409Q87.21875 556.7371 87.609375 557.284Q88.0 557.8309 88.15625 558.5809Q88.25 559.0809 88.25 560.2996L88.25 566.6746L86.484375 566.6746L86.484375 560.3621Q86.484375 559.284 86.28125 558.75275Q86.078125 558.2215 85.546875 557.909Q85.03125 557.5965 84.328125 557.5965Q83.203125 557.5965 82.390625 558.31525Q81.578125 559.0184 81.578125 561.00275L81.578125 566.6746L79.8125 566.6746ZM90.8125 566.6746L90.8125 556.2996L92.40625 556.2996L92.40625 557.784Q93.546875 556.06525 95.703125 556.06525Q96.640625 556.06525 97.421875 556.409Q98.21875 556.7371 98.609375 557.284Q99.0 557.8309 99.15625 558.5809Q99.25 559.0809 99.25 560.2996L99.25 566.6746L97.484375 566.6746L97.484375 560.3621Q97.484375 559.284 97.28125 558.75275Q97.078125 558.2215 96.546875 557.909Q96.03125 557.5965 95.328125 557.5965Q94.203125 557.5965 93.390625 558.31525Q92.578125 559.0184 92.578125 561.00275L92.578125 566.6746L90.8125 566.6746ZM108.921875 563.3309L110.734375 563.56525Q110.3125 565.1434 109.140625 566.034Q107.984375 566.909 106.171875 566.909Q103.90625 566.909 102.5625 565.5184Q101.234375 564.1121 101.234375 561.5809Q101.234375 558.9559 102.578125 557.5184Q103.921875 556.06525 106.078125 556.06525Q108.15625 556.06525 109.46875 557.4871Q110.796875 558.8934 110.796875 561.4715Q110.796875 561.62775 110.78125 561.94025L103.046875 561.94025Q103.140625 563.6434 104.015625 564.5496Q104.890625 565.4559 106.1875 565.4559Q107.15625 565.4559 107.828125 564.9559Q108.515625 564.44025 108.921875 563.3309ZM103.140625 560.4871L108.9375 560.4871Q108.828125 559.19025 108.28125 558.534Q107.4375 557.5184 106.09375 557.5184Q104.890625 557.5184 104.0625 558.3309Q103.234375 559.12775 103.140625 560.4871ZM112.8125 566.6746L112.8125 556.2996L114.390625 556.2996L114.390625 557.75275Q114.875 557.00275 115.6875 556.534Q116.5 556.06525 117.53125 556.06525Q118.6875 556.06525 119.421875 556.5496Q120.15625 557.0184 120.46875 557.87775Q121.703125 556.06525 123.671875 556.06525Q125.21875 556.06525 126.046875 556.9246Q126.875 557.784 126.875 559.5496L126.875 566.6746L125.125 566.6746L125.125 560.1434Q125.125 559.0809 124.953125 558.62775Q124.78125 558.159 124.328125 557.87775Q123.890625 557.5965 123.28125 557.5965Q122.1875 557.5965 121.453125 558.3309Q120.734375 559.0496 120.734375 560.6434L120.734375 566.6746L118.984375 566.6746L118.984375 559.94025Q118.984375 558.7684 118.546875 558.19025Q118.125 557.5965 117.140625 557.5965Q116.40625 557.5965 115.765625 557.9871Q115.140625 558.37775 114.859375 559.12775Q114.578125 559.87775 114.578125 561.2996L114.578125 566.6746L112.8125 566.6746ZM136.92188 563.3309L138.73438 563.56525Q138.3125 565.1434 137.14062 566.034Q135.98438 566.909 134.17188 566.909Q131.90625 566.909 130.5625 565.5184Q129.23438 564.1121 129.23438 561.5809Q129.23438 558.9559 130.57812 557.5184Q131.92188 556.06525 134.07812 556.06525Q136.15625 556.06525 137.46875 557.4871Q138.79688 558.8934 138.79688 561.4715Q138.79688 561.62775 138.78125 561.94025L131.04688 561.94025Q131.14062 563.6434 132.01562 564.5496Q132.89062 565.4559 134.1875 565.4559Q135.15625 565.4559 135.82812 564.9559Q136.51562 564.44025 136.92188 563.3309ZM131.14062 560.4871L136.9375 560.4871Q136.82812 559.19025 136.28125 558.534Q135.4375 557.5184 134.09375 557.5184Q132.89062 557.5184 132.0625 558.3309Q131.23438 559.12775 131.14062 560.4871ZM140.8125 566.6746L140.8125 556.2996L142.40625 556.2996L142.40625 557.784Q143.54688 556.06525 145.70312 556.06525Q146.64062 556.06525 147.42188 556.409Q148.21875 556.7371 148.60938 557.284Q149.0 557.8309 149.15625 558.5809Q149.25 559.0809 149.25 560.2996L149.25 566.6746L147.48438 566.6746L147.48438 560.3621Q147.48438 559.284 147.28125 558.75275Q147.07812 558.2215 146.54688 557.909Q146.03125 557.5965 145.32812 557.5965Q144.20312 557.5965 143.39062 558.31525Q142.57812 559.0184 142.57812 561.00275L142.57812 566.6746L140.8125 566.6746ZM155.65625 565.0965L155.90625 566.659Q155.17188 566.81525 154.57812 566.81525Q153.625 566.81525 153.09375 566.5184Q152.57812 566.2059 152.35938 565.7215Q152.14062 565.2215 152.14062 563.6434L152.14062 557.6746L150.85938 557.6746L150.85938 556.2996L152.14062 556.2996L152.14062 553.7371L153.89062 552.6746L153.89062 556.2996L155.65625 556.2996L155.65625 557.6746L153.89062 557.6746L153.89062 563.7371Q153.89062 564.4871 153.98438 564.7059Q154.07812 564.909 154.28125 565.0496Q154.5 565.1746 154.89062 565.1746Q155.17188 565.1746 155.65625 565.0965ZM164.59375 565.3934Q163.60938 566.2215 162.70312 566.56525Q161.79688 566.909 160.76562 566.909Q159.0625 566.909 158.14062 566.0809Q157.21875 565.2371 157.21875 563.94025Q157.21875 563.1746 157.5625 562.5496Q157.92188 561.9246 158.48438 561.5496Q159.04688 561.159 159.75 560.9559Q160.26562 560.8309 161.3125 560.69025Q163.4375 560.44025 164.4375 560.0965Q164.45312 559.7371 164.45312 559.62775Q164.45312 558.56525 163.95312 558.1121Q163.28125 557.5184 161.95312 557.5184Q160.70312 557.5184 160.10938 557.9559Q159.53125 558.3934 159.25 559.50275L157.53125 559.2684Q157.76562 558.159 158.29688 557.4871Q158.82812 556.7996 159.84375 556.44025Q160.85938 556.06525 162.20312 556.06525Q163.53125 556.06525 164.35938 556.37775Q165.1875 556.69025 165.57812 557.1746Q165.96875 557.6434 166.125 558.3621Q166.21875 558.81525 166.21875 559.9871L166.21875 562.3309Q166.21875 564.784 166.32812 565.44025Q166.4375 566.0809 166.78125 566.6746L164.9375 566.6746Q164.67188 566.12775 164.59375 565.3934ZM164.4375 561.4715Q163.48438 561.8621 161.5625 562.12775Q160.48438 562.284 160.03125 562.4871Q159.59375 562.6746 159.34375 563.0496Q159.09375 563.4246 159.09375 563.8934Q159.09375 564.5965 159.625 565.06525Q160.15625 565.534 161.1875 565.534Q162.20312 565.534 162.98438 565.0965Q163.78125 564.6434 164.15625 563.87775Q164.4375 563.2684 164.4375 562.1121L164.4375 561.4715ZM168.78125 566.6746L168.78125 552.3621L170.53125 552.3621L170.53125 566.6746L168.78125 566.6746ZM179.92188 563.3309L181.73438 563.56525Q181.3125 565.1434 180.14062 566.034Q178.98438 566.909 177.17188 566.909Q174.90625 566.909 173.5625 565.5184Q172.23438 564.1121 172.23438 561.5809Q172.23438 558.9559 173.57812 557.5184Q174.92188 556.06525 177.07812 556.06525Q179.15625 556.06525 180.46875 557.4871Q181.79688 558.8934 181.79688 561.4715Q181.79688 561.62775 181.78125 561.94025L174.04688 561.94025Q174.14062 563.6434 175.01562 564.5496Q175.89062 565.4559 177.1875 565.4559Q178.15625 565.4559 178.82812 564.9559Q179.51562 564.44025 179.92188 563.3309ZM174.14062 560.4871L179.9375 560.4871Q179.82812 559.19025 179.28125 558.534Q178.4375 557.5184 177.09375 557.5184Q175.89062 557.5184 175.0625 558.3309Q174.23438 559.12775 174.14062 560.4871Z" fill-rule="nonzero"/><path fill="#000000" d="M188.25 612.64575Q188.25 610.3645 188.71875 608.9739Q189.1875 607.58325 190.10938 606.83325Q191.04688 606.0676 192.45312 606.0676Q193.48438 606.0676 194.26562 606.4895Q195.04688 606.89575 195.54688 607.6926Q196.0625 608.4739 196.35938 609.6145Q196.65625 610.7395 196.65625 612.64575Q196.65625 614.9114 196.1875 616.3176Q195.71875 617.70825 194.78125 618.4739Q193.85938 619.2239 192.45312 619.2239Q190.57812 619.2239 189.51562 617.89575Q188.25 616.2864 188.25 612.64575ZM189.875 612.64575Q189.875 615.8176 190.60938 616.8801Q191.35938 617.927 192.45312 617.927Q193.53125 617.927 194.28125 616.8801Q195.03125 615.8176 195.03125 612.64575Q195.03125 609.4739 194.28125 608.427Q193.53125 607.3801 192.4375 607.3801Q191.34375 607.3801 190.6875 608.302Q189.875 609.4739 189.875 612.64575Z" fill-rule="nonzero"/><path fill="#000000" d="M273.5519 617.4895L273.5519 619.0051L265.0363 619.0051Q265.02066 618.427 265.2238 617.9114Q265.5519 617.0364 266.25504 616.1926Q266.9738 615.3489 268.33316 614.2395Q270.4269 612.52075 271.1613 611.52075Q271.9113 610.5051 271.9113 609.6145Q271.9113 608.6614 271.2394 608.02075Q270.56754 607.3801 269.4894 607.3801Q268.33316 607.3801 267.64566 608.0676Q266.9738 608.7551 266.95816 609.95825L265.33316 609.7864Q265.50504 607.9739 266.58316 607.02075Q267.6769 606.0676 269.52066 606.0676Q271.3644 606.0676 272.44254 607.0989Q273.5363 608.1301 273.5363 609.64575Q273.5363 610.4114 273.20816 611.1614Q272.89566 611.9114 272.1613 612.7395Q271.4269 613.5676 269.7238 615.0051Q268.3019 616.20825 267.89566 616.6301Q267.4894 617.052 267.2394 617.4895L273.5519 617.4895Z" fill-rule="nonzero"/><path fill="#000000" d="M347.2913 619.0051L347.2913 615.927L341.71317 615.927L341.71317 614.4739L347.58817 606.1145L348.88504 606.1145L348.88504 614.4739L350.61942 614.4739L350.61942 615.927L348.88504 615.927L348.88504 619.0051L347.2913 619.0051ZM347.2913 614.4739L347.2913 608.6614L343.26004 614.4739L347.2913 614.4739Z" fill-rule="nonzero"/><path fill="#000000" d="M427.42133 609.27075L425.85883 609.39575Q425.64008 608.4739 425.24945 608.052Q424.60883 607.3645 423.67133 607.3645Q422.92133 607.3645 422.3432 607.7864Q421.5932 608.33325 421.1557 609.3801Q420.73383 610.427 420.7182 612.3645Q421.29633 611.4895 422.10883 611.0676Q422.93695 610.64575 423.8432 610.64575Q425.43695 610.64575 426.54633 611.8176Q427.6557 612.9739 427.6557 614.8176Q427.6557 616.0364 427.12445 617.08325Q426.60883 618.1145 425.68695 618.677Q424.7807 619.2239 423.62445 619.2239Q421.64008 619.2239 420.39008 617.77075Q419.14008 616.3176 419.14008 612.9739Q419.14008 609.2395 420.5307 607.5364Q421.73383 606.0676 423.76508 606.0676Q425.29633 606.0676 426.26508 606.927Q427.23383 607.77075 427.42133 609.27075ZM420.9682 614.83325Q420.9682 615.64575 421.31195 616.39575Q421.6557 617.14575 422.2807 617.5364Q422.9057 617.927 423.5932 617.927Q424.5932 617.927 425.31195 617.1145Q426.0307 616.302 426.0307 614.9114Q426.0307 613.58325 425.31195 612.8176Q424.60883 612.0364 423.5307 612.0364Q422.45258 612.0364 421.70258 612.8176Q420.9682 613.58325 420.9682 614.83325Z" fill-rule="nonzero"/><path fill="#000000" d="M498.6451 612.02075Q497.66074 611.6614 497.17636 610.9895Q496.7076 610.3176 496.7076 609.39575Q496.7076 607.9895 497.7076 607.0364Q498.72324 606.0676 500.41074 606.0676Q502.09824 606.0676 503.11386 607.052Q504.1451 608.02075 504.1451 609.427Q504.1451 610.33325 503.67636 611.0051Q503.2076 611.6614 502.2545 612.02075Q503.442 612.4114 504.05136 613.27075Q504.67636 614.1301 504.67636 615.3176Q504.67636 616.9739 503.5045 618.0989Q502.3326 619.2239 500.42636 619.2239Q498.5201 619.2239 497.34824 618.0989Q496.192 616.95825 496.192 615.27075Q496.192 614.02075 496.817 613.177Q497.4576 612.3176 498.6451 612.02075ZM498.317 609.33325Q498.317 610.2551 498.91074 610.83325Q499.5045 611.4114 500.442 611.4114Q501.34824 611.4114 501.92636 610.83325Q502.5201 610.2551 502.5201 609.427Q502.5201 608.552 501.91074 607.95825Q501.317 607.3645 500.42636 607.3645Q499.5201 607.3645 498.91074 607.9426Q498.317 608.52075 498.317 609.33325ZM497.817 615.2864Q497.817 615.95825 498.1295 616.5989Q498.4576 617.2239 499.0826 617.58325Q499.72324 617.927 500.4576 617.927Q501.5826 617.927 502.317 617.1926Q503.067 616.45825 503.067 615.33325Q503.067 614.1926 502.30136 613.45825Q501.53574 612.70825 500.3951 612.70825Q499.28574 612.70825 498.55136 613.4426Q497.817 614.177 497.817 615.2864Z" fill-rule="nonzero"/><path fill="#000000" d="M574.15015 619.0051L572.572 619.0051L572.572 608.927Q571.9939 609.4739 571.072 610.02075Q570.15015 610.552 569.40015 610.83325L569.40015 609.302Q570.7283 608.677 571.7283 607.7864Q572.7283 606.89575 573.1345 606.0676L574.15015 606.0676L574.15015 619.0051ZM578.197 612.64575Q578.197 610.3645 578.6658 608.9739Q579.1345 607.58325 580.0564 606.83325Q580.9939 606.0676 582.40015 606.0676Q583.4314 606.0676 584.21265 606.4895Q584.9939 606.89575 585.4939 607.6926Q586.0095 608.4739 586.3064 609.6145Q586.6033 610.7395 586.6033 612.64575Q586.6033 614.9114 586.1345 616.3176Q585.6658 617.70825 584.7283 618.4739Q583.8064 619.2239 582.40015 619.2239Q580.52515 619.2239 579.46265 617.89575Q578.197 616.2864 578.197 612.64575ZM579.822 612.64575Q579.822 615.8176 580.5564 616.8801Q581.3064 617.927 582.40015 617.927Q583.4783 617.927 584.2283 616.8801Q584.9783 615.8176 584.9783 612.64575Q584.9783 609.4739 584.2283 608.427Q583.4783 607.3801 582.3845 607.3801Q581.2908 607.3801 580.6345 608.302Q579.822 609.4739 579.822 612.64575Z" fill-rule="nonzero"/><path fill="#000000" d="M651.1395 619.0051L649.5614 619.0051L649.5614 608.927Q648.9833 609.4739 648.0614 610.02075Q647.1395 610.552 646.3895 610.83325L646.3895 609.302Q647.71765 608.677 648.71765 607.7864Q649.71765 606.89575 650.1239 606.0676L651.1395 606.0676L651.1395 619.0051ZM663.4989 617.4895L663.4989 619.0051L654.9833 619.0051Q654.96765 618.427 655.1708 617.9114Q655.4989 617.0364 656.202 616.1926Q656.9208 615.3489 658.28015 614.2395Q660.3739 612.52075 661.1083 611.52075Q661.8583 610.5051 661.8583 609.6145Q661.8583 608.6614 661.1864 608.02075Q660.5145 607.3801 659.4364 607.3801Q658.28015 607.3801 657.59265 608.0676Q656.9208 608.7551 656.90515 609.95825L655.28015 609.7864Q655.452 607.9739 656.53015 607.02075Q657.6239 606.0676 659.46765 606.0676Q661.3114 606.0676 662.3895 607.0989Q663.4833 608.1301 663.4833 609.64575Q663.4833 610.4114 663.15515 611.1614Q662.84265 611.9114 662.1083 612.7395Q661.3739 613.5676 659.6708 615.0051Q658.2489 616.20825 657.84265 616.6301Q657.4364 617.052 657.1864 617.4895L663.4989 617.4895Z" fill-rule="nonzero"/></svg>