<svg version="1.1" viewBox="0.0 0.0 665.0 400.0" fill="none" stroke="none" stroke-linecap="square" stroke-miterlimit="10" width="665" height="400" xmlns:xlink="http://www.w3.org/1999/xlink" xmlns="http://www.w3.org/2000/svg"><path fill="#ffffff" d="M0 0L665.0 0L665.0 400.0L0 400.0L0 0Z" fill-rule="nonzero"/><path fill="#4285f4" d="M332.5 20.0C380.98904 20.0 426.8394 42.080353 457.0718 79.99062L332.5 179.33333Z" fill-rule="nonzero"/><path fill="#fbbc04" d="M207.92818 79.99062C238.16061 42.080353 284.01096 20.0 332.5 20.0L332.5 179.33333Z" fill-rule="nonzero"/><path fill="#ea4335" d="M457.0718 79.99062C509.05734 145.1784 501.9948 239.42128 440.87418 296.13293C379.75357 352.84457 285.24643 352.84457 224.12581 296.13293C163.00519 239.42128 155.94266 145.1784 207.92818 79.99062L332.5 179.33333Z" fill-rule="nonzero"/><path fill="#000000" d="M343.06168 92.24231L343.06168 93.92981L333.60855 93.92981Q333.59293 93.289185 333.81168 92.71106Q334.17105 91.74231 334.96793 90.80481Q335.7648 89.86731 337.2648 88.632935Q339.60855 86.726685 340.42105 85.61731Q341.24918 84.49231 341.24918 83.49231Q341.24918 82.445435 340.49918 81.726685Q339.74918 81.007935 338.54605 81.007935Q337.28043 81.007935 336.5148 81.77356Q335.74918 82.539185 335.74918 83.882935L333.93668 83.695435Q334.12418 81.67981 335.3273 80.61731Q336.54605 79.55481 338.59293 79.55481Q340.6398 79.55481 341.84293 80.695435Q343.04605 81.83606 343.04605 83.52356Q343.04605 84.382935 342.68668 85.226685Q342.34293 86.05481 341.53043 86.976685Q340.71793 87.882935 338.8273 89.49231Q337.23355 90.820435 336.78043 91.289185Q336.34293 91.757935 336.04605 92.24231L343.06168 92.24231ZM354.67105 98.132935Q353.21793 96.30481 352.21793 93.851685Q351.21793 91.382935 351.21793 88.74231Q351.21793 86.414185 351.96793 84.289185Q352.84293 81.820435 354.67105 79.36731L355.93668 79.36731Q354.74918 81.39856 354.37418 82.27356Q353.78043 83.61731 353.43668 85.08606Q353.0148 86.914185 353.0148 88.757935Q353.0148 93.445435 355.93668 98.132935L354.67105 98.132935ZM364.4523 93.92981L362.68668 93.92981L362.68668 82.726685Q362.06168 83.33606 361.03043 83.945435Q359.99918 84.539185 359.17105 84.851685L359.17105 83.14856Q360.65543 82.46106 361.74918 81.476685Q362.85855 80.476685 363.31168 79.55481L364.4523 79.55481L364.4523 93.92981ZM374.46793 93.92981L374.46793 90.507935L368.24918 90.507935L368.24918 88.882935L374.78043 79.61731L376.21793 79.61731L376.21793 88.882935L378.15543 88.882935L378.15543 90.507935L376.21793 90.507935L376.21793 93.92981L374.46793 93.92981ZM374.46793 88.882935L374.46793 82.42981L369.98355 88.882935L374.46793 88.882935ZM380.78043 93.92981L380.78043 91.92981L382.78043 91.92981L382.78043 93.92981Q382.78043 95.039185 382.3898 95.71106Q381.99918 96.39856 381.15543 96.757935L380.65543 96.007935Q381.21793 95.77356 381.48355 95.289185Q381.74918 94.820435 381.78043 93.92981L380.78043 93.92981ZM385.84293 90.14856L387.59293 89.914185Q387.90543 91.414185 388.62418 92.070435Q389.35855 92.726685 390.40543 92.726685Q391.6398 92.726685 392.48355 91.86731Q393.34293 91.007935 393.34293 89.74231Q393.34293 88.52356 392.54605 87.74231Q391.7648 86.96106 390.54605 86.96106Q390.04605 86.96106 389.31168 87.14856L389.49918 85.601685Q389.67105 85.632935 389.78043 85.632935Q390.90543 85.632935 391.79605 85.05481Q392.7023 84.46106 392.7023 83.24231Q392.7023 82.27356 392.04605 81.632935Q391.3898 80.99231 390.35855 80.99231Q389.34293 80.99231 388.65543 81.64856Q387.96793 82.289185 387.78043 83.570435L386.0148 83.257935Q386.34293 81.49231 387.48355 80.52356Q388.62418 79.55481 390.3273 79.55481Q391.49918 79.55481 392.48355 80.05481Q393.46793 80.55481 393.98355 81.42981Q394.5148 82.30481 394.5148 83.27356Q394.5148 84.195435 394.0148 84.96106Q393.5148 85.726685 392.54605 86.17981Q393.81168 86.46106 394.5148 87.39856Q395.21793 88.320435 395.21793 89.695435Q395.21793 91.570435 393.84293 92.882935Q392.48355 94.17981 390.3898 94.17981Q388.49918 94.17981 387.24918 93.05481Q386.0148 91.92981 385.84293 90.14856ZM397.15543 83.05481Q397.15543 81.52356 397.92105 80.445435Q398.7023 79.36731 400.17105 79.36731Q401.5148 79.36731 402.3898 80.33606Q403.28043 81.289185 403.28043 83.164185Q403.28043 84.976685 402.3898 85.96106Q401.49918 86.92981 400.18668 86.92981Q398.8898 86.92981 398.0148 85.976685Q397.15543 85.007935 397.15543 83.05481ZM400.21793 80.58606Q399.56168 80.58606 399.12418 81.14856Q398.7023 81.71106 398.7023 83.226685Q398.7023 84.601685 399.1398 85.164185Q399.5773 85.726685 400.21793 85.726685Q400.8898 85.726685 401.31168 85.164185Q401.74918 84.58606 401.74918 83.08606Q401.74918 81.695435 401.31168 81.14856Q400.87418 80.58606 400.21793 80.58606ZM400.23355 94.46106L408.06168 79.36731L409.48355 79.36731L401.68668 94.46106L400.23355 94.46106ZM406.42105 90.570435Q406.42105 89.02356 407.18668 87.96106Q407.96793 86.882935 409.43668 86.882935Q410.78043 86.882935 411.65543 87.851685Q412.54605 88.80481 412.54605 90.67981Q412.54605 92.49231 411.65543 93.476685Q410.7648 94.46106 409.4523 94.46106Q408.15543 94.46106 407.28043 93.49231Q406.42105 92.507935 406.42105 90.570435ZM409.48355 88.101685Q408.8273 88.101685 408.3898 88.664185Q407.9523 89.226685 407.9523 90.74231Q407.9523 92.11731 408.3898 92.67981Q408.8273 93.24231 409.48355 93.24231Q410.15543 93.24231 410.5773 92.67981Q411.0148 92.11731 411.0148 90.601685Q411.0148 89.226685 410.5773 88.664185Q410.1398 88.101685 409.48355 88.101685ZM416.46793 98.132935L415.21793 98.132935Q418.12418 93.445435 418.12418 88.757935Q418.12418 86.914185 417.71793 85.11731Q417.37418 83.64856 416.78043 82.30481Q416.40543 81.414185 415.21793 79.36731L416.46793 79.36731Q418.31168 81.820435 419.18668 84.289185Q419.93668 86.414185 419.93668 88.74231Q419.93668 91.382935 418.92105 93.851685Q417.92105 96.30481 416.46793 98.132935Z" fill-rule="nonzero"/><path fill="#000000" d="M290.45312 303.67764L288.6875 303.67764L288.6875 292.47452Q288.0625 293.0839 287.03125 293.69327Q286.0 294.28702 285.17188 294.59952L285.17188 292.8964Q286.65625 292.2089 287.75 291.22452Q288.85938 290.22452 289.3125 289.30264L290.45312 289.30264L290.45312 303.67764ZM294.82812 296.61514Q294.82812 294.0839 295.34375 292.53702Q295.875 290.97452 296.90625 290.1464Q297.9375 289.30264 299.5 289.30264Q300.65625 289.30264 301.51562 289.7714Q302.39062 290.22452 302.95312 291.09952Q303.51562 291.97452 303.84375 293.24014Q304.17188 294.49014 304.17188 296.61514Q304.17188 299.13077 303.64062 300.67764Q303.125 302.22452 302.09375 303.0839Q301.07812 303.92764 299.5 303.92764Q297.42188 303.92764 296.25 302.44327Q294.82812 300.6464 294.82812 296.61514ZM296.64062 296.61514Q296.64062 300.1464 297.45312 301.31827Q298.28125 302.47452 299.5 302.47452Q300.70312 302.47452 301.53125 301.30264Q302.35938 300.13077 302.35938 296.61514Q302.35938 293.0839 301.53125 291.92764Q300.70312 290.75577 299.48438 290.75577Q298.26562 290.75577 297.54688 291.78702Q296.64062 293.0839 296.64062 296.61514ZM315.67188 307.88077Q314.21875 306.05264 313.21875 303.59952Q312.21875 301.13077 312.21875 298.49014Q312.21875 296.16202 312.96875 294.03702Q313.84375 291.56827 315.67188 289.11514L316.9375 289.11514Q315.75 291.1464 315.375 292.0214Q314.78125 293.36514 314.4375 294.8339Q314.01562 296.66202 314.01562 298.50577Q314.01562 303.19327 316.9375 307.88077L315.67188 307.88077ZM318.95312 291.24014L318.95312 289.55264L328.21875 289.55264L328.21875 290.91202Q326.84375 292.36514 325.5 294.78702Q324.15625 297.19327 323.4375 299.74014Q322.90625 301.53702 322.75 303.67764L320.95312 303.67764Q320.98438 301.99014 321.60938 299.59952Q322.25 297.2089 323.4375 294.99014Q324.625 292.75577 325.95312 291.24014L318.95312 291.24014ZM336.45312 303.67764L334.6875 303.67764L334.6875 292.47452Q334.0625 293.0839 333.03125 293.69327Q332.0 294.28702 331.17188 294.59952L331.17188 292.8964Q332.65625 292.2089 333.75 291.22452Q334.85938 290.22452 335.3125 289.30264L336.45312 289.30264L336.45312 303.67764ZM341.78125 303.67764L341.78125 301.67764L343.78125 301.67764L343.78125 303.67764Q343.78125 304.78702 343.39062 305.4589Q343.0 306.1464 342.15625 306.50577L341.65625 305.75577Q342.21875 305.5214 342.48438 305.03702Q342.75 304.56827 342.78125 303.67764L341.78125 303.67764ZM352.46875 303.67764L352.46875 300.25577L346.25 300.25577L346.25 298.63077L352.78125 289.36514L354.21875 289.36514L354.21875 298.63077L356.15625 298.63077L356.15625 300.25577L354.21875 300.25577L354.21875 303.67764L352.46875 303.67764ZM352.46875 298.63077L352.46875 292.17764L347.98438 298.63077L352.46875 298.63077ZM358.15625 292.80264Q358.15625 291.2714 358.92188 290.19327Q359.70312 289.11514 361.17188 289.11514Q362.51562 289.11514 363.39062 290.0839Q364.28125 291.03702 364.28125 292.91202Q364.28125 294.72452 363.39062 295.7089Q362.5 296.67764 361.1875 296.67764Q359.89062 296.67764 359.01562 295.72452Q358.15625 294.75577 358.15625 292.80264ZM361.21875 290.3339Q360.5625 290.3339 360.125 290.8964Q359.70312 291.4589 359.70312 292.97452Q359.70312 294.34952 360.14062 294.91202Q360.57812 295.47452 361.21875 295.47452Q361.89062 295.47452 362.3125 294.91202Q362.75 294.3339 362.75 292.8339Q362.75 291.44327 362.3125 290.8964Q361.875 290.3339 361.21875 290.3339ZM361.23438 304.2089L369.0625 289.11514L370.48438 289.11514L362.6875 304.2089L361.23438 304.2089ZM367.42188 300.31827Q367.42188 298.7714 368.1875 297.7089Q368.96875 296.63077 370.4375 296.63077Q371.78125 296.63077 372.65625 297.59952Q373.54688 298.55264 373.54688 300.42764Q373.54688 302.24014 372.65625 303.22452Q371.76562 304.2089 370.45312 304.2089Q369.15625 304.2089 368.28125 303.24014Q367.42188 302.25577 367.42188 300.31827ZM370.48438 297.84952Q369.82812 297.84952 369.39062 298.41202Q368.95312 298.97452 368.95312 300.49014Q368.95312 301.86514 369.39062 302.42764Q369.82812 302.99014 370.48438 302.99014Q371.15625 302.99014 371.57812 302.42764Q372.01562 301.86514 372.01562 300.34952Q372.01562 298.97452 371.57812 298.41202Q371.14062 297.84952 370.48438 297.84952ZM377.46875 307.88077L376.21875 307.88077Q379.125 303.19327 379.125 298.50577Q379.125 296.66202 378.71875 294.86514Q378.375 293.3964 377.78125 292.05264Q377.40625 291.16202 376.21875 289.11514L377.46875 289.11514Q379.3125 291.56827 380.1875 294.03702Q380.9375 296.16202 380.9375 298.49014Q380.9375 301.13077 379.92188 303.59952Q378.92188 306.05264 377.46875 307.88077Z" fill-rule="nonzero"/><path fill="#000000" d="M254.06331 92.24231L254.06331 93.92981L244.61018 93.92981Q244.59456 93.289185 244.81331 92.71106Q245.17268 91.74231 245.96956 90.80481Q246.76643 89.86731 248.26643 88.632935Q250.61018 86.726685 251.42268 85.61731Q252.25081 84.49231 252.25081 83.49231Q252.25081 82.445435 251.50081 81.726685Q250.75081 81.007935 249.54768 81.007935Q248.28206 81.007935 247.51643 81.77356Q246.75081 82.539185 246.75081 83.882935L244.93831 83.695435Q245.12581 81.67981 246.32893 80.61731Q247.54768 79.55481 249.59456 79.55481Q251.64143 79.55481 252.84456 80.695435Q254.04768 81.83606 254.04768 83.52356Q254.04768 84.382935 253.68831 85.226685Q253.34456 86.05481 252.53206 86.976685Q251.71956 87.882935 249.82893 89.49231Q248.23518 90.820435 247.78206 91.289185Q247.34456 91.757935 247.04768 92.24231L254.06331 92.24231ZM265.67267 98.132935Q264.21954 96.30481 263.21954 93.851685Q262.21954 91.382935 262.21954 88.74231Q262.21954 86.414185 262.96954 84.289185Q263.84454 81.820435 265.67267 79.36731L266.9383 79.36731Q265.7508 81.39856 265.3758 82.27356Q264.78204 83.61731 264.4383 85.08606Q264.01642 86.914185 264.01642 88.757935Q264.01642 93.445435 266.9383 98.132935L265.67267 98.132935ZM275.45392 93.92981L273.6883 93.92981L273.6883 82.726685Q273.0633 83.33606 272.03204 83.945435Q271.0008 84.539185 270.17267 84.851685L270.17267 83.14856Q271.65704 82.46106 272.7508 81.476685Q273.86017 80.476685 274.3133 79.55481L275.45392 79.55481L275.45392 93.92981ZM285.46954 93.92981L285.46954 90.507935L279.2508 90.507935L279.2508 88.882935L285.78204 79.61731L287.21954 79.61731L287.21954 88.882935L289.15704 88.882935L289.15704 90.507935L287.21954 90.507935L287.21954 93.92981L285.46954 93.92981ZM285.46954 88.882935L285.46954 82.42981L280.98517 88.882935L285.46954 88.882935ZM291.78204 93.92981L291.78204 91.92981L293.78204 91.92981L293.78204 93.92981Q293.78204 95.039185 293.39142 95.71106Q293.0008 96.39856 292.15704 96.757935L291.65704 96.007935Q292.21954 95.77356 292.48517 95.289185Q292.7508 94.820435 292.78204 93.92981L291.78204 93.92981ZM296.84454 90.14856L298.59454 89.914185Q298.90704 91.414185 299.6258 92.070435Q300.36017 92.726685 301.40704 92.726685Q302.64142 92.726685 303.48517 91.86731Q304.34454 91.007935 304.34454 89.74231Q304.34454 88.52356 303.54767 87.74231Q302.76642 86.96106 301.54767 86.96106Q301.04767 86.96106 300.3133 87.14856L300.5008 85.601685Q300.67267 85.632935 300.78204 85.632935Q301.90704 85.632935 302.79767 85.05481Q303.70392 84.46106 303.70392 83.24231Q303.70392 82.27356 303.04767 81.632935Q302.39142 80.99231 301.36017 80.99231Q300.34454 80.99231 299.65704 81.64856Q298.96954 82.289185 298.78204 83.570435L297.01642 83.257935Q297.34454 81.49231 298.48517 80.52356Q299.6258 79.55481 301.32892 79.55481Q302.5008 79.55481 303.48517 80.05481Q304.46954 80.55481 304.98517 81.42981Q305.51642 82.30481 305.51642 83.27356Q305.51642 84.195435 305.01642 84.96106Q304.51642 85.726685 303.54767 86.17981Q304.8133 86.46106 305.51642 87.39856Q306.21954 88.320435 306.21954 89.695435Q306.21954 91.570435 304.84454 92.882935Q303.48517 94.17981 301.39142 94.17981Q299.5008 94.17981 298.2508 93.05481Q297.01642 91.92981 296.84454 90.14856ZM308.15704 83.05481Q308.15704 81.52356 308.92267 80.445435Q309.70392 79.36731 311.17267 79.36731Q312.51642 79.36731 313.39142 80.33606Q314.28204 81.289185 314.28204 83.164185Q314.28204 84.976685 313.39142 85.96106Q312.5008 86.92981 311.1883 86.92981Q309.89142 86.92981 309.01642 85.976685Q308.15704 85.007935 308.15704 83.05481ZM311.21954 80.58606Q310.5633 80.58606 310.1258 81.14856Q309.70392 81.71106 309.70392 83.226685Q309.70392 84.601685 310.14142 85.164185Q310.57892 85.726685 311.21954 85.726685Q311.89142 85.726685 312.3133 85.164185Q312.7508 84.58606 312.7508 83.08606Q312.7508 81.695435 312.3133 81.14856Q311.8758 80.58606 311.21954 80.58606ZM311.23517 94.46106L319.0633 79.36731L320.48517 79.36731L312.6883 94.46106L311.23517 94.46106ZM317.42267 90.570435Q317.42267 89.02356 318.1883 87.96106Q318.96954 86.882935 320.4383 86.882935Q321.78204 86.882935 322.65704 87.851685Q323.54767 88.80481 323.54767 90.67981Q323.54767 92.49231 322.65704 93.476685Q321.76642 94.46106 320.45392 94.46106Q319.15704 94.46106 318.28204 93.49231Q317.42267 92.507935 317.42267 90.570435ZM320.48517 88.101685Q319.82892 88.101685 319.39142 88.664185Q318.95392 89.226685 318.95392 90.74231Q318.95392 92.11731 319.39142 92.67981Q319.82892 93.24231 320.48517 93.24231Q321.15704 93.24231 321.57892 92.67981Q322.01642 92.11731 322.01642 90.601685Q322.01642 89.226685 321.57892 88.664185Q321.14142 88.101685 320.48517 88.101685ZM327.46954 98.132935L326.21954 98.132935Q329.1258 93.445435 329.1258 88.757935Q329.1258 86.914185 328.71954 85.11731Q328.3758 83.64856 327.78204 82.30481Q327.40704 81.414185 326.21954 79.36731L327.46954 79.36731Q329.3133 81.820435 330.1883 84.289185Q330.9383 86.414185 330.9383 88.74231Q330.9383 91.382935 329.92267 93.851685Q328.92267 96.30481 327.46954 98.132935Z" fill-rule="nonzero"/><path fill="#4285f4" d="M91.5 366.0C91.5 369.31372 88.813705 372.0 85.5 372.0C82.186295 372.0 79.5 369.31372 79.5 366.0C79.5 362.68628 82.186295 360.0 85.5 360.0C88.813705 360.0 91.5 362.68628 91.5 366.0Z" fill-rule="nonzero"/><path fill="#1a1a1a" d="M101.359375 374.0L101.359375 356.8125L107.828125 356.8125Q109.546875 356.8125 110.453125 356.98438Q111.71875 357.1875 112.5625 357.78125Q113.421875 358.375 113.9375 359.45312Q114.46875 360.51562 114.46875 361.78125Q114.46875 363.98438 113.0625 365.5Q111.671875 367.01562 108.03125 367.01562L103.625 367.01562L103.625 374.0L101.359375 374.0ZM103.625 364.98438L108.0625 364.98438Q110.265625 364.98438 111.1875 364.17188Q112.125 363.34375 112.125 361.85938Q112.125 360.78125 111.578125 360.01562Q111.03125 359.25 110.140625 359.0Q109.5625 358.84375 108.015625 358.84375L103.625 358.84375L103.625 364.98438ZM117.03125 374.0L117.03125 356.8125L119.140625 356.8125L119.140625 374.0L117.03125 374.0ZM130.23438 374.0L130.23438 372.17188Q128.78125 374.28125 126.296875 374.28125Q125.1875 374.28125 124.234375 373.85938Q123.28125 373.4375 122.8125 372.79688Q122.359375 372.15625 122.171875 371.23438Q122.03125 370.60938 122.03125 369.26562L122.03125 361.54688L124.140625 361.54688L124.140625 368.45312Q124.140625 370.10938 124.28125 370.6875Q124.46875 371.51562 125.109375 372.0Q125.765625 372.46875 126.71875 372.46875Q127.65625 372.46875 128.48438 371.98438Q129.32812 371.48438 129.67188 370.65625Q130.01562 369.8125 130.01562 368.21875L130.01562 361.54688L132.125 361.54688L132.125 374.0L130.23438 374.0ZM139.6875 372.10938L140.0 373.96875Q139.10938 374.17188 138.40625 374.17188Q137.25 374.17188 136.60938 373.8125Q135.98438 373.4375 135.71875 372.84375Q135.46875 372.25 135.46875 370.35938L135.46875 363.1875L133.92188 363.1875L133.92188 361.54688L135.46875 361.54688L135.46875 358.46875L137.5625 357.20312L137.5625 361.54688L139.6875 361.54688L139.6875 363.1875L137.5625 363.1875L137.5625 370.46875Q137.5625 371.375 137.67188 371.64062Q137.79688 371.89062 138.04688 372.04688Q138.29688 372.1875 138.76562 372.1875Q139.10938 372.1875 139.6875 372.10938ZM141.29688 367.78125Q141.29688 364.3125 143.21875 362.65625Q144.82812 361.26562 147.14062 361.26562Q149.70312 361.26562 151.32812 362.95312Q152.95312 364.64062 152.95312 367.59375Q152.95312 370.0 152.23438 371.375Q151.51562 372.75 150.14062 373.51562Q148.76562 374.28125 147.14062 374.28125Q144.51562 374.28125 142.90625 372.60938Q141.29688 370.92188 141.29688 367.78125ZM143.46875 367.78125Q143.46875 370.17188 144.5 371.35938Q145.54688 372.54688 147.14062 372.54688Q148.70312 372.54688 149.75 371.35938Q150.79688 370.15625 150.79688 367.70312Q150.79688 365.39062 149.73438 364.20312Q148.6875 363.01562 147.14062 363.01562Q145.54688 363.01562 144.5 364.20312Q143.46875 365.39062 143.46875 367.78125ZM147.53125 358.01562L146.20312 360.0L143.79688 360.0L146.32812 356.71875L148.57812 356.71875L151.21875 360.0L148.82812 360.0L147.53125 358.01562ZM159.6875 372.10938L160.0 373.96875Q159.10938 374.17188 158.40625 374.17188Q157.25 374.17188 156.60938 373.8125Q155.98438 373.4375 155.71875 372.84375Q155.46875 372.25 155.46875 370.35938L155.46875 363.1875L153.92188 363.1875L153.92188 361.54688L155.46875 361.54688L155.46875 358.46875L157.5625 357.20312L157.5625 361.54688L159.6875 361.54688L159.6875 363.1875L157.5625 363.1875L157.5625 370.46875Q157.5625 371.375 157.67188 371.64062Q157.79688 371.89062 158.04688 372.04688Q158.29688 372.1875 158.76562 372.1875Q159.10938 372.1875 159.6875 372.10938ZM168.29688 367.78125Q168.29688 364.3125 170.21875 362.65625Q171.82812 361.26562 174.14062 361.26562Q176.70312 361.26562 178.32812 362.95312Q179.95312 364.64062 179.95312 367.59375Q179.95312 370.0 179.23438 371.375Q178.51562 372.75 177.14062 373.51562Q175.76562 374.28125 174.14062 374.28125Q171.51562 374.28125 169.90625 372.60938Q168.29688 370.92188 168.29688 367.78125ZM170.46875 367.78125Q170.46875 370.17188 171.5 371.35938Q172.54688 372.54688 174.14062 372.54688Q175.70312 372.54688 176.75 371.35938Q177.79688 370.15625 177.79688 367.70312Q177.79688 365.39062 176.73438 364.20312Q175.6875 363.01562 174.14062 363.01562Q172.54688 363.01562 171.5 364.20312Q170.46875 365.39062 170.46875 367.78125ZM182.07812 378.76562L182.07812 361.54688L184.0 361.54688L184.0 363.17188Q184.6875 362.21875 185.53125 361.75Q186.39062 361.26562 187.60938 361.26562Q189.20312 361.26562 190.42188 362.09375Q191.64062 362.90625 192.26562 364.40625Q192.89062 365.90625 192.89062 367.6875Q192.89062 369.59375 192.20312 371.125Q191.51562 372.65625 190.20312 373.46875Q188.90625 374.28125 187.46875 374.28125Q186.40625 374.28125 185.5625 373.84375Q184.73438 373.39062 184.1875 372.70312L184.1875 378.76562L182.07812 378.76562ZM184.0 367.84375Q184.0 370.25 184.96875 371.40625Q185.9375 372.54688 187.32812 372.54688Q188.73438 372.54688 189.73438 371.35938Q190.73438 370.17188 190.73438 367.67188Q190.73438 365.29688 189.75 364.10938Q188.78125 362.92188 187.42188 362.92188Q186.0625 362.92188 185.03125 364.1875Q184.0 365.4375 184.0 367.84375ZM199.6875 372.10938L200.0 373.96875Q199.10938 374.17188 198.40625 374.17188Q197.25 374.17188 196.60938 373.8125Q195.98438 373.4375 195.71875 372.84375Q195.46875 372.25 195.46875 370.35938L195.46875 363.1875L193.92188 363.1875L193.92188 361.54688L195.46875 361.54688L195.46875 358.46875L197.5625 357.20312L197.5625 361.54688L199.6875 361.54688L199.6875 363.1875L197.5625 363.1875L197.5625 370.46875Q197.5625 371.375 197.67188 371.64062Q197.79688 371.89062 198.04688 372.04688Q198.29688 372.1875 198.76562 372.1875Q199.10938 372.1875 199.6875 372.10938ZM202.09375 359.25L202.09375 356.8125L204.20312 356.8125L204.20312 359.25L202.09375 359.25ZM202.09375 374.0L202.09375 361.54688L204.20312 361.54688L204.20312 374.0L202.09375 374.0ZM207.07812 374.0L207.07812 361.54688L208.96875 361.54688L208.96875 363.29688Q209.5625 362.39062 210.53125 361.82812Q211.5 361.26562 212.75 361.26562Q214.125 361.26562 215.0 361.84375Q215.89062 362.42188 216.26562 363.45312Q217.73438 361.26562 220.10938 361.26562Q221.95312 361.26562 222.95312 362.29688Q223.95312 363.32812 223.95312 365.45312L223.95312 374.0L221.84375 374.0L221.84375 366.15625Q221.84375 364.89062 221.64062 364.34375Q221.4375 363.78125 220.89062 363.4375Q220.35938 363.09375 219.64062 363.09375Q218.32812 363.09375 217.45312 363.96875Q216.59375 364.84375 216.59375 366.76562L216.59375 374.0L214.48438 374.0L214.48438 365.90625Q214.48438 364.5 213.96875 363.79688Q213.45312 363.09375 212.28125 363.09375Q211.39062 363.09375 210.625 363.5625Q209.875 364.03125 209.53125 364.9375Q209.1875 365.84375 209.1875 367.54688L209.1875 374.0L207.07812 374.0ZM227.09375 359.25L227.09375 356.8125L229.20312 356.8125L229.20312 359.25L227.09375 359.25ZM227.09375 374.0L227.09375 361.54688L229.20312 361.54688L229.20312 374.0L227.09375 374.0ZM231.23438 370.28125L233.32812 369.95312Q233.5 371.20312 234.29688 371.875Q235.10938 372.54688 236.54688 372.54688Q238.0 372.54688 238.70312 371.95312Q239.40625 371.35938 239.40625 370.5625Q239.40625 369.84375 238.78125 369.4375Q238.35938 369.15625 236.625 368.71875Q234.3125 368.14062 233.40625 367.71875Q232.51562 367.28125 232.04688 366.53125Q231.59375 365.76562 231.59375 364.85938Q231.59375 364.03125 231.96875 363.32812Q232.35938 362.60938 233.01562 362.14062Q233.5 361.78125 234.34375 361.53125Q235.20312 361.26562 236.17188 361.26562Q237.64062 361.26562 238.75 361.6875Q239.85938 362.10938 240.375 362.84375Q240.90625 363.5625 241.10938 364.76562L239.04688 365.04688Q238.90625 364.07812 238.23438 363.54688Q237.5625 363.0 236.32812 363.0Q234.875 363.0 234.25 363.48438Q233.625 363.96875 233.625 364.60938Q233.625 365.01562 233.89062 365.34375Q234.14062 365.6875 234.70312 365.90625Q235.01562 366.03125 236.5625 366.45312Q238.79688 367.04688 239.67188 367.4375Q240.5625 367.8125 241.0625 368.54688Q241.57812 369.26562 241.57812 370.34375Q241.57812 371.39062 240.95312 372.32812Q240.34375 373.26562 239.1875 373.78125Q238.03125 374.28125 236.5625 374.28125Q234.14062 374.28125 232.85938 373.28125Q231.59375 372.26562 231.23438 370.28125ZM248.6875 372.10938L249.0 373.96875Q248.10938 374.17188 247.40625 374.17188Q246.25 374.17188 245.60938 373.8125Q244.98438 373.4375 244.71875 372.84375Q244.46875 372.25 244.46875 370.35938L244.46875 363.1875L242.92188 363.1875L242.92188 361.54688L244.46875 361.54688L244.46875 358.46875L246.5625 357.20312L246.5625 361.54688L248.6875 361.54688L248.6875 363.1875L246.5625 363.1875L246.5625 370.46875Q246.5625 371.375 246.67188 371.64062Q246.79688 371.89062 247.04688 372.04688Q247.29688 372.1875 247.76562 372.1875Q248.10938 372.1875 248.6875 372.10938ZM259.60938 369.98438L261.78125 370.26562Q261.26562 372.17188 259.875 373.23438Q258.48438 374.28125 256.3125 374.28125Q253.57812 374.28125 251.96875 372.60938Q250.375 370.92188 250.375 367.875Q250.375 364.73438 251.98438 363.0Q253.60938 361.26562 256.1875 361.26562Q258.6875 361.26562 260.26562 362.96875Q261.85938 364.67188 261.85938 367.75Q261.85938 367.9375 261.84375 368.3125L252.5625 368.3125Q252.67188 370.35938 253.71875 371.45312Q254.76562 372.54688 256.32812 372.54688Q257.48438 372.54688 258.29688 371.9375Q259.125 371.32812 259.60938 369.98438ZM252.67188 366.57812L259.625 366.57812Q259.48438 365.01562 258.82812 364.21875Q257.82812 363.0 256.21875 363.0Q254.76562 363.0 253.76562 363.98438Q252.78125 364.95312 252.67188 366.57812Z" fill-rule="nonzero"/><path fill="#ea4335" d="M290.5 366.0C290.5 369.31372 287.81372 372.0 284.5 372.0C281.18628 372.0 278.5 369.31372 278.5 366.0C278.5 362.68628 281.18628 360.0 284.5 360.0C287.81372 360.0 290.5 362.68628 290.5 366.0Z" fill-rule="nonzero"/><path fill="#1a1a1a" d="M300.35938 374.0L300.35938 356.8125L306.82812 356.8125Q308.54688 356.8125 309.45312 356.98438Q310.71875 357.1875 311.5625 357.78125Q312.42188 358.375 312.9375 359.45312Q313.46875 360.51562 313.46875 361.78125Q313.46875 363.98438 312.0625 365.5Q310.67188 367.01562 307.03125 367.01562L302.625 367.01562L302.625 374.0L300.35938 374.0ZM302.625 364.98438L307.0625 364.98438Q309.26562 364.98438 310.1875 364.17188Q311.125 363.34375 311.125 361.85938Q311.125 360.78125 310.57812 360.01562Q310.03125 359.25 309.14062 359.0Q308.5625 358.84375 307.01562 358.84375L302.625 358.84375L302.625 364.98438ZM316.03125 374.0L316.03125 356.8125L318.14062 356.8125L318.14062 374.0L316.03125 374.0ZM329.23438 374.0L329.23438 372.17188Q327.78125 374.28125 325.29688 374.28125Q324.1875 374.28125 323.23438 373.85938Q322.28125 373.4375 321.8125 372.79688Q321.35938 372.15625 321.17188 371.23438Q321.03125 370.60938 321.03125 369.26562L321.03125 361.54688L323.14062 361.54688L323.14062 368.45312Q323.14062 370.10938 323.28125 370.6875Q323.46875 371.51562 324.10938 372.0Q324.76562 372.46875 325.71875 372.46875Q326.65625 372.46875 327.48438 371.98438Q328.32812 371.48438 328.67188 370.65625Q329.01562 369.8125 329.01562 368.21875L329.01562 361.54688L331.125 361.54688L331.125 374.0L329.23438 374.0ZM338.6875 372.10938L339.0 373.96875Q338.10938 374.17188 337.40625 374.17188Q336.25 374.17188 335.60938 373.8125Q334.98438 373.4375 334.71875 372.84375Q334.46875 372.25 334.46875 370.35938L334.46875 363.1875L332.92188 363.1875L332.92188 361.54688L334.46875 361.54688L334.46875 358.46875L336.5625 357.20312L336.5625 361.54688L338.6875 361.54688L338.6875 363.1875L336.5625 363.1875L336.5625 370.46875Q336.5625 371.375 336.67188 371.64062Q336.79688 371.89062 337.04688 372.04688Q337.29688 372.1875 337.76562 372.1875Q338.10938 372.1875 338.6875 372.10938ZM340.29688 367.78125Q340.29688 364.3125 342.21875 362.65625Q343.82812 361.26562 346.14062 361.26562Q348.70312 361.26562 350.32812 362.95312Q351.95312 364.64062 351.95312 367.59375Q351.95312 370.0 351.23438 371.375Q350.51562 372.75 349.14062 373.51562Q347.76562 374.28125 346.14062 374.28125Q343.51562 374.28125 341.90625 372.60938Q340.29688 370.92188 340.29688 367.78125ZM342.46875 367.78125Q342.46875 370.17188 343.5 371.35938Q344.54688 372.54688 346.14062 372.54688Q347.70312 372.54688 348.75 371.35938Q349.79688 370.15625 349.79688 367.70312Q349.79688 365.39062 348.73438 364.20312Q347.6875 363.01562 346.14062 363.01562Q344.54688 363.01562 343.5 364.20312Q342.46875 365.39062 342.46875 367.78125ZM346.53125 358.01562L345.20312 360.0L342.79688 360.0L345.32812 356.71875L347.57812 356.71875L350.21875 360.0L347.82812 360.0L346.53125 358.01562ZM358.6875 372.10938L359.0 373.96875Q358.10938 374.17188 357.40625 374.17188Q356.25 374.17188 355.60938 373.8125Q354.98438 373.4375 354.71875 372.84375Q354.46875 372.25 354.46875 370.35938L354.46875 363.1875L352.92188 363.1875L352.92188 361.54688L354.46875 361.54688L354.46875 358.46875L356.5625 357.20312L356.5625 361.54688L358.6875 361.54688L358.6875 363.1875L356.5625 363.1875L356.5625 370.46875Q356.5625 371.375 356.67188 371.64062Q356.79688 371.89062 357.04688 372.04688Q357.29688 372.1875 357.76562 372.1875Q358.10938 372.1875 358.6875 372.10938ZM368.07812 378.76562L368.07812 361.54688L370.0 361.54688L370.0 363.17188Q370.6875 362.21875 371.53125 361.75Q372.39062 361.26562 373.60938 361.26562Q375.20312 361.26562 376.42188 362.09375Q377.64062 362.90625 378.26562 364.40625Q378.89062 365.90625 378.89062 367.6875Q378.89062 369.59375 378.20312 371.125Q377.51562 372.65625 376.20312 373.46875Q374.90625 374.28125 373.46875 374.28125Q372.40625 374.28125 371.5625 373.84375Q370.73438 373.39062 370.1875 372.70312L370.1875 378.76562L368.07812 378.76562ZM370.0 367.84375Q370.0 370.25 370.96875 371.40625Q371.9375 372.54688 373.32812 372.54688Q374.73438 372.54688 375.73438 371.35938Q376.73438 370.17188 376.73438 367.67188Q376.73438 365.29688 375.75 364.10938Q374.78125 362.92188 373.42188 362.92188Q372.0625 362.92188 371.03125 364.1875Q370.0 365.4375 370.0 367.84375ZM389.60938 369.98438L391.78125 370.26562Q391.26562 372.17188 389.875 373.23438Q388.48438 374.28125 386.3125 374.28125Q383.57812 374.28125 381.96875 372.60938Q380.375 370.92188 380.375 367.875Q380.375 364.73438 381.98438 363.0Q383.60938 361.26562 386.1875 361.26562Q388.6875 361.26562 390.26562 362.96875Q391.85938 364.67188 391.85938 367.75Q391.85938 367.9375 391.84375 368.3125L382.5625 368.3125Q382.67188 370.35938 383.71875 371.45312Q384.76562 372.54688 386.32812 372.54688Q387.48438 372.54688 388.29688 371.9375Q389.125 371.32812 389.60938 369.98438ZM382.67188 366.57812L389.625 366.57812Q389.48438 365.01562 388.82812 364.21875Q387.82812 363.0 386.21875 363.0Q384.76562 363.0 383.76562 363.98438Q382.78125 364.95312 382.67188 366.57812ZM393.23438 370.28125L395.32812 369.95312Q395.5 371.20312 396.29688 371.875Q397.10938 372.54688 398.54688 372.54688Q400.0 372.54688 400.70312 371.95312Q401.40625 371.35938 401.40625 370.5625Q401.40625 369.84375 400.78125 369.4375Q400.35938 369.15625 398.625 368.71875Q396.3125 368.14062 395.40625 367.71875Q394.51562 367.28125 394.04688 366.53125Q393.59375 365.76562 393.59375 364.85938Q393.59375 364.03125 393.96875 363.32812Q394.35938 362.60938 395.01562 362.14062Q395.5 361.78125 396.34375 361.53125Q397.20312 361.26562 398.17188 361.26562Q399.64062 361.26562 400.75 361.6875Q401.85938 362.10938 402.375 362.84375Q402.90625 363.5625 403.10938 364.76562L401.04688 365.04688Q400.90625 364.07812 400.23438 363.54688Q399.5625 363.0 398.32812 363.0Q396.875 363.0 396.25 363.48438Q395.625 363.96875 395.625 364.60938Q395.625 365.01562 395.89062 365.34375Q396.14062 365.6875 396.70312 365.90625Q397.01562 366.03125 398.5625 366.45312Q400.79688 367.04688 401.67188 367.4375Q402.5625 367.8125 403.0625 368.54688Q403.57812 369.26562 403.57812 370.34375Q403.57812 371.39062 402.95312 372.32812Q402.34375 373.26562 401.1875 373.78125Q400.03125 374.28125 398.5625 374.28125Q396.14062 374.28125 394.85938 373.28125Q393.59375 372.26562 393.23438 370.28125ZM405.23438 370.28125L407.32812 369.95312Q407.5 371.20312 408.29688 371.875Q409.10938 372.54688 410.54688 372.54688Q412.0 372.54688 412.70312 371.95312Q413.40625 371.35938 413.40625 370.5625Q413.40625 369.84375 412.78125 369.4375Q412.35938 369.15625 410.625 368.71875Q408.3125 368.14062 407.40625 367.71875Q406.51562 367.28125 406.04688 366.53125Q405.59375 365.76562 405.59375 364.85938Q405.59375 364.03125 405.96875 363.32812Q406.35938 362.60938 407.01562 362.14062Q407.5 361.78125 408.34375 361.53125Q409.20312 361.26562 410.17188 361.26562Q411.64062 361.26562 412.75 361.6875Q413.85938 362.10938 414.375 362.84375Q414.90625 363.5625 415.10938 364.76562L413.04688 365.04688Q412.90625 364.07812 412.23438 363.54688Q411.5625 363.0 410.32812 363.0Q408.875 363.0 408.25 363.48438Q407.625 363.96875 407.625 364.60938Q407.625 365.01562 407.89062 365.34375Q408.14062 365.6875 408.70312 365.90625Q409.01562 366.03125 410.5625 366.45312Q412.79688 367.04688 413.67188 367.4375Q414.5625 367.8125 415.0625 368.54688Q415.57812 369.26562 415.57812 370.34375Q415.57812 371.39062 414.95312 372.32812Q414.34375 373.26562 413.1875 373.78125Q412.03125 374.28125 410.5625 374.28125Q408.14062 374.28125 406.85938 373.28125Q405.59375 372.26562 405.23438 370.28125ZM418.09375 359.25L418.09375 356.8125L420.20312 356.8125L420.20312 359.25L418.09375 359.25ZM418.09375 374.0L418.09375 361.54688L420.20312 361.54688L420.20312 374.0L418.09375 374.0ZM423.07812 374.0L423.07812 361.54688L424.96875 361.54688L424.96875 363.29688Q425.5625 362.39062 426.53125 361.82812Q427.5 361.26562 428.75 361.26562Q430.125 361.26562 431.0 361.84375Q431.89062 362.42188 432.26562 363.45312Q433.73438 361.26562 436.10938 361.26562Q437.95312 361.26562 438.95312 362.29688Q439.95312 363.32812 439.95312 365.45312L439.95312 374.0L437.84375 374.0L437.84375 366.15625Q437.84375 364.89062 437.64062 364.34375Q437.4375 363.78125 436.89062 363.4375Q436.35938 363.09375 435.64062 363.09375Q434.32812 363.09375 433.45312 363.96875Q432.59375 364.84375 432.59375 366.76562L432.59375 374.0L430.48438 374.0L430.48438 365.90625Q430.48438 364.5 429.96875 363.79688Q429.45312 363.09375 428.28125 363.09375Q427.39062 363.09375 426.625 363.5625Q425.875 364.03125 425.53125 364.9375Q425.1875 365.84375 425.1875 367.54688L425.1875 374.0L423.07812 374.0ZM443.09375 359.25L443.09375 356.8125L445.20312 356.8125L445.20312 359.25L443.09375 359.25ZM443.09375 374.0L443.09375 361.54688L445.20312 361.54688L445.20312 374.0L443.09375 374.0ZM447.23438 370.28125L449.32812 369.95312Q449.5 371.20312 450.29688 371.875Q451.10938 372.54688 452.54688 372.54688Q454.0 372.54688 454.70312 371.95312Q455.40625 371.35938 455.40625 370.5625Q455.40625 369.84375 454.78125 369.4375Q454.35938 369.15625 452.625 368.71875Q450.3125 368.14062 449.40625 367.71875Q448.51562 367.28125 448.04688 366.53125Q447.59375 365.76562 447.59375 364.85938Q447.59375 364.03125 447.96875 363.32812Q448.35938 362.60938 449.01562 362.14062Q449.5 361.78125 450.34375 361.53125Q451.20312 361.26562 452.17188 361.26562Q453.64062 361.26562 454.75 361.6875Q455.85938 362.10938 456.375 362.84375Q456.90625 363.5625 457.10938 364.76562L455.04688 365.04688Q454.90625 364.07812 454.23438 363.54688Q453.5625 363.0 452.32812 363.0Q450.875 363.0 450.25 363.48438Q449.625 363.96875 449.625 364.60938Q449.625 365.01562 449.89062 365.34375Q450.14062 365.6875 450.70312 365.90625Q451.01562 366.03125 452.5625 366.45312Q454.79688 367.04688 455.67188 367.4375Q456.5625 367.8125 457.0625 368.54688Q457.57812 369.26562 457.57812 370.34375Q457.57812 371.39062 456.95312 372.32812Q456.34375 373.26562 455.1875 373.78125Q454.03125 374.28125 452.5625 374.28125Q450.14062 374.28125 448.85938 373.28125Q447.59375 372.26562 447.23438 370.28125ZM464.6875 372.10938L465.0 373.96875Q464.10938 374.17188 463.40625 374.17188Q462.25 374.17188 461.60938 373.8125Q460.98438 373.4375 460.71875 372.84375Q460.46875 372.25 460.46875 370.35938L460.46875 363.1875L458.92188 363.1875L458.92188 361.54688L460.46875 361.54688L460.46875 358.46875L462.5625 357.20312L462.5625 361.54688L464.6875 361.54688L464.6875 363.1875L462.5625 363.1875L462.5625 370.46875Q462.5625 371.375 462.67188 371.64062Q462.79688 371.89062 463.04688 372.04688Q463.29688 372.1875 463.76562 372.1875Q464.10938 372.1875 464.6875 372.10938ZM475.60938 369.98438L477.78125 370.26562Q477.26562 372.17188 475.875 373.23438Q474.48438 374.28125 472.3125 374.28125Q469.57812 374.28125 467.96875 372.60938Q466.375 370.92188 466.375 367.875Q466.375 364.73438 467.98438 363.0Q469.60938 361.26562 472.1875 361.26562Q474.6875 361.26562 476.26562 362.96875Q477.85938 364.67188 477.85938 367.75Q477.85938 367.9375 477.84375 368.3125L468.5625 368.3125Q468.67188 370.35938 469.71875 371.45312Q470.76562 372.54688 472.32812 372.54688Q473.48438 372.54688 474.29688 371.9375Q475.125 371.32812 475.60938 369.98438ZM468.67188 366.57812L475.625 366.57812Q475.48438 365.01562 474.82812 364.21875Q473.82812 363.0 472.21875 363.0Q470.76562 363.0 469.76562 363.98438Q468.78125 364.95312 468.67188 366.57812Z" fill-rule="nonzero"/><path fill="#fbbc04" d="M506.5 366.0C506.5 369.31372 503.81372 372.0 500.5 372.0C497.18628 372.0 494.5 369.31372 494.5 366.0C494.5 362.68628 497.18628 360.0 500.5 360.0C503.81372 360.0 506.5 362.68628 506.5 366.0Z" fill-rule="nonzero"/><path fill="#1a1a1a" d="M516.3281 374.0L516.3281 356.8125L518.65625 356.8125L527.6875 370.3125L527.6875 356.8125L529.8594 356.8125L529.8594 374.0L527.53125 374.0L518.5156 360.5L518.5156 374.0L516.3281 374.0ZM541.6094 369.98438L543.78125 370.26562Q543.2656 372.17188 541.875 373.23438Q540.4844 374.28125 538.3125 374.28125Q535.5781 374.28125 533.96875 372.60938Q532.375 370.92188 532.375 367.875Q532.375 364.73438 533.9844 363.0Q535.6094 361.26562 538.1875 361.26562Q540.6875 361.26562 542.2656 362.96875Q543.8594 364.67188 543.8594 367.75Q543.8594 367.9375 543.84375 368.3125L534.5625 368.3125Q534.6719 370.35938 535.71875 371.45312Q536.7656 372.54688 538.3281 372.54688Q539.4844 372.54688 540.2969 371.9375Q541.125 371.32812 541.6094 369.98438ZM534.6719 366.57812L541.625 366.57812Q541.4844 365.01562 540.8281 364.21875Q539.8281 363.0 538.21875 363.0Q536.7656 363.0 535.7656 363.98438Q534.78125 364.95312 534.6719 366.57812ZM554.2344 374.0L554.2344 372.17188Q552.78125 374.28125 550.2969 374.28125Q549.1875 374.28125 548.2344 373.85938Q547.28125 373.4375 546.8125 372.79688Q546.3594 372.15625 546.1719 371.23438Q546.03125 370.60938 546.03125 369.26562L546.03125 361.54688L548.1406 361.54688L548.1406 368.45312Q548.1406 370.10938 548.28125 370.6875Q548.46875 371.51562 549.1094 372.0Q549.7656 372.46875 550.71875 372.46875Q551.65625 372.46875 552.4844 371.98438Q553.3281 371.48438 553.6719 370.65625Q554.0156 369.8125 554.0156 368.21875L554.0156 361.54688L556.125 361.54688L556.125 374.0L554.2344 374.0ZM563.6875 372.10938L564.0 373.96875Q563.1094 374.17188 562.40625 374.17188Q561.25 374.17188 560.6094 373.8125Q559.9844 373.4375 559.71875 372.84375Q559.46875 372.25 559.46875 370.35938L559.46875 363.1875L557.9219 363.1875L557.9219 361.54688L559.46875 361.54688L559.46875 358.46875L561.5625 357.20312L561.5625 361.54688L563.6875 361.54688L563.6875 363.1875L561.5625 363.1875L561.5625 370.46875Q561.5625 371.375 561.6719 371.64062Q561.7969 371.89062 562.0469 372.04688Q562.2969 372.1875 562.7656 372.1875Q563.1094 372.1875 563.6875 372.10938ZM566.0625 374.0L566.0625 361.54688L567.9531 361.54688L567.9531 363.4375Q568.6875 362.10938 569.2969 361.6875Q569.9219 361.26562 570.65625 361.26562Q571.71875 361.26562 572.8281 361.95312L572.09375 363.90625Q571.3281 363.45312 570.5469 363.45312Q569.8594 363.45312 569.2969 363.875Q568.75 364.28125 568.5156 365.01562Q568.1719 366.14062 568.1719 367.48438L568.1719 374.0L566.0625 374.0ZM582.6094 369.98438L584.78125 370.26562Q584.2656 372.17188 582.875 373.23438Q581.4844 374.28125 579.3125 374.28125Q576.5781 374.28125 574.96875 372.60938Q573.375 370.92188 573.375 367.875Q573.375 364.73438 574.9844 363.0Q576.6094 361.26562 579.1875 361.26562Q581.6875 361.26562 583.2656 362.96875Q584.8594 364.67188 584.8594 367.75Q584.8594 367.9375 584.84375 368.3125L575.5625 368.3125Q575.6719 370.35938 576.71875 371.45312Q577.7656 372.54688 579.3281 372.54688Q580.4844 372.54688 581.2969 371.9375Q582.125 371.32812 582.6094 369.98438ZM575.6719 366.57812L582.625 366.57812Q582.4844 365.01562 581.8281 364.21875Q580.8281 363.0 579.21875 363.0Q577.7656 363.0 576.7656 363.98438Q575.78125 364.95312 575.6719 366.57812Z" fill-rule="nonzero"/></svg>