<svg version="1.1" viewBox="0.0 0.0 665.0 400.0" fill="none" stroke="none" stroke-linecap="square" stroke-miterlimit="10" width="665" height="400" xmlns:xlink="http://www.w3.org/1999/xlink" xmlns="http://www.w3.org/2000/svg"><path fill="#ffffff" d="M0 0L665.0 0L665.0 400.0L0 400.0L0 0Z" fill-rule="nonzero"/><path fill="#4285f4" d="M332.5 20.0C406.83752 20.0 471.29684 71.4046 487.8385 143.87833C504.38016 216.35207 468.60794 290.63385 401.63214 322.8877L332.5 179.33333Z" fill-rule="nonzero"/><path fill="#ea4335" d="M401.63214 322.8877C342.59128 351.32028 272.16302 340.70496 224.12581 296.13293C176.08861 251.56091 160.23982 182.1229 184.18079 121.12233C208.12173 60.12177 266.96957 20.0 332.5 20.0L332.5 179.33333Z" fill-rule="nonzero"/><path fill="#000000" d="M390.17407 154.58612L388.42407 154.72675Q388.1897 153.6955 387.76782 153.22675Q387.04907 152.46112 386.0022 152.46112Q385.15845 152.46112 384.53345 152.92987Q383.70532 153.53925 383.22095 154.71112Q382.73657 155.86737 382.72095 158.008Q383.36157 157.05487 384.26782 156.58612Q385.1897 156.11737 386.20532 156.11737Q387.95532 156.11737 389.1897 157.41425Q390.42407 158.6955 390.42407 160.74237Q390.42407 162.10175 389.84595 163.258Q389.26782 164.41425 388.2522 165.03925Q387.23657 165.64862 385.9397 165.64862Q383.7522 165.64862 382.36157 164.03925Q380.97095 162.41425 380.97095 158.6955Q380.97095 154.55487 382.5022 152.66425Q383.84595 151.02362 386.11157 151.02362Q387.79907 151.02362 388.8772 151.97675Q389.95532 152.91425 390.17407 154.58612ZM383.0022 160.758Q383.0022 161.66425 383.3772 162.49237Q383.76782 163.3205 384.45532 163.758Q385.15845 164.1955 385.90845 164.1955Q387.03345 164.1955 387.83032 163.30487Q388.6272 162.39862 388.6272 160.85175Q388.6272 159.36737 387.83032 158.52362Q387.04907 157.66425 385.84595 157.66425Q384.65845 157.66425 383.83032 158.52362Q383.0022 159.36737 383.0022 160.758ZM401.89282 169.60175Q400.4397 167.77362 399.4397 165.3205Q398.4397 162.85175 398.4397 160.21112Q398.4397 157.883 399.1897 155.758Q400.0647 153.28925 401.89282 150.83612L403.15845 150.83612Q401.97095 152.86737 401.59595 153.74237Q401.0022 155.08612 400.65845 156.55487Q400.23657 158.383 400.23657 160.22675Q400.23657 164.91425 403.15845 169.60175L401.89282 169.60175ZM410.6897 165.39862L410.6897 161.97675L404.47095 161.97675L404.47095 160.35175L411.0022 151.08612L412.4397 151.08612L412.4397 160.35175L414.3772 160.35175L414.3772 161.97675L412.4397 161.97675L412.4397 165.39862L410.6897 165.39862ZM410.6897 160.35175L410.6897 153.89862L406.20532 160.35175L410.6897 160.35175ZM425.28345 163.71112L425.28345 165.39862L415.83032 165.39862Q415.8147 164.758 416.03345 164.17987Q416.39282 163.21112 417.1897 162.27362Q417.98657 161.33612 419.48657 160.10175Q421.83032 158.1955 422.64282 157.08612Q423.47095 155.96112 423.47095 154.96112Q423.47095 153.91425 422.72095 153.1955Q421.97095 152.47675 420.76782 152.47675Q419.5022 152.47675 418.73657 153.24237Q417.97095 154.008 417.97095 155.35175L416.15845 155.16425Q416.34595 153.14862 417.54907 152.08612Q418.76782 151.02362 420.8147 151.02362Q422.86157 151.02362 424.0647 152.16425Q425.26782 153.30487 425.26782 154.99237Q425.26782 155.85175 424.90845 156.6955Q424.5647 157.52362 423.7522 158.4455Q422.9397 159.35175 421.04907 160.96112Q419.45532 162.28925 419.0022 162.758Q418.5647 163.22675 418.26782 163.71112L425.28345 163.71112ZM428.0022 165.39862L428.0022 163.39862L430.0022 163.39862L430.0022 165.39862Q430.0022 166.508 429.61157 167.17987Q429.22095 167.86737 428.3772 168.22675L427.8772 167.47675Q428.4397 167.24237 428.70532 166.758Q428.97095 166.28925 429.0022 165.39862L428.0022 165.39862ZM433.3147 162.08612L435.0022 161.92987Q435.22095 163.11737 435.8147 163.66425Q436.42407 164.1955 437.3772 164.1955Q438.1897 164.1955 438.79907 163.83612Q439.40845 163.46112 439.79907 162.83612Q440.1897 162.21112 440.45532 161.16425Q440.72095 160.10175 440.72095 159.008Q440.72095 158.89862 440.70532 158.66425Q440.17407 159.49237 439.26782 160.02362Q438.36157 160.53925 437.28345 160.53925Q435.51782 160.53925 434.28345 159.258Q433.04907 157.96112 433.04907 155.85175Q433.04907 153.67987 434.33032 152.35175Q435.6272 151.02362 437.54907 151.02362Q438.95532 151.02362 440.11157 151.77362Q441.26782 152.52362 441.86157 153.91425Q442.47095 155.30487 442.47095 157.9455Q442.47095 160.6955 441.86157 162.3205Q441.26782 163.9455 440.09595 164.80487Q438.92407 165.64862 437.34595 165.64862Q435.65845 165.64862 434.59595 164.71112Q433.53345 163.77362 433.3147 162.08612ZM440.51782 155.77362Q440.51782 154.258 439.70532 153.36737Q438.90845 152.47675 437.76782 152.47675Q436.59595 152.47675 435.72095 153.4455Q434.86157 154.39862 434.86157 155.91425Q434.86157 157.28925 435.67407 158.14862Q436.5022 158.99237 437.72095 158.99237Q438.9397 158.99237 439.72095 158.14862Q440.51782 157.28925 440.51782 155.77362ZM444.3772 154.52362Q444.3772 152.99237 445.14282 151.91425Q445.92407 150.83612 447.39282 150.83612Q448.73657 150.83612 449.61157 151.80487Q450.5022 152.758 450.5022 154.633Q450.5022 156.4455 449.61157 157.42987Q448.72095 158.39862 447.40845 158.39862Q446.11157 158.39862 445.23657 157.4455Q444.3772 156.47675 444.3772 154.52362ZM447.4397 152.05487Q446.78345 152.05487 446.34595 152.61737Q445.92407 153.17987 445.92407 154.6955Q445.92407 156.0705 446.36157 156.633Q446.79907 157.1955 447.4397 157.1955Q448.11157 157.1955 448.53345 156.633Q448.97095 156.05487 448.97095 154.55487Q448.97095 153.16425 448.53345 152.61737Q448.09595 152.05487 447.4397 152.05487ZM447.45532 165.92987L455.28345 150.83612L456.70532 150.83612L448.90845 165.92987L447.45532 165.92987ZM453.64282 162.03925Q453.64282 160.49237 454.40845 159.42987Q455.1897 158.35175 456.65845 158.35175Q458.0022 158.35175 458.8772 159.3205Q459.76782 160.27362 459.76782 162.14862Q459.76782 163.96112 458.8772 164.9455Q457.98657 165.92987 456.67407 165.92987Q455.3772 165.92987 454.5022 164.96112Q453.64282 163.97675 453.64282 162.03925ZM456.70532 159.5705Q456.04907 159.5705 455.61157 160.133Q455.17407 160.6955 455.17407 162.21112Q455.17407 163.58612 455.61157 164.14862Q456.04907 164.71112 456.70532 164.71112Q457.3772 164.71112 457.79907 164.14862Q458.23657 163.58612 458.23657 162.0705Q458.23657 160.6955 457.79907 160.133Q457.36157 159.5705 456.70532 159.5705ZM463.6897 169.60175L462.4397 169.60175Q465.34595 164.91425 465.34595 160.22675Q465.34595 158.383 464.9397 156.58612Q464.59595 155.11737 464.0022 153.77362Q463.6272 152.883 462.4397 150.83612L463.6897 150.83612Q465.53345 153.28925 466.40845 155.758Q467.15845 157.883 467.15845 160.21112Q467.15845 162.85175 466.14282 165.3205Q465.14282 167.77362 463.6897 169.60175Z" fill-rule="nonzero"/><path fill="#000000" d="M200.31029 199.50243Q199.21654 199.09618 198.68529 198.3618Q198.16966 197.6118 198.16966 196.58055Q198.16966 195.01805 199.29466 193.95555Q200.41966 192.89305 202.27904 192.89305Q204.15404 192.89305 205.29466 193.9868Q206.43529 195.06493 206.43529 196.62743Q206.43529 197.62743 205.90404 198.3618Q205.38841 199.09618 204.32591 199.50243Q205.65404 199.93993 206.34154 200.89305Q207.02904 201.84618 207.02904 203.1743Q207.02904 205.01805 205.71654 206.26805Q204.41966 207.51805 202.31029 207.51805Q200.18529 207.51805 198.88841 206.26805Q197.59154 205.00243 197.59154 203.12743Q197.59154 201.7368 198.29466 200.7993Q199.01341 199.84618 200.31029 199.50243ZM199.96654 196.51805Q199.96654 197.53368 200.62279 198.18993Q201.27904 198.83055 202.31029 198.83055Q203.32591 198.83055 203.98216 198.18993Q204.63841 197.5493 204.63841 196.62743Q204.63841 195.65868 203.96654 195.00243Q203.29466 194.33055 202.29466 194.33055Q201.29466 194.33055 200.62279 194.9868Q199.96654 195.62743 199.96654 196.51805ZM199.40404 203.14305Q199.40404 203.89305 199.74779 204.59618Q200.10716 205.2993 200.81029 205.68993Q201.51341 206.06493 202.32591 206.06493Q203.59154 206.06493 204.40404 205.25243Q205.23216 204.43993 205.23216 203.18993Q205.23216 201.9243 204.38841 201.09618Q203.54466 200.26805 202.26341 200.26805Q201.02904 200.26805 200.21654 201.09618Q199.40404 201.90868 199.40404 203.14305ZM218.45091 211.47118Q216.99779 209.64305 215.99779 207.18993Q214.99779 204.72118 214.99779 202.08055Q214.99779 199.75243 215.74779 197.62743Q216.62279 195.15868 218.45091 192.70555L219.71654 192.70555Q218.52904 194.7368 218.15404 195.6118Q217.56029 196.95555 217.21654 198.4243Q216.79466 200.25243 216.79466 202.09618Q216.79466 206.78368 219.71654 211.47118L218.45091 211.47118ZM221.60716 203.51805L223.45091 203.3618Q223.65404 204.70555 224.40404 205.39305Q225.15404 206.06493 226.21654 206.06493Q227.48216 206.06493 228.35716 205.1118Q229.23216 204.15868 229.23216 202.56493Q229.23216 201.06493 228.38841 200.20555Q227.54466 199.33055 226.18529 199.33055Q225.32591 199.33055 224.63841 199.72118Q223.96654 200.09618 223.57591 200.72118L221.91966 200.50243L223.31029 193.14305L230.43529 193.14305L230.43529 194.83055L224.71654 194.83055L223.95091 198.6743Q225.23216 197.76805 226.65404 197.76805Q228.52904 197.76805 229.81029 199.08055Q231.10716 200.37743 231.10716 202.40868Q231.10716 204.3618 229.96654 205.76805Q228.59154 207.51805 226.21654 207.51805Q224.26341 207.51805 223.01341 206.4243Q221.77904 205.33055 221.60716 203.51805ZM232.73216 194.83055L232.73216 193.14305L241.99779 193.14305L241.99779 194.50243Q240.62279 195.95555 239.27904 198.37743Q237.93529 200.78368 237.21654 203.33055Q236.68529 205.12743 236.52904 207.26805L234.73216 207.26805Q234.76341 205.58055 235.38841 203.18993Q236.02904 200.7993 237.21654 198.58055Q238.40404 196.34618 239.73216 194.83055L232.73216 194.83055ZM244.56029 207.26805L244.56029 205.26805L246.56029 205.26805L246.56029 207.26805Q246.56029 208.37743 246.16966 209.0493Q245.77904 209.7368 244.93529 210.09618L244.43529 209.34618Q244.99779 209.1118 245.26341 208.62743Q245.52904 208.15868 245.56029 207.26805L244.56029 207.26805ZM256.23218 207.26805L254.46654 207.26805L254.46654 196.06493Q253.84154 196.6743 252.81029 197.28368Q251.77904 197.87743 250.95091 198.18993L250.95091 196.4868Q252.43529 195.7993 253.52904 194.81493Q254.63841 193.81493 255.09154 192.89305L256.23218 192.89305L256.23218 207.26805ZM260.9353 196.39305Q260.9353 194.8618 261.70093 193.78368Q262.48218 192.70555 263.95093 192.70555Q265.29468 192.70555 266.16968 193.6743Q267.0603 194.62743 267.0603 196.50243Q267.0603 198.31493 266.16968 199.2993Q265.27905 200.26805 263.96655 200.26805Q262.66968 200.26805 261.79468 199.31493Q260.9353 198.34618 260.9353 196.39305ZM263.9978 193.9243Q263.34155 193.9243 262.90405 194.4868Q262.48218 195.0493 262.48218 196.56493Q262.48218 197.93993 262.91968 198.50243Q263.35718 199.06493 263.9978 199.06493Q264.66968 199.06493 265.09155 198.50243Q265.52905 197.9243 265.52905 196.4243Q265.52905 195.03368 265.09155 194.4868Q264.65405 193.9243 263.9978 193.9243ZM264.01343 207.7993L271.84155 192.70555L273.26343 192.70555L265.46655 207.7993L264.01343 207.7993ZM270.20093 203.90868Q270.20093 202.3618 270.96655 201.2993Q271.7478 200.22118 273.21655 200.22118Q274.5603 200.22118 275.4353 201.18993Q276.32593 202.14305 276.32593 204.01805Q276.32593 205.83055 275.4353 206.81493Q274.54468 207.7993 273.23218 207.7993Q271.9353 207.7993 271.0603 206.83055Q270.20093 205.84618 270.20093 203.90868ZM273.26343 201.43993Q272.60718 201.43993 272.16968 202.00243Q271.73218 202.56493 271.73218 204.08055Q271.73218 205.45555 272.16968 206.01805Q272.60718 206.58055 273.26343 206.58055Q273.9353 206.58055 274.35718 206.01805Q274.79468 205.45555 274.79468 203.93993Q274.79468 202.56493 274.35718 202.00243Q273.91968 201.43993 273.26343 201.43993ZM280.2478 211.47118L278.9978 211.47118Q281.90405 206.78368 281.90405 202.09618Q281.90405 200.25243 281.4978 198.45555Q281.15405 196.9868 280.5603 195.64305Q280.1853 194.75243 278.9978 192.70555L280.2478 192.70555Q282.09155 195.15868 282.96655 197.62743Q283.71655 199.75243 283.71655 202.08055Q283.71655 204.72118 282.70093 207.18993Q281.70093 209.64305 280.2478 211.47118Z" fill-rule="nonzero"/><path fill="#4285f4" d="M276.5 366.0C276.5 369.31372 273.81372 372.0 270.5 372.0C267.18628 372.0 264.5 369.31372 264.5 366.0C264.5 362.68628 267.18628 360.0 270.5 360.0C273.81372 360.0 276.5 362.68628 276.5 366.0Z" fill-rule="nonzero"/><path fill="#1a1a1a" d="M285.65625 365.625Q285.65625 361.35938 287.95312 358.9375Q290.25 356.51562 293.89062 356.51562Q296.26562 356.51562 298.17188 357.65625Q300.09375 358.78125 301.09375 360.82812Q302.09375 362.85938 302.09375 365.4375Q302.09375 368.04688 301.03125 370.10938Q299.98438 372.17188 298.04688 373.23438Q296.10938 374.29688 293.875 374.29688Q291.45312 374.29688 289.53125 373.125Q287.625 371.95312 286.64062 369.92188Q285.65625 367.89062 285.65625 365.625ZM288.0 365.67188Q288.0 368.76562 289.67188 370.5625Q291.34375 372.34375 293.85938 372.34375Q296.4375 372.34375 298.09375 370.54688Q299.75 368.73438 299.75 365.42188Q299.75 363.32812 299.03125 361.76562Q298.32812 360.1875 296.95312 359.32812Q295.59375 358.46875 293.90625 358.46875Q291.48438 358.46875 289.73438 360.125Q288.0 361.78125 288.0 365.67188ZM313.23438 374.0L313.23438 372.17188Q311.78125 374.28125 309.29688 374.28125Q308.1875 374.28125 307.23438 373.85938Q306.28125 373.4375 305.8125 372.79688Q305.35938 372.15625 305.17188 371.23438Q305.03125 370.60938 305.03125 369.26562L305.03125 361.54688L307.14062 361.54688L307.14062 368.45312Q307.14062 370.10938 307.28125 370.6875Q307.46875 371.51562 308.10938 372.0Q308.76562 372.46875 309.71875 372.46875Q310.65625 372.46875 311.48438 371.98438Q312.32812 371.48438 312.67188 370.65625Q313.01562 369.8125 313.01562 368.21875L313.01562 361.54688L315.125 361.54688L315.125 374.0L313.23438 374.0ZM318.09375 359.25L318.09375 356.8125L320.20312 356.8125L320.20312 359.25L318.09375 359.25ZM318.09375 374.0L318.09375 361.54688L320.20312 361.54688L320.20312 374.0L318.09375 374.0Z" fill-rule="nonzero"/><path fill="#ea4335" d="M349.5 366.0C349.5 369.31372 346.81372 372.0 343.5 372.0C340.18628 372.0 337.5 369.31372 337.5 366.0C337.5 362.68628 340.18628 360.0 343.5 360.0C346.81372 360.0 349.5 362.68628 349.5 366.0Z" fill-rule="nonzero"/><path fill="#1a1a1a" d="M359.32812 374.0L359.32812 356.8125L361.65625 356.8125L370.6875 370.3125L370.6875 356.8125L372.85938 356.8125L372.85938 374.0L370.53125 374.0L361.51562 360.5L361.51562 374.0L359.32812 374.0ZM375.29688 367.78125Q375.29688 364.3125 377.21875 362.65625Q378.82812 361.26562 381.14062 361.26562Q383.70312 361.26562 385.32812 362.95312Q386.95312 364.64062 386.95312 367.59375Q386.95312 370.0 386.23438 371.375Q385.51562 372.75 384.14062 373.51562Q382.76562 374.28125 381.14062 374.28125Q378.51562 374.28125 376.90625 372.60938Q375.29688 370.92188 375.29688 367.78125ZM377.46875 367.78125Q377.46875 370.17188 378.5 371.35938Q379.54688 372.54688 381.14062 372.54688Q382.70312 372.54688 383.75 371.35938Q384.79688 370.15625 384.79688 367.70312Q384.79688 365.39062 383.73438 364.20312Q382.6875 363.01562 381.14062 363.01562Q379.54688 363.01562 378.5 364.20312Q377.46875 365.39062 377.46875 367.78125ZM389.07812 374.0L389.07812 361.54688L390.98438 361.54688L390.98438 363.32812Q392.35938 361.26562 394.9375 361.26562Q396.0625 361.26562 397.0 361.67188Q397.95312 362.07812 398.42188 362.73438Q398.89062 363.39062 399.07812 364.29688Q399.20312 364.875 399.20312 366.34375L399.20312 374.0L397.09375 374.0L397.09375 366.42188Q397.09375 365.14062 396.84375 364.5Q396.59375 363.85938 395.96875 363.48438Q395.34375 363.09375 394.5 363.09375Q393.15625 363.09375 392.17188 363.95312Q391.1875 364.8125 391.1875 367.20312L391.1875 374.0L389.07812 374.0Z" fill-rule="nonzero"/></svg>