<svg width="418" height="646" xmlns="http://www.w3.org/2000/svg" xmlns:xlink="http://www.w3.org/1999/xlink" overflow="hidden"><defs><clipPath id="clip0"><rect x="440" y="38" width="418" height="646"/></clipPath></defs><g clip-path="url(#clip0)" transform="translate(-440 -38)"><rect x="441.5" y="40.5001" width="416" height="642" stroke="#000000" stroke-width="1.33333" stroke-miterlimit="8" fill="#FFFFFF"/><rect x="461.5" y="163.5" width="378" height="86" stroke="#000000" stroke-width="1.33333" stroke-miterlimit="8" fill="#FFFFFF"/><text font-family="Roboto,Roboto_MSFontService,sans-serif" font-weight="400" font-size="32" transform="translate(563.254 216)">Introduction</text><rect x="461.5" y="266.5" width="378" height="85" stroke="#000000" stroke-width="1.33333" stroke-miterlimit="8" fill="#FFFFFF"/><text font-family="Roboto,Roboto_MSFontService,sans-serif" font-weight="400" font-size="32" transform="translate(578.17 319)">Méthodes</text><rect x="461.5" y="368.5" width="378" height="86" stroke="#000000" stroke-width="1.33333" stroke-miterlimit="8" fill="#FFFFFF"/><text font-family="Roboto,Roboto_MSFontService,sans-serif" font-weight="400" font-size="32" transform="translate(582.921 422)">Résultats</text><rect x="461.5" y="471.5" width="378" height="86" stroke="#000000" stroke-width="1.33333" stroke-miterlimit="8" fill="#FFFFFF"/><text font-family="Roboto,Roboto_MSFontService,sans-serif" font-weight="400" font-size="32" transform="translate(571.337 525)">Discussion</text><rect x="461.5" y="574.5" width="378" height="86" stroke="#000000" stroke-width="1.33333" stroke-miterlimit="8" fill="#FFFFFF"/><text font-family="Roboto,Roboto_MSFontService,sans-serif" font-weight="400" font-size="32" transform="translate(569.921 628)">Conclusion</text><rect x="461.5" y="60.5001" width="378" height="86" stroke="#000000" stroke-width="1.33333" stroke-miterlimit="8" fill="#FFFFFF"/><text font-family="Roboto,Roboto_MSFontService,sans-serif" font-weight="400" font-size="32" transform="translate(589.004 114)">Abstrac<tspan x="110.833" y="0">t</tspan></text><path d="M476.5 91.9019 492.902 75.5001 516.098 75.5001 532.5 91.9019 532.5 115.098 516.098 131.5 492.902 131.5 476.5 115.098Z" stroke="#000000" stroke-width="1.33333" stroke-miterlimit="8" fill="#C00000" fill-rule="evenodd"/><text fill="#FFFFFF" font-family="Roboto,Roboto_MSFontService,sans-serif" font-weight="400" font-size="32" transform="translate(494.943 114)">1</text><path d="M476.5 193.902 492.902 177.5 516.098 177.5 532.5 193.902 532.5 218.098 516.098 234.5 492.902 234.5 476.5 218.098Z" stroke="#000000" stroke-width="1.33333" stroke-miterlimit="8" fill="#C00000" fill-rule="evenodd"/><text fill="#FFFFFF" font-family="Roboto,Roboto_MSFontService,sans-serif" font-weight="400" font-size="32" transform="translate(494.943 216)">2</text><path d="M476.5 605.902 492.902 589.5 516.098 589.5 532.5 605.902 532.5 629.098 516.098 645.5 492.902 645.5 476.5 629.098Z" stroke="#000000" stroke-width="1.33333" stroke-miterlimit="8" fill="#C00000" fill-rule="evenodd"/><text fill="#FFFFFF" font-family="Roboto,Roboto_MSFontService,sans-serif" font-weight="400" font-size="32" transform="translate(494.943 628)">3</text><path d="M476.5 502.902 492.902 486.5 516.098 486.5 532.5 502.902 532.5 527.098 516.098 543.5 492.902 543.5 476.5 527.098Z" stroke="#000000" stroke-width="1.33333" stroke-miterlimit="8" fill="#C00000" fill-rule="evenodd"/><text fill="#FFFFFF" font-family="Roboto,Roboto_MSFontService,sans-serif" font-weight="400" font-size="32" transform="translate(494.943 525)">4</text><path d="M476.5 399.902 492.902 383.5 516.098 383.5 532.5 399.902 532.5 424.098 516.098 440.5 492.902 440.5 476.5 424.098Z" stroke="#000000" stroke-width="1.33333" stroke-miterlimit="8" fill="#C00000" fill-rule="evenodd"/><text fill="#FFFFFF" font-family="Roboto,Roboto_MSFontService,sans-serif" font-weight="400" font-size="32" transform="translate(494.943 422)">5</text><path d="M476.5 296.902 492.902 280.5 516.098 280.5 532.5 296.902 532.5 321.098 516.098 337.5 492.902 337.5 476.5 321.098Z" stroke="#000000" stroke-width="1.33333" stroke-miterlimit="8" fill="#C00000" fill-rule="evenodd"/><text fill="#FFFFFF" font-family="Roboto,Roboto_MSFontService,sans-serif" font-weight="400" font-size="32" transform="translate(494.943 319)">6</text></g></svg>