<svg width="578" height="572" xmlns="http://www.w3.org/2000/svg" xmlns:xlink="http://www.w3.org/1999/xlink" overflow="hidden"><defs><clipPath id="clip0"><rect x="213" y="74" width="578" height="572"/></clipPath></defs><g clip-path="url(#clip0)" transform="translate(-213 -74)"><path d="M239.5 89.6001C239.5 82.3651 245.365 76.5001 252.6 76.5001L445.4 76.5001C452.635 76.5001 458.5 82.3651 458.5 89.6001L458.5 194.4C458.5 201.635 452.635 207.5 445.4 207.5L252.6 207.5C245.365 207.5 239.5 201.635 239.5 194.4Z" stroke="#FFFFFF" stroke-width="1.33333" stroke-miterlimit="8" fill="#5B9BD5" fill-rule="evenodd"/><text fill="#FFFFFF" font-family="Calibri,Calibri_MSFontService,sans-serif" font-weight="400" font-size="37" transform="translate(285.452 152)">Abstract</text><path d="M477 124.8 500.5 124.8 500.5 114 524 141 500.5 168 500.5 157.2 477 157.2Z" fill="#5B9BD5" fill-rule="evenodd"/><path d="M545.5 89.6001C545.5 82.3651 551.365 76.5001 558.6 76.5001L751.4 76.5001C758.635 76.5001 764.5 82.3651 764.5 89.6001L764.5 194.4C764.5 201.635 758.635 207.5 751.4 207.5L558.6 207.5C551.365 207.5 545.5 201.635 545.5 194.4Z" stroke="#FFFFFF" stroke-width="1.33333" stroke-miterlimit="8" fill="#55C3CF" fill-rule="evenodd"/><text fill="#FFFFFF" font-family="Calibri,Calibri_MSFontService,sans-serif" font-weight="400" font-size="37" transform="translate(560.496 152)">Introduction</text><path d="M671.2 226 671.2 249 682 249 655 272 628 249 638.8 249 638.8 226Z" fill="#54CCCD" fill-rule="evenodd"/><path d="M545.5 307.7C545.5 300.41 551.41 294.5 558.7 294.5L751.3 294.5C758.59 294.5 764.5 300.41 764.5 307.7L764.5 413.3C764.5 420.59 758.59 426.5 751.3 426.5L558.7 426.5C551.41 426.5 545.5 420.59 545.5 413.3Z" stroke="#FFFFFF" stroke-width="1.33333" stroke-miterlimit="8" fill="#50C8A7" fill-rule="evenodd"/><text fill="#FFFFFF" font-family="Calibri,Calibri_MSFontService,sans-serif" font-weight="400" font-size="37" transform="translate(572.01 370)">Conclusion</text><path d="M526 376.2 503 376.2 503 387 480 360 503 333 503 343.8 526 343.8Z" fill="#4DC58D" fill-rule="evenodd"/><path d="M239.5 307.7C239.5 300.41 245.41 294.5 252.7 294.5L445.3 294.5C452.59 294.5 458.5 300.41 458.5 307.7L458.5 413.3C458.5 420.59 452.59 426.5 445.3 426.5L252.7 426.5C245.41 426.5 239.5 420.59 239.5 413.3Z" stroke="#FFFFFF" stroke-width="1.33333" stroke-miterlimit="8" fill="#4BC174" fill-rule="evenodd"/><text fill="#FFFFFF" font-family="Calibri,Calibri_MSFontService,sans-serif" font-weight="400" font-size="37" transform="translate(269.222 370)">Discussion</text><path d="M365 445 365 468 376 468 348.5 491 321 468 332 468 332 445Z" fill="#48BB4F" fill-rule="evenodd"/><path d="M239.5 526.6C239.5 519.365 245.365 513.5 252.6 513.5L445.4 513.5C452.635 513.5 458.5 519.365 458.5 526.6L458.5 631.4C458.5 638.635 452.635 644.5 445.4 644.5L252.6 644.5C245.365 644.5 239.5 638.635 239.5 631.4Z" stroke="#FFFFFF" stroke-width="1.33333" stroke-miterlimit="8" fill="#4ABA46" fill-rule="evenodd"/><text fill="#FFFFFF" font-family="Calibri,Calibri_MSFontService,sans-serif" font-weight="400" font-size="37" transform="translate(279.689 589)">Résultats</text><path d="M477 562.8 500.5 562.8 500.5 552 524 579 500.5 606 500.5 595.2 477 595.2Z" fill="#70AD47" fill-rule="evenodd"/><path d="M545.5 526.6C545.5 519.365 551.365 513.5 558.6 513.5L751.4 513.5C758.635 513.5 764.5 519.365 764.5 526.6L764.5 631.4C764.5 638.635 758.635 644.5 751.4 644.5L558.6 644.5C551.365 644.5 545.5 638.635 545.5 631.4Z" stroke="#FFFFFF" stroke-width="1.33333" stroke-miterlimit="8" fill="#70AD47" fill-rule="evenodd"/><text fill="#FFFFFF" font-family="Calibri,Calibri_MSFontService,sans-serif" font-weight="400" font-size="37" transform="translate(577.386 589)">Méthodes</text></g></svg>