<svg width="574" height="475" xmlns="http://www.w3.org/2000/svg" xmlns:xlink="http://www.w3.org/1999/xlink" overflow="hidden"><defs><clipPath id="clip0"><rect x="542" y="124" width="574" height="475"/></clipPath><clipPath id="clip1"><rect x="1032" y="151" width="68" height="69"/></clipPath><clipPath id="clip2"><rect x="1032" y="151" width="68" height="69"/></clipPath><clipPath id="clip3"><rect x="1032" y="151" width="68" height="69"/></clipPath><clipPath id="clip4"><rect x="558" y="151" width="68" height="69"/></clipPath><clipPath id="clip5"><rect x="558" y="151" width="68" height="69"/></clipPath><clipPath id="clip6"><rect x="558" y="151" width="68" height="69"/></clipPath><clipPath id="clip7"><rect x="558" y="267" width="68" height="68"/></clipPath><clipPath id="clip8"><rect x="558" y="267" width="68" height="68"/></clipPath><clipPath id="clip9"><rect x="558" y="267" width="68" height="68"/></clipPath><clipPath id="clip10"><rect x="1032" y="267" width="68" height="68"/></clipPath><clipPath id="clip11"><rect x="1032" y="267" width="68" height="68"/></clipPath><clipPath id="clip12"><rect x="1032" y="267" width="68" height="68"/></clipPath><clipPath id="clip13"><rect x="558" y="382" width="68" height="68"/></clipPath><clipPath id="clip14"><rect x="558" y="382" width="68" height="68"/></clipPath><clipPath id="clip15"><rect x="558" y="382" width="68" height="68"/></clipPath><clipPath id="clip16"><rect x="1033" y="382" width="68" height="68"/></clipPath><clipPath id="clip17"><rect x="1033" y="382" width="68" height="68"/></clipPath><clipPath id="clip18"><rect x="1033" y="382" width="68" height="68"/></clipPath><clipPath id="clip19"><rect x="1032" y="497" width="68" height="68"/></clipPath><clipPath id="clip20"><rect x="1032" y="497" width="68" height="68"/></clipPath><clipPath id="clip21"><rect x="1032" y="497" width="68" height="68"/></clipPath><clipPath id="clip22"><rect x="558" y="498" width="68" height="68"/></clipPath><clipPath id="clip23"><rect x="558" y="498" width="68" height="68"/></clipPath><clipPath id="clip24"><rect x="558" y="498" width="68" height="68"/></clipPath></defs><g clip-path="url(#clip0)" transform="translate(-542 -124)"><rect x="926" y="167" width="92" height="56" fill="#00897B"/><path d="M544.5 163.5C544.5 154.664 551.664 147.5 560.5 147.5L624.5 147.5C633.336 147.5 640.5 154.664 640.5 163.5L640.5 227.5C640.5 236.336 633.336 243.5 624.5 243.5L560.5 243.5C551.664 243.5 544.5 236.336 544.5 227.5Z" stroke="#000000" stroke-width="3" stroke-miterlimit="8" fill="#F44336" fill-rule="evenodd"/><path d="M544.5 223.5 640.5 223.5 640.5 227.218C640.5 236.21 633.336 243.5 624.5 243.5L560.5 243.5C551.664 243.5 544.5 236.21 544.5 227.218Z" stroke="#000000" stroke-width="1.33333" stroke-miterlimit="8" fill-rule="evenodd"/><text fill="#FFFFFF" font-family="Roboto,Roboto_MSFontService,sans-serif" font-weight="400" font-size="15" transform="translate(563.583 238)">ÉGALITÉ</text><rect x="640" y="167" width="286" height="56" fill="#F44336"/><rect x="640.5" y="167.5" width="378" height="56" stroke="#000000" stroke-width="3" stroke-miterlimit="8" fill="none"/><path d="M1018.5 164.5C1018.5 155.664 1025.66 148.5 1034.5 148.5L1098.5 148.5C1107.34 148.5 1114.5 155.664 1114.5 164.5L1114.5 228.5C1114.5 237.336 1107.34 244.5 1098.5 244.5L1034.5 244.5C1025.66 244.5 1018.5 237.336 1018.5 228.5Z" stroke="#000000" stroke-width="3" stroke-miterlimit="8" fill="#00897B" fill-rule="evenodd"/><path d="M1018.5 224.5 1114.5 224.5 1114.5 228.218C1114.5 237.21 1107.34 244.5 1098.5 244.5L1034.5 244.5C1025.66 244.5 1018.5 237.21 1018.5 228.218Z" stroke="#000000" stroke-width="1.33333" stroke-miterlimit="8" fill-rule="evenodd"/><text fill="#FFFFFF" font-family="Roboto,Roboto_MSFontService,sans-serif" font-weight="400" font-size="15" transform="translate(1031.79 239)">MARCHÉS<tspan fill="#000000" font-size="24" x="-314.56" y="-84">É</tspan><tspan fill="#000000" font-size="19" x="-300.893" y="-84">CONOMIE</tspan><tspan fill="#000000" font-size="24" x="-209.56" y="-84">: S</tspan><tspan fill="#000000" font-size="19" x="-183.56" y="-84">OCIALISTE</tspan></text><rect x="762" y="281" width="256" height="57" fill="#03A9F4"/><path d="M544.5 277.5C544.5 268.664 551.664 261.5 560.5 261.5L624.5 261.5C633.336 261.5 640.5 268.664 640.5 277.5L640.5 341.5C640.5 350.336 633.336 357.5 624.5 357.5L560.5 357.5C551.664 357.5 544.5 350.336 544.5 341.5Z" stroke="#000000" stroke-width="3" stroke-miterlimit="8" fill="#FF9800" fill-rule="evenodd"/><path d="M544.5 338.5 640.5 338.5 640.5 342.032C640.5 350.575 633.336 357.5 624.5 357.5L560.5 357.5C551.664 357.5 544.5 350.575 544.5 342.032Z" stroke="#000000" stroke-width="1.33333" stroke-miterlimit="8" fill-rule="evenodd"/><text fill="#FFFFFF" font-family="Roboto,Roboto_MSFontService,sans-serif" font-weight="400" font-size="15" transform="translate(565.25 353)">NATION</text><rect x="640" y="281" width="122" height="57" fill="#FF9800"/><rect x="640.5" y="281.5" width="378" height="57" stroke="#000000" stroke-width="3" stroke-miterlimit="8" fill="none"/><path d="M1018.5 279.5C1018.5 270.664 1025.66 263.5 1034.5 263.5L1098.5 263.5C1107.34 263.5 1114.5 270.664 1114.5 279.5L1114.5 343.5C1114.5 352.336 1107.34 359.5 1098.5 359.5L1034.5 359.5C1025.66 359.5 1018.5 352.336 1018.5 343.5Z" stroke="#000000" stroke-width="3" stroke-miterlimit="8" fill="#03A9F4" fill-rule="evenodd"/><path d="M1018.5 339.5 1114.5 339.5 1114.5 343.218C1114.5 352.21 1107.34 359.5 1098.5 359.5L1034.5 359.5C1025.66 359.5 1018.5 352.21 1018.5 343.218Z" stroke="#000000" stroke-width="1.33333" stroke-miterlimit="8" fill-rule="evenodd"/><text fill="#FFFFFF" font-family="Roboto,Roboto_MSFontService,sans-serif" font-weight="400" font-size="15" transform="translate(1040.2 354)">MONDE<tspan fill="#000000" font-size="24" x="-324.608" y="-83">D</tspan><tspan fill="#000000" font-size="19" x="-308.941" y="-83">IPLOMATIE</tspan><tspan fill="#000000" font-size="24" x="-205.275" y="-83">: P</tspan><tspan fill="#000000" font-size="19" x="-178.275" y="-83">ACIFISTE</tspan></text><rect x="860" y="397" width="158" height="56" fill="#3F51B5"/><path d="M544.5 393.5C544.5 384.664 551.664 377.5 560.5 377.5L624.5 377.5C633.336 377.5 640.5 384.664 640.5 393.5L640.5 457.5C640.5 466.336 633.336 473.5 624.5 473.5L560.5 473.5C551.664 473.5 544.5 466.336 544.5 457.5Z" stroke="#000000" stroke-width="3" stroke-miterlimit="8" fill="#FFEB3B" fill-rule="evenodd"/><path d="M544.5 453.5 640.5 453.5 640.5 457.218C640.5 466.21 633.336 473.5 624.5 473.5L560.5 473.5C551.664 473.5 544.5 466.21 544.5 457.218Z" stroke="#000000" stroke-width="1.33333" stroke-miterlimit="8" fill-rule="evenodd"/><text fill="#FFFFFF" font-family="Roboto,Roboto_MSFontService,sans-serif" font-weight="400" font-size="15" transform="translate(564.25 469)">LIBERTÉ</text><rect x="640" y="397" width="220" height="56" fill="#FFEB3B"/><rect x="640.5" y="397.5" width="378" height="56" stroke="#000000" stroke-width="3" stroke-miterlimit="8" fill="none"/><path d="M1018.5 394.5C1018.5 385.664 1025.66 378.5 1034.5 378.5L1098.5 378.5C1107.34 378.5 1114.5 385.664 1114.5 394.5L1114.5 458.5C1114.5 467.336 1107.34 474.5 1098.5 474.5L1034.5 474.5C1025.66 474.5 1018.5 467.336 1018.5 458.5Z" stroke="#000000" stroke-width="3" stroke-miterlimit="8" fill="#3F51B5" fill-rule="evenodd"/><path d="M1018.5 455.5 1114.5 455.5 1114.5 459.032C1114.5 467.575 1107.34 474.5 1098.5 474.5L1034.5 474.5C1025.66 474.5 1018.5 467.575 1018.5 459.032Z" stroke="#000000" stroke-width="1.33333" stroke-miterlimit="8" fill-rule="evenodd"/><text fill="#FFFFFF" font-family="Roboto,Roboto_MSFontService,sans-serif" font-weight="400" font-size="15" transform="translate(1031.87 470)">AUTORITÉ<tspan fill="#000000" font-size="24" x="-331.599" y="-84">L</tspan><tspan fill="#000000" font-size="19" x="-318.766" y="-84">IBERTÉS</tspan><tspan fill="#000000" font-size="19" x="-239.266" y="-84">CIVILES</tspan><tspan fill="#000000" font-size="24" x="-165.766" y="-84">: M</tspan><tspan fill="#000000" font-size="19" x="-132.933" y="-84">ODÉRÉ</tspan></text><rect x="744" y="512" width="274" height="57" fill="#9C27B0"/><path d="M544.5 509.5C544.5 500.664 551.664 493.5 560.5 493.5L624.5 493.5C633.336 493.5 640.5 500.664 640.5 509.5L640.5 573.5C640.5 582.336 633.336 589.5 624.5 589.5L560.5 589.5C551.664 589.5 544.5 582.336 544.5 573.5Z" stroke="#000000" stroke-width="3" stroke-miterlimit="8" fill="#8BC34A" fill-rule="evenodd"/><path d="M544.5 569.5 640.5 569.5 640.5 573.218C640.5 582.21 633.336 589.5 624.5 589.5L560.5 589.5C551.664 589.5 544.5 582.21 544.5 573.218Z" stroke="#000000" stroke-width="1.33333" stroke-miterlimit="8" fill-rule="evenodd"/><text fill="#FFFFFF" font-family="Roboto,Roboto_MSFontService,sans-serif" font-weight="400" font-size="15" transform="translate(554.75 584)">TRADITION</text><rect x="640" y="512" width="104" height="57" fill="#8BC34A"/><rect x="640.5" y="512.5" width="378" height="57" stroke="#000000" stroke-width="3" stroke-miterlimit="8" fill="none"/><path d="M1018.5 510.5C1018.5 501.664 1025.66 494.5 1034.5 494.5L1098.5 494.5C1107.34 494.5 1114.5 501.664 1114.5 510.5L1114.5 574.5C1114.5 583.336 1107.34 590.5 1098.5 590.5L1034.5 590.5C1025.66 590.5 1018.5 583.336 1018.5 574.5Z" stroke="#000000" stroke-width="3" stroke-miterlimit="8" fill="#9C27B0" fill-rule="evenodd"/><path d="M1018.5 570.5 1114.5 570.5 1114.5 574.218C1114.5 583.21 1107.34 590.5 1098.5 590.5L1034.5 590.5C1025.66 590.5 1018.5 583.21 1018.5 574.218Z" stroke="#000000" stroke-width="1.33333" stroke-miterlimit="8" fill-rule="evenodd"/><text fill="#FFFFFF" font-family="Roboto,Roboto_MSFontService,sans-serif" font-weight="400" font-size="15" transform="translate(1033.7 585)">PROGRÈS<tspan fill="#000000" font-size="24" x="-327.099" y="-84">S</tspan><tspan fill="#000000" font-size="19" x="-312.933" y="-84">OCIÉTAL</tspan><tspan fill="#000000" font-size="24" x="-230.933" y="-84">: P</tspan><tspan fill="#000000" font-size="19" x="-203.933" y="-84">ROGRESSISTE</tspan><tspan fill="#000000" font-size="21" x="-384.103" y="-383">75,6%</tspan><tspan fill="#000000" font-size="21" x="-384.103" y="-268">32,2%</tspan><tspan fill="#000000" font-size="21" x="-383.302" y="-152">58,3%</tspan><tspan fill="#000000" font-size="21" x="-383.149" y="-37">27,5%</tspan><tspan fill="#000000" font-size="21" x="-80.6599" y="-382">24,4%</tspan><tspan fill="#000000" font-size="21" x="-81.2545" y="-268">67,8%</tspan><tspan fill="#000000" font-size="21" x="-81.2192" y="-152">41,7%</tspan><tspan fill="#000000" font-size="21" x="-80.9776" y="-36">72,5%</tspan></text><g clip-path="url(#clip1)"><g clip-path="url(#clip2)"><g clip-path="url(#clip3)"><path d="M24.4375 48.875 28.6875 48.875 28.6875 64.8125 24.4375 64.8125Z" transform="matrix(1 0 0 1.01471 1032 151)"/><path d="M30.8125 64.8125 35.0625 64.8125 35.0625 42.5 30.8125 48.1663Z" transform="matrix(1 0 0 1.01471 1032 151)"/><path d="M37.1875 40.375 41.4375 40.375 41.4375 64.8125 37.1875 64.8125Z" transform="matrix(1 0 0 1.01471 1032 151)"/><path d="M9.5625 64.8125 9.5625 57.9264 3.53706 64.8125Z" transform="matrix(1 0 0 1.01471 1032 151)"/><path d="M11.6875 64.8125 15.9375 64.8125 15.9375 50.6409 11.6875 55.4976Z" transform="matrix(1 0 0 1.01471 1032 151)"/><path d="M18.0625 48.875 22.3125 48.875 22.3125 64.8125 18.0625 64.8125Z" transform="matrix(1 0 0 1.01471 1032 151)"/><path d="M43.5625 40.375 43.5625 64.8125 47.8125 64.8125 47.8125 38.6899 46.1274 40.375Z" transform="matrix(1 0 0 1.01471 1032 151)"/><path d="M51 7.4375C45.7268 7.4375 41.4375 11.7268 41.4375 17 41.4375 22.2732 45.7268 26.5625 51 26.5625 56.2732 26.5625 60.5625 22.2732 60.5625 17 60.5625 11.7268 56.2732 7.4375 51 7.4375ZM55.25 14.875 53.125 14.875 53.125 13.8125 49.9375 13.8125C49.351 13.8125 48.875 14.2885 48.875 14.875 48.875 15.4615 49.351 15.9375 49.9375 15.9375L52.0625 15.9375C53.8199 15.9375 55.25 17.3676 55.25 19.125 55.25 20.8824 53.8199 22.3125 52.0625 22.3125L52.0625 24.4375 49.9375 24.4375 49.9375 22.3125 46.75 22.3125 46.75 19.125 48.875 19.125 48.875 20.1875 52.0625 20.1875C52.649 20.1875 53.125 19.7115 53.125 19.125 53.125 18.5385 52.649 18.0625 52.0625 18.0625L49.9375 18.0625C48.1801 18.0625 46.75 16.6324 46.75 14.875 46.75 13.1176 48.1801 11.6875 49.9375 11.6875L49.9375 9.5625 52.0625 9.5625 52.0625 11.6875 55.25 11.6875Z" transform="matrix(1 0 0 1.01471 1032 151)"/><path d="M49.9375 36.5649 49.9375 64.8125 54.1875 64.8125 54.1875 32.6166C54.0706 32.64 53.9495 32.6496 53.8316 32.6708Z" transform="matrix(1 0 0 1.01471 1032 151)"/><path d="M51 3.1875C43.384 3.1875 37.1875 9.384 37.1875 17 37.1875 24.616 43.384 30.8125 51 30.8125 58.616 30.8125 64.8125 24.616 64.8125 17 64.8125 9.384 58.616 3.1875 51 3.1875ZM51 28.6875C44.5559 28.6875 39.3125 23.4441 39.3125 17 39.3125 10.5559 44.5559 5.3125 51 5.3125 57.4441 5.3125 62.6875 10.5559 62.6875 17 62.6875 23.4441 57.4441 28.6875 51 28.6875Z" transform="matrix(1 0 0 1.01471 1032 151)"/><path d="M56.3125 64.8125 60.5625 64.8125 60.5625 29.7202C59.2811 30.6861 57.8521 31.4617 56.3125 32.0078Z" transform="matrix(1 0 0 1.01471 1032 151)"/><path d="M7.4375 40.375 9.5625 40.375 9.5625 36.125 11.6875 36.125 11.6875 23.375 9.5625 23.375 9.5625 19.125 7.4375 19.125 7.4375 23.375 5.3125 23.375 5.3125 36.125 7.4375 36.125Z" transform="matrix(1 0 0 1.01471 1032 151)"/><path d="M15.9375 35.0625 18.0625 35.0625 18.0625 30.8125 20.1875 30.8125 20.1875 20.1875 18.0625 20.1875 18.0625 15.9375 15.9375 15.9375 15.9375 20.1875 13.8125 20.1875 13.8125 30.8125 15.9375 30.8125Z" transform="matrix(1 0 0 1.01471 1032 151)"/><path d="M24.4375 27.625 26.5625 27.625 26.5625 23.375 28.6875 23.375 28.6875 14.875 26.5625 14.875 26.5625 10.625 24.4375 10.625 24.4375 14.875 22.3125 14.875 22.3125 23.375 24.4375 23.375Z" transform="matrix(1 0 0 1.01471 1032 151)"/><path d="M47.5702 32.5571C46.7776 32.3829 46.0105 32.1438 45.2657 31.8559L43.1226 34 34.5801 34 27.1426 42.5 14.4096 42.5 1.34513 56.6536 2.90594 58.0954 15.3393 44.625 28.1074 44.625 35.5449 36.125 44.0024 36.125Z" transform="matrix(1 0 0 1.01471 1032 151)"/></g></g></g><g clip-path="url(#clip4)"><g clip-path="url(#clip5)"><g clip-path="url(#clip6)"><path d="M14.0781 51.9297C21.8971 51.9297 28.0234 47.5543 28.0234 41.9688L28.0234 39.9766 23.5503 39.9766 17.4965 18.7896C19.7005 18.3955 21.4881 17.9601 23.1169 17.5586 25.87 16.8818 28.38 16.3099 32.0078 16.1432L32.0078 56.9728 15.4634 68 52.5328 68 35.9922 56.973 35.9922 16.1432C39.6201 16.3098 42.13 16.8818 44.8831 17.5586 46.5119 17.9601 48.2995 18.3955 50.5035 18.7896L44.4497 39.9766 39.9766 39.9766 39.9766 41.9688C39.9766 47.5543 46.1029 51.9297 53.9219 51.9297 61.7408 51.9297 68 47.5543 68 41.9688L68 39.9766 63.3941 39.9766 57.5921 19.6722C60.4286 19.9022 63.8782 20.0547 68 20.0547L68 16.0703C56.0507 16.0703 50.9374 12.3914 46.5425 9.14627 43.4679 6.87437 40.5405 4.58482 35.9922 4.09155L35.9922 8.02136e-15 32.0078 8.02136e-15 32.0078 4.09155C27.4595 4.58469 24.5321 6.87437 21.4575 9.14627 17.0626 12.3914 11.9493 16.0703 0 16.0703L0 20.0547C4.12077 20.0547 7.57018 19.9025 10.4063 19.6725L4.60594 39.9766 -9.4369e-16 39.9766 -9.4369e-16 41.9688C-9.4369e-16 47.5543 6.25919 51.9297 14.0781 51.9297ZM59.2489 39.9766 48.5948 39.9766 53.9215 21.3341ZM14.0775 21.3311 19.4051 39.9766 8.75088 39.9766Z" transform="matrix(1 0 0 1.01471 558 151)"/></g></g></g><g clip-path="url(#clip7)"><g clip-path="url(#clip8)"><g clip-path="url(#clip9)"><path d="M616.366 275.217C615.753 274.86 614.996 274.86 614.383 275.217 612.009 276.534 609.335 277.217 606.62 277.2 602.65 277.288 598.811 275.777 595.966 273.007 592.682 269.792 588.242 268.035 583.647 268.133 579.947 268.101 576.329 269.227 573.3 271.352L573.3 270.4C573.3 268.522 571.778 267 569.9 267 568.022 267 566.5 268.522 566.5 270.4L566.5 331.6C566.5 333.478 568.022 335 569.9 335 571.777 335 573.3 333.478 573.3 331.6L573.3 302.133C573.675 302.098 574.033 301.957 574.331 301.725 577.027 299.74 580.299 298.689 583.647 298.733 587.624 298.642 591.471 300.153 594.323 302.927 597.601 306.137 602.033 307.893 606.62 307.8 610.135 307.841 613.583 306.835 616.525 304.91 617.155 304.474 617.521 303.749 617.5 302.983L617.5 277.2C617.507 276.383 617.074 275.625 616.366 275.217Z"/></g></g></g><g clip-path="url(#clip10)"><g clip-path="url(#clip11)"><g clip-path="url(#clip12)"><path d="M1047.99 303.004 1032 303.004C1032.24 307.208 1033.25 311.268 1034.94 315.025L1049.06 315.025C1048.44 311.211 1048.08 307.165 1047.99 303.004Z"/><path d="M1075.49 274.86C1074.09 271.538 1072.47 268.963 1070.75 267.269 1069.84 267.143 1068.93 267.053 1068 267L1068 282.968 1078.07 282.968C1077.38 280.027 1076.51 277.299 1075.49 274.86Z"/><path d="M1052 298.996 1064 298.996 1064 286.975 1053.12 286.975C1052.47 290.76 1052.09 294.811 1052 298.996Z"/><path d="M1078.88 286.975 1068 286.975 1068 298.996 1080 298.996C1079.91 294.811 1079.53 290.76 1078.88 286.975Z"/><path d="M1068 319.032 1068 335C1068.93 334.947 1069.84 334.857 1070.75 334.731 1072.47 333.037 1074.09 330.462 1075.49 327.14 1076.51 324.701 1077.38 321.972 1078.07 319.032Z"/><path d="M1056.51 274.86C1055.49 277.3 1054.62 280.028 1053.93 282.968L1064 282.968 1064 267C1063.07 267.053 1062.16 267.143 1061.25 267.269 1059.53 268.963 1057.91 271.538 1056.51 274.86Z"/><path d="M1056.51 327.14C1057.91 330.462 1059.53 333.037 1061.25 334.731 1062.16 334.857 1063.07 334.947 1064 335L1064 319.032 1053.93 319.032C1054.62 321.972 1055.49 324.701 1056.51 327.14Z"/><path d="M1049.06 286.975 1034.94 286.975C1033.25 290.732 1032.24 294.792 1032 298.996L1047.99 298.996C1048.08 294.835 1048.44 290.789 1049.06 286.975Z"/><path d="M1052.82 273.305C1053.54 271.604 1054.31 270.068 1055.14 268.701 1050.21 270.353 1045.7 273.134 1041.92 276.916 1040.06 278.77 1038.45 280.8 1037.09 282.968L1049.83 282.968C1050.6 279.454 1051.6 276.197 1052.82 273.305Z"/><path d="M1049.83 319.032 1037.09 319.032C1038.45 321.2 1040.06 323.23 1041.92 325.084 1045.7 328.866 1050.21 331.647 1055.14 333.299 1054.31 331.932 1053.54 330.396 1052.82 328.695 1051.6 325.803 1050.6 322.545 1049.83 319.032Z"/><path d="M1082.17 282.968 1094.91 282.968C1093.55 280.8 1091.94 278.77 1090.08 276.916 1086.3 273.134 1081.79 270.352 1076.86 268.701 1077.69 270.068 1078.46 271.604 1079.18 273.305 1080.4 276.197 1081.4 279.454 1082.17 282.968Z"/><path d="M1079.18 328.695C1078.46 330.396 1077.69 331.932 1076.86 333.299 1081.79 331.647 1086.3 328.866 1090.08 325.084 1091.94 323.23 1093.55 321.2 1094.91 319.032L1082.17 319.032C1081.4 322.545 1080.4 325.803 1079.18 328.695Z"/><path d="M1053.12 315.025 1064 315.025 1064 303.004 1052 303.004C1052.09 307.189 1052.47 311.24 1053.12 315.025Z"/><path d="M1080 303.004 1068 303.004 1068 315.025 1078.88 315.025C1079.53 311.24 1079.91 307.189 1080 303.004Z"/><path d="M1082.94 315.025 1097.06 315.025C1098.75 311.268 1099.76 307.208 1100 303.004L1084.01 303.004C1083.92 307.165 1083.56 311.211 1082.94 315.025Z"/><path d="M1084.01 298.996 1100 298.996C1099.76 294.792 1098.75 290.732 1097.06 286.975L1082.94 286.975C1083.56 290.789 1083.92 294.835 1084.01 298.996Z"/></g></g></g><g clip-path="url(#clip13)"><g clip-path="url(#clip14)"><g clip-path="url(#clip15)"><path d="M583.793 436.693C583.793 437.565 584.502 438.276 585.375 438.276 585.662 438.276 585.943 438.199 586.187 438.052L595.774 432.299C595.616 431.879 595.517 431.428 595.517 430.953L595.517 430.379C595.517 430.083 595.552 429.786 595.62 429.498L596.279 426.729 584.474 434.902C584.047 435.197 583.793 435.683 583.793 436.201Z"/><path d="M606.069 439.836C605.451 440.323 604.68 440.621 603.831 440.621 601.833 440.621 600.207 438.994 600.207 436.997L600.207 436.104C600.207 435.933 600.218 435.762 600.243 435.591L600.411 434.59C600.064 434.694 599.7 434.759 599.323 434.759 598.562 434.759 597.855 434.529 597.259 434.142L587.394 440.06C587.007 440.294 586.579 440.448 586.137 440.537L586.137 445.31 606.068 445.31 606.068 439.836Z"/><path d="M587.321 392.449C588.826 392.205 590.214 391.507 591.313 390.407L593.172 388.549 595.032 390.408C596.13 391.507 597.52 392.206 599.024 392.45 599.009 391.604 598.805 390.81 598.468 390.087L601.462 387.093C601.92 386.636 601.92 385.892 601.462 385.435 601.005 384.977 600.262 384.978 599.805 385.435L597.049 388.19C596.294 387.515 595.374 387.019 594.345 386.808L594.345 383.172C594.345 382.526 593.819 382 593.172 382 592.526 382 592 382.526 592 383.172L592 386.808C590.971 387.018 590.051 387.515 589.296 388.19L586.54 385.434C586.083 384.976 585.339 384.976 584.883 385.434 584.425 385.891 584.425 386.635 584.883 387.092L587.877 390.086C587.539 390.809 587.336 391.604 587.321 392.449Z"/><path d="M586.138 430.898 597.093 423.312 597.75 420.551 587.437 427.114C587.038 427.369 586.596 427.536 586.138 427.633Z"/><path d="M598.482 417.477 599.643 412.605 584.522 422.054C584.065 422.342 583.793 422.833 583.793 423.372L583.793 423.828C583.793 424.683 584.49 425.379 585.344 425.379 585.64 425.379 585.928 425.296 586.177 425.137L598.404 417.355Z"/><path d="M599.034 394.826C596.896 394.57 594.92 393.611 593.374 392.066L593.172 391.865 592.971 392.066C591.425 393.611 589.449 394.571 587.31 394.826L587.31 394.897C587.31 398.129 589.94 400.759 593.172 400.759 596.405 400.759 599.034 398.129 599.034 394.897Z"/><path d="M597.862 430.379 597.862 430.953C597.862 431.758 598.518 432.414 599.323 432.414 599.995 432.414 600.577 431.959 600.74 431.308L601.414 428.613 602.552 428.897 603.708 429.09 602.56 435.952C602.555 435.985 602.552 436.046 602.552 436.104L602.552 436.997C602.552 437.703 603.125 438.276 603.831 438.276 604.497 438.276 605.044 437.776 605.104 437.114L606.069 426.496 606.069 410.623 603.206 407.76 597.902 430.039C597.875 430.15 597.862 430.265 597.862 430.379Z"/><path d="M586.138 418.281 600.416 409.358 600.915 407.26C598.429 409.116 595.354 410.138 592.251 410.138 589.568 410.138 586.942 409.395 584.658 407.989L579.103 404.57 579.103 408.966C579.103 409.19 579.078 409.409 579.036 409.622L586.138 414.188Z"/><path d="M579.103 447.655 614.276 447.655 614.276 450 579.103 450Z"/><path d="M574.414 408.966C574.414 409.612 574.94 410.138 575.586 410.138 576.232 410.138 576.759 409.612 576.759 408.966L576.759 396.069 574.414 396.069Z"/><path d="M593.172 403.103C592.295 403.103 591.453 402.961 590.66 402.706 590.343 404.359 589.571 405.884 588.416 407.145 589.649 407.556 590.938 407.793 592.251 407.793 594.054 407.793 595.841 407.373 597.465 406.603 596.567 405.456 595.957 404.129 595.685 402.707 594.892 402.961 594.049 403.103 593.172 403.103Z"/><path d="M575.586 389.034C576.879 389.034 577.931 387.983 577.931 386.69 577.931 386.178 577.769 385.692 577.462 385.283L575.586 382.782 573.71 385.283C573.403 385.692 573.241 386.178 573.241 386.69 573.241 387.983 574.293 389.034 575.586 389.034Z"/><path d="M569.724 402.619C569.724 403.256 570.043 403.841 570.579 404.184L572.069 405.142 572.069 400.759 571.585 400.759C570.559 400.759 569.724 401.593 569.724 402.619Z"/><path d="M572.069 391.379 579.103 391.379 579.103 393.724 572.069 393.724Z"/></g></g></g><g clip-path="url(#clip16)"><g clip-path="url(#clip17)"><g clip-path="url(#clip18)"><path d="M1033 444.333 1072.67 444.333 1072.67 450 1033 450Z"/><path d="M1067 438.621C1067 437.056 1065.73 435.787 1064.17 435.787L1041.5 435.787C1039.94 435.787 1038.67 437.056 1038.67 438.621L1038.67 441.5 1067 441.5Z"/><path d="M1071.55 415.455C1070.23 416.862 1069.12 418.455 1068.27 420.183L1091.59 443.504C1092.69 444.61 1094.49 444.61 1095.59 443.504L1099.6 439.497C1100.71 438.39 1100.71 436.596 1099.6 435.49 1099.6 435.49 1099.6 435.49 1099.6 435.49L1076.28 412.175C1074.55 413.026 1072.95 414.132 1071.55 415.455Z"/><path d="M1057.53 401.431C1055.38 403.419 1052.9 405.01 1050.2 406.127L1064.85 420.771C1065.97 418.074 1067.57 415.596 1069.55 413.45 1071.69 411.462 1074.17 409.871 1076.87 408.754L1062.23 394.112C1061.1 396.808 1059.51 399.285 1057.53 401.431Z"/><path d="M1067.54 383.404C1068.65 382.298 1070.44 382.298 1071.55 383.404L1087.57 399.429C1088.68 400.536 1088.68 402.329 1087.57 403.436L1083.57 407.442C1082.46 408.548 1080.67 408.548 1079.56 407.442L1063.53 391.417C1062.43 390.31 1062.43 388.517 1063.53 387.41Z"/><path d="M1043.5 407.441C1044.6 406.335 1046.4 406.335 1047.5 407.441L1063.53 423.466C1064.64 424.573 1064.64 426.366 1063.53 427.473L1059.52 431.479C1058.42 432.585 1056.62 432.585 1055.52 431.479L1039.49 415.454C1038.39 414.347 1038.39 412.554 1039.49 411.447Z"/></g></g></g><g clip-path="url(#clip19)"><g clip-path="url(#clip20)"><g clip-path="url(#clip21)"><path d="M1036.67 547.934C1039.51 552.856 1046.86 552.728 1054.56 550.714 1056.87 558.916 1060.72 565 1066 565 1071.28 565 1075.13 558.92 1077.44 550.721 1085.13 552.737 1092.48 552.871 1095.33 547.934 1098.2 542.954 1094.39 536.649 1088.79 531 1094.4 525.349 1098.2 519.043 1095.33 514.066 1092.7 509.505 1085.65 509.134 1077.42 511.223 1075.11 503.053 1071.27 497 1066 497 1060.73 497 1056.89 503.052 1054.58 511.222 1046.35 509.135 1039.3 509.506 1036.67 514.066 1033.8 519.046 1037.61 525.351 1043.21 531 1037.6 536.651 1033.8 542.957 1036.67 547.934ZM1040.12 545.941C1038.38 542.932 1041.55 538.261 1046.13 533.757 1048.18 535.571 1050.34 537.262 1052.43 538.771 1052.69 541.571 1053.09 544.309 1053.63 546.903 1046.66 548.661 1041.48 548.297 1040.12 545.941ZM1061.02 522.374C1062.45 521.55 1064.15 520.673 1066 519.805 1067.82 520.66 1069.53 521.533 1070.98 522.374 1072.3 523.137 1073.96 524.2 1075.76 525.458 1075.89 527.247 1075.96 529.092 1075.96 531 1075.96 532.908 1075.89 534.751 1075.76 536.539 1074 537.771 1072.35 538.835 1070.98 539.626 1069.3 540.597 1067.64 541.469 1066 542.268 1064.36 541.469 1062.7 540.597 1061.02 539.626 1059.7 538.863 1058.04 537.8 1056.24 536.542 1056.11 534.753 1056.04 532.908 1056.04 531 1056.04 529.092 1056.11 527.249 1056.24 525.461 1058 524.229 1059.65 523.165 1061.02 522.374ZM1056.77 520.292C1056.96 518.929 1057.18 517.605 1057.43 516.355 1058.69 516.78 1059.94 517.241 1061.18 517.731 1060.46 518.12 1059.74 518.513 1059.03 518.922 1058.32 519.329 1057.56 519.796 1056.77 520.292ZM1070.8 517.72C1072.04 517.225 1073.3 516.76 1074.56 516.329 1074.82 517.587 1075.03 518.919 1075.23 520.292 1074.44 519.796 1073.68 519.329 1072.97 518.922 1072.26 518.509 1071.53 518.113 1070.8 517.72ZM1079.9 528.521C1080.9 529.31 1081.91 530.139 1082.89 530.986 1081.91 531.837 1080.91 532.672 1079.9 533.468 1079.92 532.644 1079.95 531.82 1079.95 531 1079.95 530.176 1079.92 529.348 1079.9 528.521ZM1075.23 541.708C1075.03 543.125 1074.8 544.493 1074.54 545.787 1073.28 545.37 1071.98 544.882 1070.66 544.345 1071.48 543.912 1072.27 543.485 1072.97 543.078 1073.68 542.671 1074.44 542.204 1075.23 541.708ZM1061.34 544.344C1060.02 544.88 1058.72 545.368 1057.46 545.785 1057.2 544.491 1056.97 543.124 1056.77 541.708 1057.56 542.204 1058.32 542.672 1059.03 543.078 1059.73 543.484 1060.52 543.911 1061.34 544.344ZM1052.1 533.479C1051.1 532.69 1050.09 531.861 1049.11 531.014 1050.09 530.163 1051.09 529.328 1052.1 528.532 1052.08 529.356 1052.05 530.18 1052.05 531 1052.05 531.824 1052.08 532.652 1052.1 533.479ZM1066 561.016C1063.27 561.016 1060.36 556.552 1058.39 549.586 1061.02 548.712 1063.61 547.679 1066 546.605 1068.39 547.68 1070.97 548.715 1073.61 549.591 1071.64 556.554 1068.73 561.016 1066 561.016ZM1091.88 545.941C1090.52 548.301 1085.35 548.665 1078.37 546.906 1078.91 544.311 1079.31 541.573 1079.57 538.772 1081.67 537.257 1083.84 535.558 1085.9 533.738 1090.46 538.203 1093.65 542.869 1091.88 545.941ZM1091.88 516.059C1093.62 519.068 1090.46 523.739 1085.87 528.243 1083.82 526.429 1081.66 524.738 1079.57 523.229 1079.31 520.445 1078.91 517.724 1078.38 515.143 1084.61 513.442 1090.18 513.109 1091.88 516.059ZM1066 500.984C1068.72 500.984 1071.62 505.417 1073.59 512.341 1071.09 513.164 1068.54 514.177 1066 515.339 1063.46 514.176 1060.91 513.163 1058.41 512.34 1060.38 505.417 1063.28 500.984 1066 500.984ZM1040.12 516.059C1041.78 513.188 1047.34 513.5 1053.61 515.189 1053.08 517.756 1052.69 520.461 1052.43 523.228 1050.33 524.743 1048.16 526.442 1046.1 528.262 1041.54 523.797 1038.35 519.131 1040.12 516.059Z"/><path d="M1071.98 531C1071.98 534.301 1069.3 536.977 1066 536.977 1062.7 536.977 1060.02 534.301 1060.02 531 1060.02 527.699 1062.7 525.023 1066 525.023 1069.3 525.023 1071.98 527.699 1071.98 531Z"/></g></g></g><g clip-path="url(#clip22)"><g clip-path="url(#clip23)"><g clip-path="url(#clip24)"><path d="M624.936 511.813 622.811 511.813C622.225 511.813 621.749 511.337 621.749 510.75 621.749 510.163 622.225 509.688 622.811 509.688L624.936 509.688C625.523 509.688 625.999 510.163 625.999 510.75 625.999 511.337 625.523 511.813 624.936 511.813Z"/><path d="M616.436 511.813 614.311 511.813C613.725 511.813 613.249 511.337 613.249 510.75 613.249 510.163 613.725 509.688 614.311 509.688L616.436 509.688C617.023 509.688 617.499 510.163 617.499 510.75 617.499 511.337 617.023 511.813 616.436 511.813Z"/><path d="M619.624 517.125C619.037 517.125 618.561 516.649 618.561 516.063L618.561 513.938C618.561 513.351 619.037 512.875 619.624 512.875 620.211 512.875 620.686 513.351 620.686 513.938L620.686 516.063C620.686 516.649 620.211 517.125 619.624 517.125Z"/><path d="M619.624 508.625C619.037 508.625 618.561 508.149 618.561 507.563L618.561 505.438C618.561 504.851 619.037 504.375 619.624 504.375 620.211 504.375 620.686 504.851 620.686 505.438L620.686 507.563C620.686 508.149 620.211 508.625 619.624 508.625Z"/><path d="M569.687 554.313 567.562 554.313C566.975 554.313 566.499 553.837 566.499 553.25 566.499 552.663 566.975 552.188 567.562 552.188L569.687 552.188C570.273 552.188 570.749 552.663 570.749 553.25 570.749 553.837 570.273 554.313 569.687 554.313Z"/><path d="M561.187 554.313 559.062 554.313C558.475 554.313 557.999 553.837 557.999 553.25 557.999 552.663 558.475 552.188 559.062 552.188L561.187 552.188C561.773 552.188 562.249 552.663 562.249 553.25 562.249 553.837 561.773 554.313 561.187 554.313Z"/><path d="M564.374 559.625C563.787 559.625 563.312 559.149 563.312 558.563L563.312 556.438C563.312 555.851 563.787 555.375 564.374 555.375 564.961 555.375 565.437 555.851 565.437 556.438L565.437 558.563C565.437 559.149 564.961 559.625 564.374 559.625Z"/><path d="M564.374 551.125C563.787 551.125 563.312 550.649 563.312 550.063L563.312 547.938C563.312 547.351 563.787 546.875 564.374 546.875 564.961 546.875 565.437 547.351 565.437 547.938L565.437 550.063C565.437 550.649 564.961 551.125 564.374 551.125Z"/><path d="M580.312 499.063C580.312 499.649 579.836 500.125 579.249 500.125 578.662 500.125 578.187 499.649 578.187 499.063 578.187 498.476 578.662 498 579.249 498 579.836 498 580.312 498.476 580.312 499.063Z"/><path d="M605.811 499.063C605.811 499.649 605.336 500.125 604.749 500.125 604.162 500.125 603.686 499.649 603.686 499.063 603.686 498.476 604.162 498 604.749 498 605.336 498 605.811 498.476 605.811 499.063Z"/><path d="M592.976 564.534C592.953 564.466 592.921 564.402 592.88 564.343 592.842 564.287 592.799 564.234 592.753 564.183 592.331 563.772 591.656 563.78 591.245 564.202 590.84 564.616 590.84 565.278 591.245 565.692 591.298 565.734 591.351 565.777 591.404 565.819 591.463 565.859 591.527 565.892 591.595 565.915 591.655 565.946 591.72 565.967 591.786 565.979 591.927 566.007 592.071 566.007 592.211 565.979 592.278 565.967 592.343 565.946 592.403 565.915 592.471 565.892 592.535 565.859 592.594 565.819L592.754 565.692C592.948 565.488 593.058 565.219 593.062 564.938 593.06 564.87 593.053 564.802 593.041 564.736 593.03 564.665 593.009 564.597 592.976 564.534Z"/><path d="M611.124 523.5C611.124 513.313 603.112 504.985 593.061 504.429L593.061 500.125 600.499 500.125C601.086 500.125 601.561 499.649 601.561 499.063 601.561 498.476 601.086 498 600.499 498L583.499 498C582.912 498 582.436 498.476 582.436 499.063 582.436 499.649 582.912 500.125 583.499 500.125L590.936 500.125 590.936 504.429C580.886 504.985 572.874 513.313 572.874 523.501 572.874 533.688 580.886 542.016 590.936 542.573L590.936 546.072 585.935 551.072C585.52 551.487 585.52 552.159 585.935 552.574L590.937 557.575 590.937 560.688C590.937 561.274 591.412 561.75 591.999 561.75 592.586 561.75 593.062 561.274 593.062 560.688L593.062 557.575 598.063 552.574C598.478 552.159 598.478 551.487 598.063 551.072L593.062 546.07 593.062 542.572C603.112 542.015 611.124 533.687 611.124 523.5ZM588.811 528.813C587.638 528.811 586.688 527.861 586.686 526.688L586.686 521.375C586.686 520.788 587.162 520.313 587.749 520.313 588.336 520.313 588.811 520.788 588.811 521.375L588.811 526.688 595.186 526.688 595.186 520.313 590.936 520.313C590.35 520.313 589.874 519.837 589.874 519.25 589.874 518.663 590.35 518.188 590.936 518.188L595.186 518.188C596.36 518.189 597.31 519.139 597.311 520.313L597.311 526.688C597.31 527.861 596.36 528.811 595.186 528.813ZM595.186 532C595.186 532.587 594.711 533.063 594.124 533.063L589.874 533.063C589.287 533.063 588.811 532.587 588.811 532 588.811 531.413 589.287 530.938 589.874 530.938L594.124 530.938C594.711 530.937 595.187 531.413 595.187 532 595.187 532 595.187 532 595.187 532ZM594.124 516.063 589.874 516.063C589.287 516.063 588.811 515.587 588.811 515 588.811 514.413 589.287 513.938 589.874 513.938L594.124 513.938C594.711 513.938 595.186 514.413 595.186 515 595.186 515.587 594.711 516.063 594.124 516.063ZM589.874 510.032 589.874 510.095C589.868 510.583 589.526 511.002 589.049 511.106 587.968 511.365 586.926 511.765 585.948 512.295 585.543 512.525 585.034 512.459 584.7 512.133L584.651 512.085C584.246 511.679 584.247 511.021 584.652 510.616 584.721 510.547 584.8 510.488 584.885 510.441 586.052 509.804 587.299 509.327 588.593 509.023 589.153 508.891 589.714 509.237 589.846 509.797 589.864 509.874 589.874 509.953 589.874 510.033ZM582.436 521.375C582.436 520.788 582.912 520.313 583.499 520.313 584.086 520.313 584.561 520.788 584.561 521.375L584.561 525.625C584.561 526.212 584.086 526.688 583.499 526.688 582.912 526.688 582.436 526.212 582.436 525.625ZM595.809 551.823 591.999 555.633 588.189 551.823 591.999 548.013ZM591.215 538.355C583.995 537.982 577.963 532.288 577.208 525.098 576.821 521.537 577.738 517.955 579.788 515.018 580.124 514.531 580.791 514.409 581.277 514.745 581.329 514.781 581.378 514.821 581.423 514.866 581.784 515.219 581.842 515.78 581.559 516.198 580.065 518.319 579.259 520.848 579.249 523.443 579.219 530.22 584.732 535.983 591.505 536.24 598.537 536.516 604.461 531.038 604.736 524.006 604.974 517.929 600.884 512.53 594.97 511.115 594.481 511.008 594.131 510.579 594.124 510.079 594.125 509.491 594.602 509.015 595.19 509.016 595.271 509.016 595.352 509.025 595.431 509.043 601.982 510.597 606.874 516.481 606.874 523.5 606.865 531.724 600.191 538.384 591.967 538.375 591.716 538.374 591.466 538.368 591.215 538.355ZM599.437 525.625 599.437 521.375C599.437 520.788 599.912 520.313 600.499 520.313 601.086 520.313 601.562 520.788 601.562 521.375L601.562 525.625C601.562 526.212 601.086 526.688 600.499 526.688 599.912 526.688 599.437 526.212 599.437 525.625Z"/></g></g></g></g></svg>