<svg width="576" height="1044" xmlns="http://www.w3.org/2000/svg" xmlns:xlink="http://www.w3.org/1999/xlink" overflow="hidden"><defs><clipPath id="clip0"><rect x="638" y="27" width="576" height="1044"/></clipPath><clipPath id="clip1"><rect x="1128" y="55" width="68" height="68"/></clipPath><clipPath id="clip2"><rect x="1128" y="55" width="68" height="68"/></clipPath><clipPath id="clip3"><rect x="1128" y="55" width="68" height="68"/></clipPath><clipPath id="clip4"><rect x="654" y="55" width="68" height="68"/></clipPath><clipPath id="clip5"><rect x="654" y="55" width="68" height="68"/></clipPath><clipPath id="clip6"><rect x="654" y="55" width="68" height="68"/></clipPath><clipPath id="clip7"><rect x="655" y="169" width="68" height="68"/></clipPath><clipPath id="clip8"><rect x="655" y="169" width="68" height="68"/></clipPath><clipPath id="clip9"><rect x="655" y="169" width="68" height="68"/></clipPath><clipPath id="clip10"><rect x="1129" y="169" width="68" height="68"/></clipPath><clipPath id="clip11"><rect x="1129" y="169" width="68" height="68"/></clipPath><clipPath id="clip12"><rect x="1129" y="169" width="68" height="68"/></clipPath><clipPath id="clip13"><rect x="1129" y="285" width="68" height="68"/></clipPath><clipPath id="clip14"><rect x="1129" y="285" width="68" height="68"/></clipPath><clipPath id="clip15"><rect x="1129" y="285" width="68" height="68"/></clipPath><clipPath id="clip16"><rect x="655" y="284" width="68" height="68"/></clipPath><clipPath id="clip17"><rect x="655" y="284" width="68" height="68"/></clipPath><clipPath id="clip18"><rect x="655" y="284" width="68" height="68"/></clipPath><clipPath id="clip19"><rect x="656" y="401" width="68" height="68"/></clipPath><clipPath id="clip20"><rect x="656" y="401" width="68" height="68"/></clipPath><clipPath id="clip21"><rect x="656" y="401" width="68" height="68"/></clipPath><clipPath id="clip22"><rect x="1130" y="401" width="68" height="68"/></clipPath><clipPath id="clip23"><rect x="1130" y="401" width="68" height="68"/></clipPath><clipPath id="clip24"><rect x="1130" y="401" width="68" height="68"/></clipPath><clipPath id="clip25"><rect x="655" y="516" width="68" height="68"/></clipPath><clipPath id="clip26"><rect x="655" y="516" width="68" height="68"/></clipPath><clipPath id="clip27"><rect x="655" y="516" width="68" height="68"/></clipPath><clipPath id="clip28"><rect x="1128" y="517" width="68" height="68"/></clipPath><clipPath id="clip29"><rect x="1128" y="517" width="68" height="68"/></clipPath><clipPath id="clip30"><rect x="1128" y="517" width="68" height="68"/></clipPath><clipPath id="clip31"><rect x="1129" y="631" width="68" height="68"/></clipPath><clipPath id="clip32"><rect x="1129" y="631" width="68" height="68"/></clipPath><clipPath id="clip33"><rect x="1129" y="631" width="68" height="68"/></clipPath><clipPath id="clip34"><rect x="655" y="631" width="68" height="68"/></clipPath><clipPath id="clip35"><rect x="655" y="631" width="68" height="68"/></clipPath><clipPath id="clip36"><rect x="655" y="631" width="68" height="68"/></clipPath><clipPath id="clip37"><rect x="655" y="745" width="68" height="68"/></clipPath><clipPath id="clip38"><rect x="655" y="745" width="68" height="68"/></clipPath><clipPath id="clip39"><rect x="655" y="745" width="68" height="68"/></clipPath><clipPath id="clip40"><rect x="1129" y="746" width="68" height="68"/></clipPath><clipPath id="clip41"><rect x="1129" y="746" width="68" height="68"/></clipPath><clipPath id="clip42"><rect x="1129" y="746" width="68" height="68"/></clipPath><clipPath id="clip43"><rect x="654" y="861" width="68" height="68"/></clipPath><clipPath id="clip44"><rect x="654" y="861" width="68" height="68"/></clipPath><clipPath id="clip45"><rect x="654" y="861" width="68" height="68"/></clipPath><clipPath id="clip46"><rect x="1128" y="862" width="68" height="68"/></clipPath><clipPath id="clip47"><rect x="1128" y="862" width="68" height="68"/></clipPath><clipPath id="clip48"><rect x="1128" y="862" width="68" height="68"/></clipPath><clipPath id="clip49"><rect x="655" y="976" width="68" height="68"/></clipPath><clipPath id="clip50"><rect x="655" y="976" width="68" height="68"/></clipPath><clipPath id="clip51"><rect x="655" y="976" width="68" height="68"/></clipPath><clipPath id="clip52"><rect x="1129" y="977" width="68" height="68"/></clipPath><clipPath id="clip53"><rect x="1129" y="977" width="68" height="68"/></clipPath><clipPath id="clip54"><rect x="1129" y="977" width="68" height="68"/></clipPath></defs><g clip-path="url(#clip0)" transform="translate(-638 -27)"><rect x="853" y="70" width="261" height="56" fill="#F44336"/><path d="M640.5 66.5004C640.5 57.6636 647.664 50.5001 656.5 50.5001L720.5 50.5001C729.336 50.5001 736.5 57.6636 736.5 66.5004L736.5 130.5C736.5 139.336 729.336 146.5 720.5 146.5L656.5 146.5C647.664 146.5 640.5 139.336 640.5 130.5Z" stroke="#000000" stroke-width="3" stroke-miterlimit="8" fill="#FFEB3B" fill-rule="evenodd"/><path d="M640.5 126.5 736.5 126.5 736.5 130.218C736.5 139.21 729.336 146.5 720.5 146.5L656.5 146.5C647.664 146.5 640.5 139.21 640.5 130.218Z" stroke="#000000" stroke-width="1.33333" stroke-miterlimit="8" fill-rule="evenodd"/><text fill="#FFFFFF" font-family="Roboto,Roboto_MSFontService,sans-serif" font-weight="400" font-size="15" transform="translate(657.583 141)">FÉDÉRAL</text><rect x="736" y="70" width="117" height="56" fill="#FFEB3B"/><rect x="736.5" y="70.5001" width="378" height="56" stroke="#000000" stroke-width="3" stroke-miterlimit="8" fill="none"/><path d="M1114.5 67.5004C1114.5 58.6636 1121.66 51.5001 1130.5 51.5001L1194.5 51.5001C1203.34 51.5001 1210.5 58.6636 1210.5 67.5004L1210.5 131.5C1210.5 140.336 1203.34 147.5 1194.5 147.5L1130.5 147.5C1121.66 147.5 1114.5 140.336 1114.5 131.5Z" stroke="#000000" stroke-width="3" stroke-miterlimit="8" fill="#F44336" fill-rule="evenodd"/><path d="M1114.5 127.5 1210.5 127.5 1210.5 131.218C1210.5 140.21 1203.34 147.5 1194.5 147.5L1130.5 147.5C1121.66 147.5 1114.5 140.21 1114.5 131.218Z" stroke="#000000" stroke-width="1.33333" stroke-miterlimit="8" fill-rule="evenodd"/><text fill="#FFFFFF" font-family="Roboto,Roboto_MSFontService,sans-serif" font-weight="400" font-size="15" transform="translate(1130.12 142)">UNITAIRE<tspan fill="#000000" font-size="24" x="-291.393" y="-84">U</tspan><tspan fill="#000000" font-size="19" x="-275.893" y="-84">NITAIRE</tspan><tspan fill="#000000" font-size="24" x="-199.226" y="-84">M</tspan><tspan fill="#000000" font-size="19" x="-178.226" y="-84">ODÉRÉ</tspan></text><rect x="974" y="184" width="140" height="57" fill="#FF9800"/><path d="M640.5 181.5C640.5 172.664 647.664 165.5 656.5 165.5L720.5 165.5C729.336 165.5 736.5 172.664 736.5 181.5L736.5 245.5C736.5 254.336 729.336 261.5 720.5 261.5L656.5 261.5C647.664 261.5 640.5 254.336 640.5 245.5Z" stroke="#000000" stroke-width="3" stroke-miterlimit="8" fill="#00897B" fill-rule="evenodd"/><path d="M640.5 241.5 736.5 241.5 736.5 245.218C736.5 254.21 729.336 261.5 720.5 261.5L656.5 261.5C647.664 261.5 640.5 254.21 640.5 245.218Z" stroke="#000000" stroke-width="1.33333" stroke-miterlimit="8" fill-rule="evenodd"/><text fill="#FFFFFF" font-family="Roboto,Roboto_MSFontService,sans-serif" font-weight="400" font-size="12" transform="translate(651.083 255)">DÉMOCRATIE</text><rect x="736" y="184" width="238" height="57" fill="#00897B"/><rect x="736.5" y="184.5" width="378" height="57" stroke="#000000" stroke-width="3" stroke-miterlimit="8" fill="none"/><path d="M1114.5 182.5C1114.5 173.664 1121.66 166.5 1130.5 166.5L1194.5 166.5C1203.34 166.5 1210.5 173.664 1210.5 182.5L1210.5 246.5C1210.5 255.336 1203.34 262.5 1194.5 262.5L1130.5 262.5C1121.66 262.5 1114.5 255.336 1114.5 246.5Z" stroke="#000000" stroke-width="3" stroke-miterlimit="8" fill="#FF9800" fill-rule="evenodd"/><path d="M1114.5 242.5 1210.5 242.5 1210.5 246.218C1210.5 255.21 1203.34 262.5 1194.5 262.5L1130.5 262.5C1121.66 262.5 1114.5 255.21 1114.5 246.218Z" stroke="#000000" stroke-width="1.33333" stroke-miterlimit="8" fill-rule="evenodd"/><text fill="#FFFFFF" font-family="Roboto,Roboto_MSFontService,sans-serif" font-weight="400" font-size="15" transform="translate(1127.87 257)">AUTORITÉ<tspan fill="#000000" font-size="24" x="-304.274" y="-83">D</tspan><tspan fill="#000000" font-size="19" x="-288.608" y="-83">ÉMOCRATE</tspan><tspan fill="#000000" font-size="24" x="-182.608" y="-83">M</tspan><tspan fill="#000000" font-size="19" x="-161.608" y="-83">ODÉRÉ</tspan></text><rect x="993" y="300" width="121" height="57" fill="#9C27B0"/><path d="M640.5 296.5C640.5 287.664 647.664 280.5 656.5 280.5L720.5 280.5C729.336 280.5 736.5 287.664 736.5 296.5L736.5 360.5C736.5 369.336 729.336 376.5 720.5 376.5L656.5 376.5C647.664 376.5 640.5 369.336 640.5 360.5Z" stroke="#000000" stroke-width="3" stroke-miterlimit="8" fill="#03A9F4" fill-rule="evenodd"/><path d="M640.5 357.5 736.5 357.5 736.5 361.032C736.5 369.575 729.336 376.5 720.5 376.5L656.5 376.5C647.664 376.5 640.5 369.575 640.5 361.032Z" stroke="#000000" stroke-width="1.33333" stroke-miterlimit="8" fill-rule="evenodd"/><text fill="#FFFFFF" font-family="Roboto,Roboto_MSFontService,sans-serif" font-weight="400" font-size="11" transform="translate(652.333 370)">MONDIALISME</text><rect x="736" y="300" width="257" height="57" fill="#03A9F4"/><rect x="736.5" y="300.5" width="378" height="57" stroke="#000000" stroke-width="3" stroke-miterlimit="8" fill="none"/><path d="M1114.5 297.5C1114.5 288.664 1121.66 281.5 1130.5 281.5L1194.5 281.5C1203.34 281.5 1210.5 288.664 1210.5 297.5L1210.5 361.5C1210.5 370.336 1203.34 377.5 1194.5 377.5L1130.5 377.5C1121.66 377.5 1114.5 370.336 1114.5 361.5Z" stroke="#000000" stroke-width="3" stroke-miterlimit="8" fill="#9C27B0" fill-rule="evenodd"/><path d="M1114.5 358.5 1210.5 358.5 1210.5 362.032C1210.5 370.575 1203.34 377.5 1194.5 377.5L1130.5 377.5C1121.66 377.5 1114.5 370.575 1114.5 362.032Z" stroke="#000000" stroke-width="1.33333" stroke-miterlimit="8" fill-rule="evenodd"/><text fill="#FFFFFF" font-family="Roboto,Roboto_MSFontService,sans-serif" font-weight="400" font-size="9" transform="translate(1124.45 371)">ISOLATIONNISME<tspan fill="#000000" font-size="24" x="-306.016" y="-82">M</tspan><tspan fill="#000000" font-size="19" x="-285.016" y="-82">ONDIALISTE</tspan><tspan fill="#000000" font-size="24" x="-172.682" y="-82">M</tspan><tspan fill="#000000" font-size="19" x="-151.682" y="-82">ODÉRÉ</tspan></text><rect x="868" y="416" width="246" height="56" fill="#EA90AB"/><path d="M640.5 412.5C640.5 403.664 647.664 396.5 656.5 396.5L720.5 396.5C729.336 396.5 736.5 403.664 736.5 412.5L736.5 476.5C736.5 485.336 729.336 492.5 720.5 492.5L656.5 492.5C647.664 492.5 640.5 485.336 640.5 476.5Z" stroke="#000000" stroke-width="3" stroke-miterlimit="8" fill="#8BC34A" fill-rule="evenodd"/><path d="M640.5 472.5 736.5 472.5 736.5 476.218C736.5 485.21 729.336 492.5 720.5 492.5L656.5 492.5C647.664 492.5 640.5 485.21 640.5 476.218Z" stroke="#000000" stroke-width="1.33333" stroke-miterlimit="8" fill-rule="evenodd"/><text fill="#FFFFFF" font-family="Roboto,Roboto_MSFontService,sans-serif" font-weight="400" font-size="12" transform="translate(651.083 486)">MILITARISME</text><rect x="736" y="416" width="132" height="56" fill="#8BC34A"/><rect x="736.5" y="416.5" width="378" height="56" stroke="#000000" stroke-width="3" stroke-miterlimit="8" fill="none"/><path d="M1114.5 413.5C1114.5 404.664 1121.66 397.5 1130.5 397.5L1194.5 397.5C1203.34 397.5 1210.5 404.664 1210.5 413.5L1210.5 477.5C1210.5 486.336 1203.34 493.5 1194.5 493.5L1130.5 493.5C1121.66 493.5 1114.5 486.336 1114.5 477.5Z" stroke="#000000" stroke-width="3" stroke-miterlimit="8" fill="#EA90AB" fill-rule="evenodd"/><path d="M1114.5 473.5 1210.5 473.5 1210.5 477.218C1210.5 486.21 1203.34 493.5 1194.5 493.5L1130.5 493.5C1121.66 493.5 1114.5 486.21 1114.5 477.218Z" stroke="#000000" stroke-width="1.33333" stroke-miterlimit="8" fill-rule="evenodd"/><text fill="#FFFFFF" font-family="Roboto,Roboto_MSFontService,sans-serif" font-weight="400" font-size="15" transform="translate(1124.79 488)">PACIFISME<tspan fill="#000000" font-size="24" x="-290.099" y="-84">P</tspan><tspan fill="#000000" font-size="19" x="-274.932" y="-84">ACIFISTE</tspan><tspan fill="#000000" font-size="24" x="-189.266" y="-84">M</tspan><tspan fill="#000000" font-size="19" x="-168.266" y="-84">ODÉRÉ</tspan><tspan fill="#000000" font-size="21" x="-379.186" y="-383">31%</tspan><tspan fill="#000000" font-size="21" x="-379.186" y="-267">63</tspan><tspan fill="#000000" font-size="21" x="-355.186" y="-267">%</tspan><tspan fill="#000000" font-size="21" x="-378.385" y="-152">68</tspan><tspan fill="#000000" font-size="21" x="-354.385" y="-152">%</tspan><tspan fill="#000000" font-size="21" x="-378.232" y="-37">35</tspan><tspan fill="#000000" font-size="21" x="-354.232" y="-37">%</tspan><tspan fill="#000000" font-size="21" x="-59.5765" y="-382">69</tspan><tspan fill="#000000" font-size="21" x="-35.5765" y="-382">%</tspan><tspan fill="#000000" font-size="21" x="-60.171" y="-267">3</tspan><tspan fill="#000000" font-size="21" x="-48.171" y="-267">7</tspan><tspan fill="#000000" font-size="21" x="-36.171" y="-267">%</tspan><tspan fill="#000000" font-size="21" x="-60.1357" y="-152">32</tspan><tspan fill="#000000" font-size="21" x="-36.1357" y="-152">%</tspan><tspan fill="#000000" font-size="21" x="-59.8942" y="-36">65</tspan><tspan fill="#000000" font-size="21" x="-35.8942" y="-36">%</tspan></text><rect x="922" y="530" width="193" height="57" fill="#FFEB3B"/><path d="M641.5 527.5C641.5 518.664 648.664 511.5 657.5 511.5L721.5 511.5C730.336 511.5 737.5 518.664 737.5 527.5L737.5 591.5C737.5 600.336 730.336 607.5 721.5 607.5L657.5 607.5C648.664 607.5 641.5 600.336 641.5 591.5Z" stroke="#000000" stroke-width="3" stroke-miterlimit="8" fill="#3F51B5" fill-rule="evenodd"/><path d="M641.5 587.5 737.5 587.5 737.5 591.218C737.5 600.21 730.336 607.5 721.5 607.5L657.5 607.5C648.664 607.5 641.5 600.21 641.5 591.218Z" stroke="#000000" stroke-width="1.33333" stroke-miterlimit="8" fill-rule="evenodd"/><text fill="#FFFFFF" font-family="Roboto,Roboto_MSFontService,sans-serif" font-weight="400" font-size="15" transform="translate(655.718 602)">SÉCURITÉ</text><rect x="737" y="530" width="185" height="57" fill="#3F51B5"/><rect x="737.5" y="530.5" width="378" height="57" stroke="#000000" stroke-width="3" stroke-miterlimit="8" fill="none"/><path d="M1115.5 528.5C1115.5 519.664 1122.66 512.5 1131.5 512.5L1195.5 512.5C1204.34 512.5 1211.5 519.664 1211.5 528.5L1211.5 592.5C1211.5 601.336 1204.34 608.5 1195.5 608.5L1131.5 608.5C1122.66 608.5 1115.5 601.336 1115.5 592.5Z" stroke="#000000" stroke-width="3" stroke-miterlimit="8" fill="#FFEB3B" fill-rule="evenodd"/><path d="M1115.5 588.5 1211.5 588.5 1211.5 592.218C1211.5 601.21 1204.34 608.5 1195.5 608.5L1131.5 608.5C1122.66 608.5 1115.5 601.21 1115.5 592.218Z" stroke="#000000" stroke-width="1.33333" stroke-miterlimit="8" fill-rule="evenodd"/><text fill="#FFFFFF" font-family="Roboto,Roboto_MSFontService,sans-serif" font-weight="400" font-size="15" transform="translate(1135 603)">LIBERTÉ<tspan fill="#000000" font-size="24" x="-246.56" y="-84">N</tspan><tspan fill="#000000" font-size="19" x="-229.393" y="-84">EUTRE</tspan></text><rect x="1028" y="645" width="87" height="56" fill="#00897B"/><path d="M641.5 641.5C641.5 632.664 648.664 625.5 657.5 625.5L721.5 625.5C730.336 625.5 737.5 632.664 737.5 641.5L737.5 705.5C737.5 714.336 730.336 721.5 721.5 721.5L657.5 721.5C648.664 721.5 641.5 714.336 641.5 705.5Z" stroke="#000000" stroke-width="3" stroke-miterlimit="8" fill="#F44336" fill-rule="evenodd"/><path d="M641.5 701.5 737.5 701.5 737.5 705.218C737.5 714.21 730.336 721.5 721.5 721.5L657.5 721.5C648.664 721.5 641.5 714.21 641.5 705.218Z" stroke="#000000" stroke-width="1.33333" stroke-miterlimit="8" fill-rule="evenodd"/><text fill="#FFFFFF" font-family="Roboto,Roboto_MSFontService,sans-serif" font-weight="400" font-size="15" transform="translate(660.384 716)">ÉGALITÉ</text><rect x="737" y="645" width="291" height="56" fill="#F44336"/><rect x="737.5" y="645.5" width="378" height="56" stroke="#000000" stroke-width="3" stroke-miterlimit="8" fill="none"/><path d="M1115.5 642.5C1115.5 633.664 1122.66 626.5 1131.5 626.5L1195.5 626.5C1204.34 626.5 1211.5 633.664 1211.5 642.5L1211.5 706.5C1211.5 715.336 1204.34 722.5 1195.5 722.5L1131.5 722.5C1122.66 722.5 1115.5 715.336 1115.5 706.5Z" stroke="#000000" stroke-width="3" stroke-miterlimit="8" fill="#00897B" fill-rule="evenodd"/><path d="M1115.5 703.5 1211.5 703.5 1211.5 707.032C1211.5 715.575 1204.34 722.5 1195.5 722.5L1131.5 722.5C1122.66 722.5 1115.5 715.575 1115.5 707.032Z" stroke="#000000" stroke-width="1.33333" stroke-miterlimit="8" fill-rule="evenodd"/><text fill="#FFFFFF" font-family="Roboto,Roboto_MSFontService,sans-serif" font-weight="400" font-size="15" transform="translate(1128.59 718)">MARCHÉS<tspan fill="#000000" font-size="24" x="-256.441" y="-84">É</tspan><tspan fill="#000000" font-size="19" x="-242.774" y="-84">GALITAIRE</tspan></text><rect x="974" y="760" width="141" height="57" fill="#03A9F4"/><path d="M641.5 757.5C641.5 748.664 648.664 741.5 657.5 741.5L721.5 741.5C730.336 741.5 737.5 748.664 737.5 757.5L737.5 821.5C737.5 830.336 730.336 837.5 721.5 837.5L657.5 837.5C648.664 837.5 641.5 830.336 641.5 821.5Z" stroke="#000000" stroke-width="3" stroke-miterlimit="8" fill="#FF9800" fill-rule="evenodd"/><path d="M641.5 817.5 737.5 817.5 737.5 821.218C737.5 830.21 730.336 837.5 721.5 837.5L657.5 837.5C648.664 837.5 641.5 830.21 641.5 821.218Z" stroke="#000000" stroke-width="1.33333" stroke-miterlimit="8" fill-rule="evenodd"/><text fill="#FFFFFF" font-family="Roboto,Roboto_MSFontService,sans-serif" font-weight="400" font-size="15" transform="translate(662.801 832)">LAÏCITÉ</text><rect x="737" y="760" width="238" height="57" fill="#FF9800"/><rect x="737.5" y="760.5" width="378" height="57" stroke="#000000" stroke-width="3" stroke-miterlimit="8" fill="none"/><path d="M1115.5 758.5C1115.5 749.664 1122.66 742.5 1131.5 742.5L1195.5 742.5C1204.34 742.5 1211.5 749.664 1211.5 758.5L1211.5 822.5C1211.5 831.336 1204.34 838.5 1195.5 838.5L1131.5 838.5C1122.66 838.5 1115.5 831.336 1115.5 822.5Z" stroke="#000000" stroke-width="3" stroke-miterlimit="8" fill="#03A9F4" fill-rule="evenodd"/><path d="M1115.5 818.5 1211.5 818.5 1211.5 822.218C1211.5 831.21 1204.34 838.5 1195.5 838.5L1131.5 838.5C1122.66 838.5 1115.5 831.21 1115.5 822.218Z" stroke="#000000" stroke-width="1.33333" stroke-miterlimit="8" fill-rule="evenodd"/><text fill="#FFFFFF" font-family="Roboto,Roboto_MSFontService,sans-serif" font-weight="400" font-size="15" transform="translate(1130.84 833)">RELIGION<tspan fill="#000000" font-size="24" x="-269.432" y="-83">L</tspan><tspan fill="#000000" font-size="19" x="-256.599" y="-83">AÏC</tspan><tspan fill="#000000" font-size="24" x="-220.432" y="-83">M</tspan><tspan fill="#000000" font-size="19" x="-199.432" y="-83">ODÉRÉ</tspan></text><rect x="990" y="876" width="125" height="57" fill="#8BC34A"/><path d="M641.5 872.5C641.5 863.664 648.664 856.5 657.5 856.5L721.5 856.5C730.336 856.5 737.5 863.664 737.5 872.5L737.5 936.5C737.5 945.336 730.336 952.5 721.5 952.5L657.5 952.5C648.664 952.5 641.5 945.336 641.5 936.5Z" stroke="#000000" stroke-width="3" stroke-miterlimit="8" fill="#9C27B0" fill-rule="evenodd"/><path d="M641.5 933.5 737.5 933.5 737.5 937.032C737.5 945.575 730.336 952.5 721.5 952.5L657.5 952.5C648.664 952.5 641.5 945.575 641.5 937.032Z" stroke="#000000" stroke-width="1.33333" stroke-miterlimit="8" fill-rule="evenodd"/><text fill="#FFFFFF" font-family="Roboto,Roboto_MSFontService,sans-serif" font-weight="400" font-size="15" transform="translate(656.551 948)">PROGRÈS</text><rect x="737" y="876" width="253" height="57" fill="#9C27B0"/><rect x="737.5" y="876.5" width="378" height="57" stroke="#000000" stroke-width="3" stroke-miterlimit="8" fill="none"/><path d="M1115.5 873.5C1115.5 864.664 1122.66 857.5 1131.5 857.5L1195.5 857.5C1204.34 857.5 1211.5 864.664 1211.5 873.5L1211.5 937.5C1211.5 946.336 1204.34 953.5 1195.5 953.5L1131.5 953.5C1122.66 953.5 1115.5 946.336 1115.5 937.5Z" stroke="#000000" stroke-width="3" stroke-miterlimit="8" fill="#8BC34A" fill-rule="evenodd"/><path d="M1115.5 934.5 1211.5 934.5 1211.5 938.032C1211.5 946.575 1204.34 953.5 1195.5 953.5L1131.5 953.5C1122.66 953.5 1115.5 946.575 1115.5 938.032Z" stroke="#000000" stroke-width="1.33333" stroke-miterlimit="8" fill-rule="evenodd"/><text fill="#FFFFFF" font-family="Roboto,Roboto_MSFontService,sans-serif" font-weight="400" font-size="15" transform="translate(1125.5 949)">TRADITION<tspan fill="#000000" font-size="24" x="-311.266" y="-84">P</tspan><tspan fill="#000000" font-size="19" x="-296.099" y="-84">ROGRESSISTE</tspan><tspan fill="#000000" font-size="24" x="-167.933" y="-84">M</tspan><tspan fill="#000000" font-size="19" x="-146.933" y="-84">ODÉRÉ</tspan><tspan fill="#000000" font-size="21" x="-379.103" y="-384">49%</tspan><tspan fill="#000000" font-size="21" x="-379.103" y="-268">77</tspan><tspan fill="#000000" font-size="21" x="-355.103" y="-268">%</tspan><tspan fill="#000000" font-size="21" x="-378.302" y="-152">63</tspan><tspan fill="#000000" font-size="21" x="-354.302" y="-152">%</tspan><tspan fill="#000000" font-size="21" x="-378.149" y="-38">67</tspan><tspan fill="#000000" font-size="21" x="-354.149" y="-38">%</tspan><tspan fill="#000000" font-size="21" x="-59.4932" y="-383">51</tspan><tspan fill="#000000" font-size="21" x="-35.4932" y="-383">%</tspan><tspan fill="#000000" font-size="21" x="-60.0878" y="-268">23</tspan><tspan fill="#000000" font-size="21" x="-36.0878" y="-268">%</tspan><tspan fill="#000000" font-size="21" x="-60.0525" y="-152">37</tspan><tspan fill="#000000" font-size="21" x="-36.0525" y="-152">%</tspan><tspan fill="#000000" font-size="21" x="-59.8109" y="-37">33</tspan><tspan fill="#000000" font-size="21" x="-35.8109" y="-37">%</tspan></text><rect x="908" y="990" width="208" height="57" fill="#3F51B5"/><path d="M642.5 987.5C642.5 978.664 649.664 971.5 658.5 971.5L722.5 971.5C731.336 971.5 738.5 978.664 738.5 987.5L738.5 1051.5C738.5 1060.34 731.336 1067.5 722.5 1067.5L658.5 1067.5C649.664 1067.5 642.5 1060.34 642.5 1051.5Z" stroke="#000000" stroke-width="3" stroke-miterlimit="8" fill="#EA90AB" fill-rule="evenodd"/><path d="M642.5 1047.5 738.5 1047.5 738.5 1051.22C738.5 1060.21 731.336 1067.5 722.5 1067.5L658.5 1067.5C649.664 1067.5 642.5 1060.21 642.5 1051.22Z" stroke="#000000" stroke-width="1.33333" stroke-miterlimit="8" fill-rule="evenodd"/><text fill="#FFFFFF" font-family="Roboto,Roboto_MSFontService,sans-serif" font-weight="400" font-size="11" transform="translate(653.852 1061)">ASSIMILATION</text><rect x="738" y="990" width="170" height="57" fill="#EA90AB"/><rect x="738.5" y="990.5" width="378" height="56.9999" stroke="#000000" stroke-width="3" stroke-miterlimit="8" fill="none"/><path d="M1116.5 988.5C1116.5 979.664 1123.66 972.5 1132.5 972.5L1196.5 972.5C1205.34 972.5 1212.5 979.664 1212.5 988.5L1212.5 1052.5C1212.5 1061.34 1205.34 1068.5 1196.5 1068.5L1132.5 1068.5C1123.66 1068.5 1116.5 1061.34 1116.5 1052.5Z" stroke="#000000" stroke-width="3" stroke-miterlimit="8" fill="#3F51B5" fill-rule="evenodd"/><path d="M1116.5 1048.5 1212.5 1048.5 1212.5 1052.22C1212.5 1061.21 1205.34 1068.5 1196.5 1068.5L1132.5 1068.5C1123.66 1068.5 1116.5 1061.21 1116.5 1052.22Z" stroke="#000000" stroke-width="1.33333" stroke-miterlimit="8" fill-rule="evenodd"/><text fill="#FFFFFF" font-family="Roboto,Roboto_MSFontService,sans-serif" font-weight="400" font-size="9" transform="translate(1130.22 1061)">MULTICULTURE<tspan fill="#000000" font-size="21" x="-382.065" y="-35">45</tspan><tspan fill="#000000" font-size="21" x="-358.065" y="-35">%</tspan><tspan fill="#000000" font-size="21" x="-63.7277" y="-34">55</tspan><tspan fill="#000000" font-size="21" x="-39.7277" y="-34">%</tspan></text><g clip-path="url(#clip1)"><g clip-path="url(#clip2)"><g clip-path="url(#clip3)"><path d="M1178.39 102.99 1184 102.99 1184 113.402 1178.39 113.402Z"/><path d="M1168.79 102.99 1174.4 102.99 1174.4 113.402 1168.79 113.402Z"/><path d="M1159.19 102.99 1164.81 102.99 1164.81 113.402 1159.19 113.402Z"/><path d="M1149.6 102.99 1155.21 102.99 1155.21 113.402 1149.6 113.402Z"/><path d="M1140 102.99 1145.61 102.99 1145.61 113.402 1140 113.402Z"/><path d="M1162 91.5933 1153.11 99.0052 1170.89 99.0052Z"/><path d="M1177.12 99.0052 1184 99.0052 1184 92.9844C1184 91.8842 1183.11 90.9922 1182.01 90.9922L1167.5 90.9922Z"/><path d="M1179.2 83.3864C1179.2 82.2862 1178.31 81.3942 1177.21 81.3942L1146.79 81.3942C1145.69 81.3942 1144.8 82.2862 1144.8 83.3864L1144.8 87.0078 1179.2 87.0078Z"/><path d="M1156.5 90.9922 1141.99 90.9922C1140.89 90.9922 1140 91.8842 1140 92.9844L1140 99.0052 1146.88 99.0052Z"/><path d="M1128 104.982 1128 121.008C1128 122.108 1128.89 123 1129.99 123L1133.61 123 1133.61 115.394C1133.61 114.294 1134.51 113.402 1135.61 113.402L1136.01 113.402 1136.01 102.99 1129.99 102.99C1128.89 102.99 1128 103.882 1128 104.982Z"/><path d="M1137.6 117.386 1186.4 117.386 1186.4 123 1137.6 123Z"/><path d="M1194.01 102.99 1187.99 102.99 1187.99 113.402 1188.39 113.402C1189.49 113.402 1190.39 114.294 1190.39 115.394L1190.39 123 1194.01 123C1195.11 123 1196 122.108 1196 121.008L1196 104.982C1196 103.882 1195.11 102.99 1194.01 102.99Z"/><path d="M1174.4 74.6031C1174.4 68.4305 1169.9 63.3117 1163.99 62.3585L1163.99 56.9922C1163.99 55.892 1163.1 55 1162 55 1160.9 55 1160.01 55.892 1160.01 56.9922L1160.01 62.3585C1154.1 63.3117 1149.6 68.4305 1149.6 74.6031L1149.6 77.4099 1174.4 77.4099Z"/></g></g></g><g clip-path="url(#clip4)"><g clip-path="url(#clip5)"><g clip-path="url(#clip6)"><path d="M678.341 82.8306 688.038 82.8306 697.736 82.8306C698.789 82.8306 699.642 81.9741 699.642 80.9164L699.642 78.8303C699.642 73.3593 695.298 68.6344 689.378 68.6344 692.504 68.0094 694.861 65.2401 694.861 61.9162 694.861 58.133 691.806 55.0665 688.038 55.0665 684.271 55.0665 681.216 58.133 681.216 61.9162 681.216 65.2401 683.573 68.0094 686.699 68.6344 680.787 68.6344 676.434 73.352 676.434 78.8303L676.434 80.9164C676.435 81.974 677.287 82.8306 678.341 82.8306Z"/><path d="M662.569 88.1722C662.689 88.1942 662.809 88.2048 662.927 88.2048 663.87 88.2048 664.708 87.5288 664.883 86.5641 665.373 83.8608 666.3 81.2342 667.64 78.7574 668.932 76.3671 670.553 74.2206 672.457 72.3776 673.249 71.6118 673.272 70.3467 672.509 69.5521 671.746 68.7576 670.486 68.7344 669.695 69.5002 667.497 71.6275 665.629 74.1004 664.142 76.8504 662.601 79.7003 661.533 82.7277 660.967 85.8485 660.771 86.9342 661.488 87.9746 662.569 88.1722Z"/><path d="M708.437 78.7572C709.776 81.2342 710.704 83.8607 711.194 86.5639 711.369 87.5288 712.206 88.2047 713.15 88.2047 713.268 88.2047 713.388 88.1941 713.508 88.172 714.589 87.9744 715.306 86.9341 715.11 85.8484 714.544 82.7275 713.476 79.7001 711.935 76.8503 710.448 74.1003 708.579 71.6272 706.382 69.5001 705.59 68.7341 704.331 68.7575 703.568 69.552 702.805 70.3466 702.828 71.6115 703.62 72.3775 705.524 74.2205 707.145 76.367 708.437 78.7572Z"/><path d="M696.078 103.434C693.511 104.281 690.807 104.716 688.039 104.725 688.003 104.726 687.966 104.726 687.93 104.726 685.222 104.726 682.569 104.32 680.047 103.519 678.999 103.186 677.882 103.77 677.55 104.822 677.219 105.875 677.8 106.996 678.848 107.329 681.758 108.254 684.813 108.723 687.93 108.723L688.039 108.723C691.23 108.711 694.352 108.21 697.32 107.231 698.364 106.887 698.933 105.757 698.589 104.709 698.247 103.661 697.122 103.089 696.078 103.434Z"/><path d="M666.943 108.737C670.07 108.112 672.427 105.342 672.427 102.019 672.427 98.2359 669.372 95.1681 665.604 95.1681 661.836 95.1681 658.781 98.2359 658.781 102.019 658.781 105.342 661.138 108.112 664.265 108.737 658.358 108.737 654 113.45 654 118.933L654 121.019C654 122.076 654.853 122.934 655.906 122.934L665.604 122.934 675.302 122.934C676.355 122.934 677.208 122.076 677.208 121.019L677.208 118.933C677.208 113.473 672.875 108.737 666.943 108.737Z"/><path d="M711.735 108.737C714.862 108.112 717.219 105.342 717.219 102.019 717.219 98.2359 714.164 95.1681 710.396 95.1681 706.627 95.1681 703.573 98.2359 703.573 102.019 703.573 105.342 705.929 108.112 709.056 108.737 703.136 108.737 698.792 113.461 698.792 118.933L698.792 121.019C698.792 122.076 699.645 122.933 700.698 122.933L710.396 122.933 720.094 122.933C721.146 122.933 722 122.076 722 121.019L722 118.933C722 113.462 717.655 108.737 711.735 108.737Z"/></g></g></g><g clip-path="url(#clip7)"><g clip-path="url(#clip8)"><g clip-path="url(#clip9)"><path d="M687.227 201.085 690.895 201.085 708.786 183.194 694.592 169 674.867 188.725ZM689.021 188.965 695.991 181.875 698.837 184.673 689.093 194.584 683.367 189.049 686.14 186.18Z"/><path d="M702.524 195.1 696.539 201.085 703.028 201.085 703.028 205.076 675.094 205.076 675.094 201.085 681.584 201.085 675.598 195.1 665.118 195.1 665.118 211.062 712.882 211.062 712.882 195.1Z"/><path d="M665.118 215.052 712.882 215.052 712.882 237 665.118 237Z"/></g></g></g><g clip-path="url(#clip10)"><g clip-path="url(#clip11)"><g clip-path="url(#clip12)"><path d="M1129 231.333 1168.67 231.333 1168.67 237 1129 237Z"/><path d="M1163 225.621C1163 224.056 1161.73 222.787 1160.17 222.787L1137.5 222.787C1135.94 222.787 1134.67 224.056 1134.67 225.621L1134.67 228.5 1163 228.5Z"/><path d="M1167.55 202.455C1166.23 203.862 1165.12 205.455 1164.27 207.183L1187.59 230.504C1188.69 231.61 1190.49 231.61 1191.59 230.504L1195.6 226.497C1196.71 225.39 1196.71 223.596 1195.6 222.49 1195.6 222.49 1195.6 222.49 1195.6 222.49L1172.28 199.175C1170.55 200.026 1168.95 201.132 1167.55 202.455Z"/><path d="M1153.53 188.431C1151.38 190.419 1148.9 192.01 1146.2 193.127L1160.85 207.771C1161.97 205.074 1163.57 202.596 1165.55 200.45 1167.69 198.462 1170.17 196.871 1172.87 195.754L1158.23 181.113C1157.1 183.808 1155.51 186.285 1153.53 188.431Z"/><path d="M1163.54 170.404C1164.65 169.298 1166.44 169.298 1167.55 170.404L1183.57 186.429C1184.68 187.536 1184.68 189.329 1183.57 190.436L1179.57 194.442C1178.46 195.548 1176.67 195.548 1175.56 194.442L1159.53 178.417C1158.43 177.31 1158.43 175.517 1159.53 174.41Z"/><path d="M1139.5 194.441C1140.6 193.335 1142.4 193.335 1143.5 194.441L1159.53 210.466C1160.64 211.573 1160.64 213.366 1159.53 214.473L1155.52 218.479C1154.42 219.585 1152.62 219.585 1151.52 218.479L1135.49 202.454C1134.39 201.347 1134.39 199.554 1135.49 198.447Z"/></g></g></g><g clip-path="url(#clip13)"><g clip-path="url(#clip14)"><g clip-path="url(#clip15)"><path d="M1187.37 293.217C1186.75 292.86 1186 292.86 1185.38 293.217 1183.01 294.534 1180.33 295.217 1177.62 295.2 1173.65 295.288 1169.81 293.777 1166.97 291.007 1163.68 287.792 1159.24 286.035 1154.65 286.133 1150.95 286.101 1147.33 287.227 1144.3 289.352L1144.3 288.4C1144.3 286.522 1142.78 285 1140.9 285 1139.02 285 1137.5 286.522 1137.5 288.4L1137.5 349.6C1137.5 351.478 1139.02 353 1140.9 353 1142.78 353 1144.3 351.478 1144.3 349.6L1144.3 320.133C1144.68 320.098 1145.03 319.957 1145.33 319.725 1148.03 317.74 1151.3 316.689 1154.65 316.733 1158.62 316.642 1162.47 318.153 1165.32 320.927 1168.6 324.137 1173.03 325.893 1177.62 325.8 1181.14 325.841 1184.58 324.835 1187.53 322.91 1188.15 322.474 1188.52 321.749 1188.5 320.983L1188.5 295.2C1188.51 294.383 1188.07 293.625 1187.37 293.217Z"/></g></g></g><g clip-path="url(#clip16)"><g clip-path="url(#clip17)"><g clip-path="url(#clip18)"><path d="M670.99 320.004 655 320.004C655.242 324.208 656.245 328.268 657.944 332.025L672.061 332.025C671.443 328.211 671.078 324.165 670.99 320.004Z"/><path d="M698.487 291.86C697.088 288.538 695.467 285.963 693.752 284.269 692.844 284.143 691.927 284.053 691.004 284L691.004 299.968 701.069 299.968C700.379 297.027 699.514 294.299 698.487 291.86Z"/><path d="M674.998 315.996 686.996 315.996 686.996 303.975 676.121 303.975C675.472 307.76 675.091 311.811 674.998 315.996Z"/><path d="M701.879 303.975 691.004 303.975 691.004 315.996 703.002 315.996C702.909 311.811 702.527 307.76 701.879 303.975Z"/><path d="M691.004 336.032 691.004 352C691.927 351.947 692.844 351.857 693.752 351.731 695.467 350.037 697.088 347.462 698.487 344.14 699.514 341.701 700.379 338.972 701.069 336.032Z"/><path d="M679.513 291.86C678.486 294.3 677.621 297.028 676.931 299.968L686.996 299.968 686.996 284C686.073 284.053 685.156 284.143 684.248 284.269 682.533 285.963 680.912 288.538 679.513 291.86Z"/><path d="M679.513 344.14C680.912 347.462 682.533 350.037 684.248 351.731 685.156 351.857 686.073 351.947 686.996 352L686.996 336.032 676.931 336.032C677.621 338.972 678.486 341.701 679.513 344.14Z"/><path d="M672.061 303.975 657.944 303.975C656.245 307.732 655.242 311.792 655 315.996L670.99 315.996C671.078 311.835 671.443 307.789 672.061 303.975Z"/><path d="M675.82 290.305C676.536 288.604 677.312 287.068 678.14 285.701 673.213 287.353 668.698 290.134 664.916 293.916 663.062 295.77 661.45 297.8 660.092 299.968L672.825 299.968C673.599 296.454 674.602 293.197 675.82 290.305Z"/><path d="M672.825 336.032 660.092 336.032C661.45 338.2 663.062 340.23 664.916 342.084 668.698 345.866 673.213 348.647 678.14 350.299 677.312 348.932 676.536 347.396 675.82 345.695 674.602 342.803 673.599 339.545 672.825 336.032Z"/><path d="M705.174 299.968 717.908 299.968C716.55 297.8 714.938 295.77 713.084 293.916 709.302 290.134 704.787 287.352 699.86 285.701 700.688 287.068 701.464 288.604 702.18 290.305 703.398 293.197 704.401 296.454 705.174 299.968Z"/><path d="M702.18 345.695C701.464 347.396 700.688 348.932 699.86 350.299 704.787 348.647 709.302 345.866 713.084 342.084 714.938 340.23 716.55 338.2 717.908 336.032L705.174 336.032C704.401 339.545 703.398 342.803 702.18 345.695Z"/><path d="M676.121 332.025 686.996 332.025 686.996 320.004 674.998 320.004C675.091 324.189 675.472 328.24 676.121 332.025Z"/><path d="M703.002 320.004 691.004 320.004 691.004 332.025 701.879 332.025C702.527 328.24 702.909 324.189 703.002 320.004Z"/><path d="M705.939 332.025 720.056 332.025C721.754 328.268 722.758 324.208 723 320.004L707.01 320.004C706.922 324.165 706.557 328.211 705.939 332.025Z"/><path d="M707.01 315.996 723 315.996C722.758 311.792 721.755 307.732 720.056 303.975L705.939 303.975C706.557 307.789 706.922 311.835 707.01 315.996Z"/></g></g></g><g clip-path="url(#clip19)"><g clip-path="url(#clip20)"><g clip-path="url(#clip21)"><path d="M693.854 427.33C693.854 426.616 693.756 425.926 693.576 425.269L724 425.269 724 421.606 691.344 421.606C690.295 420.639 688.97 419.958 687.367 419.683 687.367 418.692 687.367 418 687.367 417.999L687.367 417.951C687.367 417.912 687.443 417.901 687.442 417.862 687.381 415.734 685.708 414.051 683.565 414.051L667.448 414.051 667.448 420.461C664.929 421.771 663.365 424.355 663.365 427.33 663.365 427.359 663.386 427.388 663.386 427.418 663.861 427.362 664.363 427.33 664.853 427.33L693.854 427.33Z"/><path d="M716.444 448.566 716.444 448.503C720.566 447.821 723.771 444.255 723.771 439.902L723.771 439.826C723.771 434.978 719.918 430.993 715.071 430.993L664.853 430.993C660.006 430.993 656 434.978 656 439.826L656 439.902C656 444.255 659.205 447.821 663.327 448.503L663.327 448.565C663.327 449.918 663.73 451.184 664.365 452.275 665.644 454.472 668.061 455.949 670.787 455.949L709.137 455.949C711.862 455.949 714.203 454.472 715.482 452.275 716.117 451.185 716.444 449.918 716.444 448.566ZM696.167 452.114C694.111 452.114 692.445 450.448 692.445 448.393 692.445 446.337 694.111 444.671 696.167 444.671 698.222 444.671 699.889 446.337 699.889 448.393 699.889 450.448 698.222 452.114 696.167 452.114ZM679.852 448.393C679.852 446.337 681.518 444.671 683.574 444.671 685.63 444.671 687.297 446.337 687.297 448.393 687.297 450.448 685.63 452.114 683.574 452.114 681.518 452.114 679.852 450.448 679.852 448.393ZM667.259 448.393C667.259 446.337 668.925 444.671 670.981 444.671 673.037 444.671 674.704 446.337 674.704 448.393 674.704 450.448 673.037 452.114 670.981 452.114 668.925 452.114 667.259 450.448 667.259 448.393ZM708.759 452.114C706.703 452.114 705.037 450.448 705.037 448.393 705.037 446.337 706.703 444.671 708.759 444.671 710.815 444.671 712.482 446.337 712.482 448.393 712.482 450.448 710.815 452.114 708.759 452.114Z"/></g></g></g><g clip-path="url(#clip22)"><g clip-path="url(#clip23)"><g clip-path="url(#clip24)"><path d="M1164 401C1145.33 401 1130 416.325 1130 435 1130 453.675 1145.33 469 1164 469 1182.67 469 1198 453.675 1198 435 1198 416.325 1182.67 401 1164 401ZM1160.02 460.694C1154.87 459.896 1150.23 457.459 1146.55 454.098L1160.02 440.634ZM1160.02 429.366 1141.53 447.848C1139.36 444.059 1137.97 439.681 1137.97 435 1137.97 422.055 1147.61 411.227 1160.02 409.306ZM1167.98 460.694 1167.98 440.634 1181.45 454.098C1177.77 457.459 1173.13 459.896 1167.98 460.694ZM1186.47 447.848 1167.98 429.366 1167.98 409.306C1180.39 411.227 1190.03 422.055 1190.03 435 1190.03 439.681 1188.64 444.059 1186.47 447.848Z"/></g></g></g><g clip-path="url(#clip25)"><g clip-path="url(#clip26)"><g clip-path="url(#clip27)"><path d="M701.282 561.244C704.558 556.69 706.572 551.458 707.201 545.935L689 540.76 670.799 545.935C671.428 551.458 673.442 556.69 676.718 561.244 679.907 565.677 684.14 569.244 689 571.603 693.86 569.244 698.093 565.677 701.282 561.244Z"/><path d="M689 536.537 707.414 541.773 707.414 533.327 689 528.091 670.587 533.327 670.587 541.773Z"/><path d="M691.031 516 691.031 524.446 711.475 530.259 711.475 542.177C711.475 549.932 709.091 557.345 704.58 563.616 701.053 568.518 696.388 572.477 691.031 575.13L691.031 584C699.121 580.848 706.063 575.464 711.174 568.36 716.686 560.699 719.599 551.645 719.599 542.177L719.599 524.124Z"/><path d="M686.969 575.13C681.612 572.477 676.947 568.518 673.421 563.616 668.909 557.345 666.525 549.932 666.525 542.177L666.525 530.259 686.969 524.446 686.969 516 658.401 524.124 658.401 542.177C658.401 551.645 661.315 560.699 666.826 568.36 671.937 575.464 678.88 580.848 686.969 584Z"/></g></g></g><g clip-path="url(#clip28)"><g clip-path="url(#clip29)"><g clip-path="url(#clip30)"><path d="M1153.79 571.693C1153.79 572.565 1154.5 573.276 1155.37 573.276 1155.66 573.276 1155.94 573.199 1156.19 573.052L1165.77 567.299C1165.62 566.879 1165.52 566.428 1165.52 565.953L1165.52 565.379C1165.52 565.083 1165.55 564.786 1165.62 564.498L1166.28 561.729 1154.47 569.902C1154.05 570.197 1153.79 570.683 1153.79 571.201Z"/><path d="M1176.07 574.836C1175.45 575.323 1174.68 575.621 1173.83 575.621 1171.83 575.621 1170.21 573.994 1170.21 571.997L1170.21 571.104C1170.21 570.933 1170.22 570.762 1170.24 570.591L1170.41 569.59C1170.06 569.694 1169.7 569.759 1169.32 569.759 1168.56 569.759 1167.86 569.529 1167.26 569.142L1157.39 575.06C1157.01 575.294 1156.58 575.448 1156.14 575.537L1156.14 580.31 1176.07 580.31 1176.07 574.836Z"/><path d="M1157.32 527.449C1158.83 527.205 1160.21 526.507 1161.31 525.407L1163.17 523.549 1165.03 525.408C1166.13 526.507 1167.52 527.206 1169.02 527.45 1169.01 526.604 1168.8 525.81 1168.47 525.087L1171.46 522.093C1171.92 521.636 1171.92 520.892 1171.46 520.435 1171.01 519.977 1170.26 519.978 1169.81 520.435L1167.05 523.19C1166.29 522.515 1165.37 522.019 1164.34 521.808L1164.34 518.172C1164.34 517.526 1163.82 517 1163.17 517 1162.53 517 1162 517.526 1162 518.172L1162 521.808C1160.97 522.018 1160.05 522.515 1159.3 523.19L1156.54 520.434C1156.08 519.976 1155.34 519.976 1154.88 520.434 1154.43 520.891 1154.43 521.635 1154.88 522.092L1157.88 525.086C1157.54 525.809 1157.34 526.604 1157.32 527.449Z"/><path d="M1156.14 565.898 1167.09 558.312 1167.75 555.551 1157.44 562.114C1157.04 562.369 1156.6 562.536 1156.14 562.633Z"/><path d="M1168.48 552.477 1169.64 547.605 1154.52 557.054C1154.07 557.342 1153.79 557.833 1153.79 558.372L1153.79 558.828C1153.79 559.683 1154.49 560.379 1155.34 560.379 1155.64 560.379 1155.93 560.296 1156.18 560.137L1168.4 552.355Z"/><path d="M1169.03 529.826C1166.9 529.57 1164.92 528.611 1163.37 527.066L1163.17 526.865 1162.97 527.066C1161.43 528.611 1159.45 529.571 1157.31 529.826L1157.31 529.897C1157.31 533.129 1159.94 535.759 1163.17 535.759 1166.4 535.759 1169.03 533.129 1169.03 529.897Z"/><path d="M1167.86 565.379 1167.86 565.953C1167.86 566.758 1168.52 567.414 1169.32 567.414 1169.99 567.414 1170.58 566.959 1170.74 566.308L1171.41 563.613 1172.55 563.897 1173.71 564.09 1172.56 570.952C1172.56 570.985 1172.55 571.046 1172.55 571.104L1172.55 571.997C1172.55 572.703 1173.12 573.276 1173.83 573.276 1174.5 573.276 1175.04 572.776 1175.1 572.114L1176.07 561.496 1176.07 545.623 1173.21 542.76 1167.9 565.039C1167.88 565.15 1167.86 565.265 1167.86 565.379Z"/><path d="M1156.14 553.281 1170.42 544.358 1170.92 542.26C1168.43 544.115 1165.35 545.138 1162.25 545.138 1159.57 545.138 1156.94 544.395 1154.66 542.989L1149.1 539.57 1149.1 543.966C1149.1 544.19 1149.08 544.409 1149.04 544.622L1156.14 549.188Z"/><path d="M1149.1 582.655 1184.28 582.655 1184.28 585 1149.1 585Z"/><path d="M1144.41 543.966C1144.41 544.612 1144.94 545.138 1145.59 545.138 1146.23 545.138 1146.76 544.612 1146.76 543.966L1146.76 531.069 1144.41 531.069Z"/><path d="M1163.17 538.103C1162.3 538.103 1161.45 537.961 1160.66 537.706 1160.34 539.359 1159.57 540.885 1158.42 542.144 1159.65 542.556 1160.94 542.793 1162.25 542.793 1164.05 542.793 1165.84 542.373 1167.46 541.603 1166.57 540.456 1165.96 539.129 1165.68 537.707 1164.89 537.961 1164.05 538.103 1163.17 538.103Z"/><path d="M1145.59 524.034C1146.88 524.034 1147.93 522.983 1147.93 521.69 1147.93 521.178 1147.77 520.692 1147.46 520.283L1145.59 517.782 1143.71 520.283C1143.4 520.692 1143.24 521.178 1143.24 521.69 1143.24 522.983 1144.29 524.034 1145.59 524.034Z"/><path d="M1139.72 537.619C1139.72 538.256 1140.04 538.841 1140.58 539.184L1142.07 540.142 1142.07 535.759 1141.58 535.759C1140.56 535.759 1139.72 536.593 1139.72 537.619Z"/><path d="M1142.07 526.379 1149.1 526.379 1149.1 528.724 1142.07 528.724Z"/></g></g></g><g clip-path="url(#clip31)"><g clip-path="url(#clip32)"><g clip-path="url(#clip33)"><path d="M1153.44 679.875 1157.69 679.875 1157.69 695.813 1153.44 695.813Z"/><path d="M1159.81 695.813 1164.06 695.813 1164.06 673.5 1159.81 679.166Z"/><path d="M1166.19 671.375 1170.44 671.375 1170.44 695.813 1166.19 695.813Z"/><path d="M1138.56 695.813 1138.56 688.926 1132.54 695.813Z"/><path d="M1140.69 695.813 1144.94 695.813 1144.94 681.641 1140.69 686.498Z"/><path d="M1147.06 679.875 1151.31 679.875 1151.31 695.813 1147.06 695.813Z"/><path d="M1172.56 671.375 1172.56 695.813 1176.81 695.813 1176.81 669.69 1175.13 671.375Z"/><path d="M1180 638.438C1174.73 638.438 1170.44 642.727 1170.44 648 1170.44 653.273 1174.73 657.563 1180 657.563 1185.27 657.563 1189.56 653.273 1189.56 648 1189.56 642.727 1185.27 638.438 1180 638.438ZM1184.25 645.875 1182.13 645.875 1182.13 644.813 1178.94 644.813C1178.35 644.813 1177.88 645.289 1177.88 645.875 1177.88 646.461 1178.35 646.938 1178.94 646.938L1181.06 646.938C1182.82 646.938 1184.25 648.368 1184.25 650.125 1184.25 651.882 1182.82 653.313 1181.06 653.313L1181.06 655.438 1178.94 655.438 1178.94 653.313 1175.75 653.313 1175.75 650.125 1177.88 650.125 1177.88 651.188 1181.06 651.188C1181.65 651.188 1182.13 650.711 1182.13 650.125 1182.13 649.539 1181.65 649.063 1181.06 649.063L1178.94 649.063C1177.18 649.063 1175.75 647.632 1175.75 645.875 1175.75 644.118 1177.18 642.688 1178.94 642.688L1178.94 640.563 1181.06 640.563 1181.06 642.688 1184.25 642.688Z"/><path d="M1178.94 667.565 1178.94 695.813 1183.19 695.813 1183.19 663.617C1183.07 663.64 1182.95 663.65 1182.83 663.671Z"/><path d="M1180 634.188C1172.38 634.188 1166.19 640.384 1166.19 648 1166.19 655.616 1172.38 661.813 1180 661.813 1187.62 661.813 1193.81 655.616 1193.81 648 1193.81 640.384 1187.62 634.188 1180 634.188ZM1180 659.688C1173.56 659.688 1168.31 654.444 1168.31 648 1168.31 641.556 1173.56 636.313 1180 636.313 1186.44 636.313 1191.69 641.556 1191.69 648 1191.69 654.444 1186.44 659.688 1180 659.688Z"/><path d="M1185.31 695.813 1189.56 695.813 1189.56 660.72C1188.28 661.686 1186.85 662.462 1185.31 663.008Z"/><path d="M1136.44 671.375 1138.56 671.375 1138.56 667.125 1140.69 667.125 1140.69 654.375 1138.56 654.375 1138.56 650.125 1136.44 650.125 1136.44 654.375 1134.31 654.375 1134.31 667.125 1136.44 667.125Z"/><path d="M1144.94 666.063 1147.06 666.063 1147.06 661.813 1149.19 661.813 1149.19 651.188 1147.06 651.188 1147.06 646.938 1144.94 646.938 1144.94 651.188 1142.81 651.188 1142.81 661.813 1144.94 661.813Z"/><path d="M1153.44 658.625 1155.56 658.625 1155.56 654.375 1157.69 654.375 1157.69 645.875 1155.56 645.875 1155.56 641.625 1153.44 641.625 1153.44 645.875 1151.31 645.875 1151.31 654.375 1153.44 654.375Z"/><path d="M1176.57 663.557C1175.78 663.383 1175.01 663.144 1174.27 662.856L1172.12 665 1163.58 665 1156.14 673.5 1143.41 673.5 1130.35 687.654 1131.91 689.095 1144.34 675.625 1157.11 675.625 1164.54 667.125 1173 667.125Z"/></g></g></g><g clip-path="url(#clip34)"><g clip-path="url(#clip35)"><g clip-path="url(#clip36)"><path d="M669.078 682.93C676.897 682.93 683.023 678.554 683.023 672.969L683.023 670.977 678.55 670.977 672.496 649.79C674.701 649.395 676.488 648.96 678.117 648.559 680.87 647.882 683.38 647.31 687.008 647.143L687.008 687.973 670.463 699 707.533 699 690.992 687.973 690.992 647.143C694.62 647.31 697.13 647.882 699.883 648.559 701.512 648.96 703.299 649.395 705.504 649.79L699.45 670.977 694.977 670.977 694.977 672.969C694.977 678.554 701.103 682.93 708.922 682.93 716.741 682.93 723 678.554 723 672.969L723 670.977 718.394 670.977 712.592 650.672C715.429 650.902 718.878 651.055 723 651.055L723 647.07C711.051 647.07 705.937 643.391 701.543 640.146 698.468 637.874 695.54 635.585 690.992 635.092L690.992 631 687.008 631 687.008 635.092C682.46 635.585 679.532 637.874 676.457 640.146 672.063 643.391 666.949 647.07 655 647.07L655 651.055C659.121 651.055 662.57 650.902 665.406 650.672L659.606 670.977 655 670.977 655 672.969C655 678.554 661.259 682.93 669.078 682.93ZM714.249 670.977 703.595 670.977 708.922 652.334ZM669.077 652.331 674.405 670.977 663.751 670.977Z"/></g></g></g><g clip-path="url(#clip37)"><g clip-path="url(#clip38)"><g clip-path="url(#clip39)"><path d="M670.654 799.622 664.938 807.476C663.808 809.029 664.15 811.204 665.703 812.334 666.322 812.784 667.038 813 667.746 813 668.822 813 669.881 812.504 670.562 811.57L676.324 803.653C680.107 805.67 684.421 806.818 689.001 806.818 703.914 806.818 716.046 794.685 716.046 779.772 716.046 772.169 712.888 765.295 707.822 760.377L714.995 750.523C716.125 748.97 715.782 746.796 714.23 745.665 712.673 744.534 710.5 744.88 709.372 746.43L702.254 756.211C698.332 753.996 693.813 752.727 689 752.727 674.086 752.727 661.954 764.859 661.954 779.772 661.954 787.612 665.308 794.678 670.654 799.622ZM709.09 779.772C709.09 790.85 700.079 799.863 688.999 799.863 685.951 799.863 683.07 799.16 680.48 797.941L703.665 766.086C707.02 769.677 709.09 774.483 709.09 779.772ZM689 759.681C692.283 759.681 695.377 760.489 698.115 761.892L674.781 793.952C671.154 790.316 668.907 785.302 668.907 779.773 668.909 768.694 677.921 759.681 689 759.681Z"/></g></g></g><g clip-path="url(#clip40)"><g clip-path="url(#clip41)"><g clip-path="url(#clip42)"><path d="M1129 792.832 1129 813.891 1145.66 813.891 1145.66 782.94ZM1135.64 804.572 1135.64 797.106 1139.59 797.106 1139.59 804.572Z"/><path d="M1197 792.832 1180.32 782.94 1180.32 813.891 1197 813.891ZM1190.77 804.572 1186.82 804.572 1186.82 797.106 1190.77 797.106Z"/><path d="M1149.52 813.891 1157.06 813.891 1157.06 800.266C1157.06 796.992 1159.72 794.328 1162.99 794.328 1166.27 794.328 1168.93 796.992 1168.93 800.266L1168.93 813.891 1176.47 813.891 1176.47 775.187 1187.47 782.113 1189.58 778.764 1164.86 763.196 1164.86 754.338 1169.19 754.338 1169.19 750.379 1164.86 750.379 1164.86 746.109 1160.91 746.109 1160.91 750.379 1156.8 750.379 1156.8 754.338 1160.91 754.338 1160.91 763.333 1136.41 778.764 1138.52 782.113 1149.52 775.187ZM1161.01 776.379 1164.97 776.379 1164.97 784.297 1161.01 784.297Z"/><path d="M1164.97 800.266C1164.97 799.175 1164.09 798.287 1162.99 798.287 1161.9 798.287 1161.01 799.175 1161.01 800.266L1161.01 813.891 1164.97 813.891 1164.97 800.266Z"/></g></g></g><g clip-path="url(#clip43)"><g clip-path="url(#clip44)"><g clip-path="url(#clip45)"><path d="M658.67 911.934C661.511 916.856 668.86 916.728 676.562 914.714 678.866 922.916 682.718 929 688 929 693.281 929 697.132 922.92 699.436 914.721 707.131 916.737 714.48 916.871 717.33 911.934 720.203 906.954 716.395 900.649 710.787 895 716.397 889.349 720.202 883.043 717.33 878.066 714.699 873.505 707.65 873.134 699.42 875.223 697.115 867.053 693.269 861 688 861 682.731 861 678.885 867.052 676.58 875.222 668.353 873.135 661.304 873.506 658.67 878.066 655.797 883.046 659.605 889.351 665.213 895 659.603 900.651 655.798 906.957 658.67 911.934ZM662.121 909.941C660.382 906.932 663.545 902.261 668.125 897.757 670.177 899.571 672.335 901.262 674.431 902.771 674.693 905.571 675.093 908.309 675.634 910.903 668.656 912.661 663.482 912.297 662.121 909.941ZM683.02 886.374C684.446 885.55 686.152 884.673 687.996 883.805 689.821 884.66 691.525 885.533 692.98 886.374 694.302 887.137 695.962 888.2 697.763 889.458 697.886 891.247 697.961 893.092 697.961 895 697.961 896.908 697.886 898.751 697.763 900.539 696.003 901.771 694.351 902.835 692.98 903.626 691.299 904.597 689.636 905.469 687.999 906.268 686.362 905.469 684.7 904.597 683.02 903.626 681.698 902.863 680.038 901.8 678.237 900.542 678.114 898.753 678.039 896.908 678.039 895 678.039 893.092 678.114 891.249 678.237 889.461 679.997 888.229 681.649 887.165 683.02 886.374ZM678.774 884.292C678.964 882.929 679.179 881.605 679.432 880.355 680.69 880.78 681.944 881.241 683.184 881.731 682.46 882.12 681.737 882.513 681.027 882.922 680.323 883.329 679.56 883.796 678.774 884.292ZM692.798 881.72C694.039 881.225 695.297 880.76 696.562 880.329 696.817 881.587 697.035 882.919 697.226 884.292 696.439 883.796 695.676 883.329 694.973 882.922 694.257 882.509 693.528 882.113 692.798 881.72ZM701.899 892.521C702.905 893.31 703.906 894.139 704.888 894.986 703.907 895.837 702.909 896.672 701.899 897.468 701.924 896.644 701.945 895.82 701.945 895 701.945 894.176 701.924 893.348 701.899 892.521ZM697.226 905.708C697.028 907.125 696.802 908.493 696.536 909.787 695.282 909.37 693.983 908.882 692.657 908.345 693.48 907.912 694.266 907.485 694.973 907.078 695.677 906.671 696.44 906.204 697.226 905.708ZM683.341 908.344C682.015 908.88 680.717 909.368 679.464 909.785 679.198 908.491 678.972 907.124 678.774 905.708 679.561 906.204 680.324 906.672 681.027 907.078 681.732 907.484 682.518 907.911 683.341 908.344ZM674.101 897.479C673.095 896.69 672.094 895.861 671.112 895.014 672.093 894.163 673.091 893.328 674.101 892.532 674.076 893.356 674.055 894.18 674.055 895 674.055 895.824 674.076 896.652 674.101 897.479ZM688 925.016C685.269 925.016 682.357 920.552 680.39 913.586 683.023 912.712 685.607 911.679 687.999 910.605 690.388 911.68 692.973 912.715 695.609 913.591 693.642 920.554 690.731 925.016 688 925.016ZM713.879 909.941C712.521 912.301 707.346 912.665 700.365 910.906 700.906 908.311 701.307 905.573 701.569 902.772 703.674 901.257 705.84 899.558 707.897 897.738 712.464 902.203 715.654 906.869 713.879 909.941ZM713.879 880.059C715.618 883.068 712.455 887.739 707.875 892.243 705.823 890.429 703.665 888.738 701.569 887.229 701.308 884.445 700.912 881.724 700.376 879.143 706.607 877.442 712.176 877.109 713.879 880.059ZM688 864.984C690.722 864.984 693.624 869.417 695.591 876.341 693.091 877.164 690.539 878.177 688.001 879.339 685.463 878.176 682.91 877.163 680.41 876.34 682.377 869.417 685.278 864.984 688 864.984ZM662.121 880.059C663.778 877.188 669.341 877.5 675.614 879.189 675.083 881.756 674.69 884.461 674.431 887.228 672.326 888.743 670.16 890.442 668.103 892.262 663.536 887.797 660.346 883.131 662.121 880.059Z"/><path d="M693.977 895C693.977 898.301 691.301 900.977 688 900.977 684.699 900.977 682.023 898.301 682.023 895 682.023 891.699 684.699 889.023 688 889.023 691.301 889.023 693.977 891.699 693.977 895Z"/></g></g></g><g clip-path="url(#clip46)"><g clip-path="url(#clip47)"><g clip-path="url(#clip48)"><path d="M1194.94 875.813 1192.81 875.813C1192.22 875.813 1191.75 875.337 1191.75 874.75 1191.75 874.163 1192.22 873.688 1192.81 873.688L1194.94 873.688C1195.52 873.688 1196 874.163 1196 874.75 1196 875.337 1195.52 875.813 1194.94 875.813Z"/><path d="M1186.44 875.813 1184.31 875.813C1183.72 875.813 1183.25 875.337 1183.25 874.75 1183.25 874.163 1183.72 873.688 1184.31 873.688L1186.44 873.688C1187.02 873.688 1187.5 874.163 1187.5 874.75 1187.5 875.337 1187.02 875.813 1186.44 875.813Z"/><path d="M1189.62 881.125C1189.04 881.125 1188.56 880.649 1188.56 880.063L1188.56 877.938C1188.56 877.351 1189.04 876.875 1189.62 876.875 1190.21 876.875 1190.69 877.351 1190.69 877.938L1190.69 880.063C1190.69 880.649 1190.21 881.125 1189.62 881.125Z"/><path d="M1189.62 872.625C1189.04 872.625 1188.56 872.149 1188.56 871.563L1188.56 869.438C1188.56 868.851 1189.04 868.375 1189.62 868.375 1190.21 868.375 1190.69 868.851 1190.69 869.438L1190.69 871.563C1190.69 872.149 1190.21 872.625 1189.62 872.625Z"/><path d="M1139.69 918.313 1137.56 918.313C1136.97 918.313 1136.5 917.837 1136.5 917.25 1136.5 916.663 1136.97 916.188 1137.56 916.188L1139.69 916.188C1140.27 916.188 1140.75 916.663 1140.75 917.25 1140.75 917.837 1140.27 918.313 1139.69 918.313Z"/><path d="M1131.19 918.313 1129.06 918.313C1128.47 918.313 1128 917.837 1128 917.25 1128 916.663 1128.47 916.188 1129.06 916.188L1131.19 916.188C1131.77 916.188 1132.25 916.663 1132.25 917.25 1132.25 917.837 1131.77 918.313 1131.19 918.313Z"/><path d="M1134.37 923.625C1133.79 923.625 1133.31 923.149 1133.31 922.563L1133.31 920.438C1133.31 919.851 1133.79 919.375 1134.37 919.375 1134.96 919.375 1135.44 919.851 1135.44 920.438L1135.44 922.563C1135.44 923.149 1134.96 923.625 1134.37 923.625Z"/><path d="M1134.37 915.125C1133.79 915.125 1133.31 914.649 1133.31 914.063L1133.31 911.938C1133.31 911.351 1133.79 910.875 1134.37 910.875 1134.96 910.875 1135.44 911.351 1135.44 911.938L1135.44 914.063C1135.44 914.649 1134.96 915.125 1134.37 915.125Z"/><path d="M1150.31 863.063C1150.31 863.649 1149.84 864.125 1149.25 864.125 1148.66 864.125 1148.19 863.649 1148.19 863.063 1148.19 862.476 1148.66 862 1149.25 862 1149.84 862 1150.31 862.476 1150.31 863.063Z"/><path d="M1175.81 863.063C1175.81 863.649 1175.34 864.125 1174.75 864.125 1174.16 864.125 1173.69 863.649 1173.69 863.063 1173.69 862.476 1174.16 862 1174.75 862 1175.34 862 1175.81 862.476 1175.81 863.063Z"/><path d="M1162.98 928.534C1162.95 928.466 1162.92 928.402 1162.88 928.343 1162.84 928.287 1162.8 928.234 1162.75 928.183 1162.33 927.772 1161.66 927.78 1161.24 928.202 1160.84 928.616 1160.84 929.278 1161.24 929.692 1161.3 929.734 1161.35 929.777 1161.4 929.819 1161.46 929.859 1161.53 929.892 1161.6 929.915 1161.66 929.946 1161.72 929.967 1161.79 929.979 1161.93 930.007 1162.07 930.007 1162.21 929.979 1162.28 929.967 1162.34 929.946 1162.4 929.915 1162.47 929.892 1162.54 929.859 1162.59 929.819L1162.75 929.692C1162.95 929.488 1163.06 929.219 1163.06 928.938 1163.06 928.87 1163.05 928.802 1163.04 928.736 1163.03 928.665 1163.01 928.597 1162.98 928.534Z"/><path d="M1181.12 887.5C1181.12 877.313 1173.11 868.985 1163.06 868.429L1163.06 864.125 1170.5 864.125C1171.09 864.125 1171.56 863.649 1171.56 863.063 1171.56 862.476 1171.09 862 1170.5 862L1153.5 862C1152.91 862 1152.44 862.476 1152.44 863.063 1152.44 863.649 1152.91 864.125 1153.5 864.125L1160.94 864.125 1160.94 868.429C1150.89 868.985 1142.87 877.313 1142.87 887.501 1142.87 897.688 1150.89 906.016 1160.94 906.573L1160.94 910.072 1155.94 915.072C1155.52 915.487 1155.52 916.159 1155.94 916.574L1160.94 921.575 1160.94 924.688C1160.94 925.274 1161.41 925.75 1162 925.75 1162.59 925.75 1163.06 925.274 1163.06 924.688L1163.06 921.575 1168.06 916.574C1168.48 916.159 1168.48 915.487 1168.06 915.072L1163.06 910.07 1163.06 906.572C1173.11 906.015 1181.12 897.687 1181.12 887.5ZM1158.81 892.813C1157.64 892.811 1156.69 891.861 1156.69 890.688L1156.69 885.375C1156.69 884.788 1157.16 884.313 1157.75 884.313 1158.34 884.313 1158.81 884.788 1158.81 885.375L1158.81 890.688 1165.19 890.688 1165.19 884.313 1160.94 884.313C1160.35 884.313 1159.87 883.837 1159.87 883.25 1159.87 882.663 1160.35 882.188 1160.94 882.188L1165.19 882.188C1166.36 882.189 1167.31 883.139 1167.31 884.313L1167.31 890.688C1167.31 891.861 1166.36 892.811 1165.19 892.813ZM1165.19 896C1165.19 896.587 1164.71 897.063 1164.12 897.063L1159.87 897.063C1159.29 897.063 1158.81 896.587 1158.81 896 1158.81 895.413 1159.29 894.938 1159.87 894.938L1164.12 894.938C1164.71 894.937 1165.19 895.413 1165.19 896 1165.19 896 1165.19 896 1165.19 896ZM1164.12 880.063 1159.87 880.063C1159.29 880.063 1158.81 879.587 1158.81 879 1158.81 878.413 1159.29 877.938 1159.87 877.938L1164.12 877.938C1164.71 877.938 1165.19 878.413 1165.19 879 1165.19 879.587 1164.71 880.063 1164.12 880.063ZM1159.87 874.032 1159.87 874.095C1159.87 874.583 1159.53 875.002 1159.05 875.106 1157.97 875.365 1156.93 875.765 1155.95 876.295 1155.54 876.525 1155.03 876.459 1154.7 876.133L1154.65 876.085C1154.25 875.679 1154.25 875.021 1154.65 874.616 1154.72 874.547 1154.8 874.489 1154.89 874.441 1156.05 873.804 1157.3 873.327 1158.59 873.023 1159.15 872.891 1159.71 873.237 1159.85 873.797 1159.86 873.874 1159.87 873.953 1159.87 874.033ZM1152.44 885.375C1152.44 884.788 1152.91 884.313 1153.5 884.313 1154.09 884.313 1154.56 884.788 1154.56 885.375L1154.56 889.625C1154.56 890.212 1154.09 890.688 1153.5 890.688 1152.91 890.688 1152.44 890.212 1152.44 889.625ZM1165.81 915.823 1162 919.633 1158.19 915.823 1162 912.013ZM1161.22 902.355C1153.99 901.982 1147.96 896.288 1147.21 889.098 1146.82 885.537 1147.74 881.955 1149.79 879.018 1150.12 878.531 1150.79 878.409 1151.28 878.745 1151.33 878.781 1151.38 878.821 1151.42 878.866 1151.78 879.219 1151.84 879.78 1151.56 880.198 1150.07 882.319 1149.26 884.848 1149.25 887.443 1149.22 894.22 1154.73 899.983 1161.5 900.24 1168.54 900.516 1174.46 895.038 1174.74 888.006 1174.97 881.929 1170.88 876.53 1164.97 875.115 1164.48 875.008 1164.13 874.579 1164.12 874.079 1164.12 873.491 1164.6 873.015 1165.19 873.016 1165.27 873.016 1165.35 873.025 1165.43 873.044 1171.98 874.597 1176.87 880.481 1176.87 887.5 1176.86 895.724 1170.19 902.384 1161.97 902.375 1161.72 902.374 1161.47 902.368 1161.22 902.355ZM1169.44 889.625 1169.44 885.375C1169.44 884.788 1169.91 884.313 1170.5 884.313 1171.09 884.313 1171.56 884.788 1171.56 885.375L1171.56 889.625C1171.56 890.212 1171.09 890.688 1170.5 890.688 1169.91 890.688 1169.44 890.212 1169.44 889.625Z"/></g></g></g><g clip-path="url(#clip49)"><g clip-path="url(#clip50)"><g clip-path="url(#clip51)"><path d="M702.847 989.846C697.488 989.846 692.613 991.953 689 995.375 685.387 991.952 680.513 989.846 675.154 989.846 664.041 989.846 655 998.887 655 1010 655 1021.11 664.041 1030.15 675.154 1030.15 680.513 1030.15 685.386 1028.05 689 1024.62 692.613 1028.05 697.488 1030.15 702.847 1030.15 713.959 1030.15 723 1021.11 723 1010 723 998.887 713.959 989.846 702.847 989.846ZM675.154 1028.34C665.038 1028.34 656.81 1020.11 656.81 1010 656.81 999.886 665.039 991.656 675.154 991.656 680.025 991.656 684.447 993.577 687.734 996.686 684.6 1000.24 682.692 1004.9 682.692 1010 682.692 1015.1 684.599 1019.76 687.734 1023.32 684.447 1026.42 680.025 1028.34 675.154 1028.34ZM684.501 1010C684.501 1005.41 686.207 1001.22 689 998.004 691.793 1001.22 693.499 1005.41 693.499 1010 693.499 1014.59 691.793 1018.78 689 1022 686.207 1018.78 684.501 1014.59 684.501 1010ZM702.847 1028.34C697.976 1028.34 693.553 1026.42 690.266 1023.31 693.401 1019.76 695.309 1015.1 695.309 1010 695.309 1004.9 693.401 1000.24 690.266 996.684 693.553 993.576 697.976 991.654 702.847 991.654 712.962 991.654 721.19 999.884 721.19 1010 721.19 1020.11 712.962 1028.34 702.847 1028.34ZM690.201 1001.52 687.524 1001.52 687.524 1000.61 690.201 1000.61 690.201 1001.52ZM687.769 1018.48 690.446 1018.48 690.446 1019.39 687.769 1019.39 687.769 1018.48ZM692.049 1004.72 686.167 1004.72 686.167 1003.82 692.049 1003.82 692.049 1004.72ZM692.615 1007.62 685.131 1007.62 685.131 1006.72 692.615 1006.72 692.615 1007.62ZM692.878 1009.7 692.878 1010.6 685.121 1010.6 685.121 1009.7 692.878 1009.7ZM685.508 1012.66 692.489 1012.66 692.489 1013.56 685.508 1013.56 685.508 1012.66ZM686.167 1015.54 691.484 1015.54 691.484 1016.45 686.167 1016.45 686.167 1015.54Z"/></g></g></g><g clip-path="url(#clip52)"><g clip-path="url(#clip53)"><g clip-path="url(#clip54)"><path d="M1176.85 990.846C1171.49 990.846 1166.61 992.953 1163 996.375 1159.39 992.952 1154.51 990.846 1149.15 990.846 1138.04 990.846 1129 999.887 1129 1011 1129 1022.11 1138.04 1031.15 1149.15 1031.15 1154.51 1031.15 1159.39 1029.05 1163 1025.62 1166.61 1029.05 1171.49 1031.15 1176.85 1031.15 1187.96 1031.15 1197 1022.11 1197 1011 1197 999.887 1187.96 990.846 1176.85 990.846ZM1149.15 1029.34C1139.04 1029.34 1130.81 1021.11 1130.81 1011 1130.81 1000.89 1139.04 992.656 1149.15 992.656 1154.02 992.656 1158.45 994.577 1161.73 997.686 1158.6 1001.24 1156.69 1005.9 1156.69 1011 1156.69 1016.1 1158.6 1020.76 1161.73 1024.32 1158.45 1027.42 1154.02 1029.34 1149.15 1029.34ZM1158.5 1011C1158.5 1006.41 1160.21 1002.22 1163 999.004 1165.79 1002.22 1167.5 1006.41 1167.5 1011 1167.5 1015.59 1165.79 1019.78 1163 1023 1160.21 1019.78 1158.5 1015.59 1158.5 1011ZM1176.85 1029.34C1171.98 1029.34 1167.55 1027.42 1164.27 1024.31 1167.4 1020.76 1169.31 1016.1 1169.31 1011 1169.31 1005.9 1167.4 1001.24 1164.27 997.684 1167.55 994.576 1171.98 992.654 1176.85 992.654 1186.96 992.654 1195.19 1000.88 1195.19 1011 1195.19 1021.11 1186.96 1029.34 1176.85 1029.34ZM1133.07 1005.76 1132.43 1005.12 1143.65 993.908 1144.29 994.548 1133.07 1005.76ZM1132.28 1010.83 1131.64 1010.19 1148.2 993.634 1148.84 994.274 1132.28 1010.83ZM1156.5 1009.56 1139.94 1026.11 1139.3 1025.47 1155.86 1008.92 1156.5 1009.56ZM1156.5 1014.52 1143.55 1027.48 1142.91 1026.84 1155.86 1013.88 1156.5 1014.52ZM1146.37 1027.92 1156.88 1017.4 1157.52 1018.04 1147.01 1028.56 1146.37 1027.92ZM1150.59 1028.29 1158.48 1020.41 1159.12 1021.05 1151.23 1028.93 1150.59 1028.29ZM1152.59 994.788 1132.35 1015.03 1131.71 1014.39 1151.95 994.148 1152.59 994.788ZM1155.97 995.599 1133.53 1018.04 1132.89 1017.4 1155.33 994.959 1155.97 995.599ZM1159.34 996.938 1134.98 1021.3 1134.34 1020.66 1158.7 996.298 1159.34 996.938ZM1156.95 1004.16 1137.11 1024 1136.47 1023.36 1156.31 1003.52 1156.95 1004.16ZM1193.11 1005.76 1181.9 994.548 1182.54 993.908 1193.75 1005.12 1193.11 1005.76ZM1193.9 1010.83 1177.34 994.275 1177.98 993.635 1194.54 1010.19 1193.9 1010.83ZM1170.32 1008.92 1186.88 1025.47 1186.24 1026.11 1169.68 1009.56 1170.32 1008.92ZM1170.32 1013.88 1183.27 1026.84 1182.63 1027.48 1169.68 1014.52 1170.32 1013.88ZM1169.3 1017.4 1179.81 1027.92 1179.17 1028.56 1168.66 1018.04 1169.3 1017.4ZM1167.7 1020.41 1175.59 1028.3 1174.95 1028.93 1167.06 1021.05 1167.7 1020.41ZM1174.23 994.148 1194.47 1014.39 1193.83 1015.03 1173.59 994.788 1174.23 994.148ZM1170.85 994.959 1193.3 1017.4 1192.66 1018.04 1170.21 995.599 1170.85 994.959ZM1167.48 996.298 1191.84 1020.66 1191.2 1021.3 1166.84 996.938 1167.48 996.298ZM1169.87 1003.52 1189.71 1023.36 1189.07 1024 1169.23 1004.16 1169.87 1003.52ZM1164.09 1002.37 1161.42 1002.37 1161.42 1001.46 1164.09 1001.46 1164.09 1002.37ZM1161.66 1019.33 1164.34 1019.33 1164.34 1020.24 1161.66 1020.24 1161.66 1019.33ZM1165.94 1005.57 1160.06 1005.57 1160.06 1004.67 1165.94 1004.67 1165.94 1005.57ZM1166.51 1008.47 1159.02 1008.47 1159.02 1007.57 1166.51 1007.57 1166.51 1008.47ZM1166.77 1010.55 1166.77 1011.45 1159.01 1011.45 1159.01 1010.55 1166.77 1010.55ZM1159.4 1013.51 1166.38 1013.51 1166.38 1014.41 1159.4 1014.41 1159.4 1013.51ZM1160.06 1016.39 1165.38 1016.39 1165.38 1017.3 1160.06 1017.3 1160.06 1016.39Z"/></g></g></g><text font-family="Roboto,Roboto_MSFontService,sans-serif" font-weight="400" font-size="24" transform="translate(892.439 978)">N<tspan font-size="19" x="17.1666" y="0">EUTRE</tspan></text></g></svg>