<svg width="456" height="93" xmlns="http://www.w3.org/2000/svg" xmlns:xlink="http://www.w3.org/1999/xlink" overflow="hidden"><defs><clipPath id="clip0"><rect x="553" y="617" width="456" height="93"/></clipPath></defs><g clip-path="url(#clip0)" transform="translate(-553 -617)"><text font-family="Calibri,Calibri_MSFontService,sans-serif" font-weight="700" font-size="21" transform="translate(648.957 665)">Églises Catholiques Orientales<tspan font-size="21" x="103.947" y="25">(1,3%)</tspan></text><path d="M554.132 617.847 712.872 617.847 712.872 640.524 554.132 640.524Z" fill="#FFFFFF" fill-rule="evenodd"/><path d="M712.872 617.847 735.55 617.847 735.55 640.524 712.872 640.524Z" fill="#264653" fill-rule="evenodd"/><path d="M735.55 617.847 758.227 617.847 758.227 640.524 735.55 640.524Z" fill="#264653" fill-rule="evenodd"/><path d="M758.227 617.847 780.904 617.847 780.904 640.524 758.227 640.524Z" fill="#264653" fill-rule="evenodd"/><path d="M780.904 617.847 803.581 617.847 803.581 640.524 780.904 640.524Z" fill="#264653" fill-rule="evenodd"/><path d="M803.581 617.847 826.258 617.847 826.258 640.524 803.581 640.524Z" fill="#264653" fill-rule="evenodd"/><path d="M826.258 617.847 848.935 617.847 848.935 640.524 826.258 640.524Z" fill="#264653" fill-rule="evenodd"/><path d="M848.935 617.847 871.613 617.847 871.613 640.524 848.935 640.524Z" fill="#264653" fill-rule="evenodd"/><path d="M871.613 617.847 1007.68 617.847 1007.68 640.524 871.613 640.524Z" fill="#FFFFFF" fill-rule="evenodd"/><path d="M712.872 617.18 712.872 641.191" stroke="#000000" stroke-width="1.33333" stroke-linejoin="round" stroke-miterlimit="10" fill="none" fill-rule="evenodd"/><path d="M735.55 617.18 735.55 641.191" stroke="#000000" stroke-width="1.33333" stroke-linejoin="round" stroke-miterlimit="10" fill="none" fill-rule="evenodd"/><path d="M758.227 617.18 758.227 641.191" stroke="#000000" stroke-width="1.33333" stroke-linejoin="round" stroke-miterlimit="10" fill="none" fill-rule="evenodd"/><path d="M780.904 617.18 780.904 641.191" stroke="#000000" stroke-width="1.33333" stroke-linejoin="round" stroke-miterlimit="10" fill="none" fill-rule="evenodd"/><path d="M803.581 617.18 803.581 641.191" stroke="#000000" stroke-width="1.33333" stroke-linejoin="round" stroke-miterlimit="10" fill="none" fill-rule="evenodd"/><path d="M826.258 617.18 826.258 641.191" stroke="#000000" stroke-width="1.33333" stroke-linejoin="round" stroke-miterlimit="10" fill="none" fill-rule="evenodd"/><path d="M848.935 617.18 848.935 641.191" stroke="#000000" stroke-width="1.33333" stroke-linejoin="round" stroke-miterlimit="10" fill="none" fill-rule="evenodd"/><path d="M871.613 617.18 871.613 641.191" stroke="#000000" stroke-width="1.33333" stroke-linejoin="round" stroke-miterlimit="10" fill="none" fill-rule="evenodd"/><path d="M712.206 617.847 872.279 617.847" stroke="#000000" stroke-width="1.33333" stroke-linejoin="round" stroke-miterlimit="10" fill="none" fill-rule="evenodd"/><path d="M712.206 640.524 872.279 640.524" stroke="#000000" stroke-width="1.33333" stroke-linejoin="round" stroke-miterlimit="10" fill="none" fill-rule="evenodd"/></g></svg>