<svg width="457" height="479" xmlns="http://www.w3.org/2000/svg" xmlns:xlink="http://www.w3.org/1999/xlink" overflow="hidden"><defs><clipPath id="clip0"><rect x="548" y="231" width="457" height="479"/></clipPath></defs><g clip-path="url(#clip0)" transform="translate(-548 -231)"><path d="M549.011 232.335 571.688 232.335 571.688 255.012 549.011 255.012Z" fill="#2A9D8F" fill-rule="evenodd"/><path d="M571.688 232.335 594.365 232.335 594.365 255.012 571.688 255.012Z" fill="#2A9D8F" fill-rule="evenodd"/><path d="M594.365 232.335 617.042 232.335 617.042 255.012 594.365 255.012Z" fill="#2A9D8F" fill-rule="evenodd"/><path d="M617.042 232.335 639.719 232.335 639.719 255.012 617.042 255.012Z" fill="#2A9D8F" fill-rule="evenodd"/><path d="M639.719 232.335 662.397 232.335 662.397 255.012 639.719 255.012Z" fill="#2A9D8F" fill-rule="evenodd"/><path d="M662.397 232.335 685.074 232.335 685.074 255.012 662.397 255.012Z" fill="#2A9D8F" fill-rule="evenodd"/><path d="M685.074 232.335 707.751 232.335 707.751 255.012 685.074 255.012Z" fill="#2A9D8F" fill-rule="evenodd"/><path d="M707.751 232.335 730.428 232.335 730.428 255.012 707.751 255.012Z" fill="#2A9D8F" fill-rule="evenodd"/><path d="M730.428 232.335 753.105 232.335 753.105 255.012 730.428 255.012Z" fill="#2A9D8F" fill-rule="evenodd"/><path d="M753.105 232.335 775.782 232.335 775.782 255.012 753.105 255.012Z" fill="#2A9D8F" fill-rule="evenodd"/><path d="M775.782 232.335 798.46 232.335 798.46 255.012 775.782 255.012Z" fill="#2A9D8F" fill-rule="evenodd"/><path d="M798.46 232.335 821.137 232.335 821.137 255.012 798.46 255.012Z" fill="#2A9D8F" fill-rule="evenodd"/><path d="M821.137 232.335 843.814 232.335 843.814 255.012 821.137 255.012Z" fill="#2A9D8F" fill-rule="evenodd"/><path d="M843.814 232.335 866.491 232.335 866.491 255.012 843.814 255.012Z" fill="#2A9D8F" fill-rule="evenodd"/><path d="M866.491 232.335 889.168 232.335 889.168 255.012 866.491 255.012Z" fill="#2A9D8F" fill-rule="evenodd"/><path d="M889.168 232.335 911.845 232.335 911.845 255.012 889.168 255.012Z" fill="#2A9D8F" fill-rule="evenodd"/><path d="M911.845 232.335 934.523 232.335 934.523 255.012 911.845 255.012Z" fill="#2A9D8F" fill-rule="evenodd"/><path d="M934.523 232.335 1002.55 232.335 1002.55 255.012 934.523 255.012Z" fill="#FFFFFF" fill-rule="evenodd"/><path d="M549.011 255.012 571.688 255.012 571.688 277.689 549.011 277.689Z" fill="#2A9D8F" fill-rule="evenodd"/><path d="M571.688 255.012 594.365 255.012 594.365 277.689 571.688 277.689Z" fill="#2A9D8F" fill-rule="evenodd"/><path d="M594.365 255.012 617.042 255.012 617.042 277.689 594.365 277.689Z" fill="#2A9D8F" fill-rule="evenodd"/><path d="M617.042 255.012 639.719 255.012 639.719 277.689 617.042 277.689Z" fill="#2A9D8F" fill-rule="evenodd"/><path d="M639.719 255.012 662.397 255.012 662.397 277.689 639.719 277.689Z" fill="#2A9D8F" fill-rule="evenodd"/><path d="M662.397 255.012 685.074 255.012 685.074 277.689 662.397 277.689Z" fill="#2A9D8F" fill-rule="evenodd"/><path d="M685.074 255.012 707.751 255.012 707.751 277.689 685.074 277.689Z" fill="#2A9D8F" fill-rule="evenodd"/><path d="M707.751 255.012 730.428 255.012 730.428 277.689 707.751 277.689Z" fill="#2A9D8F" fill-rule="evenodd"/><path d="M730.428 255.012 753.105 255.012 753.105 277.689 730.428 277.689Z" fill="#2A9D8F" fill-rule="evenodd"/><path d="M753.105 255.012 775.782 255.012 775.782 277.689 753.105 277.689Z" fill="#2A9D8F" fill-rule="evenodd"/><path d="M775.782 255.012 798.46 255.012 798.46 277.689 775.782 277.689Z" fill="#2A9D8F" fill-rule="evenodd"/><path d="M798.46 255.012 821.137 255.012 821.137 277.689 798.46 277.689Z" fill="#2A9D8F" fill-rule="evenodd"/><path d="M821.137 255.012 843.814 255.012 843.814 277.689 821.137 277.689Z" fill="#2A9D8F" fill-rule="evenodd"/><path d="M843.814 255.012 866.491 255.012 866.491 277.689 843.814 277.689Z" fill="#2A9D8F" fill-rule="evenodd"/><path d="M866.491 255.012 889.168 255.012 889.168 277.689 866.491 277.689Z" fill="#2A9D8F" fill-rule="evenodd"/><path d="M889.168 255.012 911.845 255.012 911.845 277.689 889.168 277.689Z" fill="#2A9D8F" fill-rule="evenodd"/><path d="M911.845 255.012 934.523 255.012 934.523 277.689 911.845 277.689Z" fill="#2A9D8F" fill-rule="evenodd"/><path d="M934.523 255.012 957.2 255.012 957.2 277.689 934.523 277.689Z" fill="#2A9D8F" fill-rule="evenodd"/><path d="M957.2 255.012 979.877 255.012 979.877 277.689 957.2 277.689Z" fill="#2A9D8F" fill-rule="evenodd"/><path d="M979.877 255.012 1002.55 255.012 1002.55 277.689 979.877 277.689Z" fill="#2A9D8F" fill-rule="evenodd"/><path d="M549.011 277.689 571.688 277.689 571.688 300.367 549.011 300.367Z" fill="#2A9D8F" fill-rule="evenodd"/><path d="M571.688 277.689 594.365 277.689 594.365 300.367 571.688 300.367Z" fill="#2A9D8F" fill-rule="evenodd"/><path d="M594.365 277.689 617.042 277.689 617.042 300.367 594.365 300.367Z" fill="#2A9D8F" fill-rule="evenodd"/><path d="M617.042 277.689 639.719 277.689 639.719 300.367 617.042 300.367Z" fill="#2A9D8F" fill-rule="evenodd"/><path d="M639.719 277.689 662.397 277.689 662.397 300.367 639.719 300.367Z" fill="#2A9D8F" fill-rule="evenodd"/><path d="M662.397 277.689 685.074 277.689 685.074 300.367 662.397 300.367Z" fill="#2A9D8F" fill-rule="evenodd"/><path d="M685.074 277.689 707.751 277.689 707.751 300.367 685.074 300.367Z" fill="#2A9D8F" fill-rule="evenodd"/><path d="M707.751 277.689 730.428 277.689 730.428 300.367 707.751 300.367Z" fill="#2A9D8F" fill-rule="evenodd"/><path d="M730.428 277.689 753.105 277.689 753.105 300.367 730.428 300.367Z" fill="#2A9D8F" fill-rule="evenodd"/><path d="M753.105 277.689 775.782 277.689 775.782 300.367 753.105 300.367Z" fill="#2A9D8F" fill-rule="evenodd"/><path d="M775.782 277.689 798.46 277.689 798.46 300.367 775.782 300.367Z" fill="#2A9D8F" fill-rule="evenodd"/><path d="M798.46 277.689 821.137 277.689 821.137 300.367 798.46 300.367Z" fill="#2A9D8F" fill-rule="evenodd"/><path d="M821.137 277.689 843.814 277.689 843.814 300.367 821.137 300.367Z" fill="#2A9D8F" fill-rule="evenodd"/><path d="M843.814 277.689 866.491 277.689 866.491 300.367 843.814 300.367Z" fill="#2A9D8F" fill-rule="evenodd"/><path d="M866.491 277.689 889.168 277.689 889.168 300.367 866.491 300.367Z" fill="#2A9D8F" fill-rule="evenodd"/><path d="M889.168 277.689 911.845 277.689 911.845 300.367 889.168 300.367Z" fill="#2A9D8F" fill-rule="evenodd"/><path d="M911.845 277.689 934.523 277.689 934.523 300.367 911.845 300.367Z" fill="#2A9D8F" fill-rule="evenodd"/><path d="M934.523 277.689 957.2 277.689 957.2 300.367 934.523 300.367Z" fill="#2A9D8F" fill-rule="evenodd"/><path d="M957.2 277.689 979.877 277.689 979.877 300.367 957.2 300.367Z" fill="#2A9D8F" fill-rule="evenodd"/><path d="M979.877 277.689 1002.55 277.689 1002.55 300.367 979.877 300.367Z" fill="#2A9D8F" fill-rule="evenodd"/><path d="M549.011 300.367 571.688 300.367 571.688 323.044 549.011 323.044Z" fill="#2A9D8F" fill-rule="evenodd"/><path d="M571.688 300.367 594.365 300.367 594.365 323.044 571.688 323.044Z" fill="#2A9D8F" fill-rule="evenodd"/><path d="M594.365 300.367 617.042 300.367 617.042 323.044 594.365 323.044Z" fill="#2A9D8F" fill-rule="evenodd"/><path d="M617.042 300.367 639.719 300.367 639.719 323.044 617.042 323.044Z" fill="#2A9D8F" fill-rule="evenodd"/><path d="M639.719 300.367 662.397 300.367 662.397 323.044 639.719 323.044Z" fill="#2A9D8F" fill-rule="evenodd"/><path d="M662.397 300.367 685.074 300.367 685.074 323.044 662.397 323.044Z" fill="#2A9D8F" fill-rule="evenodd"/><path d="M685.074 300.367 707.751 300.367 707.751 323.044 685.074 323.044Z" fill="#2A9D8F" fill-rule="evenodd"/><path d="M707.751 300.367 730.428 300.367 730.428 323.044 707.751 323.044Z" fill="#2A9D8F" fill-rule="evenodd"/><path d="M730.428 300.367 753.105 300.367 753.105 323.044 730.428 323.044Z" fill="#2A9D8F" fill-rule="evenodd"/><path d="M753.105 300.367 775.782 300.367 775.782 323.044 753.105 323.044Z" fill="#2A9D8F" fill-rule="evenodd"/><path d="M775.782 300.367 798.46 300.367 798.46 323.044 775.782 323.044Z" fill="#2A9D8F" fill-rule="evenodd"/><path d="M798.46 300.367 821.137 300.367 821.137 323.044 798.46 323.044Z" fill="#2A9D8F" fill-rule="evenodd"/><path d="M821.137 300.367 843.814 300.367 843.814 323.044 821.137 323.044Z" fill="#2A9D8F" fill-rule="evenodd"/><path d="M843.814 300.367 866.491 300.367 866.491 323.044 843.814 323.044Z" fill="#2A9D8F" fill-rule="evenodd"/><path d="M866.491 300.367 889.168 300.367 889.168 323.044 866.491 323.044Z" fill="#2A9D8F" fill-rule="evenodd"/><path d="M889.168 300.367 911.845 300.367 911.845 323.044 889.168 323.044Z" fill="#2A9D8F" fill-rule="evenodd"/><path d="M911.845 300.367 934.523 300.367 934.523 323.044 911.845 323.044Z" fill="#2A9D8F" fill-rule="evenodd"/><path d="M934.523 300.367 957.2 300.367 957.2 323.044 934.523 323.044Z" fill="#2A9D8F" fill-rule="evenodd"/><path d="M957.2 300.367 979.877 300.367 979.877 323.044 957.2 323.044Z" fill="#2A9D8F" fill-rule="evenodd"/><path d="M979.877 300.367 1002.55 300.367 1002.55 323.044 979.877 323.044Z" fill="#2A9D8F" fill-rule="evenodd"/><path d="M549.011 323.044 571.688 323.044 571.688 345.721 549.011 345.721Z" fill="#2A9D8F" fill-rule="evenodd"/><path d="M571.688 323.044 594.365 323.044 594.365 345.721 571.688 345.721Z" fill="#2A9D8F" fill-rule="evenodd"/><path d="M594.365 323.044 617.042 323.044 617.042 345.721 594.365 345.721Z" fill="#2A9D8F" fill-rule="evenodd"/><path d="M617.042 323.044 639.719 323.044 639.719 345.721 617.042 345.721Z" fill="#2A9D8F" fill-rule="evenodd"/><path d="M639.719 323.044 662.397 323.044 662.397 345.721 639.719 345.721Z" fill="#2A9D8F" fill-rule="evenodd"/><path d="M662.397 323.044 685.074 323.044 685.074 345.721 662.397 345.721Z" fill="#2A9D8F" fill-rule="evenodd"/><path d="M685.074 323.044 707.751 323.044 707.751 345.721 685.074 345.721Z" fill="#2A9D8F" fill-rule="evenodd"/><path d="M707.751 323.044 730.428 323.044 730.428 345.721 707.751 345.721Z" fill="#2A9D8F" fill-rule="evenodd"/><path d="M730.428 323.044 753.105 323.044 753.105 345.721 730.428 345.721Z" fill="#2A9D8F" fill-rule="evenodd"/><path d="M753.105 323.044 775.782 323.044 775.782 345.721 753.105 345.721Z" fill="#2A9D8F" fill-rule="evenodd"/><path d="M775.782 323.044 798.46 323.044 798.46 345.721 775.782 345.721Z" fill="#2A9D8F" fill-rule="evenodd"/><path d="M798.46 323.044 821.137 323.044 821.137 345.721 798.46 345.721Z" fill="#2A9D8F" fill-rule="evenodd"/><path d="M821.137 323.044 843.814 323.044 843.814 345.721 821.137 345.721Z" fill="#2A9D8F" fill-rule="evenodd"/><path d="M843.814 323.044 866.491 323.044 866.491 345.721 843.814 345.721Z" fill="#2A9D8F" fill-rule="evenodd"/><path d="M866.491 323.044 889.168 323.044 889.168 345.721 866.491 345.721Z" fill="#2A9D8F" fill-rule="evenodd"/><path d="M889.168 323.044 911.845 323.044 911.845 345.721 889.168 345.721Z" fill="#2A9D8F" fill-rule="evenodd"/><path d="M911.845 323.044 934.523 323.044 934.523 345.721 911.845 345.721Z" fill="#2A9D8F" fill-rule="evenodd"/><path d="M934.523 323.044 957.2 323.044 957.2 345.721 934.523 345.721Z" fill="#2A9D8F" fill-rule="evenodd"/><path d="M957.2 323.044 979.877 323.044 979.877 345.721 957.2 345.721Z" fill="#2A9D8F" fill-rule="evenodd"/><path d="M979.877 323.044 1002.55 323.044 1002.55 345.721 979.877 345.721Z" fill="#2A9D8F" fill-rule="evenodd"/><path d="M549.011 345.721 571.688 345.721 571.688 368.398 549.011 368.398Z" fill="#2A9D8F" fill-rule="evenodd"/><path d="M571.688 345.721 594.365 345.721 594.365 368.398 571.688 368.398Z" fill="#2A9D8F" fill-rule="evenodd"/><path d="M594.365 345.721 617.042 345.721 617.042 368.398 594.365 368.398Z" fill="#2A9D8F" fill-rule="evenodd"/><path d="M617.042 345.721 639.719 345.721 639.719 368.398 617.042 368.398Z" fill="#2A9D8F" fill-rule="evenodd"/><path d="M639.719 345.721 662.397 345.721 662.397 368.398 639.719 368.398Z" fill="#2A9D8F" fill-rule="evenodd"/><path d="M662.397 345.721 685.074 345.721 685.074 368.398 662.397 368.398Z" fill="#2A9D8F" fill-rule="evenodd"/><path d="M685.074 345.721 707.751 345.721 707.751 368.398 685.074 368.398Z" fill="#2A9D8F" fill-rule="evenodd"/><path d="M707.751 345.721 730.428 345.721 730.428 368.398 707.751 368.398Z" fill="#2A9D8F" fill-rule="evenodd"/><path d="M730.428 345.721 753.105 345.721 753.105 368.398 730.428 368.398Z" fill="#2A9D8F" fill-rule="evenodd"/><path d="M753.105 345.721 775.782 345.721 775.782 368.398 753.105 368.398Z" fill="#2A9D8F" fill-rule="evenodd"/><path d="M775.782 345.721 798.46 345.721 798.46 368.398 775.782 368.398Z" fill="#2A9D8F" fill-rule="evenodd"/><path d="M798.46 345.721 821.137 345.721 821.137 368.398 798.46 368.398Z" fill="#2A9D8F" fill-rule="evenodd"/><path d="M821.137 345.721 843.814 345.721 843.814 368.398 821.137 368.398Z" fill="#2A9D8F" fill-rule="evenodd"/><path d="M843.814 345.721 866.491 345.721 866.491 368.398 843.814 368.398Z" fill="#2A9D8F" fill-rule="evenodd"/><path d="M866.491 345.721 889.168 345.721 889.168 368.398 866.491 368.398Z" fill="#2A9D8F" fill-rule="evenodd"/><path d="M889.168 345.721 911.845 345.721 911.845 368.398 889.168 368.398Z" fill="#2A9D8F" fill-rule="evenodd"/><path d="M911.845 345.721 934.523 345.721 934.523 368.398 911.845 368.398Z" fill="#2A9D8F" fill-rule="evenodd"/><path d="M934.523 345.721 957.2 345.721 957.2 368.398 934.523 368.398Z" fill="#2A9D8F" fill-rule="evenodd"/><path d="M957.2 345.721 979.877 345.721 979.877 368.398 957.2 368.398Z" fill="#2A9D8F" fill-rule="evenodd"/><path d="M979.877 345.721 1002.55 345.721 1002.55 368.398 979.877 368.398Z" fill="#2A9D8F" fill-rule="evenodd"/><path d="M549.011 368.398 571.688 368.398 571.688 391.075 549.011 391.075Z" fill="#2A9D8F" fill-rule="evenodd"/><path d="M571.688 368.398 594.365 368.398 594.365 391.075 571.688 391.075Z" fill="#2A9D8F" fill-rule="evenodd"/><path d="M594.365 368.398 617.042 368.398 617.042 391.075 594.365 391.075Z" fill="#2A9D8F" fill-rule="evenodd"/><path d="M617.042 368.398 639.719 368.398 639.719 391.075 617.042 391.075Z" fill="#2A9D8F" fill-rule="evenodd"/><path d="M639.719 368.398 662.397 368.398 662.397 391.075 639.719 391.075Z" fill="#2A9D8F" fill-rule="evenodd"/><path d="M662.397 368.398 685.074 368.398 685.074 391.075 662.397 391.075Z" fill="#2A9D8F" fill-rule="evenodd"/><path d="M685.074 368.398 707.751 368.398 707.751 391.075 685.074 391.075Z" fill="#2A9D8F" fill-rule="evenodd"/><path d="M707.751 368.398 730.428 368.398 730.428 391.075 707.751 391.075Z" fill="#2A9D8F" fill-rule="evenodd"/><path d="M730.428 368.398 753.105 368.398 753.105 391.075 730.428 391.075Z" fill="#2A9D8F" fill-rule="evenodd"/><path d="M753.105 368.398 775.782 368.398 775.782 391.075 753.105 391.075Z" fill="#2A9D8F" fill-rule="evenodd"/><path d="M775.782 368.398 798.46 368.398 798.46 391.075 775.782 391.075Z" fill="#2A9D8F" fill-rule="evenodd"/><path d="M798.46 368.398 821.137 368.398 821.137 391.075 798.46 391.075Z" fill="#2A9D8F" fill-rule="evenodd"/><path d="M821.137 368.398 843.814 368.398 843.814 391.075 821.137 391.075Z" fill="#2A9D8F" fill-rule="evenodd"/><path d="M843.814 368.398 866.491 368.398 866.491 391.075 843.814 391.075Z" fill="#2A9D8F" fill-rule="evenodd"/><path d="M866.491 368.398 889.168 368.398 889.168 391.075 866.491 391.075Z" fill="#2A9D8F" fill-rule="evenodd"/><path d="M889.168 368.398 911.845 368.398 911.845 391.075 889.168 391.075Z" fill="#2A9D8F" fill-rule="evenodd"/><path d="M911.845 368.398 934.523 368.398 934.523 391.075 911.845 391.075Z" fill="#2A9D8F" fill-rule="evenodd"/><path d="M934.523 368.398 957.2 368.398 957.2 391.075 934.523 391.075Z" fill="#2A9D8F" fill-rule="evenodd"/><path d="M957.2 368.398 979.877 368.398 979.877 391.075 957.2 391.075Z" fill="#2A9D8F" fill-rule="evenodd"/><path d="M979.877 368.398 1002.55 368.398 1002.55 391.075 979.877 391.075Z" fill="#2A9D8F" fill-rule="evenodd"/><path d="M549.011 391.075 571.688 391.075 571.688 413.752 549.011 413.752Z" fill="#2A9D8F" fill-rule="evenodd"/><path d="M571.688 391.075 594.365 391.075 594.365 413.752 571.688 413.752Z" fill="#2A9D8F" fill-rule="evenodd"/><path d="M594.365 391.075 617.042 391.075 617.042 413.752 594.365 413.752Z" fill="#2A9D8F" fill-rule="evenodd"/><path d="M617.042 391.075 639.719 391.075 639.719 413.752 617.042 413.752Z" fill="#2A9D8F" fill-rule="evenodd"/><path d="M639.719 391.075 662.397 391.075 662.397 413.752 639.719 413.752Z" fill="#2A9D8F" fill-rule="evenodd"/><path d="M662.397 391.075 685.074 391.075 685.074 413.752 662.397 413.752Z" fill="#2A9D8F" fill-rule="evenodd"/><path d="M685.074 391.075 707.751 391.075 707.751 413.752 685.074 413.752Z" fill="#2A9D8F" fill-rule="evenodd"/><path d="M707.751 391.075 730.428 391.075 730.428 413.752 707.751 413.752Z" fill="#2A9D8F" fill-rule="evenodd"/><path d="M730.428 391.075 753.105 391.075 753.105 413.752 730.428 413.752Z" fill="#2A9D8F" fill-rule="evenodd"/><path d="M753.105 391.075 775.782 391.075 775.782 413.752 753.105 413.752Z" fill="#2A9D8F" fill-rule="evenodd"/><path d="M775.782 391.075 798.46 391.075 798.46 413.752 775.782 413.752Z" fill="#2A9D8F" fill-rule="evenodd"/><path d="M798.46 391.075 821.137 391.075 821.137 413.752 798.46 413.752Z" fill="#2A9D8F" fill-rule="evenodd"/><path d="M821.137 391.075 843.814 391.075 843.814 413.752 821.137 413.752Z" fill="#2A9D8F" fill-rule="evenodd"/><path d="M843.814 391.075 866.491 391.075 866.491 413.752 843.814 413.752Z" fill="#2A9D8F" fill-rule="evenodd"/><path d="M866.491 391.075 889.168 391.075 889.168 413.752 866.491 413.752Z" fill="#2A9D8F" fill-rule="evenodd"/><path d="M889.168 391.075 911.845 391.075 911.845 413.752 889.168 413.752Z" fill="#2A9D8F" fill-rule="evenodd"/><path d="M911.845 391.075 934.523 391.075 934.523 413.752 911.845 413.752Z" fill="#2A9D8F" fill-rule="evenodd"/><path d="M934.523 391.075 957.2 391.075 957.2 413.752 934.523 413.752Z" fill="#2A9D8F" fill-rule="evenodd"/><path d="M957.2 391.075 979.877 391.075 979.877 413.752 957.2 413.752Z" fill="#2A9D8F" fill-rule="evenodd"/><path d="M979.877 391.075 1002.55 391.075 1002.55 413.752 979.877 413.752Z" fill="#2A9D8F" fill-rule="evenodd"/><path d="M549.011 413.752 571.688 413.752 571.688 436.43 549.011 436.43Z" fill="#2A9D8F" fill-rule="evenodd"/><path d="M571.688 413.752 594.365 413.752 594.365 436.43 571.688 436.43Z" fill="#2A9D8F" fill-rule="evenodd"/><path d="M594.365 413.752 617.042 413.752 617.042 436.43 594.365 436.43Z" fill="#2A9D8F" fill-rule="evenodd"/><path d="M617.042 413.752 639.719 413.752 639.719 436.43 617.042 436.43Z" fill="#2A9D8F" fill-rule="evenodd"/><path d="M639.719 413.752 662.397 413.752 662.397 436.43 639.719 436.43Z" fill="#2A9D8F" fill-rule="evenodd"/><path d="M662.397 413.752 685.074 413.752 685.074 436.43 662.397 436.43Z" fill="#2A9D8F" fill-rule="evenodd"/><path d="M685.074 413.752 707.751 413.752 707.751 436.43 685.074 436.43Z" fill="#2A9D8F" fill-rule="evenodd"/><path d="M707.751 413.752 730.428 413.752 730.428 436.43 707.751 436.43Z" fill="#2A9D8F" fill-rule="evenodd"/><path d="M730.428 413.752 753.105 413.752 753.105 436.43 730.428 436.43Z" fill="#2A9D8F" fill-rule="evenodd"/><path d="M753.105 413.752 775.782 413.752 775.782 436.43 753.105 436.43Z" fill="#2A9D8F" fill-rule="evenodd"/><path d="M775.782 413.752 798.46 413.752 798.46 436.43 775.782 436.43Z" fill="#2A9D8F" fill-rule="evenodd"/><path d="M798.46 413.752 821.137 413.752 821.137 436.43 798.46 436.43Z" fill="#2A9D8F" fill-rule="evenodd"/><path d="M821.137 413.752 843.814 413.752 843.814 436.43 821.137 436.43Z" fill="#2A9D8F" fill-rule="evenodd"/><path d="M843.814 413.752 866.491 413.752 866.491 436.43 843.814 436.43Z" fill="#2A9D8F" fill-rule="evenodd"/><path d="M866.491 413.752 889.168 413.752 889.168 436.43 866.491 436.43Z" fill="#2A9D8F" fill-rule="evenodd"/><path d="M889.168 413.752 911.845 413.752 911.845 436.43 889.168 436.43Z" fill="#2A9D8F" fill-rule="evenodd"/><path d="M911.845 413.752 934.523 413.752 934.523 436.43 911.845 436.43Z" fill="#2A9D8F" fill-rule="evenodd"/><path d="M934.523 413.752 957.2 413.752 957.2 436.43 934.523 436.43Z" fill="#2A9D8F" fill-rule="evenodd"/><path d="M957.2 413.752 979.877 413.752 979.877 436.43 957.2 436.43Z" fill="#2A9D8F" fill-rule="evenodd"/><path d="M979.877 413.752 1002.55 413.752 1002.55 436.43 979.877 436.43Z" fill="#2A9D8F" fill-rule="evenodd"/><path d="M549.011 436.43 571.688 436.43 571.688 459.107 549.011 459.107Z" fill="#2A9D8F" fill-rule="evenodd"/><path d="M571.688 436.43 594.365 436.43 594.365 459.107 571.688 459.107Z" fill="#2A9D8F" fill-rule="evenodd"/><path d="M594.365 436.43 617.042 436.43 617.042 459.107 594.365 459.107Z" fill="#2A9D8F" fill-rule="evenodd"/><path d="M617.042 436.43 639.719 436.43 639.719 459.107 617.042 459.107Z" fill="#2A9D8F" fill-rule="evenodd"/><path d="M639.719 436.43 662.397 436.43 662.397 459.107 639.719 459.107Z" fill="#2A9D8F" fill-rule="evenodd"/><path d="M662.397 436.43 685.074 436.43 685.074 459.107 662.397 459.107Z" fill="#2A9D8F" fill-rule="evenodd"/><path d="M685.074 436.43 707.751 436.43 707.751 459.107 685.074 459.107Z" fill="#2A9D8F" fill-rule="evenodd"/><path d="M707.751 436.43 730.428 436.43 730.428 459.107 707.751 459.107Z" fill="#2A9D8F" fill-rule="evenodd"/><path d="M730.428 436.43 753.105 436.43 753.105 459.107 730.428 459.107Z" fill="#2A9D8F" fill-rule="evenodd"/><path d="M753.105 436.43 775.782 436.43 775.782 459.107 753.105 459.107Z" fill="#2A9D8F" fill-rule="evenodd"/><path d="M775.782 436.43 798.46 436.43 798.46 459.107 775.782 459.107Z" fill="#2A9D8F" fill-rule="evenodd"/><path d="M798.46 436.43 821.137 436.43 821.137 459.107 798.46 459.107Z" fill="#2A9D8F" fill-rule="evenodd"/><path d="M821.137 436.43 843.814 436.43 843.814 459.107 821.137 459.107Z" fill="#2A9D8F" fill-rule="evenodd"/><path d="M843.814 436.43 866.491 436.43 866.491 459.107 843.814 459.107Z" fill="#2A9D8F" fill-rule="evenodd"/><path d="M866.491 436.43 889.168 436.43 889.168 459.107 866.491 459.107Z" fill="#2A9D8F" fill-rule="evenodd"/><path d="M889.168 436.43 911.845 436.43 911.845 459.107 889.168 459.107Z" fill="#2A9D8F" fill-rule="evenodd"/><path d="M911.845 436.43 934.523 436.43 934.523 459.107 911.845 459.107Z" fill="#2A9D8F" fill-rule="evenodd"/><path d="M934.523 436.43 957.2 436.43 957.2 459.107 934.523 459.107Z" fill="#2A9D8F" fill-rule="evenodd"/><path d="M957.2 436.43 979.877 436.43 979.877 459.107 957.2 459.107Z" fill="#2A9D8F" fill-rule="evenodd"/><path d="M979.877 436.43 1002.55 436.43 1002.55 459.107 979.877 459.107Z" fill="#2A9D8F" fill-rule="evenodd"/><path d="M549.011 459.107 571.688 459.107 571.688 481.784 549.011 481.784Z" fill="#2A9D8F" fill-rule="evenodd"/><path d="M571.688 459.107 594.365 459.107 594.365 481.784 571.688 481.784Z" fill="#2A9D8F" fill-rule="evenodd"/><path d="M594.365 459.107 617.042 459.107 617.042 481.784 594.365 481.784Z" fill="#2A9D8F" fill-rule="evenodd"/><path d="M617.042 459.107 639.719 459.107 639.719 481.784 617.042 481.784Z" fill="#2A9D8F" fill-rule="evenodd"/><path d="M639.719 459.107 662.397 459.107 662.397 481.784 639.719 481.784Z" fill="#2A9D8F" fill-rule="evenodd"/><path d="M662.397 459.107 685.074 459.107 685.074 481.784 662.397 481.784Z" fill="#2A9D8F" fill-rule="evenodd"/><path d="M685.074 459.107 707.751 459.107 707.751 481.784 685.074 481.784Z" fill="#2A9D8F" fill-rule="evenodd"/><path d="M707.751 459.107 730.428 459.107 730.428 481.784 707.751 481.784Z" fill="#2A9D8F" fill-rule="evenodd"/><path d="M730.428 459.107 753.105 459.107 753.105 481.784 730.428 481.784Z" fill="#2A9D8F" fill-rule="evenodd"/><path d="M753.105 459.107 775.782 459.107 775.782 481.784 753.105 481.784Z" fill="#2A9D8F" fill-rule="evenodd"/><path d="M775.782 459.107 798.46 459.107 798.46 481.784 775.782 481.784Z" fill="#2A9D8F" fill-rule="evenodd"/><path d="M798.46 459.107 821.137 459.107 821.137 481.784 798.46 481.784Z" fill="#2A9D8F" fill-rule="evenodd"/><path d="M821.137 459.107 843.814 459.107 843.814 481.784 821.137 481.784Z" fill="#2A9D8F" fill-rule="evenodd"/><path d="M843.814 459.107 866.491 459.107 866.491 481.784 843.814 481.784Z" fill="#2A9D8F" fill-rule="evenodd"/><path d="M866.491 459.107 889.168 459.107 889.168 481.784 866.491 481.784Z" fill="#2A9D8F" fill-rule="evenodd"/><path d="M889.168 459.107 911.845 459.107 911.845 481.784 889.168 481.784Z" fill="#2A9D8F" fill-rule="evenodd"/><path d="M911.845 459.107 934.523 459.107 934.523 481.784 911.845 481.784Z" fill="#2A9D8F" fill-rule="evenodd"/><path d="M934.523 459.107 957.2 459.107 957.2 481.784 934.523 481.784Z" fill="#2A9D8F" fill-rule="evenodd"/><path d="M957.2 459.107 979.877 459.107 979.877 481.784 957.2 481.784Z" fill="#2A9D8F" fill-rule="evenodd"/><path d="M979.877 459.107 1002.55 459.107 1002.55 481.784 979.877 481.784Z" fill="#2A9D8F" fill-rule="evenodd"/><path d="M549.011 481.784 571.688 481.784 571.688 504.461 549.011 504.461Z" fill="#2A9D8F" fill-rule="evenodd"/><path d="M571.688 481.784 594.365 481.784 594.365 504.461 571.688 504.461Z" fill="#2A9D8F" fill-rule="evenodd"/><path d="M594.365 481.784 617.042 481.784 617.042 504.461 594.365 504.461Z" fill="#2A9D8F" fill-rule="evenodd"/><path d="M617.042 481.784 639.719 481.784 639.719 504.461 617.042 504.461Z" fill="#2A9D8F" fill-rule="evenodd"/><path d="M639.719 481.784 662.397 481.784 662.397 504.461 639.719 504.461Z" fill="#2A9D8F" fill-rule="evenodd"/><path d="M662.397 481.784 685.074 481.784 685.074 504.461 662.397 504.461Z" fill="#2A9D8F" fill-rule="evenodd"/><path d="M685.074 481.784 707.751 481.784 707.751 504.461 685.074 504.461Z" fill="#2A9D8F" fill-rule="evenodd"/><path d="M707.751 481.784 730.428 481.784 730.428 504.461 707.751 504.461Z" fill="#2A9D8F" fill-rule="evenodd"/><path d="M730.428 481.784 753.105 481.784 753.105 504.461 730.428 504.461Z" fill="#2A9D8F" fill-rule="evenodd"/><path d="M753.105 481.784 775.782 481.784 775.782 504.461 753.105 504.461Z" fill="#2A9D8F" fill-rule="evenodd"/><path d="M775.782 481.784 798.46 481.784 798.46 504.461 775.782 504.461Z" fill="#2A9D8F" fill-rule="evenodd"/><path d="M798.46 481.784 821.137 481.784 821.137 504.461 798.46 504.461Z" fill="#2A9D8F" fill-rule="evenodd"/><path d="M821.137 481.784 843.814 481.784 843.814 504.461 821.137 504.461Z" fill="#2A9D8F" fill-rule="evenodd"/><path d="M843.814 481.784 866.491 481.784 866.491 504.461 843.814 504.461Z" fill="#2A9D8F" fill-rule="evenodd"/><path d="M866.491 481.784 889.168 481.784 889.168 504.461 866.491 504.461Z" fill="#2A9D8F" fill-rule="evenodd"/><path d="M889.168 481.784 911.845 481.784 911.845 504.461 889.168 504.461Z" fill="#2A9D8F" fill-rule="evenodd"/><path d="M911.845 481.784 934.523 481.784 934.523 504.461 911.845 504.461Z" fill="#2A9D8F" fill-rule="evenodd"/><path d="M934.523 481.784 957.2 481.784 957.2 504.461 934.523 504.461Z" fill="#2A9D8F" fill-rule="evenodd"/><path d="M957.2 481.784 979.877 481.784 979.877 504.461 957.2 504.461Z" fill="#2A9D8F" fill-rule="evenodd"/><path d="M979.877 481.784 1002.55 481.784 1002.55 504.461 979.877 504.461Z" fill="#2A9D8F" fill-rule="evenodd"/><path d="M549.011 504.461 571.688 504.461 571.688 527.138 549.011 527.138Z" fill="#2A9D8F" fill-rule="evenodd"/><path d="M571.688 504.461 594.365 504.461 594.365 527.138 571.688 527.138Z" fill="#2A9D8F" fill-rule="evenodd"/><path d="M594.365 504.461 617.042 504.461 617.042 527.138 594.365 527.138Z" fill="#2A9D8F" fill-rule="evenodd"/><path d="M617.042 504.461 639.719 504.461 639.719 527.138 617.042 527.138Z" fill="#2A9D8F" fill-rule="evenodd"/><path d="M639.719 504.461 662.397 504.461 662.397 527.138 639.719 527.138Z" fill="#2A9D8F" fill-rule="evenodd"/><path d="M662.397 504.461 685.074 504.461 685.074 527.138 662.397 527.138Z" fill="#2A9D8F" fill-rule="evenodd"/><path d="M685.074 504.461 707.751 504.461 707.751 527.138 685.074 527.138Z" fill="#2A9D8F" fill-rule="evenodd"/><path d="M707.751 504.461 730.428 504.461 730.428 527.138 707.751 527.138Z" fill="#2A9D8F" fill-rule="evenodd"/><path d="M730.428 504.461 753.105 504.461 753.105 527.138 730.428 527.138Z" fill="#2A9D8F" fill-rule="evenodd"/><path d="M753.105 504.461 775.782 504.461 775.782 527.138 753.105 527.138Z" fill="#2A9D8F" fill-rule="evenodd"/><path d="M775.782 504.461 798.46 504.461 798.46 527.138 775.782 527.138Z" fill="#2A9D8F" fill-rule="evenodd"/><path d="M798.46 504.461 821.137 504.461 821.137 527.138 798.46 527.138Z" fill="#2A9D8F" fill-rule="evenodd"/><path d="M821.137 504.461 843.814 504.461 843.814 527.138 821.137 527.138Z" fill="#2A9D8F" fill-rule="evenodd"/><path d="M843.814 504.461 866.491 504.461 866.491 527.138 843.814 527.138Z" fill="#2A9D8F" fill-rule="evenodd"/><path d="M866.491 504.461 889.168 504.461 889.168 527.138 866.491 527.138Z" fill="#2A9D8F" fill-rule="evenodd"/><path d="M889.168 504.461 911.845 504.461 911.845 527.138 889.168 527.138Z" fill="#2A9D8F" fill-rule="evenodd"/><path d="M911.845 504.461 934.523 504.461 934.523 527.138 911.845 527.138Z" fill="#2A9D8F" fill-rule="evenodd"/><path d="M934.523 504.461 957.2 504.461 957.2 527.138 934.523 527.138Z" fill="#2A9D8F" fill-rule="evenodd"/><path d="M957.2 504.461 979.877 504.461 979.877 527.138 957.2 527.138Z" fill="#2A9D8F" fill-rule="evenodd"/><path d="M979.877 504.461 1002.55 504.461 1002.55 527.138 979.877 527.138Z" fill="#2A9D8F" fill-rule="evenodd"/><path d="M549.011 527.138 571.688 527.138 571.688 549.815 549.011 549.815Z" fill="#2A9D8F" fill-rule="evenodd"/><path d="M571.688 527.138 594.365 527.138 594.365 549.815 571.688 549.815Z" fill="#2A9D8F" fill-rule="evenodd"/><path d="M594.365 527.138 617.042 527.138 617.042 549.815 594.365 549.815Z" fill="#2A9D8F" fill-rule="evenodd"/><path d="M617.042 527.138 639.719 527.138 639.719 549.815 617.042 549.815Z" fill="#2A9D8F" fill-rule="evenodd"/><path d="M639.719 527.138 662.397 527.138 662.397 549.815 639.719 549.815Z" fill="#2A9D8F" fill-rule="evenodd"/><path d="M662.397 527.138 685.074 527.138 685.074 549.815 662.397 549.815Z" fill="#2A9D8F" fill-rule="evenodd"/><path d="M685.074 527.138 707.751 527.138 707.751 549.815 685.074 549.815Z" fill="#2A9D8F" fill-rule="evenodd"/><path d="M707.751 527.138 730.428 527.138 730.428 549.815 707.751 549.815Z" fill="#2A9D8F" fill-rule="evenodd"/><path d="M730.428 527.138 753.105 527.138 753.105 549.815 730.428 549.815Z" fill="#2A9D8F" fill-rule="evenodd"/><path d="M753.105 527.138 775.782 527.138 775.782 549.815 753.105 549.815Z" fill="#2A9D8F" fill-rule="evenodd"/><path d="M775.782 527.138 798.46 527.138 798.46 549.815 775.782 549.815Z" fill="#2A9D8F" fill-rule="evenodd"/><path d="M798.46 527.138 821.137 527.138 821.137 549.815 798.46 549.815Z" fill="#2A9D8F" fill-rule="evenodd"/><path d="M821.137 527.138 843.814 527.138 843.814 549.815 821.137 549.815Z" fill="#2A9D8F" fill-rule="evenodd"/><path d="M843.814 527.138 866.491 527.138 866.491 549.815 843.814 549.815Z" fill="#2A9D8F" fill-rule="evenodd"/><path d="M866.491 527.138 889.168 527.138 889.168 549.815 866.491 549.815Z" fill="#2A9D8F" fill-rule="evenodd"/><path d="M889.168 527.138 911.845 527.138 911.845 549.815 889.168 549.815Z" fill="#2A9D8F" fill-rule="evenodd"/><path d="M911.845 527.138 934.523 527.138 934.523 549.815 911.845 549.815Z" fill="#2A9D8F" fill-rule="evenodd"/><path d="M934.523 527.138 957.2 527.138 957.2 549.815 934.523 549.815Z" fill="#2A9D8F" fill-rule="evenodd"/><path d="M957.2 527.138 979.877 527.138 979.877 549.815 957.2 549.815Z" fill="#2A9D8F" fill-rule="evenodd"/><path d="M979.877 527.138 1002.55 527.138 1002.55 549.815 979.877 549.815Z" fill="#2A9D8F" fill-rule="evenodd"/><path d="M549.011 549.815 571.688 549.815 571.688 572.493 549.011 572.493Z" fill="#2A9D8F" fill-rule="evenodd"/><path d="M571.688 549.815 594.365 549.815 594.365 572.493 571.688 572.493Z" fill="#2A9D8F" fill-rule="evenodd"/><path d="M594.365 549.815 617.042 549.815 617.042 572.493 594.365 572.493Z" fill="#2A9D8F" fill-rule="evenodd"/><path d="M617.042 549.815 639.719 549.815 639.719 572.493 617.042 572.493Z" fill="#2A9D8F" fill-rule="evenodd"/><path d="M639.719 549.815 662.397 549.815 662.397 572.493 639.719 572.493Z" fill="#2A9D8F" fill-rule="evenodd"/><path d="M662.397 549.815 685.074 549.815 685.074 572.493 662.397 572.493Z" fill="#2A9D8F" fill-rule="evenodd"/><path d="M685.074 549.815 707.751 549.815 707.751 572.493 685.074 572.493Z" fill="#2A9D8F" fill-rule="evenodd"/><path d="M707.751 549.815 730.428 549.815 730.428 572.493 707.751 572.493Z" fill="#2A9D8F" fill-rule="evenodd"/><path d="M730.428 549.815 753.105 549.815 753.105 572.493 730.428 572.493Z" fill="#2A9D8F" fill-rule="evenodd"/><path d="M753.105 549.815 775.782 549.815 775.782 572.493 753.105 572.493Z" fill="#2A9D8F" fill-rule="evenodd"/><path d="M775.782 549.815 798.46 549.815 798.46 572.493 775.782 572.493Z" fill="#2A9D8F" fill-rule="evenodd"/><path d="M798.46 549.815 821.137 549.815 821.137 572.493 798.46 572.493Z" fill="#2A9D8F" fill-rule="evenodd"/><path d="M821.137 549.815 843.814 549.815 843.814 572.493 821.137 572.493Z" fill="#2A9D8F" fill-rule="evenodd"/><path d="M843.814 549.815 866.491 549.815 866.491 572.493 843.814 572.493Z" fill="#2A9D8F" fill-rule="evenodd"/><path d="M866.491 549.815 889.168 549.815 889.168 572.493 866.491 572.493Z" fill="#2A9D8F" fill-rule="evenodd"/><path d="M889.168 549.815 911.845 549.815 911.845 572.493 889.168 572.493Z" fill="#2A9D8F" fill-rule="evenodd"/><path d="M911.845 549.815 934.523 549.815 934.523 572.493 911.845 572.493Z" fill="#2A9D8F" fill-rule="evenodd"/><path d="M934.523 549.815 957.2 549.815 957.2 572.493 934.523 572.493Z" fill="#2A9D8F" fill-rule="evenodd"/><path d="M957.2 549.815 979.877 549.815 979.877 572.493 957.2 572.493Z" fill="#2A9D8F" fill-rule="evenodd"/><path d="M979.877 549.815 1002.55 549.815 1002.55 572.493 979.877 572.493Z" fill="#2A9D8F" fill-rule="evenodd"/><path d="M549.011 572.493 571.688 572.493 571.688 595.17 549.011 595.17Z" fill="#2A9D8F" fill-rule="evenodd"/><path d="M571.688 572.493 594.365 572.493 594.365 595.17 571.688 595.17Z" fill="#2A9D8F" fill-rule="evenodd"/><path d="M594.365 572.493 617.042 572.493 617.042 595.17 594.365 595.17Z" fill="#2A9D8F" fill-rule="evenodd"/><path d="M617.042 572.493 639.719 572.493 639.719 595.17 617.042 595.17Z" fill="#2A9D8F" fill-rule="evenodd"/><path d="M639.719 572.493 662.397 572.493 662.397 595.17 639.719 595.17Z" fill="#2A9D8F" fill-rule="evenodd"/><path d="M662.397 572.493 685.074 572.493 685.074 595.17 662.397 595.17Z" fill="#2A9D8F" fill-rule="evenodd"/><path d="M685.074 572.493 707.751 572.493 707.751 595.17 685.074 595.17Z" fill="#2A9D8F" fill-rule="evenodd"/><path d="M707.751 572.493 730.428 572.493 730.428 595.17 707.751 595.17Z" fill="#2A9D8F" fill-rule="evenodd"/><path d="M730.428 572.493 753.105 572.493 753.105 595.17 730.428 595.17Z" fill="#2A9D8F" fill-rule="evenodd"/><path d="M753.105 572.493 775.782 572.493 775.782 595.17 753.105 595.17Z" fill="#2A9D8F" fill-rule="evenodd"/><path d="M775.782 572.493 798.46 572.493 798.46 595.17 775.782 595.17Z" fill="#2A9D8F" fill-rule="evenodd"/><path d="M798.46 572.493 821.137 572.493 821.137 595.17 798.46 595.17Z" fill="#2A9D8F" fill-rule="evenodd"/><path d="M821.137 572.493 843.814 572.493 843.814 595.17 821.137 595.17Z" fill="#2A9D8F" fill-rule="evenodd"/><path d="M843.814 572.493 866.491 572.493 866.491 595.17 843.814 595.17Z" fill="#2A9D8F" fill-rule="evenodd"/><path d="M866.491 572.493 889.168 572.493 889.168 595.17 866.491 595.17Z" fill="#2A9D8F" fill-rule="evenodd"/><path d="M889.168 572.493 911.845 572.493 911.845 595.17 889.168 595.17Z" fill="#2A9D8F" fill-rule="evenodd"/><path d="M911.845 572.493 934.523 572.493 934.523 595.17 911.845 595.17Z" fill="#2A9D8F" fill-rule="evenodd"/><path d="M934.523 572.493 957.2 572.493 957.2 595.17 934.523 595.17Z" fill="#2A9D8F" fill-rule="evenodd"/><path d="M957.2 572.493 979.877 572.493 979.877 595.17 957.2 595.17Z" fill="#2A9D8F" fill-rule="evenodd"/><path d="M979.877 572.493 1002.55 572.493 1002.55 595.17 979.877 595.17Z" fill="#2A9D8F" fill-rule="evenodd"/><path d="M549.011 595.17 571.688 595.17 571.688 617.847 549.011 617.847Z" fill="#2A9D8F" fill-rule="evenodd"/><path d="M571.688 595.17 594.365 595.17 594.365 617.847 571.688 617.847Z" fill="#2A9D8F" fill-rule="evenodd"/><path d="M594.365 595.17 617.042 595.17 617.042 617.847 594.365 617.847Z" fill="#2A9D8F" fill-rule="evenodd"/><path d="M617.042 595.17 639.719 595.17 639.719 617.847 617.042 617.847Z" fill="#2A9D8F" fill-rule="evenodd"/><path d="M639.719 595.17 662.397 595.17 662.397 617.847 639.719 617.847Z" fill="#2A9D8F" fill-rule="evenodd"/><path d="M662.397 595.17 685.074 595.17 685.074 617.847 662.397 617.847Z" fill="#2A9D8F" fill-rule="evenodd"/><path d="M685.074 595.17 707.751 595.17 707.751 617.847 685.074 617.847Z" fill="#2A9D8F" fill-rule="evenodd"/><path d="M707.751 595.17 730.428 595.17 730.428 617.847 707.751 617.847Z" fill="#2A9D8F" fill-rule="evenodd"/><path d="M730.428 595.17 753.105 595.17 753.105 617.847 730.428 617.847Z" fill="#2A9D8F" fill-rule="evenodd"/><path d="M753.105 595.17 775.782 595.17 775.782 617.847 753.105 617.847Z" fill="#2A9D8F" fill-rule="evenodd"/><path d="M775.782 595.17 798.46 595.17 798.46 617.847 775.782 617.847Z" fill="#2A9D8F" fill-rule="evenodd"/><path d="M798.46 595.17 821.137 595.17 821.137 617.847 798.46 617.847Z" fill="#2A9D8F" fill-rule="evenodd"/><path d="M821.137 595.17 843.814 595.17 843.814 617.847 821.137 617.847Z" fill="#2A9D8F" fill-rule="evenodd"/><path d="M843.814 595.17 866.491 595.17 866.491 617.847 843.814 617.847Z" fill="#2A9D8F" fill-rule="evenodd"/><path d="M866.491 595.17 889.168 595.17 889.168 617.847 866.491 617.847Z" fill="#2A9D8F" fill-rule="evenodd"/><path d="M889.168 595.17 911.845 595.17 911.845 617.847 889.168 617.847Z" fill="#2A9D8F" fill-rule="evenodd"/><path d="M911.845 595.17 934.523 595.17 934.523 617.847 911.845 617.847Z" fill="#2A9D8F" fill-rule="evenodd"/><path d="M934.523 595.17 957.2 595.17 957.2 617.847 934.523 617.847Z" fill="#2A9D8F" fill-rule="evenodd"/><path d="M957.2 595.17 979.877 595.17 979.877 617.847 957.2 617.847Z" fill="#2A9D8F" fill-rule="evenodd"/><path d="M979.877 595.17 1002.55 595.17 1002.55 617.847 979.877 617.847Z" fill="#2A9D8F" fill-rule="evenodd"/><path d="M549.011 617.847 571.688 617.847 571.688 640.524 549.011 640.524Z" fill="#2A9D8F" fill-rule="evenodd"/><path d="M571.688 617.847 594.365 617.847 594.365 640.524 571.688 640.524Z" fill="#2A9D8F" fill-rule="evenodd"/><path d="M594.365 617.847 617.042 617.847 617.042 640.524 594.365 640.524Z" fill="#2A9D8F" fill-rule="evenodd"/><path d="M617.042 617.847 639.719 617.847 639.719 640.524 617.042 640.524Z" fill="#2A9D8F" fill-rule="evenodd"/><path d="M639.719 617.847 662.397 617.847 662.397 640.524 639.719 640.524Z" fill="#2A9D8F" fill-rule="evenodd"/><path d="M662.397 617.847 685.074 617.847 685.074 640.524 662.397 640.524Z" fill="#2A9D8F" fill-rule="evenodd"/><path d="M685.074 617.847 707.751 617.847 707.751 640.524 685.074 640.524Z" fill="#2A9D8F" fill-rule="evenodd"/><path d="M707.751 617.847 730.428 617.847 730.428 640.524 707.751 640.524Z" fill="#2A9D8F" fill-rule="evenodd"/><path d="M730.428 617.847 753.105 617.847 753.105 640.524 730.428 640.524Z" fill="#2A9D8F" fill-rule="evenodd"/><path d="M753.105 617.847 775.782 617.847 775.782 640.524 753.105 640.524Z" fill="#2A9D8F" fill-rule="evenodd"/><path d="M775.782 617.847 798.46 617.847 798.46 640.524 775.782 640.524Z" fill="#2A9D8F" fill-rule="evenodd"/><path d="M798.46 617.847 821.137 617.847 821.137 640.524 798.46 640.524Z" fill="#2A9D8F" fill-rule="evenodd"/><path d="M821.137 617.847 843.814 617.847 843.814 640.524 821.137 640.524Z" fill="#2A9D8F" fill-rule="evenodd"/><path d="M843.814 617.847 866.491 617.847 866.491 640.524 843.814 640.524Z" fill="#2A9D8F" fill-rule="evenodd"/><path d="M866.491 617.847 889.168 617.847 889.168 640.524 866.491 640.524Z" fill="#2A9D8F" fill-rule="evenodd"/><path d="M889.168 617.847 911.845 617.847 911.845 640.524 889.168 640.524Z" fill="#2A9D8F" fill-rule="evenodd"/><path d="M911.845 617.847 934.523 617.847 934.523 640.524 911.845 640.524Z" fill="#2A9D8F" fill-rule="evenodd"/><path d="M934.523 617.847 957.2 617.847 957.2 640.524 934.523 640.524Z" fill="#2A9D8F" fill-rule="evenodd"/><path d="M957.2 617.847 979.877 617.847 979.877 640.524 957.2 640.524Z" fill="#2A9D8F" fill-rule="evenodd"/><path d="M979.877 617.847 1002.55 617.847 1002.55 640.524 979.877 640.524Z" fill="#2A9D8F" fill-rule="evenodd"/><path d="M571.688 231.668 571.688 641.191" stroke="#000000" stroke-width="1.33333" stroke-linejoin="round" stroke-miterlimit="10" fill="none" fill-rule="evenodd"/><path d="M594.365 231.668 594.365 641.191" stroke="#000000" stroke-width="1.33333" stroke-linejoin="round" stroke-miterlimit="10" fill="none" fill-rule="evenodd"/><path d="M617.042 231.668 617.042 641.191" stroke="#000000" stroke-width="1.33333" stroke-linejoin="round" stroke-miterlimit="10" fill="none" fill-rule="evenodd"/><path d="M639.719 231.668 639.719 641.191" stroke="#000000" stroke-width="1.33333" stroke-linejoin="round" stroke-miterlimit="10" fill="none" fill-rule="evenodd"/><path d="M662.397 231.668 662.397 641.191" stroke="#000000" stroke-width="1.33333" stroke-linejoin="round" stroke-miterlimit="10" fill="none" fill-rule="evenodd"/><path d="M685.074 231.668 685.074 641.191" stroke="#000000" stroke-width="1.33333" stroke-linejoin="round" stroke-miterlimit="10" fill="none" fill-rule="evenodd"/><path d="M707.751 231.668 707.751 641.191" stroke="#000000" stroke-width="1.33333" stroke-linejoin="round" stroke-miterlimit="10" fill="none" fill-rule="evenodd"/><path d="M730.428 231.668 730.428 641.191" stroke="#000000" stroke-width="1.33333" stroke-linejoin="round" stroke-miterlimit="10" fill="none" fill-rule="evenodd"/><path d="M753.105 231.668 753.105 641.191" stroke="#000000" stroke-width="1.33333" stroke-linejoin="round" stroke-miterlimit="10" fill="none" fill-rule="evenodd"/><path d="M775.782 231.668 775.782 641.191" stroke="#000000" stroke-width="1.33333" stroke-linejoin="round" stroke-miterlimit="10" fill="none" fill-rule="evenodd"/><path d="M798.46 231.668 798.46 641.191" stroke="#000000" stroke-width="1.33333" stroke-linejoin="round" stroke-miterlimit="10" fill="none" fill-rule="evenodd"/><path d="M821.137 231.668 821.137 641.191" stroke="#000000" stroke-width="1.33333" stroke-linejoin="round" stroke-miterlimit="10" fill="none" fill-rule="evenodd"/><path d="M843.814 231.668 843.814 641.191" stroke="#000000" stroke-width="1.33333" stroke-linejoin="round" stroke-miterlimit="10" fill="none" fill-rule="evenodd"/><path d="M866.491 231.668 866.491 641.191" stroke="#000000" stroke-width="1.33333" stroke-linejoin="round" stroke-miterlimit="10" fill="none" fill-rule="evenodd"/><path d="M889.168 231.668 889.168 641.191" stroke="#000000" stroke-width="1.33333" stroke-linejoin="round" stroke-miterlimit="10" fill="none" fill-rule="evenodd"/><path d="M911.845 231.668 911.845 641.191" stroke="#000000" stroke-width="1.33333" stroke-linejoin="round" stroke-miterlimit="10" fill="none" fill-rule="evenodd"/><path d="M934.523 231.668 934.523 641.191" stroke="#000000" stroke-width="1.33333" stroke-linejoin="round" stroke-miterlimit="10" fill="none" fill-rule="evenodd"/><path d="M957.2 254.346 957.2 641.191" stroke="#000000" stroke-width="1.33333" stroke-linejoin="round" stroke-miterlimit="10" fill="none" fill-rule="evenodd"/><path d="M979.877 254.346 979.877 641.191" stroke="#000000" stroke-width="1.33333" stroke-linejoin="round" stroke-miterlimit="10" fill="none" fill-rule="evenodd"/><path d="M548.344 255.012 1003.22 255.012" stroke="#000000" stroke-width="1.33333" stroke-linejoin="round" stroke-miterlimit="10" fill="none" fill-rule="evenodd"/><path d="M548.344 277.689 1003.22 277.689" stroke="#000000" stroke-width="1.33333" stroke-linejoin="round" stroke-miterlimit="10" fill="none" fill-rule="evenodd"/><path d="M548.344 300.367 1003.22 300.367" stroke="#000000" stroke-width="1.33333" stroke-linejoin="round" stroke-miterlimit="10" fill="none" fill-rule="evenodd"/><path d="M548.344 323.044 1003.22 323.044" stroke="#000000" stroke-width="1.33333" stroke-linejoin="round" stroke-miterlimit="10" fill="none" fill-rule="evenodd"/><path d="M548.344 345.721 1003.22 345.721" stroke="#000000" stroke-width="1.33333" stroke-linejoin="round" stroke-miterlimit="10" fill="none" fill-rule="evenodd"/><path d="M548.344 368.398 1003.22 368.398" stroke="#000000" stroke-width="1.33333" stroke-linejoin="round" stroke-miterlimit="10" fill="none" fill-rule="evenodd"/><path d="M548.344 391.075 1003.22 391.075" stroke="#000000" stroke-width="1.33333" stroke-linejoin="round" stroke-miterlimit="10" fill="none" fill-rule="evenodd"/><path d="M548.344 413.752 1003.22 413.752" stroke="#000000" stroke-width="1.33333" stroke-linejoin="round" stroke-miterlimit="10" fill="none" fill-rule="evenodd"/><path d="M548.344 436.43 1003.22 436.43" stroke="#000000" stroke-width="1.33333" stroke-linejoin="round" stroke-miterlimit="10" fill="none" fill-rule="evenodd"/><path d="M548.344 459.107 1003.22 459.107" stroke="#000000" stroke-width="1.33333" stroke-linejoin="round" stroke-miterlimit="10" fill="none" fill-rule="evenodd"/><path d="M548.344 481.784 1003.22 481.784" stroke="#000000" stroke-width="1.33333" stroke-linejoin="round" stroke-miterlimit="10" fill="none" fill-rule="evenodd"/><path d="M548.344 504.461 1003.22 504.461" stroke="#000000" stroke-width="1.33333" stroke-linejoin="round" stroke-miterlimit="10" fill="none" fill-rule="evenodd"/><path d="M548.344 527.138 1003.22 527.138" stroke="#000000" stroke-width="1.33333" stroke-linejoin="round" stroke-miterlimit="10" fill="none" fill-rule="evenodd"/><path d="M548.344 549.815 1003.22 549.815" stroke="#000000" stroke-width="1.33333" stroke-linejoin="round" stroke-miterlimit="10" fill="none" fill-rule="evenodd"/><path d="M548.344 572.493 1003.22 572.493" stroke="#000000" stroke-width="1.33333" stroke-linejoin="round" stroke-miterlimit="10" fill="none" fill-rule="evenodd"/><path d="M548.344 595.17 1003.22 595.17" stroke="#000000" stroke-width="1.33333" stroke-linejoin="round" stroke-miterlimit="10" fill="none" fill-rule="evenodd"/><path d="M548.344 617.847 1003.22 617.847" stroke="#000000" stroke-width="1.33333" stroke-linejoin="round" stroke-miterlimit="10" fill="none" fill-rule="evenodd"/><path d="M549.011 231.668 549.011 641.191" stroke="#000000" stroke-width="1.33333" stroke-linejoin="round" stroke-miterlimit="10" fill="none" fill-rule="evenodd"/><path d="M1002.55 254.346 1002.55 641.191" stroke="#000000" stroke-width="1.33333" stroke-linejoin="round" stroke-miterlimit="10" fill="none" fill-rule="evenodd"/><path d="M548.344 232.335 935.189 232.335" stroke="#000000" stroke-width="1.33333" stroke-linejoin="round" stroke-miterlimit="10" fill="none" fill-rule="evenodd"/><path d="M548.344 640.524 1003.22 640.524" stroke="#000000" stroke-width="1.33333" stroke-linejoin="round" stroke-miterlimit="10" fill="none" fill-rule="evenodd"/><text font-family="Calibri,Calibri_MSFontService,sans-serif" font-weight="700" font-size="21" transform="translate(708.699 665)">Protestantisme <tspan font-size="21" x="33.6667" y="25">(35,7%)</tspan></text></g></svg>