<svg width="457" height="683" xmlns="http://www.w3.org/2000/svg" xmlns:xlink="http://www.w3.org/1999/xlink" overflow="hidden"><defs><clipPath id="clip0"><rect x="75" y="27" width="457" height="683"/></clipPath></defs><g clip-path="url(#clip0)" transform="translate(-75 -27)"><path d="M76.7731 28.2406 99.4503 28.2406 99.4503 50.9178 76.7731 50.9178Z" fill="#264653" fill-rule="evenodd"/><path d="M99.4503 28.2406 122.127 28.2406 122.127 50.9178 99.4503 50.9178Z" fill="#264653" fill-rule="evenodd"/><path d="M122.127 28.2406 144.805 28.2406 144.805 50.9178 122.127 50.9178Z" fill="#264653" fill-rule="evenodd"/><path d="M144.805 28.2406 167.482 28.2406 167.482 50.9178 144.805 50.9178Z" fill="#264653" fill-rule="evenodd"/><path d="M167.482 28.2406 190.159 28.2406 190.159 50.9178 167.482 50.9178Z" fill="#264653" fill-rule="evenodd"/><path d="M190.159 28.2406 212.836 28.2406 212.836 50.9178 190.159 50.9178Z" fill="#264653" fill-rule="evenodd"/><path d="M212.836 28.2406 235.513 28.2406 235.513 50.9178 212.836 50.9178Z" fill="#264653" fill-rule="evenodd"/><path d="M235.513 28.2406 258.19 28.2406 258.19 50.9178 235.513 50.9178Z" fill="#264653" fill-rule="evenodd"/><path d="M258.19 28.2406 530.316 28.2406 530.316 50.9178 258.19 50.9178Z" fill="#FFFFFF" fill-rule="evenodd"/><path d="M76.7731 50.9178 99.4503 50.9178 99.4503 73.595 76.7731 73.595Z" fill="#264653" fill-rule="evenodd"/><path d="M99.4503 50.9178 122.127 50.9178 122.127 73.595 99.4503 73.595Z" fill="#264653" fill-rule="evenodd"/><path d="M122.127 50.9178 144.805 50.9178 144.805 73.595 122.127 73.595Z" fill="#264653" fill-rule="evenodd"/><path d="M144.805 50.9178 167.482 50.9178 167.482 73.595 144.805 73.595Z" fill="#264653" fill-rule="evenodd"/><path d="M167.482 50.9178 190.159 50.9178 190.159 73.595 167.482 73.595Z" fill="#264653" fill-rule="evenodd"/><path d="M190.159 50.9178 212.836 50.9178 212.836 73.595 190.159 73.595Z" fill="#264653" fill-rule="evenodd"/><path d="M212.836 50.9178 235.513 50.9178 235.513 73.595 212.836 73.595Z" fill="#264653" fill-rule="evenodd"/><path d="M235.513 50.9178 258.19 50.9178 258.19 73.595 235.513 73.595Z" fill="#264653" fill-rule="evenodd"/><path d="M258.19 50.9178 280.868 50.9178 280.868 73.595 258.19 73.595Z" fill="#264653" fill-rule="evenodd"/><path d="M280.868 50.9178 303.545 50.9178 303.545 73.595 280.868 73.595Z" fill="#264653" fill-rule="evenodd"/><path d="M303.545 50.9178 326.222 50.9178 326.222 73.595 303.545 73.595Z" fill="#264653" fill-rule="evenodd"/><path d="M326.222 50.9178 348.899 50.9178 348.899 73.595 326.222 73.595Z" fill="#264653" fill-rule="evenodd"/><path d="M348.899 50.9178 371.576 50.9178 371.576 73.595 348.899 73.595Z" fill="#264653" fill-rule="evenodd"/><path d="M371.576 50.9178 394.253 50.9178 394.253 73.595 371.576 73.595Z" fill="#264653" fill-rule="evenodd"/><path d="M394.253 50.9178 416.931 50.9178 416.931 73.595 394.253 73.595Z" fill="#264653" fill-rule="evenodd"/><path d="M416.931 50.9178 439.608 50.9178 439.608 73.595 416.931 73.595Z" fill="#264653" fill-rule="evenodd"/><path d="M439.608 50.9178 462.285 50.9178 462.285 73.595 439.608 73.595Z" fill="#264653" fill-rule="evenodd"/><path d="M462.285 50.9178 484.962 50.9178 484.962 73.595 462.285 73.595Z" fill="#264653" fill-rule="evenodd"/><path d="M484.962 50.9178 507.639 50.9178 507.639 73.595 484.962 73.595Z" fill="#264653" fill-rule="evenodd"/><path d="M507.639 50.9178 530.316 50.9178 530.316 73.595 507.639 73.595Z" fill="#264653" fill-rule="evenodd"/><path d="M76.7731 73.595 99.4503 73.595 99.4503 96.2721 76.7731 96.2721Z" fill="#264653" fill-rule="evenodd"/><path d="M99.4503 73.595 122.127 73.595 122.127 96.2721 99.4503 96.2721Z" fill="#264653" fill-rule="evenodd"/><path d="M122.127 73.595 144.805 73.595 144.805 96.2721 122.127 96.2721Z" fill="#264653" fill-rule="evenodd"/><path d="M144.805 73.595 167.482 73.595 167.482 96.2721 144.805 96.2721Z" fill="#264653" fill-rule="evenodd"/><path d="M167.482 73.595 190.159 73.595 190.159 96.2721 167.482 96.2721Z" fill="#264653" fill-rule="evenodd"/><path d="M190.159 73.595 212.836 73.595 212.836 96.2721 190.159 96.2721Z" fill="#264653" fill-rule="evenodd"/><path d="M212.836 73.595 235.513 73.595 235.513 96.2721 212.836 96.2721Z" fill="#264653" fill-rule="evenodd"/><path d="M235.513 73.595 258.19 73.595 258.19 96.2721 235.513 96.2721Z" fill="#264653" fill-rule="evenodd"/><path d="M258.19 73.595 280.868 73.595 280.868 96.2721 258.19 96.2721Z" fill="#264653" fill-rule="evenodd"/><path d="M280.868 73.595 303.545 73.595 303.545 96.2721 280.868 96.2721Z" fill="#264653" fill-rule="evenodd"/><path d="M303.545 73.595 326.222 73.595 326.222 96.2721 303.545 96.2721Z" fill="#264653" fill-rule="evenodd"/><path d="M326.222 73.595 348.899 73.595 348.899 96.2721 326.222 96.2721Z" fill="#264653" fill-rule="evenodd"/><path d="M348.899 73.595 371.576 73.595 371.576 96.2721 348.899 96.2721Z" fill="#264653" fill-rule="evenodd"/><path d="M371.576 73.595 394.253 73.595 394.253 96.2721 371.576 96.2721Z" fill="#264653" fill-rule="evenodd"/><path d="M394.253 73.595 416.931 73.595 416.931 96.2721 394.253 96.2721Z" fill="#264653" fill-rule="evenodd"/><path d="M416.931 73.595 439.608 73.595 439.608 96.2721 416.931 96.2721Z" fill="#264653" fill-rule="evenodd"/><path d="M439.608 73.595 462.285 73.595 462.285 96.2721 439.608 96.2721Z" fill="#264653" fill-rule="evenodd"/><path d="M462.285 73.595 484.962 73.595 484.962 96.2721 462.285 96.2721Z" fill="#264653" fill-rule="evenodd"/><path d="M484.962 73.595 507.639 73.595 507.639 96.2721 484.962 96.2721Z" fill="#264653" fill-rule="evenodd"/><path d="M507.639 73.595 530.316 73.595 530.316 96.2721 507.639 96.2721Z" fill="#264653" fill-rule="evenodd"/><path d="M76.7731 96.2721 99.4503 96.2721 99.4503 118.949 76.7731 118.949Z" fill="#264653" fill-rule="evenodd"/><path d="M99.4503 96.2721 122.127 96.2721 122.127 118.949 99.4503 118.949Z" fill="#264653" fill-rule="evenodd"/><path d="M122.127 96.2721 144.805 96.2721 144.805 118.949 122.127 118.949Z" fill="#264653" fill-rule="evenodd"/><path d="M144.805 96.2721 167.482 96.2721 167.482 118.949 144.805 118.949Z" fill="#264653" fill-rule="evenodd"/><path d="M167.482 96.2721 190.159 96.2721 190.159 118.949 167.482 118.949Z" fill="#264653" fill-rule="evenodd"/><path d="M190.159 96.2721 212.836 96.2721 212.836 118.949 190.159 118.949Z" fill="#264653" fill-rule="evenodd"/><path d="M212.836 96.2721 235.513 96.2721 235.513 118.949 212.836 118.949Z" fill="#264653" fill-rule="evenodd"/><path d="M235.513 96.2721 258.19 96.2721 258.19 118.949 235.513 118.949Z" fill="#264653" fill-rule="evenodd"/><path d="M258.19 96.2721 280.868 96.2721 280.868 118.949 258.19 118.949Z" fill="#264653" fill-rule="evenodd"/><path d="M280.868 96.2721 303.545 96.2721 303.545 118.949 280.868 118.949Z" fill="#264653" fill-rule="evenodd"/><path d="M303.545 96.2721 326.222 96.2721 326.222 118.949 303.545 118.949Z" fill="#264653" fill-rule="evenodd"/><path d="M326.222 96.2721 348.899 96.2721 348.899 118.949 326.222 118.949Z" fill="#264653" fill-rule="evenodd"/><path d="M348.899 96.2721 371.576 96.2721 371.576 118.949 348.899 118.949Z" fill="#264653" fill-rule="evenodd"/><path d="M371.576 96.2721 394.253 96.2721 394.253 118.949 371.576 118.949Z" fill="#264653" fill-rule="evenodd"/><path d="M394.253 96.2721 416.931 96.2721 416.931 118.949 394.253 118.949Z" fill="#264653" fill-rule="evenodd"/><path d="M416.931 96.2721 439.608 96.2721 439.608 118.949 416.931 118.949Z" fill="#264653" fill-rule="evenodd"/><path d="M439.608 96.2721 462.285 96.2721 462.285 118.949 439.608 118.949Z" fill="#264653" fill-rule="evenodd"/><path d="M462.285 96.2721 484.962 96.2721 484.962 118.949 462.285 118.949Z" fill="#264653" fill-rule="evenodd"/><path d="M484.962 96.2721 507.639 96.2721 507.639 118.949 484.962 118.949Z" fill="#264653" fill-rule="evenodd"/><path d="M507.639 96.2721 530.316 96.2721 530.316 118.949 507.639 118.949Z" fill="#264653" fill-rule="evenodd"/><path d="M76.7731 118.949 99.4503 118.949 99.4503 141.626 76.7731 141.626Z" fill="#264653" fill-rule="evenodd"/><path d="M99.4503 118.949 122.127 118.949 122.127 141.626 99.4503 141.626Z" fill="#264653" fill-rule="evenodd"/><path d="M122.127 118.949 144.805 118.949 144.805 141.626 122.127 141.626Z" fill="#264653" fill-rule="evenodd"/><path d="M144.805 118.949 167.482 118.949 167.482 141.626 144.805 141.626Z" fill="#264653" fill-rule="evenodd"/><path d="M167.482 118.949 190.159 118.949 190.159 141.626 167.482 141.626Z" fill="#264653" fill-rule="evenodd"/><path d="M190.159 118.949 212.836 118.949 212.836 141.626 190.159 141.626Z" fill="#264653" fill-rule="evenodd"/><path d="M212.836 118.949 235.513 118.949 235.513 141.626 212.836 141.626Z" fill="#264653" fill-rule="evenodd"/><path d="M235.513 118.949 258.19 118.949 258.19 141.626 235.513 141.626Z" fill="#264653" fill-rule="evenodd"/><path d="M258.19 118.949 280.868 118.949 280.868 141.626 258.19 141.626Z" fill="#264653" fill-rule="evenodd"/><path d="M280.868 118.949 303.545 118.949 303.545 141.626 280.868 141.626Z" fill="#264653" fill-rule="evenodd"/><path d="M303.545 118.949 326.222 118.949 326.222 141.626 303.545 141.626Z" fill="#264653" fill-rule="evenodd"/><path d="M326.222 118.949 348.899 118.949 348.899 141.626 326.222 141.626Z" fill="#264653" fill-rule="evenodd"/><path d="M348.899 118.949 371.576 118.949 371.576 141.626 348.899 141.626Z" fill="#264653" fill-rule="evenodd"/><path d="M371.576 118.949 394.253 118.949 394.253 141.626 371.576 141.626Z" fill="#264653" fill-rule="evenodd"/><path d="M394.253 118.949 416.931 118.949 416.931 141.626 394.253 141.626Z" fill="#264653" fill-rule="evenodd"/><path d="M416.931 118.949 439.608 118.949 439.608 141.626 416.931 141.626Z" fill="#264653" fill-rule="evenodd"/><path d="M439.608 118.949 462.285 118.949 462.285 141.626 439.608 141.626Z" fill="#264653" fill-rule="evenodd"/><path d="M462.285 118.949 484.962 118.949 484.962 141.626 462.285 141.626Z" fill="#264653" fill-rule="evenodd"/><path d="M484.962 118.949 507.639 118.949 507.639 141.626 484.962 141.626Z" fill="#264653" fill-rule="evenodd"/><path d="M507.639 118.949 530.316 118.949 530.316 141.626 507.639 141.626Z" fill="#264653" fill-rule="evenodd"/><path d="M76.7731 141.626 99.4503 141.626 99.4503 164.304 76.7731 164.304Z" fill="#264653" fill-rule="evenodd"/><path d="M99.4503 141.626 122.127 141.626 122.127 164.304 99.4503 164.304Z" fill="#264653" fill-rule="evenodd"/><path d="M122.127 141.626 144.805 141.626 144.805 164.304 122.127 164.304Z" fill="#264653" fill-rule="evenodd"/><path d="M144.805 141.626 167.482 141.626 167.482 164.304 144.805 164.304Z" fill="#264653" fill-rule="evenodd"/><path d="M167.482 141.626 190.159 141.626 190.159 164.304 167.482 164.304Z" fill="#264653" fill-rule="evenodd"/><path d="M190.159 141.626 212.836 141.626 212.836 164.304 190.159 164.304Z" fill="#264653" fill-rule="evenodd"/><path d="M212.836 141.626 235.513 141.626 235.513 164.304 212.836 164.304Z" fill="#264653" fill-rule="evenodd"/><path d="M235.513 141.626 258.19 141.626 258.19 164.304 235.513 164.304Z" fill="#264653" fill-rule="evenodd"/><path d="M258.19 141.626 280.868 141.626 280.868 164.304 258.19 164.304Z" fill="#264653" fill-rule="evenodd"/><path d="M280.868 141.626 303.545 141.626 303.545 164.304 280.868 164.304Z" fill="#264653" fill-rule="evenodd"/><path d="M303.545 141.626 326.222 141.626 326.222 164.304 303.545 164.304Z" fill="#264653" fill-rule="evenodd"/><path d="M326.222 141.626 348.899 141.626 348.899 164.304 326.222 164.304Z" fill="#264653" fill-rule="evenodd"/><path d="M348.899 141.626 371.576 141.626 371.576 164.304 348.899 164.304Z" fill="#264653" fill-rule="evenodd"/><path d="M371.576 141.626 394.253 141.626 394.253 164.304 371.576 164.304Z" fill="#264653" fill-rule="evenodd"/><path d="M394.253 141.626 416.931 141.626 416.931 164.304 394.253 164.304Z" fill="#264653" fill-rule="evenodd"/><path d="M416.931 141.626 439.608 141.626 439.608 164.304 416.931 164.304Z" fill="#264653" fill-rule="evenodd"/><path d="M439.608 141.626 462.285 141.626 462.285 164.304 439.608 164.304Z" fill="#264653" fill-rule="evenodd"/><path d="M462.285 141.626 484.962 141.626 484.962 164.304 462.285 164.304Z" fill="#264653" fill-rule="evenodd"/><path d="M484.962 141.626 507.639 141.626 507.639 164.304 484.962 164.304Z" fill="#264653" fill-rule="evenodd"/><path d="M507.639 141.626 530.316 141.626 530.316 164.304 507.639 164.304Z" fill="#264653" fill-rule="evenodd"/><path d="M76.7731 164.304 99.4503 164.304 99.4503 186.981 76.7731 186.981Z" fill="#264653" fill-rule="evenodd"/><path d="M99.4503 164.304 122.127 164.304 122.127 186.981 99.4503 186.981Z" fill="#264653" fill-rule="evenodd"/><path d="M122.127 164.304 144.805 164.304 144.805 186.981 122.127 186.981Z" fill="#264653" fill-rule="evenodd"/><path d="M144.805 164.304 167.482 164.304 167.482 186.981 144.805 186.981Z" fill="#264653" fill-rule="evenodd"/><path d="M167.482 164.304 190.159 164.304 190.159 186.981 167.482 186.981Z" fill="#264653" fill-rule="evenodd"/><path d="M190.159 164.304 212.836 164.304 212.836 186.981 190.159 186.981Z" fill="#264653" fill-rule="evenodd"/><path d="M212.836 164.304 235.513 164.304 235.513 186.981 212.836 186.981Z" fill="#264653" fill-rule="evenodd"/><path d="M235.513 164.304 258.19 164.304 258.19 186.981 235.513 186.981Z" fill="#264653" fill-rule="evenodd"/><path d="M258.19 164.304 280.868 164.304 280.868 186.981 258.19 186.981Z" fill="#264653" fill-rule="evenodd"/><path d="M280.868 164.304 303.545 164.304 303.545 186.981 280.868 186.981Z" fill="#264653" fill-rule="evenodd"/><path d="M303.545 164.304 326.222 164.304 326.222 186.981 303.545 186.981Z" fill="#264653" fill-rule="evenodd"/><path d="M326.222 164.304 348.899 164.304 348.899 186.981 326.222 186.981Z" fill="#264653" fill-rule="evenodd"/><path d="M348.899 164.304 371.576 164.304 371.576 186.981 348.899 186.981Z" fill="#264653" fill-rule="evenodd"/><path d="M371.576 164.304 394.253 164.304 394.253 186.981 371.576 186.981Z" fill="#264653" fill-rule="evenodd"/><path d="M394.253 164.304 416.931 164.304 416.931 186.981 394.253 186.981Z" fill="#264653" fill-rule="evenodd"/><path d="M416.931 164.304 439.608 164.304 439.608 186.981 416.931 186.981Z" fill="#264653" fill-rule="evenodd"/><path d="M439.608 164.304 462.285 164.304 462.285 186.981 439.608 186.981Z" fill="#264653" fill-rule="evenodd"/><path d="M462.285 164.304 484.962 164.304 484.962 186.981 462.285 186.981Z" fill="#264653" fill-rule="evenodd"/><path d="M484.962 164.304 507.639 164.304 507.639 186.981 484.962 186.981Z" fill="#264653" fill-rule="evenodd"/><path d="M507.639 164.304 530.316 164.304 530.316 186.981 507.639 186.981Z" fill="#264653" fill-rule="evenodd"/><path d="M76.7731 186.981 99.4503 186.981 99.4503 209.658 76.7731 209.658Z" fill="#264653" fill-rule="evenodd"/><path d="M99.4503 186.981 122.127 186.981 122.127 209.658 99.4503 209.658Z" fill="#264653" fill-rule="evenodd"/><path d="M122.127 186.981 144.805 186.981 144.805 209.658 122.127 209.658Z" fill="#264653" fill-rule="evenodd"/><path d="M144.805 186.981 167.482 186.981 167.482 209.658 144.805 209.658Z" fill="#264653" fill-rule="evenodd"/><path d="M167.482 186.981 190.159 186.981 190.159 209.658 167.482 209.658Z" fill="#264653" fill-rule="evenodd"/><path d="M190.159 186.981 212.836 186.981 212.836 209.658 190.159 209.658Z" fill="#264653" fill-rule="evenodd"/><path d="M212.836 186.981 235.513 186.981 235.513 209.658 212.836 209.658Z" fill="#264653" fill-rule="evenodd"/><path d="M235.513 186.981 258.19 186.981 258.19 209.658 235.513 209.658Z" fill="#264653" fill-rule="evenodd"/><path d="M258.19 186.981 280.868 186.981 280.868 209.658 258.19 209.658Z" fill="#264653" fill-rule="evenodd"/><path d="M280.868 186.981 303.545 186.981 303.545 209.658 280.868 209.658Z" fill="#264653" fill-rule="evenodd"/><path d="M303.545 186.981 326.222 186.981 326.222 209.658 303.545 209.658Z" fill="#264653" fill-rule="evenodd"/><path d="M326.222 186.981 348.899 186.981 348.899 209.658 326.222 209.658Z" fill="#264653" fill-rule="evenodd"/><path d="M348.899 186.981 371.576 186.981 371.576 209.658 348.899 209.658Z" fill="#264653" fill-rule="evenodd"/><path d="M371.576 186.981 394.253 186.981 394.253 209.658 371.576 209.658Z" fill="#264653" fill-rule="evenodd"/><path d="M394.253 186.981 416.931 186.981 416.931 209.658 394.253 209.658Z" fill="#264653" fill-rule="evenodd"/><path d="M416.931 186.981 439.608 186.981 439.608 209.658 416.931 209.658Z" fill="#264653" fill-rule="evenodd"/><path d="M439.608 186.981 462.285 186.981 462.285 209.658 439.608 209.658Z" fill="#264653" fill-rule="evenodd"/><path d="M462.285 186.981 484.962 186.981 484.962 209.658 462.285 209.658Z" fill="#264653" fill-rule="evenodd"/><path d="M484.962 186.981 507.639 186.981 507.639 209.658 484.962 209.658Z" fill="#264653" fill-rule="evenodd"/><path d="M507.639 186.981 530.316 186.981 530.316 209.658 507.639 209.658Z" fill="#264653" fill-rule="evenodd"/><path d="M76.7731 209.658 99.4503 209.658 99.4503 232.335 76.7731 232.335Z" fill="#264653" fill-rule="evenodd"/><path d="M99.4503 209.658 122.127 209.658 122.127 232.335 99.4503 232.335Z" fill="#264653" fill-rule="evenodd"/><path d="M122.127 209.658 144.805 209.658 144.805 232.335 122.127 232.335Z" fill="#264653" fill-rule="evenodd"/><path d="M144.805 209.658 167.482 209.658 167.482 232.335 144.805 232.335Z" fill="#264653" fill-rule="evenodd"/><path d="M167.482 209.658 190.159 209.658 190.159 232.335 167.482 232.335Z" fill="#264653" fill-rule="evenodd"/><path d="M190.159 209.658 212.836 209.658 212.836 232.335 190.159 232.335Z" fill="#264653" fill-rule="evenodd"/><path d="M212.836 209.658 235.513 209.658 235.513 232.335 212.836 232.335Z" fill="#264653" fill-rule="evenodd"/><path d="M235.513 209.658 258.19 209.658 258.19 232.335 235.513 232.335Z" fill="#264653" fill-rule="evenodd"/><path d="M258.19 209.658 280.868 209.658 280.868 232.335 258.19 232.335Z" fill="#264653" fill-rule="evenodd"/><path d="M280.868 209.658 303.545 209.658 303.545 232.335 280.868 232.335Z" fill="#264653" fill-rule="evenodd"/><path d="M303.545 209.658 326.222 209.658 326.222 232.335 303.545 232.335Z" fill="#264653" fill-rule="evenodd"/><path d="M326.222 209.658 348.899 209.658 348.899 232.335 326.222 232.335Z" fill="#264653" fill-rule="evenodd"/><path d="M348.899 209.658 371.576 209.658 371.576 232.335 348.899 232.335Z" fill="#264653" fill-rule="evenodd"/><path d="M371.576 209.658 394.253 209.658 394.253 232.335 371.576 232.335Z" fill="#264653" fill-rule="evenodd"/><path d="M394.253 209.658 416.931 209.658 416.931 232.335 394.253 232.335Z" fill="#264653" fill-rule="evenodd"/><path d="M416.931 209.658 439.608 209.658 439.608 232.335 416.931 232.335Z" fill="#264653" fill-rule="evenodd"/><path d="M439.608 209.658 462.285 209.658 462.285 232.335 439.608 232.335Z" fill="#264653" fill-rule="evenodd"/><path d="M462.285 209.658 484.962 209.658 484.962 232.335 462.285 232.335Z" fill="#264653" fill-rule="evenodd"/><path d="M484.962 209.658 507.639 209.658 507.639 232.335 484.962 232.335Z" fill="#264653" fill-rule="evenodd"/><path d="M507.639 209.658 530.316 209.658 530.316 232.335 507.639 232.335Z" fill="#264653" fill-rule="evenodd"/><path d="M76.7731 232.335 99.4503 232.335 99.4503 255.012 76.7731 255.012Z" fill="#264653" fill-rule="evenodd"/><path d="M99.4503 232.335 122.127 232.335 122.127 255.012 99.4503 255.012Z" fill="#264653" fill-rule="evenodd"/><path d="M122.127 232.335 144.805 232.335 144.805 255.012 122.127 255.012Z" fill="#264653" fill-rule="evenodd"/><path d="M144.805 232.335 167.482 232.335 167.482 255.012 144.805 255.012Z" fill="#264653" fill-rule="evenodd"/><path d="M167.482 232.335 190.159 232.335 190.159 255.012 167.482 255.012Z" fill="#264653" fill-rule="evenodd"/><path d="M190.159 232.335 212.836 232.335 212.836 255.012 190.159 255.012Z" fill="#264653" fill-rule="evenodd"/><path d="M212.836 232.335 235.513 232.335 235.513 255.012 212.836 255.012Z" fill="#264653" fill-rule="evenodd"/><path d="M235.513 232.335 258.19 232.335 258.19 255.012 235.513 255.012Z" fill="#264653" fill-rule="evenodd"/><path d="M258.19 232.335 280.868 232.335 280.868 255.012 258.19 255.012Z" fill="#264653" fill-rule="evenodd"/><path d="M280.868 232.335 303.545 232.335 303.545 255.012 280.868 255.012Z" fill="#264653" fill-rule="evenodd"/><path d="M303.545 232.335 326.222 232.335 326.222 255.012 303.545 255.012Z" fill="#264653" fill-rule="evenodd"/><path d="M326.222 232.335 348.899 232.335 348.899 255.012 326.222 255.012Z" fill="#264653" fill-rule="evenodd"/><path d="M348.899 232.335 371.576 232.335 371.576 255.012 348.899 255.012Z" fill="#264653" fill-rule="evenodd"/><path d="M371.576 232.335 394.253 232.335 394.253 255.012 371.576 255.012Z" fill="#264653" fill-rule="evenodd"/><path d="M394.253 232.335 416.931 232.335 416.931 255.012 394.253 255.012Z" fill="#264653" fill-rule="evenodd"/><path d="M416.931 232.335 439.608 232.335 439.608 255.012 416.931 255.012Z" fill="#264653" fill-rule="evenodd"/><path d="M439.608 232.335 462.285 232.335 462.285 255.012 439.608 255.012Z" fill="#264653" fill-rule="evenodd"/><path d="M462.285 232.335 484.962 232.335 484.962 255.012 462.285 255.012Z" fill="#264653" fill-rule="evenodd"/><path d="M484.962 232.335 507.639 232.335 507.639 255.012 484.962 255.012Z" fill="#264653" fill-rule="evenodd"/><path d="M507.639 232.335 530.316 232.335 530.316 255.012 507.639 255.012Z" fill="#264653" fill-rule="evenodd"/><path d="M76.7731 255.012 99.4503 255.012 99.4503 277.689 76.7731 277.689Z" fill="#264653" fill-rule="evenodd"/><path d="M99.4503 255.012 122.127 255.012 122.127 277.689 99.4503 277.689Z" fill="#264653" fill-rule="evenodd"/><path d="M122.127 255.012 144.805 255.012 144.805 277.689 122.127 277.689Z" fill="#264653" fill-rule="evenodd"/><path d="M144.805 255.012 167.482 255.012 167.482 277.689 144.805 277.689Z" fill="#264653" fill-rule="evenodd"/><path d="M167.482 255.012 190.159 255.012 190.159 277.689 167.482 277.689Z" fill="#264653" fill-rule="evenodd"/><path d="M190.159 255.012 212.836 255.012 212.836 277.689 190.159 277.689Z" fill="#264653" fill-rule="evenodd"/><path d="M212.836 255.012 235.513 255.012 235.513 277.689 212.836 277.689Z" fill="#264653" fill-rule="evenodd"/><path d="M235.513 255.012 258.19 255.012 258.19 277.689 235.513 277.689Z" fill="#264653" fill-rule="evenodd"/><path d="M258.19 255.012 280.868 255.012 280.868 277.689 258.19 277.689Z" fill="#264653" fill-rule="evenodd"/><path d="M280.868 255.012 303.545 255.012 303.545 277.689 280.868 277.689Z" fill="#264653" fill-rule="evenodd"/><path d="M303.545 255.012 326.222 255.012 326.222 277.689 303.545 277.689Z" fill="#264653" fill-rule="evenodd"/><path d="M326.222 255.012 348.899 255.012 348.899 277.689 326.222 277.689Z" fill="#264653" fill-rule="evenodd"/><path d="M348.899 255.012 371.576 255.012 371.576 277.689 348.899 277.689Z" fill="#264653" fill-rule="evenodd"/><path d="M371.576 255.012 394.253 255.012 394.253 277.689 371.576 277.689Z" fill="#264653" fill-rule="evenodd"/><path d="M394.253 255.012 416.931 255.012 416.931 277.689 394.253 277.689Z" fill="#264653" fill-rule="evenodd"/><path d="M416.931 255.012 439.608 255.012 439.608 277.689 416.931 277.689Z" fill="#264653" fill-rule="evenodd"/><path d="M439.608 255.012 462.285 255.012 462.285 277.689 439.608 277.689Z" fill="#264653" fill-rule="evenodd"/><path d="M462.285 255.012 484.962 255.012 484.962 277.689 462.285 277.689Z" fill="#264653" fill-rule="evenodd"/><path d="M484.962 255.012 507.639 255.012 507.639 277.689 484.962 277.689Z" fill="#264653" fill-rule="evenodd"/><path d="M507.639 255.012 530.316 255.012 530.316 277.689 507.639 277.689Z" fill="#264653" fill-rule="evenodd"/><path d="M76.7731 277.689 99.4503 277.689 99.4503 300.367 76.7731 300.367Z" fill="#264653" fill-rule="evenodd"/><path d="M99.4503 277.689 122.127 277.689 122.127 300.367 99.4503 300.367Z" fill="#264653" fill-rule="evenodd"/><path d="M122.127 277.689 144.805 277.689 144.805 300.367 122.127 300.367Z" fill="#264653" fill-rule="evenodd"/><path d="M144.805 277.689 167.482 277.689 167.482 300.367 144.805 300.367Z" fill="#264653" fill-rule="evenodd"/><path d="M167.482 277.689 190.159 277.689 190.159 300.367 167.482 300.367Z" fill="#264653" fill-rule="evenodd"/><path d="M190.159 277.689 212.836 277.689 212.836 300.367 190.159 300.367Z" fill="#264653" fill-rule="evenodd"/><path d="M212.836 277.689 235.513 277.689 235.513 300.367 212.836 300.367Z" fill="#264653" fill-rule="evenodd"/><path d="M235.513 277.689 258.19 277.689 258.19 300.367 235.513 300.367Z" fill="#264653" fill-rule="evenodd"/><path d="M258.19 277.689 280.868 277.689 280.868 300.367 258.19 300.367Z" fill="#264653" fill-rule="evenodd"/><path d="M280.868 277.689 303.545 277.689 303.545 300.367 280.868 300.367Z" fill="#264653" fill-rule="evenodd"/><path d="M303.545 277.689 326.222 277.689 326.222 300.367 303.545 300.367Z" fill="#264653" fill-rule="evenodd"/><path d="M326.222 277.689 348.899 277.689 348.899 300.367 326.222 300.367Z" fill="#264653" fill-rule="evenodd"/><path d="M348.899 277.689 371.576 277.689 371.576 300.367 348.899 300.367Z" fill="#264653" fill-rule="evenodd"/><path d="M371.576 277.689 394.253 277.689 394.253 300.367 371.576 300.367Z" fill="#264653" fill-rule="evenodd"/><path d="M394.253 277.689 416.931 277.689 416.931 300.367 394.253 300.367Z" fill="#264653" fill-rule="evenodd"/><path d="M416.931 277.689 439.608 277.689 439.608 300.367 416.931 300.367Z" fill="#264653" fill-rule="evenodd"/><path d="M439.608 277.689 462.285 277.689 462.285 300.367 439.608 300.367Z" fill="#264653" fill-rule="evenodd"/><path d="M462.285 277.689 484.962 277.689 484.962 300.367 462.285 300.367Z" fill="#264653" fill-rule="evenodd"/><path d="M484.962 277.689 507.639 277.689 507.639 300.367 484.962 300.367Z" fill="#264653" fill-rule="evenodd"/><path d="M507.639 277.689 530.316 277.689 530.316 300.367 507.639 300.367Z" fill="#264653" fill-rule="evenodd"/><path d="M76.7731 300.367 99.4503 300.367 99.4503 323.044 76.7731 323.044Z" fill="#264653" fill-rule="evenodd"/><path d="M99.4503 300.367 122.127 300.367 122.127 323.044 99.4503 323.044Z" fill="#264653" fill-rule="evenodd"/><path d="M122.127 300.367 144.805 300.367 144.805 323.044 122.127 323.044Z" fill="#264653" fill-rule="evenodd"/><path d="M144.805 300.367 167.482 300.367 167.482 323.044 144.805 323.044Z" fill="#264653" fill-rule="evenodd"/><path d="M167.482 300.367 190.159 300.367 190.159 323.044 167.482 323.044Z" fill="#264653" fill-rule="evenodd"/><path d="M190.159 300.367 212.836 300.367 212.836 323.044 190.159 323.044Z" fill="#264653" fill-rule="evenodd"/><path d="M212.836 300.367 235.513 300.367 235.513 323.044 212.836 323.044Z" fill="#264653" fill-rule="evenodd"/><path d="M235.513 300.367 258.19 300.367 258.19 323.044 235.513 323.044Z" fill="#264653" fill-rule="evenodd"/><path d="M258.19 300.367 280.868 300.367 280.868 323.044 258.19 323.044Z" fill="#264653" fill-rule="evenodd"/><path d="M280.868 300.367 303.545 300.367 303.545 323.044 280.868 323.044Z" fill="#264653" fill-rule="evenodd"/><path d="M303.545 300.367 326.222 300.367 326.222 323.044 303.545 323.044Z" fill="#264653" fill-rule="evenodd"/><path d="M326.222 300.367 348.899 300.367 348.899 323.044 326.222 323.044Z" fill="#264653" fill-rule="evenodd"/><path d="M348.899 300.367 371.576 300.367 371.576 323.044 348.899 323.044Z" fill="#264653" fill-rule="evenodd"/><path d="M371.576 300.367 394.253 300.367 394.253 323.044 371.576 323.044Z" fill="#264653" fill-rule="evenodd"/><path d="M394.253 300.367 416.931 300.367 416.931 323.044 394.253 323.044Z" fill="#264653" fill-rule="evenodd"/><path d="M416.931 300.367 439.608 300.367 439.608 323.044 416.931 323.044Z" fill="#264653" fill-rule="evenodd"/><path d="M439.608 300.367 462.285 300.367 462.285 323.044 439.608 323.044Z" fill="#264653" fill-rule="evenodd"/><path d="M462.285 300.367 484.962 300.367 484.962 323.044 462.285 323.044Z" fill="#264653" fill-rule="evenodd"/><path d="M484.962 300.367 507.639 300.367 507.639 323.044 484.962 323.044Z" fill="#264653" fill-rule="evenodd"/><path d="M507.639 300.367 530.316 300.367 530.316 323.044 507.639 323.044Z" fill="#264653" fill-rule="evenodd"/><path d="M76.7731 323.044 99.4503 323.044 99.4503 345.721 76.7731 345.721Z" fill="#264653" fill-rule="evenodd"/><path d="M99.4503 323.044 122.127 323.044 122.127 345.721 99.4503 345.721Z" fill="#264653" fill-rule="evenodd"/><path d="M122.127 323.044 144.805 323.044 144.805 345.721 122.127 345.721Z" fill="#264653" fill-rule="evenodd"/><path d="M144.805 323.044 167.482 323.044 167.482 345.721 144.805 345.721Z" fill="#264653" fill-rule="evenodd"/><path d="M167.482 323.044 190.159 323.044 190.159 345.721 167.482 345.721Z" fill="#264653" fill-rule="evenodd"/><path d="M190.159 323.044 212.836 323.044 212.836 345.721 190.159 345.721Z" fill="#264653" fill-rule="evenodd"/><path d="M212.836 323.044 235.513 323.044 235.513 345.721 212.836 345.721Z" fill="#264653" fill-rule="evenodd"/><path d="M235.513 323.044 258.19 323.044 258.19 345.721 235.513 345.721Z" fill="#264653" fill-rule="evenodd"/><path d="M258.19 323.044 280.868 323.044 280.868 345.721 258.19 345.721Z" fill="#264653" fill-rule="evenodd"/><path d="M280.868 323.044 303.545 323.044 303.545 345.721 280.868 345.721Z" fill="#264653" fill-rule="evenodd"/><path d="M303.545 323.044 326.222 323.044 326.222 345.721 303.545 345.721Z" fill="#264653" fill-rule="evenodd"/><path d="M326.222 323.044 348.899 323.044 348.899 345.721 326.222 345.721Z" fill="#264653" fill-rule="evenodd"/><path d="M348.899 323.044 371.576 323.044 371.576 345.721 348.899 345.721Z" fill="#264653" fill-rule="evenodd"/><path d="M371.576 323.044 394.253 323.044 394.253 345.721 371.576 345.721Z" fill="#264653" fill-rule="evenodd"/><path d="M394.253 323.044 416.931 323.044 416.931 345.721 394.253 345.721Z" fill="#264653" fill-rule="evenodd"/><path d="M416.931 323.044 439.608 323.044 439.608 345.721 416.931 345.721Z" fill="#264653" fill-rule="evenodd"/><path d="M439.608 323.044 462.285 323.044 462.285 345.721 439.608 345.721Z" fill="#264653" fill-rule="evenodd"/><path d="M462.285 323.044 484.962 323.044 484.962 345.721 462.285 345.721Z" fill="#264653" fill-rule="evenodd"/><path d="M484.962 323.044 507.639 323.044 507.639 345.721 484.962 345.721Z" fill="#264653" fill-rule="evenodd"/><path d="M507.639 323.044 530.316 323.044 530.316 345.721 507.639 345.721Z" fill="#264653" fill-rule="evenodd"/><path d="M76.7731 345.721 99.4503 345.721 99.4503 368.398 76.7731 368.398Z" fill="#264653" fill-rule="evenodd"/><path d="M99.4503 345.721 122.127 345.721 122.127 368.398 99.4503 368.398Z" fill="#264653" fill-rule="evenodd"/><path d="M122.127 345.721 144.805 345.721 144.805 368.398 122.127 368.398Z" fill="#264653" fill-rule="evenodd"/><path d="M144.805 345.721 167.482 345.721 167.482 368.398 144.805 368.398Z" fill="#264653" fill-rule="evenodd"/><path d="M167.482 345.721 190.159 345.721 190.159 368.398 167.482 368.398Z" fill="#264653" fill-rule="evenodd"/><path d="M190.159 345.721 212.836 345.721 212.836 368.398 190.159 368.398Z" fill="#264653" fill-rule="evenodd"/><path d="M212.836 345.721 235.513 345.721 235.513 368.398 212.836 368.398Z" fill="#264653" fill-rule="evenodd"/><path d="M235.513 345.721 258.19 345.721 258.19 368.398 235.513 368.398Z" fill="#264653" fill-rule="evenodd"/><path d="M258.19 345.721 280.868 345.721 280.868 368.398 258.19 368.398Z" fill="#264653" fill-rule="evenodd"/><path d="M280.868 345.721 303.545 345.721 303.545 368.398 280.868 368.398Z" fill="#264653" fill-rule="evenodd"/><path d="M303.545 345.721 326.222 345.721 326.222 368.398 303.545 368.398Z" fill="#264653" fill-rule="evenodd"/><path d="M326.222 345.721 348.899 345.721 348.899 368.398 326.222 368.398Z" fill="#264653" fill-rule="evenodd"/><path d="M348.899 345.721 371.576 345.721 371.576 368.398 348.899 368.398Z" fill="#264653" fill-rule="evenodd"/><path d="M371.576 345.721 394.253 345.721 394.253 368.398 371.576 368.398Z" fill="#264653" fill-rule="evenodd"/><path d="M394.253 345.721 416.931 345.721 416.931 368.398 394.253 368.398Z" fill="#264653" fill-rule="evenodd"/><path d="M416.931 345.721 439.608 345.721 439.608 368.398 416.931 368.398Z" fill="#264653" fill-rule="evenodd"/><path d="M439.608 345.721 462.285 345.721 462.285 368.398 439.608 368.398Z" fill="#264653" fill-rule="evenodd"/><path d="M462.285 345.721 484.962 345.721 484.962 368.398 462.285 368.398Z" fill="#264653" fill-rule="evenodd"/><path d="M484.962 345.721 507.639 345.721 507.639 368.398 484.962 368.398Z" fill="#264653" fill-rule="evenodd"/><path d="M507.639 345.721 530.316 345.721 530.316 368.398 507.639 368.398Z" fill="#264653" fill-rule="evenodd"/><path d="M76.7731 368.398 99.4503 368.398 99.4503 391.075 76.7731 391.075Z" fill="#264653" fill-rule="evenodd"/><path d="M99.4503 368.398 122.127 368.398 122.127 391.075 99.4503 391.075Z" fill="#264653" fill-rule="evenodd"/><path d="M122.127 368.398 144.805 368.398 144.805 391.075 122.127 391.075Z" fill="#264653" fill-rule="evenodd"/><path d="M144.805 368.398 167.482 368.398 167.482 391.075 144.805 391.075Z" fill="#264653" fill-rule="evenodd"/><path d="M167.482 368.398 190.159 368.398 190.159 391.075 167.482 391.075Z" fill="#264653" fill-rule="evenodd"/><path d="M190.159 368.398 212.836 368.398 212.836 391.075 190.159 391.075Z" fill="#264653" fill-rule="evenodd"/><path d="M212.836 368.398 235.513 368.398 235.513 391.075 212.836 391.075Z" fill="#264653" fill-rule="evenodd"/><path d="M235.513 368.398 258.19 368.398 258.19 391.075 235.513 391.075Z" fill="#264653" fill-rule="evenodd"/><path d="M258.19 368.398 280.868 368.398 280.868 391.075 258.19 391.075Z" fill="#264653" fill-rule="evenodd"/><path d="M280.868 368.398 303.545 368.398 303.545 391.075 280.868 391.075Z" fill="#264653" fill-rule="evenodd"/><path d="M303.545 368.398 326.222 368.398 326.222 391.075 303.545 391.075Z" fill="#264653" fill-rule="evenodd"/><path d="M326.222 368.398 348.899 368.398 348.899 391.075 326.222 391.075Z" fill="#264653" fill-rule="evenodd"/><path d="M348.899 368.398 371.576 368.398 371.576 391.075 348.899 391.075Z" fill="#264653" fill-rule="evenodd"/><path d="M371.576 368.398 394.253 368.398 394.253 391.075 371.576 391.075Z" fill="#264653" fill-rule="evenodd"/><path d="M394.253 368.398 416.931 368.398 416.931 391.075 394.253 391.075Z" fill="#264653" fill-rule="evenodd"/><path d="M416.931 368.398 439.608 368.398 439.608 391.075 416.931 391.075Z" fill="#264653" fill-rule="evenodd"/><path d="M439.608 368.398 462.285 368.398 462.285 391.075 439.608 391.075Z" fill="#264653" fill-rule="evenodd"/><path d="M462.285 368.398 484.962 368.398 484.962 391.075 462.285 391.075Z" fill="#264653" fill-rule="evenodd"/><path d="M484.962 368.398 507.639 368.398 507.639 391.075 484.962 391.075Z" fill="#264653" fill-rule="evenodd"/><path d="M507.639 368.398 530.316 368.398 530.316 391.075 507.639 391.075Z" fill="#264653" fill-rule="evenodd"/><path d="M76.7731 391.075 99.4503 391.075 99.4503 413.752 76.7731 413.752Z" fill="#264653" fill-rule="evenodd"/><path d="M99.4503 391.075 122.127 391.075 122.127 413.752 99.4503 413.752Z" fill="#264653" fill-rule="evenodd"/><path d="M122.127 391.075 144.805 391.075 144.805 413.752 122.127 413.752Z" fill="#264653" fill-rule="evenodd"/><path d="M144.805 391.075 167.482 391.075 167.482 413.752 144.805 413.752Z" fill="#264653" fill-rule="evenodd"/><path d="M167.482 391.075 190.159 391.075 190.159 413.752 167.482 413.752Z" fill="#264653" fill-rule="evenodd"/><path d="M190.159 391.075 212.836 391.075 212.836 413.752 190.159 413.752Z" fill="#264653" fill-rule="evenodd"/><path d="M212.836 391.075 235.513 391.075 235.513 413.752 212.836 413.752Z" fill="#264653" fill-rule="evenodd"/><path d="M235.513 391.075 258.19 391.075 258.19 413.752 235.513 413.752Z" fill="#264653" fill-rule="evenodd"/><path d="M258.19 391.075 280.868 391.075 280.868 413.752 258.19 413.752Z" fill="#264653" fill-rule="evenodd"/><path d="M280.868 391.075 303.545 391.075 303.545 413.752 280.868 413.752Z" fill="#264653" fill-rule="evenodd"/><path d="M303.545 391.075 326.222 391.075 326.222 413.752 303.545 413.752Z" fill="#264653" fill-rule="evenodd"/><path d="M326.222 391.075 348.899 391.075 348.899 413.752 326.222 413.752Z" fill="#264653" fill-rule="evenodd"/><path d="M348.899 391.075 371.576 391.075 371.576 413.752 348.899 413.752Z" fill="#264653" fill-rule="evenodd"/><path d="M371.576 391.075 394.253 391.075 394.253 413.752 371.576 413.752Z" fill="#264653" fill-rule="evenodd"/><path d="M394.253 391.075 416.931 391.075 416.931 413.752 394.253 413.752Z" fill="#264653" fill-rule="evenodd"/><path d="M416.931 391.075 439.608 391.075 439.608 413.752 416.931 413.752Z" fill="#264653" fill-rule="evenodd"/><path d="M439.608 391.075 462.285 391.075 462.285 413.752 439.608 413.752Z" fill="#264653" fill-rule="evenodd"/><path d="M462.285 391.075 484.962 391.075 484.962 413.752 462.285 413.752Z" fill="#264653" fill-rule="evenodd"/><path d="M484.962 391.075 507.639 391.075 507.639 413.752 484.962 413.752Z" fill="#264653" fill-rule="evenodd"/><path d="M507.639 391.075 530.316 391.075 530.316 413.752 507.639 413.752Z" fill="#264653" fill-rule="evenodd"/><path d="M76.7731 413.752 99.4503 413.752 99.4503 436.43 76.7731 436.43Z" fill="#264653" fill-rule="evenodd"/><path d="M99.4503 413.752 122.127 413.752 122.127 436.43 99.4503 436.43Z" fill="#264653" fill-rule="evenodd"/><path d="M122.127 413.752 144.805 413.752 144.805 436.43 122.127 436.43Z" fill="#264653" fill-rule="evenodd"/><path d="M144.805 413.752 167.482 413.752 167.482 436.43 144.805 436.43Z" fill="#264653" fill-rule="evenodd"/><path d="M167.482 413.752 190.159 413.752 190.159 436.43 167.482 436.43Z" fill="#264653" fill-rule="evenodd"/><path d="M190.159 413.752 212.836 413.752 212.836 436.43 190.159 436.43Z" fill="#264653" fill-rule="evenodd"/><path d="M212.836 413.752 235.513 413.752 235.513 436.43 212.836 436.43Z" fill="#264653" fill-rule="evenodd"/><path d="M235.513 413.752 258.19 413.752 258.19 436.43 235.513 436.43Z" fill="#264653" fill-rule="evenodd"/><path d="M258.19 413.752 280.868 413.752 280.868 436.43 258.19 436.43Z" fill="#264653" fill-rule="evenodd"/><path d="M280.868 413.752 303.545 413.752 303.545 436.43 280.868 436.43Z" fill="#264653" fill-rule="evenodd"/><path d="M303.545 413.752 326.222 413.752 326.222 436.43 303.545 436.43Z" fill="#264653" fill-rule="evenodd"/><path d="M326.222 413.752 348.899 413.752 348.899 436.43 326.222 436.43Z" fill="#264653" fill-rule="evenodd"/><path d="M348.899 413.752 371.576 413.752 371.576 436.43 348.899 436.43Z" fill="#264653" fill-rule="evenodd"/><path d="M371.576 413.752 394.253 413.752 394.253 436.43 371.576 436.43Z" fill="#264653" fill-rule="evenodd"/><path d="M394.253 413.752 416.931 413.752 416.931 436.43 394.253 436.43Z" fill="#264653" fill-rule="evenodd"/><path d="M416.931 413.752 439.608 413.752 439.608 436.43 416.931 436.43Z" fill="#264653" fill-rule="evenodd"/><path d="M439.608 413.752 462.285 413.752 462.285 436.43 439.608 436.43Z" fill="#264653" fill-rule="evenodd"/><path d="M462.285 413.752 484.962 413.752 484.962 436.43 462.285 436.43Z" fill="#264653" fill-rule="evenodd"/><path d="M484.962 413.752 507.639 413.752 507.639 436.43 484.962 436.43Z" fill="#264653" fill-rule="evenodd"/><path d="M507.639 413.752 530.316 413.752 530.316 436.43 507.639 436.43Z" fill="#264653" fill-rule="evenodd"/><path d="M76.7731 436.43 99.4503 436.43 99.4503 459.107 76.7731 459.107Z" fill="#264653" fill-rule="evenodd"/><path d="M99.4503 436.43 122.127 436.43 122.127 459.107 99.4503 459.107Z" fill="#264653" fill-rule="evenodd"/><path d="M122.127 436.43 144.805 436.43 144.805 459.107 122.127 459.107Z" fill="#264653" fill-rule="evenodd"/><path d="M144.805 436.43 167.482 436.43 167.482 459.107 144.805 459.107Z" fill="#264653" fill-rule="evenodd"/><path d="M167.482 436.43 190.159 436.43 190.159 459.107 167.482 459.107Z" fill="#264653" fill-rule="evenodd"/><path d="M190.159 436.43 212.836 436.43 212.836 459.107 190.159 459.107Z" fill="#264653" fill-rule="evenodd"/><path d="M212.836 436.43 235.513 436.43 235.513 459.107 212.836 459.107Z" fill="#264653" fill-rule="evenodd"/><path d="M235.513 436.43 258.19 436.43 258.19 459.107 235.513 459.107Z" fill="#264653" fill-rule="evenodd"/><path d="M258.19 436.43 280.868 436.43 280.868 459.107 258.19 459.107Z" fill="#264653" fill-rule="evenodd"/><path d="M280.868 436.43 303.545 436.43 303.545 459.107 280.868 459.107Z" fill="#264653" fill-rule="evenodd"/><path d="M303.545 436.43 326.222 436.43 326.222 459.107 303.545 459.107Z" fill="#264653" fill-rule="evenodd"/><path d="M326.222 436.43 348.899 436.43 348.899 459.107 326.222 459.107Z" fill="#264653" fill-rule="evenodd"/><path d="M348.899 436.43 371.576 436.43 371.576 459.107 348.899 459.107Z" fill="#264653" fill-rule="evenodd"/><path d="M371.576 436.43 394.253 436.43 394.253 459.107 371.576 459.107Z" fill="#264653" fill-rule="evenodd"/><path d="M394.253 436.43 416.931 436.43 416.931 459.107 394.253 459.107Z" fill="#264653" fill-rule="evenodd"/><path d="M416.931 436.43 439.608 436.43 439.608 459.107 416.931 459.107Z" fill="#264653" fill-rule="evenodd"/><path d="M439.608 436.43 462.285 436.43 462.285 459.107 439.608 459.107Z" fill="#264653" fill-rule="evenodd"/><path d="M462.285 436.43 484.962 436.43 484.962 459.107 462.285 459.107Z" fill="#264653" fill-rule="evenodd"/><path d="M484.962 436.43 507.639 436.43 507.639 459.107 484.962 459.107Z" fill="#264653" fill-rule="evenodd"/><path d="M507.639 436.43 530.316 436.43 530.316 459.107 507.639 459.107Z" fill="#264653" fill-rule="evenodd"/><path d="M76.7731 459.107 99.4503 459.107 99.4503 481.784 76.7731 481.784Z" fill="#264653" fill-rule="evenodd"/><path d="M99.4503 459.107 122.127 459.107 122.127 481.784 99.4503 481.784Z" fill="#264653" fill-rule="evenodd"/><path d="M122.127 459.107 144.805 459.107 144.805 481.784 122.127 481.784Z" fill="#264653" fill-rule="evenodd"/><path d="M144.805 459.107 167.482 459.107 167.482 481.784 144.805 481.784Z" fill="#264653" fill-rule="evenodd"/><path d="M167.482 459.107 190.159 459.107 190.159 481.784 167.482 481.784Z" fill="#264653" fill-rule="evenodd"/><path d="M190.159 459.107 212.836 459.107 212.836 481.784 190.159 481.784Z" fill="#264653" fill-rule="evenodd"/><path d="M212.836 459.107 235.513 459.107 235.513 481.784 212.836 481.784Z" fill="#264653" fill-rule="evenodd"/><path d="M235.513 459.107 258.19 459.107 258.19 481.784 235.513 481.784Z" fill="#264653" fill-rule="evenodd"/><path d="M258.19 459.107 280.868 459.107 280.868 481.784 258.19 481.784Z" fill="#264653" fill-rule="evenodd"/><path d="M280.868 459.107 303.545 459.107 303.545 481.784 280.868 481.784Z" fill="#264653" fill-rule="evenodd"/><path d="M303.545 459.107 326.222 459.107 326.222 481.784 303.545 481.784Z" fill="#264653" fill-rule="evenodd"/><path d="M326.222 459.107 348.899 459.107 348.899 481.784 326.222 481.784Z" fill="#264653" fill-rule="evenodd"/><path d="M348.899 459.107 371.576 459.107 371.576 481.784 348.899 481.784Z" fill="#264653" fill-rule="evenodd"/><path d="M371.576 459.107 394.253 459.107 394.253 481.784 371.576 481.784Z" fill="#264653" fill-rule="evenodd"/><path d="M394.253 459.107 416.931 459.107 416.931 481.784 394.253 481.784Z" fill="#264653" fill-rule="evenodd"/><path d="M416.931 459.107 439.608 459.107 439.608 481.784 416.931 481.784Z" fill="#264653" fill-rule="evenodd"/><path d="M439.608 459.107 462.285 459.107 462.285 481.784 439.608 481.784Z" fill="#264653" fill-rule="evenodd"/><path d="M462.285 459.107 484.962 459.107 484.962 481.784 462.285 481.784Z" fill="#264653" fill-rule="evenodd"/><path d="M484.962 459.107 507.639 459.107 507.639 481.784 484.962 481.784Z" fill="#264653" fill-rule="evenodd"/><path d="M507.639 459.107 530.316 459.107 530.316 481.784 507.639 481.784Z" fill="#264653" fill-rule="evenodd"/><path d="M76.7731 481.784 99.4503 481.784 99.4503 504.461 76.7731 504.461Z" fill="#264653" fill-rule="evenodd"/><path d="M99.4503 481.784 122.127 481.784 122.127 504.461 99.4503 504.461Z" fill="#264653" fill-rule="evenodd"/><path d="M122.127 481.784 144.805 481.784 144.805 504.461 122.127 504.461Z" fill="#264653" fill-rule="evenodd"/><path d="M144.805 481.784 167.482 481.784 167.482 504.461 144.805 504.461Z" fill="#264653" fill-rule="evenodd"/><path d="M167.482 481.784 190.159 481.784 190.159 504.461 167.482 504.461Z" fill="#264653" fill-rule="evenodd"/><path d="M190.159 481.784 212.836 481.784 212.836 504.461 190.159 504.461Z" fill="#264653" fill-rule="evenodd"/><path d="M212.836 481.784 235.513 481.784 235.513 504.461 212.836 504.461Z" fill="#264653" fill-rule="evenodd"/><path d="M235.513 481.784 258.19 481.784 258.19 504.461 235.513 504.461Z" fill="#264653" fill-rule="evenodd"/><path d="M258.19 481.784 280.868 481.784 280.868 504.461 258.19 504.461Z" fill="#264653" fill-rule="evenodd"/><path d="M280.868 481.784 303.545 481.784 303.545 504.461 280.868 504.461Z" fill="#264653" fill-rule="evenodd"/><path d="M303.545 481.784 326.222 481.784 326.222 504.461 303.545 504.461Z" fill="#264653" fill-rule="evenodd"/><path d="M326.222 481.784 348.899 481.784 348.899 504.461 326.222 504.461Z" fill="#264653" fill-rule="evenodd"/><path d="M348.899 481.784 371.576 481.784 371.576 504.461 348.899 504.461Z" fill="#264653" fill-rule="evenodd"/><path d="M371.576 481.784 394.253 481.784 394.253 504.461 371.576 504.461Z" fill="#264653" fill-rule="evenodd"/><path d="M394.253 481.784 416.931 481.784 416.931 504.461 394.253 504.461Z" fill="#264653" fill-rule="evenodd"/><path d="M416.931 481.784 439.608 481.784 439.608 504.461 416.931 504.461Z" fill="#264653" fill-rule="evenodd"/><path d="M439.608 481.784 462.285 481.784 462.285 504.461 439.608 504.461Z" fill="#264653" fill-rule="evenodd"/><path d="M462.285 481.784 484.962 481.784 484.962 504.461 462.285 504.461Z" fill="#264653" fill-rule="evenodd"/><path d="M484.962 481.784 507.639 481.784 507.639 504.461 484.962 504.461Z" fill="#264653" fill-rule="evenodd"/><path d="M507.639 481.784 530.316 481.784 530.316 504.461 507.639 504.461Z" fill="#264653" fill-rule="evenodd"/><path d="M76.7731 504.461 99.4503 504.461 99.4503 527.138 76.7731 527.138Z" fill="#264653" fill-rule="evenodd"/><path d="M99.4503 504.461 122.127 504.461 122.127 527.138 99.4503 527.138Z" fill="#264653" fill-rule="evenodd"/><path d="M122.127 504.461 144.805 504.461 144.805 527.138 122.127 527.138Z" fill="#264653" fill-rule="evenodd"/><path d="M144.805 504.461 167.482 504.461 167.482 527.138 144.805 527.138Z" fill="#264653" fill-rule="evenodd"/><path d="M167.482 504.461 190.159 504.461 190.159 527.138 167.482 527.138Z" fill="#264653" fill-rule="evenodd"/><path d="M190.159 504.461 212.836 504.461 212.836 527.138 190.159 527.138Z" fill="#264653" fill-rule="evenodd"/><path d="M212.836 504.461 235.513 504.461 235.513 527.138 212.836 527.138Z" fill="#264653" fill-rule="evenodd"/><path d="M235.513 504.461 258.19 504.461 258.19 527.138 235.513 527.138Z" fill="#264653" fill-rule="evenodd"/><path d="M258.19 504.461 280.868 504.461 280.868 527.138 258.19 527.138Z" fill="#264653" fill-rule="evenodd"/><path d="M280.868 504.461 303.545 504.461 303.545 527.138 280.868 527.138Z" fill="#264653" fill-rule="evenodd"/><path d="M303.545 504.461 326.222 504.461 326.222 527.138 303.545 527.138Z" fill="#264653" fill-rule="evenodd"/><path d="M326.222 504.461 348.899 504.461 348.899 527.138 326.222 527.138Z" fill="#264653" fill-rule="evenodd"/><path d="M348.899 504.461 371.576 504.461 371.576 527.138 348.899 527.138Z" fill="#264653" fill-rule="evenodd"/><path d="M371.576 504.461 394.253 504.461 394.253 527.138 371.576 527.138Z" fill="#264653" fill-rule="evenodd"/><path d="M394.253 504.461 416.931 504.461 416.931 527.138 394.253 527.138Z" fill="#264653" fill-rule="evenodd"/><path d="M416.931 504.461 439.608 504.461 439.608 527.138 416.931 527.138Z" fill="#264653" fill-rule="evenodd"/><path d="M439.608 504.461 462.285 504.461 462.285 527.138 439.608 527.138Z" fill="#264653" fill-rule="evenodd"/><path d="M462.285 504.461 484.962 504.461 484.962 527.138 462.285 527.138Z" fill="#264653" fill-rule="evenodd"/><path d="M484.962 504.461 507.639 504.461 507.639 527.138 484.962 527.138Z" fill="#264653" fill-rule="evenodd"/><path d="M507.639 504.461 530.316 504.461 530.316 527.138 507.639 527.138Z" fill="#264653" fill-rule="evenodd"/><path d="M76.7731 527.138 99.4503 527.138 99.4503 549.815 76.7731 549.815Z" fill="#264653" fill-rule="evenodd"/><path d="M99.4503 527.138 122.127 527.138 122.127 549.815 99.4503 549.815Z" fill="#264653" fill-rule="evenodd"/><path d="M122.127 527.138 144.805 527.138 144.805 549.815 122.127 549.815Z" fill="#264653" fill-rule="evenodd"/><path d="M144.805 527.138 167.482 527.138 167.482 549.815 144.805 549.815Z" fill="#264653" fill-rule="evenodd"/><path d="M167.482 527.138 190.159 527.138 190.159 549.815 167.482 549.815Z" fill="#264653" fill-rule="evenodd"/><path d="M190.159 527.138 212.836 527.138 212.836 549.815 190.159 549.815Z" fill="#264653" fill-rule="evenodd"/><path d="M212.836 527.138 235.513 527.138 235.513 549.815 212.836 549.815Z" fill="#264653" fill-rule="evenodd"/><path d="M235.513 527.138 258.19 527.138 258.19 549.815 235.513 549.815Z" fill="#264653" fill-rule="evenodd"/><path d="M258.19 527.138 280.868 527.138 280.868 549.815 258.19 549.815Z" fill="#264653" fill-rule="evenodd"/><path d="M280.868 527.138 303.545 527.138 303.545 549.815 280.868 549.815Z" fill="#264653" fill-rule="evenodd"/><path d="M303.545 527.138 326.222 527.138 326.222 549.815 303.545 549.815Z" fill="#264653" fill-rule="evenodd"/><path d="M326.222 527.138 348.899 527.138 348.899 549.815 326.222 549.815Z" fill="#264653" fill-rule="evenodd"/><path d="M348.899 527.138 371.576 527.138 371.576 549.815 348.899 549.815Z" fill="#264653" fill-rule="evenodd"/><path d="M371.576 527.138 394.253 527.138 394.253 549.815 371.576 549.815Z" fill="#264653" fill-rule="evenodd"/><path d="M394.253 527.138 416.931 527.138 416.931 549.815 394.253 549.815Z" fill="#264653" fill-rule="evenodd"/><path d="M416.931 527.138 439.608 527.138 439.608 549.815 416.931 549.815Z" fill="#264653" fill-rule="evenodd"/><path d="M439.608 527.138 462.285 527.138 462.285 549.815 439.608 549.815Z" fill="#264653" fill-rule="evenodd"/><path d="M462.285 527.138 484.962 527.138 484.962 549.815 462.285 549.815Z" fill="#264653" fill-rule="evenodd"/><path d="M484.962 527.138 507.639 527.138 507.639 549.815 484.962 549.815Z" fill="#264653" fill-rule="evenodd"/><path d="M507.639 527.138 530.316 527.138 530.316 549.815 507.639 549.815Z" fill="#264653" fill-rule="evenodd"/><path d="M76.7731 549.815 99.4503 549.815 99.4503 572.493 76.7731 572.493Z" fill="#264653" fill-rule="evenodd"/><path d="M99.4503 549.815 122.127 549.815 122.127 572.493 99.4503 572.493Z" fill="#264653" fill-rule="evenodd"/><path d="M122.127 549.815 144.805 549.815 144.805 572.493 122.127 572.493Z" fill="#264653" fill-rule="evenodd"/><path d="M144.805 549.815 167.482 549.815 167.482 572.493 144.805 572.493Z" fill="#264653" fill-rule="evenodd"/><path d="M167.482 549.815 190.159 549.815 190.159 572.493 167.482 572.493Z" fill="#264653" fill-rule="evenodd"/><path d="M190.159 549.815 212.836 549.815 212.836 572.493 190.159 572.493Z" fill="#264653" fill-rule="evenodd"/><path d="M212.836 549.815 235.513 549.815 235.513 572.493 212.836 572.493Z" fill="#264653" fill-rule="evenodd"/><path d="M235.513 549.815 258.19 549.815 258.19 572.493 235.513 572.493Z" fill="#264653" fill-rule="evenodd"/><path d="M258.19 549.815 280.868 549.815 280.868 572.493 258.19 572.493Z" fill="#264653" fill-rule="evenodd"/><path d="M280.868 549.815 303.545 549.815 303.545 572.493 280.868 572.493Z" fill="#264653" fill-rule="evenodd"/><path d="M303.545 549.815 326.222 549.815 326.222 572.493 303.545 572.493Z" fill="#264653" fill-rule="evenodd"/><path d="M326.222 549.815 348.899 549.815 348.899 572.493 326.222 572.493Z" fill="#264653" fill-rule="evenodd"/><path d="M348.899 549.815 371.576 549.815 371.576 572.493 348.899 572.493Z" fill="#264653" fill-rule="evenodd"/><path d="M371.576 549.815 394.253 549.815 394.253 572.493 371.576 572.493Z" fill="#264653" fill-rule="evenodd"/><path d="M394.253 549.815 416.931 549.815 416.931 572.493 394.253 572.493Z" fill="#264653" fill-rule="evenodd"/><path d="M416.931 549.815 439.608 549.815 439.608 572.493 416.931 572.493Z" fill="#264653" fill-rule="evenodd"/><path d="M439.608 549.815 462.285 549.815 462.285 572.493 439.608 572.493Z" fill="#264653" fill-rule="evenodd"/><path d="M462.285 549.815 484.962 549.815 484.962 572.493 462.285 572.493Z" fill="#264653" fill-rule="evenodd"/><path d="M484.962 549.815 507.639 549.815 507.639 572.493 484.962 572.493Z" fill="#264653" fill-rule="evenodd"/><path d="M507.639 549.815 530.316 549.815 530.316 572.493 507.639 572.493Z" fill="#264653" fill-rule="evenodd"/><path d="M76.7731 572.493 99.4503 572.493 99.4503 595.17 76.7731 595.17Z" fill="#264653" fill-rule="evenodd"/><path d="M99.4503 572.493 122.127 572.493 122.127 595.17 99.4503 595.17Z" fill="#264653" fill-rule="evenodd"/><path d="M122.127 572.493 144.805 572.493 144.805 595.17 122.127 595.17Z" fill="#264653" fill-rule="evenodd"/><path d="M144.805 572.493 167.482 572.493 167.482 595.17 144.805 595.17Z" fill="#264653" fill-rule="evenodd"/><path d="M167.482 572.493 190.159 572.493 190.159 595.17 167.482 595.17Z" fill="#264653" fill-rule="evenodd"/><path d="M190.159 572.493 212.836 572.493 212.836 595.17 190.159 595.17Z" fill="#264653" fill-rule="evenodd"/><path d="M212.836 572.493 235.513 572.493 235.513 595.17 212.836 595.17Z" fill="#264653" fill-rule="evenodd"/><path d="M235.513 572.493 258.19 572.493 258.19 595.17 235.513 595.17Z" fill="#264653" fill-rule="evenodd"/><path d="M258.19 572.493 280.868 572.493 280.868 595.17 258.19 595.17Z" fill="#264653" fill-rule="evenodd"/><path d="M280.868 572.493 303.545 572.493 303.545 595.17 280.868 595.17Z" fill="#264653" fill-rule="evenodd"/><path d="M303.545 572.493 326.222 572.493 326.222 595.17 303.545 595.17Z" fill="#264653" fill-rule="evenodd"/><path d="M326.222 572.493 348.899 572.493 348.899 595.17 326.222 595.17Z" fill="#264653" fill-rule="evenodd"/><path d="M348.899 572.493 371.576 572.493 371.576 595.17 348.899 595.17Z" fill="#264653" fill-rule="evenodd"/><path d="M371.576 572.493 394.253 572.493 394.253 595.17 371.576 595.17Z" fill="#264653" fill-rule="evenodd"/><path d="M394.253 572.493 416.931 572.493 416.931 595.17 394.253 595.17Z" fill="#264653" fill-rule="evenodd"/><path d="M416.931 572.493 439.608 572.493 439.608 595.17 416.931 595.17Z" fill="#264653" fill-rule="evenodd"/><path d="M439.608 572.493 462.285 572.493 462.285 595.17 439.608 595.17Z" fill="#264653" fill-rule="evenodd"/><path d="M462.285 572.493 484.962 572.493 484.962 595.17 462.285 595.17Z" fill="#264653" fill-rule="evenodd"/><path d="M484.962 572.493 507.639 572.493 507.639 595.17 484.962 595.17Z" fill="#264653" fill-rule="evenodd"/><path d="M507.639 572.493 530.316 572.493 530.316 595.17 507.639 595.17Z" fill="#264653" fill-rule="evenodd"/><path d="M76.7731 595.17 99.4503 595.17 99.4503 617.847 76.7731 617.847Z" fill="#264653" fill-rule="evenodd"/><path d="M99.4503 595.17 122.127 595.17 122.127 617.847 99.4503 617.847Z" fill="#264653" fill-rule="evenodd"/><path d="M122.127 595.17 144.805 595.17 144.805 617.847 122.127 617.847Z" fill="#264653" fill-rule="evenodd"/><path d="M144.805 595.17 167.482 595.17 167.482 617.847 144.805 617.847Z" fill="#264653" fill-rule="evenodd"/><path d="M167.482 595.17 190.159 595.17 190.159 617.847 167.482 617.847Z" fill="#264653" fill-rule="evenodd"/><path d="M190.159 595.17 212.836 595.17 212.836 617.847 190.159 617.847Z" fill="#264653" fill-rule="evenodd"/><path d="M212.836 595.17 235.513 595.17 235.513 617.847 212.836 617.847Z" fill="#264653" fill-rule="evenodd"/><path d="M235.513 595.17 258.19 595.17 258.19 617.847 235.513 617.847Z" fill="#264653" fill-rule="evenodd"/><path d="M258.19 595.17 280.868 595.17 280.868 617.847 258.19 617.847Z" fill="#264653" fill-rule="evenodd"/><path d="M280.868 595.17 303.545 595.17 303.545 617.847 280.868 617.847Z" fill="#264653" fill-rule="evenodd"/><path d="M303.545 595.17 326.222 595.17 326.222 617.847 303.545 617.847Z" fill="#264653" fill-rule="evenodd"/><path d="M326.222 595.17 348.899 595.17 348.899 617.847 326.222 617.847Z" fill="#264653" fill-rule="evenodd"/><path d="M348.899 595.17 371.576 595.17 371.576 617.847 348.899 617.847Z" fill="#264653" fill-rule="evenodd"/><path d="M371.576 595.17 394.253 595.17 394.253 617.847 371.576 617.847Z" fill="#264653" fill-rule="evenodd"/><path d="M394.253 595.17 416.931 595.17 416.931 617.847 394.253 617.847Z" fill="#264653" fill-rule="evenodd"/><path d="M416.931 595.17 439.608 595.17 439.608 617.847 416.931 617.847Z" fill="#264653" fill-rule="evenodd"/><path d="M439.608 595.17 462.285 595.17 462.285 617.847 439.608 617.847Z" fill="#264653" fill-rule="evenodd"/><path d="M462.285 595.17 484.962 595.17 484.962 617.847 462.285 617.847Z" fill="#264653" fill-rule="evenodd"/><path d="M484.962 595.17 507.639 595.17 507.639 617.847 484.962 617.847Z" fill="#264653" fill-rule="evenodd"/><path d="M507.639 595.17 530.316 595.17 530.316 617.847 507.639 617.847Z" fill="#264653" fill-rule="evenodd"/><path d="M76.7731 617.847 99.4503 617.847 99.4503 640.524 76.7731 640.524Z" fill="#264653" fill-rule="evenodd"/><path d="M99.4503 617.847 122.127 617.847 122.127 640.524 99.4503 640.524Z" fill="#264653" fill-rule="evenodd"/><path d="M122.127 617.847 144.805 617.847 144.805 640.524 122.127 640.524Z" fill="#264653" fill-rule="evenodd"/><path d="M144.805 617.847 167.482 617.847 167.482 640.524 144.805 640.524Z" fill="#264653" fill-rule="evenodd"/><path d="M167.482 617.847 190.159 617.847 190.159 640.524 167.482 640.524Z" fill="#264653" fill-rule="evenodd"/><path d="M190.159 617.847 212.836 617.847 212.836 640.524 190.159 640.524Z" fill="#264653" fill-rule="evenodd"/><path d="M212.836 617.847 235.513 617.847 235.513 640.524 212.836 640.524Z" fill="#264653" fill-rule="evenodd"/><path d="M235.513 617.847 258.19 617.847 258.19 640.524 235.513 640.524Z" fill="#264653" fill-rule="evenodd"/><path d="M258.19 617.847 280.868 617.847 280.868 640.524 258.19 640.524Z" fill="#264653" fill-rule="evenodd"/><path d="M280.868 617.847 303.545 617.847 303.545 640.524 280.868 640.524Z" fill="#264653" fill-rule="evenodd"/><path d="M303.545 617.847 326.222 617.847 326.222 640.524 303.545 640.524Z" fill="#264653" fill-rule="evenodd"/><path d="M326.222 617.847 348.899 617.847 348.899 640.524 326.222 640.524Z" fill="#264653" fill-rule="evenodd"/><path d="M348.899 617.847 371.576 617.847 371.576 640.524 348.899 640.524Z" fill="#264653" fill-rule="evenodd"/><path d="M371.576 617.847 394.253 617.847 394.253 640.524 371.576 640.524Z" fill="#264653" fill-rule="evenodd"/><path d="M394.253 617.847 416.931 617.847 416.931 640.524 394.253 640.524Z" fill="#264653" fill-rule="evenodd"/><path d="M416.931 617.847 439.608 617.847 439.608 640.524 416.931 640.524Z" fill="#264653" fill-rule="evenodd"/><path d="M439.608 617.847 462.285 617.847 462.285 640.524 439.608 640.524Z" fill="#264653" fill-rule="evenodd"/><path d="M462.285 617.847 484.962 617.847 484.962 640.524 462.285 640.524Z" fill="#264653" fill-rule="evenodd"/><path d="M484.962 617.847 507.639 617.847 507.639 640.524 484.962 640.524Z" fill="#264653" fill-rule="evenodd"/><path d="M507.639 617.847 530.316 617.847 530.316 640.524 507.639 640.524Z" fill="#264653" fill-rule="evenodd"/><path d="M99.4503 27.574 99.4503 641.191" stroke="#000000" stroke-width="1.33333" stroke-linejoin="round" stroke-miterlimit="10" fill="none" fill-rule="evenodd"/><path d="M122.127 27.574 122.127 641.191" stroke="#000000" stroke-width="1.33333" stroke-linejoin="round" stroke-miterlimit="10" fill="none" fill-rule="evenodd"/><path d="M144.805 27.574 144.805 641.191" stroke="#000000" stroke-width="1.33333" stroke-linejoin="round" stroke-miterlimit="10" fill="none" fill-rule="evenodd"/><path d="M167.482 27.574 167.482 641.191" stroke="#000000" stroke-width="1.33333" stroke-linejoin="round" stroke-miterlimit="10" fill="none" fill-rule="evenodd"/><path d="M190.159 27.574 190.159 641.191" stroke="#000000" stroke-width="1.33333" stroke-linejoin="round" stroke-miterlimit="10" fill="none" fill-rule="evenodd"/><path d="M212.836 27.574 212.836 641.191" stroke="#000000" stroke-width="1.33333" stroke-linejoin="round" stroke-miterlimit="10" fill="none" fill-rule="evenodd"/><path d="M235.513 27.574 235.513 641.191" stroke="#000000" stroke-width="1.33333" stroke-linejoin="round" stroke-miterlimit="10" fill="none" fill-rule="evenodd"/><path d="M258.19 27.574 258.19 641.191" stroke="#000000" stroke-width="1.33333" stroke-linejoin="round" stroke-miterlimit="10" fill="none" fill-rule="evenodd"/><path d="M280.868 50.2511 280.868 641.191" stroke="#000000" stroke-width="1.33333" stroke-linejoin="round" stroke-miterlimit="10" fill="none" fill-rule="evenodd"/><path d="M303.545 50.2511 303.545 641.191" stroke="#000000" stroke-width="1.33333" stroke-linejoin="round" stroke-miterlimit="10" fill="none" fill-rule="evenodd"/><path d="M326.222 50.2511 326.222 641.191" stroke="#000000" stroke-width="1.33333" stroke-linejoin="round" stroke-miterlimit="10" fill="none" fill-rule="evenodd"/><path d="M348.899 50.2511 348.899 641.191" stroke="#000000" stroke-width="1.33333" stroke-linejoin="round" stroke-miterlimit="10" fill="none" fill-rule="evenodd"/><path d="M371.576 50.2511 371.576 641.191" stroke="#000000" stroke-width="1.33333" stroke-linejoin="round" stroke-miterlimit="10" fill="none" fill-rule="evenodd"/><path d="M394.253 50.2511 394.253 641.191" stroke="#000000" stroke-width="1.33333" stroke-linejoin="round" stroke-miterlimit="10" fill="none" fill-rule="evenodd"/><path d="M416.931 50.2511 416.931 641.191" stroke="#000000" stroke-width="1.33333" stroke-linejoin="round" stroke-miterlimit="10" fill="none" fill-rule="evenodd"/><path d="M439.608 50.2511 439.608 641.191" stroke="#000000" stroke-width="1.33333" stroke-linejoin="round" stroke-miterlimit="10" fill="none" fill-rule="evenodd"/><path d="M462.285 50.2511 462.285 641.191" stroke="#000000" stroke-width="1.33333" stroke-linejoin="round" stroke-miterlimit="10" fill="none" fill-rule="evenodd"/><path d="M484.962 50.2511 484.962 641.191" stroke="#000000" stroke-width="1.33333" stroke-linejoin="round" stroke-miterlimit="10" fill="none" fill-rule="evenodd"/><path d="M507.639 50.2511 507.639 641.191" stroke="#000000" stroke-width="1.33333" stroke-linejoin="round" stroke-miterlimit="10" fill="none" fill-rule="evenodd"/><path d="M76.1065 50.9178 530.983 50.9178" stroke="#000000" stroke-width="1.33333" stroke-linejoin="round" stroke-miterlimit="10" fill="none" fill-rule="evenodd"/><path d="M76.1065 73.595 530.983 73.595" stroke="#000000" stroke-width="1.33333" stroke-linejoin="round" stroke-miterlimit="10" fill="none" fill-rule="evenodd"/><path d="M76.1065 96.2721 530.983 96.2721" stroke="#000000" stroke-width="1.33333" stroke-linejoin="round" stroke-miterlimit="10" fill="none" fill-rule="evenodd"/><path d="M76.1065 118.949 530.983 118.949" stroke="#000000" stroke-width="1.33333" stroke-linejoin="round" stroke-miterlimit="10" fill="none" fill-rule="evenodd"/><path d="M76.1065 141.626 530.983 141.626" stroke="#000000" stroke-width="1.33333" stroke-linejoin="round" stroke-miterlimit="10" fill="none" fill-rule="evenodd"/><path d="M76.1065 164.304 530.983 164.304" stroke="#000000" stroke-width="1.33333" stroke-linejoin="round" stroke-miterlimit="10" fill="none" fill-rule="evenodd"/><path d="M76.1065 186.981 530.983 186.981" stroke="#000000" stroke-width="1.33333" stroke-linejoin="round" stroke-miterlimit="10" fill="none" fill-rule="evenodd"/><path d="M76.1065 209.658 530.983 209.658" stroke="#000000" stroke-width="1.33333" stroke-linejoin="round" stroke-miterlimit="10" fill="none" fill-rule="evenodd"/><path d="M76.1065 232.335 530.983 232.335" stroke="#000000" stroke-width="1.33333" stroke-linejoin="round" stroke-miterlimit="10" fill="none" fill-rule="evenodd"/><path d="M76.1065 255.012 530.983 255.012" stroke="#000000" stroke-width="1.33333" stroke-linejoin="round" stroke-miterlimit="10" fill="none" fill-rule="evenodd"/><path d="M76.1065 277.689 530.983 277.689" stroke="#000000" stroke-width="1.33333" stroke-linejoin="round" stroke-miterlimit="10" fill="none" fill-rule="evenodd"/><path d="M76.1065 300.367 530.983 300.367" stroke="#000000" stroke-width="1.33333" stroke-linejoin="round" stroke-miterlimit="10" fill="none" fill-rule="evenodd"/><path d="M76.1065 323.044 530.983 323.044" stroke="#000000" stroke-width="1.33333" stroke-linejoin="round" stroke-miterlimit="10" fill="none" fill-rule="evenodd"/><path d="M76.1065 345.721 530.983 345.721" stroke="#000000" stroke-width="1.33333" stroke-linejoin="round" stroke-miterlimit="10" fill="none" fill-rule="evenodd"/><path d="M76.1065 368.398 530.983 368.398" stroke="#000000" stroke-width="1.33333" stroke-linejoin="round" stroke-miterlimit="10" fill="none" fill-rule="evenodd"/><path d="M76.1065 391.075 530.983 391.075" stroke="#000000" stroke-width="1.33333" stroke-linejoin="round" stroke-miterlimit="10" fill="none" fill-rule="evenodd"/><path d="M76.1065 413.752 530.983 413.752" stroke="#000000" stroke-width="1.33333" stroke-linejoin="round" stroke-miterlimit="10" fill="none" fill-rule="evenodd"/><path d="M76.1065 436.43 530.983 436.43" stroke="#000000" stroke-width="1.33333" stroke-linejoin="round" stroke-miterlimit="10" fill="none" fill-rule="evenodd"/><path d="M76.1065 459.107 530.983 459.107" stroke="#000000" stroke-width="1.33333" stroke-linejoin="round" stroke-miterlimit="10" fill="none" fill-rule="evenodd"/><path d="M76.1065 481.784 530.983 481.784" stroke="#000000" stroke-width="1.33333" stroke-linejoin="round" stroke-miterlimit="10" fill="none" fill-rule="evenodd"/><path d="M76.1065 504.461 530.983 504.461" stroke="#000000" stroke-width="1.33333" stroke-linejoin="round" stroke-miterlimit="10" fill="none" fill-rule="evenodd"/><path d="M76.1065 527.138 530.983 527.138" stroke="#000000" stroke-width="1.33333" stroke-linejoin="round" stroke-miterlimit="10" fill="none" fill-rule="evenodd"/><path d="M76.1065 549.815 530.983 549.815" stroke="#000000" stroke-width="1.33333" stroke-linejoin="round" stroke-miterlimit="10" fill="none" fill-rule="evenodd"/><path d="M76.1065 572.493 530.983 572.493" stroke="#000000" stroke-width="1.33333" stroke-linejoin="round" stroke-miterlimit="10" fill="none" fill-rule="evenodd"/><path d="M76.1065 595.17 530.983 595.17" stroke="#000000" stroke-width="1.33333" stroke-linejoin="round" stroke-miterlimit="10" fill="none" fill-rule="evenodd"/><path d="M76.1065 617.847 530.983 617.847" stroke="#000000" stroke-width="1.33333" stroke-linejoin="round" stroke-miterlimit="10" fill="none" fill-rule="evenodd"/><path d="M76.7731 27.574 76.7731 641.191" stroke="#000000" stroke-width="1.33333" stroke-linejoin="round" stroke-miterlimit="10" fill="none" fill-rule="evenodd"/><path d="M530.316 50.2511 530.316 641.191" stroke="#000000" stroke-width="1.33333" stroke-linejoin="round" stroke-miterlimit="10" fill="none" fill-rule="evenodd"/><path d="M76.1065 28.2406 258.857 28.2406" stroke="#000000" stroke-width="1.33333" stroke-linejoin="round" stroke-miterlimit="10" fill="none" fill-rule="evenodd"/><path d="M76.1065 640.524 530.983 640.524" stroke="#000000" stroke-width="1.33333" stroke-linejoin="round" stroke-miterlimit="10" fill="none" fill-rule="evenodd"/><text font-family="Calibri,Calibri_MSFontService,sans-serif" font-weight="700" font-size="21" transform="translate(247.061 665)">Catholicisme <tspan font-size="21" x="23.0667" y="25">(52,8%)</tspan></text></g></svg>