<svg width="457" height="185" xmlns="http://www.w3.org/2000/svg" xmlns:xlink="http://www.w3.org/1999/xlink" overflow="hidden"><defs><clipPath id="clip0"><rect x="555" y="421" width="457" height="185"/></clipPath></defs><g clip-path="url(#clip0)" transform="translate(-555 -421)"><path d="M555.997 422.75 578.674 422.75 578.674 445.427 555.997 445.427Z" fill="#2A9D8F" fill-rule="evenodd"/><path d="M578.674 422.75 601.351 422.75 601.351 445.427 578.674 445.427Z" fill="#2A9D8F" fill-rule="evenodd"/><path d="M601.351 422.75 1009.54 422.75 1009.54 445.427 601.351 445.427Z" fill="#FFFFFF" fill-rule="evenodd"/><path d="M555.997 445.427 578.674 445.427 578.674 468.104 555.997 468.104Z" fill="#2A9D8F" fill-rule="evenodd"/><path d="M578.674 445.427 601.351 445.427 601.351 468.104 578.674 468.104Z" fill="#2A9D8F" fill-rule="evenodd"/><path d="M601.351 445.427 624.028 445.427 624.028 468.104 601.351 468.104Z" fill="#2A9D8F" fill-rule="evenodd"/><path d="M624.028 445.427 646.705 445.427 646.705 468.104 624.028 468.104Z" fill="#2A9D8F" fill-rule="evenodd"/><path d="M646.705 445.427 669.382 445.427 669.382 468.104 646.705 468.104Z" fill="#2A9D8F" fill-rule="evenodd"/><path d="M669.382 445.427 692.06 445.427 692.06 468.104 669.382 468.104Z" fill="#2A9D8F" fill-rule="evenodd"/><path d="M692.06 445.427 714.737 445.427 714.737 468.104 692.06 468.104Z" fill="#2A9D8F" fill-rule="evenodd"/><path d="M714.737 445.427 737.414 445.427 737.414 468.104 714.737 468.104Z" fill="#2A9D8F" fill-rule="evenodd"/><path d="M737.414 445.427 760.091 445.427 760.091 468.104 737.414 468.104Z" fill="#2A9D8F" fill-rule="evenodd"/><path d="M760.091 445.427 782.768 445.427 782.768 468.104 760.091 468.104Z" fill="#2A9D8F" fill-rule="evenodd"/><path d="M782.768 445.427 805.445 445.427 805.445 468.104 782.768 468.104Z" fill="#2A9D8F" fill-rule="evenodd"/><path d="M805.445 445.427 828.122 445.427 828.122 468.104 805.445 468.104Z" fill="#2A9D8F" fill-rule="evenodd"/><path d="M828.122 445.427 850.8 445.427 850.8 468.104 828.122 468.104Z" fill="#2A9D8F" fill-rule="evenodd"/><path d="M850.8 445.427 873.477 445.427 873.477 468.104 850.8 468.104Z" fill="#2A9D8F" fill-rule="evenodd"/><path d="M873.477 445.427 896.154 445.427 896.154 468.104 873.477 468.104Z" fill="#2A9D8F" fill-rule="evenodd"/><path d="M896.154 445.427 918.831 445.427 918.831 468.104 896.154 468.104Z" fill="#2A9D8F" fill-rule="evenodd"/><path d="M918.831 445.427 941.508 445.427 941.508 468.104 918.831 468.104Z" fill="#2A9D8F" fill-rule="evenodd"/><path d="M941.508 445.427 964.185 445.427 964.185 468.104 941.508 468.104Z" fill="#2A9D8F" fill-rule="evenodd"/><path d="M964.185 445.427 986.863 445.427 986.863 468.104 964.185 468.104Z" fill="#2A9D8F" fill-rule="evenodd"/><path d="M986.863 445.427 1009.54 445.427 1009.54 468.104 986.863 468.104Z" fill="#2A9D8F" fill-rule="evenodd"/><path d="M555.997 468.104 578.674 468.104 578.674 490.781 555.997 490.781Z" fill="#2A9D8F" fill-rule="evenodd"/><path d="M578.674 468.104 601.351 468.104 601.351 490.781 578.674 490.781Z" fill="#2A9D8F" fill-rule="evenodd"/><path d="M601.351 468.104 624.028 468.104 624.028 490.781 601.351 490.781Z" fill="#2A9D8F" fill-rule="evenodd"/><path d="M624.028 468.104 646.705 468.104 646.705 490.781 624.028 490.781Z" fill="#2A9D8F" fill-rule="evenodd"/><path d="M646.705 468.104 669.382 468.104 669.382 490.781 646.705 490.781Z" fill="#2A9D8F" fill-rule="evenodd"/><path d="M669.382 468.104 692.06 468.104 692.06 490.781 669.382 490.781Z" fill="#2A9D8F" fill-rule="evenodd"/><path d="M692.06 468.104 714.737 468.104 714.737 490.781 692.06 490.781Z" fill="#2A9D8F" fill-rule="evenodd"/><path d="M714.737 468.104 737.414 468.104 737.414 490.781 714.737 490.781Z" fill="#2A9D8F" fill-rule="evenodd"/><path d="M737.414 468.104 760.091 468.104 760.091 490.781 737.414 490.781Z" fill="#2A9D8F" fill-rule="evenodd"/><path d="M760.091 468.104 782.768 468.104 782.768 490.781 760.091 490.781Z" fill="#2A9D8F" fill-rule="evenodd"/><path d="M782.768 468.104 805.445 468.104 805.445 490.781 782.768 490.781Z" fill="#2A9D8F" fill-rule="evenodd"/><path d="M805.445 468.104 828.122 468.104 828.122 490.781 805.445 490.781Z" fill="#2A9D8F" fill-rule="evenodd"/><path d="M828.122 468.104 850.8 468.104 850.8 490.781 828.122 490.781Z" fill="#2A9D8F" fill-rule="evenodd"/><path d="M850.8 468.104 873.477 468.104 873.477 490.781 850.8 490.781Z" fill="#2A9D8F" fill-rule="evenodd"/><path d="M873.477 468.104 896.154 468.104 896.154 490.781 873.477 490.781Z" fill="#2A9D8F" fill-rule="evenodd"/><path d="M896.154 468.104 918.831 468.104 918.831 490.781 896.154 490.781Z" fill="#2A9D8F" fill-rule="evenodd"/><path d="M918.831 468.104 941.508 468.104 941.508 490.781 918.831 490.781Z" fill="#2A9D8F" fill-rule="evenodd"/><path d="M941.508 468.104 964.185 468.104 964.185 490.781 941.508 490.781Z" fill="#2A9D8F" fill-rule="evenodd"/><path d="M964.185 468.104 986.863 468.104 986.863 490.781 964.185 490.781Z" fill="#2A9D8F" fill-rule="evenodd"/><path d="M986.863 468.104 1009.54 468.104 1009.54 490.781 986.863 490.781Z" fill="#2A9D8F" fill-rule="evenodd"/><path d="M555.997 490.781 578.674 490.781 578.674 513.459 555.997 513.459Z" fill="#2A9D8F" fill-rule="evenodd"/><path d="M578.674 490.781 601.351 490.781 601.351 513.459 578.674 513.459Z" fill="#2A9D8F" fill-rule="evenodd"/><path d="M601.351 490.781 624.028 490.781 624.028 513.459 601.351 513.459Z" fill="#2A9D8F" fill-rule="evenodd"/><path d="M624.028 490.781 646.705 490.781 646.705 513.459 624.028 513.459Z" fill="#2A9D8F" fill-rule="evenodd"/><path d="M646.705 490.781 669.382 490.781 669.382 513.459 646.705 513.459Z" fill="#2A9D8F" fill-rule="evenodd"/><path d="M669.382 490.781 692.06 490.781 692.06 513.459 669.382 513.459Z" fill="#2A9D8F" fill-rule="evenodd"/><path d="M692.06 490.781 714.737 490.781 714.737 513.459 692.06 513.459Z" fill="#2A9D8F" fill-rule="evenodd"/><path d="M714.737 490.781 737.414 490.781 737.414 513.459 714.737 513.459Z" fill="#2A9D8F" fill-rule="evenodd"/><path d="M737.414 490.781 760.091 490.781 760.091 513.459 737.414 513.459Z" fill="#2A9D8F" fill-rule="evenodd"/><path d="M760.091 490.781 782.768 490.781 782.768 513.459 760.091 513.459Z" fill="#2A9D8F" fill-rule="evenodd"/><path d="M782.768 490.781 805.445 490.781 805.445 513.459 782.768 513.459Z" fill="#2A9D8F" fill-rule="evenodd"/><path d="M805.445 490.781 828.122 490.781 828.122 513.459 805.445 513.459Z" fill="#2A9D8F" fill-rule="evenodd"/><path d="M828.122 490.781 850.8 490.781 850.8 513.459 828.122 513.459Z" fill="#2A9D8F" fill-rule="evenodd"/><path d="M850.8 490.781 873.477 490.781 873.477 513.459 850.8 513.459Z" fill="#2A9D8F" fill-rule="evenodd"/><path d="M873.477 490.781 896.154 490.781 896.154 513.459 873.477 513.459Z" fill="#2A9D8F" fill-rule="evenodd"/><path d="M896.154 490.781 918.831 490.781 918.831 513.459 896.154 513.459Z" fill="#2A9D8F" fill-rule="evenodd"/><path d="M918.831 490.781 941.508 490.781 941.508 513.459 918.831 513.459Z" fill="#2A9D8F" fill-rule="evenodd"/><path d="M941.508 490.781 964.185 490.781 964.185 513.459 941.508 513.459Z" fill="#2A9D8F" fill-rule="evenodd"/><path d="M964.185 490.781 986.863 490.781 986.863 513.459 964.185 513.459Z" fill="#2A9D8F" fill-rule="evenodd"/><path d="M986.863 490.781 1009.54 490.781 1009.54 513.459 986.863 513.459Z" fill="#2A9D8F" fill-rule="evenodd"/><path d="M555.997 513.459 578.674 513.459 578.674 536.136 555.997 536.136Z" fill="#2A9D8F" fill-rule="evenodd"/><path d="M578.674 513.459 601.351 513.459 601.351 536.136 578.674 536.136Z" fill="#2A9D8F" fill-rule="evenodd"/><path d="M601.351 513.459 624.028 513.459 624.028 536.136 601.351 536.136Z" fill="#2A9D8F" fill-rule="evenodd"/><path d="M624.028 513.459 646.705 513.459 646.705 536.136 624.028 536.136Z" fill="#2A9D8F" fill-rule="evenodd"/><path d="M646.705 513.459 669.382 513.459 669.382 536.136 646.705 536.136Z" fill="#2A9D8F" fill-rule="evenodd"/><path d="M669.382 513.459 692.06 513.459 692.06 536.136 669.382 536.136Z" fill="#2A9D8F" fill-rule="evenodd"/><path d="M692.06 513.459 714.737 513.459 714.737 536.136 692.06 536.136Z" fill="#2A9D8F" fill-rule="evenodd"/><path d="M714.737 513.459 737.414 513.459 737.414 536.136 714.737 536.136Z" fill="#2A9D8F" fill-rule="evenodd"/><path d="M737.414 513.459 760.091 513.459 760.091 536.136 737.414 536.136Z" fill="#2A9D8F" fill-rule="evenodd"/><path d="M760.091 513.459 782.768 513.459 782.768 536.136 760.091 536.136Z" fill="#2A9D8F" fill-rule="evenodd"/><path d="M782.768 513.459 805.445 513.459 805.445 536.136 782.768 536.136Z" fill="#2A9D8F" fill-rule="evenodd"/><path d="M805.445 513.459 828.122 513.459 828.122 536.136 805.445 536.136Z" fill="#2A9D8F" fill-rule="evenodd"/><path d="M828.122 513.459 850.8 513.459 850.8 536.136 828.122 536.136Z" fill="#2A9D8F" fill-rule="evenodd"/><path d="M850.8 513.459 873.477 513.459 873.477 536.136 850.8 536.136Z" fill="#2A9D8F" fill-rule="evenodd"/><path d="M873.477 513.459 896.154 513.459 896.154 536.136 873.477 536.136Z" fill="#2A9D8F" fill-rule="evenodd"/><path d="M896.154 513.459 918.831 513.459 918.831 536.136 896.154 536.136Z" fill="#2A9D8F" fill-rule="evenodd"/><path d="M918.831 513.459 941.508 513.459 941.508 536.136 918.831 536.136Z" fill="#2A9D8F" fill-rule="evenodd"/><path d="M941.508 513.459 964.185 513.459 964.185 536.136 941.508 536.136Z" fill="#2A9D8F" fill-rule="evenodd"/><path d="M964.185 513.459 986.863 513.459 986.863 536.136 964.185 536.136Z" fill="#2A9D8F" fill-rule="evenodd"/><path d="M986.863 513.459 1009.54 513.459 1009.54 536.136 986.863 536.136Z" fill="#2A9D8F" fill-rule="evenodd"/><path d="M578.674 422.083 578.674 536.802" stroke="#000000" stroke-width="1.33333" stroke-linejoin="round" stroke-miterlimit="10" fill="none" fill-rule="evenodd"/><path d="M601.351 422.083 601.351 536.802" stroke="#000000" stroke-width="1.33333" stroke-linejoin="round" stroke-miterlimit="10" fill="none" fill-rule="evenodd"/><path d="M624.028 444.76 624.028 536.802" stroke="#000000" stroke-width="1.33333" stroke-linejoin="round" stroke-miterlimit="10" fill="none" fill-rule="evenodd"/><path d="M646.705 444.76 646.705 536.802" stroke="#000000" stroke-width="1.33333" stroke-linejoin="round" stroke-miterlimit="10" fill="none" fill-rule="evenodd"/><path d="M669.382 444.76 669.382 536.802" stroke="#000000" stroke-width="1.33333" stroke-linejoin="round" stroke-miterlimit="10" fill="none" fill-rule="evenodd"/><path d="M692.06 444.76 692.06 536.802" stroke="#000000" stroke-width="1.33333" stroke-linejoin="round" stroke-miterlimit="10" fill="none" fill-rule="evenodd"/><path d="M714.737 444.76 714.737 536.802" stroke="#000000" stroke-width="1.33333" stroke-linejoin="round" stroke-miterlimit="10" fill="none" fill-rule="evenodd"/><path d="M737.414 444.76 737.414 536.802" stroke="#000000" stroke-width="1.33333" stroke-linejoin="round" stroke-miterlimit="10" fill="none" fill-rule="evenodd"/><path d="M760.091 444.76 760.091 536.802" stroke="#000000" stroke-width="1.33333" stroke-linejoin="round" stroke-miterlimit="10" fill="none" fill-rule="evenodd"/><path d="M782.768 444.76 782.768 536.802" stroke="#000000" stroke-width="1.33333" stroke-linejoin="round" stroke-miterlimit="10" fill="none" fill-rule="evenodd"/><path d="M805.445 444.76 805.445 536.802" stroke="#000000" stroke-width="1.33333" stroke-linejoin="round" stroke-miterlimit="10" fill="none" fill-rule="evenodd"/><path d="M828.122 444.76 828.122 536.802" stroke="#000000" stroke-width="1.33333" stroke-linejoin="round" stroke-miterlimit="10" fill="none" fill-rule="evenodd"/><path d="M850.8 444.76 850.8 536.802" stroke="#000000" stroke-width="1.33333" stroke-linejoin="round" stroke-miterlimit="10" fill="none" fill-rule="evenodd"/><path d="M873.477 444.76 873.477 536.802" stroke="#000000" stroke-width="1.33333" stroke-linejoin="round" stroke-miterlimit="10" fill="none" fill-rule="evenodd"/><path d="M896.154 444.76 896.154 536.802" stroke="#000000" stroke-width="1.33333" stroke-linejoin="round" stroke-miterlimit="10" fill="none" fill-rule="evenodd"/><path d="M918.831 444.76 918.831 536.802" stroke="#000000" stroke-width="1.33333" stroke-linejoin="round" stroke-miterlimit="10" fill="none" fill-rule="evenodd"/><path d="M941.508 444.76 941.508 536.802" stroke="#000000" stroke-width="1.33333" stroke-linejoin="round" stroke-miterlimit="10" fill="none" fill-rule="evenodd"/><path d="M964.185 444.76 964.185 536.802" stroke="#000000" stroke-width="1.33333" stroke-linejoin="round" stroke-miterlimit="10" fill="none" fill-rule="evenodd"/><path d="M986.863 444.76 986.863 536.802" stroke="#000000" stroke-width="1.33333" stroke-linejoin="round" stroke-miterlimit="10" fill="none" fill-rule="evenodd"/><path d="M555.33 445.427 1010.21 445.427" stroke="#000000" stroke-width="1.33333" stroke-linejoin="round" stroke-miterlimit="10" fill="none" fill-rule="evenodd"/><path d="M555.33 468.104 1010.21 468.104" stroke="#000000" stroke-width="1.33333" stroke-linejoin="round" stroke-miterlimit="10" fill="none" fill-rule="evenodd"/><path d="M555.33 490.781 1010.21 490.781" stroke="#000000" stroke-width="1.33333" stroke-linejoin="round" stroke-miterlimit="10" fill="none" fill-rule="evenodd"/><path d="M555.33 513.459 1010.21 513.459" stroke="#000000" stroke-width="1.33333" stroke-linejoin="round" stroke-miterlimit="10" fill="none" fill-rule="evenodd"/><path d="M555.997 422.083 555.997 536.802" stroke="#000000" stroke-width="1.33333" stroke-linejoin="round" stroke-miterlimit="10" fill="none" fill-rule="evenodd"/><path d="M1009.54 444.76 1009.54 536.802" stroke="#000000" stroke-width="1.33333" stroke-linejoin="round" stroke-miterlimit="10" fill="none" fill-rule="evenodd"/><path d="M555.33 422.75 602.018 422.75" stroke="#000000" stroke-width="1.33333" stroke-linejoin="round" stroke-miterlimit="10" fill="none" fill-rule="evenodd"/><path d="M555.33 536.136 1010.21 536.136" stroke="#000000" stroke-width="1.33333" stroke-linejoin="round" stroke-miterlimit="10" fill="none" fill-rule="evenodd"/><text font-family="Calibri,Calibri_MSFontService,sans-serif" font-weight="700" font-size="21" transform="translate(741.312 561)">Baptisme<tspan font-size="21" x="13.46" y="25">(8,2%)</tspan></text></g></svg>