<svg width="457" height="185" xmlns="http://www.w3.org/2000/svg" xmlns:xlink="http://www.w3.org/1999/xlink" overflow="hidden"><defs><clipPath id="clip0"><rect x="42" y="421" width="457" height="185"/></clipPath></defs><g clip-path="url(#clip0)" transform="translate(-42 -421)"><path d="M43.6886 422.75 66.3658 422.75 66.3658 445.427 43.6886 445.427Z" fill="#2A9D8F" fill-rule="evenodd"/><path d="M66.3658 422.75 89.0429 422.75 89.0429 445.427 66.3658 445.427Z" fill="#2A9D8F" fill-rule="evenodd"/><path d="M89.0429 422.75 111.72 422.75 111.72 445.427 89.0429 445.427Z" fill="#2A9D8F" fill-rule="evenodd"/><path d="M111.72 422.75 134.397 422.75 134.397 445.427 111.72 445.427Z" fill="#2A9D8F" fill-rule="evenodd"/><path d="M134.397 422.75 157.074 422.75 157.074 445.427 134.397 445.427Z" fill="#2A9D8F" fill-rule="evenodd"/><path d="M157.074 422.75 179.752 422.75 179.752 445.427 157.074 445.427Z" fill="#2A9D8F" fill-rule="evenodd"/><path d="M179.752 422.75 202.429 422.75 202.429 445.427 179.752 445.427Z" fill="#2A9D8F" fill-rule="evenodd"/><path d="M202.429 422.75 225.106 422.75 225.106 445.427 202.429 445.427Z" fill="#2A9D8F" fill-rule="evenodd"/><path d="M225.106 422.75 247.783 422.75 247.783 445.427 225.106 445.427Z" fill="#2A9D8F" fill-rule="evenodd"/><path d="M247.783 422.75 270.46 422.75 270.46 445.427 247.783 445.427Z" fill="#2A9D8F" fill-rule="evenodd"/><path d="M270.46 422.75 293.137 422.75 293.137 445.427 270.46 445.427Z" fill="#2A9D8F" fill-rule="evenodd"/><path d="M293.137 422.75 315.815 422.75 315.815 445.427 293.137 445.427Z" fill="#2A9D8F" fill-rule="evenodd"/><path d="M315.815 422.75 338.492 422.75 338.492 445.427 315.815 445.427Z" fill="#2A9D8F" fill-rule="evenodd"/><path d="M338.492 422.75 361.169 422.75 361.169 445.427 338.492 445.427Z" fill="#2A9D8F" fill-rule="evenodd"/><path d="M361.169 422.75 383.846 422.75 383.846 445.427 361.169 445.427Z" fill="#2A9D8F" fill-rule="evenodd"/><path d="M383.846 422.75 406.523 422.75 406.523 445.427 383.846 445.427Z" fill="#2A9D8F" fill-rule="evenodd"/><path d="M406.523 422.75 429.2 422.75 429.2 445.427 406.523 445.427Z" fill="#2A9D8F" fill-rule="evenodd"/><path d="M429.2 422.75 451.878 422.75 451.878 445.427 429.2 445.427Z" fill="#2A9D8F" fill-rule="evenodd"/><path d="M451.878 422.75 474.555 422.75 474.555 445.427 451.878 445.427Z" fill="#2A9D8F" fill-rule="evenodd"/><path d="M474.555 422.75 497.232 422.75 497.232 445.427 474.555 445.427Z" fill="#2A9D8F" fill-rule="evenodd"/><path d="M43.6886 445.427 66.3658 445.427 66.3658 468.104 43.6886 468.104Z" fill="#2A9D8F" fill-rule="evenodd"/><path d="M66.3658 445.427 89.0429 445.427 89.0429 468.104 66.3658 468.104Z" fill="#2A9D8F" fill-rule="evenodd"/><path d="M89.0429 445.427 111.72 445.427 111.72 468.104 89.0429 468.104Z" fill="#2A9D8F" fill-rule="evenodd"/><path d="M111.72 445.427 134.397 445.427 134.397 468.104 111.72 468.104Z" fill="#2A9D8F" fill-rule="evenodd"/><path d="M134.397 445.427 157.074 445.427 157.074 468.104 134.397 468.104Z" fill="#2A9D8F" fill-rule="evenodd"/><path d="M157.074 445.427 179.752 445.427 179.752 468.104 157.074 468.104Z" fill="#2A9D8F" fill-rule="evenodd"/><path d="M179.752 445.427 202.429 445.427 202.429 468.104 179.752 468.104Z" fill="#2A9D8F" fill-rule="evenodd"/><path d="M202.429 445.427 225.106 445.427 225.106 468.104 202.429 468.104Z" fill="#2A9D8F" fill-rule="evenodd"/><path d="M225.106 445.427 247.783 445.427 247.783 468.104 225.106 468.104Z" fill="#2A9D8F" fill-rule="evenodd"/><path d="M247.783 445.427 270.46 445.427 270.46 468.104 247.783 468.104Z" fill="#2A9D8F" fill-rule="evenodd"/><path d="M270.46 445.427 293.137 445.427 293.137 468.104 270.46 468.104Z" fill="#2A9D8F" fill-rule="evenodd"/><path d="M293.137 445.427 315.815 445.427 315.815 468.104 293.137 468.104Z" fill="#2A9D8F" fill-rule="evenodd"/><path d="M315.815 445.427 338.492 445.427 338.492 468.104 315.815 468.104Z" fill="#2A9D8F" fill-rule="evenodd"/><path d="M338.492 445.427 361.169 445.427 361.169 468.104 338.492 468.104Z" fill="#2A9D8F" fill-rule="evenodd"/><path d="M361.169 445.427 383.846 445.427 383.846 468.104 361.169 468.104Z" fill="#2A9D8F" fill-rule="evenodd"/><path d="M383.846 445.427 406.523 445.427 406.523 468.104 383.846 468.104Z" fill="#2A9D8F" fill-rule="evenodd"/><path d="M406.523 445.427 429.2 445.427 429.2 468.104 406.523 468.104Z" fill="#2A9D8F" fill-rule="evenodd"/><path d="M429.2 445.427 451.878 445.427 451.878 468.104 429.2 468.104Z" fill="#2A9D8F" fill-rule="evenodd"/><path d="M451.878 445.427 474.555 445.427 474.555 468.104 451.878 468.104Z" fill="#2A9D8F" fill-rule="evenodd"/><path d="M474.555 445.427 497.232 445.427 497.232 468.104 474.555 468.104Z" fill="#2A9D8F" fill-rule="evenodd"/><path d="M43.6886 468.104 66.3658 468.104 66.3658 490.781 43.6886 490.781Z" fill="#2A9D8F" fill-rule="evenodd"/><path d="M66.3658 468.104 89.0429 468.104 89.0429 490.781 66.3658 490.781Z" fill="#2A9D8F" fill-rule="evenodd"/><path d="M89.0429 468.104 111.72 468.104 111.72 490.781 89.0429 490.781Z" fill="#2A9D8F" fill-rule="evenodd"/><path d="M111.72 468.104 134.397 468.104 134.397 490.781 111.72 490.781Z" fill="#2A9D8F" fill-rule="evenodd"/><path d="M134.397 468.104 157.074 468.104 157.074 490.781 134.397 490.781Z" fill="#2A9D8F" fill-rule="evenodd"/><path d="M157.074 468.104 179.752 468.104 179.752 490.781 157.074 490.781Z" fill="#2A9D8F" fill-rule="evenodd"/><path d="M179.752 468.104 202.429 468.104 202.429 490.781 179.752 490.781Z" fill="#2A9D8F" fill-rule="evenodd"/><path d="M202.429 468.104 225.106 468.104 225.106 490.781 202.429 490.781Z" fill="#2A9D8F" fill-rule="evenodd"/><path d="M225.106 468.104 247.783 468.104 247.783 490.781 225.106 490.781Z" fill="#2A9D8F" fill-rule="evenodd"/><path d="M247.783 468.104 270.46 468.104 270.46 490.781 247.783 490.781Z" fill="#2A9D8F" fill-rule="evenodd"/><path d="M270.46 468.104 293.137 468.104 293.137 490.781 270.46 490.781Z" fill="#2A9D8F" fill-rule="evenodd"/><path d="M293.137 468.104 315.815 468.104 315.815 490.781 293.137 490.781Z" fill="#2A9D8F" fill-rule="evenodd"/><path d="M315.815 468.104 338.492 468.104 338.492 490.781 315.815 490.781Z" fill="#2A9D8F" fill-rule="evenodd"/><path d="M338.492 468.104 361.169 468.104 361.169 490.781 338.492 490.781Z" fill="#2A9D8F" fill-rule="evenodd"/><path d="M361.169 468.104 383.846 468.104 383.846 490.781 361.169 490.781Z" fill="#2A9D8F" fill-rule="evenodd"/><path d="M383.846 468.104 406.523 468.104 406.523 490.781 383.846 490.781Z" fill="#2A9D8F" fill-rule="evenodd"/><path d="M406.523 468.104 429.2 468.104 429.2 490.781 406.523 490.781Z" fill="#2A9D8F" fill-rule="evenodd"/><path d="M429.2 468.104 451.878 468.104 451.878 490.781 429.2 490.781Z" fill="#2A9D8F" fill-rule="evenodd"/><path d="M451.878 468.104 474.555 468.104 474.555 490.781 451.878 490.781Z" fill="#2A9D8F" fill-rule="evenodd"/><path d="M474.555 468.104 497.232 468.104 497.232 490.781 474.555 490.781Z" fill="#2A9D8F" fill-rule="evenodd"/><path d="M43.6886 490.781 66.3658 490.781 66.3658 513.459 43.6886 513.459Z" fill="#2A9D8F" fill-rule="evenodd"/><path d="M66.3658 490.781 89.0429 490.781 89.0429 513.459 66.3658 513.459Z" fill="#2A9D8F" fill-rule="evenodd"/><path d="M89.0429 490.781 111.72 490.781 111.72 513.459 89.0429 513.459Z" fill="#2A9D8F" fill-rule="evenodd"/><path d="M111.72 490.781 134.397 490.781 134.397 513.459 111.72 513.459Z" fill="#2A9D8F" fill-rule="evenodd"/><path d="M134.397 490.781 157.074 490.781 157.074 513.459 134.397 513.459Z" fill="#2A9D8F" fill-rule="evenodd"/><path d="M157.074 490.781 179.752 490.781 179.752 513.459 157.074 513.459Z" fill="#2A9D8F" fill-rule="evenodd"/><path d="M179.752 490.781 202.429 490.781 202.429 513.459 179.752 513.459Z" fill="#2A9D8F" fill-rule="evenodd"/><path d="M202.429 490.781 225.106 490.781 225.106 513.459 202.429 513.459Z" fill="#2A9D8F" fill-rule="evenodd"/><path d="M225.106 490.781 247.783 490.781 247.783 513.459 225.106 513.459Z" fill="#2A9D8F" fill-rule="evenodd"/><path d="M247.783 490.781 270.46 490.781 270.46 513.459 247.783 513.459Z" fill="#2A9D8F" fill-rule="evenodd"/><path d="M270.46 490.781 293.137 490.781 293.137 513.459 270.46 513.459Z" fill="#2A9D8F" fill-rule="evenodd"/><path d="M293.137 490.781 315.815 490.781 315.815 513.459 293.137 513.459Z" fill="#2A9D8F" fill-rule="evenodd"/><path d="M315.815 490.781 338.492 490.781 338.492 513.459 315.815 513.459Z" fill="#2A9D8F" fill-rule="evenodd"/><path d="M338.492 490.781 361.169 490.781 361.169 513.459 338.492 513.459Z" fill="#2A9D8F" fill-rule="evenodd"/><path d="M361.169 490.781 383.846 490.781 383.846 513.459 361.169 513.459Z" fill="#2A9D8F" fill-rule="evenodd"/><path d="M383.846 490.781 406.523 490.781 406.523 513.459 383.846 513.459Z" fill="#2A9D8F" fill-rule="evenodd"/><path d="M406.523 490.781 429.2 490.781 429.2 513.459 406.523 513.459Z" fill="#2A9D8F" fill-rule="evenodd"/><path d="M429.2 490.781 451.878 490.781 451.878 513.459 429.2 513.459Z" fill="#2A9D8F" fill-rule="evenodd"/><path d="M451.878 490.781 474.555 490.781 474.555 513.459 451.878 513.459Z" fill="#2A9D8F" fill-rule="evenodd"/><path d="M474.555 490.781 497.232 490.781 497.232 513.459 474.555 513.459Z" fill="#2A9D8F" fill-rule="evenodd"/><path d="M43.6886 513.459 66.3658 513.459 66.3658 536.136 43.6886 536.136Z" fill="#2A9D8F" fill-rule="evenodd"/><path d="M66.3658 513.459 89.0429 513.459 89.0429 536.136 66.3658 536.136Z" fill="#2A9D8F" fill-rule="evenodd"/><path d="M89.0429 513.459 111.72 513.459 111.72 536.136 89.0429 536.136Z" fill="#2A9D8F" fill-rule="evenodd"/><path d="M111.72 513.459 134.397 513.459 134.397 536.136 111.72 536.136Z" fill="#2A9D8F" fill-rule="evenodd"/><path d="M134.397 513.459 157.074 513.459 157.074 536.136 134.397 536.136Z" fill="#2A9D8F" fill-rule="evenodd"/><path d="M157.074 513.459 179.752 513.459 179.752 536.136 157.074 536.136Z" fill="#2A9D8F" fill-rule="evenodd"/><path d="M179.752 513.459 202.429 513.459 202.429 536.136 179.752 536.136Z" fill="#2A9D8F" fill-rule="evenodd"/><path d="M202.429 513.459 225.106 513.459 225.106 536.136 202.429 536.136Z" fill="#2A9D8F" fill-rule="evenodd"/><path d="M225.106 513.459 247.783 513.459 247.783 536.136 225.106 536.136Z" fill="#2A9D8F" fill-rule="evenodd"/><path d="M247.783 513.459 270.46 513.459 270.46 536.136 247.783 536.136Z" fill="#2A9D8F" fill-rule="evenodd"/><path d="M270.46 513.459 293.137 513.459 293.137 536.136 270.46 536.136Z" fill="#2A9D8F" fill-rule="evenodd"/><path d="M293.137 513.459 315.815 513.459 315.815 536.136 293.137 536.136Z" fill="#2A9D8F" fill-rule="evenodd"/><path d="M315.815 513.459 338.492 513.459 338.492 536.136 315.815 536.136Z" fill="#2A9D8F" fill-rule="evenodd"/><path d="M338.492 513.459 361.169 513.459 361.169 536.136 338.492 536.136Z" fill="#2A9D8F" fill-rule="evenodd"/><path d="M361.169 513.459 383.846 513.459 383.846 536.136 361.169 536.136Z" fill="#2A9D8F" fill-rule="evenodd"/><path d="M383.846 513.459 406.523 513.459 406.523 536.136 383.846 536.136Z" fill="#2A9D8F" fill-rule="evenodd"/><path d="M406.523 513.459 429.2 513.459 429.2 536.136 406.523 536.136Z" fill="#2A9D8F" fill-rule="evenodd"/><path d="M429.2 513.459 451.878 513.459 451.878 536.136 429.2 536.136Z" fill="#2A9D8F" fill-rule="evenodd"/><path d="M451.878 513.459 474.555 513.459 474.555 536.136 451.878 536.136Z" fill="#2A9D8F" fill-rule="evenodd"/><path d="M474.555 513.459 497.232 513.459 497.232 536.136 474.555 536.136Z" fill="#2A9D8F" fill-rule="evenodd"/><path d="M66.3658 422.083 66.3658 536.802" stroke="#000000" stroke-width="1.33333" stroke-linejoin="round" stroke-miterlimit="10" fill="none" fill-rule="evenodd"/><path d="M89.0429 422.083 89.0429 536.802" stroke="#000000" stroke-width="1.33333" stroke-linejoin="round" stroke-miterlimit="10" fill="none" fill-rule="evenodd"/><path d="M111.72 422.083 111.72 536.802" stroke="#000000" stroke-width="1.33333" stroke-linejoin="round" stroke-miterlimit="10" fill="none" fill-rule="evenodd"/><path d="M134.397 422.083 134.397 536.802" stroke="#000000" stroke-width="1.33333" stroke-linejoin="round" stroke-miterlimit="10" fill="none" fill-rule="evenodd"/><path d="M157.074 422.083 157.074 536.802" stroke="#000000" stroke-width="1.33333" stroke-linejoin="round" stroke-miterlimit="10" fill="none" fill-rule="evenodd"/><path d="M179.752 422.083 179.752 536.802" stroke="#000000" stroke-width="1.33333" stroke-linejoin="round" stroke-miterlimit="10" fill="none" fill-rule="evenodd"/><path d="M202.429 422.083 202.429 536.802" stroke="#000000" stroke-width="1.33333" stroke-linejoin="round" stroke-miterlimit="10" fill="none" fill-rule="evenodd"/><path d="M225.106 422.083 225.106 536.802" stroke="#000000" stroke-width="1.33333" stroke-linejoin="round" stroke-miterlimit="10" fill="none" fill-rule="evenodd"/><path d="M247.783 422.083 247.783 536.802" stroke="#000000" stroke-width="1.33333" stroke-linejoin="round" stroke-miterlimit="10" fill="none" fill-rule="evenodd"/><path d="M270.46 422.083 270.46 536.802" stroke="#000000" stroke-width="1.33333" stroke-linejoin="round" stroke-miterlimit="10" fill="none" fill-rule="evenodd"/><path d="M293.137 422.083 293.137 536.802" stroke="#000000" stroke-width="1.33333" stroke-linejoin="round" stroke-miterlimit="10" fill="none" fill-rule="evenodd"/><path d="M315.815 422.083 315.815 536.802" stroke="#000000" stroke-width="1.33333" stroke-linejoin="round" stroke-miterlimit="10" fill="none" fill-rule="evenodd"/><path d="M338.492 422.083 338.492 536.802" stroke="#000000" stroke-width="1.33333" stroke-linejoin="round" stroke-miterlimit="10" fill="none" fill-rule="evenodd"/><path d="M361.169 422.083 361.169 536.802" stroke="#000000" stroke-width="1.33333" stroke-linejoin="round" stroke-miterlimit="10" fill="none" fill-rule="evenodd"/><path d="M383.846 422.083 383.846 536.802" stroke="#000000" stroke-width="1.33333" stroke-linejoin="round" stroke-miterlimit="10" fill="none" fill-rule="evenodd"/><path d="M406.523 422.083 406.523 536.802" stroke="#000000" stroke-width="1.33333" stroke-linejoin="round" stroke-miterlimit="10" fill="none" fill-rule="evenodd"/><path d="M429.2 422.083 429.2 536.802" stroke="#000000" stroke-width="1.33333" stroke-linejoin="round" stroke-miterlimit="10" fill="none" fill-rule="evenodd"/><path d="M451.878 422.083 451.878 536.802" stroke="#000000" stroke-width="1.33333" stroke-linejoin="round" stroke-miterlimit="10" fill="none" fill-rule="evenodd"/><path d="M474.555 422.083 474.555 536.802" stroke="#000000" stroke-width="1.33333" stroke-linejoin="round" stroke-miterlimit="10" fill="none" fill-rule="evenodd"/><path d="M43.0219 445.427 497.899 445.427" stroke="#000000" stroke-width="1.33333" stroke-linejoin="round" stroke-miterlimit="10" fill="none" fill-rule="evenodd"/><path d="M43.0219 468.104 497.899 468.104" stroke="#000000" stroke-width="1.33333" stroke-linejoin="round" stroke-miterlimit="10" fill="none" fill-rule="evenodd"/><path d="M43.0219 490.781 497.899 490.781" stroke="#000000" stroke-width="1.33333" stroke-linejoin="round" stroke-miterlimit="10" fill="none" fill-rule="evenodd"/><path d="M43.0219 513.459 497.899 513.459" stroke="#000000" stroke-width="1.33333" stroke-linejoin="round" stroke-miterlimit="10" fill="none" fill-rule="evenodd"/><path d="M43.6886 422.083 43.6886 536.802" stroke="#000000" stroke-width="1.33333" stroke-linejoin="round" stroke-miterlimit="10" fill="none" fill-rule="evenodd"/><path d="M497.232 422.083 497.232 536.802" stroke="#000000" stroke-width="1.33333" stroke-linejoin="round" stroke-miterlimit="10" fill="none" fill-rule="evenodd"/><path d="M43.0219 422.75 497.899 422.75" stroke="#000000" stroke-width="1.33333" stroke-linejoin="round" stroke-miterlimit="10" fill="none" fill-rule="evenodd"/><path d="M43.0219 536.136 497.899 536.136" stroke="#000000" stroke-width="1.33333" stroke-linejoin="round" stroke-miterlimit="10" fill="none" fill-rule="evenodd"/><text font-family="Calibri,Calibri_MSFontService,sans-serif" font-weight="700" font-size="21" transform="translate(211.69 561)">Anglicanisme<tspan font-size="21" x="25.3533" y="25">(10,0%)</tspan></text></g></svg>