<svg width="457" height="162" xmlns="http://www.w3.org/2000/svg" xmlns:xlink="http://www.w3.org/1999/xlink" overflow="hidden"><defs><clipPath id="clip0"><rect x="21" y="28" width="457" height="162"/></clipPath></defs><g clip-path="url(#clip0)" transform="translate(-21 -28)"><path d="M22.2515 29.7377 44.9287 29.7377 44.9287 52.4149 22.2515 52.4149Z" fill="#2A9D8F" fill-rule="evenodd"/><path d="M44.9287 29.7377 67.6059 29.7377 67.6059 52.4149 44.9287 52.4149Z" fill="#2A9D8F" fill-rule="evenodd"/><path d="M67.6059 29.7377 90.283 29.7377 90.283 52.4149 67.6059 52.4149Z" fill="#2A9D8F" fill-rule="evenodd"/><path d="M90.283 29.7377 112.96 29.7377 112.96 52.4149 90.283 52.4149Z" fill="#2A9D8F" fill-rule="evenodd"/><path d="M112.96 29.7377 135.637 29.7377 135.637 52.4149 112.96 52.4149Z" fill="#2A9D8F" fill-rule="evenodd"/><path d="M135.637 29.7377 158.315 29.7377 158.315 52.4149 135.637 52.4149Z" fill="#2A9D8F" fill-rule="evenodd"/><path d="M158.315 29.7377 180.992 29.7377 180.992 52.4149 158.315 52.4149Z" fill="#2A9D8F" fill-rule="evenodd"/><path d="M180.992 29.7377 203.669 29.7377 203.669 52.4149 180.992 52.4149Z" fill="#2A9D8F" fill-rule="evenodd"/><path d="M203.669 29.7377 475.795 29.7377 475.795 52.4149 203.669 52.4149Z" fill="#FFFFFF" fill-rule="evenodd"/><path d="M22.2515 52.4149 44.9287 52.4149 44.9287 75.0921 22.2515 75.0921Z" fill="#2A9D8F" fill-rule="evenodd"/><path d="M44.9287 52.4149 67.6059 52.4149 67.6059 75.0921 44.9287 75.0921Z" fill="#2A9D8F" fill-rule="evenodd"/><path d="M67.6059 52.4149 90.283 52.4149 90.283 75.0921 67.6059 75.0921Z" fill="#2A9D8F" fill-rule="evenodd"/><path d="M90.283 52.4149 112.96 52.4149 112.96 75.0921 90.283 75.0921Z" fill="#2A9D8F" fill-rule="evenodd"/><path d="M112.96 52.4149 135.637 52.4149 135.637 75.0921 112.96 75.0921Z" fill="#2A9D8F" fill-rule="evenodd"/><path d="M135.637 52.4149 158.315 52.4149 158.315 75.0921 135.637 75.0921Z" fill="#2A9D8F" fill-rule="evenodd"/><path d="M158.315 52.4149 180.992 52.4149 180.992 75.0921 158.315 75.0921Z" fill="#2A9D8F" fill-rule="evenodd"/><path d="M180.992 52.4149 203.669 52.4149 203.669 75.0921 180.992 75.0921Z" fill="#2A9D8F" fill-rule="evenodd"/><path d="M203.669 52.4149 226.346 52.4149 226.346 75.0921 203.669 75.0921Z" fill="#2A9D8F" fill-rule="evenodd"/><path d="M226.346 52.4149 249.023 52.4149 249.023 75.0921 226.346 75.0921Z" fill="#2A9D8F" fill-rule="evenodd"/><path d="M249.023 52.4149 271.7 52.4149 271.7 75.0921 249.023 75.0921Z" fill="#2A9D8F" fill-rule="evenodd"/><path d="M271.7 52.4149 294.378 52.4149 294.378 75.0921 271.7 75.0921Z" fill="#2A9D8F" fill-rule="evenodd"/><path d="M294.378 52.4149 317.055 52.4149 317.055 75.0921 294.378 75.0921Z" fill="#2A9D8F" fill-rule="evenodd"/><path d="M317.055 52.4149 339.732 52.4149 339.732 75.0921 317.055 75.0921Z" fill="#2A9D8F" fill-rule="evenodd"/><path d="M339.732 52.4149 362.409 52.4149 362.409 75.0921 339.732 75.0921Z" fill="#2A9D8F" fill-rule="evenodd"/><path d="M362.409 52.4149 385.086 52.4149 385.086 75.0921 362.409 75.0921Z" fill="#2A9D8F" fill-rule="evenodd"/><path d="M385.086 52.4149 407.763 52.4149 407.763 75.0921 385.086 75.0921Z" fill="#2A9D8F" fill-rule="evenodd"/><path d="M407.763 52.4149 430.441 52.4149 430.441 75.0921 407.763 75.0921Z" fill="#2A9D8F" fill-rule="evenodd"/><path d="M430.441 52.4149 453.118 52.4149 453.118 75.0921 430.441 75.0921Z" fill="#2A9D8F" fill-rule="evenodd"/><path d="M453.118 52.4149 475.795 52.4149 475.795 75.0921 453.118 75.0921Z" fill="#2A9D8F" fill-rule="evenodd"/><path d="M22.2515 75.0921 44.9287 75.0921 44.9287 97.7692 22.2515 97.7692Z" fill="#2A9D8F" fill-rule="evenodd"/><path d="M44.9287 75.0921 67.6059 75.0921 67.6059 97.7692 44.9287 97.7692Z" fill="#2A9D8F" fill-rule="evenodd"/><path d="M67.6059 75.0921 90.283 75.0921 90.283 97.7692 67.6059 97.7692Z" fill="#2A9D8F" fill-rule="evenodd"/><path d="M90.283 75.0921 112.96 75.0921 112.96 97.7692 90.283 97.7692Z" fill="#2A9D8F" fill-rule="evenodd"/><path d="M112.96 75.0921 135.637 75.0921 135.637 97.7692 112.96 97.7692Z" fill="#2A9D8F" fill-rule="evenodd"/><path d="M135.637 75.0921 158.315 75.0921 158.315 97.7692 135.637 97.7692Z" fill="#2A9D8F" fill-rule="evenodd"/><path d="M158.315 75.0921 180.992 75.0921 180.992 97.7692 158.315 97.7692Z" fill="#2A9D8F" fill-rule="evenodd"/><path d="M180.992 75.0921 203.669 75.0921 203.669 97.7692 180.992 97.7692Z" fill="#2A9D8F" fill-rule="evenodd"/><path d="M203.669 75.0921 226.346 75.0921 226.346 97.7692 203.669 97.7692Z" fill="#2A9D8F" fill-rule="evenodd"/><path d="M226.346 75.0921 249.023 75.0921 249.023 97.7692 226.346 97.7692Z" fill="#2A9D8F" fill-rule="evenodd"/><path d="M249.023 75.0921 271.7 75.0921 271.7 97.7692 249.023 97.7692Z" fill="#2A9D8F" fill-rule="evenodd"/><path d="M271.7 75.0921 294.378 75.0921 294.378 97.7692 271.7 97.7692Z" fill="#2A9D8F" fill-rule="evenodd"/><path d="M294.378 75.0921 317.055 75.0921 317.055 97.7692 294.378 97.7692Z" fill="#2A9D8F" fill-rule="evenodd"/><path d="M317.055 75.0921 339.732 75.0921 339.732 97.7692 317.055 97.7692Z" fill="#2A9D8F" fill-rule="evenodd"/><path d="M339.732 75.0921 362.409 75.0921 362.409 97.7692 339.732 97.7692Z" fill="#2A9D8F" fill-rule="evenodd"/><path d="M362.409 75.0921 385.086 75.0921 385.086 97.7692 362.409 97.7692Z" fill="#2A9D8F" fill-rule="evenodd"/><path d="M385.086 75.0921 407.763 75.0921 407.763 97.7692 385.086 97.7692Z" fill="#2A9D8F" fill-rule="evenodd"/><path d="M407.763 75.0921 430.441 75.0921 430.441 97.7692 407.763 97.7692Z" fill="#2A9D8F" fill-rule="evenodd"/><path d="M430.441 75.0921 453.118 75.0921 453.118 97.7692 430.441 97.7692Z" fill="#2A9D8F" fill-rule="evenodd"/><path d="M453.118 75.0921 475.795 75.0921 475.795 97.7692 453.118 97.7692Z" fill="#2A9D8F" fill-rule="evenodd"/><path d="M22.2515 97.7692 44.9287 97.7692 44.9287 120.446 22.2515 120.446Z" fill="#2A9D8F" fill-rule="evenodd"/><path d="M44.9287 97.7692 67.6059 97.7692 67.6059 120.446 44.9287 120.446Z" fill="#2A9D8F" fill-rule="evenodd"/><path d="M67.6059 97.7692 90.283 97.7692 90.283 120.446 67.6059 120.446Z" fill="#2A9D8F" fill-rule="evenodd"/><path d="M90.283 97.7692 112.96 97.7692 112.96 120.446 90.283 120.446Z" fill="#2A9D8F" fill-rule="evenodd"/><path d="M112.96 97.7692 135.637 97.7692 135.637 120.446 112.96 120.446Z" fill="#2A9D8F" fill-rule="evenodd"/><path d="M135.637 97.7692 158.315 97.7692 158.315 120.446 135.637 120.446Z" fill="#2A9D8F" fill-rule="evenodd"/><path d="M158.315 97.7692 180.992 97.7692 180.992 120.446 158.315 120.446Z" fill="#2A9D8F" fill-rule="evenodd"/><path d="M180.992 97.7692 203.669 97.7692 203.669 120.446 180.992 120.446Z" fill="#2A9D8F" fill-rule="evenodd"/><path d="M203.669 97.7692 226.346 97.7692 226.346 120.446 203.669 120.446Z" fill="#2A9D8F" fill-rule="evenodd"/><path d="M226.346 97.7692 249.023 97.7692 249.023 120.446 226.346 120.446Z" fill="#2A9D8F" fill-rule="evenodd"/><path d="M249.023 97.7692 271.7 97.7692 271.7 120.446 249.023 120.446Z" fill="#2A9D8F" fill-rule="evenodd"/><path d="M271.7 97.7692 294.378 97.7692 294.378 120.446 271.7 120.446Z" fill="#2A9D8F" fill-rule="evenodd"/><path d="M294.378 97.7692 317.055 97.7692 317.055 120.446 294.378 120.446Z" fill="#2A9D8F" fill-rule="evenodd"/><path d="M317.055 97.7692 339.732 97.7692 339.732 120.446 317.055 120.446Z" fill="#2A9D8F" fill-rule="evenodd"/><path d="M339.732 97.7692 362.409 97.7692 362.409 120.446 339.732 120.446Z" fill="#2A9D8F" fill-rule="evenodd"/><path d="M362.409 97.7692 385.086 97.7692 385.086 120.446 362.409 120.446Z" fill="#2A9D8F" fill-rule="evenodd"/><path d="M385.086 97.7692 407.763 97.7692 407.763 120.446 385.086 120.446Z" fill="#2A9D8F" fill-rule="evenodd"/><path d="M407.763 97.7692 430.441 97.7692 430.441 120.446 407.763 120.446Z" fill="#2A9D8F" fill-rule="evenodd"/><path d="M430.441 97.7692 453.118 97.7692 453.118 120.446 430.441 120.446Z" fill="#2A9D8F" fill-rule="evenodd"/><path d="M453.118 97.7692 475.795 97.7692 475.795 120.446 453.118 120.446Z" fill="#2A9D8F" fill-rule="evenodd"/><path d="M44.9287 29.0711 44.9287 121.113" stroke="#000000" stroke-width="1.33333" stroke-linejoin="round" stroke-miterlimit="10" fill="none" fill-rule="evenodd"/><path d="M67.6059 29.0711 67.6059 121.113" stroke="#000000" stroke-width="1.33333" stroke-linejoin="round" stroke-miterlimit="10" fill="none" fill-rule="evenodd"/><path d="M90.283 29.0711 90.283 121.113" stroke="#000000" stroke-width="1.33333" stroke-linejoin="round" stroke-miterlimit="10" fill="none" fill-rule="evenodd"/><path d="M112.96 29.0711 112.96 121.113" stroke="#000000" stroke-width="1.33333" stroke-linejoin="round" stroke-miterlimit="10" fill="none" fill-rule="evenodd"/><path d="M135.637 29.0711 135.637 121.113" stroke="#000000" stroke-width="1.33333" stroke-linejoin="round" stroke-miterlimit="10" fill="none" fill-rule="evenodd"/><path d="M158.315 29.0711 158.315 121.113" stroke="#000000" stroke-width="1.33333" stroke-linejoin="round" stroke-miterlimit="10" fill="none" fill-rule="evenodd"/><path d="M180.992 29.0711 180.992 121.113" stroke="#000000" stroke-width="1.33333" stroke-linejoin="round" stroke-miterlimit="10" fill="none" fill-rule="evenodd"/><path d="M203.669 29.0711 203.669 121.113" stroke="#000000" stroke-width="1.33333" stroke-linejoin="round" stroke-miterlimit="10" fill="none" fill-rule="evenodd"/><path d="M226.346 51.7482 226.346 121.113" stroke="#000000" stroke-width="1.33333" stroke-linejoin="round" stroke-miterlimit="10" fill="none" fill-rule="evenodd"/><path d="M249.023 51.7482 249.023 121.113" stroke="#000000" stroke-width="1.33333" stroke-linejoin="round" stroke-miterlimit="10" fill="none" fill-rule="evenodd"/><path d="M271.7 51.7482 271.7 121.113" stroke="#000000" stroke-width="1.33333" stroke-linejoin="round" stroke-miterlimit="10" fill="none" fill-rule="evenodd"/><path d="M294.378 51.7482 294.378 121.113" stroke="#000000" stroke-width="1.33333" stroke-linejoin="round" stroke-miterlimit="10" fill="none" fill-rule="evenodd"/><path d="M317.055 51.7482 317.055 121.113" stroke="#000000" stroke-width="1.33333" stroke-linejoin="round" stroke-miterlimit="10" fill="none" fill-rule="evenodd"/><path d="M339.732 51.7482 339.732 121.113" stroke="#000000" stroke-width="1.33333" stroke-linejoin="round" stroke-miterlimit="10" fill="none" fill-rule="evenodd"/><path d="M362.409 51.7482 362.409 121.113" stroke="#000000" stroke-width="1.33333" stroke-linejoin="round" stroke-miterlimit="10" fill="none" fill-rule="evenodd"/><path d="M385.086 51.7482 385.086 121.113" stroke="#000000" stroke-width="1.33333" stroke-linejoin="round" stroke-miterlimit="10" fill="none" fill-rule="evenodd"/><path d="M407.763 51.7482 407.763 121.113" stroke="#000000" stroke-width="1.33333" stroke-linejoin="round" stroke-miterlimit="10" fill="none" fill-rule="evenodd"/><path d="M430.441 51.7482 430.441 121.113" stroke="#000000" stroke-width="1.33333" stroke-linejoin="round" stroke-miterlimit="10" fill="none" fill-rule="evenodd"/><path d="M453.118 51.7482 453.118 121.113" stroke="#000000" stroke-width="1.33333" stroke-linejoin="round" stroke-miterlimit="10" fill="none" fill-rule="evenodd"/><path d="M21.5849 52.4149 476.462 52.4149" stroke="#000000" stroke-width="1.33333" stroke-linejoin="round" stroke-miterlimit="10" fill="none" fill-rule="evenodd"/><path d="M21.5849 75.0921 476.462 75.0921" stroke="#000000" stroke-width="1.33333" stroke-linejoin="round" stroke-miterlimit="10" fill="none" fill-rule="evenodd"/><path d="M21.5849 97.7692 476.462 97.7692" stroke="#000000" stroke-width="1.33333" stroke-linejoin="round" stroke-miterlimit="10" fill="none" fill-rule="evenodd"/><path d="M22.2515 29.0711 22.2515 121.113" stroke="#000000" stroke-width="1.33333" stroke-linejoin="round" stroke-miterlimit="10" fill="none" fill-rule="evenodd"/><path d="M475.795 51.7482 475.795 121.113" stroke="#000000" stroke-width="1.33333" stroke-linejoin="round" stroke-miterlimit="10" fill="none" fill-rule="evenodd"/><path d="M21.5849 29.7377 204.336 29.7377" stroke="#000000" stroke-width="1.33333" stroke-linejoin="round" stroke-miterlimit="10" fill="none" fill-rule="evenodd"/><path d="M21.5849 120.446 476.462 120.446" stroke="#000000" stroke-width="1.33333" stroke-linejoin="round" stroke-miterlimit="10" fill="none" fill-rule="evenodd"/><text font-family="Calibri,Calibri_MSFontService,sans-serif" font-weight="700" font-size="21" transform="translate(188.59 145)">Luthéranisme<tspan font-size="21" x="32.4333" y="25">(6,8%)</tspan></text></g></svg>