<svg width="455" height="94" xmlns="http://www.w3.org/2000/svg" xmlns:xlink="http://www.w3.org/1999/xlink" overflow="hidden"><defs><clipPath id="clip0"><rect x="109" y="85" width="455" height="94"/></clipPath></defs><g clip-path="url(#clip0)" transform="translate(-109 -85)"><path d="M109.863 86.4307 291.28 86.4307 291.28 109.108 109.863 109.108Z" fill="#FFFFFF" fill-rule="evenodd"/><path d="M291.28 86.4307 313.957 86.4307 313.957 109.108 291.28 109.108Z" fill="#2A9D8F" fill-rule="evenodd"/><path d="M313.957 86.4307 336.635 86.4307 336.635 109.108 313.957 109.108Z" fill="#2A9D8F" fill-rule="evenodd"/><path d="M336.635 86.4307 359.312 86.4307 359.312 109.108 336.635 109.108Z" fill="#2A9D8F" fill-rule="evenodd"/><path d="M359.312 86.4307 381.989 86.4307 381.989 109.108 359.312 109.108Z" fill="#2A9D8F" fill-rule="evenodd"/><path d="M381.989 86.4307 563.406 86.4307 563.406 109.108 381.989 109.108Z" fill="#FFFFFF" fill-rule="evenodd"/><path d="M291.28 85.764 291.28 109.774" stroke="#000000" stroke-width="1.33333" stroke-linejoin="round" stroke-miterlimit="10" fill="none" fill-rule="evenodd"/><path d="M313.957 85.764 313.957 109.774" stroke="#000000" stroke-width="1.33333" stroke-linejoin="round" stroke-miterlimit="10" fill="none" fill-rule="evenodd"/><path d="M336.635 85.764 336.635 109.774" stroke="#000000" stroke-width="1.33333" stroke-linejoin="round" stroke-miterlimit="10" fill="none" fill-rule="evenodd"/><path d="M359.312 85.764 359.312 109.774" stroke="#000000" stroke-width="1.33333" stroke-linejoin="round" stroke-miterlimit="10" fill="none" fill-rule="evenodd"/><path d="M381.989 85.764 381.989 109.774" stroke="#000000" stroke-width="1.33333" stroke-linejoin="round" stroke-miterlimit="10" fill="none" fill-rule="evenodd"/><path d="M290.614 86.4307 382.656 86.4307" stroke="#000000" stroke-width="1.33333" stroke-linejoin="round" stroke-miterlimit="10" fill="none" fill-rule="evenodd"/><path d="M290.614 109.108 382.656 109.108" stroke="#000000" stroke-width="1.33333" stroke-linejoin="round" stroke-miterlimit="10" fill="none" fill-rule="evenodd"/><text font-family="Calibri,Calibri_MSFontService,sans-serif" font-weight="700" font-size="21" transform="translate(277.928 134)">Anabaptisme<tspan font-size="21" x="30.7067" y="25">(0,4%)</tspan></text></g></svg>