<svg width="456" height="94" xmlns="http://www.w3.org/2000/svg" xmlns:xlink="http://www.w3.org/1999/xlink" overflow="hidden"><defs><clipPath id="clip0"><rect x="533" y="452" width="456" height="94"/></clipPath></defs><g clip-path="url(#clip0)" transform="translate(-533 -452)"><path d="M534.559 453.444 557.237 453.444 557.237 476.122 534.559 476.122Z" fill="#2A9D8F" fill-rule="evenodd"/><path d="M557.237 453.444 579.914 453.444 579.914 476.122 557.237 476.122Z" fill="#2A9D8F" fill-rule="evenodd"/><path d="M579.914 453.444 602.591 453.444 602.591 476.122 579.914 476.122Z" fill="#2A9D8F" fill-rule="evenodd"/><path d="M602.591 453.444 625.268 453.444 625.268 476.122 602.591 476.122Z" fill="#2A9D8F" fill-rule="evenodd"/><path d="M625.268 453.444 647.945 453.444 647.945 476.122 625.268 476.122Z" fill="#2A9D8F" fill-rule="evenodd"/><path d="M647.945 453.444 670.622 453.444 670.622 476.122 647.945 476.122Z" fill="#2A9D8F" fill-rule="evenodd"/><path d="M670.622 453.444 693.3 453.444 693.3 476.122 670.622 476.122Z" fill="#2A9D8F" fill-rule="evenodd"/><path d="M693.3 453.444 715.977 453.444 715.977 476.122 693.3 476.122Z" fill="#2A9D8F" fill-rule="evenodd"/><path d="M715.977 453.444 738.654 453.444 738.654 476.122 715.977 476.122Z" fill="#2A9D8F" fill-rule="evenodd"/><path d="M738.654 453.444 761.331 453.444 761.331 476.122 738.654 476.122Z" fill="#2A9D8F" fill-rule="evenodd"/><path d="M761.331 453.444 784.008 453.444 784.008 476.122 761.331 476.122Z" fill="#2A9D8F" fill-rule="evenodd"/><path d="M784.008 453.444 806.685 453.444 806.685 476.122 784.008 476.122Z" fill="#2A9D8F" fill-rule="evenodd"/><path d="M806.685 453.444 829.363 453.444 829.363 476.122 806.685 476.122Z" fill="#2A9D8F" fill-rule="evenodd"/><path d="M829.363 453.444 852.04 453.444 852.04 476.122 829.363 476.122Z" fill="#2A9D8F" fill-rule="evenodd"/><path d="M852.04 453.444 874.717 453.444 874.717 476.122 852.04 476.122Z" fill="#2A9D8F" fill-rule="evenodd"/><path d="M874.717 453.444 897.394 453.444 897.394 476.122 874.717 476.122Z" fill="#2A9D8F" fill-rule="evenodd"/><path d="M897.394 453.444 920.071 453.444 920.071 476.122 897.394 476.122Z" fill="#2A9D8F" fill-rule="evenodd"/><path d="M920.071 453.444 942.748 453.444 942.748 476.122 920.071 476.122Z" fill="#2A9D8F" fill-rule="evenodd"/><path d="M942.748 453.444 965.426 453.444 965.426 476.122 942.748 476.122Z" fill="#2A9D8F" fill-rule="evenodd"/><path d="M965.426 453.444 988.103 453.444 988.103 476.122 965.426 476.122Z" fill="#FFFFFF" fill-rule="evenodd"/><path d="M557.237 452.778 557.237 476.788" stroke="#000000" stroke-width="1.33333" stroke-linejoin="round" stroke-miterlimit="10" fill="none" fill-rule="evenodd"/><path d="M579.914 452.778 579.914 476.788" stroke="#000000" stroke-width="1.33333" stroke-linejoin="round" stroke-miterlimit="10" fill="none" fill-rule="evenodd"/><path d="M602.591 452.778 602.591 476.788" stroke="#000000" stroke-width="1.33333" stroke-linejoin="round" stroke-miterlimit="10" fill="none" fill-rule="evenodd"/><path d="M625.268 452.778 625.268 476.788" stroke="#000000" stroke-width="1.33333" stroke-linejoin="round" stroke-miterlimit="10" fill="none" fill-rule="evenodd"/><path d="M647.945 452.778 647.945 476.788" stroke="#000000" stroke-width="1.33333" stroke-linejoin="round" stroke-miterlimit="10" fill="none" fill-rule="evenodd"/><path d="M670.622 452.778 670.622 476.788" stroke="#000000" stroke-width="1.33333" stroke-linejoin="round" stroke-miterlimit="10" fill="none" fill-rule="evenodd"/><path d="M693.3 452.778 693.3 476.788" stroke="#000000" stroke-width="1.33333" stroke-linejoin="round" stroke-miterlimit="10" fill="none" fill-rule="evenodd"/><path d="M715.977 452.778 715.977 476.788" stroke="#000000" stroke-width="1.33333" stroke-linejoin="round" stroke-miterlimit="10" fill="none" fill-rule="evenodd"/><path d="M738.654 452.778 738.654 476.788" stroke="#000000" stroke-width="1.33333" stroke-linejoin="round" stroke-miterlimit="10" fill="none" fill-rule="evenodd"/><path d="M761.331 452.778 761.331 476.788" stroke="#000000" stroke-width="1.33333" stroke-linejoin="round" stroke-miterlimit="10" fill="none" fill-rule="evenodd"/><path d="M784.008 452.778 784.008 476.788" stroke="#000000" stroke-width="1.33333" stroke-linejoin="round" stroke-miterlimit="10" fill="none" fill-rule="evenodd"/><path d="M806.685 452.778 806.685 476.788" stroke="#000000" stroke-width="1.33333" stroke-linejoin="round" stroke-miterlimit="10" fill="none" fill-rule="evenodd"/><path d="M829.363 452.778 829.363 476.788" stroke="#000000" stroke-width="1.33333" stroke-linejoin="round" stroke-miterlimit="10" fill="none" fill-rule="evenodd"/><path d="M852.04 452.778 852.04 476.788" stroke="#000000" stroke-width="1.33333" stroke-linejoin="round" stroke-miterlimit="10" fill="none" fill-rule="evenodd"/><path d="M874.717 452.778 874.717 476.788" stroke="#000000" stroke-width="1.33333" stroke-linejoin="round" stroke-miterlimit="10" fill="none" fill-rule="evenodd"/><path d="M897.394 452.778 897.394 476.788" stroke="#000000" stroke-width="1.33333" stroke-linejoin="round" stroke-miterlimit="10" fill="none" fill-rule="evenodd"/><path d="M920.071 452.778 920.071 476.788" stroke="#000000" stroke-width="1.33333" stroke-linejoin="round" stroke-miterlimit="10" fill="none" fill-rule="evenodd"/><path d="M942.748 452.778 942.748 476.788" stroke="#000000" stroke-width="1.33333" stroke-linejoin="round" stroke-miterlimit="10" fill="none" fill-rule="evenodd"/><path d="M965.426 452.778 965.426 476.788" stroke="#000000" stroke-width="1.33333" stroke-linejoin="round" stroke-miterlimit="10" fill="none" fill-rule="evenodd"/><path d="M534.559 452.778 534.559 476.788" stroke="#000000" stroke-width="1.33333" stroke-linejoin="round" stroke-miterlimit="10" fill="none" fill-rule="evenodd"/><path d="M533.893 453.444 966.092 453.444" stroke="#000000" stroke-width="1.33333" stroke-linejoin="round" stroke-miterlimit="10" fill="none" fill-rule="evenodd"/><path d="M533.893 476.122 966.092 476.122" stroke="#000000" stroke-width="1.33333" stroke-linejoin="round" stroke-miterlimit="10" fill="none" fill-rule="evenodd"/><text font-family="Calibri,Calibri_MSFontService,sans-serif" font-weight="700" font-size="21" transform="translate(708.615 501)">Adventisme<tspan font-size="21" x="24.72" y="25">(1,9%)</tspan></text></g></svg>