<svg width="457" height="366" xmlns="http://www.w3.org/2000/svg" xmlns:xlink="http://www.w3.org/1999/xlink" overflow="hidden"><defs><clipPath id="clip0"><rect x="555" y="41" width="457" height="366"/></clipPath></defs><g clip-path="url(#clip0)" transform="translate(-555 -41)"><path d="M555.997 42.8083 578.674 42.8083 578.674 65.4855 555.997 65.4855Z" fill="#2A9D8F" fill-rule="evenodd"/><path d="M578.674 42.8083 601.351 42.8083 601.351 65.4855 578.674 65.4855Z" fill="#2A9D8F" fill-rule="evenodd"/><path d="M601.351 42.8083 624.028 42.8083 624.028 65.4855 601.351 65.4855Z" fill="#2A9D8F" fill-rule="evenodd"/><path d="M624.028 42.8083 646.705 42.8083 646.705 65.4855 624.028 65.4855Z" fill="#2A9D8F" fill-rule="evenodd"/><path d="M646.705 42.8083 669.383 42.8083 669.383 65.4855 646.705 65.4855Z" fill="#2A9D8F" fill-rule="evenodd"/><path d="M669.383 42.8083 692.06 42.8083 692.06 65.4855 669.383 65.4855Z" fill="#2A9D8F" fill-rule="evenodd"/><path d="M692.06 42.8083 714.737 42.8083 714.737 65.4855 692.06 65.4855Z" fill="#2A9D8F" fill-rule="evenodd"/><path d="M714.737 42.8083 737.414 42.8083 737.414 65.4855 714.737 65.4855Z" fill="#2A9D8F" fill-rule="evenodd"/><path d="M737.414 42.8083 760.091 42.8083 760.091 65.4855 737.414 65.4855Z" fill="#2A9D8F" fill-rule="evenodd"/><path d="M760.091 42.8083 782.768 42.8083 782.768 65.4855 760.091 65.4855Z" fill="#2A9D8F" fill-rule="evenodd"/><path d="M782.768 42.8083 805.446 42.8083 805.446 65.4855 782.768 65.4855Z" fill="#2A9D8F" fill-rule="evenodd"/><path d="M805.446 42.8083 828.123 42.8083 828.123 65.4855 805.446 65.4855Z" fill="#2A9D8F" fill-rule="evenodd"/><path d="M828.123 42.8083 850.8 42.8083 850.8 65.4855 828.123 65.4855Z" fill="#2A9D8F" fill-rule="evenodd"/><path d="M850.8 42.8083 873.477 42.8083 873.477 65.4855 850.8 65.4855Z" fill="#2A9D8F" fill-rule="evenodd"/><path d="M873.477 42.8083 896.154 42.8083 896.154 65.4855 873.477 65.4855Z" fill="#2A9D8F" fill-rule="evenodd"/><path d="M896.154 42.8083 1009.54 42.8083 1009.54 65.4855 896.154 65.4855Z" fill="#FFFFFF" fill-rule="evenodd"/><path d="M555.997 65.4855 578.674 65.4855 578.674 88.1626 555.997 88.1626Z" fill="#2A9D8F" fill-rule="evenodd"/><path d="M578.674 65.4855 601.351 65.4855 601.351 88.1626 578.674 88.1626Z" fill="#2A9D8F" fill-rule="evenodd"/><path d="M601.351 65.4855 624.028 65.4855 624.028 88.1626 601.351 88.1626Z" fill="#2A9D8F" fill-rule="evenodd"/><path d="M624.028 65.4855 646.705 65.4855 646.705 88.1626 624.028 88.1626Z" fill="#2A9D8F" fill-rule="evenodd"/><path d="M646.705 65.4855 669.383 65.4855 669.383 88.1626 646.705 88.1626Z" fill="#2A9D8F" fill-rule="evenodd"/><path d="M669.383 65.4855 692.06 65.4855 692.06 88.1626 669.383 88.1626Z" fill="#2A9D8F" fill-rule="evenodd"/><path d="M692.06 65.4855 714.737 65.4855 714.737 88.1626 692.06 88.1626Z" fill="#2A9D8F" fill-rule="evenodd"/><path d="M714.737 65.4855 737.414 65.4855 737.414 88.1626 714.737 88.1626Z" fill="#2A9D8F" fill-rule="evenodd"/><path d="M737.414 65.4855 760.091 65.4855 760.091 88.1626 737.414 88.1626Z" fill="#2A9D8F" fill-rule="evenodd"/><path d="M760.091 65.4855 782.768 65.4855 782.768 88.1626 760.091 88.1626Z" fill="#2A9D8F" fill-rule="evenodd"/><path d="M782.768 65.4855 805.446 65.4855 805.446 88.1626 782.768 88.1626Z" fill="#2A9D8F" fill-rule="evenodd"/><path d="M805.446 65.4855 828.123 65.4855 828.123 88.1626 805.446 88.1626Z" fill="#2A9D8F" fill-rule="evenodd"/><path d="M828.123 65.4855 850.8 65.4855 850.8 88.1626 828.123 88.1626Z" fill="#2A9D8F" fill-rule="evenodd"/><path d="M850.8 65.4855 873.477 65.4855 873.477 88.1626 850.8 88.1626Z" fill="#2A9D8F" fill-rule="evenodd"/><path d="M873.477 65.4855 896.154 65.4855 896.154 88.1626 873.477 88.1626Z" fill="#2A9D8F" fill-rule="evenodd"/><path d="M896.154 65.4855 918.831 65.4855 918.831 88.1626 896.154 88.1626Z" fill="#2A9D8F" fill-rule="evenodd"/><path d="M918.831 65.4855 941.509 65.4855 941.509 88.1626 918.831 88.1626Z" fill="#2A9D8F" fill-rule="evenodd"/><path d="M941.509 65.4855 964.186 65.4855 964.186 88.1626 941.509 88.1626Z" fill="#2A9D8F" fill-rule="evenodd"/><path d="M964.186 65.4855 986.863 65.4855 986.863 88.1626 964.186 88.1626Z" fill="#2A9D8F" fill-rule="evenodd"/><path d="M986.863 65.4855 1009.54 65.4855 1009.54 88.1626 986.863 88.1626Z" fill="#2A9D8F" fill-rule="evenodd"/><path d="M555.997 88.1626 578.674 88.1626 578.674 110.84 555.997 110.84Z" fill="#2A9D8F" fill-rule="evenodd"/><path d="M578.674 88.1626 601.351 88.1626 601.351 110.84 578.674 110.84Z" fill="#2A9D8F" fill-rule="evenodd"/><path d="M601.351 88.1626 624.028 88.1626 624.028 110.84 601.351 110.84Z" fill="#2A9D8F" fill-rule="evenodd"/><path d="M624.028 88.1626 646.705 88.1626 646.705 110.84 624.028 110.84Z" fill="#2A9D8F" fill-rule="evenodd"/><path d="M646.705 88.1626 669.383 88.1626 669.383 110.84 646.705 110.84Z" fill="#2A9D8F" fill-rule="evenodd"/><path d="M669.383 88.1626 692.06 88.1626 692.06 110.84 669.383 110.84Z" fill="#2A9D8F" fill-rule="evenodd"/><path d="M692.06 88.1626 714.737 88.1626 714.737 110.84 692.06 110.84Z" fill="#2A9D8F" fill-rule="evenodd"/><path d="M714.737 88.1626 737.414 88.1626 737.414 110.84 714.737 110.84Z" fill="#2A9D8F" fill-rule="evenodd"/><path d="M737.414 88.1626 760.091 88.1626 760.091 110.84 737.414 110.84Z" fill="#2A9D8F" fill-rule="evenodd"/><path d="M760.091 88.1626 782.768 88.1626 782.768 110.84 760.091 110.84Z" fill="#2A9D8F" fill-rule="evenodd"/><path d="M782.768 88.1626 805.446 88.1626 805.446 110.84 782.768 110.84Z" fill="#2A9D8F" fill-rule="evenodd"/><path d="M805.446 88.1626 828.123 88.1626 828.123 110.84 805.446 110.84Z" fill="#2A9D8F" fill-rule="evenodd"/><path d="M828.123 88.1626 850.8 88.1626 850.8 110.84 828.123 110.84Z" fill="#2A9D8F" fill-rule="evenodd"/><path d="M850.8 88.1626 873.477 88.1626 873.477 110.84 850.8 110.84Z" fill="#2A9D8F" fill-rule="evenodd"/><path d="M873.477 88.1626 896.154 88.1626 896.154 110.84 873.477 110.84Z" fill="#2A9D8F" fill-rule="evenodd"/><path d="M896.154 88.1626 918.831 88.1626 918.831 110.84 896.154 110.84Z" fill="#2A9D8F" fill-rule="evenodd"/><path d="M918.831 88.1626 941.509 88.1626 941.509 110.84 918.831 110.84Z" fill="#2A9D8F" fill-rule="evenodd"/><path d="M941.509 88.1626 964.186 88.1626 964.186 110.84 941.509 110.84Z" fill="#2A9D8F" fill-rule="evenodd"/><path d="M964.186 88.1626 986.863 88.1626 986.863 110.84 964.186 110.84Z" fill="#2A9D8F" fill-rule="evenodd"/><path d="M986.863 88.1626 1009.54 88.1626 1009.54 110.84 986.863 110.84Z" fill="#2A9D8F" fill-rule="evenodd"/><path d="M555.997 110.84 578.674 110.84 578.674 133.517 555.997 133.517Z" fill="#2A9D8F" fill-rule="evenodd"/><path d="M578.674 110.84 601.351 110.84 601.351 133.517 578.674 133.517Z" fill="#2A9D8F" fill-rule="evenodd"/><path d="M601.351 110.84 624.028 110.84 624.028 133.517 601.351 133.517Z" fill="#2A9D8F" fill-rule="evenodd"/><path d="M624.028 110.84 646.705 110.84 646.705 133.517 624.028 133.517Z" fill="#2A9D8F" fill-rule="evenodd"/><path d="M646.705 110.84 669.383 110.84 669.383 133.517 646.705 133.517Z" fill="#2A9D8F" fill-rule="evenodd"/><path d="M669.383 110.84 692.06 110.84 692.06 133.517 669.383 133.517Z" fill="#2A9D8F" fill-rule="evenodd"/><path d="M692.06 110.84 714.737 110.84 714.737 133.517 692.06 133.517Z" fill="#2A9D8F" fill-rule="evenodd"/><path d="M714.737 110.84 737.414 110.84 737.414 133.517 714.737 133.517Z" fill="#2A9D8F" fill-rule="evenodd"/><path d="M737.414 110.84 760.091 110.84 760.091 133.517 737.414 133.517Z" fill="#2A9D8F" fill-rule="evenodd"/><path d="M760.091 110.84 782.768 110.84 782.768 133.517 760.091 133.517Z" fill="#2A9D8F" fill-rule="evenodd"/><path d="M782.768 110.84 805.446 110.84 805.446 133.517 782.768 133.517Z" fill="#2A9D8F" fill-rule="evenodd"/><path d="M805.446 110.84 828.123 110.84 828.123 133.517 805.446 133.517Z" fill="#2A9D8F" fill-rule="evenodd"/><path d="M828.123 110.84 850.8 110.84 850.8 133.517 828.123 133.517Z" fill="#2A9D8F" fill-rule="evenodd"/><path d="M850.8 110.84 873.477 110.84 873.477 133.517 850.8 133.517Z" fill="#2A9D8F" fill-rule="evenodd"/><path d="M873.477 110.84 896.154 110.84 896.154 133.517 873.477 133.517Z" fill="#2A9D8F" fill-rule="evenodd"/><path d="M896.154 110.84 918.831 110.84 918.831 133.517 896.154 133.517Z" fill="#2A9D8F" fill-rule="evenodd"/><path d="M918.831 110.84 941.509 110.84 941.509 133.517 918.831 133.517Z" fill="#2A9D8F" fill-rule="evenodd"/><path d="M941.509 110.84 964.186 110.84 964.186 133.517 941.509 133.517Z" fill="#2A9D8F" fill-rule="evenodd"/><path d="M964.186 110.84 986.863 110.84 986.863 133.517 964.186 133.517Z" fill="#2A9D8F" fill-rule="evenodd"/><path d="M986.863 110.84 1009.54 110.84 1009.54 133.517 986.863 133.517Z" fill="#2A9D8F" fill-rule="evenodd"/><path d="M555.997 133.517 578.674 133.517 578.674 156.194 555.997 156.194Z" fill="#2A9D8F" fill-rule="evenodd"/><path d="M578.674 133.517 601.351 133.517 601.351 156.194 578.674 156.194Z" fill="#2A9D8F" fill-rule="evenodd"/><path d="M601.351 133.517 624.028 133.517 624.028 156.194 601.351 156.194Z" fill="#2A9D8F" fill-rule="evenodd"/><path d="M624.028 133.517 646.705 133.517 646.705 156.194 624.028 156.194Z" fill="#2A9D8F" fill-rule="evenodd"/><path d="M646.705 133.517 669.383 133.517 669.383 156.194 646.705 156.194Z" fill="#2A9D8F" fill-rule="evenodd"/><path d="M669.383 133.517 692.06 133.517 692.06 156.194 669.383 156.194Z" fill="#2A9D8F" fill-rule="evenodd"/><path d="M692.06 133.517 714.737 133.517 714.737 156.194 692.06 156.194Z" fill="#2A9D8F" fill-rule="evenodd"/><path d="M714.737 133.517 737.414 133.517 737.414 156.194 714.737 156.194Z" fill="#2A9D8F" fill-rule="evenodd"/><path d="M737.414 133.517 760.091 133.517 760.091 156.194 737.414 156.194Z" fill="#2A9D8F" fill-rule="evenodd"/><path d="M760.091 133.517 782.768 133.517 782.768 156.194 760.091 156.194Z" fill="#2A9D8F" fill-rule="evenodd"/><path d="M782.768 133.517 805.446 133.517 805.446 156.194 782.768 156.194Z" fill="#2A9D8F" fill-rule="evenodd"/><path d="M805.446 133.517 828.123 133.517 828.123 156.194 805.446 156.194Z" fill="#2A9D8F" fill-rule="evenodd"/><path d="M828.123 133.517 850.8 133.517 850.8 156.194 828.123 156.194Z" fill="#2A9D8F" fill-rule="evenodd"/><path d="M850.8 133.517 873.477 133.517 873.477 156.194 850.8 156.194Z" fill="#2A9D8F" fill-rule="evenodd"/><path d="M873.477 133.517 896.154 133.517 896.154 156.194 873.477 156.194Z" fill="#2A9D8F" fill-rule="evenodd"/><path d="M896.154 133.517 918.831 133.517 918.831 156.194 896.154 156.194Z" fill="#2A9D8F" fill-rule="evenodd"/><path d="M918.831 133.517 941.509 133.517 941.509 156.194 918.831 156.194Z" fill="#2A9D8F" fill-rule="evenodd"/><path d="M941.509 133.517 964.186 133.517 964.186 156.194 941.509 156.194Z" fill="#2A9D8F" fill-rule="evenodd"/><path d="M964.186 133.517 986.863 133.517 986.863 156.194 964.186 156.194Z" fill="#2A9D8F" fill-rule="evenodd"/><path d="M986.863 133.517 1009.54 133.517 1009.54 156.194 986.863 156.194Z" fill="#2A9D8F" fill-rule="evenodd"/><path d="M555.997 156.194 578.674 156.194 578.674 178.871 555.997 178.871Z" fill="#2A9D8F" fill-rule="evenodd"/><path d="M578.674 156.194 601.351 156.194 601.351 178.871 578.674 178.871Z" fill="#2A9D8F" fill-rule="evenodd"/><path d="M601.351 156.194 624.028 156.194 624.028 178.871 601.351 178.871Z" fill="#2A9D8F" fill-rule="evenodd"/><path d="M624.028 156.194 646.705 156.194 646.705 178.871 624.028 178.871Z" fill="#2A9D8F" fill-rule="evenodd"/><path d="M646.705 156.194 669.383 156.194 669.383 178.871 646.705 178.871Z" fill="#2A9D8F" fill-rule="evenodd"/><path d="M669.383 156.194 692.06 156.194 692.06 178.871 669.383 178.871Z" fill="#2A9D8F" fill-rule="evenodd"/><path d="M692.06 156.194 714.737 156.194 714.737 178.871 692.06 178.871Z" fill="#2A9D8F" fill-rule="evenodd"/><path d="M714.737 156.194 737.414 156.194 737.414 178.871 714.737 178.871Z" fill="#2A9D8F" fill-rule="evenodd"/><path d="M737.414 156.194 760.091 156.194 760.091 178.871 737.414 178.871Z" fill="#2A9D8F" fill-rule="evenodd"/><path d="M760.091 156.194 782.768 156.194 782.768 178.871 760.091 178.871Z" fill="#2A9D8F" fill-rule="evenodd"/><path d="M782.768 156.194 805.446 156.194 805.446 178.871 782.768 178.871Z" fill="#2A9D8F" fill-rule="evenodd"/><path d="M805.446 156.194 828.123 156.194 828.123 178.871 805.446 178.871Z" fill="#2A9D8F" fill-rule="evenodd"/><path d="M828.123 156.194 850.8 156.194 850.8 178.871 828.123 178.871Z" fill="#2A9D8F" fill-rule="evenodd"/><path d="M850.8 156.194 873.477 156.194 873.477 178.871 850.8 178.871Z" fill="#2A9D8F" fill-rule="evenodd"/><path d="M873.477 156.194 896.154 156.194 896.154 178.871 873.477 178.871Z" fill="#2A9D8F" fill-rule="evenodd"/><path d="M896.154 156.194 918.831 156.194 918.831 178.871 896.154 178.871Z" fill="#2A9D8F" fill-rule="evenodd"/><path d="M918.831 156.194 941.509 156.194 941.509 178.871 918.831 178.871Z" fill="#2A9D8F" fill-rule="evenodd"/><path d="M941.509 156.194 964.186 156.194 964.186 178.871 941.509 178.871Z" fill="#2A9D8F" fill-rule="evenodd"/><path d="M964.186 156.194 986.863 156.194 986.863 178.871 964.186 178.871Z" fill="#2A9D8F" fill-rule="evenodd"/><path d="M986.863 156.194 1009.54 156.194 1009.54 178.871 986.863 178.871Z" fill="#2A9D8F" fill-rule="evenodd"/><path d="M555.997 178.871 578.674 178.871 578.674 201.548 555.997 201.548Z" fill="#2A9D8F" fill-rule="evenodd"/><path d="M578.674 178.871 601.351 178.871 601.351 201.548 578.674 201.548Z" fill="#2A9D8F" fill-rule="evenodd"/><path d="M601.351 178.871 624.028 178.871 624.028 201.548 601.351 201.548Z" fill="#2A9D8F" fill-rule="evenodd"/><path d="M624.028 178.871 646.705 178.871 646.705 201.548 624.028 201.548Z" fill="#2A9D8F" fill-rule="evenodd"/><path d="M646.705 178.871 669.383 178.871 669.383 201.548 646.705 201.548Z" fill="#2A9D8F" fill-rule="evenodd"/><path d="M669.383 178.871 692.06 178.871 692.06 201.548 669.383 201.548Z" fill="#2A9D8F" fill-rule="evenodd"/><path d="M692.06 178.871 714.737 178.871 714.737 201.548 692.06 201.548Z" fill="#2A9D8F" fill-rule="evenodd"/><path d="M714.737 178.871 737.414 178.871 737.414 201.548 714.737 201.548Z" fill="#2A9D8F" fill-rule="evenodd"/><path d="M737.414 178.871 760.091 178.871 760.091 201.548 737.414 201.548Z" fill="#2A9D8F" fill-rule="evenodd"/><path d="M760.091 178.871 782.768 178.871 782.768 201.548 760.091 201.548Z" fill="#2A9D8F" fill-rule="evenodd"/><path d="M782.768 178.871 805.446 178.871 805.446 201.548 782.768 201.548Z" fill="#2A9D8F" fill-rule="evenodd"/><path d="M805.446 178.871 828.123 178.871 828.123 201.548 805.446 201.548Z" fill="#2A9D8F" fill-rule="evenodd"/><path d="M828.123 178.871 850.8 178.871 850.8 201.548 828.123 201.548Z" fill="#2A9D8F" fill-rule="evenodd"/><path d="M850.8 178.871 873.477 178.871 873.477 201.548 850.8 201.548Z" fill="#2A9D8F" fill-rule="evenodd"/><path d="M873.477 178.871 896.154 178.871 896.154 201.548 873.477 201.548Z" fill="#2A9D8F" fill-rule="evenodd"/><path d="M896.154 178.871 918.831 178.871 918.831 201.548 896.154 201.548Z" fill="#2A9D8F" fill-rule="evenodd"/><path d="M918.831 178.871 941.509 178.871 941.509 201.548 918.831 201.548Z" fill="#2A9D8F" fill-rule="evenodd"/><path d="M941.509 178.871 964.186 178.871 964.186 201.548 941.509 201.548Z" fill="#2A9D8F" fill-rule="evenodd"/><path d="M964.186 178.871 986.863 178.871 986.863 201.548 964.186 201.548Z" fill="#2A9D8F" fill-rule="evenodd"/><path d="M986.863 178.871 1009.54 178.871 1009.54 201.548 986.863 201.548Z" fill="#2A9D8F" fill-rule="evenodd"/><path d="M555.997 201.548 578.674 201.548 578.674 224.226 555.997 224.226Z" fill="#2A9D8F" fill-rule="evenodd"/><path d="M578.674 201.548 601.351 201.548 601.351 224.226 578.674 224.226Z" fill="#2A9D8F" fill-rule="evenodd"/><path d="M601.351 201.548 624.028 201.548 624.028 224.226 601.351 224.226Z" fill="#2A9D8F" fill-rule="evenodd"/><path d="M624.028 201.548 646.705 201.548 646.705 224.226 624.028 224.226Z" fill="#2A9D8F" fill-rule="evenodd"/><path d="M646.705 201.548 669.383 201.548 669.383 224.226 646.705 224.226Z" fill="#2A9D8F" fill-rule="evenodd"/><path d="M669.383 201.548 692.06 201.548 692.06 224.226 669.383 224.226Z" fill="#2A9D8F" fill-rule="evenodd"/><path d="M692.06 201.548 714.737 201.548 714.737 224.226 692.06 224.226Z" fill="#2A9D8F" fill-rule="evenodd"/><path d="M714.737 201.548 737.414 201.548 737.414 224.226 714.737 224.226Z" fill="#2A9D8F" fill-rule="evenodd"/><path d="M737.414 201.548 760.091 201.548 760.091 224.226 737.414 224.226Z" fill="#2A9D8F" fill-rule="evenodd"/><path d="M760.091 201.548 782.768 201.548 782.768 224.226 760.091 224.226Z" fill="#2A9D8F" fill-rule="evenodd"/><path d="M782.768 201.548 805.446 201.548 805.446 224.226 782.768 224.226Z" fill="#2A9D8F" fill-rule="evenodd"/><path d="M805.446 201.548 828.123 201.548 828.123 224.226 805.446 224.226Z" fill="#2A9D8F" fill-rule="evenodd"/><path d="M828.123 201.548 850.8 201.548 850.8 224.226 828.123 224.226Z" fill="#2A9D8F" fill-rule="evenodd"/><path d="M850.8 201.548 873.477 201.548 873.477 224.226 850.8 224.226Z" fill="#2A9D8F" fill-rule="evenodd"/><path d="M873.477 201.548 896.154 201.548 896.154 224.226 873.477 224.226Z" fill="#2A9D8F" fill-rule="evenodd"/><path d="M896.154 201.548 918.831 201.548 918.831 224.226 896.154 224.226Z" fill="#2A9D8F" fill-rule="evenodd"/><path d="M918.831 201.548 941.509 201.548 941.509 224.226 918.831 224.226Z" fill="#2A9D8F" fill-rule="evenodd"/><path d="M941.509 201.548 964.186 201.548 964.186 224.226 941.509 224.226Z" fill="#2A9D8F" fill-rule="evenodd"/><path d="M964.186 201.548 986.863 201.548 986.863 224.226 964.186 224.226Z" fill="#2A9D8F" fill-rule="evenodd"/><path d="M986.863 201.548 1009.54 201.548 1009.54 224.226 986.863 224.226Z" fill="#2A9D8F" fill-rule="evenodd"/><path d="M555.997 224.226 578.674 224.226 578.674 246.903 555.997 246.903Z" fill="#2A9D8F" fill-rule="evenodd"/><path d="M578.674 224.226 601.351 224.226 601.351 246.903 578.674 246.903Z" fill="#2A9D8F" fill-rule="evenodd"/><path d="M601.351 224.226 624.028 224.226 624.028 246.903 601.351 246.903Z" fill="#2A9D8F" fill-rule="evenodd"/><path d="M624.028 224.226 646.705 224.226 646.705 246.903 624.028 246.903Z" fill="#2A9D8F" fill-rule="evenodd"/><path d="M646.705 224.226 669.383 224.226 669.383 246.903 646.705 246.903Z" fill="#2A9D8F" fill-rule="evenodd"/><path d="M669.383 224.226 692.06 224.226 692.06 246.903 669.383 246.903Z" fill="#2A9D8F" fill-rule="evenodd"/><path d="M692.06 224.226 714.737 224.226 714.737 246.903 692.06 246.903Z" fill="#2A9D8F" fill-rule="evenodd"/><path d="M714.737 224.226 737.414 224.226 737.414 246.903 714.737 246.903Z" fill="#2A9D8F" fill-rule="evenodd"/><path d="M737.414 224.226 760.091 224.226 760.091 246.903 737.414 246.903Z" fill="#2A9D8F" fill-rule="evenodd"/><path d="M760.091 224.226 782.768 224.226 782.768 246.903 760.091 246.903Z" fill="#2A9D8F" fill-rule="evenodd"/><path d="M782.768 224.226 805.446 224.226 805.446 246.903 782.768 246.903Z" fill="#2A9D8F" fill-rule="evenodd"/><path d="M805.446 224.226 828.123 224.226 828.123 246.903 805.446 246.903Z" fill="#2A9D8F" fill-rule="evenodd"/><path d="M828.123 224.226 850.8 224.226 850.8 246.903 828.123 246.903Z" fill="#2A9D8F" fill-rule="evenodd"/><path d="M850.8 224.226 873.477 224.226 873.477 246.903 850.8 246.903Z" fill="#2A9D8F" fill-rule="evenodd"/><path d="M873.477 224.226 896.154 224.226 896.154 246.903 873.477 246.903Z" fill="#2A9D8F" fill-rule="evenodd"/><path d="M896.154 224.226 918.831 224.226 918.831 246.903 896.154 246.903Z" fill="#2A9D8F" fill-rule="evenodd"/><path d="M918.831 224.226 941.509 224.226 941.509 246.903 918.831 246.903Z" fill="#2A9D8F" fill-rule="evenodd"/><path d="M941.509 224.226 964.186 224.226 964.186 246.903 941.509 246.903Z" fill="#2A9D8F" fill-rule="evenodd"/><path d="M964.186 224.226 986.863 224.226 986.863 246.903 964.186 246.903Z" fill="#2A9D8F" fill-rule="evenodd"/><path d="M986.863 224.226 1009.54 224.226 1009.54 246.903 986.863 246.903Z" fill="#2A9D8F" fill-rule="evenodd"/><path d="M555.997 246.903 578.674 246.903 578.674 269.58 555.997 269.58Z" fill="#2A9D8F" fill-rule="evenodd"/><path d="M578.674 246.903 601.351 246.903 601.351 269.58 578.674 269.58Z" fill="#2A9D8F" fill-rule="evenodd"/><path d="M601.351 246.903 624.028 246.903 624.028 269.58 601.351 269.58Z" fill="#2A9D8F" fill-rule="evenodd"/><path d="M624.028 246.903 646.705 246.903 646.705 269.58 624.028 269.58Z" fill="#2A9D8F" fill-rule="evenodd"/><path d="M646.705 246.903 669.383 246.903 669.383 269.58 646.705 269.58Z" fill="#2A9D8F" fill-rule="evenodd"/><path d="M669.383 246.903 692.06 246.903 692.06 269.58 669.383 269.58Z" fill="#2A9D8F" fill-rule="evenodd"/><path d="M692.06 246.903 714.737 246.903 714.737 269.58 692.06 269.58Z" fill="#2A9D8F" fill-rule="evenodd"/><path d="M714.737 246.903 737.414 246.903 737.414 269.58 714.737 269.58Z" fill="#2A9D8F" fill-rule="evenodd"/><path d="M737.414 246.903 760.091 246.903 760.091 269.58 737.414 269.58Z" fill="#2A9D8F" fill-rule="evenodd"/><path d="M760.091 246.903 782.768 246.903 782.768 269.58 760.091 269.58Z" fill="#2A9D8F" fill-rule="evenodd"/><path d="M782.768 246.903 805.446 246.903 805.446 269.58 782.768 269.58Z" fill="#2A9D8F" fill-rule="evenodd"/><path d="M805.446 246.903 828.123 246.903 828.123 269.58 805.446 269.58Z" fill="#2A9D8F" fill-rule="evenodd"/><path d="M828.123 246.903 850.8 246.903 850.8 269.58 828.123 269.58Z" fill="#2A9D8F" fill-rule="evenodd"/><path d="M850.8 246.903 873.477 246.903 873.477 269.58 850.8 269.58Z" fill="#2A9D8F" fill-rule="evenodd"/><path d="M873.477 246.903 896.154 246.903 896.154 269.58 873.477 269.58Z" fill="#2A9D8F" fill-rule="evenodd"/><path d="M896.154 246.903 918.831 246.903 918.831 269.58 896.154 269.58Z" fill="#2A9D8F" fill-rule="evenodd"/><path d="M918.831 246.903 941.509 246.903 941.509 269.58 918.831 269.58Z" fill="#2A9D8F" fill-rule="evenodd"/><path d="M941.509 246.903 964.186 246.903 964.186 269.58 941.509 269.58Z" fill="#2A9D8F" fill-rule="evenodd"/><path d="M964.186 246.903 986.863 246.903 986.863 269.58 964.186 269.58Z" fill="#2A9D8F" fill-rule="evenodd"/><path d="M986.863 246.903 1009.54 246.903 1009.54 269.58 986.863 269.58Z" fill="#2A9D8F" fill-rule="evenodd"/><path d="M555.997 269.58 578.674 269.58 578.674 292.257 555.997 292.257Z" fill="#2A9D8F" fill-rule="evenodd"/><path d="M578.674 269.58 601.351 269.58 601.351 292.257 578.674 292.257Z" fill="#2A9D8F" fill-rule="evenodd"/><path d="M601.351 269.58 624.028 269.58 624.028 292.257 601.351 292.257Z" fill="#2A9D8F" fill-rule="evenodd"/><path d="M624.028 269.58 646.705 269.58 646.705 292.257 624.028 292.257Z" fill="#2A9D8F" fill-rule="evenodd"/><path d="M646.705 269.58 669.383 269.58 669.383 292.257 646.705 292.257Z" fill="#2A9D8F" fill-rule="evenodd"/><path d="M669.383 269.58 692.06 269.58 692.06 292.257 669.383 292.257Z" fill="#2A9D8F" fill-rule="evenodd"/><path d="M692.06 269.58 714.737 269.58 714.737 292.257 692.06 292.257Z" fill="#2A9D8F" fill-rule="evenodd"/><path d="M714.737 269.58 737.414 269.58 737.414 292.257 714.737 292.257Z" fill="#2A9D8F" fill-rule="evenodd"/><path d="M737.414 269.58 760.091 269.58 760.091 292.257 737.414 292.257Z" fill="#2A9D8F" fill-rule="evenodd"/><path d="M760.091 269.58 782.768 269.58 782.768 292.257 760.091 292.257Z" fill="#2A9D8F" fill-rule="evenodd"/><path d="M782.768 269.58 805.446 269.58 805.446 292.257 782.768 292.257Z" fill="#2A9D8F" fill-rule="evenodd"/><path d="M805.446 269.58 828.123 269.58 828.123 292.257 805.446 292.257Z" fill="#2A9D8F" fill-rule="evenodd"/><path d="M828.123 269.58 850.8 269.58 850.8 292.257 828.123 292.257Z" fill="#2A9D8F" fill-rule="evenodd"/><path d="M850.8 269.58 873.477 269.58 873.477 292.257 850.8 292.257Z" fill="#2A9D8F" fill-rule="evenodd"/><path d="M873.477 269.58 896.154 269.58 896.154 292.257 873.477 292.257Z" fill="#2A9D8F" fill-rule="evenodd"/><path d="M896.154 269.58 918.831 269.58 918.831 292.257 896.154 292.257Z" fill="#2A9D8F" fill-rule="evenodd"/><path d="M918.831 269.58 941.509 269.58 941.509 292.257 918.831 292.257Z" fill="#2A9D8F" fill-rule="evenodd"/><path d="M941.509 269.58 964.186 269.58 964.186 292.257 941.509 292.257Z" fill="#2A9D8F" fill-rule="evenodd"/><path d="M964.186 269.58 986.863 269.58 986.863 292.257 964.186 292.257Z" fill="#2A9D8F" fill-rule="evenodd"/><path d="M986.863 269.58 1009.54 269.58 1009.54 292.257 986.863 292.257Z" fill="#2A9D8F" fill-rule="evenodd"/><path d="M555.997 292.257 578.674 292.257 578.674 314.934 555.997 314.934Z" fill="#2A9D8F" fill-rule="evenodd"/><path d="M578.674 292.257 601.351 292.257 601.351 314.934 578.674 314.934Z" fill="#2A9D8F" fill-rule="evenodd"/><path d="M601.351 292.257 624.028 292.257 624.028 314.934 601.351 314.934Z" fill="#2A9D8F" fill-rule="evenodd"/><path d="M624.028 292.257 646.705 292.257 646.705 314.934 624.028 314.934Z" fill="#2A9D8F" fill-rule="evenodd"/><path d="M646.705 292.257 669.383 292.257 669.383 314.934 646.705 314.934Z" fill="#2A9D8F" fill-rule="evenodd"/><path d="M669.383 292.257 692.06 292.257 692.06 314.934 669.383 314.934Z" fill="#2A9D8F" fill-rule="evenodd"/><path d="M692.06 292.257 714.737 292.257 714.737 314.934 692.06 314.934Z" fill="#2A9D8F" fill-rule="evenodd"/><path d="M714.737 292.257 737.414 292.257 737.414 314.934 714.737 314.934Z" fill="#2A9D8F" fill-rule="evenodd"/><path d="M737.414 292.257 760.091 292.257 760.091 314.934 737.414 314.934Z" fill="#2A9D8F" fill-rule="evenodd"/><path d="M760.091 292.257 782.768 292.257 782.768 314.934 760.091 314.934Z" fill="#2A9D8F" fill-rule="evenodd"/><path d="M782.768 292.257 805.446 292.257 805.446 314.934 782.768 314.934Z" fill="#2A9D8F" fill-rule="evenodd"/><path d="M805.446 292.257 828.123 292.257 828.123 314.934 805.446 314.934Z" fill="#2A9D8F" fill-rule="evenodd"/><path d="M828.123 292.257 850.8 292.257 850.8 314.934 828.123 314.934Z" fill="#2A9D8F" fill-rule="evenodd"/><path d="M850.8 292.257 873.477 292.257 873.477 314.934 850.8 314.934Z" fill="#2A9D8F" fill-rule="evenodd"/><path d="M873.477 292.257 896.154 292.257 896.154 314.934 873.477 314.934Z" fill="#2A9D8F" fill-rule="evenodd"/><path d="M896.154 292.257 918.831 292.257 918.831 314.934 896.154 314.934Z" fill="#2A9D8F" fill-rule="evenodd"/><path d="M918.831 292.257 941.509 292.257 941.509 314.934 918.831 314.934Z" fill="#2A9D8F" fill-rule="evenodd"/><path d="M941.509 292.257 964.186 292.257 964.186 314.934 941.509 314.934Z" fill="#2A9D8F" fill-rule="evenodd"/><path d="M964.186 292.257 986.863 292.257 986.863 314.934 964.186 314.934Z" fill="#2A9D8F" fill-rule="evenodd"/><path d="M986.863 292.257 1009.54 292.257 1009.54 314.934 986.863 314.934Z" fill="#2A9D8F" fill-rule="evenodd"/><path d="M555.997 314.934 578.674 314.934 578.674 337.611 555.997 337.611Z" fill="#2A9D8F" fill-rule="evenodd"/><path d="M578.674 314.934 601.351 314.934 601.351 337.611 578.674 337.611Z" fill="#2A9D8F" fill-rule="evenodd"/><path d="M601.351 314.934 624.028 314.934 624.028 337.611 601.351 337.611Z" fill="#2A9D8F" fill-rule="evenodd"/><path d="M624.028 314.934 646.705 314.934 646.705 337.611 624.028 337.611Z" fill="#2A9D8F" fill-rule="evenodd"/><path d="M646.705 314.934 669.383 314.934 669.383 337.611 646.705 337.611Z" fill="#2A9D8F" fill-rule="evenodd"/><path d="M669.383 314.934 692.06 314.934 692.06 337.611 669.383 337.611Z" fill="#2A9D8F" fill-rule="evenodd"/><path d="M692.06 314.934 714.737 314.934 714.737 337.611 692.06 337.611Z" fill="#2A9D8F" fill-rule="evenodd"/><path d="M714.737 314.934 737.414 314.934 737.414 337.611 714.737 337.611Z" fill="#2A9D8F" fill-rule="evenodd"/><path d="M737.414 314.934 760.091 314.934 760.091 337.611 737.414 337.611Z" fill="#2A9D8F" fill-rule="evenodd"/><path d="M760.091 314.934 782.768 314.934 782.768 337.611 760.091 337.611Z" fill="#2A9D8F" fill-rule="evenodd"/><path d="M782.768 314.934 805.446 314.934 805.446 337.611 782.768 337.611Z" fill="#2A9D8F" fill-rule="evenodd"/><path d="M805.446 314.934 828.123 314.934 828.123 337.611 805.446 337.611Z" fill="#2A9D8F" fill-rule="evenodd"/><path d="M828.123 314.934 850.8 314.934 850.8 337.611 828.123 337.611Z" fill="#2A9D8F" fill-rule="evenodd"/><path d="M850.8 314.934 873.477 314.934 873.477 337.611 850.8 337.611Z" fill="#2A9D8F" fill-rule="evenodd"/><path d="M873.477 314.934 896.154 314.934 896.154 337.611 873.477 337.611Z" fill="#2A9D8F" fill-rule="evenodd"/><path d="M896.154 314.934 918.831 314.934 918.831 337.611 896.154 337.611Z" fill="#2A9D8F" fill-rule="evenodd"/><path d="M918.831 314.934 941.509 314.934 941.509 337.611 918.831 337.611Z" fill="#2A9D8F" fill-rule="evenodd"/><path d="M941.509 314.934 964.186 314.934 964.186 337.611 941.509 337.611Z" fill="#2A9D8F" fill-rule="evenodd"/><path d="M964.186 314.934 986.863 314.934 986.863 337.611 964.186 337.611Z" fill="#2A9D8F" fill-rule="evenodd"/><path d="M986.863 314.934 1009.54 314.934 1009.54 337.611 986.863 337.611Z" fill="#2A9D8F" fill-rule="evenodd"/><path d="M578.674 42.1416 578.674 338.278" stroke="#000000" stroke-width="1.33333" stroke-linejoin="round" stroke-miterlimit="10" fill="none" fill-rule="evenodd"/><path d="M601.351 42.1416 601.351 338.278" stroke="#000000" stroke-width="1.33333" stroke-linejoin="round" stroke-miterlimit="10" fill="none" fill-rule="evenodd"/><path d="M624.028 42.1416 624.028 338.278" stroke="#000000" stroke-width="1.33333" stroke-linejoin="round" stroke-miterlimit="10" fill="none" fill-rule="evenodd"/><path d="M646.705 42.1416 646.705 338.278" stroke="#000000" stroke-width="1.33333" stroke-linejoin="round" stroke-miterlimit="10" fill="none" fill-rule="evenodd"/><path d="M669.383 42.1416 669.383 338.278" stroke="#000000" stroke-width="1.33333" stroke-linejoin="round" stroke-miterlimit="10" fill="none" fill-rule="evenodd"/><path d="M692.06 42.1416 692.06 338.278" stroke="#000000" stroke-width="1.33333" stroke-linejoin="round" stroke-miterlimit="10" fill="none" fill-rule="evenodd"/><path d="M714.737 42.1416 714.737 338.278" stroke="#000000" stroke-width="1.33333" stroke-linejoin="round" stroke-miterlimit="10" fill="none" fill-rule="evenodd"/><path d="M737.414 42.1416 737.414 338.278" stroke="#000000" stroke-width="1.33333" stroke-linejoin="round" stroke-miterlimit="10" fill="none" fill-rule="evenodd"/><path d="M760.091 42.1416 760.091 338.278" stroke="#000000" stroke-width="1.33333" stroke-linejoin="round" stroke-miterlimit="10" fill="none" fill-rule="evenodd"/><path d="M782.768 42.1416 782.768 338.278" stroke="#000000" stroke-width="1.33333" stroke-linejoin="round" stroke-miterlimit="10" fill="none" fill-rule="evenodd"/><path d="M805.446 42.1416 805.446 338.278" stroke="#000000" stroke-width="1.33333" stroke-linejoin="round" stroke-miterlimit="10" fill="none" fill-rule="evenodd"/><path d="M828.123 42.1416 828.123 338.278" stroke="#000000" stroke-width="1.33333" stroke-linejoin="round" stroke-miterlimit="10" fill="none" fill-rule="evenodd"/><path d="M850.8 42.1416 850.8 338.278" stroke="#000000" stroke-width="1.33333" stroke-linejoin="round" stroke-miterlimit="10" fill="none" fill-rule="evenodd"/><path d="M873.477 42.1416 873.477 338.278" stroke="#000000" stroke-width="1.33333" stroke-linejoin="round" stroke-miterlimit="10" fill="none" fill-rule="evenodd"/><path d="M896.154 42.1416 896.154 338.278" stroke="#000000" stroke-width="1.33333" stroke-linejoin="round" stroke-miterlimit="10" fill="none" fill-rule="evenodd"/><path d="M918.831 64.8188 918.831 338.278" stroke="#000000" stroke-width="1.33333" stroke-linejoin="round" stroke-miterlimit="10" fill="none" fill-rule="evenodd"/><path d="M941.509 64.8188 941.509 338.278" stroke="#000000" stroke-width="1.33333" stroke-linejoin="round" stroke-miterlimit="10" fill="none" fill-rule="evenodd"/><path d="M964.186 64.8188 964.186 338.278" stroke="#000000" stroke-width="1.33333" stroke-linejoin="round" stroke-miterlimit="10" fill="none" fill-rule="evenodd"/><path d="M986.863 64.8188 986.863 338.278" stroke="#000000" stroke-width="1.33333" stroke-linejoin="round" stroke-miterlimit="10" fill="none" fill-rule="evenodd"/><path d="M555.33 65.4855 1010.21 65.4855" stroke="#000000" stroke-width="1.33333" stroke-linejoin="round" stroke-miterlimit="10" fill="none" fill-rule="evenodd"/><path d="M555.33 88.1626 1010.21 88.1626" stroke="#000000" stroke-width="1.33333" stroke-linejoin="round" stroke-miterlimit="10" fill="none" fill-rule="evenodd"/><path d="M555.33 110.84 1010.21 110.84" stroke="#000000" stroke-width="1.33333" stroke-linejoin="round" stroke-miterlimit="10" fill="none" fill-rule="evenodd"/><path d="M555.33 133.517 1010.21 133.517" stroke="#000000" stroke-width="1.33333" stroke-linejoin="round" stroke-miterlimit="10" fill="none" fill-rule="evenodd"/><path d="M555.33 156.194 1010.21 156.194" stroke="#000000" stroke-width="1.33333" stroke-linejoin="round" stroke-miterlimit="10" fill="none" fill-rule="evenodd"/><path d="M555.33 178.871 1010.21 178.871" stroke="#000000" stroke-width="1.33333" stroke-linejoin="round" stroke-miterlimit="10" fill="none" fill-rule="evenodd"/><path d="M555.33 201.548 1010.21 201.548" stroke="#000000" stroke-width="1.33333" stroke-linejoin="round" stroke-miterlimit="10" fill="none" fill-rule="evenodd"/><path d="M555.33 224.226 1010.21 224.226" stroke="#000000" stroke-width="1.33333" stroke-linejoin="round" stroke-miterlimit="10" fill="none" fill-rule="evenodd"/><path d="M555.33 246.903 1010.21 246.903" stroke="#000000" stroke-width="1.33333" stroke-linejoin="round" stroke-miterlimit="10" fill="none" fill-rule="evenodd"/><path d="M555.33 269.58 1010.21 269.58" stroke="#000000" stroke-width="1.33333" stroke-linejoin="round" stroke-miterlimit="10" fill="none" fill-rule="evenodd"/><path d="M555.33 292.257 1010.21 292.257" stroke="#000000" stroke-width="1.33333" stroke-linejoin="round" stroke-miterlimit="10" fill="none" fill-rule="evenodd"/><path d="M555.33 314.934 1010.21 314.934" stroke="#000000" stroke-width="1.33333" stroke-linejoin="round" stroke-miterlimit="10" fill="none" fill-rule="evenodd"/><path d="M555.997 42.1416 555.997 338.278" stroke="#000000" stroke-width="1.33333" stroke-linejoin="round" stroke-miterlimit="10" fill="none" fill-rule="evenodd"/><path d="M1009.54 64.8188 1009.54 338.278" stroke="#000000" stroke-width="1.33333" stroke-linejoin="round" stroke-miterlimit="10" fill="none" fill-rule="evenodd"/><path d="M555.33 42.8083 896.821 42.8083" stroke="#000000" stroke-width="1.33333" stroke-linejoin="round" stroke-miterlimit="10" fill="none" fill-rule="evenodd"/><path d="M555.33 337.611 1010.21 337.611" stroke="#000000" stroke-width="1.33333" stroke-linejoin="round" stroke-miterlimit="10" fill="none" fill-rule="evenodd"/><text font-family="Calibri,Calibri_MSFontService,sans-serif" font-weight="700" font-size="21" transform="translate(722.725 362)">Pentecôtisme<tspan font-size="21" x="26.6266" y="25">(25,5%)</tspan></text></g></svg>