<svg width="457" height="161" xmlns="http://www.w3.org/2000/svg" xmlns:xlink="http://www.w3.org/1999/xlink" overflow="hidden"><defs><clipPath id="clip0"><rect x="961" y="405" width="457" height="161"/></clipPath></defs><g clip-path="url(#clip0)" transform="translate(-961 -405)"><path d="M962.22 405.858 984.897 405.858 984.897 428.536 962.22 428.536Z" fill="#515442" fill-rule="evenodd"/><path d="M984.897 405.858 1007.57 405.858 1007.57 428.536 984.897 428.536Z" fill="#515442" fill-rule="evenodd"/><path d="M1007.57 405.858 1030.25 405.858 1030.25 428.536 1007.57 428.536Z" fill="#515442" fill-rule="evenodd"/><path d="M1030.25 405.858 1052.93 405.858 1052.93 428.536 1030.25 428.536Z" fill="#515442" fill-rule="evenodd"/><path d="M1052.93 405.858 1415.76 405.858 1415.76 428.536 1052.93 428.536Z" fill="#FFFFFF" fill-rule="evenodd"/><path d="M962.22 428.536 984.897 428.536 984.897 451.213 962.22 451.213Z" fill="#515442" fill-rule="evenodd"/><path d="M984.897 428.536 1007.57 428.536 1007.57 451.213 984.897 451.213Z" fill="#515442" fill-rule="evenodd"/><path d="M1007.57 428.536 1030.25 428.536 1030.25 451.213 1007.57 451.213Z" fill="#515442" fill-rule="evenodd"/><path d="M1030.25 428.536 1052.93 428.536 1052.93 451.213 1030.25 451.213Z" fill="#515442" fill-rule="evenodd"/><path d="M1052.93 428.536 1075.61 428.536 1075.61 451.213 1052.93 451.213Z" fill="#515442" fill-rule="evenodd"/><path d="M1075.61 428.536 1098.28 428.536 1098.28 451.213 1075.61 451.213Z" fill="#515442" fill-rule="evenodd"/><path d="M1098.28 428.536 1120.96 428.536 1120.96 451.213 1098.28 451.213Z" fill="#515442" fill-rule="evenodd"/><path d="M1120.96 428.536 1143.64 428.536 1143.64 451.213 1120.96 451.213Z" fill="#515442" fill-rule="evenodd"/><path d="M1143.64 428.536 1166.31 428.536 1166.31 451.213 1143.64 451.213Z" fill="#515442" fill-rule="evenodd"/><path d="M1166.31 428.536 1188.99 428.536 1188.99 451.213 1166.31 451.213Z" fill="#515442" fill-rule="evenodd"/><path d="M1188.99 428.536 1211.67 428.536 1211.67 451.213 1188.99 451.213Z" fill="#515442" fill-rule="evenodd"/><path d="M1211.67 428.536 1234.35 428.536 1234.35 451.213 1211.67 451.213Z" fill="#515442" fill-rule="evenodd"/><path d="M1234.35 428.536 1257.02 428.536 1257.02 451.213 1234.35 451.213Z" fill="#515442" fill-rule="evenodd"/><path d="M1257.02 428.536 1279.7 428.536 1279.7 451.213 1257.02 451.213Z" fill="#515442" fill-rule="evenodd"/><path d="M1279.7 428.536 1302.38 428.536 1302.38 451.213 1279.7 451.213Z" fill="#515442" fill-rule="evenodd"/><path d="M1302.38 428.536 1325.05 428.536 1325.05 451.213 1302.38 451.213Z" fill="#515442" fill-rule="evenodd"/><path d="M1325.05 428.536 1347.73 428.536 1347.73 451.213 1325.05 451.213Z" fill="#515442" fill-rule="evenodd"/><path d="M1347.73 428.536 1370.41 428.536 1370.41 451.213 1347.73 451.213Z" fill="#515442" fill-rule="evenodd"/><path d="M1370.41 428.536 1393.09 428.536 1393.09 451.213 1370.41 451.213Z" fill="#515442" fill-rule="evenodd"/><path d="M1393.09 428.536 1415.76 428.536 1415.76 451.213 1393.09 451.213Z" fill="#515442" fill-rule="evenodd"/><path d="M962.22 451.213 984.897 451.213 984.897 473.89 962.22 473.89Z" fill="#515442" fill-rule="evenodd"/><path d="M984.897 451.213 1007.57 451.213 1007.57 473.89 984.897 473.89Z" fill="#515442" fill-rule="evenodd"/><path d="M1007.57 451.213 1030.25 451.213 1030.25 473.89 1007.57 473.89Z" fill="#515442" fill-rule="evenodd"/><path d="M1030.25 451.213 1052.93 451.213 1052.93 473.89 1030.25 473.89Z" fill="#515442" fill-rule="evenodd"/><path d="M1052.93 451.213 1075.61 451.213 1075.61 473.89 1052.93 473.89Z" fill="#515442" fill-rule="evenodd"/><path d="M1075.61 451.213 1098.28 451.213 1098.28 473.89 1075.61 473.89Z" fill="#515442" fill-rule="evenodd"/><path d="M1098.28 451.213 1120.96 451.213 1120.96 473.89 1098.28 473.89Z" fill="#515442" fill-rule="evenodd"/><path d="M1120.96 451.213 1143.64 451.213 1143.64 473.89 1120.96 473.89Z" fill="#515442" fill-rule="evenodd"/><path d="M1143.64 451.213 1166.31 451.213 1166.31 473.89 1143.64 473.89Z" fill="#515442" fill-rule="evenodd"/><path d="M1166.31 451.213 1188.99 451.213 1188.99 473.89 1166.31 473.89Z" fill="#515442" fill-rule="evenodd"/><path d="M1188.99 451.213 1211.67 451.213 1211.67 473.89 1188.99 473.89Z" fill="#515442" fill-rule="evenodd"/><path d="M1211.67 451.213 1234.35 451.213 1234.35 473.89 1211.67 473.89Z" fill="#515442" fill-rule="evenodd"/><path d="M1234.35 451.213 1257.02 451.213 1257.02 473.89 1234.35 473.89Z" fill="#515442" fill-rule="evenodd"/><path d="M1257.02 451.213 1279.7 451.213 1279.7 473.89 1257.02 473.89Z" fill="#515442" fill-rule="evenodd"/><path d="M1279.7 451.213 1302.38 451.213 1302.38 473.89 1279.7 473.89Z" fill="#515442" fill-rule="evenodd"/><path d="M1302.38 451.213 1325.05 451.213 1325.05 473.89 1302.38 473.89Z" fill="#515442" fill-rule="evenodd"/><path d="M1325.05 451.213 1347.73 451.213 1347.73 473.89 1325.05 473.89Z" fill="#515442" fill-rule="evenodd"/><path d="M1347.73 451.213 1370.41 451.213 1370.41 473.89 1347.73 473.89Z" fill="#515442" fill-rule="evenodd"/><path d="M1370.41 451.213 1393.09 451.213 1393.09 473.89 1370.41 473.89Z" fill="#515442" fill-rule="evenodd"/><path d="M1393.09 451.213 1415.76 451.213 1415.76 473.89 1393.09 473.89Z" fill="#515442" fill-rule="evenodd"/><path d="M962.22 473.89 984.897 473.89 984.897 496.567 962.22 496.567Z" fill="#515442" fill-rule="evenodd"/><path d="M984.897 473.89 1007.57 473.89 1007.57 496.567 984.897 496.567Z" fill="#515442" fill-rule="evenodd"/><path d="M1007.57 473.89 1030.25 473.89 1030.25 496.567 1007.57 496.567Z" fill="#515442" fill-rule="evenodd"/><path d="M1030.25 473.89 1052.93 473.89 1052.93 496.567 1030.25 496.567Z" fill="#515442" fill-rule="evenodd"/><path d="M1052.93 473.89 1075.61 473.89 1075.61 496.567 1052.93 496.567Z" fill="#515442" fill-rule="evenodd"/><path d="M1075.61 473.89 1098.28 473.89 1098.28 496.567 1075.61 496.567Z" fill="#515442" fill-rule="evenodd"/><path d="M1098.28 473.89 1120.96 473.89 1120.96 496.567 1098.28 496.567Z" fill="#515442" fill-rule="evenodd"/><path d="M1120.96 473.89 1143.64 473.89 1143.64 496.567 1120.96 496.567Z" fill="#515442" fill-rule="evenodd"/><path d="M1143.64 473.89 1166.31 473.89 1166.31 496.567 1143.64 496.567Z" fill="#515442" fill-rule="evenodd"/><path d="M1166.31 473.89 1188.99 473.89 1188.99 496.567 1166.31 496.567Z" fill="#515442" fill-rule="evenodd"/><path d="M1188.99 473.89 1211.67 473.89 1211.67 496.567 1188.99 496.567Z" fill="#515442" fill-rule="evenodd"/><path d="M1211.67 473.89 1234.35 473.89 1234.35 496.567 1211.67 496.567Z" fill="#515442" fill-rule="evenodd"/><path d="M1234.35 473.89 1257.02 473.89 1257.02 496.567 1234.35 496.567Z" fill="#515442" fill-rule="evenodd"/><path d="M1257.02 473.89 1279.7 473.89 1279.7 496.567 1257.02 496.567Z" fill="#515442" fill-rule="evenodd"/><path d="M1279.7 473.89 1302.38 473.89 1302.38 496.567 1279.7 496.567Z" fill="#515442" fill-rule="evenodd"/><path d="M1302.38 473.89 1325.05 473.89 1325.05 496.567 1302.38 496.567Z" fill="#515442" fill-rule="evenodd"/><path d="M1325.05 473.89 1347.73 473.89 1347.73 496.567 1325.05 496.567Z" fill="#515442" fill-rule="evenodd"/><path d="M1347.73 473.89 1370.41 473.89 1370.41 496.567 1347.73 496.567Z" fill="#515442" fill-rule="evenodd"/><path d="M1370.41 473.89 1393.09 473.89 1393.09 496.567 1370.41 496.567Z" fill="#515442" fill-rule="evenodd"/><path d="M1393.09 473.89 1415.76 473.89 1415.76 496.567 1393.09 496.567Z" fill="#515442" fill-rule="evenodd"/><path d="M984.897 405.192 984.897 497.234" stroke="#000000" stroke-width="1.33333" stroke-linejoin="round" stroke-miterlimit="10" fill="none" fill-rule="evenodd"/><path d="M1007.57 405.192 1007.57 497.234" stroke="#000000" stroke-width="1.33333" stroke-linejoin="round" stroke-miterlimit="10" fill="none" fill-rule="evenodd"/><path d="M1030.25 405.192 1030.25 497.234" stroke="#000000" stroke-width="1.33333" stroke-linejoin="round" stroke-miterlimit="10" fill="none" fill-rule="evenodd"/><path d="M1052.93 405.192 1052.93 497.234" stroke="#000000" stroke-width="1.33333" stroke-linejoin="round" stroke-miterlimit="10" fill="none" fill-rule="evenodd"/><path d="M1075.61 427.869 1075.61 497.234" stroke="#000000" stroke-width="1.33333" stroke-linejoin="round" stroke-miterlimit="10" fill="none" fill-rule="evenodd"/><path d="M1098.28 427.869 1098.28 497.234" stroke="#000000" stroke-width="1.33333" stroke-linejoin="round" stroke-miterlimit="10" fill="none" fill-rule="evenodd"/><path d="M1120.96 427.869 1120.96 497.234" stroke="#000000" stroke-width="1.33333" stroke-linejoin="round" stroke-miterlimit="10" fill="none" fill-rule="evenodd"/><path d="M1143.64 427.869 1143.64 497.234" stroke="#000000" stroke-width="1.33333" stroke-linejoin="round" stroke-miterlimit="10" fill="none" fill-rule="evenodd"/><path d="M1166.31 427.869 1166.31 497.234" stroke="#000000" stroke-width="1.33333" stroke-linejoin="round" stroke-miterlimit="10" fill="none" fill-rule="evenodd"/><path d="M1188.99 427.869 1188.99 497.234" stroke="#000000" stroke-width="1.33333" stroke-linejoin="round" stroke-miterlimit="10" fill="none" fill-rule="evenodd"/><path d="M1211.67 427.869 1211.67 497.234" stroke="#000000" stroke-width="1.33333" stroke-linejoin="round" stroke-miterlimit="10" fill="none" fill-rule="evenodd"/><path d="M1234.35 427.869 1234.35 497.234" stroke="#000000" stroke-width="1.33333" stroke-linejoin="round" stroke-miterlimit="10" fill="none" fill-rule="evenodd"/><path d="M1257.02 427.869 1257.02 497.234" stroke="#000000" stroke-width="1.33333" stroke-linejoin="round" stroke-miterlimit="10" fill="none" fill-rule="evenodd"/><path d="M1279.7 427.869 1279.7 497.234" stroke="#000000" stroke-width="1.33333" stroke-linejoin="round" stroke-miterlimit="10" fill="none" fill-rule="evenodd"/><path d="M1302.38 427.869 1302.38 497.234" stroke="#000000" stroke-width="1.33333" stroke-linejoin="round" stroke-miterlimit="10" fill="none" fill-rule="evenodd"/><path d="M1325.05 427.869 1325.05 497.234" stroke="#000000" stroke-width="1.33333" stroke-linejoin="round" stroke-miterlimit="10" fill="none" fill-rule="evenodd"/><path d="M1347.73 427.869 1347.73 497.234" stroke="#000000" stroke-width="1.33333" stroke-linejoin="round" stroke-miterlimit="10" fill="none" fill-rule="evenodd"/><path d="M1370.41 427.869 1370.41 497.234" stroke="#000000" stroke-width="1.33333" stroke-linejoin="round" stroke-miterlimit="10" fill="none" fill-rule="evenodd"/><path d="M1393.09 427.869 1393.09 497.234" stroke="#000000" stroke-width="1.33333" stroke-linejoin="round" stroke-miterlimit="10" fill="none" fill-rule="evenodd"/><path d="M961.553 428.536 1416.43 428.536" stroke="#000000" stroke-width="1.33333" stroke-linejoin="round" stroke-miterlimit="10" fill="none" fill-rule="evenodd"/><path d="M961.553 451.213 1416.43 451.213" stroke="#000000" stroke-width="1.33333" stroke-linejoin="round" stroke-miterlimit="10" fill="none" fill-rule="evenodd"/><path d="M961.553 473.89 1416.43 473.89" stroke="#000000" stroke-width="1.33333" stroke-linejoin="round" stroke-miterlimit="10" fill="none" fill-rule="evenodd"/><path d="M962.22 405.192 962.22 497.234" stroke="#000000" stroke-width="1.33333" stroke-linejoin="round" stroke-miterlimit="10" fill="none" fill-rule="evenodd"/><path d="M1415.76 427.869 1415.76 497.234" stroke="#000000" stroke-width="1.33333" stroke-linejoin="round" stroke-miterlimit="10" fill="none" fill-rule="evenodd"/><path d="M961.553 405.858 1053.59 405.858" stroke="#000000" stroke-width="1.33333" stroke-linejoin="round" stroke-miterlimit="10" fill="none" fill-rule="evenodd"/><path d="M961.553 496.567 1416.43 496.567" stroke="#000000" stroke-width="1.33333" stroke-linejoin="round" stroke-miterlimit="10" fill="none" fill-rule="evenodd"/><text font-family="Calibri,Calibri_MSFontService,sans-serif" font-weight="700" font-size="21" transform="translate(1119.73 521)">Autres religions<tspan font-size="21" x="41.26" y="25">(6,4%)</tspan></text></g></svg>