<svg width="457" height="140" xmlns="http://www.w3.org/2000/svg" xmlns:xlink="http://www.w3.org/1999/xlink" overflow="hidden"><defs><clipPath id="clip0"><rect x="434" y="555" width="457" height="140"/></clipPath></defs><g clip-path="url(#clip0)" transform="translate(-434 -555)"><text font-family="Calibri,Calibri_MSFontService,sans-serif" font-weight="700" font-size="21" transform="translate(524.77 650)">Religion traditionnelle chinoise<tspan font-size="21" x="109.027" y="25">(5,2%)</tspan></text><path d="M435.025 556.199 457.702 556.199 457.702 578.876 435.025 578.876Z" fill="#72E5EF" fill-rule="evenodd"/><path d="M457.702 556.199 480.38 556.199 480.38 578.876 457.702 578.876Z" fill="#72E5EF" fill-rule="evenodd"/><path d="M480.38 556.199 503.057 556.199 503.057 578.876 480.38 578.876Z" fill="#72E5EF" fill-rule="evenodd"/><path d="M503.057 556.199 525.734 556.199 525.734 578.876 503.057 578.876Z" fill="#72E5EF" fill-rule="evenodd"/><path d="M525.734 556.199 548.411 556.199 548.411 578.876 525.734 578.876Z" fill="#72E5EF" fill-rule="evenodd"/><path d="M548.411 556.199 571.088 556.199 571.088 578.876 548.411 578.876Z" fill="#72E5EF" fill-rule="evenodd"/><path d="M571.088 556.199 593.765 556.199 593.765 578.876 571.088 578.876Z" fill="#72E5EF" fill-rule="evenodd"/><path d="M593.765 556.199 616.443 556.199 616.443 578.876 593.765 578.876Z" fill="#72E5EF" fill-rule="evenodd"/><path d="M616.443 556.199 639.12 556.199 639.12 578.876 616.443 578.876Z" fill="#72E5EF" fill-rule="evenodd"/><path d="M639.12 556.199 661.797 556.199 661.797 578.876 639.12 578.876Z" fill="#72E5EF" fill-rule="evenodd"/><path d="M661.797 556.199 684.474 556.199 684.474 578.876 661.797 578.876Z" fill="#72E5EF" fill-rule="evenodd"/><path d="M684.474 556.199 707.151 556.199 707.151 578.876 684.474 578.876Z" fill="#72E5EF" fill-rule="evenodd"/><path d="M707.151 556.199 888.569 556.199 888.569 578.876 707.151 578.876Z" fill="#FFFFFF" fill-rule="evenodd"/><path d="M435.025 578.876 457.702 578.876 457.702 601.553 435.025 601.553Z" fill="#72E5EF" fill-rule="evenodd"/><path d="M457.702 578.876 480.38 578.876 480.38 601.553 457.702 601.553Z" fill="#72E5EF" fill-rule="evenodd"/><path d="M480.38 578.876 503.057 578.876 503.057 601.553 480.38 601.553Z" fill="#72E5EF" fill-rule="evenodd"/><path d="M503.057 578.876 525.734 578.876 525.734 601.553 503.057 601.553Z" fill="#72E5EF" fill-rule="evenodd"/><path d="M525.734 578.876 548.411 578.876 548.411 601.553 525.734 601.553Z" fill="#72E5EF" fill-rule="evenodd"/><path d="M548.411 578.876 571.088 578.876 571.088 601.553 548.411 601.553Z" fill="#72E5EF" fill-rule="evenodd"/><path d="M571.088 578.876 593.765 578.876 593.765 601.553 571.088 601.553Z" fill="#72E5EF" fill-rule="evenodd"/><path d="M593.765 578.876 616.443 578.876 616.443 601.553 593.765 601.553Z" fill="#72E5EF" fill-rule="evenodd"/><path d="M616.443 578.876 639.12 578.876 639.12 601.553 616.443 601.553Z" fill="#72E5EF" fill-rule="evenodd"/><path d="M639.12 578.876 661.797 578.876 661.797 601.553 639.12 601.553Z" fill="#72E5EF" fill-rule="evenodd"/><path d="M661.797 578.876 684.474 578.876 684.474 601.553 661.797 601.553Z" fill="#72E5EF" fill-rule="evenodd"/><path d="M684.474 578.876 707.151 578.876 707.151 601.553 684.474 601.553Z" fill="#72E5EF" fill-rule="evenodd"/><path d="M707.151 578.876 729.828 578.876 729.828 601.553 707.151 601.553Z" fill="#72E5EF" fill-rule="evenodd"/><path d="M729.828 578.876 752.506 578.876 752.506 601.553 729.828 601.553Z" fill="#72E5EF" fill-rule="evenodd"/><path d="M752.506 578.876 775.183 578.876 775.183 601.553 752.506 601.553Z" fill="#72E5EF" fill-rule="evenodd"/><path d="M775.183 578.876 797.86 578.876 797.86 601.553 775.183 601.553Z" fill="#72E5EF" fill-rule="evenodd"/><path d="M797.86 578.876 820.537 578.876 820.537 601.553 797.86 601.553Z" fill="#72E5EF" fill-rule="evenodd"/><path d="M820.537 578.876 843.214 578.876 843.214 601.553 820.537 601.553Z" fill="#72E5EF" fill-rule="evenodd"/><path d="M843.214 578.876 865.891 578.876 865.891 601.553 843.214 601.553Z" fill="#72E5EF" fill-rule="evenodd"/><path d="M865.891 578.876 888.569 578.876 888.569 601.553 865.891 601.553Z" fill="#72E5EF" fill-rule="evenodd"/><path d="M435.025 601.553 457.702 601.553 457.702 624.23 435.025 624.23Z" fill="#72E5EF" fill-rule="evenodd"/><path d="M457.702 601.553 480.38 601.553 480.38 624.23 457.702 624.23Z" fill="#72E5EF" fill-rule="evenodd"/><path d="M480.38 601.553 503.057 601.553 503.057 624.23 480.38 624.23Z" fill="#72E5EF" fill-rule="evenodd"/><path d="M503.057 601.553 525.734 601.553 525.734 624.23 503.057 624.23Z" fill="#72E5EF" fill-rule="evenodd"/><path d="M525.734 601.553 548.411 601.553 548.411 624.23 525.734 624.23Z" fill="#72E5EF" fill-rule="evenodd"/><path d="M548.411 601.553 571.088 601.553 571.088 624.23 548.411 624.23Z" fill="#72E5EF" fill-rule="evenodd"/><path d="M571.088 601.553 593.765 601.553 593.765 624.23 571.088 624.23Z" fill="#72E5EF" fill-rule="evenodd"/><path d="M593.765 601.553 616.443 601.553 616.443 624.23 593.765 624.23Z" fill="#72E5EF" fill-rule="evenodd"/><path d="M616.443 601.553 639.12 601.553 639.12 624.23 616.443 624.23Z" fill="#72E5EF" fill-rule="evenodd"/><path d="M639.12 601.553 661.797 601.553 661.797 624.23 639.12 624.23Z" fill="#72E5EF" fill-rule="evenodd"/><path d="M661.797 601.553 684.474 601.553 684.474 624.23 661.797 624.23Z" fill="#72E5EF" fill-rule="evenodd"/><path d="M684.474 601.553 707.151 601.553 707.151 624.23 684.474 624.23Z" fill="#72E5EF" fill-rule="evenodd"/><path d="M707.151 601.553 729.828 601.553 729.828 624.23 707.151 624.23Z" fill="#72E5EF" fill-rule="evenodd"/><path d="M729.828 601.553 752.506 601.553 752.506 624.23 729.828 624.23Z" fill="#72E5EF" fill-rule="evenodd"/><path d="M752.506 601.553 775.183 601.553 775.183 624.23 752.506 624.23Z" fill="#72E5EF" fill-rule="evenodd"/><path d="M775.183 601.553 797.86 601.553 797.86 624.23 775.183 624.23Z" fill="#72E5EF" fill-rule="evenodd"/><path d="M797.86 601.553 820.537 601.553 820.537 624.23 797.86 624.23Z" fill="#72E5EF" fill-rule="evenodd"/><path d="M820.537 601.553 843.214 601.553 843.214 624.23 820.537 624.23Z" fill="#72E5EF" fill-rule="evenodd"/><path d="M843.214 601.553 865.891 601.553 865.891 624.23 843.214 624.23Z" fill="#72E5EF" fill-rule="evenodd"/><path d="M865.891 601.553 888.569 601.553 888.569 624.23 865.891 624.23Z" fill="#72E5EF" fill-rule="evenodd"/><path d="M457.702 555.532 457.702 624.897" stroke="#000000" stroke-width="1.33333" stroke-linejoin="round" stroke-miterlimit="10" fill="none" fill-rule="evenodd"/><path d="M480.38 555.532 480.38 624.897" stroke="#000000" stroke-width="1.33333" stroke-linejoin="round" stroke-miterlimit="10" fill="none" fill-rule="evenodd"/><path d="M503.057 555.532 503.057 624.897" stroke="#000000" stroke-width="1.33333" stroke-linejoin="round" stroke-miterlimit="10" fill="none" fill-rule="evenodd"/><path d="M525.734 555.532 525.734 624.897" stroke="#000000" stroke-width="1.33333" stroke-linejoin="round" stroke-miterlimit="10" fill="none" fill-rule="evenodd"/><path d="M548.411 555.532 548.411 624.897" stroke="#000000" stroke-width="1.33333" stroke-linejoin="round" stroke-miterlimit="10" fill="none" fill-rule="evenodd"/><path d="M571.088 555.532 571.088 624.897" stroke="#000000" stroke-width="1.33333" stroke-linejoin="round" stroke-miterlimit="10" fill="none" fill-rule="evenodd"/><path d="M593.765 555.532 593.765 624.897" stroke="#000000" stroke-width="1.33333" stroke-linejoin="round" stroke-miterlimit="10" fill="none" fill-rule="evenodd"/><path d="M616.443 555.532 616.443 624.897" stroke="#000000" stroke-width="1.33333" stroke-linejoin="round" stroke-miterlimit="10" fill="none" fill-rule="evenodd"/><path d="M639.12 555.532 639.12 624.897" stroke="#000000" stroke-width="1.33333" stroke-linejoin="round" stroke-miterlimit="10" fill="none" fill-rule="evenodd"/><path d="M661.797 555.532 661.797 624.897" stroke="#000000" stroke-width="1.33333" stroke-linejoin="round" stroke-miterlimit="10" fill="none" fill-rule="evenodd"/><path d="M684.474 555.532 684.474 624.897" stroke="#000000" stroke-width="1.33333" stroke-linejoin="round" stroke-miterlimit="10" fill="none" fill-rule="evenodd"/><path d="M707.151 555.532 707.151 624.897" stroke="#000000" stroke-width="1.33333" stroke-linejoin="round" stroke-miterlimit="10" fill="none" fill-rule="evenodd"/><path d="M729.828 578.209 729.828 624.897" stroke="#000000" stroke-width="1.33333" stroke-linejoin="round" stroke-miterlimit="10" fill="none" fill-rule="evenodd"/><path d="M752.506 578.209 752.506 624.897" stroke="#000000" stroke-width="1.33333" stroke-linejoin="round" stroke-miterlimit="10" fill="none" fill-rule="evenodd"/><path d="M775.183 578.209 775.183 624.897" stroke="#000000" stroke-width="1.33333" stroke-linejoin="round" stroke-miterlimit="10" fill="none" fill-rule="evenodd"/><path d="M797.86 578.209 797.86 624.897" stroke="#000000" stroke-width="1.33333" stroke-linejoin="round" stroke-miterlimit="10" fill="none" fill-rule="evenodd"/><path d="M820.537 578.209 820.537 624.897" stroke="#000000" stroke-width="1.33333" stroke-linejoin="round" stroke-miterlimit="10" fill="none" fill-rule="evenodd"/><path d="M843.214 578.209 843.214 624.897" stroke="#000000" stroke-width="1.33333" stroke-linejoin="round" stroke-miterlimit="10" fill="none" fill-rule="evenodd"/><path d="M865.891 578.209 865.891 624.897" stroke="#000000" stroke-width="1.33333" stroke-linejoin="round" stroke-miterlimit="10" fill="none" fill-rule="evenodd"/><path d="M434.359 578.876 889.235 578.876" stroke="#000000" stroke-width="1.33333" stroke-linejoin="round" stroke-miterlimit="10" fill="none" fill-rule="evenodd"/><path d="M434.359 601.553 889.235 601.553" stroke="#000000" stroke-width="1.33333" stroke-linejoin="round" stroke-miterlimit="10" fill="none" fill-rule="evenodd"/><path d="M435.025 555.532 435.025 624.897" stroke="#000000" stroke-width="1.33333" stroke-linejoin="round" stroke-miterlimit="10" fill="none" fill-rule="evenodd"/><path d="M888.569 578.209 888.569 624.897" stroke="#000000" stroke-width="1.33333" stroke-linejoin="round" stroke-miterlimit="10" fill="none" fill-rule="evenodd"/><path d="M434.359 556.199 707.818 556.199" stroke="#000000" stroke-width="1.33333" stroke-linejoin="round" stroke-miterlimit="10" fill="none" fill-rule="evenodd"/><path d="M434.359 624.23 889.235 624.23" stroke="#000000" stroke-width="1.33333" stroke-linejoin="round" stroke-miterlimit="10" fill="none" fill-rule="evenodd"/></g></svg>