<svg width="457" height="433" xmlns="http://www.w3.org/2000/svg" xmlns:xlink="http://www.w3.org/1999/xlink" overflow="hidden"><defs><clipPath id="clip0"><rect x="-59" y="16" width="457" height="433"/></clipPath></defs><g clip-path="url(#clip0)" transform="translate(59 -16)"><path d="M-57.2466 16.8346-34.5695 16.8346-34.5695 39.5118-57.2466 39.5118Z" fill="#084FE4" fill-rule="evenodd"/><path d="M-34.5695 16.8346-11.8923 16.8346-11.8923 39.5118-34.5695 39.5118Z" fill="#084FE4" fill-rule="evenodd"/><path d="M-11.8923 16.8346 10.7849 16.8346 10.7849 39.5118-11.8923 39.5118Z" fill="#084FE4" fill-rule="evenodd"/><path d="M10.7849 16.8346 33.462 16.8346 33.462 39.5118 10.7849 39.5118Z" fill="#084FE4" fill-rule="evenodd"/><path d="M33.462 16.8346 56.1392 16.8346 56.1392 39.5118 33.462 39.5118Z" fill="#084FE4" fill-rule="evenodd"/><path d="M56.1392 16.8346 78.8164 16.8346 78.8164 39.5118 56.1392 39.5118Z" fill="#084FE4" fill-rule="evenodd"/><path d="M78.8164 16.8346 101.494 16.8346 101.494 39.5118 78.8164 39.5118Z" fill="#084FE4" fill-rule="evenodd"/><path d="M101.494 16.8346 124.171 16.8346 124.171 39.5118 101.494 39.5118Z" fill="#084FE4" fill-rule="evenodd"/><path d="M124.171 16.8346 146.848 16.8346 146.848 39.5118 124.171 39.5118Z" fill="#084FE4" fill-rule="evenodd"/><path d="M146.848 16.8346 169.525 16.8346 169.525 39.5118 146.848 39.5118Z" fill="#084FE4" fill-rule="evenodd"/><path d="M169.525 16.8346 192.202 16.8346 192.202 39.5118 169.525 39.5118Z" fill="#084FE4" fill-rule="evenodd"/><path d="M192.202 16.8346 214.879 16.8346 214.879 39.5118 192.202 39.5118Z" fill="#084FE4" fill-rule="evenodd"/><path d="M214.879 16.8346 237.557 16.8346 237.557 39.5118 214.879 39.5118Z" fill="#084FE4" fill-rule="evenodd"/><path d="M237.557 16.8346 396.297 16.8346 396.297 39.5118 237.557 39.5118Z" fill="#FFFFFF" fill-rule="evenodd"/><path d="M-57.2466 39.5118-34.5695 39.5118-34.5695 62.189-57.2466 62.189Z" fill="#084FE4" fill-rule="evenodd"/><path d="M-34.5695 39.5118-11.8923 39.5118-11.8923 62.189-34.5695 62.189Z" fill="#084FE4" fill-rule="evenodd"/><path d="M-11.8923 39.5118 10.7849 39.5118 10.7849 62.189-11.8923 62.189Z" fill="#084FE4" fill-rule="evenodd"/><path d="M10.7849 39.5118 33.462 39.5118 33.462 62.189 10.7849 62.189Z" fill="#084FE4" fill-rule="evenodd"/><path d="M33.462 39.5118 56.1392 39.5118 56.1392 62.189 33.462 62.189Z" fill="#084FE4" fill-rule="evenodd"/><path d="M56.1392 39.5118 78.8164 39.5118 78.8164 62.189 56.1392 62.189Z" fill="#084FE4" fill-rule="evenodd"/><path d="M78.8164 39.5118 101.494 39.5118 101.494 62.189 78.8164 62.189Z" fill="#084FE4" fill-rule="evenodd"/><path d="M101.494 39.5118 124.171 39.5118 124.171 62.189 101.494 62.189Z" fill="#084FE4" fill-rule="evenodd"/><path d="M124.171 39.5118 146.848 39.5118 146.848 62.189 124.171 62.189Z" fill="#084FE4" fill-rule="evenodd"/><path d="M146.848 39.5118 169.525 39.5118 169.525 62.189 146.848 62.189Z" fill="#084FE4" fill-rule="evenodd"/><path d="M169.525 39.5118 192.202 39.5118 192.202 62.189 169.525 62.189Z" fill="#084FE4" fill-rule="evenodd"/><path d="M192.202 39.5118 214.879 39.5118 214.879 62.189 192.202 62.189Z" fill="#084FE4" fill-rule="evenodd"/><path d="M214.879 39.5118 237.557 39.5118 237.557 62.189 214.879 62.189Z" fill="#084FE4" fill-rule="evenodd"/><path d="M237.557 39.5118 260.234 39.5118 260.234 62.189 237.557 62.189Z" fill="#084FE4" fill-rule="evenodd"/><path d="M260.234 39.5118 282.911 39.5118 282.911 62.189 260.234 62.189Z" fill="#084FE4" fill-rule="evenodd"/><path d="M282.911 39.5118 305.588 39.5118 305.588 62.189 282.911 62.189Z" fill="#084FE4" fill-rule="evenodd"/><path d="M305.588 39.5118 328.265 39.5118 328.265 62.189 305.588 62.189Z" fill="#084FE4" fill-rule="evenodd"/><path d="M328.265 39.5118 350.942 39.5118 350.942 62.189 328.265 62.189Z" fill="#084FE4" fill-rule="evenodd"/><path d="M350.942 39.5118 373.62 39.5118 373.62 62.189 350.942 62.189Z" fill="#084FE4" fill-rule="evenodd"/><path d="M373.62 39.5118 396.297 39.5118 396.297 62.189 373.62 62.189Z" fill="#084FE4" fill-rule="evenodd"/><path d="M-57.2466 62.189-34.5695 62.189-34.5695 84.8661-57.2466 84.8661Z" fill="#084FE4" fill-rule="evenodd"/><path d="M-34.5695 62.189-11.8923 62.189-11.8923 84.8661-34.5695 84.8661Z" fill="#084FE4" fill-rule="evenodd"/><path d="M-11.8923 62.189 10.7849 62.189 10.7849 84.8661-11.8923 84.8661Z" fill="#084FE4" fill-rule="evenodd"/><path d="M10.7849 62.189 33.462 62.189 33.462 84.8661 10.7849 84.8661Z" fill="#084FE4" fill-rule="evenodd"/><path d="M33.462 62.189 56.1392 62.189 56.1392 84.8661 33.462 84.8661Z" fill="#084FE4" fill-rule="evenodd"/><path d="M56.1392 62.189 78.8164 62.189 78.8164 84.8661 56.1392 84.8661Z" fill="#084FE4" fill-rule="evenodd"/><path d="M78.8164 62.189 101.494 62.189 101.494 84.8661 78.8164 84.8661Z" fill="#084FE4" fill-rule="evenodd"/><path d="M101.494 62.189 124.171 62.189 124.171 84.8661 101.494 84.8661Z" fill="#084FE4" fill-rule="evenodd"/><path d="M124.171 62.189 146.848 62.189 146.848 84.8661 124.171 84.8661Z" fill="#084FE4" fill-rule="evenodd"/><path d="M146.848 62.189 169.525 62.189 169.525 84.8661 146.848 84.8661Z" fill="#084FE4" fill-rule="evenodd"/><path d="M169.525 62.189 192.202 62.189 192.202 84.8661 169.525 84.8661Z" fill="#084FE4" fill-rule="evenodd"/><path d="M192.202 62.189 214.879 62.189 214.879 84.8661 192.202 84.8661Z" fill="#084FE4" fill-rule="evenodd"/><path d="M214.879 62.189 237.557 62.189 237.557 84.8661 214.879 84.8661Z" fill="#084FE4" fill-rule="evenodd"/><path d="M237.557 62.189 260.234 62.189 260.234 84.8661 237.557 84.8661Z" fill="#084FE4" fill-rule="evenodd"/><path d="M260.234 62.189 282.911 62.189 282.911 84.8661 260.234 84.8661Z" fill="#084FE4" fill-rule="evenodd"/><path d="M282.911 62.189 305.588 62.189 305.588 84.8661 282.911 84.8661Z" fill="#084FE4" fill-rule="evenodd"/><path d="M305.588 62.189 328.265 62.189 328.265 84.8661 305.588 84.8661Z" fill="#084FE4" fill-rule="evenodd"/><path d="M328.265 62.189 350.942 62.189 350.942 84.8661 328.265 84.8661Z" fill="#084FE4" fill-rule="evenodd"/><path d="M350.942 62.189 373.62 62.189 373.62 84.8661 350.942 84.8661Z" fill="#084FE4" fill-rule="evenodd"/><path d="M373.62 62.189 396.297 62.189 396.297 84.8661 373.62 84.8661Z" fill="#084FE4" fill-rule="evenodd"/><path d="M-57.2466 84.8661-34.5695 84.8661-34.5695 107.543-57.2466 107.543Z" fill="#084FE4" fill-rule="evenodd"/><path d="M-34.5695 84.8661-11.8923 84.8661-11.8923 107.543-34.5695 107.543Z" fill="#084FE4" fill-rule="evenodd"/><path d="M-11.8923 84.8661 10.7849 84.8661 10.7849 107.543-11.8923 107.543Z" fill="#084FE4" fill-rule="evenodd"/><path d="M10.7849 84.8661 33.462 84.8661 33.462 107.543 10.7849 107.543Z" fill="#084FE4" fill-rule="evenodd"/><path d="M33.462 84.8661 56.1392 84.8661 56.1392 107.543 33.462 107.543Z" fill="#084FE4" fill-rule="evenodd"/><path d="M56.1392 84.8661 78.8164 84.8661 78.8164 107.543 56.1392 107.543Z" fill="#084FE4" fill-rule="evenodd"/><path d="M78.8164 84.8661 101.494 84.8661 101.494 107.543 78.8164 107.543Z" fill="#084FE4" fill-rule="evenodd"/><path d="M101.494 84.8661 124.171 84.8661 124.171 107.543 101.494 107.543Z" fill="#084FE4" fill-rule="evenodd"/><path d="M124.171 84.8661 146.848 84.8661 146.848 107.543 124.171 107.543Z" fill="#084FE4" fill-rule="evenodd"/><path d="M146.848 84.8661 169.525 84.8661 169.525 107.543 146.848 107.543Z" fill="#084FE4" fill-rule="evenodd"/><path d="M169.525 84.8661 192.202 84.8661 192.202 107.543 169.525 107.543Z" fill="#084FE4" fill-rule="evenodd"/><path d="M192.202 84.8661 214.879 84.8661 214.879 107.543 192.202 107.543Z" fill="#084FE4" fill-rule="evenodd"/><path d="M214.879 84.8661 237.557 84.8661 237.557 107.543 214.879 107.543Z" fill="#084FE4" fill-rule="evenodd"/><path d="M237.557 84.8661 260.234 84.8661 260.234 107.543 237.557 107.543Z" fill="#084FE4" fill-rule="evenodd"/><path d="M260.234 84.8661 282.911 84.8661 282.911 107.543 260.234 107.543Z" fill="#084FE4" fill-rule="evenodd"/><path d="M282.911 84.8661 305.588 84.8661 305.588 107.543 282.911 107.543Z" fill="#084FE4" fill-rule="evenodd"/><path d="M305.588 84.8661 328.265 84.8661 328.265 107.543 305.588 107.543Z" fill="#084FE4" fill-rule="evenodd"/><path d="M328.265 84.8661 350.942 84.8661 350.942 107.543 328.265 107.543Z" fill="#084FE4" fill-rule="evenodd"/><path d="M350.942 84.8661 373.62 84.8661 373.62 107.543 350.942 107.543Z" fill="#084FE4" fill-rule="evenodd"/><path d="M373.62 84.8661 396.297 84.8661 396.297 107.543 373.62 107.543Z" fill="#084FE4" fill-rule="evenodd"/><path d="M-57.2466 107.543-34.5695 107.543-34.5695 130.22-57.2466 130.22Z" fill="#084FE4" fill-rule="evenodd"/><path d="M-34.5695 107.543-11.8923 107.543-11.8923 130.22-34.5695 130.22Z" fill="#084FE4" fill-rule="evenodd"/><path d="M-11.8923 107.543 10.7849 107.543 10.7849 130.22-11.8923 130.22Z" fill="#084FE4" fill-rule="evenodd"/><path d="M10.7849 107.543 33.462 107.543 33.462 130.22 10.7849 130.22Z" fill="#084FE4" fill-rule="evenodd"/><path d="M33.462 107.543 56.1392 107.543 56.1392 130.22 33.462 130.22Z" fill="#084FE4" fill-rule="evenodd"/><path d="M56.1392 107.543 78.8164 107.543 78.8164 130.22 56.1392 130.22Z" fill="#084FE4" fill-rule="evenodd"/><path d="M78.8164 107.543 101.494 107.543 101.494 130.22 78.8164 130.22Z" fill="#084FE4" fill-rule="evenodd"/><path d="M101.494 107.543 124.171 107.543 124.171 130.22 101.494 130.22Z" fill="#084FE4" fill-rule="evenodd"/><path d="M124.171 107.543 146.848 107.543 146.848 130.22 124.171 130.22Z" fill="#084FE4" fill-rule="evenodd"/><path d="M146.848 107.543 169.525 107.543 169.525 130.22 146.848 130.22Z" fill="#084FE4" fill-rule="evenodd"/><path d="M169.525 107.543 192.202 107.543 192.202 130.22 169.525 130.22Z" fill="#084FE4" fill-rule="evenodd"/><path d="M192.202 107.543 214.879 107.543 214.879 130.22 192.202 130.22Z" fill="#084FE4" fill-rule="evenodd"/><path d="M214.879 107.543 237.557 107.543 237.557 130.22 214.879 130.22Z" fill="#084FE4" fill-rule="evenodd"/><path d="M237.557 107.543 260.234 107.543 260.234 130.22 237.557 130.22Z" fill="#084FE4" fill-rule="evenodd"/><path d="M260.234 107.543 282.911 107.543 282.911 130.22 260.234 130.22Z" fill="#084FE4" fill-rule="evenodd"/><path d="M282.911 107.543 305.588 107.543 305.588 130.22 282.911 130.22Z" fill="#084FE4" fill-rule="evenodd"/><path d="M305.588 107.543 328.265 107.543 328.265 130.22 305.588 130.22Z" fill="#084FE4" fill-rule="evenodd"/><path d="M328.265 107.543 350.942 107.543 350.942 130.22 328.265 130.22Z" fill="#084FE4" fill-rule="evenodd"/><path d="M350.942 107.543 373.62 107.543 373.62 130.22 350.942 130.22Z" fill="#084FE4" fill-rule="evenodd"/><path d="M373.62 107.543 396.297 107.543 396.297 130.22 373.62 130.22Z" fill="#084FE4" fill-rule="evenodd"/><path d="M-57.2466 130.22-34.5695 130.22-34.5695 152.898-57.2466 152.898Z" fill="#084FE4" fill-rule="evenodd"/><path d="M-34.5695 130.22-11.8923 130.22-11.8923 152.898-34.5695 152.898Z" fill="#084FE4" fill-rule="evenodd"/><path d="M-11.8923 130.22 10.7849 130.22 10.7849 152.898-11.8923 152.898Z" fill="#084FE4" fill-rule="evenodd"/><path d="M10.7849 130.22 33.462 130.22 33.462 152.898 10.7849 152.898Z" fill="#084FE4" fill-rule="evenodd"/><path d="M33.462 130.22 56.1392 130.22 56.1392 152.898 33.462 152.898Z" fill="#084FE4" fill-rule="evenodd"/><path d="M56.1392 130.22 78.8164 130.22 78.8164 152.898 56.1392 152.898Z" fill="#084FE4" fill-rule="evenodd"/><path d="M78.8164 130.22 101.494 130.22 101.494 152.898 78.8164 152.898Z" fill="#084FE4" fill-rule="evenodd"/><path d="M101.494 130.22 124.171 130.22 124.171 152.898 101.494 152.898Z" fill="#084FE4" fill-rule="evenodd"/><path d="M124.171 130.22 146.848 130.22 146.848 152.898 124.171 152.898Z" fill="#084FE4" fill-rule="evenodd"/><path d="M146.848 130.22 169.525 130.22 169.525 152.898 146.848 152.898Z" fill="#084FE4" fill-rule="evenodd"/><path d="M169.525 130.22 192.202 130.22 192.202 152.898 169.525 152.898Z" fill="#084FE4" fill-rule="evenodd"/><path d="M192.202 130.22 214.879 130.22 214.879 152.898 192.202 152.898Z" fill="#084FE4" fill-rule="evenodd"/><path d="M214.879 130.22 237.557 130.22 237.557 152.898 214.879 152.898Z" fill="#084FE4" fill-rule="evenodd"/><path d="M237.557 130.22 260.234 130.22 260.234 152.898 237.557 152.898Z" fill="#084FE4" fill-rule="evenodd"/><path d="M260.234 130.22 282.911 130.22 282.911 152.898 260.234 152.898Z" fill="#084FE4" fill-rule="evenodd"/><path d="M282.911 130.22 305.588 130.22 305.588 152.898 282.911 152.898Z" fill="#084FE4" fill-rule="evenodd"/><path d="M305.588 130.22 328.265 130.22 328.265 152.898 305.588 152.898Z" fill="#084FE4" fill-rule="evenodd"/><path d="M328.265 130.22 350.942 130.22 350.942 152.898 328.265 152.898Z" fill="#084FE4" fill-rule="evenodd"/><path d="M350.942 130.22 373.62 130.22 373.62 152.898 350.942 152.898Z" fill="#084FE4" fill-rule="evenodd"/><path d="M373.62 130.22 396.297 130.22 396.297 152.898 373.62 152.898Z" fill="#084FE4" fill-rule="evenodd"/><path d="M-57.2466 152.898-34.5695 152.898-34.5695 175.575-57.2466 175.575Z" fill="#084FE4" fill-rule="evenodd"/><path d="M-34.5695 152.898-11.8923 152.898-11.8923 175.575-34.5695 175.575Z" fill="#084FE4" fill-rule="evenodd"/><path d="M-11.8923 152.898 10.7849 152.898 10.7849 175.575-11.8923 175.575Z" fill="#084FE4" fill-rule="evenodd"/><path d="M10.7849 152.898 33.462 152.898 33.462 175.575 10.7849 175.575Z" fill="#084FE4" fill-rule="evenodd"/><path d="M33.462 152.898 56.1392 152.898 56.1392 175.575 33.462 175.575Z" fill="#084FE4" fill-rule="evenodd"/><path d="M56.1392 152.898 78.8164 152.898 78.8164 175.575 56.1392 175.575Z" fill="#084FE4" fill-rule="evenodd"/><path d="M78.8164 152.898 101.494 152.898 101.494 175.575 78.8164 175.575Z" fill="#084FE4" fill-rule="evenodd"/><path d="M101.494 152.898 124.171 152.898 124.171 175.575 101.494 175.575Z" fill="#084FE4" fill-rule="evenodd"/><path d="M124.171 152.898 146.848 152.898 146.848 175.575 124.171 175.575Z" fill="#084FE4" fill-rule="evenodd"/><path d="M146.848 152.898 169.525 152.898 169.525 175.575 146.848 175.575Z" fill="#084FE4" fill-rule="evenodd"/><path d="M169.525 152.898 192.202 152.898 192.202 175.575 169.525 175.575Z" fill="#084FE4" fill-rule="evenodd"/><path d="M192.202 152.898 214.879 152.898 214.879 175.575 192.202 175.575Z" fill="#084FE4" fill-rule="evenodd"/><path d="M214.879 152.898 237.557 152.898 237.557 175.575 214.879 175.575Z" fill="#084FE4" fill-rule="evenodd"/><path d="M237.557 152.898 260.234 152.898 260.234 175.575 237.557 175.575Z" fill="#084FE4" fill-rule="evenodd"/><path d="M260.234 152.898 282.911 152.898 282.911 175.575 260.234 175.575Z" fill="#084FE4" fill-rule="evenodd"/><path d="M282.911 152.898 305.588 152.898 305.588 175.575 282.911 175.575Z" fill="#084FE4" fill-rule="evenodd"/><path d="M305.588 152.898 328.265 152.898 328.265 175.575 305.588 175.575Z" fill="#084FE4" fill-rule="evenodd"/><path d="M328.265 152.898 350.942 152.898 350.942 175.575 328.265 175.575Z" fill="#084FE4" fill-rule="evenodd"/><path d="M350.942 152.898 373.62 152.898 373.62 175.575 350.942 175.575Z" fill="#084FE4" fill-rule="evenodd"/><path d="M373.62 152.898 396.297 152.898 396.297 175.575 373.62 175.575Z" fill="#084FE4" fill-rule="evenodd"/><path d="M-57.2466 175.575-34.5695 175.575-34.5695 198.252-57.2466 198.252Z" fill="#084FE4" fill-rule="evenodd"/><path d="M-34.5695 175.575-11.8923 175.575-11.8923 198.252-34.5695 198.252Z" fill="#084FE4" fill-rule="evenodd"/><path d="M-11.8923 175.575 10.7849 175.575 10.7849 198.252-11.8923 198.252Z" fill="#084FE4" fill-rule="evenodd"/><path d="M10.7849 175.575 33.462 175.575 33.462 198.252 10.7849 198.252Z" fill="#084FE4" fill-rule="evenodd"/><path d="M33.462 175.575 56.1392 175.575 56.1392 198.252 33.462 198.252Z" fill="#084FE4" fill-rule="evenodd"/><path d="M56.1392 175.575 78.8164 175.575 78.8164 198.252 56.1392 198.252Z" fill="#084FE4" fill-rule="evenodd"/><path d="M78.8164 175.575 101.494 175.575 101.494 198.252 78.8164 198.252Z" fill="#084FE4" fill-rule="evenodd"/><path d="M101.494 175.575 124.171 175.575 124.171 198.252 101.494 198.252Z" fill="#084FE4" fill-rule="evenodd"/><path d="M124.171 175.575 146.848 175.575 146.848 198.252 124.171 198.252Z" fill="#084FE4" fill-rule="evenodd"/><path d="M146.848 175.575 169.525 175.575 169.525 198.252 146.848 198.252Z" fill="#084FE4" fill-rule="evenodd"/><path d="M169.525 175.575 192.202 175.575 192.202 198.252 169.525 198.252Z" fill="#084FE4" fill-rule="evenodd"/><path d="M192.202 175.575 214.879 175.575 214.879 198.252 192.202 198.252Z" fill="#084FE4" fill-rule="evenodd"/><path d="M214.879 175.575 237.557 175.575 237.557 198.252 214.879 198.252Z" fill="#084FE4" fill-rule="evenodd"/><path d="M237.557 175.575 260.234 175.575 260.234 198.252 237.557 198.252Z" fill="#084FE4" fill-rule="evenodd"/><path d="M260.234 175.575 282.911 175.575 282.911 198.252 260.234 198.252Z" fill="#084FE4" fill-rule="evenodd"/><path d="M282.911 175.575 305.588 175.575 305.588 198.252 282.911 198.252Z" fill="#084FE4" fill-rule="evenodd"/><path d="M305.588 175.575 328.265 175.575 328.265 198.252 305.588 198.252Z" fill="#084FE4" fill-rule="evenodd"/><path d="M328.265 175.575 350.942 175.575 350.942 198.252 328.265 198.252Z" fill="#084FE4" fill-rule="evenodd"/><path d="M350.942 175.575 373.62 175.575 373.62 198.252 350.942 198.252Z" fill="#084FE4" fill-rule="evenodd"/><path d="M373.62 175.575 396.297 175.575 396.297 198.252 373.62 198.252Z" fill="#084FE4" fill-rule="evenodd"/><path d="M-57.2466 198.252-34.5695 198.252-34.5695 220.929-57.2466 220.929Z" fill="#084FE4" fill-rule="evenodd"/><path d="M-34.5695 198.252-11.8923 198.252-11.8923 220.929-34.5695 220.929Z" fill="#084FE4" fill-rule="evenodd"/><path d="M-11.8923 198.252 10.7849 198.252 10.7849 220.929-11.8923 220.929Z" fill="#084FE4" fill-rule="evenodd"/><path d="M10.7849 198.252 33.462 198.252 33.462 220.929 10.7849 220.929Z" fill="#084FE4" fill-rule="evenodd"/><path d="M33.462 198.252 56.1392 198.252 56.1392 220.929 33.462 220.929Z" fill="#084FE4" fill-rule="evenodd"/><path d="M56.1392 198.252 78.8164 198.252 78.8164 220.929 56.1392 220.929Z" fill="#084FE4" fill-rule="evenodd"/><path d="M78.8164 198.252 101.494 198.252 101.494 220.929 78.8164 220.929Z" fill="#084FE4" fill-rule="evenodd"/><path d="M101.494 198.252 124.171 198.252 124.171 220.929 101.494 220.929Z" fill="#084FE4" fill-rule="evenodd"/><path d="M124.171 198.252 146.848 198.252 146.848 220.929 124.171 220.929Z" fill="#084FE4" fill-rule="evenodd"/><path d="M146.848 198.252 169.525 198.252 169.525 220.929 146.848 220.929Z" fill="#084FE4" fill-rule="evenodd"/><path d="M169.525 198.252 192.202 198.252 192.202 220.929 169.525 220.929Z" fill="#084FE4" fill-rule="evenodd"/><path d="M192.202 198.252 214.879 198.252 214.879 220.929 192.202 220.929Z" fill="#084FE4" fill-rule="evenodd"/><path d="M214.879 198.252 237.557 198.252 237.557 220.929 214.879 220.929Z" fill="#084FE4" fill-rule="evenodd"/><path d="M237.557 198.252 260.234 198.252 260.234 220.929 237.557 220.929Z" fill="#084FE4" fill-rule="evenodd"/><path d="M260.234 198.252 282.911 198.252 282.911 220.929 260.234 220.929Z" fill="#084FE4" fill-rule="evenodd"/><path d="M282.911 198.252 305.588 198.252 305.588 220.929 282.911 220.929Z" fill="#084FE4" fill-rule="evenodd"/><path d="M305.588 198.252 328.265 198.252 328.265 220.929 305.588 220.929Z" fill="#084FE4" fill-rule="evenodd"/><path d="M328.265 198.252 350.942 198.252 350.942 220.929 328.265 220.929Z" fill="#084FE4" fill-rule="evenodd"/><path d="M350.942 198.252 373.62 198.252 373.62 220.929 350.942 220.929Z" fill="#084FE4" fill-rule="evenodd"/><path d="M373.62 198.252 396.297 198.252 396.297 220.929 373.62 220.929Z" fill="#084FE4" fill-rule="evenodd"/><path d="M-57.2466 220.929-34.5695 220.929-34.5695 243.606-57.2466 243.606Z" fill="#084FE4" fill-rule="evenodd"/><path d="M-34.5695 220.929-11.8923 220.929-11.8923 243.606-34.5695 243.606Z" fill="#084FE4" fill-rule="evenodd"/><path d="M-11.8923 220.929 10.7849 220.929 10.7849 243.606-11.8923 243.606Z" fill="#084FE4" fill-rule="evenodd"/><path d="M10.7849 220.929 33.462 220.929 33.462 243.606 10.7849 243.606Z" fill="#084FE4" fill-rule="evenodd"/><path d="M33.462 220.929 56.1392 220.929 56.1392 243.606 33.462 243.606Z" fill="#084FE4" fill-rule="evenodd"/><path d="M56.1392 220.929 78.8164 220.929 78.8164 243.606 56.1392 243.606Z" fill="#084FE4" fill-rule="evenodd"/><path d="M78.8164 220.929 101.494 220.929 101.494 243.606 78.8164 243.606Z" fill="#084FE4" fill-rule="evenodd"/><path d="M101.494 220.929 124.171 220.929 124.171 243.606 101.494 243.606Z" fill="#084FE4" fill-rule="evenodd"/><path d="M124.171 220.929 146.848 220.929 146.848 243.606 124.171 243.606Z" fill="#084FE4" fill-rule="evenodd"/><path d="M146.848 220.929 169.525 220.929 169.525 243.606 146.848 243.606Z" fill="#084FE4" fill-rule="evenodd"/><path d="M169.525 220.929 192.202 220.929 192.202 243.606 169.525 243.606Z" fill="#084FE4" fill-rule="evenodd"/><path d="M192.202 220.929 214.879 220.929 214.879 243.606 192.202 243.606Z" fill="#084FE4" fill-rule="evenodd"/><path d="M214.879 220.929 237.557 220.929 237.557 243.606 214.879 243.606Z" fill="#084FE4" fill-rule="evenodd"/><path d="M237.557 220.929 260.234 220.929 260.234 243.606 237.557 243.606Z" fill="#084FE4" fill-rule="evenodd"/><path d="M260.234 220.929 282.911 220.929 282.911 243.606 260.234 243.606Z" fill="#084FE4" fill-rule="evenodd"/><path d="M282.911 220.929 305.588 220.929 305.588 243.606 282.911 243.606Z" fill="#084FE4" fill-rule="evenodd"/><path d="M305.588 220.929 328.265 220.929 328.265 243.606 305.588 243.606Z" fill="#084FE4" fill-rule="evenodd"/><path d="M328.265 220.929 350.942 220.929 350.942 243.606 328.265 243.606Z" fill="#084FE4" fill-rule="evenodd"/><path d="M350.942 220.929 373.62 220.929 373.62 243.606 350.942 243.606Z" fill="#084FE4" fill-rule="evenodd"/><path d="M373.62 220.929 396.297 220.929 396.297 243.606 373.62 243.606Z" fill="#084FE4" fill-rule="evenodd"/><path d="M-57.2466 243.606-34.5695 243.606-34.5695 266.283-57.2466 266.283Z" fill="#084FE4" fill-rule="evenodd"/><path d="M-34.5695 243.606-11.8923 243.606-11.8923 266.283-34.5695 266.283Z" fill="#084FE4" fill-rule="evenodd"/><path d="M-11.8923 243.606 10.7849 243.606 10.7849 266.283-11.8923 266.283Z" fill="#084FE4" fill-rule="evenodd"/><path d="M10.7849 243.606 33.462 243.606 33.462 266.283 10.7849 266.283Z" fill="#084FE4" fill-rule="evenodd"/><path d="M33.462 243.606 56.1392 243.606 56.1392 266.283 33.462 266.283Z" fill="#084FE4" fill-rule="evenodd"/><path d="M56.1392 243.606 78.8164 243.606 78.8164 266.283 56.1392 266.283Z" fill="#084FE4" fill-rule="evenodd"/><path d="M78.8164 243.606 101.494 243.606 101.494 266.283 78.8164 266.283Z" fill="#084FE4" fill-rule="evenodd"/><path d="M101.494 243.606 124.171 243.606 124.171 266.283 101.494 266.283Z" fill="#084FE4" fill-rule="evenodd"/><path d="M124.171 243.606 146.848 243.606 146.848 266.283 124.171 266.283Z" fill="#084FE4" fill-rule="evenodd"/><path d="M146.848 243.606 169.525 243.606 169.525 266.283 146.848 266.283Z" fill="#084FE4" fill-rule="evenodd"/><path d="M169.525 243.606 192.202 243.606 192.202 266.283 169.525 266.283Z" fill="#084FE4" fill-rule="evenodd"/><path d="M192.202 243.606 214.879 243.606 214.879 266.283 192.202 266.283Z" fill="#084FE4" fill-rule="evenodd"/><path d="M214.879 243.606 237.557 243.606 237.557 266.283 214.879 266.283Z" fill="#084FE4" fill-rule="evenodd"/><path d="M237.557 243.606 260.234 243.606 260.234 266.283 237.557 266.283Z" fill="#084FE4" fill-rule="evenodd"/><path d="M260.234 243.606 282.911 243.606 282.911 266.283 260.234 266.283Z" fill="#084FE4" fill-rule="evenodd"/><path d="M282.911 243.606 305.588 243.606 305.588 266.283 282.911 266.283Z" fill="#084FE4" fill-rule="evenodd"/><path d="M305.588 243.606 328.265 243.606 328.265 266.283 305.588 266.283Z" fill="#084FE4" fill-rule="evenodd"/><path d="M328.265 243.606 350.942 243.606 350.942 266.283 328.265 266.283Z" fill="#084FE4" fill-rule="evenodd"/><path d="M350.942 243.606 373.62 243.606 373.62 266.283 350.942 266.283Z" fill="#084FE4" fill-rule="evenodd"/><path d="M373.62 243.606 396.297 243.606 396.297 266.283 373.62 266.283Z" fill="#084FE4" fill-rule="evenodd"/><path d="M-57.2466 266.283-34.5695 266.283-34.5695 288.961-57.2466 288.961Z" fill="#084FE4" fill-rule="evenodd"/><path d="M-34.5695 266.283-11.8923 266.283-11.8923 288.961-34.5695 288.961Z" fill="#084FE4" fill-rule="evenodd"/><path d="M-11.8923 266.283 10.7849 266.283 10.7849 288.961-11.8923 288.961Z" fill="#084FE4" fill-rule="evenodd"/><path d="M10.7849 266.283 33.462 266.283 33.462 288.961 10.7849 288.961Z" fill="#084FE4" fill-rule="evenodd"/><path d="M33.462 266.283 56.1392 266.283 56.1392 288.961 33.462 288.961Z" fill="#084FE4" fill-rule="evenodd"/><path d="M56.1392 266.283 78.8164 266.283 78.8164 288.961 56.1392 288.961Z" fill="#084FE4" fill-rule="evenodd"/><path d="M78.8164 266.283 101.494 266.283 101.494 288.961 78.8164 288.961Z" fill="#084FE4" fill-rule="evenodd"/><path d="M101.494 266.283 124.171 266.283 124.171 288.961 101.494 288.961Z" fill="#084FE4" fill-rule="evenodd"/><path d="M124.171 266.283 146.848 266.283 146.848 288.961 124.171 288.961Z" fill="#084FE4" fill-rule="evenodd"/><path d="M146.848 266.283 169.525 266.283 169.525 288.961 146.848 288.961Z" fill="#084FE4" fill-rule="evenodd"/><path d="M169.525 266.283 192.202 266.283 192.202 288.961 169.525 288.961Z" fill="#084FE4" fill-rule="evenodd"/><path d="M192.202 266.283 214.879 266.283 214.879 288.961 192.202 288.961Z" fill="#084FE4" fill-rule="evenodd"/><path d="M214.879 266.283 237.557 266.283 237.557 288.961 214.879 288.961Z" fill="#084FE4" fill-rule="evenodd"/><path d="M237.557 266.283 260.234 266.283 260.234 288.961 237.557 288.961Z" fill="#084FE4" fill-rule="evenodd"/><path d="M260.234 266.283 282.911 266.283 282.911 288.961 260.234 288.961Z" fill="#084FE4" fill-rule="evenodd"/><path d="M282.911 266.283 305.588 266.283 305.588 288.961 282.911 288.961Z" fill="#084FE4" fill-rule="evenodd"/><path d="M305.588 266.283 328.265 266.283 328.265 288.961 305.588 288.961Z" fill="#084FE4" fill-rule="evenodd"/><path d="M328.265 266.283 350.942 266.283 350.942 288.961 328.265 288.961Z" fill="#084FE4" fill-rule="evenodd"/><path d="M350.942 266.283 373.62 266.283 373.62 288.961 350.942 288.961Z" fill="#084FE4" fill-rule="evenodd"/><path d="M373.62 266.283 396.297 266.283 396.297 288.961 373.62 288.961Z" fill="#084FE4" fill-rule="evenodd"/><path d="M-57.2466 288.961-34.5695 288.961-34.5695 311.638-57.2466 311.638Z" fill="#084FE4" fill-rule="evenodd"/><path d="M-34.5695 288.961-11.8923 288.961-11.8923 311.638-34.5695 311.638Z" fill="#084FE4" fill-rule="evenodd"/><path d="M-11.8923 288.961 10.7849 288.961 10.7849 311.638-11.8923 311.638Z" fill="#084FE4" fill-rule="evenodd"/><path d="M10.7849 288.961 33.462 288.961 33.462 311.638 10.7849 311.638Z" fill="#084FE4" fill-rule="evenodd"/><path d="M33.462 288.961 56.1392 288.961 56.1392 311.638 33.462 311.638Z" fill="#084FE4" fill-rule="evenodd"/><path d="M56.1392 288.961 78.8164 288.961 78.8164 311.638 56.1392 311.638Z" fill="#084FE4" fill-rule="evenodd"/><path d="M78.8164 288.961 101.494 288.961 101.494 311.638 78.8164 311.638Z" fill="#084FE4" fill-rule="evenodd"/><path d="M101.494 288.961 124.171 288.961 124.171 311.638 101.494 311.638Z" fill="#084FE4" fill-rule="evenodd"/><path d="M124.171 288.961 146.848 288.961 146.848 311.638 124.171 311.638Z" fill="#084FE4" fill-rule="evenodd"/><path d="M146.848 288.961 169.525 288.961 169.525 311.638 146.848 311.638Z" fill="#084FE4" fill-rule="evenodd"/><path d="M169.525 288.961 192.202 288.961 192.202 311.638 169.525 311.638Z" fill="#084FE4" fill-rule="evenodd"/><path d="M192.202 288.961 214.879 288.961 214.879 311.638 192.202 311.638Z" fill="#084FE4" fill-rule="evenodd"/><path d="M214.879 288.961 237.557 288.961 237.557 311.638 214.879 311.638Z" fill="#084FE4" fill-rule="evenodd"/><path d="M237.557 288.961 260.234 288.961 260.234 311.638 237.557 311.638Z" fill="#084FE4" fill-rule="evenodd"/><path d="M260.234 288.961 282.911 288.961 282.911 311.638 260.234 311.638Z" fill="#084FE4" fill-rule="evenodd"/><path d="M282.911 288.961 305.588 288.961 305.588 311.638 282.911 311.638Z" fill="#084FE4" fill-rule="evenodd"/><path d="M305.588 288.961 328.265 288.961 328.265 311.638 305.588 311.638Z" fill="#084FE4" fill-rule="evenodd"/><path d="M328.265 288.961 350.942 288.961 350.942 311.638 328.265 311.638Z" fill="#084FE4" fill-rule="evenodd"/><path d="M350.942 288.961 373.62 288.961 373.62 311.638 350.942 311.638Z" fill="#084FE4" fill-rule="evenodd"/><path d="M373.62 288.961 396.297 288.961 396.297 311.638 373.62 311.638Z" fill="#084FE4" fill-rule="evenodd"/><path d="M-57.2466 311.638-34.5695 311.638-34.5695 334.315-57.2466 334.315Z" fill="#084FE4" fill-rule="evenodd"/><path d="M-34.5695 311.638-11.8923 311.638-11.8923 334.315-34.5695 334.315Z" fill="#084FE4" fill-rule="evenodd"/><path d="M-11.8923 311.638 10.7849 311.638 10.7849 334.315-11.8923 334.315Z" fill="#084FE4" fill-rule="evenodd"/><path d="M10.7849 311.638 33.462 311.638 33.462 334.315 10.7849 334.315Z" fill="#084FE4" fill-rule="evenodd"/><path d="M33.462 311.638 56.1392 311.638 56.1392 334.315 33.462 334.315Z" fill="#084FE4" fill-rule="evenodd"/><path d="M56.1392 311.638 78.8164 311.638 78.8164 334.315 56.1392 334.315Z" fill="#084FE4" fill-rule="evenodd"/><path d="M78.8164 311.638 101.494 311.638 101.494 334.315 78.8164 334.315Z" fill="#084FE4" fill-rule="evenodd"/><path d="M101.494 311.638 124.171 311.638 124.171 334.315 101.494 334.315Z" fill="#084FE4" fill-rule="evenodd"/><path d="M124.171 311.638 146.848 311.638 146.848 334.315 124.171 334.315Z" fill="#084FE4" fill-rule="evenodd"/><path d="M146.848 311.638 169.525 311.638 169.525 334.315 146.848 334.315Z" fill="#084FE4" fill-rule="evenodd"/><path d="M169.525 311.638 192.202 311.638 192.202 334.315 169.525 334.315Z" fill="#084FE4" fill-rule="evenodd"/><path d="M192.202 311.638 214.879 311.638 214.879 334.315 192.202 334.315Z" fill="#084FE4" fill-rule="evenodd"/><path d="M214.879 311.638 237.557 311.638 237.557 334.315 214.879 334.315Z" fill="#084FE4" fill-rule="evenodd"/><path d="M237.557 311.638 260.234 311.638 260.234 334.315 237.557 334.315Z" fill="#084FE4" fill-rule="evenodd"/><path d="M260.234 311.638 282.911 311.638 282.911 334.315 260.234 334.315Z" fill="#084FE4" fill-rule="evenodd"/><path d="M282.911 311.638 305.588 311.638 305.588 334.315 282.911 334.315Z" fill="#084FE4" fill-rule="evenodd"/><path d="M305.588 311.638 328.265 311.638 328.265 334.315 305.588 334.315Z" fill="#084FE4" fill-rule="evenodd"/><path d="M328.265 311.638 350.942 311.638 350.942 334.315 328.265 334.315Z" fill="#084FE4" fill-rule="evenodd"/><path d="M350.942 311.638 373.62 311.638 373.62 334.315 350.942 334.315Z" fill="#084FE4" fill-rule="evenodd"/><path d="M373.62 311.638 396.297 311.638 396.297 334.315 373.62 334.315Z" fill="#084FE4" fill-rule="evenodd"/><path d="M-57.2466 334.315-34.5695 334.315-34.5695 356.992-57.2466 356.992Z" fill="#084FE4" fill-rule="evenodd"/><path d="M-34.5695 334.315-11.8923 334.315-11.8923 356.992-34.5695 356.992Z" fill="#084FE4" fill-rule="evenodd"/><path d="M-11.8923 334.315 10.7849 334.315 10.7849 356.992-11.8923 356.992Z" fill="#084FE4" fill-rule="evenodd"/><path d="M10.7849 334.315 33.462 334.315 33.462 356.992 10.7849 356.992Z" fill="#084FE4" fill-rule="evenodd"/><path d="M33.462 334.315 56.1392 334.315 56.1392 356.992 33.462 356.992Z" fill="#084FE4" fill-rule="evenodd"/><path d="M56.1392 334.315 78.8164 334.315 78.8164 356.992 56.1392 356.992Z" fill="#084FE4" fill-rule="evenodd"/><path d="M78.8164 334.315 101.494 334.315 101.494 356.992 78.8164 356.992Z" fill="#084FE4" fill-rule="evenodd"/><path d="M101.494 334.315 124.171 334.315 124.171 356.992 101.494 356.992Z" fill="#084FE4" fill-rule="evenodd"/><path d="M124.171 334.315 146.848 334.315 146.848 356.992 124.171 356.992Z" fill="#084FE4" fill-rule="evenodd"/><path d="M146.848 334.315 169.525 334.315 169.525 356.992 146.848 356.992Z" fill="#084FE4" fill-rule="evenodd"/><path d="M169.525 334.315 192.202 334.315 192.202 356.992 169.525 356.992Z" fill="#084FE4" fill-rule="evenodd"/><path d="M192.202 334.315 214.879 334.315 214.879 356.992 192.202 356.992Z" fill="#084FE4" fill-rule="evenodd"/><path d="M214.879 334.315 237.557 334.315 237.557 356.992 214.879 356.992Z" fill="#084FE4" fill-rule="evenodd"/><path d="M237.557 334.315 260.234 334.315 260.234 356.992 237.557 356.992Z" fill="#084FE4" fill-rule="evenodd"/><path d="M260.234 334.315 282.911 334.315 282.911 356.992 260.234 356.992Z" fill="#084FE4" fill-rule="evenodd"/><path d="M282.911 334.315 305.588 334.315 305.588 356.992 282.911 356.992Z" fill="#084FE4" fill-rule="evenodd"/><path d="M305.588 334.315 328.265 334.315 328.265 356.992 305.588 356.992Z" fill="#084FE4" fill-rule="evenodd"/><path d="M328.265 334.315 350.942 334.315 350.942 356.992 328.265 356.992Z" fill="#084FE4" fill-rule="evenodd"/><path d="M350.942 334.315 373.62 334.315 373.62 356.992 350.942 356.992Z" fill="#084FE4" fill-rule="evenodd"/><path d="M373.62 334.315 396.297 334.315 396.297 356.992 373.62 356.992Z" fill="#084FE4" fill-rule="evenodd"/><path d="M-57.2466 356.992-34.5695 356.992-34.5695 379.669-57.2466 379.669Z" fill="#084FE4" fill-rule="evenodd"/><path d="M-34.5695 356.992-11.8923 356.992-11.8923 379.669-34.5695 379.669Z" fill="#084FE4" fill-rule="evenodd"/><path d="M-11.8923 356.992 10.7849 356.992 10.7849 379.669-11.8923 379.669Z" fill="#084FE4" fill-rule="evenodd"/><path d="M10.7849 356.992 33.462 356.992 33.462 379.669 10.7849 379.669Z" fill="#084FE4" fill-rule="evenodd"/><path d="M33.462 356.992 56.1392 356.992 56.1392 379.669 33.462 379.669Z" fill="#084FE4" fill-rule="evenodd"/><path d="M56.1392 356.992 78.8164 356.992 78.8164 379.669 56.1392 379.669Z" fill="#084FE4" fill-rule="evenodd"/><path d="M78.8164 356.992 101.494 356.992 101.494 379.669 78.8164 379.669Z" fill="#084FE4" fill-rule="evenodd"/><path d="M101.494 356.992 124.171 356.992 124.171 379.669 101.494 379.669Z" fill="#084FE4" fill-rule="evenodd"/><path d="M124.171 356.992 146.848 356.992 146.848 379.669 124.171 379.669Z" fill="#084FE4" fill-rule="evenodd"/><path d="M146.848 356.992 169.525 356.992 169.525 379.669 146.848 379.669Z" fill="#084FE4" fill-rule="evenodd"/><path d="M169.525 356.992 192.202 356.992 192.202 379.669 169.525 379.669Z" fill="#084FE4" fill-rule="evenodd"/><path d="M192.202 356.992 214.879 356.992 214.879 379.669 192.202 379.669Z" fill="#084FE4" fill-rule="evenodd"/><path d="M214.879 356.992 237.557 356.992 237.557 379.669 214.879 379.669Z" fill="#084FE4" fill-rule="evenodd"/><path d="M237.557 356.992 260.234 356.992 260.234 379.669 237.557 379.669Z" fill="#084FE4" fill-rule="evenodd"/><path d="M260.234 356.992 282.911 356.992 282.911 379.669 260.234 379.669Z" fill="#084FE4" fill-rule="evenodd"/><path d="M282.911 356.992 305.588 356.992 305.588 379.669 282.911 379.669Z" fill="#084FE4" fill-rule="evenodd"/><path d="M305.588 356.992 328.265 356.992 328.265 379.669 305.588 379.669Z" fill="#084FE4" fill-rule="evenodd"/><path d="M328.265 356.992 350.942 356.992 350.942 379.669 328.265 379.669Z" fill="#084FE4" fill-rule="evenodd"/><path d="M350.942 356.992 373.62 356.992 373.62 379.669 350.942 379.669Z" fill="#084FE4" fill-rule="evenodd"/><path d="M373.62 356.992 396.297 356.992 396.297 379.669 373.62 379.669Z" fill="#084FE4" fill-rule="evenodd"/><path d="M-34.5695 16.168-34.5695 380.336" stroke="#000000" stroke-width="1.33333" stroke-linejoin="round" stroke-miterlimit="10" fill="none" fill-rule="evenodd"/><path d="M-11.8923 16.168-11.8923 380.336" stroke="#000000" stroke-width="1.33333" stroke-linejoin="round" stroke-miterlimit="10" fill="none" fill-rule="evenodd"/><path d="M10.7849 16.168 10.7849 380.336" stroke="#000000" stroke-width="1.33333" stroke-linejoin="round" stroke-miterlimit="10" fill="none" fill-rule="evenodd"/><path d="M33.462 16.168 33.462 380.336" stroke="#000000" stroke-width="1.33333" stroke-linejoin="round" stroke-miterlimit="10" fill="none" fill-rule="evenodd"/><path d="M56.1392 16.168 56.1392 380.336" stroke="#000000" stroke-width="1.33333" stroke-linejoin="round" stroke-miterlimit="10" fill="none" fill-rule="evenodd"/><path d="M78.8164 16.168 78.8164 380.336" stroke="#000000" stroke-width="1.33333" stroke-linejoin="round" stroke-miterlimit="10" fill="none" fill-rule="evenodd"/><path d="M101.494 16.168 101.494 380.336" stroke="#000000" stroke-width="1.33333" stroke-linejoin="round" stroke-miterlimit="10" fill="none" fill-rule="evenodd"/><path d="M124.171 16.168 124.171 380.336" stroke="#000000" stroke-width="1.33333" stroke-linejoin="round" stroke-miterlimit="10" fill="none" fill-rule="evenodd"/><path d="M146.848 16.168 146.848 380.336" stroke="#000000" stroke-width="1.33333" stroke-linejoin="round" stroke-miterlimit="10" fill="none" fill-rule="evenodd"/><path d="M169.525 16.168 169.525 380.336" stroke="#000000" stroke-width="1.33333" stroke-linejoin="round" stroke-miterlimit="10" fill="none" fill-rule="evenodd"/><path d="M192.202 16.168 192.202 380.336" stroke="#000000" stroke-width="1.33333" stroke-linejoin="round" stroke-miterlimit="10" fill="none" fill-rule="evenodd"/><path d="M214.879 16.168 214.879 380.336" stroke="#000000" stroke-width="1.33333" stroke-linejoin="round" stroke-miterlimit="10" fill="none" fill-rule="evenodd"/><path d="M237.557 16.168 237.557 380.336" stroke="#000000" stroke-width="1.33333" stroke-linejoin="round" stroke-miterlimit="10" fill="none" fill-rule="evenodd"/><path d="M260.234 38.8451 260.234 380.336" stroke="#000000" stroke-width="1.33333" stroke-linejoin="round" stroke-miterlimit="10" fill="none" fill-rule="evenodd"/><path d="M282.911 38.8451 282.911 380.336" stroke="#000000" stroke-width="1.33333" stroke-linejoin="round" stroke-miterlimit="10" fill="none" fill-rule="evenodd"/><path d="M305.588 38.8451 305.588 380.336" stroke="#000000" stroke-width="1.33333" stroke-linejoin="round" stroke-miterlimit="10" fill="none" fill-rule="evenodd"/><path d="M328.265 38.8451 328.265 380.336" stroke="#000000" stroke-width="1.33333" stroke-linejoin="round" stroke-miterlimit="10" fill="none" fill-rule="evenodd"/><path d="M350.942 38.8451 350.942 380.336" stroke="#000000" stroke-width="1.33333" stroke-linejoin="round" stroke-miterlimit="10" fill="none" fill-rule="evenodd"/><path d="M373.62 38.8451 373.62 380.336" stroke="#000000" stroke-width="1.33333" stroke-linejoin="round" stroke-miterlimit="10" fill="none" fill-rule="evenodd"/><path d="M-57.9133 39.5118 396.963 39.5118" stroke="#000000" stroke-width="1.33333" stroke-linejoin="round" stroke-miterlimit="10" fill="none" fill-rule="evenodd"/><path d="M-57.9133 62.189 396.963 62.189" stroke="#000000" stroke-width="1.33333" stroke-linejoin="round" stroke-miterlimit="10" fill="none" fill-rule="evenodd"/><path d="M-57.9133 84.8661 396.963 84.8661" stroke="#000000" stroke-width="1.33333" stroke-linejoin="round" stroke-miterlimit="10" fill="none" fill-rule="evenodd"/><path d="M-57.9133 107.543 396.963 107.543" stroke="#000000" stroke-width="1.33333" stroke-linejoin="round" stroke-miterlimit="10" fill="none" fill-rule="evenodd"/><path d="M-57.9133 130.22 396.963 130.22" stroke="#000000" stroke-width="1.33333" stroke-linejoin="round" stroke-miterlimit="10" fill="none" fill-rule="evenodd"/><path d="M-57.9133 152.898 396.963 152.898" stroke="#000000" stroke-width="1.33333" stroke-linejoin="round" stroke-miterlimit="10" fill="none" fill-rule="evenodd"/><path d="M-57.9133 175.575 396.963 175.575" stroke="#000000" stroke-width="1.33333" stroke-linejoin="round" stroke-miterlimit="10" fill="none" fill-rule="evenodd"/><path d="M-57.9133 198.252 396.963 198.252" stroke="#000000" stroke-width="1.33333" stroke-linejoin="round" stroke-miterlimit="10" fill="none" fill-rule="evenodd"/><path d="M-57.9133 220.929 396.963 220.929" stroke="#000000" stroke-width="1.33333" stroke-linejoin="round" stroke-miterlimit="10" fill="none" fill-rule="evenodd"/><path d="M-57.9133 243.606 396.963 243.606" stroke="#000000" stroke-width="1.33333" stroke-linejoin="round" stroke-miterlimit="10" fill="none" fill-rule="evenodd"/><path d="M-57.9133 266.283 396.963 266.283" stroke="#000000" stroke-width="1.33333" stroke-linejoin="round" stroke-miterlimit="10" fill="none" fill-rule="evenodd"/><path d="M-57.9133 288.961 396.963 288.961" stroke="#000000" stroke-width="1.33333" stroke-linejoin="round" stroke-miterlimit="10" fill="none" fill-rule="evenodd"/><path d="M-57.9133 311.638 396.963 311.638" stroke="#000000" stroke-width="1.33333" stroke-linejoin="round" stroke-miterlimit="10" fill="none" fill-rule="evenodd"/><path d="M-57.9133 334.315 396.963 334.315" stroke="#000000" stroke-width="1.33333" stroke-linejoin="round" stroke-miterlimit="10" fill="none" fill-rule="evenodd"/><path d="M-57.9133 356.992 396.963 356.992" stroke="#000000" stroke-width="1.33333" stroke-linejoin="round" stroke-miterlimit="10" fill="none" fill-rule="evenodd"/><path d="M-57.2466 16.168-57.2466 380.336" stroke="#000000" stroke-width="1.33333" stroke-linejoin="round" stroke-miterlimit="10" fill="none" fill-rule="evenodd"/><path d="M396.297 38.8451 396.297 380.336" stroke="#000000" stroke-width="1.33333" stroke-linejoin="round" stroke-miterlimit="10" fill="none" fill-rule="evenodd"/><path d="M-57.9133 16.8346 238.223 16.8346" stroke="#000000" stroke-width="1.33333" stroke-linejoin="round" stroke-miterlimit="10" fill="none" fill-rule="evenodd"/><path d="M-57.9133 379.669 396.963 379.669" stroke="#000000" stroke-width="1.33333" stroke-linejoin="round" stroke-miterlimit="10" fill="none" fill-rule="evenodd"/><text font-family="Calibri,Calibri_MSFontService,sans-serif" font-weight="700" font-size="21" transform="translate(109.478 404)">Christianisme <tspan font-size="21" x="26.6267" y="25">(31,3%)</tspan></text></g></svg>