<svg width="457" height="366" xmlns="http://www.w3.org/2000/svg" xmlns:xlink="http://www.w3.org/1999/xlink" overflow="hidden"><defs><clipPath id="clip0"><rect x="434" y="16" width="457" height="366"/></clipPath></defs><g clip-path="url(#clip0)" transform="translate(-434 -16)"><text font-family="Calibri,Calibri_MSFontService,sans-serif" font-weight="700" font-size="21" transform="translate(638.214 337)">Islam<tspan font-size="21" x="-9.83337" y="25">(25,1%)</tspan></text><path d="M435.025 16.8346 457.702 16.8346 457.702 39.5118 435.025 39.5118Z" fill="#33783F" fill-rule="evenodd"/><path d="M457.702 16.8346 480.38 16.8346 480.38 39.5118 457.702 39.5118Z" fill="#33783F" fill-rule="evenodd"/><path d="M480.38 16.8346 503.057 16.8346 503.057 39.5118 480.38 39.5118Z" fill="#33783F" fill-rule="evenodd"/><path d="M503.057 16.8346 525.734 16.8346 525.734 39.5118 503.057 39.5118Z" fill="#33783F" fill-rule="evenodd"/><path d="M525.734 16.8346 548.411 16.8346 548.411 39.5118 525.734 39.5118Z" fill="#33783F" fill-rule="evenodd"/><path d="M548.411 16.8346 571.088 16.8346 571.088 39.5118 548.411 39.5118Z" fill="#33783F" fill-rule="evenodd"/><path d="M571.088 16.8346 593.765 16.8346 593.765 39.5118 571.088 39.5118Z" fill="#33783F" fill-rule="evenodd"/><path d="M593.765 16.8346 616.443 16.8346 616.443 39.5118 593.765 39.5118Z" fill="#33783F" fill-rule="evenodd"/><path d="M616.443 16.8346 639.12 16.8346 639.12 39.5118 616.443 39.5118Z" fill="#33783F" fill-rule="evenodd"/><path d="M639.12 16.8346 661.797 16.8346 661.797 39.5118 639.12 39.5118Z" fill="#33783F" fill-rule="evenodd"/><path d="M661.797 16.8346 684.474 16.8346 684.474 39.5118 661.797 39.5118Z" fill="#33783F" fill-rule="evenodd"/><path d="M684.474 16.8346 888.569 16.8346 888.569 39.5118 684.474 39.5118Z" fill="#FFFFFF" fill-rule="evenodd"/><path d="M435.025 39.5118 457.702 39.5118 457.702 62.189 435.025 62.189Z" fill="#33783F" fill-rule="evenodd"/><path d="M457.702 39.5118 480.38 39.5118 480.38 62.189 457.702 62.189Z" fill="#33783F" fill-rule="evenodd"/><path d="M480.38 39.5118 503.057 39.5118 503.057 62.189 480.38 62.189Z" fill="#33783F" fill-rule="evenodd"/><path d="M503.057 39.5118 525.734 39.5118 525.734 62.189 503.057 62.189Z" fill="#33783F" fill-rule="evenodd"/><path d="M525.734 39.5118 548.411 39.5118 548.411 62.189 525.734 62.189Z" fill="#33783F" fill-rule="evenodd"/><path d="M548.411 39.5118 571.088 39.5118 571.088 62.189 548.411 62.189Z" fill="#33783F" fill-rule="evenodd"/><path d="M571.088 39.5118 593.765 39.5118 593.765 62.189 571.088 62.189Z" fill="#33783F" fill-rule="evenodd"/><path d="M593.765 39.5118 616.443 39.5118 616.443 62.189 593.765 62.189Z" fill="#33783F" fill-rule="evenodd"/><path d="M616.443 39.5118 639.12 39.5118 639.12 62.189 616.443 62.189Z" fill="#33783F" fill-rule="evenodd"/><path d="M639.12 39.5118 661.797 39.5118 661.797 62.189 639.12 62.189Z" fill="#33783F" fill-rule="evenodd"/><path d="M661.797 39.5118 684.474 39.5118 684.474 62.189 661.797 62.189Z" fill="#33783F" fill-rule="evenodd"/><path d="M684.474 39.5118 707.151 39.5118 707.151 62.189 684.474 62.189Z" fill="#33783F" fill-rule="evenodd"/><path d="M707.151 39.5118 729.828 39.5118 729.828 62.189 707.151 62.189Z" fill="#33783F" fill-rule="evenodd"/><path d="M729.828 39.5118 752.506 39.5118 752.506 62.189 729.828 62.189Z" fill="#33783F" fill-rule="evenodd"/><path d="M752.506 39.5118 775.183 39.5118 775.183 62.189 752.506 62.189Z" fill="#33783F" fill-rule="evenodd"/><path d="M775.183 39.5118 797.86 39.5118 797.86 62.189 775.183 62.189Z" fill="#33783F" fill-rule="evenodd"/><path d="M797.86 39.5118 820.537 39.5118 820.537 62.189 797.86 62.189Z" fill="#33783F" fill-rule="evenodd"/><path d="M820.537 39.5118 843.214 39.5118 843.214 62.189 820.537 62.189Z" fill="#33783F" fill-rule="evenodd"/><path d="M843.214 39.5118 865.891 39.5118 865.891 62.189 843.214 62.189Z" fill="#33783F" fill-rule="evenodd"/><path d="M865.891 39.5118 888.569 39.5118 888.569 62.189 865.891 62.189Z" fill="#33783F" fill-rule="evenodd"/><path d="M435.025 62.189 457.702 62.189 457.702 84.8661 435.025 84.8661Z" fill="#33783F" fill-rule="evenodd"/><path d="M457.702 62.189 480.38 62.189 480.38 84.8661 457.702 84.8661Z" fill="#33783F" fill-rule="evenodd"/><path d="M480.38 62.189 503.057 62.189 503.057 84.8661 480.38 84.8661Z" fill="#33783F" fill-rule="evenodd"/><path d="M503.057 62.189 525.734 62.189 525.734 84.8661 503.057 84.8661Z" fill="#33783F" fill-rule="evenodd"/><path d="M525.734 62.189 548.411 62.189 548.411 84.8661 525.734 84.8661Z" fill="#33783F" fill-rule="evenodd"/><path d="M548.411 62.189 571.088 62.189 571.088 84.8661 548.411 84.8661Z" fill="#33783F" fill-rule="evenodd"/><path d="M571.088 62.189 593.765 62.189 593.765 84.8661 571.088 84.8661Z" fill="#33783F" fill-rule="evenodd"/><path d="M593.765 62.189 616.443 62.189 616.443 84.8661 593.765 84.8661Z" fill="#33783F" fill-rule="evenodd"/><path d="M616.443 62.189 639.12 62.189 639.12 84.8661 616.443 84.8661Z" fill="#33783F" fill-rule="evenodd"/><path d="M639.12 62.189 661.797 62.189 661.797 84.8661 639.12 84.8661Z" fill="#33783F" fill-rule="evenodd"/><path d="M661.797 62.189 684.474 62.189 684.474 84.8661 661.797 84.8661Z" fill="#33783F" fill-rule="evenodd"/><path d="M684.474 62.189 707.151 62.189 707.151 84.8661 684.474 84.8661Z" fill="#33783F" fill-rule="evenodd"/><path d="M707.151 62.189 729.828 62.189 729.828 84.8661 707.151 84.8661Z" fill="#33783F" fill-rule="evenodd"/><path d="M729.828 62.189 752.506 62.189 752.506 84.8661 729.828 84.8661Z" fill="#33783F" fill-rule="evenodd"/><path d="M752.506 62.189 775.183 62.189 775.183 84.8661 752.506 84.8661Z" fill="#33783F" fill-rule="evenodd"/><path d="M775.183 62.189 797.86 62.189 797.86 84.8661 775.183 84.8661Z" fill="#33783F" fill-rule="evenodd"/><path d="M797.86 62.189 820.537 62.189 820.537 84.8661 797.86 84.8661Z" fill="#33783F" fill-rule="evenodd"/><path d="M820.537 62.189 843.214 62.189 843.214 84.8661 820.537 84.8661Z" fill="#33783F" fill-rule="evenodd"/><path d="M843.214 62.189 865.891 62.189 865.891 84.8661 843.214 84.8661Z" fill="#33783F" fill-rule="evenodd"/><path d="M865.891 62.189 888.569 62.189 888.569 84.8661 865.891 84.8661Z" fill="#33783F" fill-rule="evenodd"/><path d="M435.025 84.8661 457.702 84.8661 457.702 107.543 435.025 107.543Z" fill="#33783F" fill-rule="evenodd"/><path d="M457.702 84.8661 480.38 84.8661 480.38 107.543 457.702 107.543Z" fill="#33783F" fill-rule="evenodd"/><path d="M480.38 84.8661 503.057 84.8661 503.057 107.543 480.38 107.543Z" fill="#33783F" fill-rule="evenodd"/><path d="M503.057 84.8661 525.734 84.8661 525.734 107.543 503.057 107.543Z" fill="#33783F" fill-rule="evenodd"/><path d="M525.734 84.8661 548.411 84.8661 548.411 107.543 525.734 107.543Z" fill="#33783F" fill-rule="evenodd"/><path d="M548.411 84.8661 571.088 84.8661 571.088 107.543 548.411 107.543Z" fill="#33783F" fill-rule="evenodd"/><path d="M571.088 84.8661 593.765 84.8661 593.765 107.543 571.088 107.543Z" fill="#33783F" fill-rule="evenodd"/><path d="M593.765 84.8661 616.443 84.8661 616.443 107.543 593.765 107.543Z" fill="#33783F" fill-rule="evenodd"/><path d="M616.443 84.8661 639.12 84.8661 639.12 107.543 616.443 107.543Z" fill="#33783F" fill-rule="evenodd"/><path d="M639.12 84.8661 661.797 84.8661 661.797 107.543 639.12 107.543Z" fill="#33783F" fill-rule="evenodd"/><path d="M661.797 84.8661 684.474 84.8661 684.474 107.543 661.797 107.543Z" fill="#33783F" fill-rule="evenodd"/><path d="M684.474 84.8661 707.151 84.8661 707.151 107.543 684.474 107.543Z" fill="#33783F" fill-rule="evenodd"/><path d="M707.151 84.8661 729.828 84.8661 729.828 107.543 707.151 107.543Z" fill="#33783F" fill-rule="evenodd"/><path d="M729.828 84.8661 752.506 84.8661 752.506 107.543 729.828 107.543Z" fill="#33783F" fill-rule="evenodd"/><path d="M752.506 84.8661 775.183 84.8661 775.183 107.543 752.506 107.543Z" fill="#33783F" fill-rule="evenodd"/><path d="M775.183 84.8661 797.86 84.8661 797.86 107.543 775.183 107.543Z" fill="#33783F" fill-rule="evenodd"/><path d="M797.86 84.8661 820.537 84.8661 820.537 107.543 797.86 107.543Z" fill="#33783F" fill-rule="evenodd"/><path d="M820.537 84.8661 843.214 84.8661 843.214 107.543 820.537 107.543Z" fill="#33783F" fill-rule="evenodd"/><path d="M843.214 84.8661 865.891 84.8661 865.891 107.543 843.214 107.543Z" fill="#33783F" fill-rule="evenodd"/><path d="M865.891 84.8661 888.569 84.8661 888.569 107.543 865.891 107.543Z" fill="#33783F" fill-rule="evenodd"/><path d="M435.025 107.543 457.702 107.543 457.702 130.22 435.025 130.22Z" fill="#33783F" fill-rule="evenodd"/><path d="M457.702 107.543 480.38 107.543 480.38 130.22 457.702 130.22Z" fill="#33783F" fill-rule="evenodd"/><path d="M480.38 107.543 503.057 107.543 503.057 130.22 480.38 130.22Z" fill="#33783F" fill-rule="evenodd"/><path d="M503.057 107.543 525.734 107.543 525.734 130.22 503.057 130.22Z" fill="#33783F" fill-rule="evenodd"/><path d="M525.734 107.543 548.411 107.543 548.411 130.22 525.734 130.22Z" fill="#33783F" fill-rule="evenodd"/><path d="M548.411 107.543 571.088 107.543 571.088 130.22 548.411 130.22Z" fill="#33783F" fill-rule="evenodd"/><path d="M571.088 107.543 593.765 107.543 593.765 130.22 571.088 130.22Z" fill="#33783F" fill-rule="evenodd"/><path d="M593.765 107.543 616.443 107.543 616.443 130.22 593.765 130.22Z" fill="#33783F" fill-rule="evenodd"/><path d="M616.443 107.543 639.12 107.543 639.12 130.22 616.443 130.22Z" fill="#33783F" fill-rule="evenodd"/><path d="M639.12 107.543 661.797 107.543 661.797 130.22 639.12 130.22Z" fill="#33783F" fill-rule="evenodd"/><path d="M661.797 107.543 684.474 107.543 684.474 130.22 661.797 130.22Z" fill="#33783F" fill-rule="evenodd"/><path d="M684.474 107.543 707.151 107.543 707.151 130.22 684.474 130.22Z" fill="#33783F" fill-rule="evenodd"/><path d="M707.151 107.543 729.828 107.543 729.828 130.22 707.151 130.22Z" fill="#33783F" fill-rule="evenodd"/><path d="M729.828 107.543 752.506 107.543 752.506 130.22 729.828 130.22Z" fill="#33783F" fill-rule="evenodd"/><path d="M752.506 107.543 775.183 107.543 775.183 130.22 752.506 130.22Z" fill="#33783F" fill-rule="evenodd"/><path d="M775.183 107.543 797.86 107.543 797.86 130.22 775.183 130.22Z" fill="#33783F" fill-rule="evenodd"/><path d="M797.86 107.543 820.537 107.543 820.537 130.22 797.86 130.22Z" fill="#33783F" fill-rule="evenodd"/><path d="M820.537 107.543 843.214 107.543 843.214 130.22 820.537 130.22Z" fill="#33783F" fill-rule="evenodd"/><path d="M843.214 107.543 865.891 107.543 865.891 130.22 843.214 130.22Z" fill="#33783F" fill-rule="evenodd"/><path d="M865.891 107.543 888.569 107.543 888.569 130.22 865.891 130.22Z" fill="#33783F" fill-rule="evenodd"/><path d="M435.025 130.22 457.702 130.22 457.702 152.898 435.025 152.898Z" fill="#33783F" fill-rule="evenodd"/><path d="M457.702 130.22 480.38 130.22 480.38 152.898 457.702 152.898Z" fill="#33783F" fill-rule="evenodd"/><path d="M480.38 130.22 503.057 130.22 503.057 152.898 480.38 152.898Z" fill="#33783F" fill-rule="evenodd"/><path d="M503.057 130.22 525.734 130.22 525.734 152.898 503.057 152.898Z" fill="#33783F" fill-rule="evenodd"/><path d="M525.734 130.22 548.411 130.22 548.411 152.898 525.734 152.898Z" fill="#33783F" fill-rule="evenodd"/><path d="M548.411 130.22 571.088 130.22 571.088 152.898 548.411 152.898Z" fill="#33783F" fill-rule="evenodd"/><path d="M571.088 130.22 593.765 130.22 593.765 152.898 571.088 152.898Z" fill="#33783F" fill-rule="evenodd"/><path d="M593.765 130.22 616.443 130.22 616.443 152.898 593.765 152.898Z" fill="#33783F" fill-rule="evenodd"/><path d="M616.443 130.22 639.12 130.22 639.12 152.898 616.443 152.898Z" fill="#33783F" fill-rule="evenodd"/><path d="M639.12 130.22 661.797 130.22 661.797 152.898 639.12 152.898Z" fill="#33783F" fill-rule="evenodd"/><path d="M661.797 130.22 684.474 130.22 684.474 152.898 661.797 152.898Z" fill="#33783F" fill-rule="evenodd"/><path d="M684.474 130.22 707.151 130.22 707.151 152.898 684.474 152.898Z" fill="#33783F" fill-rule="evenodd"/><path d="M707.151 130.22 729.828 130.22 729.828 152.898 707.151 152.898Z" fill="#33783F" fill-rule="evenodd"/><path d="M729.828 130.22 752.506 130.22 752.506 152.898 729.828 152.898Z" fill="#33783F" fill-rule="evenodd"/><path d="M752.506 130.22 775.183 130.22 775.183 152.898 752.506 152.898Z" fill="#33783F" fill-rule="evenodd"/><path d="M775.183 130.22 797.86 130.22 797.86 152.898 775.183 152.898Z" fill="#33783F" fill-rule="evenodd"/><path d="M797.86 130.22 820.537 130.22 820.537 152.898 797.86 152.898Z" fill="#33783F" fill-rule="evenodd"/><path d="M820.537 130.22 843.214 130.22 843.214 152.898 820.537 152.898Z" fill="#33783F" fill-rule="evenodd"/><path d="M843.214 130.22 865.891 130.22 865.891 152.898 843.214 152.898Z" fill="#33783F" fill-rule="evenodd"/><path d="M865.891 130.22 888.569 130.22 888.569 152.898 865.891 152.898Z" fill="#33783F" fill-rule="evenodd"/><path d="M435.025 152.898 457.702 152.898 457.702 175.575 435.025 175.575Z" fill="#33783F" fill-rule="evenodd"/><path d="M457.702 152.898 480.38 152.898 480.38 175.575 457.702 175.575Z" fill="#33783F" fill-rule="evenodd"/><path d="M480.38 152.898 503.057 152.898 503.057 175.575 480.38 175.575Z" fill="#33783F" fill-rule="evenodd"/><path d="M503.057 152.898 525.734 152.898 525.734 175.575 503.057 175.575Z" fill="#33783F" fill-rule="evenodd"/><path d="M525.734 152.898 548.411 152.898 548.411 175.575 525.734 175.575Z" fill="#33783F" fill-rule="evenodd"/><path d="M548.411 152.898 571.088 152.898 571.088 175.575 548.411 175.575Z" fill="#33783F" fill-rule="evenodd"/><path d="M571.088 152.898 593.765 152.898 593.765 175.575 571.088 175.575Z" fill="#33783F" fill-rule="evenodd"/><path d="M593.765 152.898 616.443 152.898 616.443 175.575 593.765 175.575Z" fill="#33783F" fill-rule="evenodd"/><path d="M616.443 152.898 639.12 152.898 639.12 175.575 616.443 175.575Z" fill="#33783F" fill-rule="evenodd"/><path d="M639.12 152.898 661.797 152.898 661.797 175.575 639.12 175.575Z" fill="#33783F" fill-rule="evenodd"/><path d="M661.797 152.898 684.474 152.898 684.474 175.575 661.797 175.575Z" fill="#33783F" fill-rule="evenodd"/><path d="M684.474 152.898 707.151 152.898 707.151 175.575 684.474 175.575Z" fill="#33783F" fill-rule="evenodd"/><path d="M707.151 152.898 729.828 152.898 729.828 175.575 707.151 175.575Z" fill="#33783F" fill-rule="evenodd"/><path d="M729.828 152.898 752.506 152.898 752.506 175.575 729.828 175.575Z" fill="#33783F" fill-rule="evenodd"/><path d="M752.506 152.898 775.183 152.898 775.183 175.575 752.506 175.575Z" fill="#33783F" fill-rule="evenodd"/><path d="M775.183 152.898 797.86 152.898 797.86 175.575 775.183 175.575Z" fill="#33783F" fill-rule="evenodd"/><path d="M797.86 152.898 820.537 152.898 820.537 175.575 797.86 175.575Z" fill="#33783F" fill-rule="evenodd"/><path d="M820.537 152.898 843.214 152.898 843.214 175.575 820.537 175.575Z" fill="#33783F" fill-rule="evenodd"/><path d="M843.214 152.898 865.891 152.898 865.891 175.575 843.214 175.575Z" fill="#33783F" fill-rule="evenodd"/><path d="M865.891 152.898 888.569 152.898 888.569 175.575 865.891 175.575Z" fill="#33783F" fill-rule="evenodd"/><path d="M435.025 175.575 457.702 175.575 457.702 198.252 435.025 198.252Z" fill="#33783F" fill-rule="evenodd"/><path d="M457.702 175.575 480.38 175.575 480.38 198.252 457.702 198.252Z" fill="#33783F" fill-rule="evenodd"/><path d="M480.38 175.575 503.057 175.575 503.057 198.252 480.38 198.252Z" fill="#33783F" fill-rule="evenodd"/><path d="M503.057 175.575 525.734 175.575 525.734 198.252 503.057 198.252Z" fill="#33783F" fill-rule="evenodd"/><path d="M525.734 175.575 548.411 175.575 548.411 198.252 525.734 198.252Z" fill="#33783F" fill-rule="evenodd"/><path d="M548.411 175.575 571.088 175.575 571.088 198.252 548.411 198.252Z" fill="#33783F" fill-rule="evenodd"/><path d="M571.088 175.575 593.765 175.575 593.765 198.252 571.088 198.252Z" fill="#33783F" fill-rule="evenodd"/><path d="M593.765 175.575 616.443 175.575 616.443 198.252 593.765 198.252Z" fill="#33783F" fill-rule="evenodd"/><path d="M616.443 175.575 639.12 175.575 639.12 198.252 616.443 198.252Z" fill="#33783F" fill-rule="evenodd"/><path d="M639.12 175.575 661.797 175.575 661.797 198.252 639.12 198.252Z" fill="#33783F" fill-rule="evenodd"/><path d="M661.797 175.575 684.474 175.575 684.474 198.252 661.797 198.252Z" fill="#33783F" fill-rule="evenodd"/><path d="M684.474 175.575 707.151 175.575 707.151 198.252 684.474 198.252Z" fill="#33783F" fill-rule="evenodd"/><path d="M707.151 175.575 729.828 175.575 729.828 198.252 707.151 198.252Z" fill="#33783F" fill-rule="evenodd"/><path d="M729.828 175.575 752.506 175.575 752.506 198.252 729.828 198.252Z" fill="#33783F" fill-rule="evenodd"/><path d="M752.506 175.575 775.183 175.575 775.183 198.252 752.506 198.252Z" fill="#33783F" fill-rule="evenodd"/><path d="M775.183 175.575 797.86 175.575 797.86 198.252 775.183 198.252Z" fill="#33783F" fill-rule="evenodd"/><path d="M797.86 175.575 820.537 175.575 820.537 198.252 797.86 198.252Z" fill="#33783F" fill-rule="evenodd"/><path d="M820.537 175.575 843.214 175.575 843.214 198.252 820.537 198.252Z" fill="#33783F" fill-rule="evenodd"/><path d="M843.214 175.575 865.891 175.575 865.891 198.252 843.214 198.252Z" fill="#33783F" fill-rule="evenodd"/><path d="M865.891 175.575 888.569 175.575 888.569 198.252 865.891 198.252Z" fill="#33783F" fill-rule="evenodd"/><path d="M435.025 198.252 457.702 198.252 457.702 220.929 435.025 220.929Z" fill="#33783F" fill-rule="evenodd"/><path d="M457.702 198.252 480.38 198.252 480.38 220.929 457.702 220.929Z" fill="#33783F" fill-rule="evenodd"/><path d="M480.38 198.252 503.057 198.252 503.057 220.929 480.38 220.929Z" fill="#33783F" fill-rule="evenodd"/><path d="M503.057 198.252 525.734 198.252 525.734 220.929 503.057 220.929Z" fill="#33783F" fill-rule="evenodd"/><path d="M525.734 198.252 548.411 198.252 548.411 220.929 525.734 220.929Z" fill="#33783F" fill-rule="evenodd"/><path d="M548.411 198.252 571.088 198.252 571.088 220.929 548.411 220.929Z" fill="#33783F" fill-rule="evenodd"/><path d="M571.088 198.252 593.765 198.252 593.765 220.929 571.088 220.929Z" fill="#33783F" fill-rule="evenodd"/><path d="M593.765 198.252 616.443 198.252 616.443 220.929 593.765 220.929Z" fill="#33783F" fill-rule="evenodd"/><path d="M616.443 198.252 639.12 198.252 639.12 220.929 616.443 220.929Z" fill="#33783F" fill-rule="evenodd"/><path d="M639.12 198.252 661.797 198.252 661.797 220.929 639.12 220.929Z" fill="#33783F" fill-rule="evenodd"/><path d="M661.797 198.252 684.474 198.252 684.474 220.929 661.797 220.929Z" fill="#33783F" fill-rule="evenodd"/><path d="M684.474 198.252 707.151 198.252 707.151 220.929 684.474 220.929Z" fill="#33783F" fill-rule="evenodd"/><path d="M707.151 198.252 729.828 198.252 729.828 220.929 707.151 220.929Z" fill="#33783F" fill-rule="evenodd"/><path d="M729.828 198.252 752.506 198.252 752.506 220.929 729.828 220.929Z" fill="#33783F" fill-rule="evenodd"/><path d="M752.506 198.252 775.183 198.252 775.183 220.929 752.506 220.929Z" fill="#33783F" fill-rule="evenodd"/><path d="M775.183 198.252 797.86 198.252 797.86 220.929 775.183 220.929Z" fill="#33783F" fill-rule="evenodd"/><path d="M797.86 198.252 820.537 198.252 820.537 220.929 797.86 220.929Z" fill="#33783F" fill-rule="evenodd"/><path d="M820.537 198.252 843.214 198.252 843.214 220.929 820.537 220.929Z" fill="#33783F" fill-rule="evenodd"/><path d="M843.214 198.252 865.891 198.252 865.891 220.929 843.214 220.929Z" fill="#33783F" fill-rule="evenodd"/><path d="M865.891 198.252 888.569 198.252 888.569 220.929 865.891 220.929Z" fill="#33783F" fill-rule="evenodd"/><path d="M435.025 220.929 457.702 220.929 457.702 243.606 435.025 243.606Z" fill="#33783F" fill-rule="evenodd"/><path d="M457.702 220.929 480.38 220.929 480.38 243.606 457.702 243.606Z" fill="#33783F" fill-rule="evenodd"/><path d="M480.38 220.929 503.057 220.929 503.057 243.606 480.38 243.606Z" fill="#33783F" fill-rule="evenodd"/><path d="M503.057 220.929 525.734 220.929 525.734 243.606 503.057 243.606Z" fill="#33783F" fill-rule="evenodd"/><path d="M525.734 220.929 548.411 220.929 548.411 243.606 525.734 243.606Z" fill="#33783F" fill-rule="evenodd"/><path d="M548.411 220.929 571.088 220.929 571.088 243.606 548.411 243.606Z" fill="#33783F" fill-rule="evenodd"/><path d="M571.088 220.929 593.765 220.929 593.765 243.606 571.088 243.606Z" fill="#33783F" fill-rule="evenodd"/><path d="M593.765 220.929 616.443 220.929 616.443 243.606 593.765 243.606Z" fill="#33783F" fill-rule="evenodd"/><path d="M616.443 220.929 639.12 220.929 639.12 243.606 616.443 243.606Z" fill="#33783F" fill-rule="evenodd"/><path d="M639.12 220.929 661.797 220.929 661.797 243.606 639.12 243.606Z" fill="#33783F" fill-rule="evenodd"/><path d="M661.797 220.929 684.474 220.929 684.474 243.606 661.797 243.606Z" fill="#33783F" fill-rule="evenodd"/><path d="M684.474 220.929 707.151 220.929 707.151 243.606 684.474 243.606Z" fill="#33783F" fill-rule="evenodd"/><path d="M707.151 220.929 729.828 220.929 729.828 243.606 707.151 243.606Z" fill="#33783F" fill-rule="evenodd"/><path d="M729.828 220.929 752.506 220.929 752.506 243.606 729.828 243.606Z" fill="#33783F" fill-rule="evenodd"/><path d="M752.506 220.929 775.183 220.929 775.183 243.606 752.506 243.606Z" fill="#33783F" fill-rule="evenodd"/><path d="M775.183 220.929 797.86 220.929 797.86 243.606 775.183 243.606Z" fill="#33783F" fill-rule="evenodd"/><path d="M797.86 220.929 820.537 220.929 820.537 243.606 797.86 243.606Z" fill="#33783F" fill-rule="evenodd"/><path d="M820.537 220.929 843.214 220.929 843.214 243.606 820.537 243.606Z" fill="#33783F" fill-rule="evenodd"/><path d="M843.214 220.929 865.891 220.929 865.891 243.606 843.214 243.606Z" fill="#33783F" fill-rule="evenodd"/><path d="M865.891 220.929 888.569 220.929 888.569 243.606 865.891 243.606Z" fill="#33783F" fill-rule="evenodd"/><path d="M435.025 243.606 457.702 243.606 457.702 266.283 435.025 266.283Z" fill="#33783F" fill-rule="evenodd"/><path d="M457.702 243.606 480.38 243.606 480.38 266.283 457.702 266.283Z" fill="#33783F" fill-rule="evenodd"/><path d="M480.38 243.606 503.057 243.606 503.057 266.283 480.38 266.283Z" fill="#33783F" fill-rule="evenodd"/><path d="M503.057 243.606 525.734 243.606 525.734 266.283 503.057 266.283Z" fill="#33783F" fill-rule="evenodd"/><path d="M525.734 243.606 548.411 243.606 548.411 266.283 525.734 266.283Z" fill="#33783F" fill-rule="evenodd"/><path d="M548.411 243.606 571.088 243.606 571.088 266.283 548.411 266.283Z" fill="#33783F" fill-rule="evenodd"/><path d="M571.088 243.606 593.765 243.606 593.765 266.283 571.088 266.283Z" fill="#33783F" fill-rule="evenodd"/><path d="M593.765 243.606 616.443 243.606 616.443 266.283 593.765 266.283Z" fill="#33783F" fill-rule="evenodd"/><path d="M616.443 243.606 639.12 243.606 639.12 266.283 616.443 266.283Z" fill="#33783F" fill-rule="evenodd"/><path d="M639.12 243.606 661.797 243.606 661.797 266.283 639.12 266.283Z" fill="#33783F" fill-rule="evenodd"/><path d="M661.797 243.606 684.474 243.606 684.474 266.283 661.797 266.283Z" fill="#33783F" fill-rule="evenodd"/><path d="M684.474 243.606 707.151 243.606 707.151 266.283 684.474 266.283Z" fill="#33783F" fill-rule="evenodd"/><path d="M707.151 243.606 729.828 243.606 729.828 266.283 707.151 266.283Z" fill="#33783F" fill-rule="evenodd"/><path d="M729.828 243.606 752.506 243.606 752.506 266.283 729.828 266.283Z" fill="#33783F" fill-rule="evenodd"/><path d="M752.506 243.606 775.183 243.606 775.183 266.283 752.506 266.283Z" fill="#33783F" fill-rule="evenodd"/><path d="M775.183 243.606 797.86 243.606 797.86 266.283 775.183 266.283Z" fill="#33783F" fill-rule="evenodd"/><path d="M797.86 243.606 820.537 243.606 820.537 266.283 797.86 266.283Z" fill="#33783F" fill-rule="evenodd"/><path d="M820.537 243.606 843.214 243.606 843.214 266.283 820.537 266.283Z" fill="#33783F" fill-rule="evenodd"/><path d="M843.214 243.606 865.891 243.606 865.891 266.283 843.214 266.283Z" fill="#33783F" fill-rule="evenodd"/><path d="M865.891 243.606 888.569 243.606 888.569 266.283 865.891 266.283Z" fill="#33783F" fill-rule="evenodd"/><path d="M435.025 266.283 457.702 266.283 457.702 288.961 435.025 288.961Z" fill="#33783F" fill-rule="evenodd"/><path d="M457.702 266.283 480.38 266.283 480.38 288.961 457.702 288.961Z" fill="#33783F" fill-rule="evenodd"/><path d="M480.38 266.283 503.057 266.283 503.057 288.961 480.38 288.961Z" fill="#33783F" fill-rule="evenodd"/><path d="M503.057 266.283 525.734 266.283 525.734 288.961 503.057 288.961Z" fill="#33783F" fill-rule="evenodd"/><path d="M525.734 266.283 548.411 266.283 548.411 288.961 525.734 288.961Z" fill="#33783F" fill-rule="evenodd"/><path d="M548.411 266.283 571.088 266.283 571.088 288.961 548.411 288.961Z" fill="#33783F" fill-rule="evenodd"/><path d="M571.088 266.283 593.765 266.283 593.765 288.961 571.088 288.961Z" fill="#33783F" fill-rule="evenodd"/><path d="M593.765 266.283 616.443 266.283 616.443 288.961 593.765 288.961Z" fill="#33783F" fill-rule="evenodd"/><path d="M616.443 266.283 639.12 266.283 639.12 288.961 616.443 288.961Z" fill="#33783F" fill-rule="evenodd"/><path d="M639.12 266.283 661.797 266.283 661.797 288.961 639.12 288.961Z" fill="#33783F" fill-rule="evenodd"/><path d="M661.797 266.283 684.474 266.283 684.474 288.961 661.797 288.961Z" fill="#33783F" fill-rule="evenodd"/><path d="M684.474 266.283 707.151 266.283 707.151 288.961 684.474 288.961Z" fill="#33783F" fill-rule="evenodd"/><path d="M707.151 266.283 729.828 266.283 729.828 288.961 707.151 288.961Z" fill="#33783F" fill-rule="evenodd"/><path d="M729.828 266.283 752.506 266.283 752.506 288.961 729.828 288.961Z" fill="#33783F" fill-rule="evenodd"/><path d="M752.506 266.283 775.183 266.283 775.183 288.961 752.506 288.961Z" fill="#33783F" fill-rule="evenodd"/><path d="M775.183 266.283 797.86 266.283 797.86 288.961 775.183 288.961Z" fill="#33783F" fill-rule="evenodd"/><path d="M797.86 266.283 820.537 266.283 820.537 288.961 797.86 288.961Z" fill="#33783F" fill-rule="evenodd"/><path d="M820.537 266.283 843.214 266.283 843.214 288.961 820.537 288.961Z" fill="#33783F" fill-rule="evenodd"/><path d="M843.214 266.283 865.891 266.283 865.891 288.961 843.214 288.961Z" fill="#33783F" fill-rule="evenodd"/><path d="M865.891 266.283 888.569 266.283 888.569 288.961 865.891 288.961Z" fill="#33783F" fill-rule="evenodd"/><path d="M435.025 288.961 457.702 288.961 457.702 311.638 435.025 311.638Z" fill="#33783F" fill-rule="evenodd"/><path d="M457.702 288.961 480.38 288.961 480.38 311.638 457.702 311.638Z" fill="#33783F" fill-rule="evenodd"/><path d="M480.38 288.961 503.057 288.961 503.057 311.638 480.38 311.638Z" fill="#33783F" fill-rule="evenodd"/><path d="M503.057 288.961 525.734 288.961 525.734 311.638 503.057 311.638Z" fill="#33783F" fill-rule="evenodd"/><path d="M525.734 288.961 548.411 288.961 548.411 311.638 525.734 311.638Z" fill="#33783F" fill-rule="evenodd"/><path d="M548.411 288.961 571.088 288.961 571.088 311.638 548.411 311.638Z" fill="#33783F" fill-rule="evenodd"/><path d="M571.088 288.961 593.765 288.961 593.765 311.638 571.088 311.638Z" fill="#33783F" fill-rule="evenodd"/><path d="M593.765 288.961 616.443 288.961 616.443 311.638 593.765 311.638Z" fill="#33783F" fill-rule="evenodd"/><path d="M616.443 288.961 639.12 288.961 639.12 311.638 616.443 311.638Z" fill="#33783F" fill-rule="evenodd"/><path d="M639.12 288.961 661.797 288.961 661.797 311.638 639.12 311.638Z" fill="#33783F" fill-rule="evenodd"/><path d="M661.797 288.961 684.474 288.961 684.474 311.638 661.797 311.638Z" fill="#33783F" fill-rule="evenodd"/><path d="M684.474 288.961 707.151 288.961 707.151 311.638 684.474 311.638Z" fill="#33783F" fill-rule="evenodd"/><path d="M707.151 288.961 729.828 288.961 729.828 311.638 707.151 311.638Z" fill="#33783F" fill-rule="evenodd"/><path d="M729.828 288.961 752.506 288.961 752.506 311.638 729.828 311.638Z" fill="#33783F" fill-rule="evenodd"/><path d="M752.506 288.961 775.183 288.961 775.183 311.638 752.506 311.638Z" fill="#33783F" fill-rule="evenodd"/><path d="M775.183 288.961 797.86 288.961 797.86 311.638 775.183 311.638Z" fill="#33783F" fill-rule="evenodd"/><path d="M797.86 288.961 820.537 288.961 820.537 311.638 797.86 311.638Z" fill="#33783F" fill-rule="evenodd"/><path d="M820.537 288.961 843.214 288.961 843.214 311.638 820.537 311.638Z" fill="#33783F" fill-rule="evenodd"/><path d="M843.214 288.961 865.891 288.961 865.891 311.638 843.214 311.638Z" fill="#33783F" fill-rule="evenodd"/><path d="M865.891 288.961 888.569 288.961 888.569 311.638 865.891 311.638Z" fill="#33783F" fill-rule="evenodd"/><path d="M457.702 16.168 457.702 312.304" stroke="#000000" stroke-width="1.33333" stroke-linejoin="round" stroke-miterlimit="10" fill="none" fill-rule="evenodd"/><path d="M480.38 16.168 480.38 312.304" stroke="#000000" stroke-width="1.33333" stroke-linejoin="round" stroke-miterlimit="10" fill="none" fill-rule="evenodd"/><path d="M503.057 16.168 503.057 312.304" stroke="#000000" stroke-width="1.33333" stroke-linejoin="round" stroke-miterlimit="10" fill="none" fill-rule="evenodd"/><path d="M525.734 16.168 525.734 312.304" stroke="#000000" stroke-width="1.33333" stroke-linejoin="round" stroke-miterlimit="10" fill="none" fill-rule="evenodd"/><path d="M548.411 16.168 548.411 312.304" stroke="#000000" stroke-width="1.33333" stroke-linejoin="round" stroke-miterlimit="10" fill="none" fill-rule="evenodd"/><path d="M571.088 16.168 571.088 312.304" stroke="#000000" stroke-width="1.33333" stroke-linejoin="round" stroke-miterlimit="10" fill="none" fill-rule="evenodd"/><path d="M593.765 16.168 593.765 312.304" stroke="#000000" stroke-width="1.33333" stroke-linejoin="round" stroke-miterlimit="10" fill="none" fill-rule="evenodd"/><path d="M616.443 16.168 616.443 312.304" stroke="#000000" stroke-width="1.33333" stroke-linejoin="round" stroke-miterlimit="10" fill="none" fill-rule="evenodd"/><path d="M639.12 16.168 639.12 312.304" stroke="#000000" stroke-width="1.33333" stroke-linejoin="round" stroke-miterlimit="10" fill="none" fill-rule="evenodd"/><path d="M661.797 16.168 661.797 312.304" stroke="#000000" stroke-width="1.33333" stroke-linejoin="round" stroke-miterlimit="10" fill="none" fill-rule="evenodd"/><path d="M684.474 16.168 684.474 312.304" stroke="#000000" stroke-width="1.33333" stroke-linejoin="round" stroke-miterlimit="10" fill="none" fill-rule="evenodd"/><path d="M707.151 38.8451 707.151 312.304" stroke="#000000" stroke-width="1.33333" stroke-linejoin="round" stroke-miterlimit="10" fill="none" fill-rule="evenodd"/><path d="M729.828 38.8451 729.828 312.304" stroke="#000000" stroke-width="1.33333" stroke-linejoin="round" stroke-miterlimit="10" fill="none" fill-rule="evenodd"/><path d="M752.506 38.8451 752.506 312.304" stroke="#000000" stroke-width="1.33333" stroke-linejoin="round" stroke-miterlimit="10" fill="none" fill-rule="evenodd"/><path d="M775.183 38.8451 775.183 312.304" stroke="#000000" stroke-width="1.33333" stroke-linejoin="round" stroke-miterlimit="10" fill="none" fill-rule="evenodd"/><path d="M797.86 38.8451 797.86 312.304" stroke="#000000" stroke-width="1.33333" stroke-linejoin="round" stroke-miterlimit="10" fill="none" fill-rule="evenodd"/><path d="M820.537 38.8451 820.537 312.304" stroke="#000000" stroke-width="1.33333" stroke-linejoin="round" stroke-miterlimit="10" fill="none" fill-rule="evenodd"/><path d="M843.214 38.8451 843.214 312.304" stroke="#000000" stroke-width="1.33333" stroke-linejoin="round" stroke-miterlimit="10" fill="none" fill-rule="evenodd"/><path d="M865.891 38.8451 865.891 312.304" stroke="#000000" stroke-width="1.33333" stroke-linejoin="round" stroke-miterlimit="10" fill="none" fill-rule="evenodd"/><path d="M434.359 39.5118 889.235 39.5118" stroke="#000000" stroke-width="1.33333" stroke-linejoin="round" stroke-miterlimit="10" fill="none" fill-rule="evenodd"/><path d="M434.359 62.189 889.235 62.189" stroke="#000000" stroke-width="1.33333" stroke-linejoin="round" stroke-miterlimit="10" fill="none" fill-rule="evenodd"/><path d="M434.359 84.8661 889.235 84.8661" stroke="#000000" stroke-width="1.33333" stroke-linejoin="round" stroke-miterlimit="10" fill="none" fill-rule="evenodd"/><path d="M434.359 107.543 889.235 107.543" stroke="#000000" stroke-width="1.33333" stroke-linejoin="round" stroke-miterlimit="10" fill="none" fill-rule="evenodd"/><path d="M434.359 130.22 889.235 130.22" stroke="#000000" stroke-width="1.33333" stroke-linejoin="round" stroke-miterlimit="10" fill="none" fill-rule="evenodd"/><path d="M434.359 152.898 889.235 152.898" stroke="#000000" stroke-width="1.33333" stroke-linejoin="round" stroke-miterlimit="10" fill="none" fill-rule="evenodd"/><path d="M434.359 175.575 889.235 175.575" stroke="#000000" stroke-width="1.33333" stroke-linejoin="round" stroke-miterlimit="10" fill="none" fill-rule="evenodd"/><path d="M434.359 198.252 889.235 198.252" stroke="#000000" stroke-width="1.33333" stroke-linejoin="round" stroke-miterlimit="10" fill="none" fill-rule="evenodd"/><path d="M434.359 220.929 889.235 220.929" stroke="#000000" stroke-width="1.33333" stroke-linejoin="round" stroke-miterlimit="10" fill="none" fill-rule="evenodd"/><path d="M434.359 243.606 889.235 243.606" stroke="#000000" stroke-width="1.33333" stroke-linejoin="round" stroke-miterlimit="10" fill="none" fill-rule="evenodd"/><path d="M434.359 266.283 889.235 266.283" stroke="#000000" stroke-width="1.33333" stroke-linejoin="round" stroke-miterlimit="10" fill="none" fill-rule="evenodd"/><path d="M434.359 288.961 889.235 288.961" stroke="#000000" stroke-width="1.33333" stroke-linejoin="round" stroke-miterlimit="10" fill="none" fill-rule="evenodd"/><path d="M435.025 16.168 435.025 312.304" stroke="#000000" stroke-width="1.33333" stroke-linejoin="round" stroke-miterlimit="10" fill="none" fill-rule="evenodd"/><path d="M888.569 38.8451 888.569 312.304" stroke="#000000" stroke-width="1.33333" stroke-linejoin="round" stroke-miterlimit="10" fill="none" fill-rule="evenodd"/><path d="M434.359 16.8346 685.141 16.8346" stroke="#000000" stroke-width="1.33333" stroke-linejoin="round" stroke-miterlimit="10" fill="none" fill-rule="evenodd"/><path d="M434.359 311.638 889.235 311.638" stroke="#000000" stroke-width="1.33333" stroke-linejoin="round" stroke-miterlimit="10" fill="none" fill-rule="evenodd"/></g></svg>