<svg width="2286" height="1627" xmlns="http://www.w3.org/2000/svg" xmlns:xlink="http://www.w3.org/1999/xlink" overflow="hidden"><defs><clipPath id="clip0"><rect x="1548" y="429" width="2286" height="1627"/></clipPath><clipPath id="clip1"><rect x="3547" y="521" width="234" height="234"/></clipPath><clipPath id="clip2"><rect x="3547" y="521" width="234" height="234"/></clipPath><clipPath id="clip3"><rect x="3547" y="521" width="234" height="234"/></clipPath><clipPath id="clip4"><rect x="1918" y="521" width="234" height="234"/></clipPath><clipPath id="clip5"><rect x="1918" y="521" width="234" height="234"/></clipPath><clipPath id="clip6"><rect x="1918" y="521" width="234" height="234"/></clipPath><clipPath id="clip7"><rect x="1918" y="918" width="234" height="233"/></clipPath><clipPath id="clip8"><rect x="1918" y="918" width="234" height="233"/></clipPath><clipPath id="clip9"><rect x="1918" y="918" width="234" height="233"/></clipPath><clipPath id="clip10"><rect x="3547" y="918" width="235" height="234"/></clipPath><clipPath id="clip11"><rect x="3547" y="918" width="235" height="234"/></clipPath><clipPath id="clip12"><rect x="3547" y="918" width="235" height="234"/></clipPath><clipPath id="clip13"><rect x="1918" y="1313" width="234" height="234"/></clipPath><clipPath id="clip14"><rect x="1918" y="1313" width="234" height="234"/></clipPath><clipPath id="clip15"><rect x="1918" y="1313" width="234" height="234"/></clipPath><clipPath id="clip16"><rect x="3550" y="1313" width="234" height="234"/></clipPath><clipPath id="clip17"><rect x="3550" y="1313" width="234" height="234"/></clipPath><clipPath id="clip18"><rect x="3550" y="1313" width="234" height="234"/></clipPath><clipPath id="clip19"><rect x="3547" y="1710" width="234" height="234"/></clipPath><clipPath id="clip20"><rect x="3547" y="1710" width="234" height="234"/></clipPath><clipPath id="clip21"><rect x="3547" y="1710" width="234" height="234"/></clipPath><clipPath id="clip22"><rect x="1918" y="1710" width="234" height="235"/></clipPath><clipPath id="clip23"><rect x="1918" y="1710" width="234" height="235"/></clipPath><clipPath id="clip24"><rect x="1918" y="1710" width="234" height="235"/></clipPath></defs><g clip-path="url(#clip0)" transform="translate(-1548 -429)"><rect x="3316" y="573" width="183" height="194" fill="#00897B"/><path d="M1870 560.001C1870 529.625 1894.62 505 1925 505L2145 505C2175.38 505 2200 529.625 2200 560.001L2200 779.999C2200 810.375 2175.38 835 2145 835L1925 835C1894.62 835 1870 810.375 1870 779.999Z" stroke="#000000" stroke-width="10.3125" stroke-miterlimit="8" fill="#F44336" fill-rule="evenodd"/><path d="M1870.5 767.5 2200.5 767.5 2200.5 780.14C2200.5 810.715 2175.88 835.5 2145.5 835.5L1925.5 835.5C1895.12 835.5 1870.5 810.715 1870.5 780.14Z" stroke="#000000" stroke-width="4.58333" stroke-miterlimit="8" fill-rule="evenodd"/><text fill="#FFFFFF" font-family="Roboto,Roboto_MSFontService,sans-serif" font-weight="400" font-size="50" transform="matrix(1 0 0 1 1937.32 819)">ÉGALITÉ</text><rect x="2200" y="573" width="1116" height="194" fill="#F44336"/><rect x="2200" y="573" width="1299" height="194" stroke="#000000" stroke-width="10.3125" stroke-miterlimit="8" fill="none"/><path d="M3499 564.001C3499 533.625 3523.62 509 3554 509L3774 509C3804.38 509 3829 533.625 3829 564.001L3829 783.999C3829 814.375 3804.38 839 3774 839L3554 839C3523.62 839 3499 814.375 3499 783.999Z" stroke="#000000" stroke-width="10.3125" stroke-miterlimit="8" fill="#00897B" fill-rule="evenodd"/><path d="M3499.5 771.5 3829.5 771.5 3829.5 784.14C3829.5 814.714 3804.88 839.5 3774.5 839.5L3554.5 839.5C3524.12 839.5 3499.5 814.714 3499.5 784.14Z" stroke="#000000" stroke-width="4.58333" stroke-miterlimit="8" fill-rule="evenodd"/><text fill="#FFFFFF" font-family="Roboto,Roboto_MSFontService,sans-serif" font-weight="400" font-size="50" transform="matrix(1 0 0 1 3546.76 823)">MARCHÉS<tspan fill="#000000" font-size="83" x="-1081.3" y="-291">É</tspan><tspan fill="#000000" font-size="66" x="-1034.32" y="-291">CONOMIE</tspan><tspan fill="#000000" font-size="83" x="-720.362" y="-291">: S</tspan><tspan fill="#000000" font-size="66" x="-630.987" y="-291">OCIALISTE</tspan></text><rect x="2503" y="966" width="996" height="195" fill="#03A9F4"/><path d="M1870 954.001C1870 923.625 1894.62 899 1925 899L2145 899C2175.38 899 2200 923.625 2200 954.001L2200 1174C2200 1204.38 2175.38 1229 2145 1229L1925 1229C1894.62 1229 1870 1204.38 1870 1174Z" stroke="#000000" stroke-width="10.3125" stroke-miterlimit="8" fill="#FF9800" fill-rule="evenodd"/><path d="M1870.5 1161.5 2200.5 1161.5 2200.5 1174.14C2200.5 1204.71 2175.88 1229.5 2145.5 1229.5L1925.5 1229.5C1895.12 1229.5 1870.5 1204.71 1870.5 1174.14Z" stroke="#000000" stroke-width="4.58333" stroke-miterlimit="8" fill-rule="evenodd"/><text fill="#FFFFFF" font-family="Roboto,Roboto_MSFontService,sans-serif" font-weight="400" font-size="50" transform="matrix(1 0 0 1 1943.05 1213)">NATION</text><rect x="2200" y="966" width="303" height="195" fill="#FF9800"/><rect x="2200" y="966" width="1299" height="195" stroke="#000000" stroke-width="10.3125" stroke-miterlimit="8" fill="none"/><path d="M3499 958.001C3499 927.625 3523.62 903 3554 903L3774 903C3804.38 903 3829 927.625 3829 958.001L3829 1178C3829 1208.38 3804.38 1233 3774 1233L3554 1233C3523.62 1233 3499 1208.38 3499 1178Z" stroke="#000000" stroke-width="10.3125" stroke-miterlimit="8" fill="#03A9F4" fill-rule="evenodd"/><path d="M3499.5 1165.5 3829.5 1165.5 3829.5 1178.14C3829.5 1208.71 3804.88 1233.5 3774.5 1233.5L3554.5 1233.5C3524.12 1233.5 3499.5 1208.71 3499.5 1178.14Z" stroke="#000000" stroke-width="4.58333" stroke-miterlimit="8" fill-rule="evenodd"/><text fill="#FFFFFF" font-family="Roboto,Roboto_MSFontService,sans-serif" font-weight="400" font-size="50" transform="matrix(1 0 0 1 3575.7 1217)">MONDE<tspan fill="#000000" font-size="83" x="-1271.96" y="-287">D</tspan><tspan fill="#000000" font-size="66" x="-1218.1" y="-287">IPLOMATIE</tspan><tspan fill="#000000" font-size="83" x="-861.75" y="-287">: I</tspan><tspan fill="#000000" font-size="66" x="-798.729" y="-287">NTERNATIONALISTE</tspan></text><rect x="3094" y="1364" width="405" height="195" fill="#3F51B5"/><path d="M1870 1351C1870 1320.62 1894.62 1296 1925 1296L2145 1296C2175.38 1296 2200 1320.62 2200 1351L2200 1571C2200 1601.38 2175.38 1626 2145 1626L1925 1626C1894.62 1626 1870 1601.38 1870 1571Z" stroke="#000000" stroke-width="10.3125" stroke-miterlimit="8" fill="#FFEB3B" fill-rule="evenodd"/><path d="M1870.5 1559.5 2200.5 1559.5 2200.5 1571.95C2200.5 1602.08 2175.88 1626.5 2145.5 1626.5L1925.5 1626.5C1895.12 1626.5 1870.5 1602.08 1870.5 1571.95Z" stroke="#000000" stroke-width="4.58333" stroke-miterlimit="8" fill-rule="evenodd"/><text fill="#FFFFFF" font-family="Roboto,Roboto_MSFontService,sans-serif" font-weight="400" font-size="50" transform="matrix(1 0 0 1 1939.61 1610)">LIBERTÉ</text><rect x="2200" y="1364" width="894" height="195" fill="#FFEB3B"/><rect x="2200" y="1364" width="1299" height="195" stroke="#000000" stroke-width="10.3125" stroke-miterlimit="8" fill="none"/><path d="M3499 1355C3499 1324.63 3523.62 1300 3554 1300L3774 1300C3804.38 1300 3829 1324.63 3829 1355L3829 1575C3829 1605.38 3804.38 1630 3774 1630L3554 1630C3523.62 1630 3499 1605.38 3499 1575Z" stroke="#000000" stroke-width="10.3125" stroke-miterlimit="8" fill="#3F51B5" fill-rule="evenodd"/><path d="M3499.5 1563.5 3829.5 1563.5 3829.5 1575.95C3829.5 1606.08 3804.88 1630.5 3774.5 1630.5L3554.5 1630.5C3524.12 1630.5 3499.5 1606.08 3499.5 1575.95Z" stroke="#000000" stroke-width="4.58333" stroke-miterlimit="8" fill-rule="evenodd"/><text fill="#FFFFFF" font-family="Roboto,Roboto_MSFontService,sans-serif" font-weight="400" font-size="50" transform="matrix(1 0 0 1 3547.05 1614)">AUTORITÉ<tspan fill="#000000" font-size="83" x="-1131.56" y="-288">L</tspan><tspan fill="#000000" font-size="66" x="-1087.45" y="-288">IBERTÉS</tspan><tspan fill="#000000" font-size="66" x="-814.169" y="-288">CIVILES</tspan><tspan fill="#000000" font-size="83" x="-561.513" y="-288">: L</tspan><tspan fill="#000000" font-size="66" x="-476.721" y="-288">IBÉRAL</tspan></text><rect x="2377" y="1762" width="1122" height="194" fill="#9C27B0"/><path d="M1870 1749C1870 1718.62 1894.62 1694 1925 1694L2145 1694C2175.38 1694 2200 1718.62 2200 1749L2200 1969C2200 1999.38 2175.38 2024 2145 2024L1925 2024C1894.62 2024 1870 1999.38 1870 1969Z" stroke="#000000" stroke-width="10.3125" stroke-miterlimit="8" fill="#8BC34A" fill-rule="evenodd"/><path d="M1870.5 1956.5 2200.5 1956.5 2200.5 1969.14C2200.5 1999.71 2175.88 2024.5 2145.5 2024.5L1925.5 2024.5C1895.12 2024.5 1870.5 1999.71 1870.5 1969.14Z" stroke="#000000" stroke-width="4.58333" stroke-miterlimit="8" fill-rule="evenodd"/><text fill="#FFFFFF" font-family="Roboto,Roboto_MSFontService,sans-serif" font-weight="400" font-size="50" transform="matrix(1 0 0 1 1906.95 2008)">TRADITION</text><rect x="2200" y="1762" width="177" height="194" fill="#8BC34A"/><rect x="2200" y="1762" width="1299" height="194" stroke="#000000" stroke-width="10.3125" stroke-miterlimit="8" fill="none"/><path d="M3499 1753C3499 1722.63 3523.62 1698 3554 1698L3774 1698C3804.38 1698 3829 1722.63 3829 1753L3829 1973C3829 2003.38 3804.38 2028 3774 2028L3554 2028C3523.62 2028 3499 2003.38 3499 1973Z" stroke="#000000" stroke-width="10.3125" stroke-miterlimit="8" fill="#9C27B0" fill-rule="evenodd"/><path d="M3499.5 1960.5 3829.5 1960.5 3829.5 1973.14C3829.5 2003.71 3804.88 2028.5 3774.5 2028.5L3554.5 2028.5C3524.12 2028.5 3499.5 2003.71 3499.5 1973.14Z" stroke="#000000" stroke-width="4.58333" stroke-miterlimit="8" fill-rule="evenodd"/><text fill="#FFFFFF" font-family="Roboto,Roboto_MSFontService,sans-serif" font-weight="400" font-size="50" transform="matrix(1 0 0 1 3553.35 2012)">PROGRÈS<tspan fill="#000000" font-size="83" x="-1217.79" y="-290">S</tspan><tspan fill="#000000" font-size="66" x="-1169.09" y="-290">OCIÉTAL</tspan><tspan fill="#000000" font-size="83" x="-887.217" y="-290">: T</tspan><tspan fill="#000000" font-size="66" x="-797.269" y="-290">RÈS</tspan><tspan fill="#000000" font-size="83" x="-659.769" y="-290">P</tspan><tspan fill="#000000" font-size="66" x="-607.633" y="-290">ROGRESSISTE</tspan><tspan fill="#000000" font-size="73" x="-1320.35" y="-1317">85,9%</tspan><tspan fill="#000000" font-size="73" x="-1320.35" y="-920">23,3%</tspan><tspan fill="#000000" font-size="73" x="-1317.6" y="-523">68,8%</tspan><tspan fill="#000000" font-size="73" x="-1357.48" y="-127">13,6%</tspan><tspan fill="#000000" font-size="73" x="-240.551" y="-1313">24,4%</tspan><tspan fill="#000000" font-size="73" x="-279.312" y="-920">76,7%</tspan><tspan fill="#000000" font-size="73" x="-279.191" y="-523">31,2%</tspan><tspan fill="#000000" font-size="73" x="-278.361" y="-125">86,4%</tspan></text><g clip-path="url(#clip1)"><g clip-path="url(#clip2)"><g clip-path="url(#clip3)"><path d="M3631.09 689.187 3645.72 689.187 3645.72 744.031 3631.09 744.031Z"/><path d="M3653.03 744.031 3667.66 744.031 3667.66 667.25 3653.03 686.749Z"/><path d="M3674.97 659.938 3689.59 659.938 3689.59 744.031 3674.97 744.031Z"/><path d="M3579.91 744.031 3579.91 720.335 3559.17 744.031Z"/><path d="M3587.22 744.031 3601.84 744.031 3601.84 695.264 3587.22 711.977Z"/><path d="M3609.16 689.187 3623.78 689.187 3623.78 744.031 3609.16 744.031Z"/><path d="M3696.91 659.938 3696.91 744.031 3711.53 744.031 3711.53 654.139 3705.73 659.938Z"/><path d="M3722.5 546.594C3704.35 546.594 3689.59 561.354 3689.59 579.5 3689.59 597.646 3704.35 612.406 3722.5 612.406 3740.65 612.406 3755.41 597.646 3755.41 579.5 3755.41 561.354 3740.65 546.594 3722.5 546.594ZM3737.13 572.188 3729.81 572.188 3729.81 568.531 3718.84 568.531C3716.83 568.531 3715.19 570.169 3715.19 572.188 3715.19 574.206 3716.83 575.844 3718.84 575.844L3726.16 575.844C3732.2 575.844 3737.13 580.765 3737.13 586.813 3737.13 592.86 3732.2 597.781 3726.16 597.781L3726.16 605.094 3718.84 605.094 3718.84 597.781 3707.88 597.781 3707.88 586.813 3715.19 586.813 3715.19 590.469 3726.16 590.469C3728.17 590.469 3729.81 588.831 3729.81 586.813 3729.81 584.794 3728.17 583.156 3726.16 583.156L3718.84 583.156C3712.8 583.156 3707.88 578.235 3707.88 572.188 3707.88 566.14 3712.8 561.219 3718.84 561.219L3718.84 553.906 3726.16 553.906 3726.16 561.219 3737.13 561.219Z"/><path d="M3718.84 646.826 3718.84 744.031 3733.47 744.031 3733.47 633.24C3733.07 633.32 3732.65 633.353 3732.24 633.426Z"/><path d="M3722.5 531.969C3696.29 531.969 3674.97 553.292 3674.97 579.5 3674.97 605.708 3696.29 627.031 3722.5 627.031 3748.71 627.031 3770.03 605.708 3770.03 579.5 3770.03 553.292 3748.71 531.969 3722.5 531.969ZM3722.5 619.719C3700.32 619.719 3682.28 601.675 3682.28 579.5 3682.28 557.325 3700.32 539.281 3722.5 539.281 3744.68 539.281 3762.72 557.325 3762.72 579.5 3762.72 601.675 3744.68 619.719 3722.5 619.719Z"/><path d="M3740.78 744.031 3755.41 744.031 3755.41 623.273C3751 626.596 3746.08 629.265 3740.78 631.145Z"/><path d="M3572.59 659.938 3579.91 659.938 3579.91 645.313 3587.22 645.313 3587.22 601.438 3579.91 601.438 3579.91 586.813 3572.59 586.813 3572.59 601.438 3565.28 601.438 3565.28 645.313 3572.59 645.313Z"/><path d="M3601.84 641.656 3609.16 641.656 3609.16 627.031 3616.47 627.031 3616.47 590.469 3609.16 590.469 3609.16 575.844 3601.84 575.844 3601.84 590.469 3594.53 590.469 3594.53 627.031 3601.84 627.031Z"/><path d="M3631.09 616.063 3638.41 616.063 3638.41 601.438 3645.72 601.438 3645.72 572.188 3638.41 572.188 3638.41 557.563 3631.09 557.563 3631.09 572.188 3623.78 572.188 3623.78 601.438 3631.09 601.438Z"/><path d="M3710.7 633.035C3707.97 632.435 3705.33 631.613 3702.77 630.622L3695.39 638 3666 638 3640.4 667.25 3596.59 667.25 3551.63 715.955 3557 720.916 3599.79 674.562 3643.72 674.562 3669.32 645.313 3698.42 645.313Z"/></g></g></g><g clip-path="url(#clip4)"><g clip-path="url(#clip5)"><g clip-path="url(#clip6)"><path d="M1966.45 699.699C1993.35 699.699 2014.43 684.643 2014.43 665.422L2014.43 658.566 1999.04 658.566 1978.21 585.659C1985.79 584.302 1991.94 582.804 1997.55 581.422 2007.02 579.093 2015.66 577.125 2028.14 576.552L2028.14 717.054 1971.21 755 2098.77 755 2041.86 717.054 2041.86 576.552C2054.34 577.125 2062.98 579.093 2072.45 581.422 2078.06 582.804 2084.21 584.302 2091.79 585.659L2070.96 658.566 2055.57 658.566 2055.57 665.422C2055.57 684.643 2076.65 699.699 2103.55 699.699 2130.46 699.699 2152 684.643 2152 665.422L2152 658.566 2136.15 658.566 2116.18 588.695C2125.95 589.487 2137.82 590.012 2152 590.012L2152 576.301C2110.88 576.301 2093.28 563.641 2078.16 552.474 2067.58 544.656 2057.51 536.777 2041.86 535.08L2041.86 521 2028.14 521 2028.14 535.08C2012.49 536.777 2002.42 544.656 1991.84 552.474 1976.72 563.641 1959.12 576.301 1918 576.301L1918 590.012C1932.18 590.012 1944.05 589.488 1953.81 588.696L1933.85 658.566 1918 658.566 1918 665.422C1918 684.643 1939.54 699.699 1966.45 699.699ZM2121.89 658.566 2085.22 658.566 2103.55 594.414ZM1966.44 594.404 1984.78 658.566 1948.11 658.566Z"/></g></g></g><g clip-path="url(#clip7)"><g clip-path="url(#clip8)"><g clip-path="url(#clip9)"><path d="M199.99 28.1543C197.889 26.9324 195.294 26.9324 193.194 28.1543 185.059 32.6677 175.897 35.0082 166.593 34.95 152.991 35.2508 139.838 30.0738 130.09 20.5818 118.837 9.56664 103.622 3.54778 87.8787 3.88363 75.1997 3.77396 62.8034 7.62983 52.424 14.9124L52.424 11.65C52.424 5.2161 47.2084 0 40.774 0 34.3397 0 29.1241 5.21564 29.1241 11.65L29.1241 221.35C29.1241 227.784 34.3397 233 40.774 233 47.2079 233 52.424 227.784 52.424 221.35L52.424 120.383C53.711 120.262 54.937 119.778 55.9577 118.985 65.1967 112.181 76.4057 108.582 87.8787 108.733 101.506 108.42 114.688 113.597 124.46 123.101 135.691 134.1 150.876 140.118 166.594 139.799 178.639 139.94 190.454 136.493 200.534 129.897 202.691 128.402 203.948 125.919 203.874 123.295L203.874 34.95C203.898 32.1503 202.414 29.5541 199.99 28.1543Z" transform="matrix(1.00429 0 0 1 1918 918)"/></g></g></g><g clip-path="url(#clip10)"><g clip-path="url(#clip11)"><g clip-path="url(#clip12)"><path d="M54.7884 123.365 0 123.365C0.829753 137.772 4.26685 151.684 10.0866 164.555L58.4599 164.555C56.3399 151.488 55.0919 137.623 54.7884 123.365Z" transform="matrix(1.00429 0 0 1 3548 919)"/><path d="M149.007 26.932C144.214 15.5484 138.658 6.72636 132.783 0.922203 129.671 0.490163 126.53 0.18261 123.365-3.04869e-15L123.365 54.7148 157.854 54.7148C155.489 44.6383 152.527 35.2908 149.007 26.932Z" transform="matrix(1.00429 0 0 1 3548 919)"/><path d="M68.5226 109.635 109.635 109.635 109.635 68.4448 72.3702 68.4448C70.1483 81.4115 68.8398 95.2921 68.5226 109.635Z" transform="matrix(1.00429 0 0 1 3548 919)"/><path d="M160.63 68.4448 123.365 68.4448 123.365 109.635 164.477 109.635C164.16 95.2921 162.851 81.4115 160.63 68.4448Z" transform="matrix(1.00429 0 0 1 3548 919)"/><path d="M123.365 178.285 123.365 233C126.53 232.818 129.671 232.51 132.783 232.078 138.658 226.274 144.215 217.452 149.007 206.068 152.527 197.709 155.489 188.361 157.854 178.285Z" transform="matrix(1.00429 0 0 1 3548 919)"/><path d="M83.9923 26.932C80.4728 35.2913 77.5108 44.6387 75.1455 54.7148L109.635 54.7148 109.635-6.50388e-15C106.469 0.182152 103.329 0.490163 100.217 0.922203 94.3425 6.7259 88.7854 15.5484 83.9923 26.932Z" transform="matrix(1.00429 0 0 1 3548 919)"/><path d="M83.9923 206.068C88.7854 217.452 94.342 226.274 100.217 232.078 103.329 232.509 106.469 232.817 109.635 233L109.635 178.285 75.1455 178.285C77.5108 188.361 80.4728 197.709 83.9923 206.068Z" transform="matrix(1.00429 0 0 1 3548 919)"/><path d="M58.4599 68.4448 10.0866 68.4448C4.26685 81.3163 0.829753 95.2281 0 109.635L54.7884 109.635C55.0919 95.3763 56.3399 81.5122 58.4599 68.4448Z" transform="matrix(1.00429 0 0 1 3548 919)"/><path d="M71.3382 21.6043C73.7918 15.7768 76.4526 10.5131 79.2888 5.82841 62.4059 11.4875 46.9353 21.0184 33.9769 33.9769 27.6249 40.3284 22.1013 47.2859 17.4477 54.7148L61.0782 54.7148C63.7272 42.6749 67.1661 31.5132 71.3382 21.6043Z" transform="matrix(1.00429 0 0 1 3548 919)"/><path d="M61.0782 178.285 17.4477 178.285C22.1013 185.714 27.6249 192.672 33.9769 199.023 46.9353 211.982 62.4059 221.513 79.2888 227.171 76.4526 222.487 73.7918 217.223 71.3382 211.396 67.1661 201.487 63.7272 190.325 61.0782 178.285Z" transform="matrix(1.00429 0 0 1 3548 919)"/><path d="M171.921 54.7148 215.552 54.7148C210.898 47.2863 205.374 40.3284 199.023 33.9769 186.065 21.0184 170.594 11.487 153.711 5.82841 156.547 10.5127 159.208 15.7768 161.661 21.6043 165.834 31.5132 169.272 42.6749 171.921 54.7148Z" transform="matrix(1.00429 0 0 1 3548 919)"/><path d="M161.661 211.396C159.208 217.223 156.547 222.487 153.711 227.172 170.594 221.513 186.064 211.982 199.023 199.023 205.374 192.672 210.898 185.714 215.552 178.286L171.921 178.286C169.272 190.325 165.834 201.487 161.661 211.396Z" transform="matrix(1.00429 0 0 1 3548 919)"/><path d="M72.3702 164.555 109.635 164.555 109.635 123.365 68.5226 123.365C68.8398 137.708 70.1483 151.589 72.3702 164.555Z" transform="matrix(1.00429 0 0 1 3548 919)"/><path d="M164.477 123.365 123.365 123.365 123.365 164.555 160.63 164.555C162.851 151.589 164.16 137.708 164.477 123.365Z" transform="matrix(1.00429 0 0 1 3548 919)"/><path d="M174.54 164.555 222.913 164.555C228.732 151.684 232.17 137.772 233 123.365L178.212 123.365C177.908 137.623 176.66 151.488 174.54 164.555Z" transform="matrix(1.00429 0 0 1 3548 919)"/><path d="M178.212 109.635 233 109.635C232.17 95.2281 228.733 81.3163 222.913 68.4448L174.54 68.4448C176.66 81.5122 177.908 95.3763 178.212 109.635Z" transform="matrix(1.00429 0 0 1 3548 919)"/></g></g></g><g clip-path="url(#clip13)"><g clip-path="url(#clip14)"><g clip-path="url(#clip15)"><path d="M2006.76 1501.21C2006.76 1504.21 2009.2 1506.66 2012.2 1506.66 2013.19 1506.66 2014.16 1506.39 2015 1505.89L2047.99 1486.09C2047.44 1484.64 2047.1 1483.09 2047.1 1481.46L2047.1 1479.48C2047.1 1478.46 2047.22 1477.44 2047.46 1476.45L2049.73 1466.92 2009.1 1495.04C2007.63 1496.06 2006.76 1497.73 2006.76 1499.51Z"/><path d="M2083.41 1512.02C2081.29 1513.7 2078.63 1514.72 2075.71 1514.72 2068.84 1514.72 2063.24 1509.13 2063.24 1502.25L2063.24 1499.18C2063.24 1498.59 2063.28 1498.01 2063.37 1497.42L2063.94 1493.97C2062.75 1494.33 2061.5 1494.55 2060.2 1494.55 2057.58 1494.55 2055.15 1493.76 2053.1 1492.43L2019.15 1512.8C2017.82 1513.6 2016.34 1514.13 2014.82 1514.43L2014.82 1530.86 2083.41 1530.86 2083.41 1512.02Z"/><path d="M2018.9 1348.96C2024.08 1348.12 2028.86 1345.72 2032.64 1341.93L2039.03 1335.54 2045.43 1341.93C2049.21 1345.72 2053.99 1348.12 2059.17 1348.96 2059.12 1346.05 2058.42 1343.32 2057.26 1340.83L2067.56 1330.53C2069.14 1328.95 2069.14 1326.39 2067.56 1324.82 2065.99 1323.24 2063.43 1323.25 2061.86 1324.82L2052.37 1334.3C2049.77 1331.98 2046.61 1330.27 2043.07 1329.55L2043.07 1317.03C2043.07 1314.81 2041.26 1313 2039.03 1313 2036.81 1313 2035 1314.81 2035 1317.03L2035 1329.55C2031.46 1330.27 2028.29 1331.98 2025.7 1334.3L2016.21 1324.82C2014.64 1323.24 2012.08 1323.24 2010.51 1324.82 2008.93 1326.39 2008.93 1328.95 2010.51 1330.52L2020.81 1340.83C2019.65 1343.31 2018.95 1346.05 2018.9 1348.96Z"/><path d="M2014.83 1481.27 2052.53 1455.16 2054.79 1445.66 2019.3 1468.25C2017.93 1469.12 2016.41 1469.7 2014.83 1470.03Z"/><path d="M2057.31 1435.08 2061.3 1418.32 2009.27 1450.83C2007.69 1451.82 2006.76 1453.51 2006.76 1455.37L2006.76 1456.94C2006.76 1459.88 2009.16 1462.28 2012.1 1462.28 2013.11 1462.28 2014.1 1461.99 2014.96 1461.44L2057.04 1434.66Z"/><path d="M2059.21 1357.14C2051.85 1356.25 2045.05 1352.96 2039.73 1347.64L2039.03 1346.95 2038.34 1347.64C2033.02 1352.96 2026.22 1356.26 2018.86 1357.14L2018.86 1357.38C2018.86 1368.5 2027.91 1377.55 2039.03 1377.55 2050.16 1377.55 2059.21 1368.5 2059.21 1357.38Z"/><path d="M2055.17 1479.48 2055.17 1481.46C2055.17 1484.23 2057.43 1486.48 2060.2 1486.48 2062.51 1486.48 2064.52 1484.92 2065.08 1482.68L2067.4 1473.4 2071.31 1474.38 2075.29 1475.04 2071.34 1498.66C2071.32 1498.77 2071.31 1498.98 2071.31 1499.18L2071.31 1502.25C2071.31 1504.68 2073.28 1506.66 2075.71 1506.66 2078 1506.66 2079.89 1504.93 2080.09 1502.66L2083.41 1466.12 2083.41 1411.5 2073.56 1401.65 2055.31 1478.31C2055.22 1478.69 2055.17 1479.09 2055.17 1479.48Z"/><path d="M2014.83 1437.85 2063.96 1407.14 2065.68 1399.92C2057.12 1406.31 2046.54 1409.83 2035.86 1409.83 2026.63 1409.83 2017.6 1407.27 2009.74 1402.43L1990.62 1390.67 1990.62 1405.79C1990.62 1406.57 1990.53 1407.32 1990.39 1408.05L2014.83 1423.76Z"/><path d="M1990.62 1538.93 2111.66 1538.93 2111.66 1547 1990.62 1547Z"/><path d="M1974.48 1405.79C1974.48 1408.02 1976.3 1409.83 1978.52 1409.83 1980.74 1409.83 1982.55 1408.02 1982.55 1405.79L1982.55 1361.41 1974.48 1361.41Z"/><path d="M2039.03 1385.62C2036.02 1385.62 2033.12 1385.13 2030.39 1384.25 2029.3 1389.94 2026.64 1395.19 2022.67 1399.53 2026.91 1400.94 2031.35 1401.76 2035.86 1401.76 2042.07 1401.76 2048.22 1400.31 2053.81 1397.66 2050.71 1393.72 2048.62 1389.15 2047.68 1384.26 2044.95 1385.13 2042.05 1385.62 2039.03 1385.62Z"/><path d="M1978.52 1337.21C1982.97 1337.21 1986.59 1333.59 1986.59 1329.14 1986.59 1327.38 1986.03 1325.7 1984.97 1324.3L1978.52 1315.69 1972.06 1324.3C1971.01 1325.7 1970.45 1327.38 1970.45 1329.14 1970.45 1333.59 1974.07 1337.21 1978.52 1337.21Z"/><path d="M1958.34 1383.95C1958.34 1386.14 1959.44 1388.16 1961.29 1389.34L1966.41 1392.64 1966.41 1377.55 1964.75 1377.55C1961.22 1377.55 1958.34 1380.42 1958.34 1383.95Z"/><path d="M1966.41 1345.28 1990.62 1345.28 1990.62 1353.34 1966.41 1353.34Z"/></g></g></g><g clip-path="url(#clip16)"><g clip-path="url(#clip17)"><g clip-path="url(#clip18)"><path d="M0 213.583 135.917 213.583 135.917 233 0 233Z" transform="matrix(1 0 0 1.00429 3551 1313)"/><path d="M116.5 194.009C116.5 188.647 112.153 184.301 106.792 184.301L29.125 184.301C23.7632 184.301 19.4167 188.647 19.4167 194.009L19.4167 203.875 116.5 203.875Z" transform="matrix(1 0 0 1.00429 3551 1313)"/><path d="M132.096 114.634C127.573 119.455 123.78 124.912 120.837 130.832L200.747 210.741C204.538 214.531 210.683 214.531 214.474 210.741L228.204 197.011C231.995 193.22 231.996 187.073 228.204 183.281 228.204 183.281 228.204 183.281 228.204 183.281L148.295 103.394C142.364 106.31 136.904 110.099 132.096 114.634Z" transform="matrix(1 0 0 1.00429 3551 1313)"/><path d="M84.0426 66.5798C76.701 73.3931 68.2025 78.8414 58.9466 82.6689L109.124 132.846C112.986 123.607 118.44 115.116 125.238 107.763 132.58 100.95 141.078 95.5004 150.334 91.671L100.154 41.5031C96.2904 50.7396 90.8375 59.2269 84.0426 66.5798Z" transform="matrix(1 0 0 1.00429 3551 1313)"/><path d="M155.844-2.56323C161.216-2.56323 165.572 1.79198 165.572 7.1644L165.572 84.9854C165.572 90.3578 161.216 94.713 155.844 94.713L136.389 94.713C131.016 94.713 126.661 90.3578 126.661 84.9854L126.661 7.16439C126.661 1.79198 131.016-2.56323 136.389-2.56323Z" transform="matrix(0.705598 -0.708625 0.705598 0.708625 3561.2 1430.08)"/><path d="M73.3025 79.9781C78.6749 79.9781 83.0302 84.3333 83.0302 89.7057L83.0302 167.527C83.0302 172.899 78.6749 177.254 73.3025 177.254L53.8473 177.254C48.4749 177.254 44.1196 172.899 44.1196 167.527L44.1196 89.7057C44.1196 84.3333 48.4749 79.9781 53.8473 79.9781Z" transform="matrix(0.705598 -0.708625 0.705598 0.708625 3478.82 1395.82)"/></g></g></g><g clip-path="url(#clip19)"><g clip-path="url(#clip20)"><g clip-path="url(#clip21)"><path d="M3563.07 1885.27C3572.85 1902.21 3598.14 1901.77 3624.64 1894.84 3632.57 1923.07 3645.82 1944 3664 1944 3682.17 1944 3695.43 1923.08 3703.35 1894.86 3729.83 1901.8 3755.12 1902.26 3764.93 1885.27 3774.82 1868.14 3761.71 1846.44 3742.42 1827 3761.72 1807.55 3774.81 1785.85 3764.93 1768.73 3755.88 1753.03 3731.62 1751.76 3703.3 1758.94 3695.37 1730.83 3682.13 1710 3664 1710 3645.87 1710 3632.64 1730.83 3624.7 1758.94 3596.39 1751.76 3572.13 1753.03 3563.07 1768.73 3553.18 1785.86 3566.29 1807.56 3585.58 1827 3566.28 1846.45 3553.19 1868.15 3563.07 1885.27ZM3574.95 1878.42C3568.96 1868.06 3579.85 1851.99 3595.61 1836.49 3602.67 1842.73 3610.09 1848.55 3617.31 1853.74 3618.21 1863.38 3619.59 1872.8 3621.45 1881.73 3597.43 1887.77 3579.63 1886.52 3574.95 1878.42ZM3646.86 1797.32C3651.77 1794.48 3657.64 1791.46 3663.99 1788.48 3670.27 1791.42 3676.13 1794.42 3681.14 1797.32 3685.69 1799.94 3691.4 1803.6 3697.6 1807.93 3698.02 1814.09 3698.28 1820.43 3698.28 1827 3698.28 1833.56 3698.02 1839.91 3697.6 1846.06 3691.54 1850.3 3685.86 1853.96 3681.14 1856.68 3675.35 1860.02 3669.63 1863.03 3664 1865.78 3658.36 1863.03 3652.64 1860.02 3646.86 1856.68 3642.31 1854.06 3636.6 1850.4 3630.4 1846.07 3629.98 1839.91 3629.72 1833.57 3629.72 1827 3629.72 1820.44 3629.98 1814.09 3630.4 1807.94 3636.46 1803.7 3642.15 1800.04 3646.86 1797.32ZM3632.25 1790.15C3632.91 1785.46 3633.65 1780.91 3634.52 1776.6 3638.85 1778.07 3643.16 1779.65 3647.43 1781.34 3644.94 1782.68 3642.45 1784.03 3640.01 1785.44 3637.58 1786.84 3634.96 1788.44 3632.25 1790.15ZM3680.51 1781.3C3684.78 1779.6 3689.11 1778 3693.46 1776.51 3694.34 1780.84 3695.09 1785.43 3695.75 1790.15 3693.04 1788.44 3690.41 1786.84 3687.99 1785.44 3685.53 1784.02 3683.02 1782.65 3680.51 1781.3ZM3711.83 1818.47C3715.29 1821.18 3718.73 1824.04 3722.12 1826.95 3718.74 1829.88 3715.3 1832.75 3711.83 1835.49 3711.91 1832.66 3711.99 1829.82 3711.99 1827 3711.99 1824.16 3711.91 1821.32 3711.83 1818.47ZM3695.75 1863.85C3695.07 1868.72 3694.29 1873.43 3693.37 1877.89 3689.06 1876.45 3684.59 1874.77 3680.02 1872.92 3682.86 1871.43 3685.56 1869.96 3687.99 1868.56 3690.42 1867.16 3693.04 1865.56 3695.75 1863.85ZM3647.97 1872.92C3643.41 1874.76 3638.94 1876.44 3634.63 1877.88 3633.71 1873.43 3632.93 1868.72 3632.25 1863.85 3634.96 1865.56 3637.59 1867.16 3640.01 1868.56 3642.43 1869.96 3645.14 1871.43 3647.97 1872.92ZM3616.17 1835.53C3612.71 1832.82 3609.27 1829.96 3605.88 1827.05 3609.26 1824.12 3612.7 1821.25 3616.17 1818.51 3616.09 1821.34 3616.01 1824.18 3616.01 1827 3616.01 1829.84 3616.09 1832.68 3616.17 1835.53ZM3664 1930.29C3654.6 1930.29 3644.58 1914.93 3637.81 1890.96 3646.87 1887.95 3655.77 1884.4 3664 1880.7 3672.22 1884.4 3681.11 1887.96 3690.18 1890.97 3683.41 1914.94 3673.4 1930.29 3664 1930.29ZM3753.05 1878.42C3748.38 1886.54 3730.57 1887.79 3706.55 1881.74 3708.41 1872.8 3709.79 1863.38 3710.69 1853.75 3717.94 1848.53 3725.39 1842.69 3732.47 1836.42 3748.19 1851.79 3759.16 1867.84 3753.05 1878.42ZM3753.05 1775.58C3759.04 1785.94 3748.15 1802.01 3732.39 1817.51 3725.33 1811.27 3717.91 1805.45 3710.69 1800.26 3709.8 1790.68 3708.43 1781.31 3706.59 1772.43 3728.03 1766.58 3747.2 1765.43 3753.05 1775.58ZM3664 1723.71C3673.37 1723.71 3683.35 1738.97 3690.12 1762.79 3681.52 1765.62 3672.74 1769.11 3664 1773.11 3655.27 1769.11 3646.48 1765.62 3637.88 1762.79 3644.65 1738.96 3654.63 1723.71 3664 1723.71ZM3574.95 1775.58C3580.65 1765.71 3599.79 1766.78 3621.38 1772.59 3619.55 1781.42 3618.2 1790.74 3617.31 1800.25 3610.06 1805.47 3602.61 1811.31 3595.53 1817.58 3579.81 1802.21 3568.84 1786.16 3574.95 1775.58Z"/><path d="M3684.57 1827C3684.57 1838.36 3675.36 1847.57 3664 1847.57 3652.64 1847.57 3643.43 1838.36 3643.43 1827 3643.43 1815.64 3652.64 1806.43 3664 1806.43 3675.36 1806.43 3684.57 1815.64 3684.57 1827Z"/></g></g></g><g clip-path="url(#clip22)"><g clip-path="url(#clip23)"><g clip-path="url(#clip24)"><path d="M2148.34 1758.53 2141.03 1758.53C2139.01 1758.53 2137.37 1756.89 2137.37 1754.87 2137.37 1752.86 2139.01 1751.22 2141.03 1751.22L2148.34 1751.22C2150.36 1751.22 2152 1752.86 2152 1754.87 2152 1756.89 2150.36 1758.53 2148.34 1758.53Z"/><path d="M2119.09 1758.53 2111.78 1758.53C2109.76 1758.53 2108.12 1756.89 2108.12 1754.87 2108.12 1752.86 2109.76 1751.22 2111.78 1751.22L2119.09 1751.22C2121.11 1751.22 2122.75 1752.86 2122.75 1754.87 2122.75 1756.89 2121.11 1758.53 2119.09 1758.53Z"/><path d="M2130.06 1776.81C2128.04 1776.81 2126.4 1775.18 2126.4 1773.16L2126.4 1765.84C2126.4 1763.82 2128.04 1762.19 2130.06 1762.19 2132.08 1762.19 2133.72 1763.82 2133.72 1765.84L2133.72 1773.16C2133.72 1775.18 2132.08 1776.81 2130.06 1776.81Z"/><path d="M2130.06 1747.56C2128.04 1747.56 2126.4 1745.93 2126.4 1743.91L2126.4 1736.59C2126.4 1734.57 2128.04 1732.94 2130.06 1732.94 2132.08 1732.94 2133.72 1734.57 2133.72 1736.59L2133.72 1743.91C2133.72 1745.93 2132.08 1747.56 2130.06 1747.56Z"/><path d="M1958.22 1904.78 1950.9 1904.78C1948.88 1904.78 1947.25 1903.14 1947.25 1901.13 1947.25 1899.11 1948.88 1897.47 1950.9 1897.47L1958.22 1897.47C1960.23 1897.47 1961.87 1899.11 1961.87 1901.13 1961.87 1903.14 1960.23 1904.78 1958.22 1904.78Z"/><path d="M1928.97 1904.78 1921.65 1904.78C1919.63 1904.78 1918 1903.14 1918 1901.13 1918 1899.11 1919.63 1897.47 1921.65 1897.47L1928.97 1897.47C1930.98 1897.47 1932.62 1899.11 1932.62 1901.13 1932.62 1903.14 1930.98 1904.78 1928.97 1904.78Z"/><path d="M1939.93 1923.06C1937.92 1923.06 1936.28 1921.43 1936.28 1919.41L1936.28 1912.09C1936.28 1910.07 1937.92 1908.44 1939.93 1908.44 1941.95 1908.44 1943.59 1910.07 1943.59 1912.09L1943.59 1919.41C1943.59 1921.43 1941.95 1923.06 1939.93 1923.06Z"/><path d="M1939.93 1893.81C1937.92 1893.81 1936.28 1892.18 1936.28 1890.16L1936.28 1882.84C1936.28 1880.82 1937.92 1879.19 1939.93 1879.19 1941.95 1879.19 1943.59 1880.82 1943.59 1882.84L1943.59 1890.16C1943.59 1892.18 1941.95 1893.81 1939.93 1893.81Z"/><path d="M1994.78 1714.66C1994.78 1716.68 1993.14 1718.31 1991.12 1718.31 1989.1 1718.31 1987.47 1716.68 1987.47 1714.66 1987.47 1712.64 1989.1 1711 1991.12 1711 1993.14 1711 1994.78 1712.64 1994.78 1714.66Z"/><path d="M2082.53 1714.66C2082.53 1716.68 2080.89 1718.31 2078.87 1718.31 2076.85 1718.31 2075.22 1716.68 2075.22 1714.66 2075.22 1712.64 2076.85 1711 2078.87 1711 2080.89 1711 2082.53 1712.64 2082.53 1714.66Z"/><path d="M2038.36 1939.95C2038.28 1939.72 2038.17 1939.5 2038.03 1939.3 2037.9 1939.1 2037.75 1938.92 2037.59 1938.75 2036.14 1937.33 2033.82 1937.36 2032.4 1938.81 2031.01 1940.24 2031.01 1942.51 2032.4 1943.94 2032.58 1944.09 2032.77 1944.23 2032.95 1944.38 2033.15 1944.52 2033.37 1944.63 2033.61 1944.71 2033.81 1944.81 2034.04 1944.89 2034.27 1944.93 2034.75 1945.02 2035.24 1945.02 2035.73 1944.93 2035.96 1944.89 2036.18 1944.81 2036.39 1944.71 2036.62 1944.63 2036.84 1944.52 2037.05 1944.38L2037.59 1943.94C2038.26 1943.24 2038.64 1942.31 2038.65 1941.34 2038.65 1941.11 2038.62 1940.88 2038.58 1940.65 2038.55 1940.41 2038.47 1940.17 2038.36 1939.95Z"/><path d="M2100.81 1798.75C2100.81 1763.7 2073.24 1735.04 2038.65 1733.12L2038.65 1718.31 2064.25 1718.31C2066.27 1718.31 2067.9 1716.68 2067.9 1714.66 2067.9 1712.64 2066.27 1711 2064.25 1711L2005.75 1711C2003.73 1711 2002.09 1712.64 2002.09 1714.66 2002.09 1716.68 2003.73 1718.31 2005.75 1718.31L2031.34 1718.31 2031.34 1733.12C1996.75 1735.04 1969.18 1763.7 1969.18 1798.75 1969.18 1833.81 1996.75 1862.47 2031.34 1864.38L2031.34 1876.42 2014.13 1893.63C2012.7 1895.06 2012.7 1897.37 2014.13 1898.8L2031.34 1916.01 2031.34 1926.72C2031.34 1928.74 2032.98 1930.38 2035 1930.38 2037.02 1930.38 2038.65 1928.74 2038.65 1926.72L2038.65 1916.01 2055.86 1898.8C2057.29 1897.37 2057.29 1895.06 2055.86 1893.63L2038.65 1876.42 2038.65 1864.38C2073.24 1862.46 2100.81 1833.8 2100.81 1798.75ZM2024.03 1817.03C2019.99 1817.03 2016.72 1813.76 2016.72 1809.72L2016.72 1791.44C2016.72 1789.42 2018.35 1787.78 2020.37 1787.78 2022.39 1787.78 2024.03 1789.42 2024.03 1791.44L2024.03 1809.72 2045.97 1809.72 2045.97 1787.78 2031.34 1787.78C2029.32 1787.78 2027.68 1786.14 2027.68 1784.12 2027.68 1782.11 2029.32 1780.47 2031.34 1780.47L2045.97 1780.47C2050 1780.47 2053.27 1783.74 2053.28 1787.78L2053.28 1809.72C2053.27 1813.76 2050 1817.03 2045.97 1817.03ZM2045.97 1828C2045.97 1830.02 2044.33 1831.66 2042.31 1831.66L2027.68 1831.66C2025.66 1831.66 2024.03 1830.02 2024.03 1828 2024.03 1825.98 2025.66 1824.34 2027.68 1824.34L2042.31 1824.34C2044.33 1824.34 2045.97 1825.98 2045.97 1828 2045.97 1828 2045.97 1828 2045.97 1828ZM2042.31 1773.16 2027.68 1773.16C2025.66 1773.16 2024.03 1771.52 2024.03 1769.5 2024.03 1767.48 2025.66 1765.84 2027.68 1765.84L2042.31 1765.84C2044.33 1765.84 2045.97 1767.48 2045.97 1769.5 2045.97 1771.52 2044.33 1773.16 2042.31 1773.16ZM2027.68 1752.4 2027.68 1752.62C2027.66 1754.3 2026.49 1755.74 2024.85 1756.1 2021.13 1756.99 2017.54 1758.37 2014.18 1760.19 2012.78 1760.98 2011.03 1760.76 2009.88 1759.64L2009.71 1759.47C2008.32 1758.07 2008.32 1755.81 2009.72 1754.41 2009.95 1754.18 2010.22 1753.98 2010.52 1753.81 2014.53 1751.62 2018.82 1749.98 2023.28 1748.93 2025.2 1748.48 2027.13 1749.67 2027.59 1751.59 2027.65 1751.86 2027.68 1752.13 2027.68 1752.41ZM2002.09 1791.44C2002.09 1789.42 2003.73 1787.78 2005.75 1787.78 2007.77 1787.78 2009.4 1789.42 2009.4 1791.44L2009.4 1806.06C2009.4 1808.08 2007.77 1809.72 2005.75 1809.72 2003.73 1809.72 2002.09 1808.08 2002.09 1806.06ZM2048.11 1896.21 2035 1909.32 2021.89 1896.21 2035 1883.1ZM2032.3 1849.87C2007.45 1848.59 1986.7 1828.99 1984.1 1804.25 1982.77 1791.99 1985.92 1779.67 1992.98 1769.56 1994.13 1767.89 1996.43 1767.47 1998.1 1768.62 1998.28 1768.75 1998.45 1768.89 1998.6 1769.04 1999.85 1770.25 2000.04 1772.18 1999.07 1773.62 1993.93 1780.92 1991.16 1789.62 1991.12 1798.55 1991.02 1821.87 2009.99 1841.71 2033.3 1842.59 2057.5 1843.54 2077.88 1824.69 2078.83 1800.49 2079.65 1779.58 2065.57 1761 2045.22 1756.13 2043.54 1755.76 2042.33 1754.29 2042.31 1752.57 2042.31 1750.54 2043.95 1748.9 2045.98 1748.91 2046.26 1748.91 2046.53 1748.94 2046.81 1749 2069.35 1754.35 2086.18 1774.6 2086.18 1798.75 2086.15 1827.05 2063.19 1849.97 2034.89 1849.94 2034.02 1849.94 2033.16 1849.91 2032.3 1849.87ZM2060.59 1806.06 2060.59 1791.44C2060.59 1789.42 2062.23 1787.78 2064.25 1787.78 2066.27 1787.78 2067.9 1789.42 2067.9 1791.44L2067.9 1806.06C2067.9 1808.08 2066.27 1809.72 2064.25 1809.72 2062.23 1809.72 2060.59 1808.08 2060.59 1806.06Z"/></g></g></g><path d="M0 93.5436 32.1208 93.5436 32.1208 0 60.879 0 60.879 93.5436 92.9998 93.5436 46.4999 143Z" stroke="#008000" stroke-width="4.58333" stroke-miterlimit="8" fill="#00B050" fill-rule="evenodd" transform="matrix(1 0 0 -1 1648.5 688.5)"/><text fill="#00B050" font-family="Roboto,Roboto_MSFontService,sans-serif" font-weight="400" font-size="55" transform="matrix(1 0 0 1 1597.41 769)">+9,4 pts</text><path d="M1648.5 1030.04 1680.62 1030.04 1680.62 936.5 1709.38 936.5 1709.38 1030.04 1741.5 1030.04 1695 1079.5Z" stroke="#C00000" stroke-width="4.58333" stroke-miterlimit="8" fill="#FF0000" fill-rule="evenodd"/><text fill="#FF0000" font-family="Roboto,Roboto_MSFontService,sans-serif" font-weight="400" font-size="55" transform="matrix(1 0 0 1 1605.43 1160)">-<tspan font-size="55" x="14.8959" y="0">8,9 pts</tspan></text><path d="M0 92.5436 32.1207 92.5436 32.1207 0 60.8791 0 60.8791 92.5436 92.9998 92.5436 46.4999 142Z" stroke="#008000" stroke-width="4.58333" stroke-miterlimit="8" fill="#00B050" fill-rule="evenodd" transform="matrix(1 0 0 -1 1649.5 1476.5)"/><text fill="#00B050" font-family="Roboto,Roboto_MSFontService,sans-serif" font-weight="400" font-size="55" transform="matrix(1 0 0 1 1582.47 1558)">+10,5 pts</text><path d="M1649.5 1832.04 1681.62 1832.04 1681.62 1739.5 1710.38 1739.5 1710.38 1832.04 1742.5 1832.04 1696 1881.5Z" stroke="#C00000" stroke-width="4.58333" stroke-miterlimit="8" fill="#FF0000" fill-rule="evenodd"/><text fill="#FF0000" font-family="Roboto,Roboto_MSFontService,sans-serif" font-weight="400" font-size="55" transform="matrix(1 0 0 1 1590.68 1962)">-<tspan font-size="55" x="14.8959" y="0">13,9 pts</tspan></text></g></svg>