<svg width="2303" height="3582" xmlns="http://www.w3.org/2000/svg" xmlns:xlink="http://www.w3.org/1999/xlink" overflow="hidden"><defs><clipPath id="clip0"><rect x="1867" y="96" width="2303" height="3582"/></clipPath><clipPath id="clip1"><rect x="3876" y="190" width="234" height="234"/></clipPath><clipPath id="clip2"><rect x="3876" y="190" width="234" height="234"/></clipPath><clipPath id="clip3"><rect x="3876" y="190" width="234" height="234"/></clipPath><clipPath id="clip4"><rect x="2247" y="189" width="234" height="235"/></clipPath><clipPath id="clip5"><rect x="2247" y="189" width="234" height="235"/></clipPath><clipPath id="clip6"><rect x="2247" y="189" width="234" height="235"/></clipPath><clipPath id="clip7"><rect x="2250" y="580" width="235" height="236"/></clipPath><clipPath id="clip8"><rect x="2250" y="580" width="235" height="236"/></clipPath><clipPath id="clip9"><rect x="2250" y="580" width="235" height="236"/></clipPath><clipPath id="clip10"><rect x="3879" y="580" width="235" height="236"/></clipPath><clipPath id="clip11"><rect x="3879" y="580" width="235" height="236"/></clipPath><clipPath id="clip12"><rect x="3879" y="580" width="235" height="236"/></clipPath><clipPath id="clip13"><rect x="3881" y="980" width="235" height="235"/></clipPath><clipPath id="clip14"><rect x="3881" y="980" width="235" height="235"/></clipPath><clipPath id="clip15"><rect x="3881" y="980" width="235" height="235"/></clipPath><clipPath id="clip16"><rect x="2249" y="977" width="235" height="236"/></clipPath><clipPath id="clip17"><rect x="2249" y="977" width="235" height="236"/></clipPath><clipPath id="clip18"><rect x="2249" y="977" width="235" height="236"/></clipPath><clipPath id="clip19"><rect x="2253" y="1380" width="235" height="234"/></clipPath><clipPath id="clip20"><rect x="2253" y="1380" width="235" height="234"/></clipPath><clipPath id="clip21"><rect x="2253" y="1380" width="235" height="234"/></clipPath><clipPath id="clip22"><rect x="3883" y="1380" width="235" height="234"/></clipPath><clipPath id="clip23"><rect x="3883" y="1380" width="235" height="234"/></clipPath><clipPath id="clip24"><rect x="3883" y="1380" width="235" height="234"/></clipPath><clipPath id="clip25"><rect x="2249" y="1773" width="235" height="235"/></clipPath><clipPath id="clip26"><rect x="2249" y="1773" width="235" height="235"/></clipPath><clipPath id="clip27"><rect x="2249" y="1773" width="235" height="235"/></clipPath><clipPath id="clip28"><rect x="3878" y="1777" width="235" height="234"/></clipPath><clipPath id="clip29"><rect x="3878" y="1777" width="235" height="234"/></clipPath><clipPath id="clip30"><rect x="3878" y="1777" width="235" height="234"/></clipPath><clipPath id="clip31"><rect x="3879" y="2168" width="235" height="234"/></clipPath><clipPath id="clip32"><rect x="3879" y="2168" width="235" height="234"/></clipPath><clipPath id="clip33"><rect x="3879" y="2168" width="235" height="234"/></clipPath><clipPath id="clip34"><rect x="2250" y="2168" width="235" height="234"/></clipPath><clipPath id="clip35"><rect x="2250" y="2168" width="235" height="234"/></clipPath><clipPath id="clip36"><rect x="2250" y="2168" width="235" height="234"/></clipPath><clipPath id="clip37"><rect x="2249" y="2560" width="235" height="234"/></clipPath><clipPath id="clip38"><rect x="2249" y="2560" width="235" height="234"/></clipPath><clipPath id="clip39"><rect x="2249" y="2560" width="235" height="234"/></clipPath><clipPath id="clip40"><rect x="3881" y="2566" width="235" height="234"/></clipPath><clipPath id="clip41"><rect x="3881" y="2566" width="235" height="234"/></clipPath><clipPath id="clip42"><rect x="3881" y="2566" width="235" height="234"/></clipPath><clipPath id="clip43"><rect x="2247" y="2957" width="234" height="236"/></clipPath><clipPath id="clip44"><rect x="2247" y="2957" width="234" height="236"/></clipPath><clipPath id="clip45"><rect x="2247" y="2957" width="234" height="236"/></clipPath><clipPath id="clip46"><rect x="3876" y="2963" width="234" height="234"/></clipPath><clipPath id="clip47"><rect x="3876" y="2963" width="234" height="234"/></clipPath><clipPath id="clip48"><rect x="3876" y="2963" width="234" height="234"/></clipPath><clipPath id="clip49"><rect x="2252" y="3356" width="234" height="235"/></clipPath><clipPath id="clip50"><rect x="2252" y="3356" width="234" height="235"/></clipPath><clipPath id="clip51"><rect x="2252" y="3356" width="234" height="235"/></clipPath><clipPath id="clip52"><rect x="3880" y="3358" width="236" height="234"/></clipPath><clipPath id="clip53"><rect x="3880" y="3358" width="236" height="234"/></clipPath><clipPath id="clip54"><rect x="3880" y="3358" width="236" height="234"/></clipPath></defs><g clip-path="url(#clip0)" transform="translate(-1867 -96)"><rect x="2933" y="239" width="896" height="195" fill="#F44336"/><path d="M2200 227.001C2200 196.625 2224.62 172 2255 172L2475 172C2505.38 172 2530 196.625 2530 227.001L2530 446.999C2530 477.375 2505.38 502 2475 502L2255 502C2224.62 502 2200 477.375 2200 446.999Z" stroke="#000000" stroke-width="10.3125" stroke-miterlimit="8" fill="#FFEB3B" fill-rule="evenodd"/><path d="M2200.5 434.5 2530.5 434.5 2530.5 447.14C2530.5 477.715 2505.88 502.5 2475.5 502.5L2255.5 502.5C2225.12 502.5 2200.5 477.715 2200.5 447.14Z" stroke="#000000" stroke-width="4.58333" stroke-miterlimit="8" fill-rule="evenodd"/><text fill="#FFFFFF" font-family="Roboto,Roboto_MSFontService,sans-serif" font-weight="400" font-size="50" transform="matrix(1 0 0 1 2260.44 486)">FÉDÉRAL</text><rect x="2530" y="239" width="403" height="195" fill="#FFEB3B"/><rect x="2530" y="239" width="1299" height="195" stroke="#000000" stroke-width="10.3125" stroke-miterlimit="8" fill="none"/><path d="M3829 231.001C3829 200.625 3853.62 176 3884 176L4104 176C4134.38 176 4159 200.625 4159 231.001L4159 450.999C4159 481.375 4134.38 506 4104 506L3884 506C3853.62 506 3829 481.375 3829 450.999Z" stroke="#000000" stroke-width="10.3125" stroke-miterlimit="8" fill="#F44336" fill-rule="evenodd"/><path d="M3829.5 438.5 4159.5 438.5 4159.5 451.14C4159.5 481.714 4134.88 506.5 4104.5 506.5L3884.5 506.5C3854.12 506.5 3829.5 481.714 3829.5 451.14Z" stroke="#000000" stroke-width="4.58333" stroke-miterlimit="8" fill-rule="evenodd"/><text fill="#FFFFFF" font-family="Roboto,Roboto_MSFontService,sans-serif" font-weight="400" font-size="50" transform="matrix(1 0 0 1 3884.79 490)">UNITAIRE<tspan fill="#000000" font-size="83" x="-1001.66" y="-291">U</tspan><tspan fill="#000000" font-size="66" x="-948.382" y="-291">NITAIRE</tspan><tspan fill="#000000" font-size="83" x="-684.84" y="-291">M</tspan><tspan fill="#000000" font-size="66" x="-612.652" y="-291">ODÉRÉ</tspan></text><rect x="3452" y="633" width="377" height="195" fill="#FF9800"/><path d="M2200 621.001C2200 590.625 2224.62 566 2255 566L2475 566C2505.38 566 2530 590.625 2530 621.001L2530 840.999C2530 871.375 2505.38 896 2475 896L2255 896C2224.62 896 2200 871.375 2200 840.999Z" stroke="#000000" stroke-width="10.3125" stroke-miterlimit="8" fill="#00897B" fill-rule="evenodd"/><path d="M2200.5 828.5 2530.5 828.5 2530.5 841.14C2530.5 871.714 2505.88 896.5 2475.5 896.5L2255.5 896.5C2225.12 896.5 2200.5 871.714 2200.5 841.14Z" stroke="#000000" stroke-width="4.58333" stroke-miterlimit="8" fill-rule="evenodd"/><text fill="#FFFFFF" font-family="Roboto,Roboto_MSFontService,sans-serif" font-weight="400" font-size="41" transform="matrix(1 0 0 1 2238.1 876)">DÉMOCRATIE</text><rect x="2530" y="633" width="922" height="195" fill="#00897B"/><rect x="2530" y="633" width="1299" height="195" stroke="#000000" stroke-width="10.3125" stroke-miterlimit="8" fill="none"/><path d="M3829 624.001C3829 593.625 3853.62 569 3884 569L4104 569C4134.38 569 4159 593.625 4159 624.001L4159 843.999C4159 874.375 4134.38 899 4104 899L3884 899C3853.62 899 3829 874.375 3829 843.999Z" stroke="#000000" stroke-width="10.3125" stroke-miterlimit="8" fill="#FF9800" fill-rule="evenodd"/><path d="M3829.5 832.5 4159.5 832.5 4159.5 844.954C4159.5 875.079 4134.88 899.5 4104.5 899.5L3884.5 899.5C3854.12 899.5 3829.5 875.079 3829.5 844.954Z" stroke="#000000" stroke-width="4.58333" stroke-miterlimit="8" fill-rule="evenodd"/><text fill="#FFFFFF" font-family="Roboto,Roboto_MSFontService,sans-serif" font-weight="400" font-size="50" transform="matrix(1 0 0 1 3877.05 883)">AUTORITÉ<tspan fill="#000000" font-size="83" x="-897.558" y="-286">D</tspan><tspan fill="#000000" font-size="66" x="-843.704" y="-286">ÉMOCRATE</tspan></text><rect x="3528" y="1031" width="301" height="195" fill="#9C27B0"/><path d="M2200 1018C2200 987.625 2224.62 963 2255 963L2475 963C2505.38 963 2530 987.625 2530 1018L2530 1238C2530 1268.38 2505.38 1293 2475 1293L2255 1293C2224.62 1293 2200 1268.38 2200 1238Z" stroke="#000000" stroke-width="10.3125" stroke-miterlimit="8" fill="#03A9F4" fill-rule="evenodd"/><path d="M2200.5 1226.5 2530.5 1226.5 2530.5 1238.95C2530.5 1269.08 2505.88 1293.5 2475.5 1293.5L2255.5 1293.5C2225.12 1293.5 2200.5 1269.08 2200.5 1238.95Z" stroke="#000000" stroke-width="4.58333" stroke-miterlimit="8" fill-rule="evenodd"/><text fill="#FFFFFF" font-family="Roboto,Roboto_MSFontService,sans-serif" font-weight="400" font-size="37" transform="matrix(1 0 0 1 2242.4 1273)">MONDIALISME</text><rect x="2530" y="1031" width="1000" height="195" fill="#03A9F4"/><rect x="2530" y="1031" width="1299" height="195" stroke="#000000" stroke-width="10.3125" stroke-miterlimit="8" fill="none"/><path d="M3829 1022C3829 991.625 3853.62 967 3884 967L4104 967C4134.38 967 4159 991.625 4159 1022L4159 1242C4159 1272.38 4134.38 1297 4104 1297L3884 1297C3853.62 1297 3829 1272.38 3829 1242Z" stroke="#000000" stroke-width="10.3125" stroke-miterlimit="8" fill="#9C27B0" fill-rule="evenodd"/><path d="M3829.5 1229.5 4159.5 1229.5 4159.5 1242.14C4159.5 1272.71 4134.88 1297.5 4104.5 1297.5L3884.5 1297.5C3854.12 1297.5 3829.5 1272.71 3829.5 1242.14Z" stroke="#000000" stroke-width="4.58333" stroke-miterlimit="8" fill-rule="evenodd"/><text fill="#FFFFFF" font-family="Roboto,Roboto_MSFontService,sans-serif" font-weight="400" font-size="32" transform="matrix(1 0 0 1 3865.31 1274)">ISOLATIONNISME<tspan fill="#000000" font-size="83" x="-903.543" y="-281">M</tspan><tspan fill="#000000" font-size="66" x="-831.355" y="-281">ONDIALISTE</tspan></text><rect x="2944" y="1429" width="885" height="194" fill="#EA90AB"/><path d="M2200 1416C2200 1385.62 2224.62 1361 2255 1361L2475 1361C2505.38 1361 2530 1385.62 2530 1416L2530 1636C2530 1666.38 2505.38 1691 2475 1691L2255 1691C2224.62 1691 2200 1666.38 2200 1636Z" stroke="#000000" stroke-width="10.3125" stroke-miterlimit="8" fill="#8BC34A" fill-rule="evenodd"/><path d="M2200.5 1623.5 2530.5 1623.5 2530.5 1636.14C2530.5 1666.71 2505.88 1691.5 2475.5 1691.5L2255.5 1691.5C2225.12 1691.5 2200.5 1666.71 2200.5 1636.14Z" stroke="#000000" stroke-width="4.58333" stroke-miterlimit="8" fill-rule="evenodd"/><text fill="#FFFFFF" font-family="Roboto,Roboto_MSFontService,sans-serif" font-weight="400" font-size="41" transform="matrix(1 0 0 1 2238.1 1671)">MILITARISME</text><rect x="2530" y="1429" width="416" height="194" fill="#8BC34A"/><rect x="2530" y="1429" width="1299" height="194" stroke="#000000" stroke-width="10.3125" stroke-miterlimit="8" fill="none"/><path d="M3829 1420C3829 1389.62 3853.62 1365 3884 1365L4104 1365C4134.38 1365 4159 1389.62 4159 1420L4159 1640C4159 1670.38 4134.38 1695 4104 1695L3884 1695C3853.62 1695 3829 1670.38 3829 1640Z" stroke="#000000" stroke-width="10.3125" stroke-miterlimit="8" fill="#EA90AB" fill-rule="evenodd"/><path d="M3829.5 1627.5 4159.5 1627.5 4159.5 1640.14C4159.5 1670.71 4134.88 1695.5 4104.5 1695.5L3884.5 1695.5C3854.12 1695.5 3829.5 1670.71 3829.5 1640.14Z" stroke="#000000" stroke-width="4.58333" stroke-miterlimit="8" fill-rule="evenodd"/><text fill="#FFFFFF" font-family="Roboto,Roboto_MSFontService,sans-serif" font-weight="400" font-size="50" transform="matrix(1 0 0 1 3866.45 1679)">PACIFISME<tspan fill="#000000" font-size="83" x="-997.216" y="-290">P</tspan><tspan fill="#000000" font-size="66" x="-945.08" y="-290">ACIFISTE</tspan><tspan fill="#000000" font-size="83" x="-650.601" y="-290">M</tspan><tspan fill="#000000" font-size="66" x="-578.414" y="-290">ODÉRÉ</tspan><tspan fill="#000000" font-size="73" x="-1303.45" y="-1318">31%</tspan><tspan fill="#000000" font-size="73" x="-1303.45" y="-920">71%</tspan><tspan fill="#000000" font-size="73" x="-1300.7" y="-523">77%</tspan><tspan fill="#000000" font-size="73" x="-1300.17" y="-128">32%</tspan><tspan fill="#000000" font-size="73" x="-204.794" y="-1313">69%</tspan><tspan fill="#000000" font-size="73" x="-206.838" y="-920">29%</tspan><tspan fill="#000000" font-size="73" x="-206.717" y="-523">23%</tspan><tspan fill="#000000" font-size="73" x="-205.887" y="-125">68%</tspan></text><rect x="3065" y="1822" width="767" height="195" fill="#FFEB3B"/><path d="M2203 1810C2203 1779.62 2227.62 1755 2258 1755L2478 1755C2508.38 1755 2533 1779.62 2533 1810L2533 2030C2533 2060.38 2508.38 2085 2478 2085L2258 2085C2227.62 2085 2203 2060.38 2203 2030Z" stroke="#000000" stroke-width="10.3125" stroke-miterlimit="8" fill="#3F51B5" fill-rule="evenodd"/><path d="M2203.5 2017.5 2533.5 2017.5 2533.5 2030.14C2533.5 2060.71 2508.88 2085.5 2478.5 2085.5L2258.5 2085.5C2228.12 2085.5 2203.5 2060.71 2203.5 2030.14Z" stroke="#000000" stroke-width="4.58333" stroke-miterlimit="8" fill-rule="evenodd"/><text fill="#FFFFFF" font-family="Roboto,Roboto_MSFontService,sans-serif" font-weight="400" font-size="50" transform="matrix(1 0 0 1 2254.03 2069)">SÉCURITÉ</text><rect x="2533" y="1822" width="532" height="195" fill="#3F51B5"/><rect x="2533" y="1822" width="1299" height="195" stroke="#000000" stroke-width="10.3125" stroke-miterlimit="8" fill="none"/><path d="M3832 1814C3832 1783.62 3856.63 1759 3887 1759L4107 1759C4137.38 1759 4162 1783.62 4162 1814L4162 2034C4162 2064.38 4137.38 2089 4107 2089L3887 2089C3856.63 2089 3832 2064.38 3832 2034Z" stroke="#000000" stroke-width="10.3125" stroke-miterlimit="8" fill="#FFEB3B" fill-rule="evenodd"/><path d="M3832.5 2021.5 4162.5 2021.5 4162.5 2034.14C4162.5 2064.71 4137.88 2089.5 4107.5 2089.5L3887.5 2089.5C3857.12 2089.5 3832.5 2064.71 3832.5 2034.14Z" stroke="#000000" stroke-width="4.58333" stroke-miterlimit="8" fill-rule="evenodd"/><text fill="#FFFFFF" font-family="Roboto,Roboto_MSFontService,sans-serif" font-weight="400" font-size="50" transform="matrix(1 0 0 1 3901.57 2073)">LIBERTÉ<tspan fill="#000000" font-size="83" x="-847.549" y="-291">N</tspan><tspan fill="#000000" font-size="66" x="-788.538" y="-291">EUTRE</tspan></text><rect x="3624" y="2216" width="208" height="195" fill="#00897B"/><path d="M2203 2204C2203 2173.63 2227.62 2149 2258 2149L2478 2149C2508.38 2149 2533 2173.63 2533 2204L2533 2424C2533 2454.38 2508.38 2479 2478 2479L2258 2479C2227.62 2479 2203 2454.38 2203 2424Z" stroke="#000000" stroke-width="10.3125" stroke-miterlimit="8" fill="#F44336" fill-rule="evenodd"/><path d="M2203.5 2411.5 2533.5 2411.5 2533.5 2424.14C2533.5 2454.71 2508.88 2479.5 2478.5 2479.5L2258.5 2479.5C2228.12 2479.5 2203.5 2454.71 2203.5 2424.14Z" stroke="#000000" stroke-width="4.58333" stroke-miterlimit="8" fill-rule="evenodd"/><text fill="#FFFFFF" font-family="Roboto,Roboto_MSFontService,sans-serif" font-weight="400" font-size="50" transform="matrix(1 0 0 1 2270.07 2463)">ÉGALITÉ</text><rect x="2533" y="2216" width="1091" height="195" fill="#F44336"/><rect x="2533" y="2216" width="1299" height="195" stroke="#000000" stroke-width="10.3125" stroke-miterlimit="8" fill="none"/><path d="M3832 2207C3832 2176.62 3856.63 2152 3887 2152L4107 2152C4137.38 2152 4162 2176.62 4162 2207L4162 2427C4162 2457.38 4137.38 2482 4107 2482L3887 2482C3856.63 2482 3832 2457.38 3832 2427Z" stroke="#000000" stroke-width="10.3125" stroke-miterlimit="8" fill="#00897B" fill-rule="evenodd"/><path d="M3832.5 2415.5 4162.5 2415.5 4162.5 2427.95C4162.5 2458.08 4137.88 2482.5 4107.5 2482.5L3887.5 2482.5C3857.12 2482.5 3832.5 2458.08 3832.5 2427.95Z" stroke="#000000" stroke-width="4.58333" stroke-miterlimit="8" fill-rule="evenodd"/><text fill="#FFFFFF" font-family="Roboto,Roboto_MSFontService,sans-serif" font-weight="400" font-size="50" transform="matrix(1 0 0 1 3879.52 2466)">MARCHÉS<tspan fill="#000000" font-size="83" x="-1042.22" y="-286">É</tspan><tspan fill="#000000" font-size="66" x="-995.239" y="-286">GALITAIRE</tspan><tspan fill="#000000" font-size="83" x="-655.499" y="-286">E</tspan><tspan fill="#000000" font-size="66" x="-608.52" y="-286">XTRÊME</tspan></text><rect x="3468" y="2614" width="364" height="195" fill="#03A9F4"/><path d="M2203 2601C2203 2570.63 2227.62 2546 2258 2546L2478 2546C2508.38 2546 2533 2570.63 2533 2601L2533 2821C2533 2851.38 2508.38 2876 2478 2876L2258 2876C2227.62 2876 2203 2851.38 2203 2821Z" stroke="#000000" stroke-width="10.3125" stroke-miterlimit="8" fill="#FF9800" fill-rule="evenodd"/><path d="M2203.5 2809.5 2533.5 2809.5 2533.5 2821.95C2533.5 2852.08 2508.88 2876.5 2478.5 2876.5L2258.5 2876.5C2228.12 2876.5 2203.5 2852.08 2203.5 2821.95Z" stroke="#000000" stroke-width="4.58333" stroke-miterlimit="8" fill-rule="evenodd"/><text fill="#FFFFFF" font-family="Roboto,Roboto_MSFontService,sans-serif" font-weight="400" font-size="50" transform="matrix(1 0 0 1 2278.38 2860)">LAÏCITÉ</text><rect x="2533" y="2614" width="935" height="195" fill="#FF9800"/><rect x="2533" y="2614" width="1299" height="195" stroke="#000000" stroke-width="10.3125" stroke-miterlimit="8" fill="none"/><path d="M3832 2605C3832 2574.62 3856.63 2550 3887 2550L4107 2550C4137.38 2550 4162 2574.62 4162 2605L4162 2825C4162 2855.38 4137.38 2880 4107 2880L3887 2880C3856.63 2880 3832 2855.38 3832 2825Z" stroke="#000000" stroke-width="10.3125" stroke-miterlimit="8" fill="#03A9F4" fill-rule="evenodd"/><path d="M3832.5 2812.5 4162.5 2812.5 4162.5 2825.14C4162.5 2855.71 4137.88 2880.5 4107.5 2880.5L3887.5 2880.5C3857.12 2880.5 3832.5 2855.71 3832.5 2825.14Z" stroke="#000000" stroke-width="4.58333" stroke-miterlimit="8" fill-rule="evenodd"/><text fill="#FFFFFF" font-family="Roboto,Roboto_MSFontService,sans-serif" font-weight="400" font-size="50" transform="matrix(1 0 0 1 3887.25 2864)">RELIGION<tspan fill="#000000" font-size="83" x="-777.789" y="-288">L</tspan><tspan fill="#000000" font-size="66" x="-733.674" y="-288">AÏC</tspan></text><rect x="3403" y="3011" width="429" height="195" fill="#8BC34A"/><path d="M2203 2999C2203 2968.62 2227.62 2944 2258 2944L2478 2944C2508.38 2944 2533 2968.62 2533 2999L2533 3219C2533 3249.38 2508.38 3274 2478 3274L2258 3274C2227.62 3274 2203 3249.38 2203 3219Z" stroke="#000000" stroke-width="10.3125" stroke-miterlimit="8" fill="#9C27B0" fill-rule="evenodd"/><path d="M2203.5 3206.5 2533.5 3206.5 2533.5 3219.14C2533.5 3249.71 2508.88 3274.5 2478.5 3274.5L2258.5 3274.5C2228.12 3274.5 2203.5 3249.71 2203.5 3219.14Z" stroke="#000000" stroke-width="4.58333" stroke-miterlimit="8" fill-rule="evenodd"/><text fill="#FFFFFF" font-family="Roboto,Roboto_MSFontService,sans-serif" font-weight="400" font-size="50" transform="matrix(1 0 0 1 2256.89 3258)">PROGRÈS</text><rect x="2533" y="3011" width="870" height="195" fill="#9C27B0"/><rect x="2533" y="3011" width="1299" height="195" stroke="#000000" stroke-width="10.3125" stroke-miterlimit="8" fill="none"/><path d="M3832 3003C3832 2972.62 3856.63 2948 3887 2948L4107 2948C4137.38 2948 4162 2972.62 4162 3003L4162 3223C4162 3253.38 4137.38 3278 4107 3278L3887 3278C3856.63 3278 3832 3253.38 3832 3223Z" stroke="#000000" stroke-width="10.3125" stroke-miterlimit="8" fill="#8BC34A" fill-rule="evenodd"/><path d="M3832.5 3210.5 4162.5 3210.5 4162.5 3223.14C4162.5 3253.71 4137.88 3278.5 4107.5 3278.5L3887.5 3278.5C3857.12 3278.5 3832.5 3253.71 3832.5 3223.14Z" stroke="#000000" stroke-width="4.58333" stroke-miterlimit="8" fill-rule="evenodd"/><text fill="#FFFFFF" font-family="Roboto,Roboto_MSFontService,sans-serif" font-weight="400" font-size="50" transform="matrix(1 0 0 1 3868.92 3262)">TRADITION<tspan fill="#000000" font-size="83" x="-921.591" y="-290">P</tspan><tspan fill="#000000" font-size="66" x="-869.455" y="-290">ROGRESSISTE</tspan><tspan fill="#000000" font-size="73" x="-1303.17" y="-1318">41%</tspan><tspan fill="#000000" font-size="73" x="-1303.17" y="-920">84%</tspan><tspan fill="#000000" font-size="73" x="-1300.41" y="-523">72%</tspan><tspan fill="#000000" font-size="73" x="-1299.89" y="-128">75%</tspan><tspan fill="#000000" font-size="73" x="-204.508" y="-1314">59%</tspan><tspan fill="#000000" font-size="73" x="-206.552" y="-920">16%</tspan><tspan fill="#000000" font-size="73" x="-206.43" y="-523">28%</tspan><tspan fill="#000000" font-size="73" x="-205.6" y="-125">25%</tspan></text><rect x="2938" y="3405" width="897" height="195" fill="#3F51B5"/><path d="M2206 3392C2206 3361.63 2230.62 3337 2261 3337L2481 3337C2511.38 3337 2536 3361.63 2536 3392L2536 3612C2536 3642.38 2511.38 3667 2481 3667L2261 3667C2230.62 3667 2206 3642.38 2206 3612Z" stroke="#000000" stroke-width="10.3125" stroke-miterlimit="8" fill="#EA90AB" fill-rule="evenodd"/><path d="M2206.5 3600.5 2536.5 3600.5 2536.5 3612.95C2536.5 3643.08 2511.88 3667.5 2481.5 3667.5L2261.5 3667.5C2231.12 3667.5 2206.5 3643.08 2206.5 3612.95Z" stroke="#000000" stroke-width="4.58333" stroke-miterlimit="8" fill-rule="evenodd"/><text fill="#FFFFFF" font-family="Roboto,Roboto_MSFontService,sans-serif" font-weight="400" font-size="37" transform="matrix(1 0 0 1 2247.62 3646)">ASSIMILATION</text><rect x="2536" y="3405" width="402" height="195" fill="#EA90AB"/><rect x="2536" y="3405" width="1299" height="195" stroke="#000000" stroke-width="10.3125" stroke-miterlimit="8" fill="none"/><path d="M3835 3396C3835 3365.62 3859.62 3341 3890 3341L4110 3341C4140.38 3341 4165 3365.62 4165 3396L4165 3616C4165 3646.38 4140.38 3671 4110 3671L3890 3671C3859.62 3671 3835 3646.38 3835 3616Z" stroke="#000000" stroke-width="10.3125" stroke-miterlimit="8" fill="#3F51B5" fill-rule="evenodd"/><path d="M3835.5 3603.5 4165.5 3603.5 4165.5 3616.14C4165.5 3646.71 4140.88 3671.5 4110.5 3671.5L3890.5 3671.5C3860.12 3671.5 3835.5 3646.71 3835.5 3616.14Z" stroke="#000000" stroke-width="4.58333" stroke-miterlimit="8" fill-rule="evenodd"/><text fill="#FFFFFF" font-family="Roboto,Roboto_MSFontService,sans-serif" font-weight="400" font-size="32" transform="matrix(1 0 0 1 3885.14 3648)">MULTICULTURE<tspan fill="#000000" font-size="73" x="-1313.35" y="-120">31%</tspan><tspan fill="#000000" font-size="73" x="-219.064" y="-118">69%</tspan></text><g clip-path="url(#clip1)"><g clip-path="url(#clip2)"><g clip-path="url(#clip3)"><path d="M4049.4 355.14 4068.72 355.14 4068.72 390.972 4049.4 390.972Z"/><path d="M4016.37 355.14 4035.69 355.14 4035.69 390.972 4016.37 390.972Z"/><path d="M3983.34 355.14 4002.66 355.14 4002.66 390.972 3983.34 390.972Z"/><path d="M3950.31 355.14 3969.63 355.14 3969.63 390.972 3950.31 390.972Z"/><path d="M3917.29 355.14 3936.6 355.14 3936.6 390.972 3917.29 390.972Z"/><path d="M3993 315.924 3962.39 341.429 4023.61 341.429Z"/><path d="M4045.02 341.429 4068.71 341.429 4068.71 320.711C4068.71 316.925 4065.65 313.855 4061.86 313.855L4011.94 313.855Z"/><path d="M4052.2 287.683C4052.2 283.897 4049.13 280.827 4045.35 280.827L3940.66 280.827C3936.87 280.827 3933.8 283.897 3933.8 287.683L3933.8 300.145 4052.2 300.145Z"/><path d="M3974.06 313.855 3924.14 313.855C3920.35 313.855 3917.29 316.925 3917.29 320.711L3917.29 341.429 3940.98 341.429Z"/><path d="M3876 361.996 3876 417.144C3876 420.93 3879.07 424 3882.86 424L3895.32 424 3895.32 397.827C3895.32 394.041 3898.39 390.972 3902.17 390.972L3903.57 390.972 3903.57 355.14 3882.86 355.14C3879.07 355.14 3876 358.21 3876 361.996Z"/><path d="M3909.03 404.682 4076.97 404.682 4076.97 424 3909.03 424Z"/><path d="M4103.14 355.14 4082.43 355.14 4082.43 390.972 4083.83 390.972C4087.61 390.972 4090.68 394.041 4090.68 397.827L4090.68 424 4103.14 424C4106.93 424 4110 420.93 4110 417.144L4110 361.996C4110 358.21 4106.93 355.14 4103.14 355.14Z"/><path d="M4035.69 257.458C4035.69 236.217 4020.17 218.602 3999.86 215.322L3999.86 196.856C3999.86 193.07 3996.79 190 3993 190 3989.21 190 3986.14 193.07 3986.14 196.856L3986.14 215.322C3965.83 218.602 3950.31 236.217 3950.31 257.458L3950.31 267.116 4035.69 267.116Z"/></g></g></g><g clip-path="url(#clip4)"><g clip-path="url(#clip5)"><g clip-path="url(#clip6)"><path d="M2330.76 284.77 2364.13 284.77 2397.5 284.77C2401.13 284.77 2404.06 281.823 2404.06 278.183L2404.06 271.004C2404.06 252.178 2389.11 235.918 2368.74 235.918 2379.5 233.768 2387.61 224.238 2387.61 212.8 2387.61 199.781 2377.1 189.229 2364.13 189.229 2351.17 189.229 2340.65 199.781 2340.65 212.8 2340.65 224.238 2348.76 233.768 2359.52 235.918 2339.18 235.918 2324.2 252.153 2324.2 271.004L2324.2 278.183C2324.2 281.822 2327.14 284.77 2330.76 284.77Z"/><path d="M2276.49 303.151C2276.9 303.227 2277.31 303.264 2277.72 303.264 2280.97 303.264 2283.85 300.938 2284.45 297.618 2286.14 288.315 2289.33 279.277 2293.94 270.753 2298.38 262.528 2303.96 255.142 2310.51 248.799 2313.24 246.164 2313.32 241.811 2310.69 239.077 2308.07 236.343 2303.73 236.263 2301.01 238.898 2293.45 246.218 2287.02 254.728 2281.9 264.191 2276.6 273.998 2272.92 284.416 2270.98 295.155 2270.3 298.891 2272.77 302.471 2276.49 303.151Z"/><path d="M2434.33 270.753C2438.94 279.277 2442.13 288.315 2443.81 297.617 2444.42 300.938 2447.3 303.263 2450.54 303.263 2450.95 303.263 2451.36 303.227 2451.78 303.151 2455.5 302.471 2457.97 298.891 2457.29 295.155 2455.34 284.415 2451.67 273.997 2446.36 264.191 2441.25 254.728 2434.82 246.217 2427.25 238.897 2424.53 236.262 2420.2 236.342 2417.57 239.076 2414.95 241.811 2415.03 246.163 2417.75 248.799 2424.3 255.141 2429.88 262.528 2434.33 270.753Z"/><path d="M2391.8 355.671C2382.96 358.586 2373.66 360.081 2364.13 360.113 2364.01 360.117 2363.88 360.117 2363.76 360.117 2354.44 360.117 2345.31 358.719 2336.63 355.964 2333.03 354.818 2329.18 356.826 2328.04 360.447 2326.9 364.069 2328.9 367.928 2332.5 369.074 2342.52 372.255 2353.03 373.869 2363.76 373.869L2364.13 373.869C2375.12 373.828 2385.86 372.104 2396.07 368.735 2399.66 367.552 2401.62 363.665 2400.44 360.057 2399.26 356.45 2395.39 354.483 2391.8 355.671Z"/><path d="M2291.54 373.92C2302.3 371.768 2310.41 362.236 2310.41 350.801 2310.41 337.783 2299.9 327.226 2286.93 327.226 2273.97 327.226 2263.45 337.783 2263.45 350.801 2263.45 362.236 2271.56 371.768 2282.32 373.92 2262 373.92 2247 390.137 2247 409.006L2247 416.184C2247 419.82 2249.94 422.772 2253.56 422.772L2286.93 422.772 2320.3 422.772C2323.93 422.772 2326.86 419.82 2326.86 416.184L2326.86 409.006C2326.86 390.217 2311.95 373.92 2291.54 373.92Z"/><path d="M2445.68 373.92C2456.44 371.768 2464.55 362.236 2464.55 350.801 2464.55 337.783 2454.03 327.226 2441.07 327.226 2428.1 327.226 2417.59 337.783 2417.59 350.801 2417.59 362.236 2425.7 371.768 2436.46 373.92 2416.08 373.92 2401.14 390.175 2401.14 409.005L2401.14 416.184C2401.14 419.819 2404.07 422.771 2407.7 422.771L2441.07 422.771 2474.44 422.771C2478.06 422.771 2481 419.819 2481 416.184L2481 409.006C2481 390.178 2466.05 373.92 2445.68 373.92Z"/></g></g></g><g clip-path="url(#clip7)"><g clip-path="url(#clip8)"><g clip-path="url(#clip9)"><path d="M2361.9 691.412 2374.52 691.412 2436.09 629.844 2387.24 581 2319.37 648.878ZM2368.07 649.702 2392.06 625.306 2401.85 634.933 2368.32 669.038 2348.61 649.991 2358.16 640.118Z"/><path d="M2414.54 670.813 2393.94 691.412 2416.27 691.412 2416.27 705.144 2320.15 705.144 2320.15 691.412 2342.48 691.412 2321.88 670.813 2285.82 670.813 2285.82 725.742 2450.18 725.742 2450.18 670.813Z"/><path d="M2285.82 739.474 2450.18 739.474 2450.18 815 2285.82 815Z"/></g></g></g><g clip-path="url(#clip10)"><g clip-path="url(#clip11)"><g clip-path="url(#clip12)"><path d="M3880 795.5 4016.5 795.5 4016.5 815 3880 815Z"/><path d="M3997 775.842C3997 770.457 3992.63 766.092 3987.25 766.092L3909.25 766.092C3903.87 766.092 3899.5 770.457 3899.5 775.842L3899.5 785.75 3997 785.75Z"/><path d="M4012.66 696.126C4008.12 700.967 4004.31 706.448 4001.36 712.393L4081.61 792.646C4085.42 796.452 4091.59 796.452 4095.39 792.646L4109.18 778.857C4112.99 775.049 4112.99 768.876 4109.18 765.068 4109.18 765.068 4109.18 765.068 4109.18 765.068L4028.93 684.837C4022.98 687.767 4017.49 691.572 4012.66 696.126Z"/><path d="M3964.4 647.865C3957.03 654.708 3948.5 660.18 3939.2 664.024L3989.59 714.417C3993.47 705.137 3998.95 696.61 4005.78 689.225 4013.15 682.383 4021.68 676.91 4030.98 673.064L3980.58 622.681C3976.7 631.957 3971.23 640.481 3964.4 647.865Z"/><path d="M3998.86 585.831C4002.67 582.024 4008.84 582.024 4012.65 585.831L4067.79 640.977C4071.6 644.784 4071.6 650.957 4067.79 654.764L4054 668.55C4050.2 672.357 4044.02 672.357 4040.22 668.55L3985.07 613.404C3981.26 609.597 3981.26 603.425 3985.07 599.618Z"/><path d="M3916.13 668.547C3919.93 664.74 3926.11 664.74 3929.91 668.547L3985.06 723.693C3988.87 727.5 3988.87 733.672 3985.06 737.479L3971.27 751.266C3967.47 755.073 3961.29 755.073 3957.49 751.266L3902.34 696.12C3898.53 692.313 3898.53 686.141 3902.34 682.333Z"/></g></g></g><g clip-path="url(#clip13)"><g clip-path="url(#clip14)"><g clip-path="url(#clip15)"><path d="M199.99 28.1543C197.889 26.9324 195.295 26.9324 193.194 28.1543 185.059 32.6678 175.897 35.0083 166.594 34.95 152.991 35.2508 139.838 30.0738 130.09 20.5818 118.837 9.56665 103.622 3.54779 87.8788 3.88364 75.1999 3.77396 62.8035 7.62984 52.4241 14.9125L52.4241 11.65C52.4241 5.21611 47.2085 0 40.7741 0 34.3397 0 29.1241 5.21565 29.1241 11.65L29.1241 221.35C29.1241 227.784 34.3397 233 40.7741 233 47.208 233 52.4241 227.784 52.4241 221.35L52.4241 120.383C53.7111 120.263 54.937 119.778 55.9578 118.985 65.1968 112.181 76.4058 108.582 87.8788 108.733 101.507 108.42 114.688 113.598 124.46 123.101 135.692 134.101 150.877 140.119 166.594 139.8 178.64 139.94 190.454 136.493 200.534 129.897 202.691 128.402 203.948 125.919 203.874 123.295L203.874 34.95C203.899 32.1504 202.415 29.5541 199.99 28.1543Z" transform="matrix(1 0 0 1.00429 3882 980)"/></g></g></g><g clip-path="url(#clip16)"><g clip-path="url(#clip17)"><g clip-path="url(#clip18)"><path d="M2305.02 1101.89 2250 1101.89C2250.83 1116.36 2254.28 1130.33 2260.13 1143.26L2308.71 1143.26C2306.58 1130.14 2305.33 1116.21 2305.02 1101.89Z"/><path d="M2399.65 1005.05C2394.83 993.615 2389.25 984.755 2383.35 978.926 2380.23 978.492 2377.07 978.183 2373.89 978L2373.89 1032.95 2408.53 1032.95C2406.16 1022.83 2403.18 1013.44 2399.65 1005.05Z"/><path d="M2318.82 1088.11 2360.11 1088.11 2360.11 1046.74 2322.68 1046.74C2320.45 1059.76 2319.14 1073.7 2318.82 1088.11Z"/><path d="M2411.32 1046.74 2373.89 1046.74 2373.89 1088.11 2415.18 1088.11C2414.86 1073.7 2413.55 1059.76 2411.32 1046.74Z"/><path d="M2373.89 1157.05 2373.89 1212C2377.07 1211.82 2380.23 1211.51 2383.35 1211.07 2389.25 1205.24 2394.83 1196.38 2399.65 1184.95 2403.18 1176.56 2406.16 1167.17 2408.53 1157.05Z"/><path d="M2334.35 1005.05C2330.82 1013.44 2327.84 1022.83 2325.47 1032.95L2360.1 1032.95 2360.1 978C2356.93 978.183 2353.77 978.492 2350.65 978.926 2344.75 984.755 2339.17 993.615 2334.35 1005.05Z"/><path d="M2334.35 1184.95C2339.17 1196.38 2344.75 1205.24 2350.65 1211.07 2353.77 1211.51 2356.93 1211.82 2360.1 1212L2360.1 1157.05 2325.47 1157.05C2327.84 1167.17 2330.82 1176.56 2334.35 1184.95Z"/><path d="M2308.71 1046.74 2260.13 1046.74C2254.28 1059.67 2250.83 1073.64 2250 1088.11L2305.02 1088.11C2305.33 1073.79 2306.58 1059.86 2308.71 1046.74Z"/><path d="M2321.64 999.697C2324.11 993.844 2326.78 988.558 2329.63 983.853 2312.67 989.537 2297.14 999.109 2284.12 1012.12 2277.74 1018.5 2272.2 1025.49 2267.52 1032.95L2311.34 1032.95C2314 1020.86 2317.45 1009.65 2321.64 999.697Z"/><path d="M2311.34 1157.05 2267.52 1157.05C2272.2 1164.51 2277.74 1171.5 2284.12 1177.88 2297.14 1190.89 2312.67 1200.46 2329.63 1206.15 2326.78 1201.44 2324.11 1196.16 2321.64 1190.3 2317.45 1180.35 2314 1169.14 2311.34 1157.05Z"/><path d="M2422.66 1032.95 2466.48 1032.95C2461.8 1025.49 2456.26 1018.5 2449.88 1012.12 2436.86 999.109 2421.33 989.536 2404.37 983.853 2407.22 988.558 2409.89 993.844 2412.35 999.697 2416.55 1009.65 2420 1020.86 2422.66 1032.95Z"/><path d="M2412.35 1190.3C2409.89 1196.16 2407.22 1201.44 2404.37 1206.15 2421.33 1200.46 2436.86 1190.89 2449.88 1177.88 2456.26 1171.5 2461.8 1164.51 2466.48 1157.05L2422.66 1157.05C2420 1169.14 2416.55 1180.35 2412.35 1190.3Z"/><path d="M2322.68 1143.26 2360.11 1143.26 2360.11 1101.89 2318.82 1101.89C2319.14 1116.3 2320.45 1130.24 2322.68 1143.26Z"/><path d="M2415.18 1101.89 2373.89 1101.89 2373.89 1143.26 2411.32 1143.26C2413.55 1130.24 2414.86 1116.3 2415.18 1101.89Z"/><path d="M2425.29 1143.26 2473.87 1143.26C2479.71 1130.33 2483.17 1116.36 2484 1101.89L2428.98 1101.89C2428.67 1116.21 2427.42 1130.14 2425.29 1143.26Z"/><path d="M2428.98 1088.11 2484 1088.11C2483.17 1073.64 2479.71 1059.67 2473.87 1046.74L2425.29 1046.74C2427.42 1059.86 2428.67 1073.79 2428.98 1088.11Z"/></g></g></g><g clip-path="url(#clip19)"><g clip-path="url(#clip20)"><g clip-path="url(#clip21)"><path d="M129.706 90.2189C129.706 87.7736 129.37 85.4075 128.754 83.1583L233 83.1583 233 70.6061 121.104 70.6061C117.51 67.2931 112.97 64.9592 107.478 64.0162 107.478 60.6216 107.478 58.25 107.478 58.2461L107.478 58.0806C107.478 57.9472 107.739 57.9095 107.736 57.7777 107.525 50.4865 101.793 44.7172 94.4521 44.7172L39.2256 44.7172 39.2256 66.682C30.596 71.1725 25.2346 80.0265 25.2346 90.2189 25.2346 90.3201 25.3076 90.4189 25.3084 90.5201 26.937 90.3287 28.6559 90.2189 30.3339 90.2189L129.706 90.2189Z" transform="matrix(1 0 0 1.00429 2254 1380)"/><path d="M207.111 162.982 207.111 162.768C221.232 160.431 232.216 148.212 232.216 133.297L232.216 133.037C232.216 116.426 219.013 102.771 202.404 102.771L30.3339 102.771C13.725 102.771 0 116.426 0 133.036L0 133.296C0 148.212 10.9832 160.43 25.1044 162.767L25.1044 162.982C25.1044 167.616 26.4867 171.956 28.6621 175.691 33.046 183.22 41.3273 188.283 50.6661 188.283L182.072 188.283C191.411 188.283 199.431 183.22 203.815 175.692 205.99 171.956 207.111 167.616 207.111 162.982ZM137.629 175.142C130.585 175.142 124.876 169.433 124.876 162.389 124.876 155.345 130.585 149.636 137.629 149.636 144.673 149.636 150.385 155.345 150.385 162.389 150.385 169.433 144.673 175.142 137.629 175.142ZM81.7281 162.389C81.7281 155.345 87.437 149.636 94.4811 149.636 101.525 149.636 107.237 155.345 107.237 162.389 107.237 169.433 101.526 175.142 94.4811 175.142 87.437 175.142 81.7281 169.433 81.7281 162.389ZM38.5799 162.389C38.5799 155.345 44.2888 149.636 51.333 149.636 58.3771 149.636 64.0891 155.345 64.0891 162.389 64.0891 169.433 58.3779 175.142 51.333 175.142 44.2888 175.142 38.5799 169.433 38.5799 162.389ZM180.777 175.142C173.733 175.142 168.024 169.433 168.024 162.389 168.024 155.345 173.733 149.636 180.777 149.636 187.822 149.636 193.534 155.345 193.534 162.389 193.533 169.433 187.822 175.142 180.777 175.142Z" transform="matrix(1 0 0 1.00429 2254 1380)"/></g></g></g><g clip-path="url(#clip22)"><g clip-path="url(#clip23)"><g clip-path="url(#clip24)"><path d="M4000 1380C3935.74 1380 3883 1432.74 3883 1497 3883 1561.26 3935.74 1614 4000 1614 4064.26 1614 4117 1561.26 4117 1497 4117 1432.74 4064.26 1380 4000 1380ZM3986.29 1585.42C3968.57 1582.67 3952.61 1574.28 3939.96 1562.72L3986.29 1516.39ZM3986.29 1477.61 3922.69 1541.21C3915.21 1528.17 3910.42 1513.11 3910.42 1497 3910.42 1452.45 3943.6 1415.19 3986.29 1408.58ZM4013.71 1585.42 4013.71 1516.39 4060.04 1562.72C4047.39 1574.28 4031.43 1582.67 4013.71 1585.42ZM4077.31 1541.21 4013.71 1477.61 4013.71 1408.58C4056.4 1415.19 4089.58 1452.45 4089.58 1497 4089.58 1513.11 4084.79 1528.17 4077.31 1541.21Z"/></g></g></g><g clip-path="url(#clip25)"><g clip-path="url(#clip26)"><g clip-path="url(#clip27)"><path d="M2409.27 1928.69C2420.54 1913.02 2427.47 1895.02 2429.63 1876.01L2367 1858.2 2304.37 1876.01C2306.53 1895.02 2313.46 1913.02 2324.73 1928.69 2335.71 1943.95 2350.28 1956.22 2367 1964.34 2383.72 1956.22 2398.29 1943.95 2409.27 1928.69Z"/><path d="M2367 1843.67 2430.36 1861.69 2430.36 1832.63 2367 1814.61 2303.64 1832.63 2303.64 1861.69Z"/><path d="M2373.99 1773 2373.99 1802.06 2444.34 1822.07 2444.34 1863.08C2444.34 1889.76 2436.14 1915.28 2420.61 1936.86 2408.48 1953.72 2392.42 1967.35 2373.99 1976.48L2373.99 2007C2401.83 1996.15 2425.72 1977.63 2443.3 1953.18 2462.27 1926.82 2472.3 1895.66 2472.3 1863.08L2472.3 1800.95Z"/><path d="M2360.01 1976.48C2341.58 1967.35 2325.52 1953.72 2313.39 1936.86 2297.86 1915.28 2289.66 1889.76 2289.66 1863.08L2289.66 1822.07 2360.01 1802.06 2360.01 1773 2261.7 1800.95 2261.7 1863.08C2261.7 1895.66 2271.73 1926.82 2290.7 1953.18 2308.28 1977.63 2332.17 1996.15 2360.01 2007Z"/></g></g></g><g clip-path="url(#clip28)"><g clip-path="url(#clip29)"><g clip-path="url(#clip30)"><path d="M48.2069 187.404C48.2069 190.393 50.6373 192.828 53.6267 192.828 54.6114 192.828 55.5745 192.563 56.4101 192.061L89.2601 172.347C88.7168 170.91 88.3793 169.363 88.3793 167.735L88.3793 165.768C88.3793 164.756 88.4988 163.738 88.7324 162.751L90.99 153.261 50.5409 181.267C49.0778 182.278 48.2069 183.942 48.2069 185.717Z" transform="matrix(1.00429 0 0 1 3919.34 1778)"/><path d="M124.535 198.175C122.418 199.842 119.774 200.862 116.865 200.862 110.021 200.862 104.448 195.289 104.448 188.445L104.448 185.388C104.448 184.801 104.487 184.215 104.572 183.628L105.147 180.197C103.958 180.554 102.712 180.776 101.42 180.776 98.8126 180.776 96.3902 179.99 94.3484 178.663L60.5469 198.942C59.2192 199.742 57.7519 200.272 56.2374 200.574L56.2374 216.931 124.531 216.931 124.531 198.175Z" transform="matrix(1.00429 0 0 1 3919.34 1778)"/><path d="M60.2938 35.8021C65.4529 34.9665 70.2093 32.5754 73.974 28.8072L80.3448 22.4401 86.7162 28.8112C90.4804 32.5754 95.2408 34.9704 100.396 35.806 100.343 32.9088 99.6447 30.1862 98.4912 27.7107L108.75 17.4519C110.317 15.8846 110.317 13.3365 108.75 11.7712 107.185 10.2 104.637 10.2039 103.071 11.7712L93.6264 21.2102C91.0392 18.8975 87.8887 17.1969 84.3621 16.475L84.3621 4.01724C84.3621 1.8007 82.5614 0 80.3448 0 78.1283 0 76.3276 1.8007 76.3276 4.01724L76.3276 16.475C72.801 17.1929 69.6505 18.8975 67.0633 21.2102L57.6183 11.7673C56.0531 10.1961 53.5051 10.1961 51.9399 11.7673 50.3727 13.3326 50.3727 15.8807 51.9399 17.446L62.1985 27.7068C61.0415 30.1823 60.347 32.9088 60.2938 35.8021Z" transform="matrix(1.00429 0 0 1 3919.34 1778)"/><path d="M56.2414 167.547 93.7795 141.555 96.0312 132.094 60.692 154.583C59.3271 155.454 57.8126 156.029 56.2414 156.359Z" transform="matrix(1.00429 0 0 1 3919.34 1778)"/><path d="M98.5379 121.561 102.516 104.866 50.7061 137.246C49.1387 138.23 48.2069 139.913 48.2069 141.761L48.2069 143.322C48.2069 146.251 50.5942 148.638 53.5227 148.638 54.5351 148.638 55.5213 148.354 56.375 147.806L98.2693 121.143Z" transform="matrix(1.00429 0 0 1 3919.34 1778)"/><path d="M100.431 43.9484C93.1026 43.0696 86.3315 39.786 81.0353 34.4918L80.3448 33.8013 79.6544 34.4918C74.3582 39.786 67.5871 43.0735 60.2586 43.9484L60.2586 44.1897C60.2586 55.2647 69.2698 64.2759 80.3448 64.2759 91.4199 64.2759 100.431 55.2647 100.431 44.1897Z" transform="matrix(1.00429 0 0 1 3919.34 1778)"/><path d="M96.4138 165.768 96.4138 167.735C96.4138 170.495 98.66 172.741 101.42 172.741 103.721 172.741 105.717 171.182 106.277 168.954L108.585 159.717 112.483 160.69 116.443 161.353 112.51 184.866C112.494 184.977 112.483 185.187 112.483 185.388L112.483 188.445C112.483 190.864 114.446 192.828 116.865 192.828 119.148 192.828 121.023 191.113 121.227 188.846L124.535 152.463 124.535 98.0775 114.725 88.2673 96.5509 164.603C96.459 164.984 96.4138 165.378 96.4138 165.768Z" transform="matrix(1.00429 0 0 1 3919.34 1778)"/><path d="M56.2414 124.317 105.164 93.7423 106.875 86.551C98.3577 92.9103 87.8204 96.4138 77.1868 96.4138 67.9948 96.4138 58.9972 93.8679 51.1706 89.0502L32.1379 77.3359 32.1379 92.3966C32.1379 93.1674 32.0497 93.9146 31.9085 94.6462L56.2414 110.29Z" transform="matrix(1.00429 0 0 1 3919.34 1778)"/><path d="M32.1379 224.966 152.655 224.966 152.655 233 32.1379 233Z" transform="matrix(1.00429 0 0 1 3919.34 1778)"/><path d="M16.069 92.3966C16.069 94.6131 17.8736 96.4138 20.0862 96.4138 22.2989 96.4138 24.1035 94.6131 24.1035 92.3966L24.1035 48.2069 16.069 48.2069Z" transform="matrix(1.00429 0 0 1 3919.34 1778)"/><path d="M80.3448 72.3104C77.34 72.3104 74.4526 71.8238 71.7354 70.949 70.6507 76.6118 68.0049 81.8398 64.0464 86.1568 68.2735 87.5673 72.689 88.3793 77.1868 88.3793 83.3658 88.3793 89.4876 86.9417 95.0525 84.3013 91.9748 80.3725 89.8858 75.8255 88.9543 70.953 86.2371 71.8238 83.3497 72.3104 80.3448 72.3104Z" transform="matrix(1.00429 0 0 1 3919.34 1778)"/><path d="M20.0862 24.1035C24.5173 24.1035 28.1207 20.5001 28.1207 16.069 28.1207 14.3173 27.5656 12.65 26.5142 11.2475L20.0862 2.67947 13.6582 11.2475C12.6069 12.65 12.0517 14.3173 12.0517 16.069 12.0517 20.5001 15.6551 24.1035 20.0862 24.1035Z" transform="matrix(1.00429 0 0 1 3919.34 1778)"/><path d="M0 70.6507C0 72.8321 1.09258 74.8367 2.92858 76.0138L8.03448 79.2953 8.03448 64.2759 6.37501 64.2759C2.85993 64.2759 0 67.1357 0 70.6507Z" transform="matrix(1.00429 0 0 1 3919.34 1778)"/><path d="M8.03448 32.1379 32.1379 32.1379 32.1379 40.1724 8.03448 40.1724Z" transform="matrix(1.00429 0 0 1 3919.34 1778)"/></g></g></g><g clip-path="url(#clip31)"><g clip-path="url(#clip32)"><g clip-path="url(#clip33)"><path d="M83.7344 167.469 98.2969 167.469 98.2969 222.078 83.7344 222.078Z" transform="matrix(1.00429 0 0 1 3880 2168)"/><path d="M105.578 222.078 120.141 222.078 120.141 145.625 105.578 165.04Z" transform="matrix(1.00429 0 0 1 3880 2168)"/><path d="M127.422 138.344 141.984 138.344 141.984 222.078 127.422 222.078Z" transform="matrix(1.00429 0 0 1 3880 2168)"/><path d="M32.7656 222.078 32.7656 198.483 12.1196 222.078Z" transform="matrix(1.00429 0 0 1 3880 2168)"/><path d="M40.0469 222.078 54.6094 222.078 54.6094 173.52 40.0469 190.161Z" transform="matrix(1.00429 0 0 1 3880 2168)"/><path d="M61.8906 167.469 76.4531 167.469 76.4531 222.078 61.8906 222.078Z" transform="matrix(1.00429 0 0 1 3880 2168)"/><path d="M149.266 138.344 149.266 222.078 163.828 222.078 163.828 132.57 158.054 138.344Z" transform="matrix(1.00429 0 0 1 3880 2168)"/><path d="M174.75 25.4844C156.682 25.4844 141.984 40.1816 141.984 58.25 141.984 76.3184 156.682 91.0156 174.75 91.0156 192.818 91.0156 207.516 76.3184 207.516 58.25 207.516 40.1816 192.818 25.4844 174.75 25.4844ZM189.313 50.9688 182.031 50.9688 182.031 47.3281 171.109 47.3281C169.1 47.3281 167.469 48.9591 167.469 50.9688 167.469 52.9784 169.1 54.6094 171.109 54.6094L178.391 54.6094C184.412 54.6094 189.313 59.5097 189.313 65.5313 189.313 71.5529 184.412 76.4531 178.391 76.4531L178.391 83.7344 171.109 83.7344 171.109 76.4531 160.188 76.4531 160.188 65.5313 167.469 65.5313 167.469 69.1719 178.391 69.1719C180.4 69.1719 182.031 67.5409 182.031 65.5313 182.031 63.5216 180.4 61.8906 178.391 61.8906L171.109 61.8906C165.088 61.8906 160.188 56.9904 160.188 50.9688 160.188 44.9472 165.088 40.0469 171.109 40.0469L171.109 32.7656 178.391 32.7656 178.391 40.0469 189.313 40.0469Z" transform="matrix(1.00429 0 0 1 3880 2168)"/><path d="M171.109 125.289 171.109 222.078 185.672 222.078 185.672 111.76C185.271 111.84 184.856 111.873 184.452 111.946Z" transform="matrix(1.00429 0 0 1 3880 2168)"/><path d="M174.75 10.9219C148.654 10.9219 127.422 32.154 127.422 58.25 127.422 84.346 148.654 105.578 174.75 105.578 200.846 105.578 222.078 84.346 222.078 58.25 222.078 32.154 200.846 10.9219 174.75 10.9219ZM174.75 98.2969C152.67 98.2969 134.703 80.3304 134.703 58.25 134.703 36.1696 152.67 18.2031 174.75 18.2031 196.83 18.2031 214.797 36.1696 214.797 58.25 214.797 80.3304 196.83 98.2969 174.75 98.2969Z" transform="matrix(1.00429 0 0 1 3880 2168)"/><path d="M192.953 222.078 207.516 222.078 207.516 101.836C203.125 105.145 198.228 107.803 192.953 109.674Z" transform="matrix(1.00429 0 0 1 3880 2168)"/><path d="M25.4844 138.344 32.7656 138.344 32.7656 123.781 40.0469 123.781 40.0469 80.0938 32.7656 80.0938 32.7656 65.5313 25.4844 65.5313 25.4844 80.0938 18.2031 80.0938 18.2031 123.781 25.4844 123.781Z" transform="matrix(1.00429 0 0 1 3880 2168)"/><path d="M54.6094 120.141 61.8906 120.141 61.8906 105.578 69.1719 105.578 69.1719 69.1719 61.8906 69.1719 61.8906 54.6094 54.6094 54.6094 54.6094 69.1719 47.3281 69.1719 47.3281 105.578 54.6094 105.578Z" transform="matrix(1.00429 0 0 1 3880 2168)"/><path d="M83.7344 94.6563 91.0156 94.6563 91.0156 80.0938 98.2969 80.0938 98.2969 50.9688 91.0156 50.9688 91.0156 36.4063 83.7344 36.4063 83.7344 50.9688 76.4531 50.9688 76.4531 80.0938 83.7344 80.0938Z" transform="matrix(1.00429 0 0 1 3880 2168)"/><path d="M162.998 111.556C160.282 110.959 157.654 110.14 155.102 109.153L147.758 116.5 118.488 116.5 93.0034 145.625 49.3742 145.625 4.60903 194.122 9.95711 199.062 52.5597 152.906 96.3091 152.906 121.793 123.781 150.773 123.781Z" transform="matrix(1.00429 0 0 1 3880 2168)"/></g></g></g><g clip-path="url(#clip34)"><g clip-path="url(#clip35)"><g clip-path="url(#clip36)"><path d="M48.2383 177.936C75.0297 177.936 96.0215 162.943 96.0215 143.805L96.0215 136.979 80.6945 136.979 59.9511 64.3822C67.5031 63.0315 73.6285 61.5398 79.2096 60.1641 88.6429 57.845 97.2434 55.8854 109.674 55.3143L109.674 195.216 52.9848 233 180.002 233 123.326 195.216 123.326 55.3143C135.757 55.885 144.357 57.845 153.79 60.1641 159.372 61.5398 165.497 63.0315 173.049 64.3822L152.306 136.979 136.979 136.979 136.979 143.805C136.979 162.943 157.97 177.936 184.762 177.936 211.553 177.936 233 162.943 233 143.805L233 136.979 217.218 136.979 197.338 67.4062C207.057 68.1944 218.877 68.7168 233 68.7168L233 55.0645C192.056 55.0645 174.536 42.4588 159.477 31.3394 148.942 23.5548 138.911 15.7098 123.326 14.0196L123.326 2.7485e-14 109.674 2.7485e-14 109.674 14.0196C94.0892 15.7093 84.0584 23.5548 73.5233 31.3394 58.4644 42.4588 40.9438 55.0645 0 55.0645L0 68.7168C14.1197 68.7168 25.939 68.1953 35.6567 67.4071L15.7821 136.979-3.23353e-15 136.979-3.23353e-15 143.805C-3.23353e-15 162.943 21.4469 177.936 48.2383 177.936ZM203.015 136.979 166.509 136.979 184.76 73.1006ZM48.236 73.0906 66.491 136.979 29.9846 136.979Z" transform="matrix(1.00429 0 0 1 2251 2168)"/></g></g></g><g clip-path="url(#clip37)"><g clip-path="url(#clip38)"><g clip-path="url(#clip39)"><path d="M53.6395 187.16 34.051 214.072C30.179 219.395 31.3512 226.846 36.6726 230.718 38.7937 232.258 41.249 233 43.6749 233 47.361 233 50.9902 231.3 53.3215 228.099L73.0648 200.974C86.0276 207.885 100.811 211.817 116.503 211.817 167.601 211.817 209.171 170.245 209.171 119.146 209.171 93.095 198.352 69.54 180.994 52.6873L205.57 18.9249C209.442 13.6018 208.268 6.15286 202.95 2.2792 197.614-1.59609 190.168-0.412473 186.306 4.90077L161.913 38.4138C148.477 30.8246 132.992 26.4749 116.498 26.4749 65.399 26.4749 23.8273 68.0467 23.8273 119.144 23.8273 146.007 35.3211 170.221 53.6395 187.16ZM185.339 119.144C185.339 157.105 154.461 187.987 116.497 187.987 106.051 187.987 96.1812 185.579 87.3057 181.402L166.75 72.2497C178.245 84.5554 185.339 101.022 185.339 119.144ZM116.498 50.3054C127.749 50.3054 138.35 53.0737 147.734 57.8799L67.7777 167.733C55.3497 155.273 47.6529 138.092 47.6529 119.148 47.6578 81.1871 78.5378 50.3054 116.498 50.3054Z" transform="matrix(1.00429 0 0 1 2250 2561)"/></g></g></g><g clip-path="url(#clip40)"><g clip-path="url(#clip41)"><g clip-path="url(#clip42)"><path d="M0 160.469 0 232.627 57.1 232.627 57.1 126.575ZM22.7384 200.696 22.7384 175.115 36.303 175.115 36.303 200.696Z" transform="matrix(1 0 0 1.00429 3882 2566)"/><path d="M233 160.468 175.859 126.574 175.859 232.627 233 232.627ZM211.667 200.696 198.103 200.696 198.103 175.115 211.667 175.115Z" transform="matrix(1 0 0 1.00429 3882 2566)"/><path d="M70.2968 232.627 96.1321 232.627 96.1321 185.942C96.1321 174.723 105.26 165.595 116.479 165.595 127.699 165.595 136.826 174.722 136.826 185.942L136.826 232.627 162.661 232.627 162.661 100.009 200.335 123.742 207.564 112.265 122.887 58.9208 122.887 28.5694 137.694 28.5694 137.694 15.0048 122.887 15.0048 122.887 0.373164 109.323 0.373164 109.323 15.0044 95.2643 15.0044 95.2643 28.5689 109.323 28.5689 109.323 59.3913 25.3925 112.265 32.6223 123.742 70.2968 100.008ZM109.697 104.093 123.262 104.093 123.262 131.222 109.697 131.222Z" transform="matrix(1 0 0 1.00429 3882 2566)"/><path d="M123.262 185.942C123.262 182.202 120.219 179.159 116.479 179.159 112.739 179.159 109.697 182.202 109.697 185.942L109.697 232.627 123.261 232.627 123.261 185.942Z" transform="matrix(1 0 0 1.00429 3882 2566)"/></g></g></g><g clip-path="url(#clip43)"><g clip-path="url(#clip44)"><g clip-path="url(#clip45)"><path d="M2263.07 3133.27C2272.85 3150.21 2298.13 3149.77 2324.64 3142.84 2332.57 3171.07 2345.82 3192 2364 3192 2382.17 3192 2395.43 3171.08 2403.35 3142.86 2429.83 3149.8 2455.12 3150.26 2464.93 3133.27 2474.82 3116.14 2461.71 3094.44 2442.42 3075 2461.72 3055.55 2474.81 3033.85 2464.93 3016.73 2455.88 3001.03 2431.62 2999.76 2403.3 3006.94 2395.37 2978.83 2382.13 2958 2364 2958 2345.87 2958 2332.63 2978.83 2324.7 3006.94 2296.39 2999.76 2272.13 3001.03 2263.07 3016.73 2253.18 3033.86 2266.29 3055.56 2285.58 3075 2266.28 3094.45 2253.19 3116.15 2263.07 3133.27ZM2274.95 3126.42C2268.96 3116.06 2279.85 3099.99 2295.61 3084.49 2302.67 3090.73 2310.09 3096.55 2317.31 3101.74 2318.21 3111.38 2319.59 3120.8 2321.45 3129.73 2297.43 3135.77 2279.63 3134.52 2274.95 3126.42ZM2346.86 3045.32C2351.77 3042.48 2357.64 3039.46 2363.99 3036.48 2370.27 3039.42 2376.13 3042.42 2381.14 3045.32 2385.69 3047.94 2391.4 3051.6 2397.6 3055.93 2398.02 3062.09 2398.28 3068.43 2398.28 3075 2398.28 3081.56 2398.02 3087.91 2397.6 3094.06 2391.54 3098.3 2385.85 3101.96 2381.14 3104.68 2375.35 3108.02 2369.63 3111.03 2364 3113.78 2358.36 3111.03 2352.64 3108.02 2346.86 3104.68 2342.31 3102.06 2336.6 3098.4 2330.4 3094.07 2329.98 3087.91 2329.72 3081.57 2329.72 3075 2329.72 3068.44 2329.98 3062.09 2330.4 3055.94 2336.46 3051.7 2342.14 3048.04 2346.86 3045.32ZM2332.25 3038.15C2332.91 3033.46 2333.65 3028.91 2334.52 3024.6 2338.85 3026.07 2343.16 3027.65 2347.43 3029.34 2344.94 3030.68 2342.45 3032.03 2340.01 3033.44 2337.58 3034.84 2334.96 3036.44 2332.25 3038.15ZM2380.51 3029.3C2384.78 3027.6 2389.11 3026 2393.46 3024.51 2394.34 3028.84 2395.09 3033.43 2395.75 3038.15 2393.04 3036.44 2390.41 3034.84 2387.99 3033.44 2385.53 3032.02 2383.02 3030.65 2380.51 3029.3ZM2411.83 3066.47C2415.29 3069.18 2418.73 3072.04 2422.12 3074.95 2418.74 3077.88 2415.3 3080.75 2411.83 3083.49 2411.91 3080.66 2411.99 3077.82 2411.99 3075 2411.99 3072.16 2411.91 3069.32 2411.83 3066.47ZM2395.75 3111.85C2395.07 3116.72 2394.29 3121.43 2393.37 3125.89 2389.06 3124.45 2384.59 3122.77 2380.02 3120.92 2382.86 3119.43 2385.56 3117.96 2387.99 3116.56 2390.42 3115.16 2393.04 3113.56 2395.75 3111.85ZM2347.97 3120.92C2343.41 3122.76 2338.94 3124.44 2334.63 3125.88 2333.71 3121.43 2332.93 3116.72 2332.25 3111.85 2334.96 3113.56 2337.59 3115.16 2340.01 3116.56 2342.43 3117.96 2345.14 3119.43 2347.97 3120.92ZM2316.17 3083.53C2312.71 3080.82 2309.27 3077.96 2305.88 3075.05 2309.26 3072.12 2312.7 3069.25 2316.17 3066.51 2316.09 3069.34 2316.01 3072.18 2316.01 3075 2316.01 3077.84 2316.09 3080.68 2316.17 3083.53ZM2364 3178.29C2354.6 3178.29 2344.58 3162.93 2337.81 3138.96 2346.87 3135.95 2355.77 3132.4 2363.99 3128.7 2372.22 3132.4 2381.11 3135.96 2390.18 3138.97 2383.41 3162.94 2373.4 3178.29 2364 3178.29ZM2453.05 3126.42C2448.38 3134.54 2430.57 3135.79 2406.55 3129.74 2408.41 3120.81 2409.79 3111.38 2410.69 3101.75 2417.94 3096.53 2425.39 3090.69 2432.47 3084.42 2448.19 3099.79 2459.16 3115.84 2453.05 3126.42ZM2453.05 3023.58C2459.04 3033.94 2448.15 3050.01 2432.39 3065.51 2425.33 3059.27 2417.91 3053.45 2410.69 3048.26 2409.8 3038.68 2408.43 3029.31 2406.59 3020.43 2428.03 3014.58 2447.2 3013.43 2453.05 3023.58ZM2364 2971.71C2373.37 2971.71 2383.35 2986.97 2390.12 3010.79 2381.52 3013.62 2372.74 3017.11 2364 3021.11 2355.27 3017.11 2346.48 3013.62 2337.88 3010.79 2344.65 2986.96 2354.63 2971.71 2364 2971.71ZM2274.95 3023.58C2280.65 3013.71 2299.79 3014.78 2321.38 3020.59 2319.55 3029.42 2318.2 3038.74 2317.31 3048.25 2310.06 3053.47 2302.61 3059.31 2295.53 3065.58 2279.81 3050.21 2268.84 3034.16 2274.95 3023.58Z"/><path d="M2384.57 3075C2384.57 3086.36 2375.36 3095.57 2364 3095.57 2352.64 3095.57 2343.43 3086.36 2343.43 3075 2343.43 3063.64 2352.64 3054.43 2364 3054.43 2375.36 3054.43 2384.57 3063.64 2384.57 3075Z"/></g></g></g><g clip-path="url(#clip46)"><g clip-path="url(#clip47)"><g clip-path="url(#clip48)"><path d="M4106.34 3010.53 4099.03 3010.53C4097.01 3010.53 4095.37 3008.89 4095.37 3006.88 4095.37 3004.86 4097.01 3003.22 4099.03 3003.22L4106.34 3003.22C4108.36 3003.22 4110 3004.86 4110 3006.88 4110 3008.89 4108.36 3010.53 4106.34 3010.53Z"/><path d="M4077.09 3010.53 4069.78 3010.53C4067.76 3010.53 4066.12 3008.89 4066.12 3006.88 4066.12 3004.86 4067.76 3003.22 4069.78 3003.22L4077.09 3003.22C4079.11 3003.22 4080.75 3004.86 4080.75 3006.88 4080.75 3008.89 4079.11 3010.53 4077.09 3010.53Z"/><path d="M4088.06 3028.81C4086.04 3028.81 4084.4 3027.18 4084.4 3025.16L4084.4 3017.84C4084.4 3015.82 4086.04 3014.19 4088.06 3014.19 4090.08 3014.19 4091.72 3015.82 4091.72 3017.84L4091.72 3025.16C4091.72 3027.18 4090.08 3028.81 4088.06 3028.81Z"/><path d="M4088.06 2999.56C4086.04 2999.56 4084.4 2997.93 4084.4 2995.91L4084.4 2988.59C4084.4 2986.57 4086.04 2984.94 4088.06 2984.94 4090.08 2984.94 4091.72 2986.57 4091.72 2988.59L4091.72 2995.91C4091.72 2997.93 4090.08 2999.56 4088.06 2999.56Z"/><path d="M3916.22 3156.78 3908.9 3156.78C3906.88 3156.78 3905.25 3155.14 3905.25 3153.13 3905.25 3151.11 3906.88 3149.47 3908.9 3149.47L3916.22 3149.47C3918.24 3149.47 3919.87 3151.11 3919.87 3153.13 3919.87 3155.14 3918.24 3156.78 3916.22 3156.78Z"/><path d="M3886.97 3156.78 3879.65 3156.78C3877.63 3156.78 3876 3155.14 3876 3153.13 3876 3151.11 3877.63 3149.47 3879.65 3149.47L3886.97 3149.47C3888.99 3149.47 3890.62 3151.11 3890.62 3153.13 3890.62 3155.14 3888.99 3156.78 3886.97 3156.78Z"/><path d="M3897.93 3175.06C3895.92 3175.06 3894.28 3173.43 3894.28 3171.41L3894.28 3164.09C3894.28 3162.07 3895.92 3160.44 3897.93 3160.44 3899.95 3160.44 3901.59 3162.07 3901.59 3164.09L3901.59 3171.41C3901.59 3173.43 3899.95 3175.06 3897.93 3175.06Z"/><path d="M3897.93 3145.81C3895.92 3145.81 3894.28 3144.18 3894.28 3142.16L3894.28 3134.84C3894.28 3132.82 3895.92 3131.19 3897.93 3131.19 3899.95 3131.19 3901.59 3132.82 3901.59 3134.84L3901.59 3142.16C3901.59 3144.18 3899.95 3145.81 3897.93 3145.81Z"/><path d="M3952.78 2966.66C3952.78 2968.68 3951.14 2970.31 3949.12 2970.31 3947.1 2970.31 3945.47 2968.68 3945.47 2966.66 3945.47 2964.64 3947.1 2963 3949.12 2963 3951.14 2963 3952.78 2964.64 3952.78 2966.66Z"/><path d="M4040.53 2966.66C4040.53 2968.68 4038.89 2970.31 4036.87 2970.31 4034.85 2970.31 4033.22 2968.68 4033.22 2966.66 4033.22 2964.64 4034.85 2963 4036.87 2963 4038.89 2963 4040.53 2964.64 4040.53 2966.66Z"/><path d="M3996.36 3191.95C3996.28 3191.72 3996.17 3191.5 3996.03 3191.3 3995.9 3191.1 3995.75 3190.92 3995.59 3190.75 3994.14 3189.33 3991.82 3189.36 3990.4 3190.81 3989.01 3192.24 3989.01 3194.51 3990.4 3195.94 3990.58 3196.09 3990.77 3196.23 3990.95 3196.38 3991.15 3196.52 3991.37 3196.63 3991.61 3196.71 3991.81 3196.81 3992.04 3196.89 3992.27 3196.93 3992.75 3197.02 3993.25 3197.02 3993.73 3196.93 3993.96 3196.89 3994.18 3196.81 3994.39 3196.71 3994.62 3196.63 3994.84 3196.52 3995.05 3196.38L3995.59 3195.94C3996.26 3195.24 3996.64 3194.31 3996.65 3193.34 3996.65 3193.11 3996.62 3192.88 3996.58 3192.65 3996.55 3192.41 3996.47 3192.17 3996.36 3191.95Z"/><path d="M4058.81 3050.75C4058.81 3015.7 4031.24 2987.04 3996.65 2985.12L3996.65 2970.31 4022.25 2970.31C4024.27 2970.31 4025.9 2968.68 4025.9 2966.66 4025.9 2964.64 4024.27 2963 4022.25 2963L3963.75 2963C3961.73 2963 3960.09 2964.64 3960.09 2966.66 3960.09 2968.68 3961.73 2970.31 3963.75 2970.31L3989.34 2970.31 3989.34 2985.12C3954.75 2987.04 3927.18 3015.7 3927.18 3050.75 3927.18 3085.81 3954.75 3114.47 3989.34 3116.38L3989.34 3128.42 3972.13 3145.63C3970.7 3147.06 3970.7 3149.37 3972.13 3150.8L3989.34 3168.01 3989.34 3178.72C3989.34 3180.74 3990.98 3182.38 3993 3182.38 3995.02 3182.38 3996.65 3180.74 3996.65 3178.72L3996.65 3168.01 4013.86 3150.8C4015.29 3149.37 4015.29 3147.06 4013.86 3145.63L3996.65 3128.42 3996.65 3116.38C4031.24 3114.46 4058.81 3085.8 4058.81 3050.75ZM3982.03 3069.03C3977.99 3069.03 3974.72 3065.76 3974.72 3061.72L3974.72 3043.44C3974.72 3041.42 3976.35 3039.78 3978.37 3039.78 3980.39 3039.78 3982.03 3041.42 3982.03 3043.44L3982.03 3061.72 4003.97 3061.72 4003.97 3039.78 3989.34 3039.78C3987.32 3039.78 3985.68 3038.14 3985.68 3036.13 3985.68 3034.11 3987.32 3032.47 3989.34 3032.47L4003.97 3032.47C4008 3032.47 4011.27 3035.74 4011.28 3039.78L4011.28 3061.72C4011.27 3065.76 4008 3069.03 4003.97 3069.03ZM4003.97 3080C4003.97 3082.02 4002.33 3083.66 4000.31 3083.66L3985.68 3083.66C3983.66 3083.66 3982.03 3082.02 3982.03 3080 3982.03 3077.98 3983.66 3076.34 3985.68 3076.34L4000.31 3076.34C4002.33 3076.34 4003.97 3077.98 4003.97 3080 4003.97 3080 4003.97 3080 4003.97 3080ZM4000.31 3025.16 3985.68 3025.16C3983.66 3025.16 3982.03 3023.52 3982.03 3021.5 3982.03 3019.48 3983.66 3017.84 3985.68 3017.84L4000.31 3017.84C4002.33 3017.84 4003.97 3019.48 4003.97 3021.5 4003.97 3023.52 4002.33 3025.16 4000.31 3025.16ZM3985.68 3004.4 3985.68 3004.62C3985.66 3006.3 3984.49 3007.74 3982.85 3008.1 3979.13 3008.99 3975.54 3010.37 3972.18 3012.19 3970.78 3012.98 3969.03 3012.76 3967.88 3011.64L3967.71 3011.47C3966.32 3010.07 3966.32 3007.81 3967.72 3006.41 3967.95 3006.18 3968.22 3005.98 3968.52 3005.81 3972.53 3003.62 3976.82 3001.98 3981.28 3000.93 3983.2 3000.48 3985.13 3001.67 3985.59 3003.6 3985.65 3003.86 3985.68 3004.13 3985.68 3004.41ZM3960.09 3043.44C3960.09 3041.42 3961.73 3039.78 3963.75 3039.78 3965.77 3039.78 3967.4 3041.42 3967.4 3043.44L3967.4 3058.06C3967.4 3060.08 3965.77 3061.72 3963.75 3061.72 3961.73 3061.72 3960.09 3060.08 3960.09 3058.06ZM4006.11 3148.21 3993 3161.33 3979.89 3148.21 3993 3135.1ZM3990.3 3101.87C3965.45 3100.59 3944.7 3080.99 3942.1 3056.25 3940.77 3043.99 3943.92 3031.67 3950.98 3021.56 3952.13 3019.89 3954.43 3019.47 3956.1 3020.62 3956.28 3020.75 3956.45 3020.89 3956.6 3021.04 3957.85 3022.25 3958.04 3024.18 3957.07 3025.62 3951.93 3032.92 3949.16 3041.62 3949.12 3050.55 3949.02 3073.87 3967.99 3093.71 3991.3 3094.59 4015.5 3095.54 4035.88 3076.69 4036.83 3052.49 4037.65 3031.58 4023.57 3013 4003.22 3008.13 4001.54 3007.76 4000.33 3006.29 4000.31 3004.57 4000.31 3002.54 4001.95 3000.9 4003.98 3000.91 4004.26 3000.91 4004.53 3000.94 4004.81 3001 4027.35 3006.35 4044.18 3026.6 4044.18 3050.75 4044.15 3079.05 4021.19 3101.97 3992.89 3101.94 3992.02 3101.94 3991.16 3101.91 3990.3 3101.87ZM4018.59 3058.06 4018.59 3043.44C4018.59 3041.42 4020.23 3039.78 4022.25 3039.78 4024.27 3039.78 4025.9 3041.42 4025.9 3043.44L4025.9 3058.06C4025.9 3060.08 4024.27 3061.72 4022.25 3061.72 4020.23 3061.72 4018.59 3060.08 4018.59 3058.06Z"/></g></g></g><g clip-path="url(#clip49)"><g clip-path="url(#clip50)"><g clip-path="url(#clip51)"><path d="M163.946 47.4438C145.583 47.4438 128.88 54.6625 116.5 66.3885 104.119 54.659 87.4188 47.4438 69.057 47.4438 30.9786 47.4438 0 78.4223 0 116.502 0 154.577 30.9786 185.557 69.0565 185.557 87.4188 185.557 104.118 178.338 116.5 166.611 128.88 178.341 145.583 185.557 163.945 185.557 202.02 185.557 233 154.577 233 116.502 233 78.4223 202.02 47.4438 163.946 47.4438ZM69.0565 179.355C34.3956 179.355 6.20135 151.155 6.20135 116.502 6.20135 81.8445 34.3987 53.6456 69.0565 53.6456 85.7471 53.6456 100.901 60.2286 112.163 70.8798 101.422 83.0561 94.8845 99.0289 94.8845 116.502 94.8845 133.98 101.422 149.95 112.163 162.129 100.901 172.772 85.7471 179.355 69.0565 179.355ZM101.086 116.502C101.086 100.783 106.929 86.4259 116.5 75.3947 126.071 86.4259 131.914 100.784 131.914 116.502 131.914 132.218 126.071 146.577 116.5 157.604 106.929 146.577 101.086 132.217 101.086 116.502ZM163.946 179.355C147.255 179.355 132.099 172.772 120.838 162.122 131.578 149.944 138.116 133.974 138.116 116.496 138.116 99.0207 131.578 83.0494 120.838 70.8731 132.102 60.222 147.254 53.639 163.946 53.639 198.604 53.639 226.799 81.8368 226.799 116.496 226.799 151.149 198.604 179.355 163.946 179.355ZM120.614 87.4311 111.443 87.4311 111.443 84.3301 120.614 84.3301 120.614 87.4311ZM112.284 145.571 121.456 145.571 121.456 148.672 112.284 148.672 112.284 145.571ZM126.949 98.4137 106.792 98.4137 106.792 95.3127 126.949 95.3127 126.949 98.4137ZM128.887 108.361 103.245 108.361 103.245 105.261 128.887 105.261 128.887 108.361ZM129.789 115.468 129.789 118.567 103.21 118.567 103.21 115.468 129.789 115.468ZM104.535 125.598 128.456 125.598 128.456 128.699 104.535 128.699 104.535 125.598ZM106.792 135.494 125.011 135.494 125.011 138.595 106.792 138.595 106.792 135.494Z" transform="matrix(1 0 0 1.00429 2253 3356)"/></g></g></g><g clip-path="url(#clip52)"><g clip-path="url(#clip53)"><g clip-path="url(#clip54)"><path d="M4045.65 3405.65C4027.21 3405.65 4010.43 3412.9 3998 3424.67 3985.57 3412.89 3968.79 3405.65 3950.35 3405.65 3912.11 3405.65 3881 3436.76 3881 3475 3881 3513.24 3912.11 3544.35 3950.35 3544.35 3968.79 3544.35 3985.56 3537.1 3998 3525.33 4010.43 3537.11 4027.21 3544.35 4045.65 3544.35 4083.89 3544.35 4115 3513.24 4115 3475 4115 3436.76 4083.89 3405.65 4045.65 3405.65ZM3950.35 3538.12C3915.54 3538.12 3887.23 3509.8 3887.23 3475 3887.23 3440.2 3915.55 3411.88 3950.35 3411.88 3967.12 3411.88 3982.33 3418.49 3993.64 3429.18 3982.86 3441.41 3976.29 3457.45 3976.29 3475 3976.29 3492.56 3982.86 3508.59 3993.64 3520.82 3982.33 3531.51 3967.12 3538.12 3950.35 3538.12ZM3982.52 3475C3982.52 3459.22 3988.39 3444.8 3998 3433.72 4007.61 3444.8 4013.48 3459.22 4013.48 3475 4013.48 3490.78 4007.61 3505.21 3998 3516.28 3988.39 3505.21 3982.52 3490.78 3982.52 3475ZM4045.65 3538.12C4028.89 3538.12 4013.67 3531.51 4002.36 3520.82 4013.14 3508.59 4019.71 3492.55 4019.71 3475 4019.71 3457.45 4013.14 3441.41 4002.36 3429.18 4013.67 3418.48 4028.89 3411.87 4045.65 3411.87 4080.46 3411.87 4108.77 3440.19 4108.77 3475 4108.77 3509.8 4080.46 3538.12 4045.65 3538.12ZM3895.02 3456.97 3892.82 3454.77 3931.4 3416.18 3933.6 3418.39 3895.02 3456.97ZM3892.29 3474.42 3890.09 3472.22 3947.07 3415.24 3949.27 3417.44 3892.29 3474.42ZM3975.63 3470.03 3918.66 3527.01 3916.46 3524.81 3973.43 3467.83 3975.63 3470.03ZM3975.63 3487.13 3931.07 3531.7 3928.87 3529.5 3973.44 3484.92 3975.63 3487.13ZM3940.77 3533.21 3976.94 3497.04 3979.14 3499.24 3942.98 3535.41 3940.77 3533.21ZM3955.3 3534.51 3982.44 3507.37 3984.64 3509.57 3957.51 3536.72 3955.3 3534.51ZM3962.17 3419.21 3892.53 3488.86 3890.33 3486.66 3959.97 3417.01 3962.17 3419.21ZM3973.8 3422 3896.58 3499.24 3894.37 3497.04 3971.61 3419.8 3973.8 3422ZM3985.42 3426.61 3901.57 3510.45 3899.37 3508.25 3983.22 3424.41 3985.42 3426.61ZM3977.18 3451.45 3908.9 3519.72 3906.7 3517.52 3974.97 3449.25 3977.18 3451.45ZM4101.61 3456.97 4063.03 3418.39 4065.23 3416.18 4103.81 3454.77 4101.61 3456.97ZM4104.33 3474.42 4047.36 3417.45 4049.56 3415.24 4106.53 3472.22 4104.33 3474.42ZM4023.19 3467.83 4080.16 3524.81 4077.96 3527.01 4020.99 3470.03 4023.19 3467.83ZM4023.19 3484.92 4067.75 3529.5 4065.55 3531.7 4020.99 3487.13 4023.19 3484.92ZM4019.68 3497.04 4055.85 3533.21 4053.65 3535.41 4017.48 3499.24 4019.68 3497.04ZM4014.18 3507.37 4041.32 3534.52 4039.12 3536.72 4011.98 3509.58 4014.18 3507.37ZM4036.65 3417.01 4106.29 3486.66 4104.09 3488.86 4034.45 3419.21 4036.65 3417.01ZM4025.02 3419.8 4102.25 3497.04 4100.05 3499.24 4022.82 3422 4025.02 3419.8ZM4013.4 3424.41 4097.25 3508.25 4095.05 3510.45 4011.21 3426.61 4013.4 3424.41ZM4021.65 3449.25 4089.93 3517.52 4087.73 3519.72 4019.45 3451.45 4021.65 3449.25ZM4001.76 3445.29 3992.55 3445.29 3992.55 3442.17 4001.76 3442.17 4001.76 3445.29ZM3993.39 3503.67 4002.61 3503.67 4002.61 3506.79 3993.39 3506.79 3993.39 3503.67ZM4008.12 3456.32 3987.88 3456.32 3987.88 3453.2 4008.12 3453.2 4008.12 3456.32ZM4010.07 3466.31 3984.32 3466.31 3984.32 3463.19 4010.07 3463.19 4010.07 3466.31ZM4010.97 3473.44 4010.97 3476.56 3984.28 3476.56 3984.28 3473.44 4010.97 3473.44ZM3985.61 3483.62 4009.63 3483.62 4009.63 3486.73 3985.61 3486.73 3985.61 3483.62ZM3987.88 3493.55 4006.18 3493.55 4006.18 3496.67 3987.88 3496.67 3987.88 3493.55Z"/></g></g></g><text font-family="Roboto,Roboto_MSFontService,sans-serif" font-weight="400" font-size="83" transform="matrix(1 0 0 1 2715.42 3362)">M<tspan font-size="66" x="72.1875" y="0">ULTICULTURALISTE</tspan><tspan font-size="83" x="685.208" y="0">M</tspan><tspan font-size="66" x="757.396" y="0">ODÉRÉ</tspan></text><path d="M0 93.0118 32.4662 93.0118 32.4662 0 61.5336 0 61.5336 93.0118 93.9998 93.0118 47 143Z" stroke="#008000" stroke-width="4.58333" stroke-miterlimit="8" fill="#00B050" fill-rule="evenodd" transform="matrix(1 0 0 -1 1965.5 749.5)"/><text fill="#00B050" font-family="Roboto,Roboto_MSFontService,sans-serif" font-weight="400" font-size="55" transform="matrix(1 0 0 1 1935.6 830)">+8 pts</text><path d="M1965.5 1491.51 1997.97 1491.51 1997.97 1398.5 2027.03 1398.5 2027.03 1491.51 2059.5 1491.51 2012.5 1541.5Z" stroke="#C00000" stroke-width="4.58333" stroke-miterlimit="8" fill="#FF0000" fill-rule="evenodd"/><text fill="#FF0000" font-family="Roboto,Roboto_MSFontService,sans-serif" font-weight="400" font-size="55" transform="matrix(1 0 0 1 1943.51 1622)">-<tspan font-size="55" x="14.8959" y="0">3 pts</tspan></text><path d="M1960.32 247.958 2064.68 247.958 2064.68 281.592 1960.32 281.592ZM1960.32 298.409 2064.68 298.409 2064.68 332.042 1960.32 332.042Z" stroke="#AE5A21" stroke-width="4.58333" stroke-miterlimit="8" fill="#ED7D31" fill-rule="evenodd"/><text fill="#ED7D31" font-family="Roboto,Roboto_MSFontService,sans-serif" font-weight="400" font-size="55" transform="matrix(1 0 0 1 1909.71 429)">+/<tspan font-size="55" x="53.8541" y="0">-</tspan><tspan font-size="55" x="82.5" y="0">0 pts</tspan></text><path d="M0 92.0121 32.4661 92.0121 32.4661 0 61.5337 0 61.5337 92.0121 93.9998 92.0121 46.9999 142Z" stroke="#008000" stroke-width="4.58333" stroke-miterlimit="8" fill="#00B050" fill-rule="evenodd" transform="matrix(1 0 0 -1 1965.5 1143.5)"/><text fill="#00B050" font-family="Roboto,Roboto_MSFontService,sans-serif" font-weight="400" font-size="55" transform="matrix(1 0 0 1 1935.49 1225)">+9 pts</text><path d="M1967.5 1884.51 1999.97 1884.51 1999.97 1791.5 2029.03 1791.5 2029.03 1884.51 2061.5 1884.51 2014.5 1934.5Z" stroke="#C00000" stroke-width="4.58333" stroke-miterlimit="8" fill="#FF0000" fill-rule="evenodd"/><text fill="#FF0000" font-family="Roboto,Roboto_MSFontService,sans-serif" font-weight="400" font-size="55" transform="matrix(1 0 0 1 1945.49 2015)">-<tspan font-size="55" x="14.8958" y="0">8 pts</tspan></text><path d="M0 92.5435 32.1209 92.5435 32.1209 0 60.8793 0 60.8793 92.5435 93.0002 92.5435 46.5001 142Z" stroke="#008000" stroke-width="4.58333" stroke-miterlimit="8" fill="#00B050" fill-rule="evenodd" transform="matrix(1 0 0 -1 1969.5 2329.5)"/><text fill="#00B050" font-family="Roboto,Roboto_MSFontService,sans-serif" font-weight="400" font-size="55" transform="matrix(1 0 0 1 1938.65 2410)">+7 pts</text><path d="M0 92.0119 32.466 92.0119 32.466 0 61.5335 0 61.5335 92.0119 93.9995 92.0119 46.9998 142Z" stroke="#008000" stroke-width="4.58333" stroke-miterlimit="8" fill="#00B050" fill-rule="evenodd" transform="matrix(1 0 0 -1 1965.5 2726.5)"/><text fill="#00B050" font-family="Roboto,Roboto_MSFontService,sans-serif" font-weight="400" font-size="55" transform="matrix(1 0 0 1 1935.49 2808)">+9 pts</text><path d="M0 93.5436 32.1208 93.5436 32.1208 0 60.879 0 60.879 93.5436 92.9998 93.5436 46.4999 143Z" stroke="#008000" stroke-width="4.58333" stroke-miterlimit="8" fill="#00B050" fill-rule="evenodd" transform="matrix(1 0 0 -1 1967.5 3124.5)"/><text fill="#00B050" font-family="Roboto,Roboto_MSFontService,sans-serif" font-weight="400" font-size="55" transform="matrix(1 0 0 1 1936.85 3205)">+8 pts</text><path d="M1969.5 3468.04 2001.62 3468.04 2001.62 3375.5 2030.38 3375.5 2030.38 3468.04 2062.5 3468.04 2016 3517.5Z" stroke="#C00000" stroke-width="4.58333" stroke-miterlimit="8" fill="#FF0000" fill-rule="evenodd"/><text fill="#FF0000" font-family="Roboto,Roboto_MSFontService,sans-serif" font-weight="400" font-size="55" transform="matrix(1 0 0 1 1931.21 3598)">-<tspan font-size="55" x="14.8959" y="0">14 pts</tspan></text></g></svg>