<svg width="2120" height="1495" xmlns="http://www.w3.org/2000/svg" xmlns:xlink="http://www.w3.org/1999/xlink" overflow="hidden"><defs><clipPath id="clip0"><rect x="2097" y="598" width="2120" height="1495"/></clipPath></defs><g clip-path="url(#clip0)" transform="translate(-2097 -598)"><rect x="2639.5" y="769.5" width="519" height="520" stroke="#FFFFFF" stroke-width="4.58333" stroke-miterlimit="8" fill="#C00000"/><rect x="3158.5" y="769.5" width="520" height="520" stroke="#FFFFFF" stroke-width="4.58333" stroke-miterlimit="8" fill="#4472C4"/><rect x="2639.5" y="1289.5" width="519" height="520" stroke="#FFFFFF" stroke-width="4.58333" stroke-miterlimit="8" fill="#70AD47"/><rect x="3158.5" y="1289.5" width="520" height="520" stroke="#FFFFFF" stroke-width="4.58333" stroke-miterlimit="8" fill="#FFC000"/><path d="M2627.42 1284.92 3685.92 1284.92 3685.92 1294.08 2627.42 1294.08ZM2632 1303.25 2604.5 1289.5 2632 1275.75ZM3681.33 1275.75 3708.83 1289.5 3681.33 1303.25Z"/><path d="M3163.08 761.416 3163.08 1819.91 3153.92 1819.91 3153.92 761.416ZM3144.75 766 3158.5 738.5 3172.25 766ZM3172.25 1815.33 3158.5 1842.83 3144.75 1815.33Z"/><text font-family="Roboto,Roboto_MSFontService,sans-serif" font-weight="400" font-size="73" transform="matrix(1 0 0 1 2985.08 690)">Autoritaire<tspan font-size="73" x="24.3489" y="1270">Libertaire</tspan><tspan font-size="73" x="756.468" y="636">Individualiste</tspan><tspan font-size="73" x="-843.148" y="636">Collectiviste</tspan></text><path d="M2807.5 1578C2807.5 1567.23 2816.23 1558.5 2827 1558.5 2837.77 1558.5 2846.5 1567.23 2846.5 1578 2846.5 1588.77 2837.77 1597.5 2827 1597.5 2816.23 1597.5 2807.5 1588.77 2807.5 1578Z" stroke="#787878" stroke-width="4.58333" stroke-miterlimit="8" fill="#A5A5A5" fill-rule="evenodd"/><path d="M1.7324-1.50017 42.1208 45.1404 38.656 48.1407-1.7324 1.50017ZM47.7825 34.1747 55.3901 63.9646 26.9936 52.1768Z" fill="#7F7F7F" transform="matrix(-1 0 0 1 2812.89 1591.5)"/><path d="M2724.5 1669C2724.5 1658.23 2733.23 1649.5 2744 1649.5 2754.77 1649.5 2763.5 1658.23 2763.5 1669 2763.5 1679.77 2754.77 1688.5 2744 1688.5 2733.23 1688.5 2724.5 1679.77 2724.5 1669Z" stroke="#000000" stroke-width="4.58333" stroke-miterlimit="8" fill="#FF0000" fill-rule="evenodd"/><text fill="#00B050" font-family="Roboto,Roboto_MSFontService,sans-serif" font-weight="400" font-size="55" transform="matrix(1 0 0 1 2226.42 1402)">+1,75 pts<tspan font-size="55" x="853.486" y="643">+2 pts</tspan></text></g></svg>