<svg width="1042" height="912" xmlns="http://www.w3.org/2000/svg" xmlns:xlink="http://www.w3.org/1999/xlink" overflow="hidden"><defs><clipPath id="clip0"><rect x="1833" y="754" width="1042" height="912"/></clipPath><clipPath id="clip1"><rect x="1833" y="754" width="1040" height="909"/></clipPath><clipPath id="clip2"><rect x="1943" y="924" width="883" height="588"/></clipPath><clipPath id="clip3"><rect x="1943" y="924" width="883" height="588"/></clipPath><clipPath id="clip4"><rect x="1833" y="754" width="1040" height="909"/></clipPath><clipPath id="clip5"><rect x="1833" y="754" width="1040" height="909"/></clipPath><clipPath id="clip6"><rect x="1833" y="754" width="1040" height="909"/></clipPath><clipPath id="clip7"><rect x="1833" y="754" width="1040" height="909"/></clipPath><clipPath id="clip8"><rect x="1833" y="754" width="1040" height="909"/></clipPath><clipPath id="clip9"><rect x="1833" y="754" width="1040" height="909"/></clipPath><clipPath id="clip10"><rect x="1833" y="754" width="1040" height="909"/></clipPath><clipPath id="clip11"><rect x="1833" y="754" width="1040" height="909"/></clipPath><clipPath id="clip12"><rect x="1833" y="754" width="1040" height="909"/></clipPath><clipPath id="clip13"><rect x="1833" y="754" width="1040" height="909"/></clipPath><clipPath id="clip14"><rect x="1833" y="754" width="1040" height="909"/></clipPath><clipPath id="clip15"><rect x="1833" y="754" width="1040" height="909"/></clipPath><clipPath id="clip16"><rect x="1833" y="754" width="1040" height="909"/></clipPath></defs><g clip-path="url(#clip0)" transform="translate(-1833 -754)"><rect x="1834" y="755" width="1039" height="909" fill="#FFFFFF"/><g clip-path="url(#clip1)"><path d="M1943.5 1508.5 2822.5 1508.5M1943.5 1391.55 2822.5 1391.55M1943.5 1275.54 2822.5 1275.54M1943.5 1158.54 2822.5 1158.54M1943.5 1041.53 2822.5 1041.53M1943.5 924.5 2822.5 924.5" stroke="#D9D9D9" stroke-width="3.4375" stroke-linejoin="round" stroke-miterlimit="10" fill="none"/></g><g clip-path="url(#clip2)"><path d="M2160.07 1275.04 2357.08 1275.04 2357.08 1509 2160.07 1509Z" fill="#70AD47"/></g><g clip-path="url(#clip3)"><path d="M2410.08 1041.03 2607.09 1041.03 2607.09 1509 2410.08 1509Z" fill="#5B9BD5"/></g><g clip-path="url(#clip4)"><text fill="#595959" font-family="Calibri,Calibri_MSFontService,sans-serif" font-weight="400" font-size="41" transform="matrix(1 0 0 1 1884.6 1520)">0</text></g><g clip-path="url(#clip5)"><text fill="#595959" font-family="Calibri,Calibri_MSFontService,sans-serif" font-weight="400" font-size="41" transform="matrix(1 0 0 1 1884.6 1403)">5</text></g><g clip-path="url(#clip6)"><text fill="#595959" font-family="Calibri,Calibri_MSFontService,sans-serif" font-weight="400" font-size="41" transform="matrix(1 0 0 1 1863.7 1287)">10</text></g><g clip-path="url(#clip7)"><text fill="#595959" font-family="Calibri,Calibri_MSFontService,sans-serif" font-weight="400" font-size="41" transform="matrix(1 0 0 1 1863.7 1170)">15</text></g><g clip-path="url(#clip8)"><text fill="#595959" font-family="Calibri,Calibri_MSFontService,sans-serif" font-weight="400" font-size="41" transform="matrix(1 0 0 1 1863.7 1053)">20</text></g><g clip-path="url(#clip9)"><text fill="#595959" font-family="Calibri,Calibri_MSFontService,sans-serif" font-weight="400" font-size="41" transform="matrix(1 0 0 1 1863.7 936)">25</text></g><g clip-path="url(#clip10)"><text fill="#595959" font-family="Calibri,Calibri_MSFontService,sans-serif" font-weight="400" font-size="64" transform="matrix(1 0 0 1 2106.81 850)">Comparaison en </text></g><g clip-path="url(#clip11)"><text fill="#595959" font-family="Calibri,Calibri_MSFontService,sans-serif" font-weight="400" font-size="64" transform="matrix(1 0 0 1 2544.41 850)">°</text></g><g clip-path="url(#clip12)"><text fill="#595959" font-family="Calibri,Calibri_MSFontService,sans-serif" font-weight="400" font-size="64" transform="matrix(1 0 0 1 2566.15 850)">C</text></g><g clip-path="url(#clip13)"><rect x="2276" y="1586" width="23" height="23" fill="#70AD47"/></g><g clip-path="url(#clip14)"><text fill="#595959" font-family="Calibri,Calibri_MSFontService,sans-serif" font-weight="400" font-size="41" transform="matrix(1 0 0 1 2308.56 1609)">T1</text></g><g clip-path="url(#clip15)"><rect x="2374" y="1586" width="23" height="23" fill="#5B9BD5"/></g><g clip-path="url(#clip16)"><text fill="#595959" font-family="Calibri,Calibri_MSFontService,sans-serif" font-weight="400" font-size="41" transform="matrix(1 0 0 1 2406.38 1609)">T2</text></g><rect x="1834.5" y="755.5" width="1039" height="909" stroke="#D9D9D9" stroke-width="3.4375" stroke-linejoin="round" stroke-miterlimit="10" fill="none"/></g></svg>