<svg width="1042" height="913" xmlns="http://www.w3.org/2000/svg" xmlns:xlink="http://www.w3.org/1999/xlink" overflow="hidden"><defs><clipPath id="clip0"><rect x="3602" y="755" width="1042" height="913"/></clipPath><clipPath id="clip1"><rect x="3602" y="756" width="1039" height="909"/></clipPath><clipPath id="clip2"><rect x="3733" y="926" width="861" height="587"/></clipPath><clipPath id="clip3"><rect x="3733" y="926" width="861" height="587"/></clipPath><clipPath id="clip4"><rect x="3602" y="756" width="1039" height="909"/></clipPath><clipPath id="clip5"><rect x="3602" y="756" width="1039" height="909"/></clipPath><clipPath id="clip6"><rect x="3602" y="756" width="1039" height="909"/></clipPath><clipPath id="clip7"><rect x="3602" y="756" width="1039" height="909"/></clipPath><clipPath id="clip8"><rect x="3602" y="756" width="1039" height="909"/></clipPath><clipPath id="clip9"><rect x="3602" y="756" width="1039" height="909"/></clipPath><clipPath id="clip10"><rect x="3602" y="756" width="1039" height="909"/></clipPath><clipPath id="clip11"><rect x="3602" y="756" width="1039" height="909"/></clipPath><clipPath id="clip12"><rect x="3602" y="756" width="1039" height="909"/></clipPath><clipPath id="clip13"><rect x="3602" y="756" width="1039" height="909"/></clipPath><clipPath id="clip14"><rect x="3602" y="756" width="1039" height="909"/></clipPath><clipPath id="clip15"><rect x="3602" y="756" width="1039" height="909"/></clipPath><clipPath id="clip16"><rect x="3602" y="756" width="1039" height="909"/></clipPath></defs><g clip-path="url(#clip0)" transform="translate(-3602 -755)"><rect x="3603" y="756" width="1039" height="910" fill="#FFFFFF"/><g clip-path="url(#clip1)"><path d="M3733.5 1510.5 4591.5 1510.5M3733.5 1426.55 4591.5 1426.55M3733.5 1343.54 4591.5 1343.54M3733.5 1260.54 4591.5 1260.54M3733.5 1176.54 4591.5 1176.54M3733.5 1093.54 4591.5 1093.54M3733.5 1009.53 4591.5 1009.53M3733.5 926.5 4591.5 926.5" stroke="#D9D9D9" stroke-width="3.4375" stroke-linejoin="round" stroke-miterlimit="10" fill="none"/></g><g clip-path="url(#clip2)"><path d="M3944.13 1038.03 4136.14 1038.03 4136.14 1510 3944.13 1510Z" fill="#70AD47"/></g><g clip-path="url(#clip3)"><path d="M4188.14 1021.03 4381.14 1021.03 4381.14 1510 4188.14 1510Z" fill="#5B9BD5"/></g><g clip-path="url(#clip4)"><text fill="#595959" font-family="Calibri,Calibri_MSFontService,sans-serif" font-weight="400" font-size="41" transform="matrix(1 0 0 1 3674.09 1522)">0</text></g><g clip-path="url(#clip5)"><text fill="#595959" font-family="Calibri,Calibri_MSFontService,sans-serif" font-weight="400" font-size="41" transform="matrix(1 0 0 1 3653.19 1439)">50</text></g><g clip-path="url(#clip6)"><text fill="#595959" font-family="Calibri,Calibri_MSFontService,sans-serif" font-weight="400" font-size="41" transform="matrix(1 0 0 1 3632.29 1355)">100</text></g><g clip-path="url(#clip7)"><text fill="#595959" font-family="Calibri,Calibri_MSFontService,sans-serif" font-weight="400" font-size="41" transform="matrix(1 0 0 1 3632.29 1272)">150</text></g><g clip-path="url(#clip8)"><text fill="#595959" font-family="Calibri,Calibri_MSFontService,sans-serif" font-weight="400" font-size="41" transform="matrix(1 0 0 1 3632.29 1188)">200</text></g><g clip-path="url(#clip9)"><text fill="#595959" font-family="Calibri,Calibri_MSFontService,sans-serif" font-weight="400" font-size="41" transform="matrix(1 0 0 1 3632.29 1105)">250</text></g><g clip-path="url(#clip10)"><text fill="#595959" font-family="Calibri,Calibri_MSFontService,sans-serif" font-weight="400" font-size="41" transform="matrix(1 0 0 1 3632.29 1021)">300</text></g><g clip-path="url(#clip11)"><text fill="#595959" font-family="Calibri,Calibri_MSFontService,sans-serif" font-weight="400" font-size="41" transform="matrix(1 0 0 1 3632.29 938)">350</text></g><g clip-path="url(#clip12)"><text fill="#595959" font-family="Calibri,Calibri_MSFontService,sans-serif" font-weight="400" font-size="64" transform="matrix(1 0 0 1 3886.72 852)">Comparaison en K</text></g><g clip-path="url(#clip13)"><rect x="4045" y="1588" width="23" height="23" fill="#70AD47"/></g><g clip-path="url(#clip14)"><text fill="#595959" font-family="Calibri,Calibri_MSFontService,sans-serif" font-weight="400" font-size="41" transform="matrix(1 0 0 1 4077.15 1611)">T1</text></g><g clip-path="url(#clip15)"><rect x="4143" y="1588" width="22" height="23" fill="#5B9BD5"/></g><g clip-path="url(#clip16)"><text fill="#595959" font-family="Calibri,Calibri_MSFontService,sans-serif" font-weight="400" font-size="41" transform="matrix(1 0 0 1 4174.97 1611)">T2</text></g><rect x="3603.5" y="756.5" width="1039" height="910" stroke="#D9D9D9" stroke-width="3.4375" stroke-linejoin="round" stroke-miterlimit="10" fill="none"/></g></svg>