<svg width="457" height="193" xmlns="http://www.w3.org/2000/svg" xmlns:xlink="http://www.w3.org/1999/xlink" overflow="hidden"><defs><clipPath id="clip0"><rect x="523" y="528" width="457" height="193"/></clipPath></defs><g clip-path="url(#clip0)" transform="translate(-523 -528)"><path d="M524.61 529.254 547.287 529.254 547.287 551.931 524.61 551.931Z" fill="#BEBEBE" fill-rule="evenodd"/><path d="M547.287 529.254 569.964 529.254 569.964 551.931 547.287 551.931Z" fill="#BEBEBE" fill-rule="evenodd"/><path d="M569.964 529.254 592.641 529.254 592.641 551.931 569.964 551.931Z" fill="#BEBEBE" fill-rule="evenodd"/><path d="M592.641 529.254 615.319 529.254 615.319 551.931 592.641 551.931Z" fill="#BEBEBE" fill-rule="evenodd"/><path d="M615.319 529.254 637.996 529.254 637.996 551.931 615.319 551.931Z" fill="#BEBEBE" fill-rule="evenodd"/><path d="M637.996 529.254 660.673 529.254 660.673 551.931 637.996 551.931Z" fill="#BEBEBE" fill-rule="evenodd"/><path d="M660.673 529.254 683.35 529.254 683.35 551.931 660.673 551.931Z" fill="#BEBEBE" fill-rule="evenodd"/><path d="M683.35 529.254 706.027 529.254 706.027 551.931 683.35 551.931Z" fill="#BEBEBE" fill-rule="evenodd"/><path d="M706.027 529.254 728.704 529.254 728.704 551.931 706.027 551.931Z" fill="#BEBEBE" fill-rule="evenodd"/><path d="M728.704 529.254 751.382 529.254 751.382 551.931 728.704 551.931Z" fill="#BEBEBE" fill-rule="evenodd"/><path d="M751.382 529.254 774.059 529.254 774.059 551.931 751.382 551.931Z" fill="#BEBEBE" fill-rule="evenodd"/><path d="M774.059 529.254 796.736 529.254 796.736 551.931 774.059 551.931Z" fill="#BEBEBE" fill-rule="evenodd"/><path d="M796.736 529.254 978.153 529.254 978.153 551.931 796.736 551.931Z" fill="#FFFFFF" fill-rule="evenodd"/><path d="M524.61 551.931 547.287 551.931 547.287 574.608 524.61 574.608Z" fill="#BEBEBE" fill-rule="evenodd"/><path d="M547.287 551.931 569.964 551.931 569.964 574.608 547.287 574.608Z" fill="#BEBEBE" fill-rule="evenodd"/><path d="M569.964 551.931 592.641 551.931 592.641 574.608 569.964 574.608Z" fill="#BEBEBE" fill-rule="evenodd"/><path d="M592.641 551.931 615.319 551.931 615.319 574.608 592.641 574.608Z" fill="#BEBEBE" fill-rule="evenodd"/><path d="M615.319 551.931 637.996 551.931 637.996 574.608 615.319 574.608Z" fill="#BEBEBE" fill-rule="evenodd"/><path d="M637.996 551.931 660.673 551.931 660.673 574.608 637.996 574.608Z" fill="#BEBEBE" fill-rule="evenodd"/><path d="M660.673 551.931 683.35 551.931 683.35 574.608 660.673 574.608Z" fill="#BEBEBE" fill-rule="evenodd"/><path d="M683.35 551.931 706.027 551.931 706.027 574.608 683.35 574.608Z" fill="#BEBEBE" fill-rule="evenodd"/><path d="M706.027 551.931 728.704 551.931 728.704 574.608 706.027 574.608Z" fill="#BEBEBE" fill-rule="evenodd"/><path d="M728.704 551.931 751.382 551.931 751.382 574.608 728.704 574.608Z" fill="#BEBEBE" fill-rule="evenodd"/><path d="M751.382 551.931 774.059 551.931 774.059 574.608 751.382 574.608Z" fill="#BEBEBE" fill-rule="evenodd"/><path d="M774.059 551.931 796.736 551.931 796.736 574.608 774.059 574.608Z" fill="#BEBEBE" fill-rule="evenodd"/><path d="M796.736 551.931 819.413 551.931 819.413 574.608 796.736 574.608Z" fill="#BEBEBE" fill-rule="evenodd"/><path d="M819.413 551.931 842.09 551.931 842.09 574.608 819.413 574.608Z" fill="#BEBEBE" fill-rule="evenodd"/><path d="M842.09 551.931 864.767 551.931 864.767 574.608 842.09 574.608Z" fill="#BEBEBE" fill-rule="evenodd"/><path d="M864.767 551.931 887.444 551.931 887.444 574.608 864.767 574.608Z" fill="#BEBEBE" fill-rule="evenodd"/><path d="M887.444 551.931 910.122 551.931 910.122 574.608 887.444 574.608Z" fill="#BEBEBE" fill-rule="evenodd"/><path d="M910.122 551.931 932.799 551.931 932.799 574.608 910.122 574.608Z" fill="#BEBEBE" fill-rule="evenodd"/><path d="M932.799 551.931 955.476 551.931 955.476 574.608 932.799 574.608Z" fill="#BEBEBE" fill-rule="evenodd"/><path d="M955.476 551.931 978.153 551.931 978.153 574.608 955.476 574.608Z" fill="#BEBEBE" fill-rule="evenodd"/><path d="M524.61 574.608 547.287 574.608 547.287 597.286 524.61 597.286Z" fill="#BEBEBE" fill-rule="evenodd"/><path d="M547.287 574.608 569.964 574.608 569.964 597.286 547.287 597.286Z" fill="#BEBEBE" fill-rule="evenodd"/><path d="M569.964 574.608 592.641 574.608 592.641 597.286 569.964 597.286Z" fill="#BEBEBE" fill-rule="evenodd"/><path d="M592.641 574.608 615.319 574.608 615.319 597.286 592.641 597.286Z" fill="#BEBEBE" fill-rule="evenodd"/><path d="M615.319 574.608 637.996 574.608 637.996 597.286 615.319 597.286Z" fill="#BEBEBE" fill-rule="evenodd"/><path d="M637.996 574.608 660.673 574.608 660.673 597.286 637.996 597.286Z" fill="#BEBEBE" fill-rule="evenodd"/><path d="M660.673 574.608 683.35 574.608 683.35 597.286 660.673 597.286Z" fill="#BEBEBE" fill-rule="evenodd"/><path d="M683.35 574.608 706.027 574.608 706.027 597.286 683.35 597.286Z" fill="#BEBEBE" fill-rule="evenodd"/><path d="M706.027 574.608 728.704 574.608 728.704 597.286 706.027 597.286Z" fill="#BEBEBE" fill-rule="evenodd"/><path d="M728.704 574.608 751.382 574.608 751.382 597.286 728.704 597.286Z" fill="#BEBEBE" fill-rule="evenodd"/><path d="M751.382 574.608 774.059 574.608 774.059 597.286 751.382 597.286Z" fill="#BEBEBE" fill-rule="evenodd"/><path d="M774.059 574.608 796.736 574.608 796.736 597.286 774.059 597.286Z" fill="#BEBEBE" fill-rule="evenodd"/><path d="M796.736 574.608 819.413 574.608 819.413 597.286 796.736 597.286Z" fill="#BEBEBE" fill-rule="evenodd"/><path d="M819.413 574.608 842.09 574.608 842.09 597.286 819.413 597.286Z" fill="#BEBEBE" fill-rule="evenodd"/><path d="M842.09 574.608 864.767 574.608 864.767 597.286 842.09 597.286Z" fill="#BEBEBE" fill-rule="evenodd"/><path d="M864.767 574.608 887.444 574.608 887.444 597.286 864.767 597.286Z" fill="#BEBEBE" fill-rule="evenodd"/><path d="M887.444 574.608 910.122 574.608 910.122 597.286 887.444 597.286Z" fill="#BEBEBE" fill-rule="evenodd"/><path d="M910.122 574.608 932.799 574.608 932.799 597.286 910.122 597.286Z" fill="#BEBEBE" fill-rule="evenodd"/><path d="M932.799 574.608 955.476 574.608 955.476 597.286 932.799 597.286Z" fill="#BEBEBE" fill-rule="evenodd"/><path d="M955.476 574.608 978.153 574.608 978.153 597.286 955.476 597.286Z" fill="#BEBEBE" fill-rule="evenodd"/><path d="M524.61 597.286 547.287 597.286 547.287 619.963 524.61 619.963Z" fill="#BEBEBE" fill-rule="evenodd"/><path d="M547.287 597.286 569.964 597.286 569.964 619.963 547.287 619.963Z" fill="#BEBEBE" fill-rule="evenodd"/><path d="M569.964 597.286 592.641 597.286 592.641 619.963 569.964 619.963Z" fill="#BEBEBE" fill-rule="evenodd"/><path d="M592.641 597.286 615.319 597.286 615.319 619.963 592.641 619.963Z" fill="#BEBEBE" fill-rule="evenodd"/><path d="M615.319 597.286 637.996 597.286 637.996 619.963 615.319 619.963Z" fill="#BEBEBE" fill-rule="evenodd"/><path d="M637.996 597.286 660.673 597.286 660.673 619.963 637.996 619.963Z" fill="#BEBEBE" fill-rule="evenodd"/><path d="M660.673 597.286 683.35 597.286 683.35 619.963 660.673 619.963Z" fill="#BEBEBE" fill-rule="evenodd"/><path d="M683.35 597.286 706.027 597.286 706.027 619.963 683.35 619.963Z" fill="#BEBEBE" fill-rule="evenodd"/><path d="M706.027 597.286 728.704 597.286 728.704 619.963 706.027 619.963Z" fill="#BEBEBE" fill-rule="evenodd"/><path d="M728.704 597.286 751.382 597.286 751.382 619.963 728.704 619.963Z" fill="#BEBEBE" fill-rule="evenodd"/><path d="M751.382 597.286 774.059 597.286 774.059 619.963 751.382 619.963Z" fill="#BEBEBE" fill-rule="evenodd"/><path d="M774.059 597.286 796.736 597.286 796.736 619.963 774.059 619.963Z" fill="#BEBEBE" fill-rule="evenodd"/><path d="M796.736 597.286 819.413 597.286 819.413 619.963 796.736 619.963Z" fill="#BEBEBE" fill-rule="evenodd"/><path d="M819.413 597.286 842.09 597.286 842.09 619.963 819.413 619.963Z" fill="#BEBEBE" fill-rule="evenodd"/><path d="M842.09 597.286 864.767 597.286 864.767 619.963 842.09 619.963Z" fill="#BEBEBE" fill-rule="evenodd"/><path d="M864.767 597.286 887.444 597.286 887.444 619.963 864.767 619.963Z" fill="#BEBEBE" fill-rule="evenodd"/><path d="M887.444 597.286 910.122 597.286 910.122 619.963 887.444 619.963Z" fill="#BEBEBE" fill-rule="evenodd"/><path d="M910.122 597.286 932.799 597.286 932.799 619.963 910.122 619.963Z" fill="#BEBEBE" fill-rule="evenodd"/><path d="M932.799 597.286 955.476 597.286 955.476 619.963 932.799 619.963Z" fill="#BEBEBE" fill-rule="evenodd"/><path d="M955.476 597.286 978.153 597.286 978.153 619.963 955.476 619.963Z" fill="#BEBEBE" fill-rule="evenodd"/><path d="M524.61 619.963 547.287 619.963 547.287 642.64 524.61 642.64Z" fill="#BEBEBE" fill-rule="evenodd"/><path d="M547.287 619.963 569.964 619.963 569.964 642.64 547.287 642.64Z" fill="#BEBEBE" fill-rule="evenodd"/><path d="M569.964 619.963 592.641 619.963 592.641 642.64 569.964 642.64Z" fill="#BEBEBE" fill-rule="evenodd"/><path d="M592.641 619.963 615.319 619.963 615.319 642.64 592.641 642.64Z" fill="#BEBEBE" fill-rule="evenodd"/><path d="M615.319 619.963 637.996 619.963 637.996 642.64 615.319 642.64Z" fill="#BEBEBE" fill-rule="evenodd"/><path d="M637.996 619.963 660.673 619.963 660.673 642.64 637.996 642.64Z" fill="#BEBEBE" fill-rule="evenodd"/><path d="M660.673 619.963 683.35 619.963 683.35 642.64 660.673 642.64Z" fill="#BEBEBE" fill-rule="evenodd"/><path d="M683.35 619.963 706.027 619.963 706.027 642.64 683.35 642.64Z" fill="#BEBEBE" fill-rule="evenodd"/><path d="M706.027 619.963 728.704 619.963 728.704 642.64 706.027 642.64Z" fill="#BEBEBE" fill-rule="evenodd"/><path d="M728.704 619.963 751.382 619.963 751.382 642.64 728.704 642.64Z" fill="#BEBEBE" fill-rule="evenodd"/><path d="M751.382 619.963 774.059 619.963 774.059 642.64 751.382 642.64Z" fill="#BEBEBE" fill-rule="evenodd"/><path d="M774.059 619.963 796.736 619.963 796.736 642.64 774.059 642.64Z" fill="#BEBEBE" fill-rule="evenodd"/><path d="M796.736 619.963 819.413 619.963 819.413 642.64 796.736 642.64Z" fill="#BEBEBE" fill-rule="evenodd"/><path d="M819.413 619.963 842.09 619.963 842.09 642.64 819.413 642.64Z" fill="#BEBEBE" fill-rule="evenodd"/><path d="M842.09 619.963 864.767 619.963 864.767 642.64 842.09 642.64Z" fill="#BEBEBE" fill-rule="evenodd"/><path d="M864.767 619.963 887.444 619.963 887.444 642.64 864.767 642.64Z" fill="#BEBEBE" fill-rule="evenodd"/><path d="M887.444 619.963 910.122 619.963 910.122 642.64 887.444 642.64Z" fill="#BEBEBE" fill-rule="evenodd"/><path d="M910.122 619.963 932.799 619.963 932.799 642.64 910.122 642.64Z" fill="#BEBEBE" fill-rule="evenodd"/><path d="M932.799 619.963 955.476 619.963 955.476 642.64 932.799 642.64Z" fill="#BEBEBE" fill-rule="evenodd"/><path d="M955.476 619.963 978.153 619.963 978.153 642.64 955.476 642.64Z" fill="#BEBEBE" fill-rule="evenodd"/><path d="M547.287 528.587 547.287 643.307" stroke="#000000" stroke-width="1.33333" stroke-linejoin="round" stroke-miterlimit="10" fill="none" fill-rule="evenodd"/><path d="M569.964 528.587 569.964 643.307" stroke="#000000" stroke-width="1.33333" stroke-linejoin="round" stroke-miterlimit="10" fill="none" fill-rule="evenodd"/><path d="M592.641 528.587 592.641 643.307" stroke="#000000" stroke-width="1.33333" stroke-linejoin="round" stroke-miterlimit="10" fill="none" fill-rule="evenodd"/><path d="M615.319 528.587 615.319 643.307" stroke="#000000" stroke-width="1.33333" stroke-linejoin="round" stroke-miterlimit="10" fill="none" fill-rule="evenodd"/><path d="M637.996 528.587 637.996 643.307" stroke="#000000" stroke-width="1.33333" stroke-linejoin="round" stroke-miterlimit="10" fill="none" fill-rule="evenodd"/><path d="M660.673 528.587 660.673 643.307" stroke="#000000" stroke-width="1.33333" stroke-linejoin="round" stroke-miterlimit="10" fill="none" fill-rule="evenodd"/><path d="M683.35 528.587 683.35 643.307" stroke="#000000" stroke-width="1.33333" stroke-linejoin="round" stroke-miterlimit="10" fill="none" fill-rule="evenodd"/><path d="M706.027 528.587 706.027 643.307" stroke="#000000" stroke-width="1.33333" stroke-linejoin="round" stroke-miterlimit="10" fill="none" fill-rule="evenodd"/><path d="M728.704 528.587 728.704 643.307" stroke="#000000" stroke-width="1.33333" stroke-linejoin="round" stroke-miterlimit="10" fill="none" fill-rule="evenodd"/><path d="M751.382 528.587 751.382 643.307" stroke="#000000" stroke-width="1.33333" stroke-linejoin="round" stroke-miterlimit="10" fill="none" fill-rule="evenodd"/><path d="M774.059 528.587 774.059 643.307" stroke="#000000" stroke-width="1.33333" stroke-linejoin="round" stroke-miterlimit="10" fill="none" fill-rule="evenodd"/><path d="M796.736 528.587 796.736 643.307" stroke="#000000" stroke-width="1.33333" stroke-linejoin="round" stroke-miterlimit="10" fill="none" fill-rule="evenodd"/><path d="M819.413 551.265 819.413 643.307" stroke="#000000" stroke-width="1.33333" stroke-linejoin="round" stroke-miterlimit="10" fill="none" fill-rule="evenodd"/><path d="M842.09 551.265 842.09 643.307" stroke="#000000" stroke-width="1.33333" stroke-linejoin="round" stroke-miterlimit="10" fill="none" fill-rule="evenodd"/><path d="M864.767 551.265 864.767 643.307" stroke="#000000" stroke-width="1.33333" stroke-linejoin="round" stroke-miterlimit="10" fill="none" fill-rule="evenodd"/><path d="M887.444 551.265 887.444 643.307" stroke="#000000" stroke-width="1.33333" stroke-linejoin="round" stroke-miterlimit="10" fill="none" fill-rule="evenodd"/><path d="M910.122 551.265 910.122 643.307" stroke="#000000" stroke-width="1.33333" stroke-linejoin="round" stroke-miterlimit="10" fill="none" fill-rule="evenodd"/><path d="M932.799 551.265 932.799 643.307" stroke="#000000" stroke-width="1.33333" stroke-linejoin="round" stroke-miterlimit="10" fill="none" fill-rule="evenodd"/><path d="M955.476 551.265 955.476 643.307" stroke="#000000" stroke-width="1.33333" stroke-linejoin="round" stroke-miterlimit="10" fill="none" fill-rule="evenodd"/><path d="M523.943 551.931 978.82 551.931" stroke="#000000" stroke-width="1.33333" stroke-linejoin="round" stroke-miterlimit="10" fill="none" fill-rule="evenodd"/><path d="M523.943 574.608 978.82 574.608" stroke="#000000" stroke-width="1.33333" stroke-linejoin="round" stroke-miterlimit="10" fill="none" fill-rule="evenodd"/><path d="M523.943 597.286 978.82 597.286" stroke="#000000" stroke-width="1.33333" stroke-linejoin="round" stroke-miterlimit="10" fill="none" fill-rule="evenodd"/><path d="M523.943 619.963 978.82 619.963" stroke="#000000" stroke-width="1.33333" stroke-linejoin="round" stroke-miterlimit="10" fill="none" fill-rule="evenodd"/><path d="M524.61 528.587 524.61 643.307" stroke="#000000" stroke-width="1.33333" stroke-linejoin="round" stroke-miterlimit="10" fill="none" fill-rule="evenodd"/><path d="M978.153 551.265 978.153 643.307" stroke="#000000" stroke-width="1.33333" stroke-linejoin="round" stroke-miterlimit="10" fill="none" fill-rule="evenodd"/><path d="M523.943 529.254 797.402 529.254" stroke="#000000" stroke-width="1.33333" stroke-linejoin="round" stroke-miterlimit="10" fill="none" fill-rule="evenodd"/><path d="M523.943 642.64 978.82 642.64" stroke="#000000" stroke-width="1.33333" stroke-linejoin="round" stroke-miterlimit="10" fill="none" fill-rule="evenodd"/><text font-family="Calibri,Calibri_MSFontService,sans-serif" font-weight="700" font-size="24" transform="translate(688.515 670)">Sans religion<tspan x="31.3667" y="29">(9,2</tspan>%)</text></g></svg>