<svg width="457" height="283" xmlns="http://www.w3.org/2000/svg" xmlns:xlink="http://www.w3.org/1999/xlink" overflow="hidden"><defs><clipPath id="clip0"><rect x="523" y="432" width="457" height="283"/></clipPath></defs><g clip-path="url(#clip0)" transform="translate(-523 -432)"><path d="M524.61 433.748 547.287 433.748 547.287 456.425 524.61 456.425Z" fill="#525252" fill-rule="evenodd"/><path d="M547.287 433.748 569.964 433.748 569.964 456.425 547.287 456.425Z" fill="#525252" fill-rule="evenodd"/><path d="M569.964 433.748 978.153 433.748 978.153 456.425 569.964 456.425Z" fill="#FFFFFF" fill-rule="evenodd"/><path d="M524.61 456.425 547.287 456.425 547.287 479.102 524.61 479.102Z" fill="#525252" fill-rule="evenodd"/><path d="M547.287 456.425 569.964 456.425 569.964 479.102 547.287 479.102Z" fill="#525252" fill-rule="evenodd"/><path d="M569.964 456.425 592.641 456.425 592.641 479.102 569.964 479.102Z" fill="#525252" fill-rule="evenodd"/><path d="M592.641 456.425 615.319 456.425 615.319 479.102 592.641 479.102Z" fill="#525252" fill-rule="evenodd"/><path d="M615.319 456.425 637.996 456.425 637.996 479.102 615.319 479.102Z" fill="#525252" fill-rule="evenodd"/><path d="M637.996 456.425 660.673 456.425 660.673 479.102 637.996 479.102Z" fill="#525252" fill-rule="evenodd"/><path d="M660.673 456.425 683.35 456.425 683.35 479.102 660.673 479.102Z" fill="#525252" fill-rule="evenodd"/><path d="M683.35 456.425 706.027 456.425 706.027 479.102 683.35 479.102Z" fill="#525252" fill-rule="evenodd"/><path d="M706.027 456.425 728.704 456.425 728.704 479.102 706.027 479.102Z" fill="#525252" fill-rule="evenodd"/><path d="M728.704 456.425 751.382 456.425 751.382 479.102 728.704 479.102Z" fill="#525252" fill-rule="evenodd"/><path d="M751.382 456.425 774.059 456.425 774.059 479.102 751.382 479.102Z" fill="#525252" fill-rule="evenodd"/><path d="M774.059 456.425 796.736 456.425 796.736 479.102 774.059 479.102Z" fill="#525252" fill-rule="evenodd"/><path d="M796.736 456.425 819.413 456.425 819.413 479.102 796.736 479.102Z" fill="#525252" fill-rule="evenodd"/><path d="M819.413 456.425 842.09 456.425 842.09 479.102 819.413 479.102Z" fill="#525252" fill-rule="evenodd"/><path d="M842.09 456.425 864.767 456.425 864.767 479.102 842.09 479.102Z" fill="#525252" fill-rule="evenodd"/><path d="M864.767 456.425 887.444 456.425 887.444 479.102 864.767 479.102Z" fill="#525252" fill-rule="evenodd"/><path d="M887.444 456.425 910.122 456.425 910.122 479.102 887.444 479.102Z" fill="#525252" fill-rule="evenodd"/><path d="M910.122 456.425 932.799 456.425 932.799 479.102 910.122 479.102Z" fill="#525252" fill-rule="evenodd"/><path d="M932.799 456.425 955.476 456.425 955.476 479.102 932.799 479.102Z" fill="#525252" fill-rule="evenodd"/><path d="M955.476 456.425 978.153 456.425 978.153 479.102 955.476 479.102Z" fill="#525252" fill-rule="evenodd"/><path d="M524.61 479.102 547.287 479.102 547.287 501.78 524.61 501.78Z" fill="#525252" fill-rule="evenodd"/><path d="M547.287 479.102 569.964 479.102 569.964 501.78 547.287 501.78Z" fill="#525252" fill-rule="evenodd"/><path d="M569.964 479.102 592.641 479.102 592.641 501.78 569.964 501.78Z" fill="#525252" fill-rule="evenodd"/><path d="M592.641 479.102 615.319 479.102 615.319 501.78 592.641 501.78Z" fill="#525252" fill-rule="evenodd"/><path d="M615.319 479.102 637.996 479.102 637.996 501.78 615.319 501.78Z" fill="#525252" fill-rule="evenodd"/><path d="M637.996 479.102 660.673 479.102 660.673 501.78 637.996 501.78Z" fill="#525252" fill-rule="evenodd"/><path d="M660.673 479.102 683.35 479.102 683.35 501.78 660.673 501.78Z" fill="#525252" fill-rule="evenodd"/><path d="M683.35 479.102 706.027 479.102 706.027 501.78 683.35 501.78Z" fill="#525252" fill-rule="evenodd"/><path d="M706.027 479.102 728.704 479.102 728.704 501.78 706.027 501.78Z" fill="#525252" fill-rule="evenodd"/><path d="M728.704 479.102 751.382 479.102 751.382 501.78 728.704 501.78Z" fill="#525252" fill-rule="evenodd"/><path d="M751.382 479.102 774.059 479.102 774.059 501.78 751.382 501.78Z" fill="#525252" fill-rule="evenodd"/><path d="M774.059 479.102 796.736 479.102 796.736 501.78 774.059 501.78Z" fill="#525252" fill-rule="evenodd"/><path d="M796.736 479.102 819.413 479.102 819.413 501.78 796.736 501.78Z" fill="#525252" fill-rule="evenodd"/><path d="M819.413 479.102 842.09 479.102 842.09 501.78 819.413 501.78Z" fill="#525252" fill-rule="evenodd"/><path d="M842.09 479.102 864.767 479.102 864.767 501.78 842.09 501.78Z" fill="#525252" fill-rule="evenodd"/><path d="M864.767 479.102 887.444 479.102 887.444 501.78 864.767 501.78Z" fill="#525252" fill-rule="evenodd"/><path d="M887.444 479.102 910.122 479.102 910.122 501.78 887.444 501.78Z" fill="#525252" fill-rule="evenodd"/><path d="M910.122 479.102 932.799 479.102 932.799 501.78 910.122 501.78Z" fill="#525252" fill-rule="evenodd"/><path d="M932.799 479.102 955.476 479.102 955.476 501.78 932.799 501.78Z" fill="#525252" fill-rule="evenodd"/><path d="M955.476 479.102 978.153 479.102 978.153 501.78 955.476 501.78Z" fill="#525252" fill-rule="evenodd"/><path d="M524.61 501.78 547.287 501.78 547.287 524.457 524.61 524.457Z" fill="#525252" fill-rule="evenodd"/><path d="M547.287 501.78 569.964 501.78 569.964 524.457 547.287 524.457Z" fill="#525252" fill-rule="evenodd"/><path d="M569.964 501.78 592.641 501.78 592.641 524.457 569.964 524.457Z" fill="#525252" fill-rule="evenodd"/><path d="M592.641 501.78 615.319 501.78 615.319 524.457 592.641 524.457Z" fill="#525252" fill-rule="evenodd"/><path d="M615.319 501.78 637.996 501.78 637.996 524.457 615.319 524.457Z" fill="#525252" fill-rule="evenodd"/><path d="M637.996 501.78 660.673 501.78 660.673 524.457 637.996 524.457Z" fill="#525252" fill-rule="evenodd"/><path d="M660.673 501.78 683.35 501.78 683.35 524.457 660.673 524.457Z" fill="#525252" fill-rule="evenodd"/><path d="M683.35 501.78 706.027 501.78 706.027 524.457 683.35 524.457Z" fill="#525252" fill-rule="evenodd"/><path d="M706.027 501.78 728.704 501.78 728.704 524.457 706.027 524.457Z" fill="#525252" fill-rule="evenodd"/><path d="M728.704 501.78 751.382 501.78 751.382 524.457 728.704 524.457Z" fill="#525252" fill-rule="evenodd"/><path d="M751.382 501.78 774.059 501.78 774.059 524.457 751.382 524.457Z" fill="#525252" fill-rule="evenodd"/><path d="M774.059 501.78 796.736 501.78 796.736 524.457 774.059 524.457Z" fill="#525252" fill-rule="evenodd"/><path d="M796.736 501.78 819.413 501.78 819.413 524.457 796.736 524.457Z" fill="#525252" fill-rule="evenodd"/><path d="M819.413 501.78 842.09 501.78 842.09 524.457 819.413 524.457Z" fill="#525252" fill-rule="evenodd"/><path d="M842.09 501.78 864.767 501.78 864.767 524.457 842.09 524.457Z" fill="#525252" fill-rule="evenodd"/><path d="M864.767 501.78 887.444 501.78 887.444 524.457 864.767 524.457Z" fill="#525252" fill-rule="evenodd"/><path d="M887.444 501.78 910.122 501.78 910.122 524.457 887.444 524.457Z" fill="#525252" fill-rule="evenodd"/><path d="M910.122 501.78 932.799 501.78 932.799 524.457 910.122 524.457Z" fill="#525252" fill-rule="evenodd"/><path d="M932.799 501.78 955.476 501.78 955.476 524.457 932.799 524.457Z" fill="#525252" fill-rule="evenodd"/><path d="M955.476 501.78 978.153 501.78 978.153 524.457 955.476 524.457Z" fill="#525252" fill-rule="evenodd"/><path d="M524.61 524.457 547.287 524.457 547.287 547.134 524.61 547.134Z" fill="#525252" fill-rule="evenodd"/><path d="M547.287 524.457 569.964 524.457 569.964 547.134 547.287 547.134Z" fill="#525252" fill-rule="evenodd"/><path d="M569.964 524.457 592.641 524.457 592.641 547.134 569.964 547.134Z" fill="#525252" fill-rule="evenodd"/><path d="M592.641 524.457 615.319 524.457 615.319 547.134 592.641 547.134Z" fill="#525252" fill-rule="evenodd"/><path d="M615.319 524.457 637.996 524.457 637.996 547.134 615.319 547.134Z" fill="#525252" fill-rule="evenodd"/><path d="M637.996 524.457 660.673 524.457 660.673 547.134 637.996 547.134Z" fill="#525252" fill-rule="evenodd"/><path d="M660.673 524.457 683.35 524.457 683.35 547.134 660.673 547.134Z" fill="#525252" fill-rule="evenodd"/><path d="M683.35 524.457 706.027 524.457 706.027 547.134 683.35 547.134Z" fill="#525252" fill-rule="evenodd"/><path d="M706.027 524.457 728.704 524.457 728.704 547.134 706.027 547.134Z" fill="#525252" fill-rule="evenodd"/><path d="M728.704 524.457 751.382 524.457 751.382 547.134 728.704 547.134Z" fill="#525252" fill-rule="evenodd"/><path d="M751.382 524.457 774.059 524.457 774.059 547.134 751.382 547.134Z" fill="#525252" fill-rule="evenodd"/><path d="M774.059 524.457 796.736 524.457 796.736 547.134 774.059 547.134Z" fill="#525252" fill-rule="evenodd"/><path d="M796.736 524.457 819.413 524.457 819.413 547.134 796.736 547.134Z" fill="#525252" fill-rule="evenodd"/><path d="M819.413 524.457 842.09 524.457 842.09 547.134 819.413 547.134Z" fill="#525252" fill-rule="evenodd"/><path d="M842.09 524.457 864.767 524.457 864.767 547.134 842.09 547.134Z" fill="#525252" fill-rule="evenodd"/><path d="M864.767 524.457 887.444 524.457 887.444 547.134 864.767 547.134Z" fill="#525252" fill-rule="evenodd"/><path d="M887.444 524.457 910.122 524.457 910.122 547.134 887.444 547.134Z" fill="#525252" fill-rule="evenodd"/><path d="M910.122 524.457 932.799 524.457 932.799 547.134 910.122 547.134Z" fill="#525252" fill-rule="evenodd"/><path d="M932.799 524.457 955.476 524.457 955.476 547.134 932.799 547.134Z" fill="#525252" fill-rule="evenodd"/><path d="M955.476 524.457 978.153 524.457 978.153 547.134 955.476 547.134Z" fill="#525252" fill-rule="evenodd"/><path d="M524.61 547.134 547.287 547.134 547.287 569.811 524.61 569.811Z" fill="#525252" fill-rule="evenodd"/><path d="M547.287 547.134 569.964 547.134 569.964 569.811 547.287 569.811Z" fill="#525252" fill-rule="evenodd"/><path d="M569.964 547.134 592.641 547.134 592.641 569.811 569.964 569.811Z" fill="#525252" fill-rule="evenodd"/><path d="M592.641 547.134 615.319 547.134 615.319 569.811 592.641 569.811Z" fill="#525252" fill-rule="evenodd"/><path d="M615.319 547.134 637.996 547.134 637.996 569.811 615.319 569.811Z" fill="#525252" fill-rule="evenodd"/><path d="M637.996 547.134 660.673 547.134 660.673 569.811 637.996 569.811Z" fill="#525252" fill-rule="evenodd"/><path d="M660.673 547.134 683.35 547.134 683.35 569.811 660.673 569.811Z" fill="#525252" fill-rule="evenodd"/><path d="M683.35 547.134 706.027 547.134 706.027 569.811 683.35 569.811Z" fill="#525252" fill-rule="evenodd"/><path d="M706.027 547.134 728.704 547.134 728.704 569.811 706.027 569.811Z" fill="#525252" fill-rule="evenodd"/><path d="M728.704 547.134 751.382 547.134 751.382 569.811 728.704 569.811Z" fill="#525252" fill-rule="evenodd"/><path d="M751.382 547.134 774.059 547.134 774.059 569.811 751.382 569.811Z" fill="#525252" fill-rule="evenodd"/><path d="M774.059 547.134 796.736 547.134 796.736 569.811 774.059 569.811Z" fill="#525252" fill-rule="evenodd"/><path d="M796.736 547.134 819.413 547.134 819.413 569.811 796.736 569.811Z" fill="#525252" fill-rule="evenodd"/><path d="M819.413 547.134 842.09 547.134 842.09 569.811 819.413 569.811Z" fill="#525252" fill-rule="evenodd"/><path d="M842.09 547.134 864.767 547.134 864.767 569.811 842.09 569.811Z" fill="#525252" fill-rule="evenodd"/><path d="M864.767 547.134 887.444 547.134 887.444 569.811 864.767 569.811Z" fill="#525252" fill-rule="evenodd"/><path d="M887.444 547.134 910.122 547.134 910.122 569.811 887.444 569.811Z" fill="#525252" fill-rule="evenodd"/><path d="M910.122 547.134 932.799 547.134 932.799 569.811 910.122 569.811Z" fill="#525252" fill-rule="evenodd"/><path d="M932.799 547.134 955.476 547.134 955.476 569.811 932.799 569.811Z" fill="#525252" fill-rule="evenodd"/><path d="M955.476 547.134 978.153 547.134 978.153 569.811 955.476 569.811Z" fill="#525252" fill-rule="evenodd"/><path d="M524.61 569.811 547.287 569.811 547.287 592.488 524.61 592.488Z" fill="#525252" fill-rule="evenodd"/><path d="M547.287 569.811 569.964 569.811 569.964 592.488 547.287 592.488Z" fill="#525252" fill-rule="evenodd"/><path d="M569.964 569.811 592.641 569.811 592.641 592.488 569.964 592.488Z" fill="#525252" fill-rule="evenodd"/><path d="M592.641 569.811 615.319 569.811 615.319 592.488 592.641 592.488Z" fill="#525252" fill-rule="evenodd"/><path d="M615.319 569.811 637.996 569.811 637.996 592.488 615.319 592.488Z" fill="#525252" fill-rule="evenodd"/><path d="M637.996 569.811 660.673 569.811 660.673 592.488 637.996 592.488Z" fill="#525252" fill-rule="evenodd"/><path d="M660.673 569.811 683.35 569.811 683.35 592.488 660.673 592.488Z" fill="#525252" fill-rule="evenodd"/><path d="M683.35 569.811 706.027 569.811 706.027 592.488 683.35 592.488Z" fill="#525252" fill-rule="evenodd"/><path d="M706.027 569.811 728.704 569.811 728.704 592.488 706.027 592.488Z" fill="#525252" fill-rule="evenodd"/><path d="M728.704 569.811 751.382 569.811 751.382 592.488 728.704 592.488Z" fill="#525252" fill-rule="evenodd"/><path d="M751.382 569.811 774.059 569.811 774.059 592.488 751.382 592.488Z" fill="#525252" fill-rule="evenodd"/><path d="M774.059 569.811 796.736 569.811 796.736 592.488 774.059 592.488Z" fill="#525252" fill-rule="evenodd"/><path d="M796.736 569.811 819.413 569.811 819.413 592.488 796.736 592.488Z" fill="#525252" fill-rule="evenodd"/><path d="M819.413 569.811 842.09 569.811 842.09 592.488 819.413 592.488Z" fill="#525252" fill-rule="evenodd"/><path d="M842.09 569.811 864.767 569.811 864.767 592.488 842.09 592.488Z" fill="#525252" fill-rule="evenodd"/><path d="M864.767 569.811 887.444 569.811 887.444 592.488 864.767 592.488Z" fill="#525252" fill-rule="evenodd"/><path d="M887.444 569.811 910.122 569.811 910.122 592.488 887.444 592.488Z" fill="#525252" fill-rule="evenodd"/><path d="M910.122 569.811 932.799 569.811 932.799 592.488 910.122 592.488Z" fill="#525252" fill-rule="evenodd"/><path d="M932.799 569.811 955.476 569.811 955.476 592.488 932.799 592.488Z" fill="#525252" fill-rule="evenodd"/><path d="M955.476 569.811 978.153 569.811 978.153 592.488 955.476 592.488Z" fill="#525252" fill-rule="evenodd"/><path d="M524.61 592.488 547.287 592.488 547.287 615.165 524.61 615.165Z" fill="#525252" fill-rule="evenodd"/><path d="M547.287 592.488 569.964 592.488 569.964 615.165 547.287 615.165Z" fill="#525252" fill-rule="evenodd"/><path d="M569.964 592.488 592.641 592.488 592.641 615.165 569.964 615.165Z" fill="#525252" fill-rule="evenodd"/><path d="M592.641 592.488 615.319 592.488 615.319 615.165 592.641 615.165Z" fill="#525252" fill-rule="evenodd"/><path d="M615.319 592.488 637.996 592.488 637.996 615.165 615.319 615.165Z" fill="#525252" fill-rule="evenodd"/><path d="M637.996 592.488 660.673 592.488 660.673 615.165 637.996 615.165Z" fill="#525252" fill-rule="evenodd"/><path d="M660.673 592.488 683.35 592.488 683.35 615.165 660.673 615.165Z" fill="#525252" fill-rule="evenodd"/><path d="M683.35 592.488 706.027 592.488 706.027 615.165 683.35 615.165Z" fill="#525252" fill-rule="evenodd"/><path d="M706.027 592.488 728.704 592.488 728.704 615.165 706.027 615.165Z" fill="#525252" fill-rule="evenodd"/><path d="M728.704 592.488 751.382 592.488 751.382 615.165 728.704 615.165Z" fill="#525252" fill-rule="evenodd"/><path d="M751.382 592.488 774.059 592.488 774.059 615.165 751.382 615.165Z" fill="#525252" fill-rule="evenodd"/><path d="M774.059 592.488 796.736 592.488 796.736 615.165 774.059 615.165Z" fill="#525252" fill-rule="evenodd"/><path d="M796.736 592.488 819.413 592.488 819.413 615.165 796.736 615.165Z" fill="#525252" fill-rule="evenodd"/><path d="M819.413 592.488 842.09 592.488 842.09 615.165 819.413 615.165Z" fill="#525252" fill-rule="evenodd"/><path d="M842.09 592.488 864.767 592.488 864.767 615.165 842.09 615.165Z" fill="#525252" fill-rule="evenodd"/><path d="M864.767 592.488 887.444 592.488 887.444 615.165 864.767 615.165Z" fill="#525252" fill-rule="evenodd"/><path d="M887.444 592.488 910.122 592.488 910.122 615.165 887.444 615.165Z" fill="#525252" fill-rule="evenodd"/><path d="M910.122 592.488 932.799 592.488 932.799 615.165 910.122 615.165Z" fill="#525252" fill-rule="evenodd"/><path d="M932.799 592.488 955.476 592.488 955.476 615.165 932.799 615.165Z" fill="#525252" fill-rule="evenodd"/><path d="M955.476 592.488 978.153 592.488 978.153 615.165 955.476 615.165Z" fill="#525252" fill-rule="evenodd"/><path d="M524.61 615.165 547.287 615.165 547.287 637.843 524.61 637.843Z" fill="#525252" fill-rule="evenodd"/><path d="M547.287 615.165 569.964 615.165 569.964 637.843 547.287 637.843Z" fill="#525252" fill-rule="evenodd"/><path d="M569.964 615.165 592.641 615.165 592.641 637.843 569.964 637.843Z" fill="#525252" fill-rule="evenodd"/><path d="M592.641 615.165 615.319 615.165 615.319 637.843 592.641 637.843Z" fill="#525252" fill-rule="evenodd"/><path d="M615.319 615.165 637.996 615.165 637.996 637.843 615.319 637.843Z" fill="#525252" fill-rule="evenodd"/><path d="M637.996 615.165 660.673 615.165 660.673 637.843 637.996 637.843Z" fill="#525252" fill-rule="evenodd"/><path d="M660.673 615.165 683.35 615.165 683.35 637.843 660.673 637.843Z" fill="#525252" fill-rule="evenodd"/><path d="M683.35 615.165 706.027 615.165 706.027 637.843 683.35 637.843Z" fill="#525252" fill-rule="evenodd"/><path d="M706.027 615.165 728.704 615.165 728.704 637.843 706.027 637.843Z" fill="#525252" fill-rule="evenodd"/><path d="M728.704 615.165 751.382 615.165 751.382 637.843 728.704 637.843Z" fill="#525252" fill-rule="evenodd"/><path d="M751.382 615.165 774.059 615.165 774.059 637.843 751.382 637.843Z" fill="#525252" fill-rule="evenodd"/><path d="M774.059 615.165 796.736 615.165 796.736 637.843 774.059 637.843Z" fill="#525252" fill-rule="evenodd"/><path d="M796.736 615.165 819.413 615.165 819.413 637.843 796.736 637.843Z" fill="#525252" fill-rule="evenodd"/><path d="M819.413 615.165 842.09 615.165 842.09 637.843 819.413 637.843Z" fill="#525252" fill-rule="evenodd"/><path d="M842.09 615.165 864.767 615.165 864.767 637.843 842.09 637.843Z" fill="#525252" fill-rule="evenodd"/><path d="M864.767 615.165 887.444 615.165 887.444 637.843 864.767 637.843Z" fill="#525252" fill-rule="evenodd"/><path d="M887.444 615.165 910.122 615.165 910.122 637.843 887.444 637.843Z" fill="#525252" fill-rule="evenodd"/><path d="M910.122 615.165 932.799 615.165 932.799 637.843 910.122 637.843Z" fill="#525252" fill-rule="evenodd"/><path d="M932.799 615.165 955.476 615.165 955.476 637.843 932.799 637.843Z" fill="#525252" fill-rule="evenodd"/><path d="M955.476 615.165 978.153 615.165 978.153 637.843 955.476 637.843Z" fill="#525252" fill-rule="evenodd"/><path d="M547.287 433.081 547.287 638.509" stroke="#000000" stroke-width="1.33333" stroke-linejoin="round" stroke-miterlimit="10" fill="none" fill-rule="evenodd"/><path d="M569.964 433.081 569.964 638.509" stroke="#000000" stroke-width="1.33333" stroke-linejoin="round" stroke-miterlimit="10" fill="none" fill-rule="evenodd"/><path d="M592.641 455.759 592.641 638.509" stroke="#000000" stroke-width="1.33333" stroke-linejoin="round" stroke-miterlimit="10" fill="none" fill-rule="evenodd"/><path d="M615.319 455.759 615.319 638.509" stroke="#000000" stroke-width="1.33333" stroke-linejoin="round" stroke-miterlimit="10" fill="none" fill-rule="evenodd"/><path d="M637.996 455.759 637.996 638.509" stroke="#000000" stroke-width="1.33333" stroke-linejoin="round" stroke-miterlimit="10" fill="none" fill-rule="evenodd"/><path d="M660.673 455.759 660.673 638.509" stroke="#000000" stroke-width="1.33333" stroke-linejoin="round" stroke-miterlimit="10" fill="none" fill-rule="evenodd"/><path d="M683.35 455.759 683.35 638.509" stroke="#000000" stroke-width="1.33333" stroke-linejoin="round" stroke-miterlimit="10" fill="none" fill-rule="evenodd"/><path d="M706.027 455.759 706.027 638.509" stroke="#000000" stroke-width="1.33333" stroke-linejoin="round" stroke-miterlimit="10" fill="none" fill-rule="evenodd"/><path d="M728.704 455.759 728.704 638.509" stroke="#000000" stroke-width="1.33333" stroke-linejoin="round" stroke-miterlimit="10" fill="none" fill-rule="evenodd"/><path d="M751.382 455.759 751.382 638.509" stroke="#000000" stroke-width="1.33333" stroke-linejoin="round" stroke-miterlimit="10" fill="none" fill-rule="evenodd"/><path d="M774.059 455.759 774.059 638.509" stroke="#000000" stroke-width="1.33333" stroke-linejoin="round" stroke-miterlimit="10" fill="none" fill-rule="evenodd"/><path d="M796.736 455.759 796.736 638.509" stroke="#000000" stroke-width="1.33333" stroke-linejoin="round" stroke-miterlimit="10" fill="none" fill-rule="evenodd"/><path d="M819.413 455.759 819.413 638.509" stroke="#000000" stroke-width="1.33333" stroke-linejoin="round" stroke-miterlimit="10" fill="none" fill-rule="evenodd"/><path d="M842.09 455.759 842.09 638.509" stroke="#000000" stroke-width="1.33333" stroke-linejoin="round" stroke-miterlimit="10" fill="none" fill-rule="evenodd"/><path d="M864.767 455.759 864.767 638.509" stroke="#000000" stroke-width="1.33333" stroke-linejoin="round" stroke-miterlimit="10" fill="none" fill-rule="evenodd"/><path d="M887.444 455.759 887.444 638.509" stroke="#000000" stroke-width="1.33333" stroke-linejoin="round" stroke-miterlimit="10" fill="none" fill-rule="evenodd"/><path d="M910.122 455.759 910.122 638.509" stroke="#000000" stroke-width="1.33333" stroke-linejoin="round" stroke-miterlimit="10" fill="none" fill-rule="evenodd"/><path d="M932.799 455.759 932.799 638.509" stroke="#000000" stroke-width="1.33333" stroke-linejoin="round" stroke-miterlimit="10" fill="none" fill-rule="evenodd"/><path d="M955.476 455.759 955.476 638.509" stroke="#000000" stroke-width="1.33333" stroke-linejoin="round" stroke-miterlimit="10" fill="none" fill-rule="evenodd"/><path d="M523.943 456.425 978.82 456.425" stroke="#000000" stroke-width="1.33333" stroke-linejoin="round" stroke-miterlimit="10" fill="none" fill-rule="evenodd"/><path d="M523.943 479.102 978.82 479.102" stroke="#000000" stroke-width="1.33333" stroke-linejoin="round" stroke-miterlimit="10" fill="none" fill-rule="evenodd"/><path d="M523.943 501.78 978.82 501.78" stroke="#000000" stroke-width="1.33333" stroke-linejoin="round" stroke-miterlimit="10" fill="none" fill-rule="evenodd"/><path d="M523.943 524.457 978.82 524.457" stroke="#000000" stroke-width="1.33333" stroke-linejoin="round" stroke-miterlimit="10" fill="none" fill-rule="evenodd"/><path d="M523.943 547.134 978.82 547.134" stroke="#000000" stroke-width="1.33333" stroke-linejoin="round" stroke-miterlimit="10" fill="none" fill-rule="evenodd"/><path d="M523.943 569.811 978.82 569.811" stroke="#000000" stroke-width="1.33333" stroke-linejoin="round" stroke-miterlimit="10" fill="none" fill-rule="evenodd"/><path d="M523.943 592.488 978.82 592.488" stroke="#000000" stroke-width="1.33333" stroke-linejoin="round" stroke-miterlimit="10" fill="none" fill-rule="evenodd"/><path d="M523.943 615.165 978.82 615.165" stroke="#000000" stroke-width="1.33333" stroke-linejoin="round" stroke-miterlimit="10" fill="none" fill-rule="evenodd"/><path d="M524.61 433.081 524.61 638.509" stroke="#000000" stroke-width="1.33333" stroke-linejoin="round" stroke-miterlimit="10" fill="none" fill-rule="evenodd"/><path d="M978.153 455.759 978.153 638.509" stroke="#000000" stroke-width="1.33333" stroke-linejoin="round" stroke-miterlimit="10" fill="none" fill-rule="evenodd"/><path d="M523.943 433.748 570.631 433.748" stroke="#000000" stroke-width="1.33333" stroke-linejoin="round" stroke-miterlimit="10" fill="none" fill-rule="evenodd"/><path d="M523.943 637.843 978.82 637.843" stroke="#000000" stroke-width="1.33333" stroke-linejoin="round" stroke-miterlimit="10" fill="none" fill-rule="evenodd"/><text font-family="Calibri,Calibri_MSFontService,sans-serif" font-weight="700" font-size="24" transform="translate(688.515 665)">Sans religion<tspan x="25.28" y="29">(16,2%)</tspan></text></g></svg>