<svg width="538" height="468" xmlns="http://www.w3.org/2000/svg" xmlns:xlink="http://www.w3.org/1999/xlink" overflow="hidden"><defs><clipPath id="clip0"><rect x="51" y="127" width="538" height="468"/></clipPath><clipPath id="clip1"><rect x="51" y="128" width="537" height="466"/></clipPath><clipPath id="clip2"><rect x="51" y="128" width="537" height="466"/></clipPath><clipPath id="clip3"><rect x="51" y="128" width="537" height="466"/></clipPath><clipPath id="clip4"><rect x="51" y="128" width="537" height="466"/></clipPath><clipPath id="clip5"><rect x="51" y="128" width="537" height="466"/></clipPath><clipPath id="clip6"><rect x="51" y="128" width="537" height="466"/></clipPath><clipPath id="clip7"><rect x="51" y="128" width="537" height="466"/></clipPath><clipPath id="clip8"><rect x="51" y="128" width="537" height="466"/></clipPath><clipPath id="clip9"><rect x="51" y="128" width="537" height="466"/></clipPath><clipPath id="clip10"><rect x="51" y="128" width="537" height="466"/></clipPath><clipPath id="clip11"><rect x="51" y="128" width="537" height="466"/></clipPath><clipPath id="clip12"><rect x="51" y="128" width="537" height="466"/></clipPath><clipPath id="clip13"><rect x="51" y="128" width="537" height="466"/></clipPath><clipPath id="clip14"><rect x="51" y="128" width="537" height="466"/></clipPath><clipPath id="clip15"><rect x="51" y="128" width="537" height="466"/></clipPath><clipPath id="clip16"><rect x="51" y="128" width="537" height="466"/></clipPath><clipPath id="clip17"><rect x="51" y="128" width="537" height="466"/></clipPath><clipPath id="clip18"><rect x="51" y="128" width="537" height="466"/></clipPath><clipPath id="clip19"><rect x="51" y="128" width="537" height="466"/></clipPath><clipPath id="clip20"><rect x="51" y="128" width="537" height="466"/></clipPath><clipPath id="clip21"><rect x="51" y="128" width="537" height="466"/></clipPath><clipPath id="clip22"><rect x="51" y="128" width="537" height="466"/></clipPath><clipPath id="clip23"><rect x="51" y="128" width="537" height="466"/></clipPath><clipPath id="clip24"><rect x="51" y="128" width="537" height="466"/></clipPath><clipPath id="clip25"><rect x="51" y="128" width="537" height="466"/></clipPath><clipPath id="clip26"><rect x="51" y="128" width="537" height="466"/></clipPath><clipPath id="clip27"><rect x="51" y="128" width="537" height="466"/></clipPath><clipPath id="clip28"><rect x="51" y="128" width="537" height="466"/></clipPath><clipPath id="clip29"><rect x="51" y="128" width="537" height="466"/></clipPath><clipPath id="clip30"><rect x="51" y="128" width="537" height="466"/></clipPath></defs><g clip-path="url(#clip0)" transform="translate(-51 -127)"><g clip-path="url(#clip1)"><path d="M319.689 171.808C424.182 171.808 508.89 256.516 508.89 361.008 508.89 386.101 503.899 410.943 494.207 434.088L319.689 361.008Z" stroke="#FFFFFF" stroke-width="2" stroke-linejoin="round" stroke-miterlimit="10" fill="#4472C4" fill-rule="evenodd"/></g><g clip-path="url(#clip2)"><path d="M494.207 434.088C453.846 530.471 342.993 575.887 246.61 535.526 246.413 535.444 246.216 535.361 246.019 535.278L319.689 361.008Z" stroke="#FFFFFF" stroke-width="2" stroke-linejoin="round" stroke-miterlimit="10" fill="#70AD47" fill-rule="evenodd"/></g><g clip-path="url(#clip3)"><path d="M246.019 535.278C190.219 511.689 149.09 462.806 135.39 403.795L319.689 361.008Z" stroke="#FFFFFF" stroke-width="2" stroke-linejoin="round" stroke-miterlimit="10" fill="#ED7D31" fill-rule="evenodd"/></g><g clip-path="url(#clip4)"><path d="M135.39 403.794C130.101 381.011 129.082 357.445 132.384 334.291L319.689 361.008Z" stroke="#FFFFFF" stroke-width="2" stroke-linejoin="round" stroke-miterlimit="10" fill="#FFC000" fill-rule="evenodd"/></g><g clip-path="url(#clip5)"><path d="M132.384 334.291C132.492 333.537 132.604 332.783 132.721 332.03L319.689 361.008Z" stroke="#FFFFFF" stroke-width="2" stroke-linejoin="round" stroke-miterlimit="10" fill="#44546A" fill-rule="evenodd"/></g><g clip-path="url(#clip6)"><path d="M132.721 332.03C136.599 307.003 145.463 283.01 158.787 261.472L319.689 361.008Z" stroke="#FFFFFF" stroke-width="2" stroke-linejoin="round" stroke-miterlimit="10" fill="#A5A5A5" fill-rule="evenodd"/></g><g clip-path="url(#clip7)"><path d="M158.787 261.472C193.269 205.731 254.145 171.808 319.689 171.808L319.689 361.008Z" stroke="#FFFFFF" stroke-width="2" stroke-linejoin="round" stroke-miterlimit="10" fill="#525252" fill-rule="evenodd"/></g><g clip-path="url(#clip8)"><path d="M142.5 295.5 133.5 245.5 127.5 245.5" stroke="#A6A6A6" stroke-linejoin="round" stroke-miterlimit="10" fill="none"/></g><g clip-path="url(#clip9)"><text font-family="Calibri,Calibri_MSFontService,sans-serif" font-weight="400" font-size="16" transform="translate(392.379 299)">Christianisme</text></g><g clip-path="url(#clip10)"><text font-family="Calibri,Calibri_MSFontService,sans-serif" font-weight="400" font-size="16" transform="translate(480.432 299)">; </text></g><g clip-path="url(#clip11)"><text font-family="Calibri,Calibri_MSFontService,sans-serif" font-weight="400" font-size="16" transform="translate(418.665 319)">31,3%</text></g><g clip-path="url(#clip12)"><text font-family="Calibri,Calibri_MSFontService,sans-serif" font-weight="400" font-size="16" transform="translate(344.379 497)">Islam</text></g><g clip-path="url(#clip13)"><text font-family="Calibri,Calibri_MSFontService,sans-serif" font-weight="400" font-size="16" transform="translate(378.792 497)">; </text></g><g clip-path="url(#clip14)"><text font-family="Calibri,Calibri_MSFontService,sans-serif" font-weight="400" font-size="16" transform="translate(386.692 497)">25,1%</text></g><g clip-path="url(#clip15)"><text font-family="Calibri,Calibri_MSFontService,sans-serif" font-weight="400" font-size="16" transform="translate(163.379 452)">Indouisme</text></g><g clip-path="url(#clip16)"><text font-family="Calibri,Calibri_MSFontService,sans-serif" font-weight="400" font-size="16" transform="translate(231.745 452)">; </text></g><g clip-path="url(#clip17)"><text font-family="Calibri,Calibri_MSFontService,sans-serif" font-weight="400" font-size="16" transform="translate(179.825 472)">15,0%</text></g><g clip-path="url(#clip18)"><text font-family="Calibri,Calibri_MSFontService,sans-serif" font-weight="400" font-size="16" transform="translate(135.379 363)">Bouddhisme</text></g><g clip-path="url(#clip19)"><text font-family="Calibri,Calibri_MSFontService,sans-serif" font-weight="400" font-size="16" transform="translate(216.819 363)">; </text></g><g clip-path="url(#clip20)"><text font-family="Calibri,Calibri_MSFontService,sans-serif" font-weight="400" font-size="16" transform="translate(162.412 383)">5,9%</text></g><g clip-path="url(#clip21)"><text font-family="Calibri,Calibri_MSFontService,sans-serif" font-weight="400" font-size="16" transform="translate(63.3787 322)">Judaïsme</text></g><g clip-path="url(#clip22)"><text font-family="Calibri,Calibri_MSFontService,sans-serif" font-weight="400" font-size="16" transform="translate(123.632 322)">; </text></g><g clip-path="url(#clip23)"><text font-family="Calibri,Calibri_MSFontService,sans-serif" font-weight="400" font-size="16" transform="translate(79.8187 342)">0,2%</text></g><g clip-path="url(#clip24)"><text font-family="Calibri,Calibri_MSFontService,sans-serif" font-weight="400" font-size="16" transform="translate(82.3387 225)">Autres </text></g><g clip-path="url(#clip25)"><text font-family="Calibri,Calibri_MSFontService,sans-serif" font-weight="400" font-size="16" transform="translate(56.3787 245)">religions</text></g><g clip-path="url(#clip26)"><text font-family="Calibri,Calibri_MSFontService,sans-serif" font-weight="400" font-size="16" transform="translate(111.365 245)">; </text></g><g clip-path="url(#clip27)"><text font-family="Calibri,Calibri_MSFontService,sans-serif" font-weight="400" font-size="16" transform="translate(119.265 245)">6,4%</text></g><g clip-path="url(#clip28)"><text font-family="Calibri,Calibri_MSFontService,sans-serif" font-weight="400" font-size="16" transform="translate(199.379 238)">Sans religion</text></g><g clip-path="url(#clip29)"><text font-family="Calibri,Calibri_MSFontService,sans-serif" font-weight="400" font-size="16" transform="translate(281.412 238)">; </text></g><g clip-path="url(#clip30)"><text font-family="Calibri,Calibri_MSFontService,sans-serif" font-weight="400" font-size="16" transform="translate(222.659 258)">16,2%</text></g></g></svg>