<svg width="455" height="103" xmlns="http://www.w3.org/2000/svg" xmlns:xlink="http://www.w3.org/1999/xlink" overflow="hidden"><defs><clipPath id="clip0"><rect x="-52" y="319" width="455" height="103"/></clipPath></defs><g clip-path="url(#clip0)" transform="translate(52 -319)"><text font-family="Calibri,Calibri_MSFontService,sans-serif" font-weight="700" font-size="24" transform="translate(129.456 371)">Judaïsme<tspan x="14.6667" y="29">(0,2%)</tspan></text><path d="M-51.1487 320.362 152.946 320.362 152.946 343.039-51.1487 343.039Z" fill="#FFFFFF" fill-rule="evenodd"/><path d="M152.946 320.362 175.623 320.362 175.623 343.039 152.946 343.039Z" fill="#44546A" fill-rule="evenodd"/><path d="M175.623 320.362 198.3 320.362 198.3 343.039 175.623 343.039Z" fill="#44546A" fill-rule="evenodd"/><path d="M198.3 320.362 402.395 320.362 402.395 343.039 198.3 343.039Z" fill="#FFFFFF" fill-rule="evenodd"/><path d="M152.946 319.696 152.946 343.706" stroke="#000000" stroke-width="1.33333" stroke-linejoin="round" stroke-miterlimit="10" fill="none" fill-rule="evenodd"/><path d="M175.623 319.696 175.623 343.706" stroke="#000000" stroke-width="1.33333" stroke-linejoin="round" stroke-miterlimit="10" fill="none" fill-rule="evenodd"/><path d="M198.3 319.696 198.3 343.706" stroke="#000000" stroke-width="1.33333" stroke-linejoin="round" stroke-miterlimit="10" fill="none" fill-rule="evenodd"/><path d="M152.279 320.362 198.967 320.362" stroke="#000000" stroke-width="1.33333" stroke-linejoin="round" stroke-miterlimit="10" fill="none" fill-rule="evenodd"/><path d="M152.279 343.039 198.967 343.039" stroke="#000000" stroke-width="1.33333" stroke-linejoin="round" stroke-miterlimit="10" fill="none" fill-rule="evenodd"/></g></svg>