<svg width="457" height="441" xmlns="http://www.w3.org/2000/svg" xmlns:xlink="http://www.w3.org/1999/xlink" overflow="hidden"><defs><clipPath id="clip0"><rect x="139" y="15" width="457" height="441"/></clipPath></defs><g clip-path="url(#clip0)" transform="translate(-139 -15)"><path d="M140.455 15.8841 163.132 15.8841 163.132 38.5613 140.455 38.5613Z" fill="#4472C4" fill-rule="evenodd"/><path d="M163.132 15.8841 185.809 15.8841 185.809 38.5613 163.132 38.5613Z" fill="#4472C4" fill-rule="evenodd"/><path d="M185.809 15.8841 208.486 15.8841 208.486 38.5613 185.809 38.5613Z" fill="#4472C4" fill-rule="evenodd"/><path d="M208.486 15.8841 231.163 15.8841 231.163 38.5613 208.486 38.5613Z" fill="#4472C4" fill-rule="evenodd"/><path d="M231.163 15.8841 253.84 15.8841 253.84 38.5613 231.163 38.5613Z" fill="#4472C4" fill-rule="evenodd"/><path d="M253.84 15.8841 276.518 15.8841 276.518 38.5613 253.84 38.5613Z" fill="#4472C4" fill-rule="evenodd"/><path d="M276.518 15.8841 299.195 15.8841 299.195 38.5613 276.518 38.5613Z" fill="#4472C4" fill-rule="evenodd"/><path d="M299.195 15.8841 321.872 15.8841 321.872 38.5613 299.195 38.5613Z" fill="#4472C4" fill-rule="evenodd"/><path d="M321.872 15.8841 344.549 15.8841 344.549 38.5613 321.872 38.5613Z" fill="#4472C4" fill-rule="evenodd"/><path d="M344.549 15.8841 367.226 15.8841 367.226 38.5613 344.549 38.5613Z" fill="#4472C4" fill-rule="evenodd"/><path d="M367.226 15.8841 389.903 15.8841 389.903 38.5613 367.226 38.5613Z" fill="#4472C4" fill-rule="evenodd"/><path d="M389.903 15.8841 412.581 15.8841 412.581 38.5613 389.903 38.5613Z" fill="#4472C4" fill-rule="evenodd"/><path d="M412.581 15.8841 435.258 15.8841 435.258 38.5613 412.581 38.5613Z" fill="#4472C4" fill-rule="evenodd"/><path d="M435.258 15.8841 593.998 15.8841 593.998 38.5613 435.258 38.5613Z" fill="#FFFFFF" fill-rule="evenodd"/><path d="M140.455 38.5613 163.132 38.5613 163.132 61.2384 140.455 61.2384Z" fill="#4472C4" fill-rule="evenodd"/><path d="M163.132 38.5613 185.809 38.5613 185.809 61.2384 163.132 61.2384Z" fill="#4472C4" fill-rule="evenodd"/><path d="M185.809 38.5613 208.486 38.5613 208.486 61.2384 185.809 61.2384Z" fill="#4472C4" fill-rule="evenodd"/><path d="M208.486 38.5613 231.163 38.5613 231.163 61.2384 208.486 61.2384Z" fill="#4472C4" fill-rule="evenodd"/><path d="M231.163 38.5613 253.84 38.5613 253.84 61.2384 231.163 61.2384Z" fill="#4472C4" fill-rule="evenodd"/><path d="M253.84 38.5613 276.518 38.5613 276.518 61.2384 253.84 61.2384Z" fill="#4472C4" fill-rule="evenodd"/><path d="M276.518 38.5613 299.195 38.5613 299.195 61.2384 276.518 61.2384Z" fill="#4472C4" fill-rule="evenodd"/><path d="M299.195 38.5613 321.872 38.5613 321.872 61.2384 299.195 61.2384Z" fill="#4472C4" fill-rule="evenodd"/><path d="M321.872 38.5613 344.549 38.5613 344.549 61.2384 321.872 61.2384Z" fill="#4472C4" fill-rule="evenodd"/><path d="M344.549 38.5613 367.226 38.5613 367.226 61.2384 344.549 61.2384Z" fill="#4472C4" fill-rule="evenodd"/><path d="M367.226 38.5613 389.903 38.5613 389.903 61.2384 367.226 61.2384Z" fill="#4472C4" fill-rule="evenodd"/><path d="M389.903 38.5613 412.581 38.5613 412.581 61.2384 389.903 61.2384Z" fill="#4472C4" fill-rule="evenodd"/><path d="M412.581 38.5613 435.258 38.5613 435.258 61.2384 412.581 61.2384Z" fill="#4472C4" fill-rule="evenodd"/><path d="M435.258 38.5613 457.935 38.5613 457.935 61.2384 435.258 61.2384Z" fill="#4472C4" fill-rule="evenodd"/><path d="M457.935 38.5613 480.612 38.5613 480.612 61.2384 457.935 61.2384Z" fill="#4472C4" fill-rule="evenodd"/><path d="M480.612 38.5613 503.289 38.5613 503.289 61.2384 480.612 61.2384Z" fill="#4472C4" fill-rule="evenodd"/><path d="M503.289 38.5613 525.966 38.5613 525.966 61.2384 503.289 61.2384Z" fill="#4472C4" fill-rule="evenodd"/><path d="M525.966 38.5613 548.644 38.5613 548.644 61.2384 525.966 61.2384Z" fill="#4472C4" fill-rule="evenodd"/><path d="M548.644 38.5613 571.321 38.5613 571.321 61.2384 548.644 61.2384Z" fill="#4472C4" fill-rule="evenodd"/><path d="M571.321 38.5613 593.998 38.5613 593.998 61.2384 571.321 61.2384Z" fill="#4472C4" fill-rule="evenodd"/><path d="M140.455 61.2384 163.132 61.2384 163.132 83.9156 140.455 83.9156Z" fill="#4472C4" fill-rule="evenodd"/><path d="M163.132 61.2384 185.809 61.2384 185.809 83.9156 163.132 83.9156Z" fill="#4472C4" fill-rule="evenodd"/><path d="M185.809 61.2384 208.486 61.2384 208.486 83.9156 185.809 83.9156Z" fill="#4472C4" fill-rule="evenodd"/><path d="M208.486 61.2384 231.163 61.2384 231.163 83.9156 208.486 83.9156Z" fill="#4472C4" fill-rule="evenodd"/><path d="M231.163 61.2384 253.84 61.2384 253.84 83.9156 231.163 83.9156Z" fill="#4472C4" fill-rule="evenodd"/><path d="M253.84 61.2384 276.518 61.2384 276.518 83.9156 253.84 83.9156Z" fill="#4472C4" fill-rule="evenodd"/><path d="M276.518 61.2384 299.195 61.2384 299.195 83.9156 276.518 83.9156Z" fill="#4472C4" fill-rule="evenodd"/><path d="M299.195 61.2384 321.872 61.2384 321.872 83.9156 299.195 83.9156Z" fill="#4472C4" fill-rule="evenodd"/><path d="M321.872 61.2384 344.549 61.2384 344.549 83.9156 321.872 83.9156Z" fill="#4472C4" fill-rule="evenodd"/><path d="M344.549 61.2384 367.226 61.2384 367.226 83.9156 344.549 83.9156Z" fill="#4472C4" fill-rule="evenodd"/><path d="M367.226 61.2384 389.903 61.2384 389.903 83.9156 367.226 83.9156Z" fill="#4472C4" fill-rule="evenodd"/><path d="M389.903 61.2384 412.581 61.2384 412.581 83.9156 389.903 83.9156Z" fill="#4472C4" fill-rule="evenodd"/><path d="M412.581 61.2384 435.258 61.2384 435.258 83.9156 412.581 83.9156Z" fill="#4472C4" fill-rule="evenodd"/><path d="M435.258 61.2384 457.935 61.2384 457.935 83.9156 435.258 83.9156Z" fill="#4472C4" fill-rule="evenodd"/><path d="M457.935 61.2384 480.612 61.2384 480.612 83.9156 457.935 83.9156Z" fill="#4472C4" fill-rule="evenodd"/><path d="M480.612 61.2384 503.289 61.2384 503.289 83.9156 480.612 83.9156Z" fill="#4472C4" fill-rule="evenodd"/><path d="M503.289 61.2384 525.966 61.2384 525.966 83.9156 503.289 83.9156Z" fill="#4472C4" fill-rule="evenodd"/><path d="M525.966 61.2384 548.644 61.2384 548.644 83.9156 525.966 83.9156Z" fill="#4472C4" fill-rule="evenodd"/><path d="M548.644 61.2384 571.321 61.2384 571.321 83.9156 548.644 83.9156Z" fill="#4472C4" fill-rule="evenodd"/><path d="M571.321 61.2384 593.998 61.2384 593.998 83.9156 571.321 83.9156Z" fill="#4472C4" fill-rule="evenodd"/><path d="M140.455 83.9156 163.132 83.9156 163.132 106.593 140.455 106.593Z" fill="#4472C4" fill-rule="evenodd"/><path d="M163.132 83.9156 185.809 83.9156 185.809 106.593 163.132 106.593Z" fill="#4472C4" fill-rule="evenodd"/><path d="M185.809 83.9156 208.486 83.9156 208.486 106.593 185.809 106.593Z" fill="#4472C4" fill-rule="evenodd"/><path d="M208.486 83.9156 231.163 83.9156 231.163 106.593 208.486 106.593Z" fill="#4472C4" fill-rule="evenodd"/><path d="M231.163 83.9156 253.84 83.9156 253.84 106.593 231.163 106.593Z" fill="#4472C4" fill-rule="evenodd"/><path d="M253.84 83.9156 276.518 83.9156 276.518 106.593 253.84 106.593Z" fill="#4472C4" fill-rule="evenodd"/><path d="M276.518 83.9156 299.195 83.9156 299.195 106.593 276.518 106.593Z" fill="#4472C4" fill-rule="evenodd"/><path d="M299.195 83.9156 321.872 83.9156 321.872 106.593 299.195 106.593Z" fill="#4472C4" fill-rule="evenodd"/><path d="M321.872 83.9156 344.549 83.9156 344.549 106.593 321.872 106.593Z" fill="#4472C4" fill-rule="evenodd"/><path d="M344.549 83.9156 367.226 83.9156 367.226 106.593 344.549 106.593Z" fill="#4472C4" fill-rule="evenodd"/><path d="M367.226 83.9156 389.903 83.9156 389.903 106.593 367.226 106.593Z" fill="#4472C4" fill-rule="evenodd"/><path d="M389.903 83.9156 412.581 83.9156 412.581 106.593 389.903 106.593Z" fill="#4472C4" fill-rule="evenodd"/><path d="M412.581 83.9156 435.258 83.9156 435.258 106.593 412.581 106.593Z" fill="#4472C4" fill-rule="evenodd"/><path d="M435.258 83.9156 457.935 83.9156 457.935 106.593 435.258 106.593Z" fill="#4472C4" fill-rule="evenodd"/><path d="M457.935 83.9156 480.612 83.9156 480.612 106.593 457.935 106.593Z" fill="#4472C4" fill-rule="evenodd"/><path d="M480.612 83.9156 503.289 83.9156 503.289 106.593 480.612 106.593Z" fill="#4472C4" fill-rule="evenodd"/><path d="M503.289 83.9156 525.966 83.9156 525.966 106.593 503.289 106.593Z" fill="#4472C4" fill-rule="evenodd"/><path d="M525.966 83.9156 548.644 83.9156 548.644 106.593 525.966 106.593Z" fill="#4472C4" fill-rule="evenodd"/><path d="M548.644 83.9156 571.321 83.9156 571.321 106.593 548.644 106.593Z" fill="#4472C4" fill-rule="evenodd"/><path d="M571.321 83.9156 593.998 83.9156 593.998 106.593 571.321 106.593Z" fill="#4472C4" fill-rule="evenodd"/><path d="M140.455 106.593 163.132 106.593 163.132 129.27 140.455 129.27Z" fill="#4472C4" fill-rule="evenodd"/><path d="M163.132 106.593 185.809 106.593 185.809 129.27 163.132 129.27Z" fill="#4472C4" fill-rule="evenodd"/><path d="M185.809 106.593 208.486 106.593 208.486 129.27 185.809 129.27Z" fill="#4472C4" fill-rule="evenodd"/><path d="M208.486 106.593 231.163 106.593 231.163 129.27 208.486 129.27Z" fill="#4472C4" fill-rule="evenodd"/><path d="M231.163 106.593 253.84 106.593 253.84 129.27 231.163 129.27Z" fill="#4472C4" fill-rule="evenodd"/><path d="M253.84 106.593 276.518 106.593 276.518 129.27 253.84 129.27Z" fill="#4472C4" fill-rule="evenodd"/><path d="M276.518 106.593 299.195 106.593 299.195 129.27 276.518 129.27Z" fill="#4472C4" fill-rule="evenodd"/><path d="M299.195 106.593 321.872 106.593 321.872 129.27 299.195 129.27Z" fill="#4472C4" fill-rule="evenodd"/><path d="M321.872 106.593 344.549 106.593 344.549 129.27 321.872 129.27Z" fill="#4472C4" fill-rule="evenodd"/><path d="M344.549 106.593 367.226 106.593 367.226 129.27 344.549 129.27Z" fill="#4472C4" fill-rule="evenodd"/><path d="M367.226 106.593 389.903 106.593 389.903 129.27 367.226 129.27Z" fill="#4472C4" fill-rule="evenodd"/><path d="M389.903 106.593 412.581 106.593 412.581 129.27 389.903 129.27Z" fill="#4472C4" fill-rule="evenodd"/><path d="M412.581 106.593 435.258 106.593 435.258 129.27 412.581 129.27Z" fill="#4472C4" fill-rule="evenodd"/><path d="M435.258 106.593 457.935 106.593 457.935 129.27 435.258 129.27Z" fill="#4472C4" fill-rule="evenodd"/><path d="M457.935 106.593 480.612 106.593 480.612 129.27 457.935 129.27Z" fill="#4472C4" fill-rule="evenodd"/><path d="M480.612 106.593 503.289 106.593 503.289 129.27 480.612 129.27Z" fill="#4472C4" fill-rule="evenodd"/><path d="M503.289 106.593 525.966 106.593 525.966 129.27 503.289 129.27Z" fill="#4472C4" fill-rule="evenodd"/><path d="M525.966 106.593 548.644 106.593 548.644 129.27 525.966 129.27Z" fill="#4472C4" fill-rule="evenodd"/><path d="M548.644 106.593 571.321 106.593 571.321 129.27 548.644 129.27Z" fill="#4472C4" fill-rule="evenodd"/><path d="M571.321 106.593 593.998 106.593 593.998 129.27 571.321 129.27Z" fill="#4472C4" fill-rule="evenodd"/><path d="M140.455 129.27 163.132 129.27 163.132 151.947 140.455 151.947Z" fill="#4472C4" fill-rule="evenodd"/><path d="M163.132 129.27 185.809 129.27 185.809 151.947 163.132 151.947Z" fill="#4472C4" fill-rule="evenodd"/><path d="M185.809 129.27 208.486 129.27 208.486 151.947 185.809 151.947Z" fill="#4472C4" fill-rule="evenodd"/><path d="M208.486 129.27 231.163 129.27 231.163 151.947 208.486 151.947Z" fill="#4472C4" fill-rule="evenodd"/><path d="M231.163 129.27 253.84 129.27 253.84 151.947 231.163 151.947Z" fill="#4472C4" fill-rule="evenodd"/><path d="M253.84 129.27 276.518 129.27 276.518 151.947 253.84 151.947Z" fill="#4472C4" fill-rule="evenodd"/><path d="M276.518 129.27 299.195 129.27 299.195 151.947 276.518 151.947Z" fill="#4472C4" fill-rule="evenodd"/><path d="M299.195 129.27 321.872 129.27 321.872 151.947 299.195 151.947Z" fill="#4472C4" fill-rule="evenodd"/><path d="M321.872 129.27 344.549 129.27 344.549 151.947 321.872 151.947Z" fill="#4472C4" fill-rule="evenodd"/><path d="M344.549 129.27 367.226 129.27 367.226 151.947 344.549 151.947Z" fill="#4472C4" fill-rule="evenodd"/><path d="M367.226 129.27 389.903 129.27 389.903 151.947 367.226 151.947Z" fill="#4472C4" fill-rule="evenodd"/><path d="M389.903 129.27 412.581 129.27 412.581 151.947 389.903 151.947Z" fill="#4472C4" fill-rule="evenodd"/><path d="M412.581 129.27 435.258 129.27 435.258 151.947 412.581 151.947Z" fill="#4472C4" fill-rule="evenodd"/><path d="M435.258 129.27 457.935 129.27 457.935 151.947 435.258 151.947Z" fill="#4472C4" fill-rule="evenodd"/><path d="M457.935 129.27 480.612 129.27 480.612 151.947 457.935 151.947Z" fill="#4472C4" fill-rule="evenodd"/><path d="M480.612 129.27 503.289 129.27 503.289 151.947 480.612 151.947Z" fill="#4472C4" fill-rule="evenodd"/><path d="M503.289 129.27 525.966 129.27 525.966 151.947 503.289 151.947Z" fill="#4472C4" fill-rule="evenodd"/><path d="M525.966 129.27 548.644 129.27 548.644 151.947 525.966 151.947Z" fill="#4472C4" fill-rule="evenodd"/><path d="M548.644 129.27 571.321 129.27 571.321 151.947 548.644 151.947Z" fill="#4472C4" fill-rule="evenodd"/><path d="M571.321 129.27 593.998 129.27 593.998 151.947 571.321 151.947Z" fill="#4472C4" fill-rule="evenodd"/><path d="M140.455 151.947 163.132 151.947 163.132 174.624 140.455 174.624Z" fill="#4472C4" fill-rule="evenodd"/><path d="M163.132 151.947 185.809 151.947 185.809 174.624 163.132 174.624Z" fill="#4472C4" fill-rule="evenodd"/><path d="M185.809 151.947 208.486 151.947 208.486 174.624 185.809 174.624Z" fill="#4472C4" fill-rule="evenodd"/><path d="M208.486 151.947 231.163 151.947 231.163 174.624 208.486 174.624Z" fill="#4472C4" fill-rule="evenodd"/><path d="M231.163 151.947 253.84 151.947 253.84 174.624 231.163 174.624Z" fill="#4472C4" fill-rule="evenodd"/><path d="M253.84 151.947 276.518 151.947 276.518 174.624 253.84 174.624Z" fill="#4472C4" fill-rule="evenodd"/><path d="M276.518 151.947 299.195 151.947 299.195 174.624 276.518 174.624Z" fill="#4472C4" fill-rule="evenodd"/><path d="M299.195 151.947 321.872 151.947 321.872 174.624 299.195 174.624Z" fill="#4472C4" fill-rule="evenodd"/><path d="M321.872 151.947 344.549 151.947 344.549 174.624 321.872 174.624Z" fill="#4472C4" fill-rule="evenodd"/><path d="M344.549 151.947 367.226 151.947 367.226 174.624 344.549 174.624Z" fill="#4472C4" fill-rule="evenodd"/><path d="M367.226 151.947 389.903 151.947 389.903 174.624 367.226 174.624Z" fill="#4472C4" fill-rule="evenodd"/><path d="M389.903 151.947 412.581 151.947 412.581 174.624 389.903 174.624Z" fill="#4472C4" fill-rule="evenodd"/><path d="M412.581 151.947 435.258 151.947 435.258 174.624 412.581 174.624Z" fill="#4472C4" fill-rule="evenodd"/><path d="M435.258 151.947 457.935 151.947 457.935 174.624 435.258 174.624Z" fill="#4472C4" fill-rule="evenodd"/><path d="M457.935 151.947 480.612 151.947 480.612 174.624 457.935 174.624Z" fill="#4472C4" fill-rule="evenodd"/><path d="M480.612 151.947 503.289 151.947 503.289 174.624 480.612 174.624Z" fill="#4472C4" fill-rule="evenodd"/><path d="M503.289 151.947 525.966 151.947 525.966 174.624 503.289 174.624Z" fill="#4472C4" fill-rule="evenodd"/><path d="M525.966 151.947 548.644 151.947 548.644 174.624 525.966 174.624Z" fill="#4472C4" fill-rule="evenodd"/><path d="M548.644 151.947 571.321 151.947 571.321 174.624 548.644 174.624Z" fill="#4472C4" fill-rule="evenodd"/><path d="M571.321 151.947 593.998 151.947 593.998 174.624 571.321 174.624Z" fill="#4472C4" fill-rule="evenodd"/><path d="M140.455 174.624 163.132 174.624 163.132 197.301 140.455 197.301Z" fill="#4472C4" fill-rule="evenodd"/><path d="M163.132 174.624 185.809 174.624 185.809 197.301 163.132 197.301Z" fill="#4472C4" fill-rule="evenodd"/><path d="M185.809 174.624 208.486 174.624 208.486 197.301 185.809 197.301Z" fill="#4472C4" fill-rule="evenodd"/><path d="M208.486 174.624 231.163 174.624 231.163 197.301 208.486 197.301Z" fill="#4472C4" fill-rule="evenodd"/><path d="M231.163 174.624 253.84 174.624 253.84 197.301 231.163 197.301Z" fill="#4472C4" fill-rule="evenodd"/><path d="M253.84 174.624 276.518 174.624 276.518 197.301 253.84 197.301Z" fill="#4472C4" fill-rule="evenodd"/><path d="M276.518 174.624 299.195 174.624 299.195 197.301 276.518 197.301Z" fill="#4472C4" fill-rule="evenodd"/><path d="M299.195 174.624 321.872 174.624 321.872 197.301 299.195 197.301Z" fill="#4472C4" fill-rule="evenodd"/><path d="M321.872 174.624 344.549 174.624 344.549 197.301 321.872 197.301Z" fill="#4472C4" fill-rule="evenodd"/><path d="M344.549 174.624 367.226 174.624 367.226 197.301 344.549 197.301Z" fill="#4472C4" fill-rule="evenodd"/><path d="M367.226 174.624 389.903 174.624 389.903 197.301 367.226 197.301Z" fill="#4472C4" fill-rule="evenodd"/><path d="M389.903 174.624 412.581 174.624 412.581 197.301 389.903 197.301Z" fill="#4472C4" fill-rule="evenodd"/><path d="M412.581 174.624 435.258 174.624 435.258 197.301 412.581 197.301Z" fill="#4472C4" fill-rule="evenodd"/><path d="M435.258 174.624 457.935 174.624 457.935 197.301 435.258 197.301Z" fill="#4472C4" fill-rule="evenodd"/><path d="M457.935 174.624 480.612 174.624 480.612 197.301 457.935 197.301Z" fill="#4472C4" fill-rule="evenodd"/><path d="M480.612 174.624 503.289 174.624 503.289 197.301 480.612 197.301Z" fill="#4472C4" fill-rule="evenodd"/><path d="M503.289 174.624 525.966 174.624 525.966 197.301 503.289 197.301Z" fill="#4472C4" fill-rule="evenodd"/><path d="M525.966 174.624 548.644 174.624 548.644 197.301 525.966 197.301Z" fill="#4472C4" fill-rule="evenodd"/><path d="M548.644 174.624 571.321 174.624 571.321 197.301 548.644 197.301Z" fill="#4472C4" fill-rule="evenodd"/><path d="M571.321 174.624 593.998 174.624 593.998 197.301 571.321 197.301Z" fill="#4472C4" fill-rule="evenodd"/><path d="M140.455 197.301 163.132 197.301 163.132 219.979 140.455 219.979Z" fill="#4472C4" fill-rule="evenodd"/><path d="M163.132 197.301 185.809 197.301 185.809 219.979 163.132 219.979Z" fill="#4472C4" fill-rule="evenodd"/><path d="M185.809 197.301 208.486 197.301 208.486 219.979 185.809 219.979Z" fill="#4472C4" fill-rule="evenodd"/><path d="M208.486 197.301 231.163 197.301 231.163 219.979 208.486 219.979Z" fill="#4472C4" fill-rule="evenodd"/><path d="M231.163 197.301 253.84 197.301 253.84 219.979 231.163 219.979Z" fill="#4472C4" fill-rule="evenodd"/><path d="M253.84 197.301 276.518 197.301 276.518 219.979 253.84 219.979Z" fill="#4472C4" fill-rule="evenodd"/><path d="M276.518 197.301 299.195 197.301 299.195 219.979 276.518 219.979Z" fill="#4472C4" fill-rule="evenodd"/><path d="M299.195 197.301 321.872 197.301 321.872 219.979 299.195 219.979Z" fill="#4472C4" fill-rule="evenodd"/><path d="M321.872 197.301 344.549 197.301 344.549 219.979 321.872 219.979Z" fill="#4472C4" fill-rule="evenodd"/><path d="M344.549 197.301 367.226 197.301 367.226 219.979 344.549 219.979Z" fill="#4472C4" fill-rule="evenodd"/><path d="M367.226 197.301 389.903 197.301 389.903 219.979 367.226 219.979Z" fill="#4472C4" fill-rule="evenodd"/><path d="M389.903 197.301 412.581 197.301 412.581 219.979 389.903 219.979Z" fill="#4472C4" fill-rule="evenodd"/><path d="M412.581 197.301 435.258 197.301 435.258 219.979 412.581 219.979Z" fill="#4472C4" fill-rule="evenodd"/><path d="M435.258 197.301 457.935 197.301 457.935 219.979 435.258 219.979Z" fill="#4472C4" fill-rule="evenodd"/><path d="M457.935 197.301 480.612 197.301 480.612 219.979 457.935 219.979Z" fill="#4472C4" fill-rule="evenodd"/><path d="M480.612 197.301 503.289 197.301 503.289 219.979 480.612 219.979Z" fill="#4472C4" fill-rule="evenodd"/><path d="M503.289 197.301 525.966 197.301 525.966 219.979 503.289 219.979Z" fill="#4472C4" fill-rule="evenodd"/><path d="M525.966 197.301 548.644 197.301 548.644 219.979 525.966 219.979Z" fill="#4472C4" fill-rule="evenodd"/><path d="M548.644 197.301 571.321 197.301 571.321 219.979 548.644 219.979Z" fill="#4472C4" fill-rule="evenodd"/><path d="M571.321 197.301 593.998 197.301 593.998 219.979 571.321 219.979Z" fill="#4472C4" fill-rule="evenodd"/><path d="M140.455 219.979 163.132 219.979 163.132 242.656 140.455 242.656Z" fill="#4472C4" fill-rule="evenodd"/><path d="M163.132 219.979 185.809 219.979 185.809 242.656 163.132 242.656Z" fill="#4472C4" fill-rule="evenodd"/><path d="M185.809 219.979 208.486 219.979 208.486 242.656 185.809 242.656Z" fill="#4472C4" fill-rule="evenodd"/><path d="M208.486 219.979 231.163 219.979 231.163 242.656 208.486 242.656Z" fill="#4472C4" fill-rule="evenodd"/><path d="M231.163 219.979 253.84 219.979 253.84 242.656 231.163 242.656Z" fill="#4472C4" fill-rule="evenodd"/><path d="M253.84 219.979 276.518 219.979 276.518 242.656 253.84 242.656Z" fill="#4472C4" fill-rule="evenodd"/><path d="M276.518 219.979 299.195 219.979 299.195 242.656 276.518 242.656Z" fill="#4472C4" fill-rule="evenodd"/><path d="M299.195 219.979 321.872 219.979 321.872 242.656 299.195 242.656Z" fill="#4472C4" fill-rule="evenodd"/><path d="M321.872 219.979 344.549 219.979 344.549 242.656 321.872 242.656Z" fill="#4472C4" fill-rule="evenodd"/><path d="M344.549 219.979 367.226 219.979 367.226 242.656 344.549 242.656Z" fill="#4472C4" fill-rule="evenodd"/><path d="M367.226 219.979 389.903 219.979 389.903 242.656 367.226 242.656Z" fill="#4472C4" fill-rule="evenodd"/><path d="M389.903 219.979 412.581 219.979 412.581 242.656 389.903 242.656Z" fill="#4472C4" fill-rule="evenodd"/><path d="M412.581 219.979 435.258 219.979 435.258 242.656 412.581 242.656Z" fill="#4472C4" fill-rule="evenodd"/><path d="M435.258 219.979 457.935 219.979 457.935 242.656 435.258 242.656Z" fill="#4472C4" fill-rule="evenodd"/><path d="M457.935 219.979 480.612 219.979 480.612 242.656 457.935 242.656Z" fill="#4472C4" fill-rule="evenodd"/><path d="M480.612 219.979 503.289 219.979 503.289 242.656 480.612 242.656Z" fill="#4472C4" fill-rule="evenodd"/><path d="M503.289 219.979 525.966 219.979 525.966 242.656 503.289 242.656Z" fill="#4472C4" fill-rule="evenodd"/><path d="M525.966 219.979 548.644 219.979 548.644 242.656 525.966 242.656Z" fill="#4472C4" fill-rule="evenodd"/><path d="M548.644 219.979 571.321 219.979 571.321 242.656 548.644 242.656Z" fill="#4472C4" fill-rule="evenodd"/><path d="M571.321 219.979 593.998 219.979 593.998 242.656 571.321 242.656Z" fill="#4472C4" fill-rule="evenodd"/><path d="M140.455 242.656 163.132 242.656 163.132 265.333 140.455 265.333Z" fill="#4472C4" fill-rule="evenodd"/><path d="M163.132 242.656 185.809 242.656 185.809 265.333 163.132 265.333Z" fill="#4472C4" fill-rule="evenodd"/><path d="M185.809 242.656 208.486 242.656 208.486 265.333 185.809 265.333Z" fill="#4472C4" fill-rule="evenodd"/><path d="M208.486 242.656 231.163 242.656 231.163 265.333 208.486 265.333Z" fill="#4472C4" fill-rule="evenodd"/><path d="M231.163 242.656 253.84 242.656 253.84 265.333 231.163 265.333Z" fill="#4472C4" fill-rule="evenodd"/><path d="M253.84 242.656 276.518 242.656 276.518 265.333 253.84 265.333Z" fill="#4472C4" fill-rule="evenodd"/><path d="M276.518 242.656 299.195 242.656 299.195 265.333 276.518 265.333Z" fill="#4472C4" fill-rule="evenodd"/><path d="M299.195 242.656 321.872 242.656 321.872 265.333 299.195 265.333Z" fill="#4472C4" fill-rule="evenodd"/><path d="M321.872 242.656 344.549 242.656 344.549 265.333 321.872 265.333Z" fill="#4472C4" fill-rule="evenodd"/><path d="M344.549 242.656 367.226 242.656 367.226 265.333 344.549 265.333Z" fill="#4472C4" fill-rule="evenodd"/><path d="M367.226 242.656 389.903 242.656 389.903 265.333 367.226 265.333Z" fill="#4472C4" fill-rule="evenodd"/><path d="M389.903 242.656 412.581 242.656 412.581 265.333 389.903 265.333Z" fill="#4472C4" fill-rule="evenodd"/><path d="M412.581 242.656 435.258 242.656 435.258 265.333 412.581 265.333Z" fill="#4472C4" fill-rule="evenodd"/><path d="M435.258 242.656 457.935 242.656 457.935 265.333 435.258 265.333Z" fill="#4472C4" fill-rule="evenodd"/><path d="M457.935 242.656 480.612 242.656 480.612 265.333 457.935 265.333Z" fill="#4472C4" fill-rule="evenodd"/><path d="M480.612 242.656 503.289 242.656 503.289 265.333 480.612 265.333Z" fill="#4472C4" fill-rule="evenodd"/><path d="M503.289 242.656 525.966 242.656 525.966 265.333 503.289 265.333Z" fill="#4472C4" fill-rule="evenodd"/><path d="M525.966 242.656 548.644 242.656 548.644 265.333 525.966 265.333Z" fill="#4472C4" fill-rule="evenodd"/><path d="M548.644 242.656 571.321 242.656 571.321 265.333 548.644 265.333Z" fill="#4472C4" fill-rule="evenodd"/><path d="M571.321 242.656 593.998 242.656 593.998 265.333 571.321 265.333Z" fill="#4472C4" fill-rule="evenodd"/><path d="M140.455 265.333 163.132 265.333 163.132 288.01 140.455 288.01Z" fill="#4472C4" fill-rule="evenodd"/><path d="M163.132 265.333 185.809 265.333 185.809 288.01 163.132 288.01Z" fill="#4472C4" fill-rule="evenodd"/><path d="M185.809 265.333 208.486 265.333 208.486 288.01 185.809 288.01Z" fill="#4472C4" fill-rule="evenodd"/><path d="M208.486 265.333 231.163 265.333 231.163 288.01 208.486 288.01Z" fill="#4472C4" fill-rule="evenodd"/><path d="M231.163 265.333 253.84 265.333 253.84 288.01 231.163 288.01Z" fill="#4472C4" fill-rule="evenodd"/><path d="M253.84 265.333 276.518 265.333 276.518 288.01 253.84 288.01Z" fill="#4472C4" fill-rule="evenodd"/><path d="M276.518 265.333 299.195 265.333 299.195 288.01 276.518 288.01Z" fill="#4472C4" fill-rule="evenodd"/><path d="M299.195 265.333 321.872 265.333 321.872 288.01 299.195 288.01Z" fill="#4472C4" fill-rule="evenodd"/><path d="M321.872 265.333 344.549 265.333 344.549 288.01 321.872 288.01Z" fill="#4472C4" fill-rule="evenodd"/><path d="M344.549 265.333 367.226 265.333 367.226 288.01 344.549 288.01Z" fill="#4472C4" fill-rule="evenodd"/><path d="M367.226 265.333 389.903 265.333 389.903 288.01 367.226 288.01Z" fill="#4472C4" fill-rule="evenodd"/><path d="M389.903 265.333 412.581 265.333 412.581 288.01 389.903 288.01Z" fill="#4472C4" fill-rule="evenodd"/><path d="M412.581 265.333 435.258 265.333 435.258 288.01 412.581 288.01Z" fill="#4472C4" fill-rule="evenodd"/><path d="M435.258 265.333 457.935 265.333 457.935 288.01 435.258 288.01Z" fill="#4472C4" fill-rule="evenodd"/><path d="M457.935 265.333 480.612 265.333 480.612 288.01 457.935 288.01Z" fill="#4472C4" fill-rule="evenodd"/><path d="M480.612 265.333 503.289 265.333 503.289 288.01 480.612 288.01Z" fill="#4472C4" fill-rule="evenodd"/><path d="M503.289 265.333 525.966 265.333 525.966 288.01 503.289 288.01Z" fill="#4472C4" fill-rule="evenodd"/><path d="M525.966 265.333 548.644 265.333 548.644 288.01 525.966 288.01Z" fill="#4472C4" fill-rule="evenodd"/><path d="M548.644 265.333 571.321 265.333 571.321 288.01 548.644 288.01Z" fill="#4472C4" fill-rule="evenodd"/><path d="M571.321 265.333 593.998 265.333 593.998 288.01 571.321 288.01Z" fill="#4472C4" fill-rule="evenodd"/><path d="M140.455 288.01 163.132 288.01 163.132 310.687 140.455 310.687Z" fill="#4472C4" fill-rule="evenodd"/><path d="M163.132 288.01 185.809 288.01 185.809 310.687 163.132 310.687Z" fill="#4472C4" fill-rule="evenodd"/><path d="M185.809 288.01 208.486 288.01 208.486 310.687 185.809 310.687Z" fill="#4472C4" fill-rule="evenodd"/><path d="M208.486 288.01 231.163 288.01 231.163 310.687 208.486 310.687Z" fill="#4472C4" fill-rule="evenodd"/><path d="M231.163 288.01 253.84 288.01 253.84 310.687 231.163 310.687Z" fill="#4472C4" fill-rule="evenodd"/><path d="M253.84 288.01 276.518 288.01 276.518 310.687 253.84 310.687Z" fill="#4472C4" fill-rule="evenodd"/><path d="M276.518 288.01 299.195 288.01 299.195 310.687 276.518 310.687Z" fill="#4472C4" fill-rule="evenodd"/><path d="M299.195 288.01 321.872 288.01 321.872 310.687 299.195 310.687Z" fill="#4472C4" fill-rule="evenodd"/><path d="M321.872 288.01 344.549 288.01 344.549 310.687 321.872 310.687Z" fill="#4472C4" fill-rule="evenodd"/><path d="M344.549 288.01 367.226 288.01 367.226 310.687 344.549 310.687Z" fill="#4472C4" fill-rule="evenodd"/><path d="M367.226 288.01 389.903 288.01 389.903 310.687 367.226 310.687Z" fill="#4472C4" fill-rule="evenodd"/><path d="M389.903 288.01 412.581 288.01 412.581 310.687 389.903 310.687Z" fill="#4472C4" fill-rule="evenodd"/><path d="M412.581 288.01 435.258 288.01 435.258 310.687 412.581 310.687Z" fill="#4472C4" fill-rule="evenodd"/><path d="M435.258 288.01 457.935 288.01 457.935 310.687 435.258 310.687Z" fill="#4472C4" fill-rule="evenodd"/><path d="M457.935 288.01 480.612 288.01 480.612 310.687 457.935 310.687Z" fill="#4472C4" fill-rule="evenodd"/><path d="M480.612 288.01 503.289 288.01 503.289 310.687 480.612 310.687Z" fill="#4472C4" fill-rule="evenodd"/><path d="M503.289 288.01 525.966 288.01 525.966 310.687 503.289 310.687Z" fill="#4472C4" fill-rule="evenodd"/><path d="M525.966 288.01 548.644 288.01 548.644 310.687 525.966 310.687Z" fill="#4472C4" fill-rule="evenodd"/><path d="M548.644 288.01 571.321 288.01 571.321 310.687 548.644 310.687Z" fill="#4472C4" fill-rule="evenodd"/><path d="M571.321 288.01 593.998 288.01 593.998 310.687 571.321 310.687Z" fill="#4472C4" fill-rule="evenodd"/><path d="M140.455 310.687 163.132 310.687 163.132 333.364 140.455 333.364Z" fill="#4472C4" fill-rule="evenodd"/><path d="M163.132 310.687 185.809 310.687 185.809 333.364 163.132 333.364Z" fill="#4472C4" fill-rule="evenodd"/><path d="M185.809 310.687 208.486 310.687 208.486 333.364 185.809 333.364Z" fill="#4472C4" fill-rule="evenodd"/><path d="M208.486 310.687 231.163 310.687 231.163 333.364 208.486 333.364Z" fill="#4472C4" fill-rule="evenodd"/><path d="M231.163 310.687 253.84 310.687 253.84 333.364 231.163 333.364Z" fill="#4472C4" fill-rule="evenodd"/><path d="M253.84 310.687 276.518 310.687 276.518 333.364 253.84 333.364Z" fill="#4472C4" fill-rule="evenodd"/><path d="M276.518 310.687 299.195 310.687 299.195 333.364 276.518 333.364Z" fill="#4472C4" fill-rule="evenodd"/><path d="M299.195 310.687 321.872 310.687 321.872 333.364 299.195 333.364Z" fill="#4472C4" fill-rule="evenodd"/><path d="M321.872 310.687 344.549 310.687 344.549 333.364 321.872 333.364Z" fill="#4472C4" fill-rule="evenodd"/><path d="M344.549 310.687 367.226 310.687 367.226 333.364 344.549 333.364Z" fill="#4472C4" fill-rule="evenodd"/><path d="M367.226 310.687 389.903 310.687 389.903 333.364 367.226 333.364Z" fill="#4472C4" fill-rule="evenodd"/><path d="M389.903 310.687 412.581 310.687 412.581 333.364 389.903 333.364Z" fill="#4472C4" fill-rule="evenodd"/><path d="M412.581 310.687 435.258 310.687 435.258 333.364 412.581 333.364Z" fill="#4472C4" fill-rule="evenodd"/><path d="M435.258 310.687 457.935 310.687 457.935 333.364 435.258 333.364Z" fill="#4472C4" fill-rule="evenodd"/><path d="M457.935 310.687 480.612 310.687 480.612 333.364 457.935 333.364Z" fill="#4472C4" fill-rule="evenodd"/><path d="M480.612 310.687 503.289 310.687 503.289 333.364 480.612 333.364Z" fill="#4472C4" fill-rule="evenodd"/><path d="M503.289 310.687 525.966 310.687 525.966 333.364 503.289 333.364Z" fill="#4472C4" fill-rule="evenodd"/><path d="M525.966 310.687 548.644 310.687 548.644 333.364 525.966 333.364Z" fill="#4472C4" fill-rule="evenodd"/><path d="M548.644 310.687 571.321 310.687 571.321 333.364 548.644 333.364Z" fill="#4472C4" fill-rule="evenodd"/><path d="M571.321 310.687 593.998 310.687 593.998 333.364 571.321 333.364Z" fill="#4472C4" fill-rule="evenodd"/><path d="M140.455 333.364 163.132 333.364 163.132 356.042 140.455 356.042Z" fill="#4472C4" fill-rule="evenodd"/><path d="M163.132 333.364 185.809 333.364 185.809 356.042 163.132 356.042Z" fill="#4472C4" fill-rule="evenodd"/><path d="M185.809 333.364 208.486 333.364 208.486 356.042 185.809 356.042Z" fill="#4472C4" fill-rule="evenodd"/><path d="M208.486 333.364 231.163 333.364 231.163 356.042 208.486 356.042Z" fill="#4472C4" fill-rule="evenodd"/><path d="M231.163 333.364 253.84 333.364 253.84 356.042 231.163 356.042Z" fill="#4472C4" fill-rule="evenodd"/><path d="M253.84 333.364 276.518 333.364 276.518 356.042 253.84 356.042Z" fill="#4472C4" fill-rule="evenodd"/><path d="M276.518 333.364 299.195 333.364 299.195 356.042 276.518 356.042Z" fill="#4472C4" fill-rule="evenodd"/><path d="M299.195 333.364 321.872 333.364 321.872 356.042 299.195 356.042Z" fill="#4472C4" fill-rule="evenodd"/><path d="M321.872 333.364 344.549 333.364 344.549 356.042 321.872 356.042Z" fill="#4472C4" fill-rule="evenodd"/><path d="M344.549 333.364 367.226 333.364 367.226 356.042 344.549 356.042Z" fill="#4472C4" fill-rule="evenodd"/><path d="M367.226 333.364 389.903 333.364 389.903 356.042 367.226 356.042Z" fill="#4472C4" fill-rule="evenodd"/><path d="M389.903 333.364 412.581 333.364 412.581 356.042 389.903 356.042Z" fill="#4472C4" fill-rule="evenodd"/><path d="M412.581 333.364 435.258 333.364 435.258 356.042 412.581 356.042Z" fill="#4472C4" fill-rule="evenodd"/><path d="M435.258 333.364 457.935 333.364 457.935 356.042 435.258 356.042Z" fill="#4472C4" fill-rule="evenodd"/><path d="M457.935 333.364 480.612 333.364 480.612 356.042 457.935 356.042Z" fill="#4472C4" fill-rule="evenodd"/><path d="M480.612 333.364 503.289 333.364 503.289 356.042 480.612 356.042Z" fill="#4472C4" fill-rule="evenodd"/><path d="M503.289 333.364 525.966 333.364 525.966 356.042 503.289 356.042Z" fill="#4472C4" fill-rule="evenodd"/><path d="M525.966 333.364 548.644 333.364 548.644 356.042 525.966 356.042Z" fill="#4472C4" fill-rule="evenodd"/><path d="M548.644 333.364 571.321 333.364 571.321 356.042 548.644 356.042Z" fill="#4472C4" fill-rule="evenodd"/><path d="M571.321 333.364 593.998 333.364 593.998 356.042 571.321 356.042Z" fill="#4472C4" fill-rule="evenodd"/><path d="M140.455 356.042 163.132 356.042 163.132 378.719 140.455 378.719Z" fill="#4472C4" fill-rule="evenodd"/><path d="M163.132 356.042 185.809 356.042 185.809 378.719 163.132 378.719Z" fill="#4472C4" fill-rule="evenodd"/><path d="M185.809 356.042 208.486 356.042 208.486 378.719 185.809 378.719Z" fill="#4472C4" fill-rule="evenodd"/><path d="M208.486 356.042 231.163 356.042 231.163 378.719 208.486 378.719Z" fill="#4472C4" fill-rule="evenodd"/><path d="M231.163 356.042 253.84 356.042 253.84 378.719 231.163 378.719Z" fill="#4472C4" fill-rule="evenodd"/><path d="M253.84 356.042 276.518 356.042 276.518 378.719 253.84 378.719Z" fill="#4472C4" fill-rule="evenodd"/><path d="M276.518 356.042 299.195 356.042 299.195 378.719 276.518 378.719Z" fill="#4472C4" fill-rule="evenodd"/><path d="M299.195 356.042 321.872 356.042 321.872 378.719 299.195 378.719Z" fill="#4472C4" fill-rule="evenodd"/><path d="M321.872 356.042 344.549 356.042 344.549 378.719 321.872 378.719Z" fill="#4472C4" fill-rule="evenodd"/><path d="M344.549 356.042 367.226 356.042 367.226 378.719 344.549 378.719Z" fill="#4472C4" fill-rule="evenodd"/><path d="M367.226 356.042 389.903 356.042 389.903 378.719 367.226 378.719Z" fill="#4472C4" fill-rule="evenodd"/><path d="M389.903 356.042 412.581 356.042 412.581 378.719 389.903 378.719Z" fill="#4472C4" fill-rule="evenodd"/><path d="M412.581 356.042 435.258 356.042 435.258 378.719 412.581 378.719Z" fill="#4472C4" fill-rule="evenodd"/><path d="M435.258 356.042 457.935 356.042 457.935 378.719 435.258 378.719Z" fill="#4472C4" fill-rule="evenodd"/><path d="M457.935 356.042 480.612 356.042 480.612 378.719 457.935 378.719Z" fill="#4472C4" fill-rule="evenodd"/><path d="M480.612 356.042 503.289 356.042 503.289 378.719 480.612 378.719Z" fill="#4472C4" fill-rule="evenodd"/><path d="M503.289 356.042 525.966 356.042 525.966 378.719 503.289 378.719Z" fill="#4472C4" fill-rule="evenodd"/><path d="M525.966 356.042 548.644 356.042 548.644 378.719 525.966 378.719Z" fill="#4472C4" fill-rule="evenodd"/><path d="M548.644 356.042 571.321 356.042 571.321 378.719 548.644 378.719Z" fill="#4472C4" fill-rule="evenodd"/><path d="M571.321 356.042 593.998 356.042 593.998 378.719 571.321 378.719Z" fill="#4472C4" fill-rule="evenodd"/><path d="M163.132 15.2174 163.132 379.385" stroke="#000000" stroke-width="1.33333" stroke-linejoin="round" stroke-miterlimit="10" fill="none" fill-rule="evenodd"/><path d="M185.809 15.2174 185.809 379.385" stroke="#000000" stroke-width="1.33333" stroke-linejoin="round" stroke-miterlimit="10" fill="none" fill-rule="evenodd"/><path d="M208.486 15.2174 208.486 379.385" stroke="#000000" stroke-width="1.33333" stroke-linejoin="round" stroke-miterlimit="10" fill="none" fill-rule="evenodd"/><path d="M231.163 15.2174 231.163 379.385" stroke="#000000" stroke-width="1.33333" stroke-linejoin="round" stroke-miterlimit="10" fill="none" fill-rule="evenodd"/><path d="M253.84 15.2174 253.84 379.385" stroke="#000000" stroke-width="1.33333" stroke-linejoin="round" stroke-miterlimit="10" fill="none" fill-rule="evenodd"/><path d="M276.518 15.2174 276.518 379.385" stroke="#000000" stroke-width="1.33333" stroke-linejoin="round" stroke-miterlimit="10" fill="none" fill-rule="evenodd"/><path d="M299.195 15.2174 299.195 379.385" stroke="#000000" stroke-width="1.33333" stroke-linejoin="round" stroke-miterlimit="10" fill="none" fill-rule="evenodd"/><path d="M321.872 15.2174 321.872 379.385" stroke="#000000" stroke-width="1.33333" stroke-linejoin="round" stroke-miterlimit="10" fill="none" fill-rule="evenodd"/><path d="M344.549 15.2174 344.549 379.385" stroke="#000000" stroke-width="1.33333" stroke-linejoin="round" stroke-miterlimit="10" fill="none" fill-rule="evenodd"/><path d="M367.226 15.2174 367.226 379.385" stroke="#000000" stroke-width="1.33333" stroke-linejoin="round" stroke-miterlimit="10" fill="none" fill-rule="evenodd"/><path d="M389.903 15.2174 389.903 379.385" stroke="#000000" stroke-width="1.33333" stroke-linejoin="round" stroke-miterlimit="10" fill="none" fill-rule="evenodd"/><path d="M412.581 15.2174 412.581 379.385" stroke="#000000" stroke-width="1.33333" stroke-linejoin="round" stroke-miterlimit="10" fill="none" fill-rule="evenodd"/><path d="M435.258 15.2174 435.258 379.385" stroke="#000000" stroke-width="1.33333" stroke-linejoin="round" stroke-miterlimit="10" fill="none" fill-rule="evenodd"/><path d="M457.935 37.8946 457.935 379.385" stroke="#000000" stroke-width="1.33333" stroke-linejoin="round" stroke-miterlimit="10" fill="none" fill-rule="evenodd"/><path d="M480.612 37.8946 480.612 379.385" stroke="#000000" stroke-width="1.33333" stroke-linejoin="round" stroke-miterlimit="10" fill="none" fill-rule="evenodd"/><path d="M503.289 37.8946 503.289 379.385" stroke="#000000" stroke-width="1.33333" stroke-linejoin="round" stroke-miterlimit="10" fill="none" fill-rule="evenodd"/><path d="M525.966 37.8946 525.966 379.385" stroke="#000000" stroke-width="1.33333" stroke-linejoin="round" stroke-miterlimit="10" fill="none" fill-rule="evenodd"/><path d="M548.644 37.8946 548.644 379.385" stroke="#000000" stroke-width="1.33333" stroke-linejoin="round" stroke-miterlimit="10" fill="none" fill-rule="evenodd"/><path d="M571.321 37.8946 571.321 379.385" stroke="#000000" stroke-width="1.33333" stroke-linejoin="round" stroke-miterlimit="10" fill="none" fill-rule="evenodd"/><path d="M139.788 38.5613 594.665 38.5613" stroke="#000000" stroke-width="1.33333" stroke-linejoin="round" stroke-miterlimit="10" fill="none" fill-rule="evenodd"/><path d="M139.788 61.2384 594.665 61.2384" stroke="#000000" stroke-width="1.33333" stroke-linejoin="round" stroke-miterlimit="10" fill="none" fill-rule="evenodd"/><path d="M139.788 83.9156 594.665 83.9156" stroke="#000000" stroke-width="1.33333" stroke-linejoin="round" stroke-miterlimit="10" fill="none" fill-rule="evenodd"/><path d="M139.788 106.593 594.665 106.593" stroke="#000000" stroke-width="1.33333" stroke-linejoin="round" stroke-miterlimit="10" fill="none" fill-rule="evenodd"/><path d="M139.788 129.27 594.665 129.27" stroke="#000000" stroke-width="1.33333" stroke-linejoin="round" stroke-miterlimit="10" fill="none" fill-rule="evenodd"/><path d="M139.788 151.947 594.665 151.947" stroke="#000000" stroke-width="1.33333" stroke-linejoin="round" stroke-miterlimit="10" fill="none" fill-rule="evenodd"/><path d="M139.788 174.624 594.665 174.624" stroke="#000000" stroke-width="1.33333" stroke-linejoin="round" stroke-miterlimit="10" fill="none" fill-rule="evenodd"/><path d="M139.788 197.301 594.665 197.301" stroke="#000000" stroke-width="1.33333" stroke-linejoin="round" stroke-miterlimit="10" fill="none" fill-rule="evenodd"/><path d="M139.788 219.979 594.665 219.979" stroke="#000000" stroke-width="1.33333" stroke-linejoin="round" stroke-miterlimit="10" fill="none" fill-rule="evenodd"/><path d="M139.788 242.656 594.665 242.656" stroke="#000000" stroke-width="1.33333" stroke-linejoin="round" stroke-miterlimit="10" fill="none" fill-rule="evenodd"/><path d="M139.788 265.333 594.665 265.333" stroke="#000000" stroke-width="1.33333" stroke-linejoin="round" stroke-miterlimit="10" fill="none" fill-rule="evenodd"/><path d="M139.788 288.01 594.665 288.01" stroke="#000000" stroke-width="1.33333" stroke-linejoin="round" stroke-miterlimit="10" fill="none" fill-rule="evenodd"/><path d="M139.788 310.687 594.665 310.687" stroke="#000000" stroke-width="1.33333" stroke-linejoin="round" stroke-miterlimit="10" fill="none" fill-rule="evenodd"/><path d="M139.788 333.364 594.665 333.364" stroke="#000000" stroke-width="1.33333" stroke-linejoin="round" stroke-miterlimit="10" fill="none" fill-rule="evenodd"/><path d="M139.788 356.042 594.665 356.042" stroke="#000000" stroke-width="1.33333" stroke-linejoin="round" stroke-miterlimit="10" fill="none" fill-rule="evenodd"/><path d="M140.455 15.2174 140.455 379.385" stroke="#000000" stroke-width="1.33333" stroke-linejoin="round" stroke-miterlimit="10" fill="none" fill-rule="evenodd"/><path d="M593.998 37.8946 593.998 379.385" stroke="#000000" stroke-width="1.33333" stroke-linejoin="round" stroke-miterlimit="10" fill="none" fill-rule="evenodd"/><path d="M139.788 15.8841 435.924 15.8841" stroke="#000000" stroke-width="1.33333" stroke-linejoin="round" stroke-miterlimit="10" fill="none" fill-rule="evenodd"/><path d="M139.788 378.719 594.665 378.719" stroke="#000000" stroke-width="1.33333" stroke-linejoin="round" stroke-miterlimit="10" fill="none" fill-rule="evenodd"/><text font-family="Calibri,Calibri_MSFontService,sans-serif" font-weight="700" font-size="24" transform="translate(299.86 406)">Christianisme <tspan x="29.78" y="29">(31,3%)</tspan></text></g></svg>