<svg width="457" height="147" xmlns="http://www.w3.org/2000/svg" xmlns:xlink="http://www.w3.org/1999/xlink" overflow="hidden"><defs><clipPath id="clip0"><rect x="-36" y="453" width="457" height="147"/></clipPath></defs><g clip-path="url(#clip0)" transform="translate(36 -453)"><text font-family="Calibri,Calibri_MSFontService,sans-serif" font-weight="700" font-size="24" transform="translate(38.5868 550)">Religion traditionnelle chinoise<tspan x="122.227" y="29">(5,2</tspan>%)</text><path d="M-34.4581 454.144-11.7809 454.144-11.7809 476.821-34.4581 476.821Z" fill="#72E5EF" fill-rule="evenodd"/><path d="M-11.7809 454.144 10.8963 454.144 10.8963 476.821-11.7809 476.821Z" fill="#72E5EF" fill-rule="evenodd"/><path d="M10.8963 454.144 33.5734 454.144 33.5734 476.821 10.8963 476.821Z" fill="#72E5EF" fill-rule="evenodd"/><path d="M33.5734 454.144 56.2506 454.144 56.2506 476.821 33.5734 476.821Z" fill="#72E5EF" fill-rule="evenodd"/><path d="M56.2506 454.144 78.9278 454.144 78.9278 476.821 56.2506 476.821Z" fill="#72E5EF" fill-rule="evenodd"/><path d="M78.9278 454.144 101.605 454.144 101.605 476.821 78.9278 476.821Z" fill="#72E5EF" fill-rule="evenodd"/><path d="M101.605 454.144 124.282 454.144 124.282 476.821 101.605 476.821Z" fill="#72E5EF" fill-rule="evenodd"/><path d="M124.282 454.144 146.959 454.144 146.959 476.821 124.282 476.821Z" fill="#72E5EF" fill-rule="evenodd"/><path d="M146.959 454.144 169.636 454.144 169.636 476.821 146.959 476.821Z" fill="#72E5EF" fill-rule="evenodd"/><path d="M169.636 454.144 192.314 454.144 192.314 476.821 169.636 476.821Z" fill="#72E5EF" fill-rule="evenodd"/><path d="M192.314 454.144 214.991 454.144 214.991 476.821 192.314 476.821Z" fill="#72E5EF" fill-rule="evenodd"/><path d="M214.991 454.144 237.668 454.144 237.668 476.821 214.991 476.821Z" fill="#72E5EF" fill-rule="evenodd"/><path d="M237.668 454.144 419.085 454.144 419.085 476.821 237.668 476.821Z" fill="#FFFFFF" fill-rule="evenodd"/><path d="M-34.4581 476.821-11.7809 476.821-11.7809 499.498-34.4581 499.498Z" fill="#72E5EF" fill-rule="evenodd"/><path d="M-11.7809 476.821 10.8963 476.821 10.8963 499.498-11.7809 499.498Z" fill="#72E5EF" fill-rule="evenodd"/><path d="M10.8963 476.821 33.5734 476.821 33.5734 499.498 10.8963 499.498Z" fill="#72E5EF" fill-rule="evenodd"/><path d="M33.5734 476.821 56.2506 476.821 56.2506 499.498 33.5734 499.498Z" fill="#72E5EF" fill-rule="evenodd"/><path d="M56.2506 476.821 78.9278 476.821 78.9278 499.498 56.2506 499.498Z" fill="#72E5EF" fill-rule="evenodd"/><path d="M78.9278 476.821 101.605 476.821 101.605 499.498 78.9278 499.498Z" fill="#72E5EF" fill-rule="evenodd"/><path d="M101.605 476.821 124.282 476.821 124.282 499.498 101.605 499.498Z" fill="#72E5EF" fill-rule="evenodd"/><path d="M124.282 476.821 146.959 476.821 146.959 499.498 124.282 499.498Z" fill="#72E5EF" fill-rule="evenodd"/><path d="M146.959 476.821 169.636 476.821 169.636 499.498 146.959 499.498Z" fill="#72E5EF" fill-rule="evenodd"/><path d="M169.636 476.821 192.314 476.821 192.314 499.498 169.636 499.498Z" fill="#72E5EF" fill-rule="evenodd"/><path d="M192.314 476.821 214.991 476.821 214.991 499.498 192.314 499.498Z" fill="#72E5EF" fill-rule="evenodd"/><path d="M214.991 476.821 237.668 476.821 237.668 499.498 214.991 499.498Z" fill="#72E5EF" fill-rule="evenodd"/><path d="M237.668 476.821 260.345 476.821 260.345 499.498 237.668 499.498Z" fill="#72E5EF" fill-rule="evenodd"/><path d="M260.345 476.821 283.022 476.821 283.022 499.498 260.345 499.498Z" fill="#72E5EF" fill-rule="evenodd"/><path d="M283.022 476.821 305.699 476.821 305.699 499.498 283.022 499.498Z" fill="#72E5EF" fill-rule="evenodd"/><path d="M305.699 476.821 328.377 476.821 328.377 499.498 305.699 499.498Z" fill="#72E5EF" fill-rule="evenodd"/><path d="M328.377 476.821 351.054 476.821 351.054 499.498 328.377 499.498Z" fill="#72E5EF" fill-rule="evenodd"/><path d="M351.054 476.821 373.731 476.821 373.731 499.498 351.054 499.498Z" fill="#72E5EF" fill-rule="evenodd"/><path d="M373.731 476.821 396.408 476.821 396.408 499.498 373.731 499.498Z" fill="#72E5EF" fill-rule="evenodd"/><path d="M396.408 476.821 419.085 476.821 419.085 499.498 396.408 499.498Z" fill="#72E5EF" fill-rule="evenodd"/><path d="M-34.4581 499.498-11.7809 499.498-11.7809 522.175-34.4581 522.175Z" fill="#72E5EF" fill-rule="evenodd"/><path d="M-11.7809 499.498 10.8963 499.498 10.8963 522.175-11.7809 522.175Z" fill="#72E5EF" fill-rule="evenodd"/><path d="M10.8963 499.498 33.5734 499.498 33.5734 522.175 10.8963 522.175Z" fill="#72E5EF" fill-rule="evenodd"/><path d="M33.5734 499.498 56.2506 499.498 56.2506 522.175 33.5734 522.175Z" fill="#72E5EF" fill-rule="evenodd"/><path d="M56.2506 499.498 78.9278 499.498 78.9278 522.175 56.2506 522.175Z" fill="#72E5EF" fill-rule="evenodd"/><path d="M78.9278 499.498 101.605 499.498 101.605 522.175 78.9278 522.175Z" fill="#72E5EF" fill-rule="evenodd"/><path d="M101.605 499.498 124.282 499.498 124.282 522.175 101.605 522.175Z" fill="#72E5EF" fill-rule="evenodd"/><path d="M124.282 499.498 146.959 499.498 146.959 522.175 124.282 522.175Z" fill="#72E5EF" fill-rule="evenodd"/><path d="M146.959 499.498 169.636 499.498 169.636 522.175 146.959 522.175Z" fill="#72E5EF" fill-rule="evenodd"/><path d="M169.636 499.498 192.314 499.498 192.314 522.175 169.636 522.175Z" fill="#72E5EF" fill-rule="evenodd"/><path d="M192.314 499.498 214.991 499.498 214.991 522.175 192.314 522.175Z" fill="#72E5EF" fill-rule="evenodd"/><path d="M214.991 499.498 237.668 499.498 237.668 522.175 214.991 522.175Z" fill="#72E5EF" fill-rule="evenodd"/><path d="M237.668 499.498 260.345 499.498 260.345 522.175 237.668 522.175Z" fill="#72E5EF" fill-rule="evenodd"/><path d="M260.345 499.498 283.022 499.498 283.022 522.175 260.345 522.175Z" fill="#72E5EF" fill-rule="evenodd"/><path d="M283.022 499.498 305.699 499.498 305.699 522.175 283.022 522.175Z" fill="#72E5EF" fill-rule="evenodd"/><path d="M305.699 499.498 328.377 499.498 328.377 522.175 305.699 522.175Z" fill="#72E5EF" fill-rule="evenodd"/><path d="M328.377 499.498 351.054 499.498 351.054 522.175 328.377 522.175Z" fill="#72E5EF" fill-rule="evenodd"/><path d="M351.054 499.498 373.731 499.498 373.731 522.175 351.054 522.175Z" fill="#72E5EF" fill-rule="evenodd"/><path d="M373.731 499.498 396.408 499.498 396.408 522.175 373.731 522.175Z" fill="#72E5EF" fill-rule="evenodd"/><path d="M396.408 499.498 419.085 499.498 419.085 522.175 396.408 522.175Z" fill="#72E5EF" fill-rule="evenodd"/><path d="M-11.7809 453.477-11.7809 522.842" stroke="#000000" stroke-width="1.33333" stroke-linejoin="round" stroke-miterlimit="10" fill="none" fill-rule="evenodd"/><path d="M10.8963 453.477 10.8963 522.842" stroke="#000000" stroke-width="1.33333" stroke-linejoin="round" stroke-miterlimit="10" fill="none" fill-rule="evenodd"/><path d="M33.5734 453.477 33.5734 522.842" stroke="#000000" stroke-width="1.33333" stroke-linejoin="round" stroke-miterlimit="10" fill="none" fill-rule="evenodd"/><path d="M56.2506 453.477 56.2506 522.842" stroke="#000000" stroke-width="1.33333" stroke-linejoin="round" stroke-miterlimit="10" fill="none" fill-rule="evenodd"/><path d="M78.9278 453.477 78.9278 522.842" stroke="#000000" stroke-width="1.33333" stroke-linejoin="round" stroke-miterlimit="10" fill="none" fill-rule="evenodd"/><path d="M101.605 453.477 101.605 522.842" stroke="#000000" stroke-width="1.33333" stroke-linejoin="round" stroke-miterlimit="10" fill="none" fill-rule="evenodd"/><path d="M124.282 453.477 124.282 522.842" stroke="#000000" stroke-width="1.33333" stroke-linejoin="round" stroke-miterlimit="10" fill="none" fill-rule="evenodd"/><path d="M146.959 453.477 146.959 522.842" stroke="#000000" stroke-width="1.33333" stroke-linejoin="round" stroke-miterlimit="10" fill="none" fill-rule="evenodd"/><path d="M169.636 453.477 169.636 522.842" stroke="#000000" stroke-width="1.33333" stroke-linejoin="round" stroke-miterlimit="10" fill="none" fill-rule="evenodd"/><path d="M192.314 453.477 192.314 522.842" stroke="#000000" stroke-width="1.33333" stroke-linejoin="round" stroke-miterlimit="10" fill="none" fill-rule="evenodd"/><path d="M214.991 453.477 214.991 522.842" stroke="#000000" stroke-width="1.33333" stroke-linejoin="round" stroke-miterlimit="10" fill="none" fill-rule="evenodd"/><path d="M237.668 453.477 237.668 522.842" stroke="#000000" stroke-width="1.33333" stroke-linejoin="round" stroke-miterlimit="10" fill="none" fill-rule="evenodd"/><path d="M260.345 476.154 260.345 522.842" stroke="#000000" stroke-width="1.33333" stroke-linejoin="round" stroke-miterlimit="10" fill="none" fill-rule="evenodd"/><path d="M283.022 476.154 283.022 522.842" stroke="#000000" stroke-width="1.33333" stroke-linejoin="round" stroke-miterlimit="10" fill="none" fill-rule="evenodd"/><path d="M305.699 476.154 305.699 522.842" stroke="#000000" stroke-width="1.33333" stroke-linejoin="round" stroke-miterlimit="10" fill="none" fill-rule="evenodd"/><path d="M328.377 476.154 328.377 522.842" stroke="#000000" stroke-width="1.33333" stroke-linejoin="round" stroke-miterlimit="10" fill="none" fill-rule="evenodd"/><path d="M351.054 476.154 351.054 522.842" stroke="#000000" stroke-width="1.33333" stroke-linejoin="round" stroke-miterlimit="10" fill="none" fill-rule="evenodd"/><path d="M373.731 476.154 373.731 522.842" stroke="#000000" stroke-width="1.33333" stroke-linejoin="round" stroke-miterlimit="10" fill="none" fill-rule="evenodd"/><path d="M396.408 476.154 396.408 522.842" stroke="#000000" stroke-width="1.33333" stroke-linejoin="round" stroke-miterlimit="10" fill="none" fill-rule="evenodd"/><path d="M-35.1247 476.821 419.752 476.821" stroke="#000000" stroke-width="1.33333" stroke-linejoin="round" stroke-miterlimit="10" fill="none" fill-rule="evenodd"/><path d="M-35.1247 499.498 419.752 499.498" stroke="#000000" stroke-width="1.33333" stroke-linejoin="round" stroke-miterlimit="10" fill="none" fill-rule="evenodd"/><path d="M-34.4581 453.477-34.4581 522.842" stroke="#000000" stroke-width="1.33333" stroke-linejoin="round" stroke-miterlimit="10" fill="none" fill-rule="evenodd"/><path d="M419.085 476.154 419.085 522.842" stroke="#000000" stroke-width="1.33333" stroke-linejoin="round" stroke-miterlimit="10" fill="none" fill-rule="evenodd"/><path d="M-35.1247 454.144 238.335 454.144" stroke="#000000" stroke-width="1.33333" stroke-linejoin="round" stroke-miterlimit="10" fill="none" fill-rule="evenodd"/><path d="M-35.1247 522.175 419.752 522.175" stroke="#000000" stroke-width="1.33333" stroke-linejoin="round" stroke-miterlimit="10" fill="none" fill-rule="evenodd"/></g></svg>