<svg width="457" height="170" xmlns="http://www.w3.org/2000/svg" xmlns:xlink="http://www.w3.org/1999/xlink" overflow="hidden"><defs><clipPath id="clip0"><rect x="639" y="228" width="457" height="170"/></clipPath></defs><g clip-path="url(#clip0)" transform="translate(-639 -228)"><path d="M640 229.654 662.677 229.654 662.677 252.331 640 252.331Z" fill="#515442" fill-rule="evenodd"/><path d="M662.677 229.654 685.354 229.654 685.354 252.331 662.677 252.331Z" fill="#515442" fill-rule="evenodd"/><path d="M685.354 229.654 708.031 229.654 708.031 252.331 685.354 252.331Z" fill="#515442" fill-rule="evenodd"/><path d="M708.031 229.654 730.709 229.654 730.709 252.331 708.031 252.331Z" fill="#515442" fill-rule="evenodd"/><path d="M730.709 229.654 1093.54 229.654 1093.54 252.331 730.709 252.331Z" fill="#FFFFFF" fill-rule="evenodd"/><path d="M640 252.331 662.677 252.331 662.677 275.008 640 275.008Z" fill="#515442" fill-rule="evenodd"/><path d="M662.677 252.331 685.354 252.331 685.354 275.008 662.677 275.008Z" fill="#515442" fill-rule="evenodd"/><path d="M685.354 252.331 708.031 252.331 708.031 275.008 685.354 275.008Z" fill="#515442" fill-rule="evenodd"/><path d="M708.031 252.331 730.709 252.331 730.709 275.008 708.031 275.008Z" fill="#515442" fill-rule="evenodd"/><path d="M730.709 252.331 753.386 252.331 753.386 275.008 730.709 275.008Z" fill="#515442" fill-rule="evenodd"/><path d="M753.386 252.331 776.063 252.331 776.063 275.008 753.386 275.008Z" fill="#515442" fill-rule="evenodd"/><path d="M776.063 252.331 798.74 252.331 798.74 275.008 776.063 275.008Z" fill="#515442" fill-rule="evenodd"/><path d="M798.74 252.331 821.417 252.331 821.417 275.008 798.74 275.008Z" fill="#515442" fill-rule="evenodd"/><path d="M821.417 252.331 844.094 252.331 844.094 275.008 821.417 275.008Z" fill="#515442" fill-rule="evenodd"/><path d="M844.094 252.331 866.772 252.331 866.772 275.008 844.094 275.008Z" fill="#515442" fill-rule="evenodd"/><path d="M866.772 252.331 889.449 252.331 889.449 275.008 866.772 275.008Z" fill="#515442" fill-rule="evenodd"/><path d="M889.449 252.331 912.126 252.331 912.126 275.008 889.449 275.008Z" fill="#515442" fill-rule="evenodd"/><path d="M912.126 252.331 934.803 252.331 934.803 275.008 912.126 275.008Z" fill="#515442" fill-rule="evenodd"/><path d="M934.803 252.331 957.48 252.331 957.48 275.008 934.803 275.008Z" fill="#515442" fill-rule="evenodd"/><path d="M957.48 252.331 980.157 252.331 980.157 275.008 957.48 275.008Z" fill="#515442" fill-rule="evenodd"/><path d="M980.157 252.331 1002.83 252.331 1002.83 275.008 980.157 275.008Z" fill="#515442" fill-rule="evenodd"/><path d="M1002.83 252.331 1025.51 252.331 1025.51 275.008 1002.83 275.008Z" fill="#515442" fill-rule="evenodd"/><path d="M1025.51 252.331 1048.19 252.331 1048.19 275.008 1025.51 275.008Z" fill="#515442" fill-rule="evenodd"/><path d="M1048.19 252.331 1070.87 252.331 1070.87 275.008 1048.19 275.008Z" fill="#515442" fill-rule="evenodd"/><path d="M1070.87 252.331 1093.54 252.331 1093.54 275.008 1070.87 275.008Z" fill="#515442" fill-rule="evenodd"/><path d="M640 275.008 662.677 275.008 662.677 297.685 640 297.685Z" fill="#515442" fill-rule="evenodd"/><path d="M662.677 275.008 685.354 275.008 685.354 297.685 662.677 297.685Z" fill="#515442" fill-rule="evenodd"/><path d="M685.354 275.008 708.031 275.008 708.031 297.685 685.354 297.685Z" fill="#515442" fill-rule="evenodd"/><path d="M708.031 275.008 730.709 275.008 730.709 297.685 708.031 297.685Z" fill="#515442" fill-rule="evenodd"/><path d="M730.709 275.008 753.386 275.008 753.386 297.685 730.709 297.685Z" fill="#515442" fill-rule="evenodd"/><path d="M753.386 275.008 776.063 275.008 776.063 297.685 753.386 297.685Z" fill="#515442" fill-rule="evenodd"/><path d="M776.063 275.008 798.74 275.008 798.74 297.685 776.063 297.685Z" fill="#515442" fill-rule="evenodd"/><path d="M798.74 275.008 821.417 275.008 821.417 297.685 798.74 297.685Z" fill="#515442" fill-rule="evenodd"/><path d="M821.417 275.008 844.094 275.008 844.094 297.685 821.417 297.685Z" fill="#515442" fill-rule="evenodd"/><path d="M844.094 275.008 866.772 275.008 866.772 297.685 844.094 297.685Z" fill="#515442" fill-rule="evenodd"/><path d="M866.772 275.008 889.449 275.008 889.449 297.685 866.772 297.685Z" fill="#515442" fill-rule="evenodd"/><path d="M889.449 275.008 912.126 275.008 912.126 297.685 889.449 297.685Z" fill="#515442" fill-rule="evenodd"/><path d="M912.126 275.008 934.803 275.008 934.803 297.685 912.126 297.685Z" fill="#515442" fill-rule="evenodd"/><path d="M934.803 275.008 957.48 275.008 957.48 297.685 934.803 297.685Z" fill="#515442" fill-rule="evenodd"/><path d="M957.48 275.008 980.157 275.008 980.157 297.685 957.48 297.685Z" fill="#515442" fill-rule="evenodd"/><path d="M980.157 275.008 1002.83 275.008 1002.83 297.685 980.157 297.685Z" fill="#515442" fill-rule="evenodd"/><path d="M1002.83 275.008 1025.51 275.008 1025.51 297.685 1002.83 297.685Z" fill="#515442" fill-rule="evenodd"/><path d="M1025.51 275.008 1048.19 275.008 1048.19 297.685 1025.51 297.685Z" fill="#515442" fill-rule="evenodd"/><path d="M1048.19 275.008 1070.87 275.008 1070.87 297.685 1048.19 297.685Z" fill="#515442" fill-rule="evenodd"/><path d="M1070.87 275.008 1093.54 275.008 1093.54 297.685 1070.87 297.685Z" fill="#515442" fill-rule="evenodd"/><path d="M640 297.685 662.677 297.685 662.677 320.362 640 320.362Z" fill="#515442" fill-rule="evenodd"/><path d="M662.677 297.685 685.354 297.685 685.354 320.362 662.677 320.362Z" fill="#515442" fill-rule="evenodd"/><path d="M685.354 297.685 708.031 297.685 708.031 320.362 685.354 320.362Z" fill="#515442" fill-rule="evenodd"/><path d="M708.031 297.685 730.709 297.685 730.709 320.362 708.031 320.362Z" fill="#515442" fill-rule="evenodd"/><path d="M730.709 297.685 753.386 297.685 753.386 320.362 730.709 320.362Z" fill="#515442" fill-rule="evenodd"/><path d="M753.386 297.685 776.063 297.685 776.063 320.362 753.386 320.362Z" fill="#515442" fill-rule="evenodd"/><path d="M776.063 297.685 798.74 297.685 798.74 320.362 776.063 320.362Z" fill="#515442" fill-rule="evenodd"/><path d="M798.74 297.685 821.417 297.685 821.417 320.362 798.74 320.362Z" fill="#515442" fill-rule="evenodd"/><path d="M821.417 297.685 844.094 297.685 844.094 320.362 821.417 320.362Z" fill="#515442" fill-rule="evenodd"/><path d="M844.094 297.685 866.772 297.685 866.772 320.362 844.094 320.362Z" fill="#515442" fill-rule="evenodd"/><path d="M866.772 297.685 889.449 297.685 889.449 320.362 866.772 320.362Z" fill="#515442" fill-rule="evenodd"/><path d="M889.449 297.685 912.126 297.685 912.126 320.362 889.449 320.362Z" fill="#515442" fill-rule="evenodd"/><path d="M912.126 297.685 934.803 297.685 934.803 320.362 912.126 320.362Z" fill="#515442" fill-rule="evenodd"/><path d="M934.803 297.685 957.48 297.685 957.48 320.362 934.803 320.362Z" fill="#515442" fill-rule="evenodd"/><path d="M957.48 297.685 980.157 297.685 980.157 320.362 957.48 320.362Z" fill="#515442" fill-rule="evenodd"/><path d="M980.157 297.685 1002.83 297.685 1002.83 320.362 980.157 320.362Z" fill="#515442" fill-rule="evenodd"/><path d="M1002.83 297.685 1025.51 297.685 1025.51 320.362 1002.83 320.362Z" fill="#515442" fill-rule="evenodd"/><path d="M1025.51 297.685 1048.19 297.685 1048.19 320.362 1025.51 320.362Z" fill="#515442" fill-rule="evenodd"/><path d="M1048.19 297.685 1070.87 297.685 1070.87 320.362 1048.19 320.362Z" fill="#515442" fill-rule="evenodd"/><path d="M1070.87 297.685 1093.54 297.685 1093.54 320.362 1070.87 320.362Z" fill="#515442" fill-rule="evenodd"/><path d="M662.677 228.987 662.677 321.029" stroke="#000000" stroke-width="1.33333" stroke-linejoin="round" stroke-miterlimit="10" fill="none" fill-rule="evenodd"/><path d="M685.354 228.987 685.354 321.029" stroke="#000000" stroke-width="1.33333" stroke-linejoin="round" stroke-miterlimit="10" fill="none" fill-rule="evenodd"/><path d="M708.031 228.987 708.031 321.029" stroke="#000000" stroke-width="1.33333" stroke-linejoin="round" stroke-miterlimit="10" fill="none" fill-rule="evenodd"/><path d="M730.709 228.987 730.709 321.029" stroke="#000000" stroke-width="1.33333" stroke-linejoin="round" stroke-miterlimit="10" fill="none" fill-rule="evenodd"/><path d="M753.386 251.664 753.386 321.029" stroke="#000000" stroke-width="1.33333" stroke-linejoin="round" stroke-miterlimit="10" fill="none" fill-rule="evenodd"/><path d="M776.063 251.664 776.063 321.029" stroke="#000000" stroke-width="1.33333" stroke-linejoin="round" stroke-miterlimit="10" fill="none" fill-rule="evenodd"/><path d="M798.74 251.664 798.74 321.029" stroke="#000000" stroke-width="1.33333" stroke-linejoin="round" stroke-miterlimit="10" fill="none" fill-rule="evenodd"/><path d="M821.417 251.664 821.417 321.029" stroke="#000000" stroke-width="1.33333" stroke-linejoin="round" stroke-miterlimit="10" fill="none" fill-rule="evenodd"/><path d="M844.094 251.664 844.094 321.029" stroke="#000000" stroke-width="1.33333" stroke-linejoin="round" stroke-miterlimit="10" fill="none" fill-rule="evenodd"/><path d="M866.772 251.664 866.772 321.029" stroke="#000000" stroke-width="1.33333" stroke-linejoin="round" stroke-miterlimit="10" fill="none" fill-rule="evenodd"/><path d="M889.449 251.664 889.449 321.029" stroke="#000000" stroke-width="1.33333" stroke-linejoin="round" stroke-miterlimit="10" fill="none" fill-rule="evenodd"/><path d="M912.126 251.664 912.126 321.029" stroke="#000000" stroke-width="1.33333" stroke-linejoin="round" stroke-miterlimit="10" fill="none" fill-rule="evenodd"/><path d="M934.803 251.664 934.803 321.029" stroke="#000000" stroke-width="1.33333" stroke-linejoin="round" stroke-miterlimit="10" fill="none" fill-rule="evenodd"/><path d="M957.48 251.664 957.48 321.029" stroke="#000000" stroke-width="1.33333" stroke-linejoin="round" stroke-miterlimit="10" fill="none" fill-rule="evenodd"/><path d="M980.157 251.664 980.157 321.029" stroke="#000000" stroke-width="1.33333" stroke-linejoin="round" stroke-miterlimit="10" fill="none" fill-rule="evenodd"/><path d="M1002.83 251.664 1002.83 321.029" stroke="#000000" stroke-width="1.33333" stroke-linejoin="round" stroke-miterlimit="10" fill="none" fill-rule="evenodd"/><path d="M1025.51 251.664 1025.51 321.029" stroke="#000000" stroke-width="1.33333" stroke-linejoin="round" stroke-miterlimit="10" fill="none" fill-rule="evenodd"/><path d="M1048.19 251.664 1048.19 321.029" stroke="#000000" stroke-width="1.33333" stroke-linejoin="round" stroke-miterlimit="10" fill="none" fill-rule="evenodd"/><path d="M1070.87 251.664 1070.87 321.029" stroke="#000000" stroke-width="1.33333" stroke-linejoin="round" stroke-miterlimit="10" fill="none" fill-rule="evenodd"/><path d="M639.333 252.331 1094.21 252.331" stroke="#000000" stroke-width="1.33333" stroke-linejoin="round" stroke-miterlimit="10" fill="none" fill-rule="evenodd"/><path d="M639.333 275.008 1094.21 275.008" stroke="#000000" stroke-width="1.33333" stroke-linejoin="round" stroke-miterlimit="10" fill="none" fill-rule="evenodd"/><path d="M639.333 297.685 1094.21 297.685" stroke="#000000" stroke-width="1.33333" stroke-linejoin="round" stroke-miterlimit="10" fill="none" fill-rule="evenodd"/><path d="M640 228.987 640 321.029" stroke="#000000" stroke-width="1.33333" stroke-linejoin="round" stroke-miterlimit="10" fill="none" fill-rule="evenodd"/><path d="M1093.54 251.664 1093.54 321.029" stroke="#000000" stroke-width="1.33333" stroke-linejoin="round" stroke-miterlimit="10" fill="none" fill-rule="evenodd"/><path d="M639.333 229.654 731.375 229.654" stroke="#000000" stroke-width="1.33333" stroke-linejoin="round" stroke-miterlimit="10" fill="none" fill-rule="evenodd"/><path d="M639.333 320.362 1094.21 320.362" stroke="#000000" stroke-width="1.33333" stroke-linejoin="round" stroke-miterlimit="10" fill="none" fill-rule="evenodd"/><text font-family="Calibri,Calibri_MSFontService,sans-serif" font-weight="700" font-size="24" transform="translate(789.205 347)">Autres religions<tspan x="46.0667" y="29">(6,4%)</tspan></text></g></svg>